<?xml version="1.0"?>
<xmeml version="4">
    <project>
        <name>yoga</name>
        <children>
            <sequence id="sequence-1">
                <name>yoga</name>
                <duration>54922</duration>
                <rate>
                    <timebase>30</timebase>
                    <ntsc>TRUE</ntsc>
                </rate>
                <media>
                    <video>
                        <track>
                            <clipitem frameBlend="FALSE" id="clipitem-1">
                                <media>
                                    <video>
                                        <samplecharacteristics>
                                            <height>720</height>
                                            <width>1270</width>
                                        </samplecharacteristics>
                                    </video>
                                </media>
                                <file id="file-1">
                                    <pathurl>/home/davidk/code/python/JC-render/JC-examples/yoga.mp4</pathurl>
                                    <name>yoga.mp4</name>
                                    <rate>
                                        <timebase>30</timebase>
                                        <ntsc>TRUE</ntsc>
                                    </rate>
                                    <duration>54922</duration>
                                    <timecode>
                                        <rate>
                                            <timebase>30</timebase>
                                            <ntsc>TRUE</ntsc>
                                        </rate>
                                        <string>00:00:00:00</string>
                                        <frame>0</frame>
                                        <displayformat>NDF</displayformat>
                                        <media>
                                            <video/>
                                            <audio/>
                                        </media>
                                    </timecode>
                                </file>
                                <name>/home/davidk/code/python/JC-render/JC-examples/yoga.mp4</name>
                                <rate>
                                    <timebase>30</timebase>
                                    <ntsc>TRUE</ntsc>
                                </rate>
                                <start>29</start>
                                <end>58</end>
                            </clipitem>
                            <clipitem frameBlend="FALSE" id="clipitem-2">
                                <media>
                                    <video>
                                        <samplecharacteristics>
                                            <height>720</height>
                                            <width>1270</width>
                                        </samplecharacteristics>
                                    </video>
                                </media>
                                <file id="file-1">
                                    <pathurl>/home/davidk/code/python/JC-render/JC-examples/yoga.mp4</pathurl>
                                    <name>yoga.mp4</name>
                                    <rate>
                                        <timebase>30</timebase>
                                        <ntsc>TRUE</ntsc>
                                    </rate>
                                    <duration>54922</duration>
                                    <timecode>
                                        <rate>
                                            <timebase>30</timebase>
                                            <ntsc>TRUE</ntsc>
                                        </rate>
                                        <string>00:00:00:00</string>
                                        <frame>0</frame>
                                        <displayformat>NDF</displayformat>
                                        <media>
                                            <video/>
                                            <audio/>
                                        </media>
                                    </timecode>
                                </file>
                                <name>/home/davidk/code/python/JC-render/JC-examples/yoga.mp4</name>
                                <rate>
                                    <timebase>30</timebase>
                                    <ntsc>TRUE</ntsc>
                                </rate>
                                <start>58</start>
                                <end>81</end>
                            </clipitem>
                            <clipitem frameBlend="FALSE" id="clipitem-3">
                                <media>
                                    <video>
                                        <samplecharacteristics>
                                            <height>720</height>
                                            <width>1270</width>
                                        </samplecharacteristics>
                                    </video>
                                </media>
                                <file id="file-1">
                                    <pathurl>/home/davidk/code/python/JC-render/JC-examples/yoga.mp4</pathurl>
                                    <name>yoga.mp4</name>
                                    <rate>
                                        <timebase>30</timebase>
                                        <ntsc>TRUE</ntsc>
                                    </rate>
                                    <duration>54922</duration>
                                    <timecode>
                                        <rate>
                                            <timebase>30</timebase>
                                            <ntsc>TRUE</ntsc>
                                        </rate>
                                        <string>00:00:00:00</string>
                                        <frame>0</frame>
                                        <displayformat>NDF</displayformat>
                                        <media>
                                            <video/>
                                            <audio/>
                                        </media>
                                    </timecode>
                                </file>
                                <name>/home/davidk/code/python/JC-render/JC-examples/yoga.mp4</name>
                                <rate>
                                    <timebase>30</timebase>
                                    <ntsc>TRUE</ntsc>
                                </rate>
                                <start>81</start>
                                <end>124</end>
                            </clipitem>
                            <clipitem frameBlend="FALSE" id="clipitem-4">
                                <media>
                                    <video>
                                        <samplecharacteristics>
                                            <height>720</height>
                                            <width>1270</width>
                                        </samplecharacteristics>
                                    </video>
                                </media>
                                <file id="file-1">
                                    <pathurl>/home/davidk/code/python/JC-render/JC-examples/yoga.mp4</pathurl>
                                    <name>yoga.mp4</name>
                                    <rate>
                                        <timebase>30</timebase>
                                        <ntsc>TRUE</ntsc>
                                    </rate>
                                    <duration>54922</duration>
                                    <timecode>
                                        <rate>
                                            <timebase>30</timebase>
                                            <ntsc>TRUE</ntsc>
                                        </rate>
                                        <string>00:00:00:00</string>
                                        <frame>0</frame>
                                        <displayformat>NDF</displayformat>
                                        <media>
                                            <video/>
                                            <audio/>
                                        </media>
                                    </timecode>
                                </file>
                                <name>/home/davidk/code/python/JC-render/JC-examples/yoga.mp4</name>
                                <rate>
                                    <timebase>30</timebase>
                                    <ntsc>TRUE</ntsc>
                                </rate>
                                <start>124</start>
                                <end>126</end>
                            </clipitem>
                            <clipitem frameBlend="FALSE" id="clipitem-5">
                                <media>
                                    <video>
                                        <samplecharacteristics>
                                            <height>720</height>
                                            <width>1270</width>
                                        </samplecharacteristics>
                                    </video>
                                </media>
                                <file id="file-1">
                                    <pathurl>/home/davidk/code/python/JC-render/JC-examples/yoga.mp4</pathurl>
                                    <name>yoga.mp4</name>
                                    <rate>
                                        <timebase>30</timebase>
                                        <ntsc>TRUE</ntsc>
                                    </rate>
                                    <duration>54922</duration>
                                    <timecode>
                                        <rate>
                                            <timebase>30</timebase>
                                            <ntsc>TRUE</ntsc>
                                        </rate>
                                        <string>00:00:00:00</string>
                                        <frame>0</frame>
                                        <displayformat>NDF</displayformat>
                                        <media>
                                            <video/>
                                            <audio/>
                                        </media>
                                    </timecode>
                                </file>
                                <name>/home/davidk/code/python/JC-render/JC-examples/yoga.mp4</name>
                                <rate>
                                    <timebase>30</timebase>
                                    <ntsc>TRUE</ntsc>
                                </rate>
                                <start>126</start>
                                <end>142</end>
                            </clipitem>
                            <clipitem frameBlend="FALSE" id="clipitem-6">
                                <media>
                                    <video>
                                        <samplecharacteristics>
                                            <height>720</height>
                                            <width>1270</width>
                                        </samplecharacteristics>
                                    </video>
                                </media>
                                <file id="file-1">
                                    <pathurl>/home/davidk/code/python/JC-render/JC-examples/yoga.mp4</pathurl>
                                    <name>yoga.mp4</name>
                                    <rate>
                                        <timebase>30</timebase>
                                        <ntsc>TRUE</ntsc>
                                    </rate>
                                    <duration>54922</duration>
                                    <timecode>
                                        <rate>
                                            <timebase>30</timebase>
                                            <ntsc>TRUE</ntsc>
                                        </rate>
                                        <string>00:00:00:00</string>
                                        <frame>0</frame>
                                        <displayformat>NDF</displayformat>
                                        <media>
                                            <video/>
                                            <audio/>
                                        </media>
                                    </timecode>
                                </file>
                                <name>/home/davidk/code/python/JC-render/JC-examples/yoga.mp4</name>
                                <rate>
                                    <timebase>30</timebase>
                                    <ntsc>TRUE</ntsc>
                                </rate>
                                <start>142</start>
                                <end>158</end>
                            </clipitem>
                            <clipitem frameBlend="FALSE" id="clipitem-7">
                                <media>
                                    <video>
                                        <samplecharacteristics>
                                            <height>720</height>
                                            <width>1270</width>
                                        </samplecharacteristics>
                                    </video>
                                </media>
                                <file id="file-1">
                                    <pathurl>/home/davidk/code/python/JC-render/JC-examples/yoga.mp4</pathurl>
                                    <name>yoga.mp4</name>
                                    <rate>
                                        <timebase>30</timebase>
                                        <ntsc>TRUE</ntsc>
                                    </rate>
                                    <duration>54922</duration>
                                    <timecode>
                                        <rate>
                                            <timebase>30</timebase>
                                            <ntsc>TRUE</ntsc>
                                        </rate>
                                        <string>00:00:00:00</string>
                                        <frame>0</frame>
                                        <displayformat>NDF</displayformat>
                                        <media>
                                            <video/>
                                            <audio/>
                                        </media>
                                    </timecode>
                                </file>
                                <name>/home/davidk/code/python/JC-render/JC-examples/yoga.mp4</name>
                                <rate>
                                    <timebase>30</timebase>
                                    <ntsc>TRUE</ntsc>
                                </rate>
                                <start>158</start>
                                <end>208</end>
                            </clipitem>
                            <clipitem frameBlend="FALSE" id="clipitem-8">
                                <media>
                                    <video>
                                        <samplecharacteristics>
                                            <height>720</height>
                                            <width>1270</width>
                                        </samplecharacteristics>
                                    </video>
                                </media>
                                <file id="file-1">
                                    <pathurl>/home/davidk/code/python/JC-render/JC-examples/yoga.mp4</pathurl>
                                    <name>yoga.mp4</name>
                                    <rate>
                                        <timebase>30</timebase>
                                        <ntsc>TRUE</ntsc>
                                    </rate>
                                    <duration>54922</duration>
                                    <timecode>
                                        <rate>
                                            <timebase>30</timebase>
                                            <ntsc>TRUE</ntsc>
                                        </rate>
                                        <string>00:00:00:00</string>
                                        <frame>0</frame>
                                        <displayformat>NDF</displayformat>
                                        <media>
                                            <video/>
                                            <audio/>
                                        </media>
                                    </timecode>
                                </file>
                                <name>/home/davidk/code/python/JC-render/JC-examples/yoga.mp4</name>
                                <rate>
                                    <timebase>30</timebase>
                                    <ntsc>TRUE</ntsc>
                                </rate>
                                <start>208</start>
                                <end>220</end>
                            </clipitem>
                            <clipitem frameBlend="FALSE" id="clipitem-9">
                                <media>
                                    <video>
                                        <samplecharacteristics>
                                            <height>720</height>
                                            <width>1270</width>
                                        </samplecharacteristics>
                                    </video>
                                </media>
                                <file id="file-1">
                                    <pathurl>/home/davidk/code/python/JC-render/JC-examples/yoga.mp4</pathurl>
                                    <name>yoga.mp4</name>
                                    <rate>
                                        <timebase>30</timebase>
                                        <ntsc>TRUE</ntsc>
                                    </rate>
                                    <duration>54922</duration>
                                    <timecode>
                                        <rate>
                                            <timebase>30</timebase>
                                            <ntsc>TRUE</ntsc>
                                        </rate>
                                        <string>00:00:00:00</string>
                                        <frame>0</frame>
                                        <displayformat>NDF</displayformat>
                                        <media>
                                            <video/>
                                            <audio/>
                                        </media>
                                    </timecode>
                                </file>
                                <name>/home/davidk/code/python/JC-render/JC-examples/yoga.mp4</name>
                                <rate>
                                    <timebase>30</timebase>
                                    <ntsc>TRUE</ntsc>
                                </rate>
                                <start>220</start>
                                <end>267</end>
                            </clipitem>
                            <clipitem frameBlend="FALSE" id="clipitem-10">
                                <media>
                                    <video>
                                        <samplecharacteristics>
                                            <height>720</height>
                                            <width>1270</width>
                                        </samplecharacteristics>
                                    </video>
                                </media>
                                <file id="file-1">
                                    <pathurl>/home/davidk/code/python/JC-render/JC-examples/yoga.mp4</pathurl>
                                    <name>yoga.mp4</name>
                                    <rate>
                                        <timebase>30</timebase>
                                        <ntsc>TRUE</ntsc>
                                    </rate>
                                    <duration>54922</duration>
                                    <timecode>
                                        <rate>
                                            <timebase>30</timebase>
                                            <ntsc>TRUE</ntsc>
                                        </rate>
                                        <string>00:00:00:00</string>
                                        <frame>0</frame>
                                        <displayformat>NDF</displayformat>
                                        <media>
                                            <video/>
                                            <audio/>
                                        </media>
                                    </timecode>
                                </file>
                                <name>/home/davidk/code/python/JC-render/JC-examples/yoga.mp4</name>
                                <rate>
                                    <timebase>30</timebase>
                                    <ntsc>TRUE</ntsc>
                                </rate>
                                <start>267</start>
                                <end>287</end>
                            </clipitem>
                            <clipitem frameBlend="FALSE" id="clipitem-11">
                                <media>
                                    <video>
                                        <samplecharacteristics>
                                            <height>720</height>
                                            <width>1270</width>
                                        </samplecharacteristics>
                                    </video>
                                </media>
                                <file id="file-1">
                                    <pathurl>/home/davidk/code/python/JC-render/JC-examples/yoga.mp4</pathurl>
                                    <name>yoga.mp4</name>
                                    <rate>
                                        <timebase>30</timebase>
                                        <ntsc>TRUE</ntsc>
                                    </rate>
                                    <duration>54922</duration>
                                    <timecode>
                                        <rate>
                                            <timebase>30</timebase>
                                            <ntsc>TRUE</ntsc>
                                        </rate>
                                        <string>00:00:00:00</string>
                                        <frame>0</frame>
                                        <displayformat>NDF</displayformat>
                                        <media>
                                            <video/>
                                            <audio/>
                                        </media>
                                    </timecode>
                                </file>
                                <name>/home/davidk/code/python/JC-render/JC-examples/yoga.mp4</name>
                                <rate>
                                    <timebase>30</timebase>
                                    <ntsc>TRUE</ntsc>
                                </rate>
                                <start>287</start>
                                <end>396</end>
                            </clipitem>
                            <clipitem frameBlend="FALSE" id="clipitem-12">
                                <media>
                                    <video>
                                        <samplecharacteristics>
                                            <height>720</height>
                                            <width>1270</width>
                                        </samplecharacteristics>
                                    </video>
                                </media>
                                <file id="file-1">
                                    <pathurl>/home/davidk/code/python/JC-render/JC-examples/yoga.mp4</pathurl>
                                    <name>yoga.mp4</name>
                                    <rate>
                                        <timebase>30</timebase>
                                        <ntsc>TRUE</ntsc>
                                    </rate>
                                    <duration>54922</duration>
                                    <timecode>
                                        <rate>
                                            <timebase>30</timebase>
                                            <ntsc>TRUE</ntsc>
                                        </rate>
                                        <string>00:00:00:00</string>
                                        <frame>0</frame>
                                        <displayformat>NDF</displayformat>
                                        <media>
                                            <video/>
                                            <audio/>
                                        </media>
                                    </timecode>
                                </file>
                                <name>/home/davidk/code/python/JC-render/JC-examples/yoga.mp4</name>
                                <rate>
                                    <timebase>30</timebase>
                                    <ntsc>TRUE</ntsc>
                                </rate>
                                <start>396</start>
                                <end>402</end>
                            </clipitem>
                            <clipitem frameBlend="FALSE" id="clipitem-13">
                                <media>
                                    <video>
                                        <samplecharacteristics>
                                            <height>720</height>
                                            <width>1270</width>
                                        </samplecharacteristics>
                                    </video>
                                </media>
                                <file id="file-1">
                                    <pathurl>/home/davidk/code/python/JC-render/JC-examples/yoga.mp4</pathurl>
                                    <name>yoga.mp4</name>
                                    <rate>
                                        <timebase>30</timebase>
                                        <ntsc>TRUE</ntsc>
                                    </rate>
                                    <duration>54922</duration>
                                    <timecode>
                                        <rate>
                                            <timebase>30</timebase>
                                            <ntsc>TRUE</ntsc>
                                        </rate>
                                        <string>00:00:00:00</string>
                                        <frame>0</frame>
                                        <displayformat>NDF</displayformat>
                                        <media>
                                            <video/>
                                            <audio/>
                                        </media>
                                    </timecode>
                                </file>
                                <name>/home/davidk/code/python/JC-render/JC-examples/yoga.mp4</name>
                                <rate>
                                    <timebase>30</timebase>
                                    <ntsc>TRUE</ntsc>
                                </rate>
                                <start>402</start>
                                <end>441</end>
                            </clipitem>
                            <clipitem frameBlend="FALSE" id="clipitem-14">
                                <media>
                                    <video>
                                        <samplecharacteristics>
                                            <height>720</height>
                                            <width>1270</width>
                                        </samplecharacteristics>
                                    </video>
                                </media>
                                <file id="file-1">
                                    <pathurl>/home/davidk/code/python/JC-render/JC-examples/yoga.mp4</pathurl>
                                    <name>yoga.mp4</name>
                                    <rate>
                                        <timebase>30</timebase>
                                        <ntsc>TRUE</ntsc>
                                    </rate>
                                    <duration>54922</duration>
                                    <timecode>
                                        <rate>
                                            <timebase>30</timebase>
                                            <ntsc>TRUE</ntsc>
                                        </rate>
                                        <string>00:00:00:00</string>
                                        <frame>0</frame>
                                        <displayformat>NDF</displayformat>
                                        <media>
                                            <video/>
                                            <audio/>
                                        </media>
                                    </timecode>
                                </file>
                                <name>/home/davidk/code/python/JC-render/JC-examples/yoga.mp4</name>
                                <rate>
                                    <timebase>30</timebase>
                                    <ntsc>TRUE</ntsc>
                                </rate>
                                <start>441</start>
                                <end>447</end>
                            </clipitem>
                            <clipitem frameBlend="FALSE" id="clipitem-15">
                                <media>
                                    <video>
                                        <samplecharacteristics>
                                            <height>720</height>
                                            <width>1270</width>
                                        </samplecharacteristics>
                                    </video>
                                </media>
                                <file id="file-1">
                                    <pathurl>/home/davidk/code/python/JC-render/JC-examples/yoga.mp4</pathurl>
                                    <name>yoga.mp4</name>
                                    <rate>
                                        <timebase>30</timebase>
                                        <ntsc>TRUE</ntsc>
                                    </rate>
                                    <duration>54922</duration>
                                    <timecode>
                                        <rate>
                                            <timebase>30</timebase>
                                            <ntsc>TRUE</ntsc>
                                        </rate>
                                        <string>00:00:00:00</string>
                                        <frame>0</frame>
                                        <displayformat>NDF</displayformat>
                                        <media>
                                            <video/>
                                            <audio/>
                                        </media>
                                    </timecode>
                                </file>
                                <name>/home/davidk/code/python/JC-render/JC-examples/yoga.mp4</name>
                                <rate>
                                    <timebase>30</timebase>
                                    <ntsc>TRUE</ntsc>
                                </rate>
                                <start>447</start>
                                <end>480</end>
                            </clipitem>
                            <clipitem frameBlend="FALSE" id="clipitem-16">
                                <media>
                                    <video>
                                        <samplecharacteristics>
                                            <height>720</height>
                                            <width>1270</width>
                                        </samplecharacteristics>
                                    </video>
                                </media>
                                <file id="file-1">
                                    <pathurl>/home/davidk/code/python/JC-render/JC-examples/yoga.mp4</pathurl>
                                    <name>yoga.mp4</name>
                                    <rate>
                                        <timebase>30</timebase>
                                        <ntsc>TRUE</ntsc>
                                    </rate>
                                    <duration>54922</duration>
                                    <timecode>
                                        <rate>
                                            <timebase>30</timebase>
                                            <ntsc>TRUE</ntsc>
                                        </rate>
                                        <string>00:00:00:00</string>
                                        <frame>0</frame>
                                        <displayformat>NDF</displayformat>
                                        <media>
                                            <video/>
                                            <audio/>
                                        </media>
                                    </timecode>
                                </file>
                                <name>/home/davidk/code/python/JC-render/JC-examples/yoga.mp4</name>
                                <rate>
                                    <timebase>30</timebase>
                                    <ntsc>TRUE</ntsc>
                                </rate>
                                <start>480</start>
                                <end>600</end>
                            </clipitem>
                            <clipitem frameBlend="FALSE" id="clipitem-17">
                                <media>
                                    <video>
                                        <samplecharacteristics>
                                            <height>720</height>
                                            <width>1270</width>
                                        </samplecharacteristics>
                                    </video>
                                </media>
                                <file id="file-1">
                                    <pathurl>/home/davidk/code/python/JC-render/JC-examples/yoga.mp4</pathurl>
                                    <name>yoga.mp4</name>
                                    <rate>
                                        <timebase>30</timebase>
                                        <ntsc>TRUE</ntsc>
                                    </rate>
                                    <duration>54922</duration>
                                    <timecode>
                                        <rate>
                                            <timebase>30</timebase>
                                            <ntsc>TRUE</ntsc>
                                        </rate>
                                        <string>00:00:00:00</string>
                                        <frame>0</frame>
                                        <displayformat>NDF</displayformat>
                                        <media>
                                            <video/>
                                            <audio/>
                                        </media>
                                    </timecode>
                                </file>
                                <name>/home/davidk/code/python/JC-render/JC-examples/yoga.mp4</name>
                                <rate>
                                    <timebase>30</timebase>
                                    <ntsc>TRUE</ntsc>
                                </rate>
                                <start>600</start>
                                <end>682</end>
                            </clipitem>
                            <clipitem frameBlend="FALSE" id="clipitem-18">
                                <media>
                                    <video>
                                        <samplecharacteristics>
                                            <height>720</height>
                                            <width>1270</width>
                                        </samplecharacteristics>
                                    </video>
                                </media>
                                <file id="file-1">
                                    <pathurl>/home/davidk/code/python/JC-render/JC-examples/yoga.mp4</pathurl>
                                    <name>yoga.mp4</name>
                                    <rate>
                                        <timebase>30</timebase>
                                        <ntsc>TRUE</ntsc>
                                    </rate>
                                    <duration>54922</duration>
                                    <timecode>
                                        <rate>
                                            <timebase>30</timebase>
                                            <ntsc>TRUE</ntsc>
                                        </rate>
                                        <string>00:00:00:00</string>
                                        <frame>0</frame>
                                        <displayformat>NDF</displayformat>
                                        <media>
                                            <video/>
                                            <audio/>
                                        </media>
                                    </timecode>
                                </file>
                                <name>/home/davidk/code/python/JC-render/JC-examples/yoga.mp4</name>
                                <rate>
                                    <timebase>30</timebase>
                                    <ntsc>TRUE</ntsc>
                                </rate>
                                <start>682</start>
                                <end>708</end>
                            </clipitem>
                            <clipitem frameBlend="FALSE" id="clipitem-19">
                                <media>
                                    <video>
                                        <samplecharacteristics>
                                            <height>720</height>
                                            <width>1270</width>
                                        </samplecharacteristics>
                                    </video>
                                </media>
                                <file id="file-1">
                                    <pathurl>/home/davidk/code/python/JC-render/JC-examples/yoga.mp4</pathurl>
                                    <name>yoga.mp4</name>
                                    <rate>
                                        <timebase>30</timebase>
                                        <ntsc>TRUE</ntsc>
                                    </rate>
                                    <duration>54922</duration>
                                    <timecode>
                                        <rate>
                                            <timebase>30</timebase>
                                            <ntsc>TRUE</ntsc>
                                        </rate>
                                        <string>00:00:00:00</string>
                                        <frame>0</frame>
                                        <displayformat>NDF</displayformat>
                                        <media>
                                            <video/>
                                            <audio/>
                                        </media>
                                    </timecode>
                                </file>
                                <name>/home/davidk/code/python/JC-render/JC-examples/yoga.mp4</name>
                                <rate>
                                    <timebase>30</timebase>
                                    <ntsc>TRUE</ntsc>
                                </rate>
                                <start>708</start>
                                <end>835</end>
                            </clipitem>
                            <clipitem frameBlend="FALSE" id="clipitem-20">
                                <media>
                                    <video>
                                        <samplecharacteristics>
                                            <height>720</height>
                                            <width>1270</width>
                                        </samplecharacteristics>
                                    </video>
                                </media>
                                <file id="file-1">
                                    <pathurl>/home/davidk/code/python/JC-render/JC-examples/yoga.mp4</pathurl>
                                    <name>yoga.mp4</name>
                                    <rate>
                                        <timebase>30</timebase>
                                        <ntsc>TRUE</ntsc>
                                    </rate>
                                    <duration>54922</duration>
                                    <timecode>
                                        <rate>
                                            <timebase>30</timebase>
                                            <ntsc>TRUE</ntsc>
                                        </rate>
                                        <string>00:00:00:00</string>
                                        <frame>0</frame>
                                        <displayformat>NDF</displayformat>
                                        <media>
                                            <video/>
                                            <audio/>
                                        </media>
                                    </timecode>
                                </file>
                                <name>/home/davidk/code/python/JC-render/JC-examples/yoga.mp4</name>
                                <rate>
                                    <timebase>30</timebase>
                                    <ntsc>TRUE</ntsc>
                                </rate>
                                <start>835</start>
                                <end>858</end>
                            </clipitem>
                            <clipitem frameBlend="FALSE" id="clipitem-21">
                                <media>
                                    <video>
                                        <samplecharacteristics>
                                            <height>720</height>
                                            <width>1270</width>
                                        </samplecharacteristics>
                                    </video>
                                </media>
                                <file id="file-1">
                                    <pathurl>/home/davidk/code/python/JC-render/JC-examples/yoga.mp4</pathurl>
                                    <name>yoga.mp4</name>
                                    <rate>
                                        <timebase>30</timebase>
                                        <ntsc>TRUE</ntsc>
                                    </rate>
                                    <duration>54922</duration>
                                    <timecode>
                                        <rate>
                                            <timebase>30</timebase>
                                            <ntsc>TRUE</ntsc>
                                        </rate>
                                        <string>00:00:00:00</string>
                                        <frame>0</frame>
                                        <displayformat>NDF</displayformat>
                                        <media>
                                            <video/>
                                            <audio/>
                                        </media>
                                    </timecode>
                                </file>
                                <name>/home/davidk/code/python/JC-render/JC-examples/yoga.mp4</name>
                                <rate>
                                    <timebase>30</timebase>
                                    <ntsc>TRUE</ntsc>
                                </rate>
                                <start>858</start>
                                <end>936</end>
                            </clipitem>
                            <clipitem frameBlend="FALSE" id="clipitem-22">
                                <media>
                                    <video>
                                        <samplecharacteristics>
                                            <height>720</height>
                                            <width>1270</width>
                                        </samplecharacteristics>
                                    </video>
                                </media>
                                <file id="file-1">
                                    <pathurl>/home/davidk/code/python/JC-render/JC-examples/yoga.mp4</pathurl>
                                    <name>yoga.mp4</name>
                                    <rate>
                                        <timebase>30</timebase>
                                        <ntsc>TRUE</ntsc>
                                    </rate>
                                    <duration>54922</duration>
                                    <timecode>
                                        <rate>
                                            <timebase>30</timebase>
                                            <ntsc>TRUE</ntsc>
                                        </rate>
                                        <string>00:00:00:00</string>
                                        <frame>0</frame>
                                        <displayformat>NDF</displayformat>
                                        <media>
                                            <video/>
                                            <audio/>
                                        </media>
                                    </timecode>
                                </file>
                                <name>/home/davidk/code/python/JC-render/JC-examples/yoga.mp4</name>
                                <rate>
                                    <timebase>30</timebase>
                                    <ntsc>TRUE</ntsc>
                                </rate>
                                <start>936</start>
                                <end>955</end>
                            </clipitem>
                            <clipitem frameBlend="FALSE" id="clipitem-23">
                                <media>
                                    <video>
                                        <samplecharacteristics>
                                            <height>720</height>
                                            <width>1270</width>
                                        </samplecharacteristics>
                                    </video>
                                </media>
                                <file id="file-1">
                                    <pathurl>/home/davidk/code/python/JC-render/JC-examples/yoga.mp4</pathurl>
                                    <name>yoga.mp4</name>
                                    <rate>
                                        <timebase>30</timebase>
                                        <ntsc>TRUE</ntsc>
                                    </rate>
                                    <duration>54922</duration>
                                    <timecode>
                                        <rate>
                                            <timebase>30</timebase>
                                            <ntsc>TRUE</ntsc>
                                        </rate>
                                        <string>00:00:00:00</string>
                                        <frame>0</frame>
                                        <displayformat>NDF</displayformat>
                                        <media>
                                            <video/>
                                            <audio/>
                                        </media>
                                    </timecode>
                                </file>
                                <name>/home/davidk/code/python/JC-render/JC-examples/yoga.mp4</name>
                                <rate>
                                    <timebase>30</timebase>
                                    <ntsc>TRUE</ntsc>
                                </rate>
                                <start>955</start>
                                <end>1051</end>
                            </clipitem>
                            <clipitem frameBlend="FALSE" id="clipitem-24">
                                <media>
                                    <video>
                                        <samplecharacteristics>
                                            <height>720</height>
                                            <width>1270</width>
                                        </samplecharacteristics>
                                    </video>
                                </media>
                                <file id="file-1">
                                    <pathurl>/home/davidk/code/python/JC-render/JC-examples/yoga.mp4</pathurl>
                                    <name>yoga.mp4</name>
                                    <rate>
                                        <timebase>30</timebase>
                                        <ntsc>TRUE</ntsc>
                                    </rate>
                                    <duration>54922</duration>
                                    <timecode>
                                        <rate>
                                            <timebase>30</timebase>
                                            <ntsc>TRUE</ntsc>
                                        </rate>
                                        <string>00:00:00:00</string>
                                        <frame>0</frame>
                                        <displayformat>NDF</displayformat>
                                        <media>
                                            <video/>
                                            <audio/>
                                        </media>
                                    </timecode>
                                </file>
                                <name>/home/davidk/code/python/JC-render/JC-examples/yoga.mp4</name>
                                <rate>
                                    <timebase>30</timebase>
                                    <ntsc>TRUE</ntsc>
                                </rate>
                                <start>1051</start>
                                <end>1081</end>
                            </clipitem>
                            <clipitem frameBlend="FALSE" id="clipitem-25">
                                <media>
                                    <video>
                                        <samplecharacteristics>
                                            <height>720</height>
                                            <width>1270</width>
                                        </samplecharacteristics>
                                    </video>
                                </media>
                                <file id="file-1">
                                    <pathurl>/home/davidk/code/python/JC-render/JC-examples/yoga.mp4</pathurl>
                                    <name>yoga.mp4</name>
                                    <rate>
                                        <timebase>30</timebase>
                                        <ntsc>TRUE</ntsc>
                                    </rate>
                                    <duration>54922</duration>
                                    <timecode>
                                        <rate>
                                            <timebase>30</timebase>
                                            <ntsc>TRUE</ntsc>
                                        </rate>
                                        <string>00:00:00:00</string>
                                        <frame>0</frame>
                                        <displayformat>NDF</displayformat>
                                        <media>
                                            <video/>
                                            <audio/>
                                        </media>
                                    </timecode>
                                </file>
                                <name>/home/davidk/code/python/JC-render/JC-examples/yoga.mp4</name>
                                <rate>
                                    <timebase>30</timebase>
                                    <ntsc>TRUE</ntsc>
                                </rate>
                                <start>1081</start>
                                <end>1110</end>
                            </clipitem>
                            <clipitem frameBlend="FALSE" id="clipitem-26">
                                <media>
                                    <video>
                                        <samplecharacteristics>
                                            <height>720</height>
                                            <width>1270</width>
                                        </samplecharacteristics>
                                    </video>
                                </media>
                                <file id="file-1">
                                    <pathurl>/home/davidk/code/python/JC-render/JC-examples/yoga.mp4</pathurl>
                                    <name>yoga.mp4</name>
                                    <rate>
                                        <timebase>30</timebase>
                                        <ntsc>TRUE</ntsc>
                                    </rate>
                                    <duration>54922</duration>
                                    <timecode>
                                        <rate>
                                            <timebase>30</timebase>
                                            <ntsc>TRUE</ntsc>
                                        </rate>
                                        <string>00:00:00:00</string>
                                        <frame>0</frame>
                                        <displayformat>NDF</displayformat>
                                        <media>
                                            <video/>
                                            <audio/>
                                        </media>
                                    </timecode>
                                </file>
                                <name>/home/davidk/code/python/JC-render/JC-examples/yoga.mp4</name>
                                <rate>
                                    <timebase>30</timebase>
                                    <ntsc>TRUE</ntsc>
                                </rate>
                                <start>1110</start>
                                <end>1129</end>
                            </clipitem>
                            <clipitem frameBlend="FALSE" id="clipitem-27">
                                <media>
                                    <video>
                                        <samplecharacteristics>
                                            <height>720</height>
                                            <width>1270</width>
                                        </samplecharacteristics>
                                    </video>
                                </media>
                                <file id="file-1">
                                    <pathurl>/home/davidk/code/python/JC-render/JC-examples/yoga.mp4</pathurl>
                                    <name>yoga.mp4</name>
                                    <rate>
                                        <timebase>30</timebase>
                                        <ntsc>TRUE</ntsc>
                                    </rate>
                                    <duration>54922</duration>
                                    <timecode>
                                        <rate>
                                            <timebase>30</timebase>
                                            <ntsc>TRUE</ntsc>
                                        </rate>
                                        <string>00:00:00:00</string>
                                        <frame>0</frame>
                                        <displayformat>NDF</displayformat>
                                        <media>
                                            <video/>
                                            <audio/>
                                        </media>
                                    </timecode>
                                </file>
                                <name>/home/davidk/code/python/JC-render/JC-examples/yoga.mp4</name>
                                <rate>
                                    <timebase>30</timebase>
                                    <ntsc>TRUE</ntsc>
                                </rate>
                                <start>1129</start>
                                <end>1155</end>
                            </clipitem>
                            <clipitem frameBlend="FALSE" id="clipitem-28">
                                <media>
                                    <video>
                                        <samplecharacteristics>
                                            <height>720</height>
                                            <width>1270</width>
                                        </samplecharacteristics>
                                    </video>
                                </media>
                                <file id="file-1">
                                    <pathurl>/home/davidk/code/python/JC-render/JC-examples/yoga.mp4</pathurl>
                                    <name>yoga.mp4</name>
                                    <rate>
                                        <timebase>30</timebase>
                                        <ntsc>TRUE</ntsc>
                                    </rate>
                                    <duration>54922</duration>
                                    <timecode>
                                        <rate>
                                            <timebase>30</timebase>
                                            <ntsc>TRUE</ntsc>
                                        </rate>
                                        <string>00:00:00:00</string>
                                        <frame>0</frame>
                                        <displayformat>NDF</displayformat>
                                        <media>
                                            <video/>
                                            <audio/>
                                        </media>
                                    </timecode>
                                </file>
                                <name>/home/davidk/code/python/JC-render/JC-examples/yoga.mp4</name>
                                <rate>
                                    <timebase>30</timebase>
                                    <ntsc>TRUE</ntsc>
                                </rate>
                                <start>1155</start>
                                <end>1206</end>
                            </clipitem>
                            <clipitem frameBlend="FALSE" id="clipitem-29">
                                <media>
                                    <video>
                                        <samplecharacteristics>
                                            <height>720</height>
                                            <width>1270</width>
                                        </samplecharacteristics>
                                    </video>
                                </media>
                                <file id="file-1">
                                    <pathurl>/home/davidk/code/python/JC-render/JC-examples/yoga.mp4</pathurl>
                                    <name>yoga.mp4</name>
                                    <rate>
                                        <timebase>30</timebase>
                                        <ntsc>TRUE</ntsc>
                                    </rate>
                                    <duration>54922</duration>
                                    <timecode>
                                        <rate>
                                            <timebase>30</timebase>
                                            <ntsc>TRUE</ntsc>
                                        </rate>
                                        <string>00:00:00:00</string>
                                        <frame>0</frame>
                                        <displayformat>NDF</displayformat>
                                        <media>
                                            <video/>
                                            <audio/>
                                        </media>
                                    </timecode>
                                </file>
                                <name>/home/davidk/code/python/JC-render/JC-examples/yoga.mp4</name>
                                <rate>
                                    <timebase>30</timebase>
                                    <ntsc>TRUE</ntsc>
                                </rate>
                                <start>1206</start>
                                <end>1270</end>
                            </clipitem>
                            <clipitem frameBlend="FALSE" id="clipitem-30">
                                <media>
                                    <video>
                                        <samplecharacteristics>
                                            <height>720</height>
                                            <width>1270</width>
                                        </samplecharacteristics>
                                    </video>
                                </media>
                                <file id="file-1">
                                    <pathurl>/home/davidk/code/python/JC-render/JC-examples/yoga.mp4</pathurl>
                                    <name>yoga.mp4</name>
                                    <rate>
                                        <timebase>30</timebase>
                                        <ntsc>TRUE</ntsc>
                                    </rate>
                                    <duration>54922</duration>
                                    <timecode>
                                        <rate>
                                            <timebase>30</timebase>
                                            <ntsc>TRUE</ntsc>
                                        </rate>
                                        <string>00:00:00:00</string>
                                        <frame>0</frame>
                                        <displayformat>NDF</displayformat>
                                        <media>
                                            <video/>
                                            <audio/>
                                        </media>
                                    </timecode>
                                </file>
                                <name>/home/davidk/code/python/JC-render/JC-examples/yoga.mp4</name>
                                <rate>
                                    <timebase>30</timebase>
                                    <ntsc>TRUE</ntsc>
                                </rate>
                                <start>1270</start>
                                <end>1338</end>
                            </clipitem>
                            <clipitem frameBlend="FALSE" id="clipitem-31">
                                <media>
                                    <video>
                                        <samplecharacteristics>
                                            <height>720</height>
                                            <width>1270</width>
                                        </samplecharacteristics>
                                    </video>
                                </media>
                                <file id="file-1">
                                    <pathurl>/home/davidk/code/python/JC-render/JC-examples/yoga.mp4</pathurl>
                                    <name>yoga.mp4</name>
                                    <rate>
                                        <timebase>30</timebase>
                                        <ntsc>TRUE</ntsc>
                                    </rate>
                                    <duration>54922</duration>
                                    <timecode>
                                        <rate>
                                            <timebase>30</timebase>
                                            <ntsc>TRUE</ntsc>
                                        </rate>
                                        <string>00:00:00:00</string>
                                        <frame>0</frame>
                                        <displayformat>NDF</displayformat>
                                        <media>
                                            <video/>
                                            <audio/>
                                        </media>
                                    </timecode>
                                </file>
                                <name>/home/davidk/code/python/JC-render/JC-examples/yoga.mp4</name>
                                <rate>
                                    <timebase>30</timebase>
                                    <ntsc>TRUE</ntsc>
                                </rate>
                                <start>1338</start>
                                <end>1371</end>
                            </clipitem>
                            <clipitem frameBlend="FALSE" id="clipitem-32">
                                <media>
                                    <video>
                                        <samplecharacteristics>
                                            <height>720</height>
                                            <width>1270</width>
                                        </samplecharacteristics>
                                    </video>
                                </media>
                                <file id="file-1">
                                    <pathurl>/home/davidk/code/python/JC-render/JC-examples/yoga.mp4</pathurl>
                                    <name>yoga.mp4</name>
                                    <rate>
                                        <timebase>30</timebase>
                                        <ntsc>TRUE</ntsc>
                                    </rate>
                                    <duration>54922</duration>
                                    <timecode>
                                        <rate>
                                            <timebase>30</timebase>
                                            <ntsc>TRUE</ntsc>
                                        </rate>
                                        <string>00:00:00:00</string>
                                        <frame>0</frame>
                                        <displayformat>NDF</displayformat>
                                        <media>
                                            <video/>
                                            <audio/>
                                        </media>
                                    </timecode>
                                </file>
                                <name>/home/davidk/code/python/JC-render/JC-examples/yoga.mp4</name>
                                <rate>
                                    <timebase>30</timebase>
                                    <ntsc>TRUE</ntsc>
                                </rate>
                                <start>1371</start>
                                <end>1384</end>
                            </clipitem>
                            <clipitem frameBlend="FALSE" id="clipitem-33">
                                <media>
                                    <video>
                                        <samplecharacteristics>
                                            <height>720</height>
                                            <width>1270</width>
                                        </samplecharacteristics>
                                    </video>
                                </media>
                                <file id="file-1">
                                    <pathurl>/home/davidk/code/python/JC-render/JC-examples/yoga.mp4</pathurl>
                                    <name>yoga.mp4</name>
                                    <rate>
                                        <timebase>30</timebase>
                                        <ntsc>TRUE</ntsc>
                                    </rate>
                                    <duration>54922</duration>
                                    <timecode>
                                        <rate>
                                            <timebase>30</timebase>
                                            <ntsc>TRUE</ntsc>
                                        </rate>
                                        <string>00:00:00:00</string>
                                        <frame>0</frame>
                                        <displayformat>NDF</displayformat>
                                        <media>
                                            <video/>
                                            <audio/>
                                        </media>
                                    </timecode>
                                </file>
                                <name>/home/davidk/code/python/JC-render/JC-examples/yoga.mp4</name>
                                <rate>
                                    <timebase>30</timebase>
                                    <ntsc>TRUE</ntsc>
                                </rate>
                                <start>1384</start>
                                <end>1444</end>
                            </clipitem>
                            <clipitem frameBlend="FALSE" id="clipitem-34">
                                <media>
                                    <video>
                                        <samplecharacteristics>
                                            <height>720</height>
                                            <width>1270</width>
                                        </samplecharacteristics>
                                    </video>
                                </media>
                                <file id="file-1">
                                    <pathurl>/home/davidk/code/python/JC-render/JC-examples/yoga.mp4</pathurl>
                                    <name>yoga.mp4</name>
                                    <rate>
                                        <timebase>30</timebase>
                                        <ntsc>TRUE</ntsc>
                                    </rate>
                                    <duration>54922</duration>
                                    <timecode>
                                        <rate>
                                            <timebase>30</timebase>
                                            <ntsc>TRUE</ntsc>
                                        </rate>
                                        <string>00:00:00:00</string>
                                        <frame>0</frame>
                                        <displayformat>NDF</displayformat>
                                        <media>
                                            <video/>
                                            <audio/>
                                        </media>
                                    </timecode>
                                </file>
                                <name>/home/davidk/code/python/JC-render/JC-examples/yoga.mp4</name>
                                <rate>
                                    <timebase>30</timebase>
                                    <ntsc>TRUE</ntsc>
                                </rate>
                                <start>1444</start>
                                <end>1488</end>
                            </clipitem>
                            <clipitem frameBlend="FALSE" id="clipitem-35">
                                <media>
                                    <video>
                                        <samplecharacteristics>
                                            <height>720</height>
                                            <width>1270</width>
                                        </samplecharacteristics>
                                    </video>
                                </media>
                                <file id="file-1">
                                    <pathurl>/home/davidk/code/python/JC-render/JC-examples/yoga.mp4</pathurl>
                                    <name>yoga.mp4</name>
                                    <rate>
                                        <timebase>30</timebase>
                                        <ntsc>TRUE</ntsc>
                                    </rate>
                                    <duration>54922</duration>
                                    <timecode>
                                        <rate>
                                            <timebase>30</timebase>
                                            <ntsc>TRUE</ntsc>
                                        </rate>
                                        <string>00:00:00:00</string>
                                        <frame>0</frame>
                                        <displayformat>NDF</displayformat>
                                        <media>
                                            <video/>
                                            <audio/>
                                        </media>
                                    </timecode>
                                </file>
                                <name>/home/davidk/code/python/JC-render/JC-examples/yoga.mp4</name>
                                <rate>
                                    <timebase>30</timebase>
                                    <ntsc>TRUE</ntsc>
                                </rate>
                                <start>1488</start>
                                <end>1563</end>
                            </clipitem>
                            <clipitem frameBlend="FALSE" id="clipitem-36">
                                <media>
                                    <video>
                                        <samplecharacteristics>
                                            <height>720</height>
                                            <width>1270</width>
                                        </samplecharacteristics>
                                    </video>
                                </media>
                                <file id="file-1">
                                    <pathurl>/home/davidk/code/python/JC-render/JC-examples/yoga.mp4</pathurl>
                                    <name>yoga.mp4</name>
                                    <rate>
                                        <timebase>30</timebase>
                                        <ntsc>TRUE</ntsc>
                                    </rate>
                                    <duration>54922</duration>
                                    <timecode>
                                        <rate>
                                            <timebase>30</timebase>
                                            <ntsc>TRUE</ntsc>
                                        </rate>
                                        <string>00:00:00:00</string>
                                        <frame>0</frame>
                                        <displayformat>NDF</displayformat>
                                        <media>
                                            <video/>
                                            <audio/>
                                        </media>
                                    </timecode>
                                </file>
                                <name>/home/davidk/code/python/JC-render/JC-examples/yoga.mp4</name>
                                <rate>
                                    <timebase>30</timebase>
                                    <ntsc>TRUE</ntsc>
                                </rate>
                                <start>1563</start>
                                <end>1579</end>
                            </clipitem>
                            <clipitem frameBlend="FALSE" id="clipitem-37">
                                <media>
                                    <video>
                                        <samplecharacteristics>
                                            <height>720</height>
                                            <width>1270</width>
                                        </samplecharacteristics>
                                    </video>
                                </media>
                                <file id="file-1">
                                    <pathurl>/home/davidk/code/python/JC-render/JC-examples/yoga.mp4</pathurl>
                                    <name>yoga.mp4</name>
                                    <rate>
                                        <timebase>30</timebase>
                                        <ntsc>TRUE</ntsc>
                                    </rate>
                                    <duration>54922</duration>
                                    <timecode>
                                        <rate>
                                            <timebase>30</timebase>
                                            <ntsc>TRUE</ntsc>
                                        </rate>
                                        <string>00:00:00:00</string>
                                        <frame>0</frame>
                                        <displayformat>NDF</displayformat>
                                        <media>
                                            <video/>
                                            <audio/>
                                        </media>
                                    </timecode>
                                </file>
                                <name>/home/davidk/code/python/JC-render/JC-examples/yoga.mp4</name>
                                <rate>
                                    <timebase>30</timebase>
                                    <ntsc>TRUE</ntsc>
                                </rate>
                                <start>1579</start>
                                <end>1664</end>
                            </clipitem>
                            <clipitem frameBlend="FALSE" id="clipitem-38">
                                <media>
                                    <video>
                                        <samplecharacteristics>
                                            <height>720</height>
                                            <width>1270</width>
                                        </samplecharacteristics>
                                    </video>
                                </media>
                                <file id="file-1">
                                    <pathurl>/home/davidk/code/python/JC-render/JC-examples/yoga.mp4</pathurl>
                                    <name>yoga.mp4</name>
                                    <rate>
                                        <timebase>30</timebase>
                                        <ntsc>TRUE</ntsc>
                                    </rate>
                                    <duration>54922</duration>
                                    <timecode>
                                        <rate>
                                            <timebase>30</timebase>
                                            <ntsc>TRUE</ntsc>
                                        </rate>
                                        <string>00:00:00:00</string>
                                        <frame>0</frame>
                                        <displayformat>NDF</displayformat>
                                        <media>
                                            <video/>
                                            <audio/>
                                        </media>
                                    </timecode>
                                </file>
                                <name>/home/davidk/code/python/JC-render/JC-examples/yoga.mp4</name>
                                <rate>
                                    <timebase>30</timebase>
                                    <ntsc>TRUE</ntsc>
                                </rate>
                                <start>1664</start>
                                <end>1729</end>
                            </clipitem>
                            <clipitem frameBlend="FALSE" id="clipitem-39">
                                <media>
                                    <video>
                                        <samplecharacteristics>
                                            <height>720</height>
                                            <width>1270</width>
                                        </samplecharacteristics>
                                    </video>
                                </media>
                                <file id="file-1">
                                    <pathurl>/home/davidk/code/python/JC-render/JC-examples/yoga.mp4</pathurl>
                                    <name>yoga.mp4</name>
                                    <rate>
                                        <timebase>30</timebase>
                                        <ntsc>TRUE</ntsc>
                                    </rate>
                                    <duration>54922</duration>
                                    <timecode>
                                        <rate>
                                            <timebase>30</timebase>
                                            <ntsc>TRUE</ntsc>
                                        </rate>
                                        <string>00:00:00:00</string>
                                        <frame>0</frame>
                                        <displayformat>NDF</displayformat>
                                        <media>
                                            <video/>
                                            <audio/>
                                        </media>
                                    </timecode>
                                </file>
                                <name>/home/davidk/code/python/JC-render/JC-examples/yoga.mp4</name>
                                <rate>
                                    <timebase>30</timebase>
                                    <ntsc>TRUE</ntsc>
                                </rate>
                                <start>1729</start>
                                <end>1744</end>
                            </clipitem>
                            <clipitem frameBlend="FALSE" id="clipitem-40">
                                <media>
                                    <video>
                                        <samplecharacteristics>
                                            <height>720</height>
                                            <width>1270</width>
                                        </samplecharacteristics>
                                    </video>
                                </media>
                                <file id="file-1">
                                    <pathurl>/home/davidk/code/python/JC-render/JC-examples/yoga.mp4</pathurl>
                                    <name>yoga.mp4</name>
                                    <rate>
                                        <timebase>30</timebase>
                                        <ntsc>TRUE</ntsc>
                                    </rate>
                                    <duration>54922</duration>
                                    <timecode>
                                        <rate>
                                            <timebase>30</timebase>
                                            <ntsc>TRUE</ntsc>
                                        </rate>
                                        <string>00:00:00:00</string>
                                        <frame>0</frame>
                                        <displayformat>NDF</displayformat>
                                        <media>
                                            <video/>
                                            <audio/>
                                        </media>
                                    </timecode>
                                </file>
                                <name>/home/davidk/code/python/JC-render/JC-examples/yoga.mp4</name>
                                <rate>
                                    <timebase>30</timebase>
                                    <ntsc>TRUE</ntsc>
                                </rate>
                                <start>1744</start>
                                <end>1774</end>
                            </clipitem>
                            <clipitem frameBlend="FALSE" id="clipitem-41">
                                <media>
                                    <video>
                                        <samplecharacteristics>
                                            <height>720</height>
                                            <width>1270</width>
                                        </samplecharacteristics>
                                    </video>
                                </media>
                                <file id="file-1">
                                    <pathurl>/home/davidk/code/python/JC-render/JC-examples/yoga.mp4</pathurl>
                                    <name>yoga.mp4</name>
                                    <rate>
                                        <timebase>30</timebase>
                                        <ntsc>TRUE</ntsc>
                                    </rate>
                                    <duration>54922</duration>
                                    <timecode>
                                        <rate>
                                            <timebase>30</timebase>
                                            <ntsc>TRUE</ntsc>
                                        </rate>
                                        <string>00:00:00:00</string>
                                        <frame>0</frame>
                                        <displayformat>NDF</displayformat>
                                        <media>
                                            <video/>
                                            <audio/>
                                        </media>
                                    </timecode>
                                </file>
                                <name>/home/davidk/code/python/JC-render/JC-examples/yoga.mp4</name>
                                <rate>
                                    <timebase>30</timebase>
                                    <ntsc>TRUE</ntsc>
                                </rate>
                                <start>1774</start>
                                <end>1789</end>
                            </clipitem>
                            <clipitem frameBlend="FALSE" id="clipitem-42">
                                <media>
                                    <video>
                                        <samplecharacteristics>
                                            <height>720</height>
                                            <width>1270</width>
                                        </samplecharacteristics>
                                    </video>
                                </media>
                                <file id="file-1">
                                    <pathurl>/home/davidk/code/python/JC-render/JC-examples/yoga.mp4</pathurl>
                                    <name>yoga.mp4</name>
                                    <rate>
                                        <timebase>30</timebase>
                                        <ntsc>TRUE</ntsc>
                                    </rate>
                                    <duration>54922</duration>
                                    <timecode>
                                        <rate>
                                            <timebase>30</timebase>
                                            <ntsc>TRUE</ntsc>
                                        </rate>
                                        <string>00:00:00:00</string>
                                        <frame>0</frame>
                                        <displayformat>NDF</displayformat>
                                        <media>
                                            <video/>
                                            <audio/>
                                        </media>
                                    </timecode>
                                </file>
                                <name>/home/davidk/code/python/JC-render/JC-examples/yoga.mp4</name>
                                <rate>
                                    <timebase>30</timebase>
                                    <ntsc>TRUE</ntsc>
                                </rate>
                                <start>1789</start>
                                <end>1802</end>
                            </clipitem>
                            <clipitem frameBlend="FALSE" id="clipitem-43">
                                <media>
                                    <video>
                                        <samplecharacteristics>
                                            <height>720</height>
                                            <width>1270</width>
                                        </samplecharacteristics>
                                    </video>
                                </media>
                                <file id="file-1">
                                    <pathurl>/home/davidk/code/python/JC-render/JC-examples/yoga.mp4</pathurl>
                                    <name>yoga.mp4</name>
                                    <rate>
                                        <timebase>30</timebase>
                                        <ntsc>TRUE</ntsc>
                                    </rate>
                                    <duration>54922</duration>
                                    <timecode>
                                        <rate>
                                            <timebase>30</timebase>
                                            <ntsc>TRUE</ntsc>
                                        </rate>
                                        <string>00:00:00:00</string>
                                        <frame>0</frame>
                                        <displayformat>NDF</displayformat>
                                        <media>
                                            <video/>
                                            <audio/>
                                        </media>
                                    </timecode>
                                </file>
                                <name>/home/davidk/code/python/JC-render/JC-examples/yoga.mp4</name>
                                <rate>
                                    <timebase>30</timebase>
                                    <ntsc>TRUE</ntsc>
                                </rate>
                                <start>1802</start>
                                <end>1838</end>
                            </clipitem>
                            <clipitem frameBlend="FALSE" id="clipitem-44">
                                <media>
                                    <video>
                                        <samplecharacteristics>
                                            <height>720</height>
                                            <width>1270</width>
                                        </samplecharacteristics>
                                    </video>
                                </media>
                                <file id="file-1">
                                    <pathurl>/home/davidk/code/python/JC-render/JC-examples/yoga.mp4</pathurl>
                                    <name>yoga.mp4</name>
                                    <rate>
                                        <timebase>30</timebase>
                                        <ntsc>TRUE</ntsc>
                                    </rate>
                                    <duration>54922</duration>
                                    <timecode>
                                        <rate>
                                            <timebase>30</timebase>
                                            <ntsc>TRUE</ntsc>
                                        </rate>
                                        <string>00:00:00:00</string>
                                        <frame>0</frame>
                                        <displayformat>NDF</displayformat>
                                        <media>
                                            <video/>
                                            <audio/>
                                        </media>
                                    </timecode>
                                </file>
                                <name>/home/davidk/code/python/JC-render/JC-examples/yoga.mp4</name>
                                <rate>
                                    <timebase>30</timebase>
                                    <ntsc>TRUE</ntsc>
                                </rate>
                                <start>1838</start>
                                <end>1854</end>
                            </clipitem>
                            <clipitem frameBlend="FALSE" id="clipitem-45">
                                <media>
                                    <video>
                                        <samplecharacteristics>
                                            <height>720</height>
                                            <width>1270</width>
                                        </samplecharacteristics>
                                    </video>
                                </media>
                                <file id="file-1">
                                    <pathurl>/home/davidk/code/python/JC-render/JC-examples/yoga.mp4</pathurl>
                                    <name>yoga.mp4</name>
                                    <rate>
                                        <timebase>30</timebase>
                                        <ntsc>TRUE</ntsc>
                                    </rate>
                                    <duration>54922</duration>
                                    <timecode>
                                        <rate>
                                            <timebase>30</timebase>
                                            <ntsc>TRUE</ntsc>
                                        </rate>
                                        <string>00:00:00:00</string>
                                        <frame>0</frame>
                                        <displayformat>NDF</displayformat>
                                        <media>
                                            <video/>
                                            <audio/>
                                        </media>
                                    </timecode>
                                </file>
                                <name>/home/davidk/code/python/JC-render/JC-examples/yoga.mp4</name>
                                <rate>
                                    <timebase>30</timebase>
                                    <ntsc>TRUE</ntsc>
                                </rate>
                                <start>1854</start>
                                <end>1911</end>
                            </clipitem>
                            <clipitem frameBlend="FALSE" id="clipitem-46">
                                <media>
                                    <video>
                                        <samplecharacteristics>
                                            <height>720</height>
                                            <width>1270</width>
                                        </samplecharacteristics>
                                    </video>
                                </media>
                                <file id="file-1">
                                    <pathurl>/home/davidk/code/python/JC-render/JC-examples/yoga.mp4</pathurl>
                                    <name>yoga.mp4</name>
                                    <rate>
                                        <timebase>30</timebase>
                                        <ntsc>TRUE</ntsc>
                                    </rate>
                                    <duration>54922</duration>
                                    <timecode>
                                        <rate>
                                            <timebase>30</timebase>
                                            <ntsc>TRUE</ntsc>
                                        </rate>
                                        <string>00:00:00:00</string>
                                        <frame>0</frame>
                                        <displayformat>NDF</displayformat>
                                        <media>
                                            <video/>
                                            <audio/>
                                        </media>
                                    </timecode>
                                </file>
                                <name>/home/davidk/code/python/JC-render/JC-examples/yoga.mp4</name>
                                <rate>
                                    <timebase>30</timebase>
                                    <ntsc>TRUE</ntsc>
                                </rate>
                                <start>1911</start>
                                <end>1924</end>
                            </clipitem>
                            <clipitem frameBlend="FALSE" id="clipitem-47">
                                <media>
                                    <video>
                                        <samplecharacteristics>
                                            <height>720</height>
                                            <width>1270</width>
                                        </samplecharacteristics>
                                    </video>
                                </media>
                                <file id="file-1">
                                    <pathurl>/home/davidk/code/python/JC-render/JC-examples/yoga.mp4</pathurl>
                                    <name>yoga.mp4</name>
                                    <rate>
                                        <timebase>30</timebase>
                                        <ntsc>TRUE</ntsc>
                                    </rate>
                                    <duration>54922</duration>
                                    <timecode>
                                        <rate>
                                            <timebase>30</timebase>
                                            <ntsc>TRUE</ntsc>
                                        </rate>
                                        <string>00:00:00:00</string>
                                        <frame>0</frame>
                                        <displayformat>NDF</displayformat>
                                        <media>
                                            <video/>
                                            <audio/>
                                        </media>
                                    </timecode>
                                </file>
                                <name>/home/davidk/code/python/JC-render/JC-examples/yoga.mp4</name>
                                <rate>
                                    <timebase>30</timebase>
                                    <ntsc>TRUE</ntsc>
                                </rate>
                                <start>1924</start>
                                <end>2162</end>
                            </clipitem>
                            <clipitem frameBlend="FALSE" id="clipitem-48">
                                <media>
                                    <video>
                                        <samplecharacteristics>
                                            <height>720</height>
                                            <width>1270</width>
                                        </samplecharacteristics>
                                    </video>
                                </media>
                                <file id="file-1">
                                    <pathurl>/home/davidk/code/python/JC-render/JC-examples/yoga.mp4</pathurl>
                                    <name>yoga.mp4</name>
                                    <rate>
                                        <timebase>30</timebase>
                                        <ntsc>TRUE</ntsc>
                                    </rate>
                                    <duration>54922</duration>
                                    <timecode>
                                        <rate>
                                            <timebase>30</timebase>
                                            <ntsc>TRUE</ntsc>
                                        </rate>
                                        <string>00:00:00:00</string>
                                        <frame>0</frame>
                                        <displayformat>NDF</displayformat>
                                        <media>
                                            <video/>
                                            <audio/>
                                        </media>
                                    </timecode>
                                </file>
                                <name>/home/davidk/code/python/JC-render/JC-examples/yoga.mp4</name>
                                <rate>
                                    <timebase>30</timebase>
                                    <ntsc>TRUE</ntsc>
                                </rate>
                                <start>2162</start>
                                <end>2164</end>
                            </clipitem>
                            <clipitem frameBlend="FALSE" id="clipitem-49">
                                <media>
                                    <video>
                                        <samplecharacteristics>
                                            <height>720</height>
                                            <width>1270</width>
                                        </samplecharacteristics>
                                    </video>
                                </media>
                                <file id="file-1">
                                    <pathurl>/home/davidk/code/python/JC-render/JC-examples/yoga.mp4</pathurl>
                                    <name>yoga.mp4</name>
                                    <rate>
                                        <timebase>30</timebase>
                                        <ntsc>TRUE</ntsc>
                                    </rate>
                                    <duration>54922</duration>
                                    <timecode>
                                        <rate>
                                            <timebase>30</timebase>
                                            <ntsc>TRUE</ntsc>
                                        </rate>
                                        <string>00:00:00:00</string>
                                        <frame>0</frame>
                                        <displayformat>NDF</displayformat>
                                        <media>
                                            <video/>
                                            <audio/>
                                        </media>
                                    </timecode>
                                </file>
                                <name>/home/davidk/code/python/JC-render/JC-examples/yoga.mp4</name>
                                <rate>
                                    <timebase>30</timebase>
                                    <ntsc>TRUE</ntsc>
                                </rate>
                                <start>2164</start>
                                <end>2179</end>
                            </clipitem>
                            <clipitem frameBlend="FALSE" id="clipitem-50">
                                <media>
                                    <video>
                                        <samplecharacteristics>
                                            <height>720</height>
                                            <width>1270</width>
                                        </samplecharacteristics>
                                    </video>
                                </media>
                                <file id="file-1">
                                    <pathurl>/home/davidk/code/python/JC-render/JC-examples/yoga.mp4</pathurl>
                                    <name>yoga.mp4</name>
                                    <rate>
                                        <timebase>30</timebase>
                                        <ntsc>TRUE</ntsc>
                                    </rate>
                                    <duration>54922</duration>
                                    <timecode>
                                        <rate>
                                            <timebase>30</timebase>
                                            <ntsc>TRUE</ntsc>
                                        </rate>
                                        <string>00:00:00:00</string>
                                        <frame>0</frame>
                                        <displayformat>NDF</displayformat>
                                        <media>
                                            <video/>
                                            <audio/>
                                        </media>
                                    </timecode>
                                </file>
                                <name>/home/davidk/code/python/JC-render/JC-examples/yoga.mp4</name>
                                <rate>
                                    <timebase>30</timebase>
                                    <ntsc>TRUE</ntsc>
                                </rate>
                                <start>2179</start>
                                <end>2195</end>
                            </clipitem>
                            <clipitem frameBlend="FALSE" id="clipitem-51">
                                <media>
                                    <video>
                                        <samplecharacteristics>
                                            <height>720</height>
                                            <width>1270</width>
                                        </samplecharacteristics>
                                    </video>
                                </media>
                                <file id="file-1">
                                    <pathurl>/home/davidk/code/python/JC-render/JC-examples/yoga.mp4</pathurl>
                                    <name>yoga.mp4</name>
                                    <rate>
                                        <timebase>30</timebase>
                                        <ntsc>TRUE</ntsc>
                                    </rate>
                                    <duration>54922</duration>
                                    <timecode>
                                        <rate>
                                            <timebase>30</timebase>
                                            <ntsc>TRUE</ntsc>
                                        </rate>
                                        <string>00:00:00:00</string>
                                        <frame>0</frame>
                                        <displayformat>NDF</displayformat>
                                        <media>
                                            <video/>
                                            <audio/>
                                        </media>
                                    </timecode>
                                </file>
                                <name>/home/davidk/code/python/JC-render/JC-examples/yoga.mp4</name>
                                <rate>
                                    <timebase>30</timebase>
                                    <ntsc>TRUE</ntsc>
                                </rate>
                                <start>2195</start>
                                <end>2225</end>
                            </clipitem>
                            <clipitem frameBlend="FALSE" id="clipitem-52">
                                <media>
                                    <video>
                                        <samplecharacteristics>
                                            <height>720</height>
                                            <width>1270</width>
                                        </samplecharacteristics>
                                    </video>
                                </media>
                                <file id="file-1">
                                    <pathurl>/home/davidk/code/python/JC-render/JC-examples/yoga.mp4</pathurl>
                                    <name>yoga.mp4</name>
                                    <rate>
                                        <timebase>30</timebase>
                                        <ntsc>TRUE</ntsc>
                                    </rate>
                                    <duration>54922</duration>
                                    <timecode>
                                        <rate>
                                            <timebase>30</timebase>
                                            <ntsc>TRUE</ntsc>
                                        </rate>
                                        <string>00:00:00:00</string>
                                        <frame>0</frame>
                                        <displayformat>NDF</displayformat>
                                        <media>
                                            <video/>
                                            <audio/>
                                        </media>
                                    </timecode>
                                </file>
                                <name>/home/davidk/code/python/JC-render/JC-examples/yoga.mp4</name>
                                <rate>
                                    <timebase>30</timebase>
                                    <ntsc>TRUE</ntsc>
                                </rate>
                                <start>2225</start>
                                <end>2254</end>
                            </clipitem>
                            <clipitem frameBlend="FALSE" id="clipitem-53">
                                <media>
                                    <video>
                                        <samplecharacteristics>
                                            <height>720</height>
                                            <width>1270</width>
                                        </samplecharacteristics>
                                    </video>
                                </media>
                                <file id="file-1">
                                    <pathurl>/home/davidk/code/python/JC-render/JC-examples/yoga.mp4</pathurl>
                                    <name>yoga.mp4</name>
                                    <rate>
                                        <timebase>30</timebase>
                                        <ntsc>TRUE</ntsc>
                                    </rate>
                                    <duration>54922</duration>
                                    <timecode>
                                        <rate>
                                            <timebase>30</timebase>
                                            <ntsc>TRUE</ntsc>
                                        </rate>
                                        <string>00:00:00:00</string>
                                        <frame>0</frame>
                                        <displayformat>NDF</displayformat>
                                        <media>
                                            <video/>
                                            <audio/>
                                        </media>
                                    </timecode>
                                </file>
                                <name>/home/davidk/code/python/JC-render/JC-examples/yoga.mp4</name>
                                <rate>
                                    <timebase>30</timebase>
                                    <ntsc>TRUE</ntsc>
                                </rate>
                                <start>2254</start>
                                <end>2270</end>
                            </clipitem>
                            <clipitem frameBlend="FALSE" id="clipitem-54">
                                <media>
                                    <video>
                                        <samplecharacteristics>
                                            <height>720</height>
                                            <width>1270</width>
                                        </samplecharacteristics>
                                    </video>
                                </media>
                                <file id="file-1">
                                    <pathurl>/home/davidk/code/python/JC-render/JC-examples/yoga.mp4</pathurl>
                                    <name>yoga.mp4</name>
                                    <rate>
                                        <timebase>30</timebase>
                                        <ntsc>TRUE</ntsc>
                                    </rate>
                                    <duration>54922</duration>
                                    <timecode>
                                        <rate>
                                            <timebase>30</timebase>
                                            <ntsc>TRUE</ntsc>
                                        </rate>
                                        <string>00:00:00:00</string>
                                        <frame>0</frame>
                                        <displayformat>NDF</displayformat>
                                        <media>
                                            <video/>
                                            <audio/>
                                        </media>
                                    </timecode>
                                </file>
                                <name>/home/davidk/code/python/JC-render/JC-examples/yoga.mp4</name>
                                <rate>
                                    <timebase>30</timebase>
                                    <ntsc>TRUE</ntsc>
                                </rate>
                                <start>2270</start>
                                <end>2286</end>
                            </clipitem>
                            <clipitem frameBlend="FALSE" id="clipitem-55">
                                <media>
                                    <video>
                                        <samplecharacteristics>
                                            <height>720</height>
                                            <width>1270</width>
                                        </samplecharacteristics>
                                    </video>
                                </media>
                                <file id="file-1">
                                    <pathurl>/home/davidk/code/python/JC-render/JC-examples/yoga.mp4</pathurl>
                                    <name>yoga.mp4</name>
                                    <rate>
                                        <timebase>30</timebase>
                                        <ntsc>TRUE</ntsc>
                                    </rate>
                                    <duration>54922</duration>
                                    <timecode>
                                        <rate>
                                            <timebase>30</timebase>
                                            <ntsc>TRUE</ntsc>
                                        </rate>
                                        <string>00:00:00:00</string>
                                        <frame>0</frame>
                                        <displayformat>NDF</displayformat>
                                        <media>
                                            <video/>
                                            <audio/>
                                        </media>
                                    </timecode>
                                </file>
                                <name>/home/davidk/code/python/JC-render/JC-examples/yoga.mp4</name>
                                <rate>
                                    <timebase>30</timebase>
                                    <ntsc>TRUE</ntsc>
                                </rate>
                                <start>2286</start>
                                <end>2329</end>
                            </clipitem>
                            <clipitem frameBlend="FALSE" id="clipitem-56">
                                <media>
                                    <video>
                                        <samplecharacteristics>
                                            <height>720</height>
                                            <width>1270</width>
                                        </samplecharacteristics>
                                    </video>
                                </media>
                                <file id="file-1">
                                    <pathurl>/home/davidk/code/python/JC-render/JC-examples/yoga.mp4</pathurl>
                                    <name>yoga.mp4</name>
                                    <rate>
                                        <timebase>30</timebase>
                                        <ntsc>TRUE</ntsc>
                                    </rate>
                                    <duration>54922</duration>
                                    <timecode>
                                        <rate>
                                            <timebase>30</timebase>
                                            <ntsc>TRUE</ntsc>
                                        </rate>
                                        <string>00:00:00:00</string>
                                        <frame>0</frame>
                                        <displayformat>NDF</displayformat>
                                        <media>
                                            <video/>
                                            <audio/>
                                        </media>
                                    </timecode>
                                </file>
                                <name>/home/davidk/code/python/JC-render/JC-examples/yoga.mp4</name>
                                <rate>
                                    <timebase>30</timebase>
                                    <ntsc>TRUE</ntsc>
                                </rate>
                                <start>2329</start>
                                <end>2345</end>
                            </clipitem>
                            <clipitem frameBlend="FALSE" id="clipitem-57">
                                <media>
                                    <video>
                                        <samplecharacteristics>
                                            <height>720</height>
                                            <width>1270</width>
                                        </samplecharacteristics>
                                    </video>
                                </media>
                                <file id="file-1">
                                    <pathurl>/home/davidk/code/python/JC-render/JC-examples/yoga.mp4</pathurl>
                                    <name>yoga.mp4</name>
                                    <rate>
                                        <timebase>30</timebase>
                                        <ntsc>TRUE</ntsc>
                                    </rate>
                                    <duration>54922</duration>
                                    <timecode>
                                        <rate>
                                            <timebase>30</timebase>
                                            <ntsc>TRUE</ntsc>
                                        </rate>
                                        <string>00:00:00:00</string>
                                        <frame>0</frame>
                                        <displayformat>NDF</displayformat>
                                        <media>
                                            <video/>
                                            <audio/>
                                        </media>
                                    </timecode>
                                </file>
                                <name>/home/davidk/code/python/JC-render/JC-examples/yoga.mp4</name>
                                <rate>
                                    <timebase>30</timebase>
                                    <ntsc>TRUE</ntsc>
                                </rate>
                                <start>2345</start>
                                <end>2479</end>
                            </clipitem>
                            <clipitem frameBlend="FALSE" id="clipitem-58">
                                <media>
                                    <video>
                                        <samplecharacteristics>
                                            <height>720</height>
                                            <width>1270</width>
                                        </samplecharacteristics>
                                    </video>
                                </media>
                                <file id="file-1">
                                    <pathurl>/home/davidk/code/python/JC-render/JC-examples/yoga.mp4</pathurl>
                                    <name>yoga.mp4</name>
                                    <rate>
                                        <timebase>30</timebase>
                                        <ntsc>TRUE</ntsc>
                                    </rate>
                                    <duration>54922</duration>
                                    <timecode>
                                        <rate>
                                            <timebase>30</timebase>
                                            <ntsc>TRUE</ntsc>
                                        </rate>
                                        <string>00:00:00:00</string>
                                        <frame>0</frame>
                                        <displayformat>NDF</displayformat>
                                        <media>
                                            <video/>
                                            <audio/>
                                        </media>
                                    </timecode>
                                </file>
                                <name>/home/davidk/code/python/JC-render/JC-examples/yoga.mp4</name>
                                <rate>
                                    <timebase>30</timebase>
                                    <ntsc>TRUE</ntsc>
                                </rate>
                                <start>2479</start>
                                <end>2495</end>
                            </clipitem>
                            <clipitem frameBlend="FALSE" id="clipitem-59">
                                <media>
                                    <video>
                                        <samplecharacteristics>
                                            <height>720</height>
                                            <width>1270</width>
                                        </samplecharacteristics>
                                    </video>
                                </media>
                                <file id="file-1">
                                    <pathurl>/home/davidk/code/python/JC-render/JC-examples/yoga.mp4</pathurl>
                                    <name>yoga.mp4</name>
                                    <rate>
                                        <timebase>30</timebase>
                                        <ntsc>TRUE</ntsc>
                                    </rate>
                                    <duration>54922</duration>
                                    <timecode>
                                        <rate>
                                            <timebase>30</timebase>
                                            <ntsc>TRUE</ntsc>
                                        </rate>
                                        <string>00:00:00:00</string>
                                        <frame>0</frame>
                                        <displayformat>NDF</displayformat>
                                        <media>
                                            <video/>
                                            <audio/>
                                        </media>
                                    </timecode>
                                </file>
                                <name>/home/davidk/code/python/JC-render/JC-examples/yoga.mp4</name>
                                <rate>
                                    <timebase>30</timebase>
                                    <ntsc>TRUE</ntsc>
                                </rate>
                                <start>2495</start>
                                <end>2590</end>
                            </clipitem>
                            <clipitem frameBlend="FALSE" id="clipitem-60">
                                <media>
                                    <video>
                                        <samplecharacteristics>
                                            <height>720</height>
                                            <width>1270</width>
                                        </samplecharacteristics>
                                    </video>
                                </media>
                                <file id="file-1">
                                    <pathurl>/home/davidk/code/python/JC-render/JC-examples/yoga.mp4</pathurl>
                                    <name>yoga.mp4</name>
                                    <rate>
                                        <timebase>30</timebase>
                                        <ntsc>TRUE</ntsc>
                                    </rate>
                                    <duration>54922</duration>
                                    <timecode>
                                        <rate>
                                            <timebase>30</timebase>
                                            <ntsc>TRUE</ntsc>
                                        </rate>
                                        <string>00:00:00:00</string>
                                        <frame>0</frame>
                                        <displayformat>NDF</displayformat>
                                        <media>
                                            <video/>
                                            <audio/>
                                        </media>
                                    </timecode>
                                </file>
                                <name>/home/davidk/code/python/JC-render/JC-examples/yoga.mp4</name>
                                <rate>
                                    <timebase>30</timebase>
                                    <ntsc>TRUE</ntsc>
                                </rate>
                                <start>2590</start>
                                <end>2620</end>
                            </clipitem>
                            <clipitem frameBlend="FALSE" id="clipitem-61">
                                <media>
                                    <video>
                                        <samplecharacteristics>
                                            <height>720</height>
                                            <width>1270</width>
                                        </samplecharacteristics>
                                    </video>
                                </media>
                                <file id="file-1">
                                    <pathurl>/home/davidk/code/python/JC-render/JC-examples/yoga.mp4</pathurl>
                                    <name>yoga.mp4</name>
                                    <rate>
                                        <timebase>30</timebase>
                                        <ntsc>TRUE</ntsc>
                                    </rate>
                                    <duration>54922</duration>
                                    <timecode>
                                        <rate>
                                            <timebase>30</timebase>
                                            <ntsc>TRUE</ntsc>
                                        </rate>
                                        <string>00:00:00:00</string>
                                        <frame>0</frame>
                                        <displayformat>NDF</displayformat>
                                        <media>
                                            <video/>
                                            <audio/>
                                        </media>
                                    </timecode>
                                </file>
                                <name>/home/davidk/code/python/JC-render/JC-examples/yoga.mp4</name>
                                <rate>
                                    <timebase>30</timebase>
                                    <ntsc>TRUE</ntsc>
                                </rate>
                                <start>2620</start>
                                <end>2719</end>
                            </clipitem>
                            <clipitem frameBlend="FALSE" id="clipitem-62">
                                <media>
                                    <video>
                                        <samplecharacteristics>
                                            <height>720</height>
                                            <width>1270</width>
                                        </samplecharacteristics>
                                    </video>
                                </media>
                                <file id="file-1">
                                    <pathurl>/home/davidk/code/python/JC-render/JC-examples/yoga.mp4</pathurl>
                                    <name>yoga.mp4</name>
                                    <rate>
                                        <timebase>30</timebase>
                                        <ntsc>TRUE</ntsc>
                                    </rate>
                                    <duration>54922</duration>
                                    <timecode>
                                        <rate>
                                            <timebase>30</timebase>
                                            <ntsc>TRUE</ntsc>
                                        </rate>
                                        <string>00:00:00:00</string>
                                        <frame>0</frame>
                                        <displayformat>NDF</displayformat>
                                        <media>
                                            <video/>
                                            <audio/>
                                        </media>
                                    </timecode>
                                </file>
                                <name>/home/davidk/code/python/JC-render/JC-examples/yoga.mp4</name>
                                <rate>
                                    <timebase>30</timebase>
                                    <ntsc>TRUE</ntsc>
                                </rate>
                                <start>2719</start>
                                <end>2735</end>
                            </clipitem>
                            <clipitem frameBlend="FALSE" id="clipitem-63">
                                <media>
                                    <video>
                                        <samplecharacteristics>
                                            <height>720</height>
                                            <width>1270</width>
                                        </samplecharacteristics>
                                    </video>
                                </media>
                                <file id="file-1">
                                    <pathurl>/home/davidk/code/python/JC-render/JC-examples/yoga.mp4</pathurl>
                                    <name>yoga.mp4</name>
                                    <rate>
                                        <timebase>30</timebase>
                                        <ntsc>TRUE</ntsc>
                                    </rate>
                                    <duration>54922</duration>
                                    <timecode>
                                        <rate>
                                            <timebase>30</timebase>
                                            <ntsc>TRUE</ntsc>
                                        </rate>
                                        <string>00:00:00:00</string>
                                        <frame>0</frame>
                                        <displayformat>NDF</displayformat>
                                        <media>
                                            <video/>
                                            <audio/>
                                        </media>
                                    </timecode>
                                </file>
                                <name>/home/davidk/code/python/JC-render/JC-examples/yoga.mp4</name>
                                <rate>
                                    <timebase>30</timebase>
                                    <ntsc>TRUE</ntsc>
                                </rate>
                                <start>2735</start>
                                <end>2813</end>
                            </clipitem>
                            <clipitem frameBlend="FALSE" id="clipitem-64">
                                <media>
                                    <video>
                                        <samplecharacteristics>
                                            <height>720</height>
                                            <width>1270</width>
                                        </samplecharacteristics>
                                    </video>
                                </media>
                                <file id="file-1">
                                    <pathurl>/home/davidk/code/python/JC-render/JC-examples/yoga.mp4</pathurl>
                                    <name>yoga.mp4</name>
                                    <rate>
                                        <timebase>30</timebase>
                                        <ntsc>TRUE</ntsc>
                                    </rate>
                                    <duration>54922</duration>
                                    <timecode>
                                        <rate>
                                            <timebase>30</timebase>
                                            <ntsc>TRUE</ntsc>
                                        </rate>
                                        <string>00:00:00:00</string>
                                        <frame>0</frame>
                                        <displayformat>NDF</displayformat>
                                        <media>
                                            <video/>
                                            <audio/>
                                        </media>
                                    </timecode>
                                </file>
                                <name>/home/davidk/code/python/JC-render/JC-examples/yoga.mp4</name>
                                <rate>
                                    <timebase>30</timebase>
                                    <ntsc>TRUE</ntsc>
                                </rate>
                                <start>2813</start>
                                <end>2826</end>
                            </clipitem>
                            <clipitem frameBlend="FALSE" id="clipitem-65">
                                <media>
                                    <video>
                                        <samplecharacteristics>
                                            <height>720</height>
                                            <width>1270</width>
                                        </samplecharacteristics>
                                    </video>
                                </media>
                                <file id="file-1">
                                    <pathurl>/home/davidk/code/python/JC-render/JC-examples/yoga.mp4</pathurl>
                                    <name>yoga.mp4</name>
                                    <rate>
                                        <timebase>30</timebase>
                                        <ntsc>TRUE</ntsc>
                                    </rate>
                                    <duration>54922</duration>
                                    <timecode>
                                        <rate>
                                            <timebase>30</timebase>
                                            <ntsc>TRUE</ntsc>
                                        </rate>
                                        <string>00:00:00:00</string>
                                        <frame>0</frame>
                                        <displayformat>NDF</displayformat>
                                        <media>
                                            <video/>
                                            <audio/>
                                        </media>
                                    </timecode>
                                </file>
                                <name>/home/davidk/code/python/JC-render/JC-examples/yoga.mp4</name>
                                <rate>
                                    <timebase>30</timebase>
                                    <ntsc>TRUE</ntsc>
                                </rate>
                                <start>2826</start>
                                <end>2914</end>
                            </clipitem>
                            <clipitem frameBlend="FALSE" id="clipitem-66">
                                <media>
                                    <video>
                                        <samplecharacteristics>
                                            <height>720</height>
                                            <width>1270</width>
                                        </samplecharacteristics>
                                    </video>
                                </media>
                                <file id="file-1">
                                    <pathurl>/home/davidk/code/python/JC-render/JC-examples/yoga.mp4</pathurl>
                                    <name>yoga.mp4</name>
                                    <rate>
                                        <timebase>30</timebase>
                                        <ntsc>TRUE</ntsc>
                                    </rate>
                                    <duration>54922</duration>
                                    <timecode>
                                        <rate>
                                            <timebase>30</timebase>
                                            <ntsc>TRUE</ntsc>
                                        </rate>
                                        <string>00:00:00:00</string>
                                        <frame>0</frame>
                                        <displayformat>NDF</displayformat>
                                        <media>
                                            <video/>
                                            <audio/>
                                        </media>
                                    </timecode>
                                </file>
                                <name>/home/davidk/code/python/JC-render/JC-examples/yoga.mp4</name>
                                <rate>
                                    <timebase>30</timebase>
                                    <ntsc>TRUE</ntsc>
                                </rate>
                                <start>2914</start>
                                <end>2930</end>
                            </clipitem>
                            <clipitem frameBlend="FALSE" id="clipitem-67">
                                <media>
                                    <video>
                                        <samplecharacteristics>
                                            <height>720</height>
                                            <width>1270</width>
                                        </samplecharacteristics>
                                    </video>
                                </media>
                                <file id="file-1">
                                    <pathurl>/home/davidk/code/python/JC-render/JC-examples/yoga.mp4</pathurl>
                                    <name>yoga.mp4</name>
                                    <rate>
                                        <timebase>30</timebase>
                                        <ntsc>TRUE</ntsc>
                                    </rate>
                                    <duration>54922</duration>
                                    <timecode>
                                        <rate>
                                            <timebase>30</timebase>
                                            <ntsc>TRUE</ntsc>
                                        </rate>
                                        <string>00:00:00:00</string>
                                        <frame>0</frame>
                                        <displayformat>NDF</displayformat>
                                        <media>
                                            <video/>
                                            <audio/>
                                        </media>
                                    </timecode>
                                </file>
                                <name>/home/davidk/code/python/JC-render/JC-examples/yoga.mp4</name>
                                <rate>
                                    <timebase>30</timebase>
                                    <ntsc>TRUE</ntsc>
                                </rate>
                                <start>2930</start>
                                <end>3019</end>
                            </clipitem>
                            <clipitem frameBlend="FALSE" id="clipitem-68">
                                <media>
                                    <video>
                                        <samplecharacteristics>
                                            <height>720</height>
                                            <width>1270</width>
                                        </samplecharacteristics>
                                    </video>
                                </media>
                                <file id="file-1">
                                    <pathurl>/home/davidk/code/python/JC-render/JC-examples/yoga.mp4</pathurl>
                                    <name>yoga.mp4</name>
                                    <rate>
                                        <timebase>30</timebase>
                                        <ntsc>TRUE</ntsc>
                                    </rate>
                                    <duration>54922</duration>
                                    <timecode>
                                        <rate>
                                            <timebase>30</timebase>
                                            <ntsc>TRUE</ntsc>
                                        </rate>
                                        <string>00:00:00:00</string>
                                        <frame>0</frame>
                                        <displayformat>NDF</displayformat>
                                        <media>
                                            <video/>
                                            <audio/>
                                        </media>
                                    </timecode>
                                </file>
                                <name>/home/davidk/code/python/JC-render/JC-examples/yoga.mp4</name>
                                <rate>
                                    <timebase>30</timebase>
                                    <ntsc>TRUE</ntsc>
                                </rate>
                                <start>3019</start>
                                <end>3021</end>
                            </clipitem>
                            <clipitem frameBlend="FALSE" id="clipitem-69">
                                <media>
                                    <video>
                                        <samplecharacteristics>
                                            <height>720</height>
                                            <width>1270</width>
                                        </samplecharacteristics>
                                    </video>
                                </media>
                                <file id="file-1">
                                    <pathurl>/home/davidk/code/python/JC-render/JC-examples/yoga.mp4</pathurl>
                                    <name>yoga.mp4</name>
                                    <rate>
                                        <timebase>30</timebase>
                                        <ntsc>TRUE</ntsc>
                                    </rate>
                                    <duration>54922</duration>
                                    <timecode>
                                        <rate>
                                            <timebase>30</timebase>
                                            <ntsc>TRUE</ntsc>
                                        </rate>
                                        <string>00:00:00:00</string>
                                        <frame>0</frame>
                                        <displayformat>NDF</displayformat>
                                        <media>
                                            <video/>
                                            <audio/>
                                        </media>
                                    </timecode>
                                </file>
                                <name>/home/davidk/code/python/JC-render/JC-examples/yoga.mp4</name>
                                <rate>
                                    <timebase>30</timebase>
                                    <ntsc>TRUE</ntsc>
                                </rate>
                                <start>3021</start>
                                <end>3064</end>
                            </clipitem>
                            <clipitem frameBlend="FALSE" id="clipitem-70">
                                <media>
                                    <video>
                                        <samplecharacteristics>
                                            <height>720</height>
                                            <width>1270</width>
                                        </samplecharacteristics>
                                    </video>
                                </media>
                                <file id="file-1">
                                    <pathurl>/home/davidk/code/python/JC-render/JC-examples/yoga.mp4</pathurl>
                                    <name>yoga.mp4</name>
                                    <rate>
                                        <timebase>30</timebase>
                                        <ntsc>TRUE</ntsc>
                                    </rate>
                                    <duration>54922</duration>
                                    <timecode>
                                        <rate>
                                            <timebase>30</timebase>
                                            <ntsc>TRUE</ntsc>
                                        </rate>
                                        <string>00:00:00:00</string>
                                        <frame>0</frame>
                                        <displayformat>NDF</displayformat>
                                        <media>
                                            <video/>
                                            <audio/>
                                        </media>
                                    </timecode>
                                </file>
                                <name>/home/davidk/code/python/JC-render/JC-examples/yoga.mp4</name>
                                <rate>
                                    <timebase>30</timebase>
                                    <ntsc>TRUE</ntsc>
                                </rate>
                                <start>3064</start>
                                <end>3080</end>
                            </clipitem>
                            <clipitem frameBlend="FALSE" id="clipitem-71">
                                <media>
                                    <video>
                                        <samplecharacteristics>
                                            <height>720</height>
                                            <width>1270</width>
                                        </samplecharacteristics>
                                    </video>
                                </media>
                                <file id="file-1">
                                    <pathurl>/home/davidk/code/python/JC-render/JC-examples/yoga.mp4</pathurl>
                                    <name>yoga.mp4</name>
                                    <rate>
                                        <timebase>30</timebase>
                                        <ntsc>TRUE</ntsc>
                                    </rate>
                                    <duration>54922</duration>
                                    <timecode>
                                        <rate>
                                            <timebase>30</timebase>
                                            <ntsc>TRUE</ntsc>
                                        </rate>
                                        <string>00:00:00:00</string>
                                        <frame>0</frame>
                                        <displayformat>NDF</displayformat>
                                        <media>
                                            <video/>
                                            <audio/>
                                        </media>
                                    </timecode>
                                </file>
                                <name>/home/davidk/code/python/JC-render/JC-examples/yoga.mp4</name>
                                <rate>
                                    <timebase>30</timebase>
                                    <ntsc>TRUE</ntsc>
                                </rate>
                                <start>3080</start>
                                <end>3109</end>
                            </clipitem>
                            <clipitem frameBlend="FALSE" id="clipitem-72">
                                <media>
                                    <video>
                                        <samplecharacteristics>
                                            <height>720</height>
                                            <width>1270</width>
                                        </samplecharacteristics>
                                    </video>
                                </media>
                                <file id="file-1">
                                    <pathurl>/home/davidk/code/python/JC-render/JC-examples/yoga.mp4</pathurl>
                                    <name>yoga.mp4</name>
                                    <rate>
                                        <timebase>30</timebase>
                                        <ntsc>TRUE</ntsc>
                                    </rate>
                                    <duration>54922</duration>
                                    <timecode>
                                        <rate>
                                            <timebase>30</timebase>
                                            <ntsc>TRUE</ntsc>
                                        </rate>
                                        <string>00:00:00:00</string>
                                        <frame>0</frame>
                                        <displayformat>NDF</displayformat>
                                        <media>
                                            <video/>
                                            <audio/>
                                        </media>
                                    </timecode>
                                </file>
                                <name>/home/davidk/code/python/JC-render/JC-examples/yoga.mp4</name>
                                <rate>
                                    <timebase>30</timebase>
                                    <ntsc>TRUE</ntsc>
                                </rate>
                                <start>3109</start>
                                <end>3397</end>
                            </clipitem>
                            <clipitem frameBlend="FALSE" id="clipitem-73">
                                <media>
                                    <video>
                                        <samplecharacteristics>
                                            <height>720</height>
                                            <width>1270</width>
                                        </samplecharacteristics>
                                    </video>
                                </media>
                                <file id="file-1">
                                    <pathurl>/home/davidk/code/python/JC-render/JC-examples/yoga.mp4</pathurl>
                                    <name>yoga.mp4</name>
                                    <rate>
                                        <timebase>30</timebase>
                                        <ntsc>TRUE</ntsc>
                                    </rate>
                                    <duration>54922</duration>
                                    <timecode>
                                        <rate>
                                            <timebase>30</timebase>
                                            <ntsc>TRUE</ntsc>
                                        </rate>
                                        <string>00:00:00:00</string>
                                        <frame>0</frame>
                                        <displayformat>NDF</displayformat>
                                        <media>
                                            <video/>
                                            <audio/>
                                        </media>
                                    </timecode>
                                </file>
                                <name>/home/davidk/code/python/JC-render/JC-examples/yoga.mp4</name>
                                <rate>
                                    <timebase>30</timebase>
                                    <ntsc>TRUE</ntsc>
                                </rate>
                                <start>3397</start>
                                <end>3440</end>
                            </clipitem>
                            <clipitem frameBlend="FALSE" id="clipitem-74">
                                <media>
                                    <video>
                                        <samplecharacteristics>
                                            <height>720</height>
                                            <width>1270</width>
                                        </samplecharacteristics>
                                    </video>
                                </media>
                                <file id="file-1">
                                    <pathurl>/home/davidk/code/python/JC-render/JC-examples/yoga.mp4</pathurl>
                                    <name>yoga.mp4</name>
                                    <rate>
                                        <timebase>30</timebase>
                                        <ntsc>TRUE</ntsc>
                                    </rate>
                                    <duration>54922</duration>
                                    <timecode>
                                        <rate>
                                            <timebase>30</timebase>
                                            <ntsc>TRUE</ntsc>
                                        </rate>
                                        <string>00:00:00:00</string>
                                        <frame>0</frame>
                                        <displayformat>NDF</displayformat>
                                        <media>
                                            <video/>
                                            <audio/>
                                        </media>
                                    </timecode>
                                </file>
                                <name>/home/davidk/code/python/JC-render/JC-examples/yoga.mp4</name>
                                <rate>
                                    <timebase>30</timebase>
                                    <ntsc>TRUE</ntsc>
                                </rate>
                                <start>3440</start>
                                <end>3449</end>
                            </clipitem>
                            <clipitem frameBlend="FALSE" id="clipitem-75">
                                <media>
                                    <video>
                                        <samplecharacteristics>
                                            <height>720</height>
                                            <width>1270</width>
                                        </samplecharacteristics>
                                    </video>
                                </media>
                                <file id="file-1">
                                    <pathurl>/home/davidk/code/python/JC-render/JC-examples/yoga.mp4</pathurl>
                                    <name>yoga.mp4</name>
                                    <rate>
                                        <timebase>30</timebase>
                                        <ntsc>TRUE</ntsc>
                                    </rate>
                                    <duration>54922</duration>
                                    <timecode>
                                        <rate>
                                            <timebase>30</timebase>
                                            <ntsc>TRUE</ntsc>
                                        </rate>
                                        <string>00:00:00:00</string>
                                        <frame>0</frame>
                                        <displayformat>NDF</displayformat>
                                        <media>
                                            <video/>
                                            <audio/>
                                        </media>
                                    </timecode>
                                </file>
                                <name>/home/davidk/code/python/JC-render/JC-examples/yoga.mp4</name>
                                <rate>
                                    <timebase>30</timebase>
                                    <ntsc>TRUE</ntsc>
                                </rate>
                                <start>3449</start>
                                <end>3506</end>
                            </clipitem>
                            <clipitem frameBlend="FALSE" id="clipitem-76">
                                <media>
                                    <video>
                                        <samplecharacteristics>
                                            <height>720</height>
                                            <width>1270</width>
                                        </samplecharacteristics>
                                    </video>
                                </media>
                                <file id="file-1">
                                    <pathurl>/home/davidk/code/python/JC-render/JC-examples/yoga.mp4</pathurl>
                                    <name>yoga.mp4</name>
                                    <rate>
                                        <timebase>30</timebase>
                                        <ntsc>TRUE</ntsc>
                                    </rate>
                                    <duration>54922</duration>
                                    <timecode>
                                        <rate>
                                            <timebase>30</timebase>
                                            <ntsc>TRUE</ntsc>
                                        </rate>
                                        <string>00:00:00:00</string>
                                        <frame>0</frame>
                                        <displayformat>NDF</displayformat>
                                        <media>
                                            <video/>
                                            <audio/>
                                        </media>
                                    </timecode>
                                </file>
                                <name>/home/davidk/code/python/JC-render/JC-examples/yoga.mp4</name>
                                <rate>
                                    <timebase>30</timebase>
                                    <ntsc>TRUE</ntsc>
                                </rate>
                                <start>3506</start>
                                <end>3522</end>
                            </clipitem>
                            <clipitem frameBlend="FALSE" id="clipitem-77">
                                <media>
                                    <video>
                                        <samplecharacteristics>
                                            <height>720</height>
                                            <width>1270</width>
                                        </samplecharacteristics>
                                    </video>
                                </media>
                                <file id="file-1">
                                    <pathurl>/home/davidk/code/python/JC-render/JC-examples/yoga.mp4</pathurl>
                                    <name>yoga.mp4</name>
                                    <rate>
                                        <timebase>30</timebase>
                                        <ntsc>TRUE</ntsc>
                                    </rate>
                                    <duration>54922</duration>
                                    <timecode>
                                        <rate>
                                            <timebase>30</timebase>
                                            <ntsc>TRUE</ntsc>
                                        </rate>
                                        <string>00:00:00:00</string>
                                        <frame>0</frame>
                                        <displayformat>NDF</displayformat>
                                        <media>
                                            <video/>
                                            <audio/>
                                        </media>
                                    </timecode>
                                </file>
                                <name>/home/davidk/code/python/JC-render/JC-examples/yoga.mp4</name>
                                <rate>
                                    <timebase>30</timebase>
                                    <ntsc>TRUE</ntsc>
                                </rate>
                                <start>3522</start>
                                <end>3590</end>
                            </clipitem>
                            <clipitem frameBlend="FALSE" id="clipitem-78">
                                <media>
                                    <video>
                                        <samplecharacteristics>
                                            <height>720</height>
                                            <width>1270</width>
                                        </samplecharacteristics>
                                    </video>
                                </media>
                                <file id="file-1">
                                    <pathurl>/home/davidk/code/python/JC-render/JC-examples/yoga.mp4</pathurl>
                                    <name>yoga.mp4</name>
                                    <rate>
                                        <timebase>30</timebase>
                                        <ntsc>TRUE</ntsc>
                                    </rate>
                                    <duration>54922</duration>
                                    <timecode>
                                        <rate>
                                            <timebase>30</timebase>
                                            <ntsc>TRUE</ntsc>
                                        </rate>
                                        <string>00:00:00:00</string>
                                        <frame>0</frame>
                                        <displayformat>NDF</displayformat>
                                        <media>
                                            <video/>
                                            <audio/>
                                        </media>
                                    </timecode>
                                </file>
                                <name>/home/davidk/code/python/JC-render/JC-examples/yoga.mp4</name>
                                <rate>
                                    <timebase>30</timebase>
                                    <ntsc>TRUE</ntsc>
                                </rate>
                                <start>3590</start>
                                <end>3599</end>
                            </clipitem>
                            <clipitem frameBlend="FALSE" id="clipitem-79">
                                <media>
                                    <video>
                                        <samplecharacteristics>
                                            <height>720</height>
                                            <width>1270</width>
                                        </samplecharacteristics>
                                    </video>
                                </media>
                                <file id="file-1">
                                    <pathurl>/home/davidk/code/python/JC-render/JC-examples/yoga.mp4</pathurl>
                                    <name>yoga.mp4</name>
                                    <rate>
                                        <timebase>30</timebase>
                                        <ntsc>TRUE</ntsc>
                                    </rate>
                                    <duration>54922</duration>
                                    <timecode>
                                        <rate>
                                            <timebase>30</timebase>
                                            <ntsc>TRUE</ntsc>
                                        </rate>
                                        <string>00:00:00:00</string>
                                        <frame>0</frame>
                                        <displayformat>NDF</displayformat>
                                        <media>
                                            <video/>
                                            <audio/>
                                        </media>
                                    </timecode>
                                </file>
                                <name>/home/davidk/code/python/JC-render/JC-examples/yoga.mp4</name>
                                <rate>
                                    <timebase>30</timebase>
                                    <ntsc>TRUE</ntsc>
                                </rate>
                                <start>3599</start>
                                <end>3677</end>
                            </clipitem>
                            <clipitem frameBlend="FALSE" id="clipitem-80">
                                <media>
                                    <video>
                                        <samplecharacteristics>
                                            <height>720</height>
                                            <width>1270</width>
                                        </samplecharacteristics>
                                    </video>
                                </media>
                                <file id="file-1">
                                    <pathurl>/home/davidk/code/python/JC-render/JC-examples/yoga.mp4</pathurl>
                                    <name>yoga.mp4</name>
                                    <rate>
                                        <timebase>30</timebase>
                                        <ntsc>TRUE</ntsc>
                                    </rate>
                                    <duration>54922</duration>
                                    <timecode>
                                        <rate>
                                            <timebase>30</timebase>
                                            <ntsc>TRUE</ntsc>
                                        </rate>
                                        <string>00:00:00:00</string>
                                        <frame>0</frame>
                                        <displayformat>NDF</displayformat>
                                        <media>
                                            <video/>
                                            <audio/>
                                        </media>
                                    </timecode>
                                </file>
                                <name>/home/davidk/code/python/JC-render/JC-examples/yoga.mp4</name>
                                <rate>
                                    <timebase>30</timebase>
                                    <ntsc>TRUE</ntsc>
                                </rate>
                                <start>3677</start>
                                <end>3790</end>
                            </clipitem>
                            <clipitem frameBlend="FALSE" id="clipitem-81">
                                <media>
                                    <video>
                                        <samplecharacteristics>
                                            <height>720</height>
                                            <width>1270</width>
                                        </samplecharacteristics>
                                    </video>
                                </media>
                                <file id="file-1">
                                    <pathurl>/home/davidk/code/python/JC-render/JC-examples/yoga.mp4</pathurl>
                                    <name>yoga.mp4</name>
                                    <rate>
                                        <timebase>30</timebase>
                                        <ntsc>TRUE</ntsc>
                                    </rate>
                                    <duration>54922</duration>
                                    <timecode>
                                        <rate>
                                            <timebase>30</timebase>
                                            <ntsc>TRUE</ntsc>
                                        </rate>
                                        <string>00:00:00:00</string>
                                        <frame>0</frame>
                                        <displayformat>NDF</displayformat>
                                        <media>
                                            <video/>
                                            <audio/>
                                        </media>
                                    </timecode>
                                </file>
                                <name>/home/davidk/code/python/JC-render/JC-examples/yoga.mp4</name>
                                <rate>
                                    <timebase>30</timebase>
                                    <ntsc>TRUE</ntsc>
                                </rate>
                                <start>3790</start>
                                <end>3830</end>
                            </clipitem>
                            <clipitem frameBlend="FALSE" id="clipitem-82">
                                <media>
                                    <video>
                                        <samplecharacteristics>
                                            <height>720</height>
                                            <width>1270</width>
                                        </samplecharacteristics>
                                    </video>
                                </media>
                                <file id="file-1">
                                    <pathurl>/home/davidk/code/python/JC-render/JC-examples/yoga.mp4</pathurl>
                                    <name>yoga.mp4</name>
                                    <rate>
                                        <timebase>30</timebase>
                                        <ntsc>TRUE</ntsc>
                                    </rate>
                                    <duration>54922</duration>
                                    <timecode>
                                        <rate>
                                            <timebase>30</timebase>
                                            <ntsc>TRUE</ntsc>
                                        </rate>
                                        <string>00:00:00:00</string>
                                        <frame>0</frame>
                                        <displayformat>NDF</displayformat>
                                        <media>
                                            <video/>
                                            <audio/>
                                        </media>
                                    </timecode>
                                </file>
                                <name>/home/davidk/code/python/JC-render/JC-examples/yoga.mp4</name>
                                <rate>
                                    <timebase>30</timebase>
                                    <ntsc>TRUE</ntsc>
                                </rate>
                                <start>3830</start>
                                <end>3878</end>
                            </clipitem>
                            <clipitem frameBlend="FALSE" id="clipitem-83">
                                <media>
                                    <video>
                                        <samplecharacteristics>
                                            <height>720</height>
                                            <width>1270</width>
                                        </samplecharacteristics>
                                    </video>
                                </media>
                                <file id="file-1">
                                    <pathurl>/home/davidk/code/python/JC-render/JC-examples/yoga.mp4</pathurl>
                                    <name>yoga.mp4</name>
                                    <rate>
                                        <timebase>30</timebase>
                                        <ntsc>TRUE</ntsc>
                                    </rate>
                                    <duration>54922</duration>
                                    <timecode>
                                        <rate>
                                            <timebase>30</timebase>
                                            <ntsc>TRUE</ntsc>
                                        </rate>
                                        <string>00:00:00:00</string>
                                        <frame>0</frame>
                                        <displayformat>NDF</displayformat>
                                        <media>
                                            <video/>
                                            <audio/>
                                        </media>
                                    </timecode>
                                </file>
                                <name>/home/davidk/code/python/JC-render/JC-examples/yoga.mp4</name>
                                <rate>
                                    <timebase>30</timebase>
                                    <ntsc>TRUE</ntsc>
                                </rate>
                                <start>3878</start>
                                <end>3924</end>
                            </clipitem>
                            <clipitem frameBlend="FALSE" id="clipitem-84">
                                <media>
                                    <video>
                                        <samplecharacteristics>
                                            <height>720</height>
                                            <width>1270</width>
                                        </samplecharacteristics>
                                    </video>
                                </media>
                                <file id="file-1">
                                    <pathurl>/home/davidk/code/python/JC-render/JC-examples/yoga.mp4</pathurl>
                                    <name>yoga.mp4</name>
                                    <rate>
                                        <timebase>30</timebase>
                                        <ntsc>TRUE</ntsc>
                                    </rate>
                                    <duration>54922</duration>
                                    <timecode>
                                        <rate>
                                            <timebase>30</timebase>
                                            <ntsc>TRUE</ntsc>
                                        </rate>
                                        <string>00:00:00:00</string>
                                        <frame>0</frame>
                                        <displayformat>NDF</displayformat>
                                        <media>
                                            <video/>
                                            <audio/>
                                        </media>
                                    </timecode>
                                </file>
                                <name>/home/davidk/code/python/JC-render/JC-examples/yoga.mp4</name>
                                <rate>
                                    <timebase>30</timebase>
                                    <ntsc>TRUE</ntsc>
                                </rate>
                                <start>3924</start>
                                <end>3958</end>
                            </clipitem>
                            <clipitem frameBlend="FALSE" id="clipitem-85">
                                <media>
                                    <video>
                                        <samplecharacteristics>
                                            <height>720</height>
                                            <width>1270</width>
                                        </samplecharacteristics>
                                    </video>
                                </media>
                                <file id="file-1">
                                    <pathurl>/home/davidk/code/python/JC-render/JC-examples/yoga.mp4</pathurl>
                                    <name>yoga.mp4</name>
                                    <rate>
                                        <timebase>30</timebase>
                                        <ntsc>TRUE</ntsc>
                                    </rate>
                                    <duration>54922</duration>
                                    <timecode>
                                        <rate>
                                            <timebase>30</timebase>
                                            <ntsc>TRUE</ntsc>
                                        </rate>
                                        <string>00:00:00:00</string>
                                        <frame>0</frame>
                                        <displayformat>NDF</displayformat>
                                        <media>
                                            <video/>
                                            <audio/>
                                        </media>
                                    </timecode>
                                </file>
                                <name>/home/davidk/code/python/JC-render/JC-examples/yoga.mp4</name>
                                <rate>
                                    <timebase>30</timebase>
                                    <ntsc>TRUE</ntsc>
                                </rate>
                                <start>3958</start>
                                <end>4029</end>
                            </clipitem>
                            <clipitem frameBlend="FALSE" id="clipitem-86">
                                <media>
                                    <video>
                                        <samplecharacteristics>
                                            <height>720</height>
                                            <width>1270</width>
                                        </samplecharacteristics>
                                    </video>
                                </media>
                                <file id="file-1">
                                    <pathurl>/home/davidk/code/python/JC-render/JC-examples/yoga.mp4</pathurl>
                                    <name>yoga.mp4</name>
                                    <rate>
                                        <timebase>30</timebase>
                                        <ntsc>TRUE</ntsc>
                                    </rate>
                                    <duration>54922</duration>
                                    <timecode>
                                        <rate>
                                            <timebase>30</timebase>
                                            <ntsc>TRUE</ntsc>
                                        </rate>
                                        <string>00:00:00:00</string>
                                        <frame>0</frame>
                                        <displayformat>NDF</displayformat>
                                        <media>
                                            <video/>
                                            <audio/>
                                        </media>
                                    </timecode>
                                </file>
                                <name>/home/davidk/code/python/JC-render/JC-examples/yoga.mp4</name>
                                <rate>
                                    <timebase>30</timebase>
                                    <ntsc>TRUE</ntsc>
                                </rate>
                                <start>4029</start>
                                <end>4045</end>
                            </clipitem>
                            <clipitem frameBlend="FALSE" id="clipitem-87">
                                <media>
                                    <video>
                                        <samplecharacteristics>
                                            <height>720</height>
                                            <width>1270</width>
                                        </samplecharacteristics>
                                    </video>
                                </media>
                                <file id="file-1">
                                    <pathurl>/home/davidk/code/python/JC-render/JC-examples/yoga.mp4</pathurl>
                                    <name>yoga.mp4</name>
                                    <rate>
                                        <timebase>30</timebase>
                                        <ntsc>TRUE</ntsc>
                                    </rate>
                                    <duration>54922</duration>
                                    <timecode>
                                        <rate>
                                            <timebase>30</timebase>
                                            <ntsc>TRUE</ntsc>
                                        </rate>
                                        <string>00:00:00:00</string>
                                        <frame>0</frame>
                                        <displayformat>NDF</displayformat>
                                        <media>
                                            <video/>
                                            <audio/>
                                        </media>
                                    </timecode>
                                </file>
                                <name>/home/davidk/code/python/JC-render/JC-examples/yoga.mp4</name>
                                <rate>
                                    <timebase>30</timebase>
                                    <ntsc>TRUE</ntsc>
                                </rate>
                                <start>4045</start>
                                <end>4099</end>
                            </clipitem>
                            <clipitem frameBlend="FALSE" id="clipitem-88">
                                <media>
                                    <video>
                                        <samplecharacteristics>
                                            <height>720</height>
                                            <width>1270</width>
                                        </samplecharacteristics>
                                    </video>
                                </media>
                                <file id="file-1">
                                    <pathurl>/home/davidk/code/python/JC-render/JC-examples/yoga.mp4</pathurl>
                                    <name>yoga.mp4</name>
                                    <rate>
                                        <timebase>30</timebase>
                                        <ntsc>TRUE</ntsc>
                                    </rate>
                                    <duration>54922</duration>
                                    <timecode>
                                        <rate>
                                            <timebase>30</timebase>
                                            <ntsc>TRUE</ntsc>
                                        </rate>
                                        <string>00:00:00:00</string>
                                        <frame>0</frame>
                                        <displayformat>NDF</displayformat>
                                        <media>
                                            <video/>
                                            <audio/>
                                        </media>
                                    </timecode>
                                </file>
                                <name>/home/davidk/code/python/JC-render/JC-examples/yoga.mp4</name>
                                <rate>
                                    <timebase>30</timebase>
                                    <ntsc>TRUE</ntsc>
                                </rate>
                                <start>4099</start>
                                <end>4146</end>
                            </clipitem>
                            <clipitem frameBlend="FALSE" id="clipitem-89">
                                <media>
                                    <video>
                                        <samplecharacteristics>
                                            <height>720</height>
                                            <width>1270</width>
                                        </samplecharacteristics>
                                    </video>
                                </media>
                                <file id="file-1">
                                    <pathurl>/home/davidk/code/python/JC-render/JC-examples/yoga.mp4</pathurl>
                                    <name>yoga.mp4</name>
                                    <rate>
                                        <timebase>30</timebase>
                                        <ntsc>TRUE</ntsc>
                                    </rate>
                                    <duration>54922</duration>
                                    <timecode>
                                        <rate>
                                            <timebase>30</timebase>
                                            <ntsc>TRUE</ntsc>
                                        </rate>
                                        <string>00:00:00:00</string>
                                        <frame>0</frame>
                                        <displayformat>NDF</displayformat>
                                        <media>
                                            <video/>
                                            <audio/>
                                        </media>
                                    </timecode>
                                </file>
                                <name>/home/davidk/code/python/JC-render/JC-examples/yoga.mp4</name>
                                <rate>
                                    <timebase>30</timebase>
                                    <ntsc>TRUE</ntsc>
                                </rate>
                                <start>4146</start>
                                <end>4227</end>
                            </clipitem>
                            <clipitem frameBlend="FALSE" id="clipitem-90">
                                <media>
                                    <video>
                                        <samplecharacteristics>
                                            <height>720</height>
                                            <width>1270</width>
                                        </samplecharacteristics>
                                    </video>
                                </media>
                                <file id="file-1">
                                    <pathurl>/home/davidk/code/python/JC-render/JC-examples/yoga.mp4</pathurl>
                                    <name>yoga.mp4</name>
                                    <rate>
                                        <timebase>30</timebase>
                                        <ntsc>TRUE</ntsc>
                                    </rate>
                                    <duration>54922</duration>
                                    <timecode>
                                        <rate>
                                            <timebase>30</timebase>
                                            <ntsc>TRUE</ntsc>
                                        </rate>
                                        <string>00:00:00:00</string>
                                        <frame>0</frame>
                                        <displayformat>NDF</displayformat>
                                        <media>
                                            <video/>
                                            <audio/>
                                        </media>
                                    </timecode>
                                </file>
                                <name>/home/davidk/code/python/JC-render/JC-examples/yoga.mp4</name>
                                <rate>
                                    <timebase>30</timebase>
                                    <ntsc>TRUE</ntsc>
                                </rate>
                                <start>4227</start>
                                <end>4320</end>
                            </clipitem>
                            <clipitem frameBlend="FALSE" id="clipitem-91">
                                <media>
                                    <video>
                                        <samplecharacteristics>
                                            <height>720</height>
                                            <width>1270</width>
                                        </samplecharacteristics>
                                    </video>
                                </media>
                                <file id="file-1">
                                    <pathurl>/home/davidk/code/python/JC-render/JC-examples/yoga.mp4</pathurl>
                                    <name>yoga.mp4</name>
                                    <rate>
                                        <timebase>30</timebase>
                                        <ntsc>TRUE</ntsc>
                                    </rate>
                                    <duration>54922</duration>
                                    <timecode>
                                        <rate>
                                            <timebase>30</timebase>
                                            <ntsc>TRUE</ntsc>
                                        </rate>
                                        <string>00:00:00:00</string>
                                        <frame>0</frame>
                                        <displayformat>NDF</displayformat>
                                        <media>
                                            <video/>
                                            <audio/>
                                        </media>
                                    </timecode>
                                </file>
                                <name>/home/davidk/code/python/JC-render/JC-examples/yoga.mp4</name>
                                <rate>
                                    <timebase>30</timebase>
                                    <ntsc>TRUE</ntsc>
                                </rate>
                                <start>4320</start>
                                <end>4426</end>
                            </clipitem>
                            <clipitem frameBlend="FALSE" id="clipitem-92">
                                <media>
                                    <video>
                                        <samplecharacteristics>
                                            <height>720</height>
                                            <width>1270</width>
                                        </samplecharacteristics>
                                    </video>
                                </media>
                                <file id="file-1">
                                    <pathurl>/home/davidk/code/python/JC-render/JC-examples/yoga.mp4</pathurl>
                                    <name>yoga.mp4</name>
                                    <rate>
                                        <timebase>30</timebase>
                                        <ntsc>TRUE</ntsc>
                                    </rate>
                                    <duration>54922</duration>
                                    <timecode>
                                        <rate>
                                            <timebase>30</timebase>
                                            <ntsc>TRUE</ntsc>
                                        </rate>
                                        <string>00:00:00:00</string>
                                        <frame>0</frame>
                                        <displayformat>NDF</displayformat>
                                        <media>
                                            <video/>
                                            <audio/>
                                        </media>
                                    </timecode>
                                </file>
                                <name>/home/davidk/code/python/JC-render/JC-examples/yoga.mp4</name>
                                <rate>
                                    <timebase>30</timebase>
                                    <ntsc>TRUE</ntsc>
                                </rate>
                                <start>4426</start>
                                <end>4442</end>
                            </clipitem>
                            <clipitem frameBlend="FALSE" id="clipitem-93">
                                <media>
                                    <video>
                                        <samplecharacteristics>
                                            <height>720</height>
                                            <width>1270</width>
                                        </samplecharacteristics>
                                    </video>
                                </media>
                                <file id="file-1">
                                    <pathurl>/home/davidk/code/python/JC-render/JC-examples/yoga.mp4</pathurl>
                                    <name>yoga.mp4</name>
                                    <rate>
                                        <timebase>30</timebase>
                                        <ntsc>TRUE</ntsc>
                                    </rate>
                                    <duration>54922</duration>
                                    <timecode>
                                        <rate>
                                            <timebase>30</timebase>
                                            <ntsc>TRUE</ntsc>
                                        </rate>
                                        <string>00:00:00:00</string>
                                        <frame>0</frame>
                                        <displayformat>NDF</displayformat>
                                        <media>
                                            <video/>
                                            <audio/>
                                        </media>
                                    </timecode>
                                </file>
                                <name>/home/davidk/code/python/JC-render/JC-examples/yoga.mp4</name>
                                <rate>
                                    <timebase>30</timebase>
                                    <ntsc>TRUE</ntsc>
                                </rate>
                                <start>4442</start>
                                <end>4489</end>
                            </clipitem>
                            <clipitem frameBlend="FALSE" id="clipitem-94">
                                <media>
                                    <video>
                                        <samplecharacteristics>
                                            <height>720</height>
                                            <width>1270</width>
                                        </samplecharacteristics>
                                    </video>
                                </media>
                                <file id="file-1">
                                    <pathurl>/home/davidk/code/python/JC-render/JC-examples/yoga.mp4</pathurl>
                                    <name>yoga.mp4</name>
                                    <rate>
                                        <timebase>30</timebase>
                                        <ntsc>TRUE</ntsc>
                                    </rate>
                                    <duration>54922</duration>
                                    <timecode>
                                        <rate>
                                            <timebase>30</timebase>
                                            <ntsc>TRUE</ntsc>
                                        </rate>
                                        <string>00:00:00:00</string>
                                        <frame>0</frame>
                                        <displayformat>NDF</displayformat>
                                        <media>
                                            <video/>
                                            <audio/>
                                        </media>
                                    </timecode>
                                </file>
                                <name>/home/davidk/code/python/JC-render/JC-examples/yoga.mp4</name>
                                <rate>
                                    <timebase>30</timebase>
                                    <ntsc>TRUE</ntsc>
                                </rate>
                                <start>4489</start>
                                <end>4491</end>
                            </clipitem>
                            <clipitem frameBlend="FALSE" id="clipitem-95">
                                <media>
                                    <video>
                                        <samplecharacteristics>
                                            <height>720</height>
                                            <width>1270</width>
                                        </samplecharacteristics>
                                    </video>
                                </media>
                                <file id="file-1">
                                    <pathurl>/home/davidk/code/python/JC-render/JC-examples/yoga.mp4</pathurl>
                                    <name>yoga.mp4</name>
                                    <rate>
                                        <timebase>30</timebase>
                                        <ntsc>TRUE</ntsc>
                                    </rate>
                                    <duration>54922</duration>
                                    <timecode>
                                        <rate>
                                            <timebase>30</timebase>
                                            <ntsc>TRUE</ntsc>
                                        </rate>
                                        <string>00:00:00:00</string>
                                        <frame>0</frame>
                                        <displayformat>NDF</displayformat>
                                        <media>
                                            <video/>
                                            <audio/>
                                        </media>
                                    </timecode>
                                </file>
                                <name>/home/davidk/code/python/JC-render/JC-examples/yoga.mp4</name>
                                <rate>
                                    <timebase>30</timebase>
                                    <ntsc>TRUE</ntsc>
                                </rate>
                                <start>4491</start>
                                <end>4530</end>
                            </clipitem>
                            <clipitem frameBlend="FALSE" id="clipitem-96">
                                <media>
                                    <video>
                                        <samplecharacteristics>
                                            <height>720</height>
                                            <width>1270</width>
                                        </samplecharacteristics>
                                    </video>
                                </media>
                                <file id="file-1">
                                    <pathurl>/home/davidk/code/python/JC-render/JC-examples/yoga.mp4</pathurl>
                                    <name>yoga.mp4</name>
                                    <rate>
                                        <timebase>30</timebase>
                                        <ntsc>TRUE</ntsc>
                                    </rate>
                                    <duration>54922</duration>
                                    <timecode>
                                        <rate>
                                            <timebase>30</timebase>
                                            <ntsc>TRUE</ntsc>
                                        </rate>
                                        <string>00:00:00:00</string>
                                        <frame>0</frame>
                                        <displayformat>NDF</displayformat>
                                        <media>
                                            <video/>
                                            <audio/>
                                        </media>
                                    </timecode>
                                </file>
                                <name>/home/davidk/code/python/JC-render/JC-examples/yoga.mp4</name>
                                <rate>
                                    <timebase>30</timebase>
                                    <ntsc>TRUE</ntsc>
                                </rate>
                                <start>4530</start>
                                <end>4539</end>
                            </clipitem>
                            <clipitem frameBlend="FALSE" id="clipitem-97">
                                <media>
                                    <video>
                                        <samplecharacteristics>
                                            <height>720</height>
                                            <width>1270</width>
                                        </samplecharacteristics>
                                    </video>
                                </media>
                                <file id="file-1">
                                    <pathurl>/home/davidk/code/python/JC-render/JC-examples/yoga.mp4</pathurl>
                                    <name>yoga.mp4</name>
                                    <rate>
                                        <timebase>30</timebase>
                                        <ntsc>TRUE</ntsc>
                                    </rate>
                                    <duration>54922</duration>
                                    <timecode>
                                        <rate>
                                            <timebase>30</timebase>
                                            <ntsc>TRUE</ntsc>
                                        </rate>
                                        <string>00:00:00:00</string>
                                        <frame>0</frame>
                                        <displayformat>NDF</displayformat>
                                        <media>
                                            <video/>
                                            <audio/>
                                        </media>
                                    </timecode>
                                </file>
                                <name>/home/davidk/code/python/JC-render/JC-examples/yoga.mp4</name>
                                <rate>
                                    <timebase>30</timebase>
                                    <ntsc>TRUE</ntsc>
                                </rate>
                                <start>4539</start>
                                <end>4579</end>
                            </clipitem>
                            <clipitem frameBlend="FALSE" id="clipitem-98">
                                <media>
                                    <video>
                                        <samplecharacteristics>
                                            <height>720</height>
                                            <width>1270</width>
                                        </samplecharacteristics>
                                    </video>
                                </media>
                                <file id="file-1">
                                    <pathurl>/home/davidk/code/python/JC-render/JC-examples/yoga.mp4</pathurl>
                                    <name>yoga.mp4</name>
                                    <rate>
                                        <timebase>30</timebase>
                                        <ntsc>TRUE</ntsc>
                                    </rate>
                                    <duration>54922</duration>
                                    <timecode>
                                        <rate>
                                            <timebase>30</timebase>
                                            <ntsc>TRUE</ntsc>
                                        </rate>
                                        <string>00:00:00:00</string>
                                        <frame>0</frame>
                                        <displayformat>NDF</displayformat>
                                        <media>
                                            <video/>
                                            <audio/>
                                        </media>
                                    </timecode>
                                </file>
                                <name>/home/davidk/code/python/JC-render/JC-examples/yoga.mp4</name>
                                <rate>
                                    <timebase>30</timebase>
                                    <ntsc>TRUE</ntsc>
                                </rate>
                                <start>4579</start>
                                <end>4693</end>
                            </clipitem>
                            <clipitem frameBlend="FALSE" id="clipitem-99">
                                <media>
                                    <video>
                                        <samplecharacteristics>
                                            <height>720</height>
                                            <width>1270</width>
                                        </samplecharacteristics>
                                    </video>
                                </media>
                                <file id="file-1">
                                    <pathurl>/home/davidk/code/python/JC-render/JC-examples/yoga.mp4</pathurl>
                                    <name>yoga.mp4</name>
                                    <rate>
                                        <timebase>30</timebase>
                                        <ntsc>TRUE</ntsc>
                                    </rate>
                                    <duration>54922</duration>
                                    <timecode>
                                        <rate>
                                            <timebase>30</timebase>
                                            <ntsc>TRUE</ntsc>
                                        </rate>
                                        <string>00:00:00:00</string>
                                        <frame>0</frame>
                                        <displayformat>NDF</displayformat>
                                        <media>
                                            <video/>
                                            <audio/>
                                        </media>
                                    </timecode>
                                </file>
                                <name>/home/davidk/code/python/JC-render/JC-examples/yoga.mp4</name>
                                <rate>
                                    <timebase>30</timebase>
                                    <ntsc>TRUE</ntsc>
                                </rate>
                                <start>4693</start>
                                <end>4788</end>
                            </clipitem>
                            <clipitem frameBlend="FALSE" id="clipitem-100">
                                <media>
                                    <video>
                                        <samplecharacteristics>
                                            <height>720</height>
                                            <width>1270</width>
                                        </samplecharacteristics>
                                    </video>
                                </media>
                                <file id="file-1">
                                    <pathurl>/home/davidk/code/python/JC-render/JC-examples/yoga.mp4</pathurl>
                                    <name>yoga.mp4</name>
                                    <rate>
                                        <timebase>30</timebase>
                                        <ntsc>TRUE</ntsc>
                                    </rate>
                                    <duration>54922</duration>
                                    <timecode>
                                        <rate>
                                            <timebase>30</timebase>
                                            <ntsc>TRUE</ntsc>
                                        </rate>
                                        <string>00:00:00:00</string>
                                        <frame>0</frame>
                                        <displayformat>NDF</displayformat>
                                        <media>
                                            <video/>
                                            <audio/>
                                        </media>
                                    </timecode>
                                </file>
                                <name>/home/davidk/code/python/JC-render/JC-examples/yoga.mp4</name>
                                <rate>
                                    <timebase>30</timebase>
                                    <ntsc>TRUE</ntsc>
                                </rate>
                                <start>4788</start>
                                <end>4863</end>
                            </clipitem>
                            <clipitem frameBlend="FALSE" id="clipitem-101">
                                <media>
                                    <video>
                                        <samplecharacteristics>
                                            <height>720</height>
                                            <width>1270</width>
                                        </samplecharacteristics>
                                    </video>
                                </media>
                                <file id="file-1">
                                    <pathurl>/home/davidk/code/python/JC-render/JC-examples/yoga.mp4</pathurl>
                                    <name>yoga.mp4</name>
                                    <rate>
                                        <timebase>30</timebase>
                                        <ntsc>TRUE</ntsc>
                                    </rate>
                                    <duration>54922</duration>
                                    <timecode>
                                        <rate>
                                            <timebase>30</timebase>
                                            <ntsc>TRUE</ntsc>
                                        </rate>
                                        <string>00:00:00:00</string>
                                        <frame>0</frame>
                                        <displayformat>NDF</displayformat>
                                        <media>
                                            <video/>
                                            <audio/>
                                        </media>
                                    </timecode>
                                </file>
                                <name>/home/davidk/code/python/JC-render/JC-examples/yoga.mp4</name>
                                <rate>
                                    <timebase>30</timebase>
                                    <ntsc>TRUE</ntsc>
                                </rate>
                                <start>4863</start>
                                <end>4927</end>
                            </clipitem>
                            <clipitem frameBlend="FALSE" id="clipitem-102">
                                <media>
                                    <video>
                                        <samplecharacteristics>
                                            <height>720</height>
                                            <width>1270</width>
                                        </samplecharacteristics>
                                    </video>
                                </media>
                                <file id="file-1">
                                    <pathurl>/home/davidk/code/python/JC-render/JC-examples/yoga.mp4</pathurl>
                                    <name>yoga.mp4</name>
                                    <rate>
                                        <timebase>30</timebase>
                                        <ntsc>TRUE</ntsc>
                                    </rate>
                                    <duration>54922</duration>
                                    <timecode>
                                        <rate>
                                            <timebase>30</timebase>
                                            <ntsc>TRUE</ntsc>
                                        </rate>
                                        <string>00:00:00:00</string>
                                        <frame>0</frame>
                                        <displayformat>NDF</displayformat>
                                        <media>
                                            <video/>
                                            <audio/>
                                        </media>
                                    </timecode>
                                </file>
                                <name>/home/davidk/code/python/JC-render/JC-examples/yoga.mp4</name>
                                <rate>
                                    <timebase>30</timebase>
                                    <ntsc>TRUE</ntsc>
                                </rate>
                                <start>4927</start>
                                <end>4933</end>
                            </clipitem>
                            <clipitem frameBlend="FALSE" id="clipitem-103">
                                <media>
                                    <video>
                                        <samplecharacteristics>
                                            <height>720</height>
                                            <width>1270</width>
                                        </samplecharacteristics>
                                    </video>
                                </media>
                                <file id="file-1">
                                    <pathurl>/home/davidk/code/python/JC-render/JC-examples/yoga.mp4</pathurl>
                                    <name>yoga.mp4</name>
                                    <rate>
                                        <timebase>30</timebase>
                                        <ntsc>TRUE</ntsc>
                                    </rate>
                                    <duration>54922</duration>
                                    <timecode>
                                        <rate>
                                            <timebase>30</timebase>
                                            <ntsc>TRUE</ntsc>
                                        </rate>
                                        <string>00:00:00:00</string>
                                        <frame>0</frame>
                                        <displayformat>NDF</displayformat>
                                        <media>
                                            <video/>
                                            <audio/>
                                        </media>
                                    </timecode>
                                </file>
                                <name>/home/davidk/code/python/JC-render/JC-examples/yoga.mp4</name>
                                <rate>
                                    <timebase>30</timebase>
                                    <ntsc>TRUE</ntsc>
                                </rate>
                                <start>4933</start>
                                <end>4966</end>
                            </clipitem>
                            <clipitem frameBlend="FALSE" id="clipitem-104">
                                <media>
                                    <video>
                                        <samplecharacteristics>
                                            <height>720</height>
                                            <width>1270</width>
                                        </samplecharacteristics>
                                    </video>
                                </media>
                                <file id="file-1">
                                    <pathurl>/home/davidk/code/python/JC-render/JC-examples/yoga.mp4</pathurl>
                                    <name>yoga.mp4</name>
                                    <rate>
                                        <timebase>30</timebase>
                                        <ntsc>TRUE</ntsc>
                                    </rate>
                                    <duration>54922</duration>
                                    <timecode>
                                        <rate>
                                            <timebase>30</timebase>
                                            <ntsc>TRUE</ntsc>
                                        </rate>
                                        <string>00:00:00:00</string>
                                        <frame>0</frame>
                                        <displayformat>NDF</displayformat>
                                        <media>
                                            <video/>
                                            <audio/>
                                        </media>
                                    </timecode>
                                </file>
                                <name>/home/davidk/code/python/JC-render/JC-examples/yoga.mp4</name>
                                <rate>
                                    <timebase>30</timebase>
                                    <ntsc>TRUE</ntsc>
                                </rate>
                                <start>4966</start>
                                <end>4996</end>
                            </clipitem>
                            <clipitem frameBlend="FALSE" id="clipitem-105">
                                <media>
                                    <video>
                                        <samplecharacteristics>
                                            <height>720</height>
                                            <width>1270</width>
                                        </samplecharacteristics>
                                    </video>
                                </media>
                                <file id="file-1">
                                    <pathurl>/home/davidk/code/python/JC-render/JC-examples/yoga.mp4</pathurl>
                                    <name>yoga.mp4</name>
                                    <rate>
                                        <timebase>30</timebase>
                                        <ntsc>TRUE</ntsc>
                                    </rate>
                                    <duration>54922</duration>
                                    <timecode>
                                        <rate>
                                            <timebase>30</timebase>
                                            <ntsc>TRUE</ntsc>
                                        </rate>
                                        <string>00:00:00:00</string>
                                        <frame>0</frame>
                                        <displayformat>NDF</displayformat>
                                        <media>
                                            <video/>
                                            <audio/>
                                        </media>
                                    </timecode>
                                </file>
                                <name>/home/davidk/code/python/JC-render/JC-examples/yoga.mp4</name>
                                <rate>
                                    <timebase>30</timebase>
                                    <ntsc>TRUE</ntsc>
                                </rate>
                                <start>4996</start>
                                <end>5056</end>
                            </clipitem>
                            <clipitem frameBlend="FALSE" id="clipitem-106">
                                <media>
                                    <video>
                                        <samplecharacteristics>
                                            <height>720</height>
                                            <width>1270</width>
                                        </samplecharacteristics>
                                    </video>
                                </media>
                                <file id="file-1">
                                    <pathurl>/home/davidk/code/python/JC-render/JC-examples/yoga.mp4</pathurl>
                                    <name>yoga.mp4</name>
                                    <rate>
                                        <timebase>30</timebase>
                                        <ntsc>TRUE</ntsc>
                                    </rate>
                                    <duration>54922</duration>
                                    <timecode>
                                        <rate>
                                            <timebase>30</timebase>
                                            <ntsc>TRUE</ntsc>
                                        </rate>
                                        <string>00:00:00:00</string>
                                        <frame>0</frame>
                                        <displayformat>NDF</displayformat>
                                        <media>
                                            <video/>
                                            <audio/>
                                        </media>
                                    </timecode>
                                </file>
                                <name>/home/davidk/code/python/JC-render/JC-examples/yoga.mp4</name>
                                <rate>
                                    <timebase>30</timebase>
                                    <ntsc>TRUE</ntsc>
                                </rate>
                                <start>5056</start>
                                <end>5149</end>
                            </clipitem>
                            <clipitem frameBlend="FALSE" id="clipitem-107">
                                <media>
                                    <video>
                                        <samplecharacteristics>
                                            <height>720</height>
                                            <width>1270</width>
                                        </samplecharacteristics>
                                    </video>
                                </media>
                                <file id="file-1">
                                    <pathurl>/home/davidk/code/python/JC-render/JC-examples/yoga.mp4</pathurl>
                                    <name>yoga.mp4</name>
                                    <rate>
                                        <timebase>30</timebase>
                                        <ntsc>TRUE</ntsc>
                                    </rate>
                                    <duration>54922</duration>
                                    <timecode>
                                        <rate>
                                            <timebase>30</timebase>
                                            <ntsc>TRUE</ntsc>
                                        </rate>
                                        <string>00:00:00:00</string>
                                        <frame>0</frame>
                                        <displayformat>NDF</displayformat>
                                        <media>
                                            <video/>
                                            <audio/>
                                        </media>
                                    </timecode>
                                </file>
                                <name>/home/davidk/code/python/JC-render/JC-examples/yoga.mp4</name>
                                <rate>
                                    <timebase>30</timebase>
                                    <ntsc>TRUE</ntsc>
                                </rate>
                                <start>5149</start>
                                <end>5185</end>
                            </clipitem>
                            <clipitem frameBlend="FALSE" id="clipitem-108">
                                <media>
                                    <video>
                                        <samplecharacteristics>
                                            <height>720</height>
                                            <width>1270</width>
                                        </samplecharacteristics>
                                    </video>
                                </media>
                                <file id="file-1">
                                    <pathurl>/home/davidk/code/python/JC-render/JC-examples/yoga.mp4</pathurl>
                                    <name>yoga.mp4</name>
                                    <rate>
                                        <timebase>30</timebase>
                                        <ntsc>TRUE</ntsc>
                                    </rate>
                                    <duration>54922</duration>
                                    <timecode>
                                        <rate>
                                            <timebase>30</timebase>
                                            <ntsc>TRUE</ntsc>
                                        </rate>
                                        <string>00:00:00:00</string>
                                        <frame>0</frame>
                                        <displayformat>NDF</displayformat>
                                        <media>
                                            <video/>
                                            <audio/>
                                        </media>
                                    </timecode>
                                </file>
                                <name>/home/davidk/code/python/JC-render/JC-examples/yoga.mp4</name>
                                <rate>
                                    <timebase>30</timebase>
                                    <ntsc>TRUE</ntsc>
                                </rate>
                                <start>5185</start>
                                <end>5215</end>
                            </clipitem>
                            <clipitem frameBlend="FALSE" id="clipitem-109">
                                <media>
                                    <video>
                                        <samplecharacteristics>
                                            <height>720</height>
                                            <width>1270</width>
                                        </samplecharacteristics>
                                    </video>
                                </media>
                                <file id="file-1">
                                    <pathurl>/home/davidk/code/python/JC-render/JC-examples/yoga.mp4</pathurl>
                                    <name>yoga.mp4</name>
                                    <rate>
                                        <timebase>30</timebase>
                                        <ntsc>TRUE</ntsc>
                                    </rate>
                                    <duration>54922</duration>
                                    <timecode>
                                        <rate>
                                            <timebase>30</timebase>
                                            <ntsc>TRUE</ntsc>
                                        </rate>
                                        <string>00:00:00:00</string>
                                        <frame>0</frame>
                                        <displayformat>NDF</displayformat>
                                        <media>
                                            <video/>
                                            <audio/>
                                        </media>
                                    </timecode>
                                </file>
                                <name>/home/davidk/code/python/JC-render/JC-examples/yoga.mp4</name>
                                <rate>
                                    <timebase>30</timebase>
                                    <ntsc>TRUE</ntsc>
                                </rate>
                                <start>5215</start>
                                <end>5262</end>
                            </clipitem>
                            <clipitem frameBlend="FALSE" id="clipitem-110">
                                <media>
                                    <video>
                                        <samplecharacteristics>
                                            <height>720</height>
                                            <width>1270</width>
                                        </samplecharacteristics>
                                    </video>
                                </media>
                                <file id="file-1">
                                    <pathurl>/home/davidk/code/python/JC-render/JC-examples/yoga.mp4</pathurl>
                                    <name>yoga.mp4</name>
                                    <rate>
                                        <timebase>30</timebase>
                                        <ntsc>TRUE</ntsc>
                                    </rate>
                                    <duration>54922</duration>
                                    <timecode>
                                        <rate>
                                            <timebase>30</timebase>
                                            <ntsc>TRUE</ntsc>
                                        </rate>
                                        <string>00:00:00:00</string>
                                        <frame>0</frame>
                                        <displayformat>NDF</displayformat>
                                        <media>
                                            <video/>
                                            <audio/>
                                        </media>
                                    </timecode>
                                </file>
                                <name>/home/davidk/code/python/JC-render/JC-examples/yoga.mp4</name>
                                <rate>
                                    <timebase>30</timebase>
                                    <ntsc>TRUE</ntsc>
                                </rate>
                                <start>5262</start>
                                <end>5264</end>
                            </clipitem>
                            <clipitem frameBlend="FALSE" id="clipitem-111">
                                <media>
                                    <video>
                                        <samplecharacteristics>
                                            <height>720</height>
                                            <width>1270</width>
                                        </samplecharacteristics>
                                    </video>
                                </media>
                                <file id="file-1">
                                    <pathurl>/home/davidk/code/python/JC-render/JC-examples/yoga.mp4</pathurl>
                                    <name>yoga.mp4</name>
                                    <rate>
                                        <timebase>30</timebase>
                                        <ntsc>TRUE</ntsc>
                                    </rate>
                                    <duration>54922</duration>
                                    <timecode>
                                        <rate>
                                            <timebase>30</timebase>
                                            <ntsc>TRUE</ntsc>
                                        </rate>
                                        <string>00:00:00:00</string>
                                        <frame>0</frame>
                                        <displayformat>NDF</displayformat>
                                        <media>
                                            <video/>
                                            <audio/>
                                        </media>
                                    </timecode>
                                </file>
                                <name>/home/davidk/code/python/JC-render/JC-examples/yoga.mp4</name>
                                <rate>
                                    <timebase>30</timebase>
                                    <ntsc>TRUE</ntsc>
                                </rate>
                                <start>5264</start>
                                <end>5311</end>
                            </clipitem>
                            <clipitem frameBlend="FALSE" id="clipitem-112">
                                <media>
                                    <video>
                                        <samplecharacteristics>
                                            <height>720</height>
                                            <width>1270</width>
                                        </samplecharacteristics>
                                    </video>
                                </media>
                                <file id="file-1">
                                    <pathurl>/home/davidk/code/python/JC-render/JC-examples/yoga.mp4</pathurl>
                                    <name>yoga.mp4</name>
                                    <rate>
                                        <timebase>30</timebase>
                                        <ntsc>TRUE</ntsc>
                                    </rate>
                                    <duration>54922</duration>
                                    <timecode>
                                        <rate>
                                            <timebase>30</timebase>
                                            <ntsc>TRUE</ntsc>
                                        </rate>
                                        <string>00:00:00:00</string>
                                        <frame>0</frame>
                                        <displayformat>NDF</displayformat>
                                        <media>
                                            <video/>
                                            <audio/>
                                        </media>
                                    </timecode>
                                </file>
                                <name>/home/davidk/code/python/JC-render/JC-examples/yoga.mp4</name>
                                <rate>
                                    <timebase>30</timebase>
                                    <ntsc>TRUE</ntsc>
                                </rate>
                                <start>5311</start>
                                <end>5326</end>
                            </clipitem>
                            <clipitem frameBlend="FALSE" id="clipitem-113">
                                <media>
                                    <video>
                                        <samplecharacteristics>
                                            <height>720</height>
                                            <width>1270</width>
                                        </samplecharacteristics>
                                    </video>
                                </media>
                                <file id="file-1">
                                    <pathurl>/home/davidk/code/python/JC-render/JC-examples/yoga.mp4</pathurl>
                                    <name>yoga.mp4</name>
                                    <rate>
                                        <timebase>30</timebase>
                                        <ntsc>TRUE</ntsc>
                                    </rate>
                                    <duration>54922</duration>
                                    <timecode>
                                        <rate>
                                            <timebase>30</timebase>
                                            <ntsc>TRUE</ntsc>
                                        </rate>
                                        <string>00:00:00:00</string>
                                        <frame>0</frame>
                                        <displayformat>NDF</displayformat>
                                        <media>
                                            <video/>
                                            <audio/>
                                        </media>
                                    </timecode>
                                </file>
                                <name>/home/davidk/code/python/JC-render/JC-examples/yoga.mp4</name>
                                <rate>
                                    <timebase>30</timebase>
                                    <ntsc>TRUE</ntsc>
                                </rate>
                                <start>5326</start>
                                <end>5356</end>
                            </clipitem>
                            <clipitem frameBlend="FALSE" id="clipitem-114">
                                <media>
                                    <video>
                                        <samplecharacteristics>
                                            <height>720</height>
                                            <width>1270</width>
                                        </samplecharacteristics>
                                    </video>
                                </media>
                                <file id="file-1">
                                    <pathurl>/home/davidk/code/python/JC-render/JC-examples/yoga.mp4</pathurl>
                                    <name>yoga.mp4</name>
                                    <rate>
                                        <timebase>30</timebase>
                                        <ntsc>TRUE</ntsc>
                                    </rate>
                                    <duration>54922</duration>
                                    <timecode>
                                        <rate>
                                            <timebase>30</timebase>
                                            <ntsc>TRUE</ntsc>
                                        </rate>
                                        <string>00:00:00:00</string>
                                        <frame>0</frame>
                                        <displayformat>NDF</displayformat>
                                        <media>
                                            <video/>
                                            <audio/>
                                        </media>
                                    </timecode>
                                </file>
                                <name>/home/davidk/code/python/JC-render/JC-examples/yoga.mp4</name>
                                <rate>
                                    <timebase>30</timebase>
                                    <ntsc>TRUE</ntsc>
                                </rate>
                                <start>5356</start>
                                <end>5372</end>
                            </clipitem>
                            <clipitem frameBlend="FALSE" id="clipitem-115">
                                <media>
                                    <video>
                                        <samplecharacteristics>
                                            <height>720</height>
                                            <width>1270</width>
                                        </samplecharacteristics>
                                    </video>
                                </media>
                                <file id="file-1">
                                    <pathurl>/home/davidk/code/python/JC-render/JC-examples/yoga.mp4</pathurl>
                                    <name>yoga.mp4</name>
                                    <rate>
                                        <timebase>30</timebase>
                                        <ntsc>TRUE</ntsc>
                                    </rate>
                                    <duration>54922</duration>
                                    <timecode>
                                        <rate>
                                            <timebase>30</timebase>
                                            <ntsc>TRUE</ntsc>
                                        </rate>
                                        <string>00:00:00:00</string>
                                        <frame>0</frame>
                                        <displayformat>NDF</displayformat>
                                        <media>
                                            <video/>
                                            <audio/>
                                        </media>
                                    </timecode>
                                </file>
                                <name>/home/davidk/code/python/JC-render/JC-examples/yoga.mp4</name>
                                <rate>
                                    <timebase>30</timebase>
                                    <ntsc>TRUE</ntsc>
                                </rate>
                                <start>5372</start>
                                <end>5401</end>
                            </clipitem>
                            <clipitem frameBlend="FALSE" id="clipitem-116">
                                <media>
                                    <video>
                                        <samplecharacteristics>
                                            <height>720</height>
                                            <width>1270</width>
                                        </samplecharacteristics>
                                    </video>
                                </media>
                                <file id="file-1">
                                    <pathurl>/home/davidk/code/python/JC-render/JC-examples/yoga.mp4</pathurl>
                                    <name>yoga.mp4</name>
                                    <rate>
                                        <timebase>30</timebase>
                                        <ntsc>TRUE</ntsc>
                                    </rate>
                                    <duration>54922</duration>
                                    <timecode>
                                        <rate>
                                            <timebase>30</timebase>
                                            <ntsc>TRUE</ntsc>
                                        </rate>
                                        <string>00:00:00:00</string>
                                        <frame>0</frame>
                                        <displayformat>NDF</displayformat>
                                        <media>
                                            <video/>
                                            <audio/>
                                        </media>
                                    </timecode>
                                </file>
                                <name>/home/davidk/code/python/JC-render/JC-examples/yoga.mp4</name>
                                <rate>
                                    <timebase>30</timebase>
                                    <ntsc>TRUE</ntsc>
                                </rate>
                                <start>5401</start>
                                <end>5414</end>
                            </clipitem>
                            <clipitem frameBlend="FALSE" id="clipitem-117">
                                <media>
                                    <video>
                                        <samplecharacteristics>
                                            <height>720</height>
                                            <width>1270</width>
                                        </samplecharacteristics>
                                    </video>
                                </media>
                                <file id="file-1">
                                    <pathurl>/home/davidk/code/python/JC-render/JC-examples/yoga.mp4</pathurl>
                                    <name>yoga.mp4</name>
                                    <rate>
                                        <timebase>30</timebase>
                                        <ntsc>TRUE</ntsc>
                                    </rate>
                                    <duration>54922</duration>
                                    <timecode>
                                        <rate>
                                            <timebase>30</timebase>
                                            <ntsc>TRUE</ntsc>
                                        </rate>
                                        <string>00:00:00:00</string>
                                        <frame>0</frame>
                                        <displayformat>NDF</displayformat>
                                        <media>
                                            <video/>
                                            <audio/>
                                        </media>
                                    </timecode>
                                </file>
                                <name>/home/davidk/code/python/JC-render/JC-examples/yoga.mp4</name>
                                <rate>
                                    <timebase>30</timebase>
                                    <ntsc>TRUE</ntsc>
                                </rate>
                                <start>5414</start>
                                <end>5551</end>
                            </clipitem>
                            <clipitem frameBlend="FALSE" id="clipitem-118">
                                <media>
                                    <video>
                                        <samplecharacteristics>
                                            <height>720</height>
                                            <width>1270</width>
                                        </samplecharacteristics>
                                    </video>
                                </media>
                                <file id="file-1">
                                    <pathurl>/home/davidk/code/python/JC-render/JC-examples/yoga.mp4</pathurl>
                                    <name>yoga.mp4</name>
                                    <rate>
                                        <timebase>30</timebase>
                                        <ntsc>TRUE</ntsc>
                                    </rate>
                                    <duration>54922</duration>
                                    <timecode>
                                        <rate>
                                            <timebase>30</timebase>
                                            <ntsc>TRUE</ntsc>
                                        </rate>
                                        <string>00:00:00:00</string>
                                        <frame>0</frame>
                                        <displayformat>NDF</displayformat>
                                        <media>
                                            <video/>
                                            <audio/>
                                        </media>
                                    </timecode>
                                </file>
                                <name>/home/davidk/code/python/JC-render/JC-examples/yoga.mp4</name>
                                <rate>
                                    <timebase>30</timebase>
                                    <ntsc>TRUE</ntsc>
                                </rate>
                                <start>5551</start>
                                <end>5563</end>
                            </clipitem>
                            <clipitem frameBlend="FALSE" id="clipitem-119">
                                <media>
                                    <video>
                                        <samplecharacteristics>
                                            <height>720</height>
                                            <width>1270</width>
                                        </samplecharacteristics>
                                    </video>
                                </media>
                                <file id="file-1">
                                    <pathurl>/home/davidk/code/python/JC-render/JC-examples/yoga.mp4</pathurl>
                                    <name>yoga.mp4</name>
                                    <rate>
                                        <timebase>30</timebase>
                                        <ntsc>TRUE</ntsc>
                                    </rate>
                                    <duration>54922</duration>
                                    <timecode>
                                        <rate>
                                            <timebase>30</timebase>
                                            <ntsc>TRUE</ntsc>
                                        </rate>
                                        <string>00:00:00:00</string>
                                        <frame>0</frame>
                                        <displayformat>NDF</displayformat>
                                        <media>
                                            <video/>
                                            <audio/>
                                        </media>
                                    </timecode>
                                </file>
                                <name>/home/davidk/code/python/JC-render/JC-examples/yoga.mp4</name>
                                <rate>
                                    <timebase>30</timebase>
                                    <ntsc>TRUE</ntsc>
                                </rate>
                                <start>5563</start>
                                <end>5641</end>
                            </clipitem>
                            <clipitem frameBlend="FALSE" id="clipitem-120">
                                <media>
                                    <video>
                                        <samplecharacteristics>
                                            <height>720</height>
                                            <width>1270</width>
                                        </samplecharacteristics>
                                    </video>
                                </media>
                                <file id="file-1">
                                    <pathurl>/home/davidk/code/python/JC-render/JC-examples/yoga.mp4</pathurl>
                                    <name>yoga.mp4</name>
                                    <rate>
                                        <timebase>30</timebase>
                                        <ntsc>TRUE</ntsc>
                                    </rate>
                                    <duration>54922</duration>
                                    <timecode>
                                        <rate>
                                            <timebase>30</timebase>
                                            <ntsc>TRUE</ntsc>
                                        </rate>
                                        <string>00:00:00:00</string>
                                        <frame>0</frame>
                                        <displayformat>NDF</displayformat>
                                        <media>
                                            <video/>
                                            <audio/>
                                        </media>
                                    </timecode>
                                </file>
                                <name>/home/davidk/code/python/JC-render/JC-examples/yoga.mp4</name>
                                <rate>
                                    <timebase>30</timebase>
                                    <ntsc>TRUE</ntsc>
                                </rate>
                                <start>5641</start>
                                <end>5657</end>
                            </clipitem>
                            <clipitem frameBlend="FALSE" id="clipitem-121">
                                <media>
                                    <video>
                                        <samplecharacteristics>
                                            <height>720</height>
                                            <width>1270</width>
                                        </samplecharacteristics>
                                    </video>
                                </media>
                                <file id="file-1">
                                    <pathurl>/home/davidk/code/python/JC-render/JC-examples/yoga.mp4</pathurl>
                                    <name>yoga.mp4</name>
                                    <rate>
                                        <timebase>30</timebase>
                                        <ntsc>TRUE</ntsc>
                                    </rate>
                                    <duration>54922</duration>
                                    <timecode>
                                        <rate>
                                            <timebase>30</timebase>
                                            <ntsc>TRUE</ntsc>
                                        </rate>
                                        <string>00:00:00:00</string>
                                        <frame>0</frame>
                                        <displayformat>NDF</displayformat>
                                        <media>
                                            <video/>
                                            <audio/>
                                        </media>
                                    </timecode>
                                </file>
                                <name>/home/davidk/code/python/JC-render/JC-examples/yoga.mp4</name>
                                <rate>
                                    <timebase>30</timebase>
                                    <ntsc>TRUE</ntsc>
                                </rate>
                                <start>5657</start>
                                <end>5812</end>
                            </clipitem>
                            <clipitem frameBlend="FALSE" id="clipitem-122">
                                <media>
                                    <video>
                                        <samplecharacteristics>
                                            <height>720</height>
                                            <width>1270</width>
                                        </samplecharacteristics>
                                    </video>
                                </media>
                                <file id="file-1">
                                    <pathurl>/home/davidk/code/python/JC-render/JC-examples/yoga.mp4</pathurl>
                                    <name>yoga.mp4</name>
                                    <rate>
                                        <timebase>30</timebase>
                                        <ntsc>TRUE</ntsc>
                                    </rate>
                                    <duration>54922</duration>
                                    <timecode>
                                        <rate>
                                            <timebase>30</timebase>
                                            <ntsc>TRUE</ntsc>
                                        </rate>
                                        <string>00:00:00:00</string>
                                        <frame>0</frame>
                                        <displayformat>NDF</displayformat>
                                        <media>
                                            <video/>
                                            <audio/>
                                        </media>
                                    </timecode>
                                </file>
                                <name>/home/davidk/code/python/JC-render/JC-examples/yoga.mp4</name>
                                <rate>
                                    <timebase>30</timebase>
                                    <ntsc>TRUE</ntsc>
                                </rate>
                                <start>5812</start>
                                <end>5821</end>
                            </clipitem>
                            <clipitem frameBlend="FALSE" id="clipitem-123">
                                <media>
                                    <video>
                                        <samplecharacteristics>
                                            <height>720</height>
                                            <width>1270</width>
                                        </samplecharacteristics>
                                    </video>
                                </media>
                                <file id="file-1">
                                    <pathurl>/home/davidk/code/python/JC-render/JC-examples/yoga.mp4</pathurl>
                                    <name>yoga.mp4</name>
                                    <rate>
                                        <timebase>30</timebase>
                                        <ntsc>TRUE</ntsc>
                                    </rate>
                                    <duration>54922</duration>
                                    <timecode>
                                        <rate>
                                            <timebase>30</timebase>
                                            <ntsc>TRUE</ntsc>
                                        </rate>
                                        <string>00:00:00:00</string>
                                        <frame>0</frame>
                                        <displayformat>NDF</displayformat>
                                        <media>
                                            <video/>
                                            <audio/>
                                        </media>
                                    </timecode>
                                </file>
                                <name>/home/davidk/code/python/JC-render/JC-examples/yoga.mp4</name>
                                <rate>
                                    <timebase>30</timebase>
                                    <ntsc>TRUE</ntsc>
                                </rate>
                                <start>5821</start>
                                <end>6011</end>
                            </clipitem>
                            <clipitem frameBlend="FALSE" id="clipitem-124">
                                <media>
                                    <video>
                                        <samplecharacteristics>
                                            <height>720</height>
                                            <width>1270</width>
                                        </samplecharacteristics>
                                    </video>
                                </media>
                                <file id="file-1">
                                    <pathurl>/home/davidk/code/python/JC-render/JC-examples/yoga.mp4</pathurl>
                                    <name>yoga.mp4</name>
                                    <rate>
                                        <timebase>30</timebase>
                                        <ntsc>TRUE</ntsc>
                                    </rate>
                                    <duration>54922</duration>
                                    <timecode>
                                        <rate>
                                            <timebase>30</timebase>
                                            <ntsc>TRUE</ntsc>
                                        </rate>
                                        <string>00:00:00:00</string>
                                        <frame>0</frame>
                                        <displayformat>NDF</displayformat>
                                        <media>
                                            <video/>
                                            <audio/>
                                        </media>
                                    </timecode>
                                </file>
                                <name>/home/davidk/code/python/JC-render/JC-examples/yoga.mp4</name>
                                <rate>
                                    <timebase>30</timebase>
                                    <ntsc>TRUE</ntsc>
                                </rate>
                                <start>6011</start>
                                <end>6016</end>
                            </clipitem>
                            <clipitem frameBlend="FALSE" id="clipitem-125">
                                <media>
                                    <video>
                                        <samplecharacteristics>
                                            <height>720</height>
                                            <width>1270</width>
                                        </samplecharacteristics>
                                    </video>
                                </media>
                                <file id="file-1">
                                    <pathurl>/home/davidk/code/python/JC-render/JC-examples/yoga.mp4</pathurl>
                                    <name>yoga.mp4</name>
                                    <rate>
                                        <timebase>30</timebase>
                                        <ntsc>TRUE</ntsc>
                                    </rate>
                                    <duration>54922</duration>
                                    <timecode>
                                        <rate>
                                            <timebase>30</timebase>
                                            <ntsc>TRUE</ntsc>
                                        </rate>
                                        <string>00:00:00:00</string>
                                        <frame>0</frame>
                                        <displayformat>NDF</displayformat>
                                        <media>
                                            <video/>
                                            <audio/>
                                        </media>
                                    </timecode>
                                </file>
                                <name>/home/davidk/code/python/JC-render/JC-examples/yoga.mp4</name>
                                <rate>
                                    <timebase>30</timebase>
                                    <ntsc>TRUE</ntsc>
                                </rate>
                                <start>6016</start>
                                <end>6046</end>
                            </clipitem>
                            <clipitem frameBlend="FALSE" id="clipitem-126">
                                <media>
                                    <video>
                                        <samplecharacteristics>
                                            <height>720</height>
                                            <width>1270</width>
                                        </samplecharacteristics>
                                    </video>
                                </media>
                                <file id="file-1">
                                    <pathurl>/home/davidk/code/python/JC-render/JC-examples/yoga.mp4</pathurl>
                                    <name>yoga.mp4</name>
                                    <rate>
                                        <timebase>30</timebase>
                                        <ntsc>TRUE</ntsc>
                                    </rate>
                                    <duration>54922</duration>
                                    <timecode>
                                        <rate>
                                            <timebase>30</timebase>
                                            <ntsc>TRUE</ntsc>
                                        </rate>
                                        <string>00:00:00:00</string>
                                        <frame>0</frame>
                                        <displayformat>NDF</displayformat>
                                        <media>
                                            <video/>
                                            <audio/>
                                        </media>
                                    </timecode>
                                </file>
                                <name>/home/davidk/code/python/JC-render/JC-examples/yoga.mp4</name>
                                <rate>
                                    <timebase>30</timebase>
                                    <ntsc>TRUE</ntsc>
                                </rate>
                                <start>6046</start>
                                <end>6061</end>
                            </clipitem>
                            <clipitem frameBlend="FALSE" id="clipitem-127">
                                <media>
                                    <video>
                                        <samplecharacteristics>
                                            <height>720</height>
                                            <width>1270</width>
                                        </samplecharacteristics>
                                    </video>
                                </media>
                                <file id="file-1">
                                    <pathurl>/home/davidk/code/python/JC-render/JC-examples/yoga.mp4</pathurl>
                                    <name>yoga.mp4</name>
                                    <rate>
                                        <timebase>30</timebase>
                                        <ntsc>TRUE</ntsc>
                                    </rate>
                                    <duration>54922</duration>
                                    <timecode>
                                        <rate>
                                            <timebase>30</timebase>
                                            <ntsc>TRUE</ntsc>
                                        </rate>
                                        <string>00:00:00:00</string>
                                        <frame>0</frame>
                                        <displayformat>NDF</displayformat>
                                        <media>
                                            <video/>
                                            <audio/>
                                        </media>
                                    </timecode>
                                </file>
                                <name>/home/davidk/code/python/JC-render/JC-examples/yoga.mp4</name>
                                <rate>
                                    <timebase>30</timebase>
                                    <ntsc>TRUE</ntsc>
                                </rate>
                                <start>6061</start>
                                <end>6181</end>
                            </clipitem>
                            <clipitem frameBlend="FALSE" id="clipitem-128">
                                <media>
                                    <video>
                                        <samplecharacteristics>
                                            <height>720</height>
                                            <width>1270</width>
                                        </samplecharacteristics>
                                    </video>
                                </media>
                                <file id="file-1">
                                    <pathurl>/home/davidk/code/python/JC-render/JC-examples/yoga.mp4</pathurl>
                                    <name>yoga.mp4</name>
                                    <rate>
                                        <timebase>30</timebase>
                                        <ntsc>TRUE</ntsc>
                                    </rate>
                                    <duration>54922</duration>
                                    <timecode>
                                        <rate>
                                            <timebase>30</timebase>
                                            <ntsc>TRUE</ntsc>
                                        </rate>
                                        <string>00:00:00:00</string>
                                        <frame>0</frame>
                                        <displayformat>NDF</displayformat>
                                        <media>
                                            <video/>
                                            <audio/>
                                        </media>
                                    </timecode>
                                </file>
                                <name>/home/davidk/code/python/JC-render/JC-examples/yoga.mp4</name>
                                <rate>
                                    <timebase>30</timebase>
                                    <ntsc>TRUE</ntsc>
                                </rate>
                                <start>6181</start>
                                <end>6236</end>
                            </clipitem>
                            <clipitem frameBlend="FALSE" id="clipitem-129">
                                <media>
                                    <video>
                                        <samplecharacteristics>
                                            <height>720</height>
                                            <width>1270</width>
                                        </samplecharacteristics>
                                    </video>
                                </media>
                                <file id="file-1">
                                    <pathurl>/home/davidk/code/python/JC-render/JC-examples/yoga.mp4</pathurl>
                                    <name>yoga.mp4</name>
                                    <rate>
                                        <timebase>30</timebase>
                                        <ntsc>TRUE</ntsc>
                                    </rate>
                                    <duration>54922</duration>
                                    <timecode>
                                        <rate>
                                            <timebase>30</timebase>
                                            <ntsc>TRUE</ntsc>
                                        </rate>
                                        <string>00:00:00:00</string>
                                        <frame>0</frame>
                                        <displayformat>NDF</displayformat>
                                        <media>
                                            <video/>
                                            <audio/>
                                        </media>
                                    </timecode>
                                </file>
                                <name>/home/davidk/code/python/JC-render/JC-examples/yoga.mp4</name>
                                <rate>
                                    <timebase>30</timebase>
                                    <ntsc>TRUE</ntsc>
                                </rate>
                                <start>6236</start>
                                <end>6317</end>
                            </clipitem>
                            <clipitem frameBlend="FALSE" id="clipitem-130">
                                <media>
                                    <video>
                                        <samplecharacteristics>
                                            <height>720</height>
                                            <width>1270</width>
                                        </samplecharacteristics>
                                    </video>
                                </media>
                                <file id="file-1">
                                    <pathurl>/home/davidk/code/python/JC-render/JC-examples/yoga.mp4</pathurl>
                                    <name>yoga.mp4</name>
                                    <rate>
                                        <timebase>30</timebase>
                                        <ntsc>TRUE</ntsc>
                                    </rate>
                                    <duration>54922</duration>
                                    <timecode>
                                        <rate>
                                            <timebase>30</timebase>
                                            <ntsc>TRUE</ntsc>
                                        </rate>
                                        <string>00:00:00:00</string>
                                        <frame>0</frame>
                                        <displayformat>NDF</displayformat>
                                        <media>
                                            <video/>
                                            <audio/>
                                        </media>
                                    </timecode>
                                </file>
                                <name>/home/davidk/code/python/JC-render/JC-examples/yoga.mp4</name>
                                <rate>
                                    <timebase>30</timebase>
                                    <ntsc>TRUE</ntsc>
                                </rate>
                                <start>6317</start>
                                <end>6333</end>
                            </clipitem>
                            <clipitem frameBlend="FALSE" id="clipitem-131">
                                <media>
                                    <video>
                                        <samplecharacteristics>
                                            <height>720</height>
                                            <width>1270</width>
                                        </samplecharacteristics>
                                    </video>
                                </media>
                                <file id="file-1">
                                    <pathurl>/home/davidk/code/python/JC-render/JC-examples/yoga.mp4</pathurl>
                                    <name>yoga.mp4</name>
                                    <rate>
                                        <timebase>30</timebase>
                                        <ntsc>TRUE</ntsc>
                                    </rate>
                                    <duration>54922</duration>
                                    <timecode>
                                        <rate>
                                            <timebase>30</timebase>
                                            <ntsc>TRUE</ntsc>
                                        </rate>
                                        <string>00:00:00:00</string>
                                        <frame>0</frame>
                                        <displayformat>NDF</displayformat>
                                        <media>
                                            <video/>
                                            <audio/>
                                        </media>
                                    </timecode>
                                </file>
                                <name>/home/davidk/code/python/JC-render/JC-examples/yoga.mp4</name>
                                <rate>
                                    <timebase>30</timebase>
                                    <ntsc>TRUE</ntsc>
                                </rate>
                                <start>6333</start>
                                <end>6383</end>
                            </clipitem>
                            <clipitem frameBlend="FALSE" id="clipitem-132">
                                <media>
                                    <video>
                                        <samplecharacteristics>
                                            <height>720</height>
                                            <width>1270</width>
                                        </samplecharacteristics>
                                    </video>
                                </media>
                                <file id="file-1">
                                    <pathurl>/home/davidk/code/python/JC-render/JC-examples/yoga.mp4</pathurl>
                                    <name>yoga.mp4</name>
                                    <rate>
                                        <timebase>30</timebase>
                                        <ntsc>TRUE</ntsc>
                                    </rate>
                                    <duration>54922</duration>
                                    <timecode>
                                        <rate>
                                            <timebase>30</timebase>
                                            <ntsc>TRUE</ntsc>
                                        </rate>
                                        <string>00:00:00:00</string>
                                        <frame>0</frame>
                                        <displayformat>NDF</displayformat>
                                        <media>
                                            <video/>
                                            <audio/>
                                        </media>
                                    </timecode>
                                </file>
                                <name>/home/davidk/code/python/JC-render/JC-examples/yoga.mp4</name>
                                <rate>
                                    <timebase>30</timebase>
                                    <ntsc>TRUE</ntsc>
                                </rate>
                                <start>6383</start>
                                <end>6451</end>
                            </clipitem>
                            <clipitem frameBlend="FALSE" id="clipitem-133">
                                <media>
                                    <video>
                                        <samplecharacteristics>
                                            <height>720</height>
                                            <width>1270</width>
                                        </samplecharacteristics>
                                    </video>
                                </media>
                                <file id="file-1">
                                    <pathurl>/home/davidk/code/python/JC-render/JC-examples/yoga.mp4</pathurl>
                                    <name>yoga.mp4</name>
                                    <rate>
                                        <timebase>30</timebase>
                                        <ntsc>TRUE</ntsc>
                                    </rate>
                                    <duration>54922</duration>
                                    <timecode>
                                        <rate>
                                            <timebase>30</timebase>
                                            <ntsc>TRUE</ntsc>
                                        </rate>
                                        <string>00:00:00:00</string>
                                        <frame>0</frame>
                                        <displayformat>NDF</displayformat>
                                        <media>
                                            <video/>
                                            <audio/>
                                        </media>
                                    </timecode>
                                </file>
                                <name>/home/davidk/code/python/JC-render/JC-examples/yoga.mp4</name>
                                <rate>
                                    <timebase>30</timebase>
                                    <ntsc>TRUE</ntsc>
                                </rate>
                                <start>6451</start>
                                <end>6551</end>
                            </clipitem>
                            <clipitem frameBlend="FALSE" id="clipitem-134">
                                <media>
                                    <video>
                                        <samplecharacteristics>
                                            <height>720</height>
                                            <width>1270</width>
                                        </samplecharacteristics>
                                    </video>
                                </media>
                                <file id="file-1">
                                    <pathurl>/home/davidk/code/python/JC-render/JC-examples/yoga.mp4</pathurl>
                                    <name>yoga.mp4</name>
                                    <rate>
                                        <timebase>30</timebase>
                                        <ntsc>TRUE</ntsc>
                                    </rate>
                                    <duration>54922</duration>
                                    <timecode>
                                        <rate>
                                            <timebase>30</timebase>
                                            <ntsc>TRUE</ntsc>
                                        </rate>
                                        <string>00:00:00:00</string>
                                        <frame>0</frame>
                                        <displayformat>NDF</displayformat>
                                        <media>
                                            <video/>
                                            <audio/>
                                        </media>
                                    </timecode>
                                </file>
                                <name>/home/davidk/code/python/JC-render/JC-examples/yoga.mp4</name>
                                <rate>
                                    <timebase>30</timebase>
                                    <ntsc>TRUE</ntsc>
                                </rate>
                                <start>6551</start>
                                <end>6563</end>
                            </clipitem>
                            <clipitem frameBlend="FALSE" id="clipitem-135">
                                <media>
                                    <video>
                                        <samplecharacteristics>
                                            <height>720</height>
                                            <width>1270</width>
                                        </samplecharacteristics>
                                    </video>
                                </media>
                                <file id="file-1">
                                    <pathurl>/home/davidk/code/python/JC-render/JC-examples/yoga.mp4</pathurl>
                                    <name>yoga.mp4</name>
                                    <rate>
                                        <timebase>30</timebase>
                                        <ntsc>TRUE</ntsc>
                                    </rate>
                                    <duration>54922</duration>
                                    <timecode>
                                        <rate>
                                            <timebase>30</timebase>
                                            <ntsc>TRUE</ntsc>
                                        </rate>
                                        <string>00:00:00:00</string>
                                        <frame>0</frame>
                                        <displayformat>NDF</displayformat>
                                        <media>
                                            <video/>
                                            <audio/>
                                        </media>
                                    </timecode>
                                </file>
                                <name>/home/davidk/code/python/JC-render/JC-examples/yoga.mp4</name>
                                <rate>
                                    <timebase>30</timebase>
                                    <ntsc>TRUE</ntsc>
                                </rate>
                                <start>6563</start>
                                <end>6704</end>
                            </clipitem>
                            <clipitem frameBlend="FALSE" id="clipitem-136">
                                <media>
                                    <video>
                                        <samplecharacteristics>
                                            <height>720</height>
                                            <width>1270</width>
                                        </samplecharacteristics>
                                    </video>
                                </media>
                                <file id="file-1">
                                    <pathurl>/home/davidk/code/python/JC-render/JC-examples/yoga.mp4</pathurl>
                                    <name>yoga.mp4</name>
                                    <rate>
                                        <timebase>30</timebase>
                                        <ntsc>TRUE</ntsc>
                                    </rate>
                                    <duration>54922</duration>
                                    <timecode>
                                        <rate>
                                            <timebase>30</timebase>
                                            <ntsc>TRUE</ntsc>
                                        </rate>
                                        <string>00:00:00:00</string>
                                        <frame>0</frame>
                                        <displayformat>NDF</displayformat>
                                        <media>
                                            <video/>
                                            <audio/>
                                        </media>
                                    </timecode>
                                </file>
                                <name>/home/davidk/code/python/JC-render/JC-examples/yoga.mp4</name>
                                <rate>
                                    <timebase>30</timebase>
                                    <ntsc>TRUE</ntsc>
                                </rate>
                                <start>6704</start>
                                <end>6720</end>
                            </clipitem>
                            <clipitem frameBlend="FALSE" id="clipitem-137">
                                <media>
                                    <video>
                                        <samplecharacteristics>
                                            <height>720</height>
                                            <width>1270</width>
                                        </samplecharacteristics>
                                    </video>
                                </media>
                                <file id="file-1">
                                    <pathurl>/home/davidk/code/python/JC-render/JC-examples/yoga.mp4</pathurl>
                                    <name>yoga.mp4</name>
                                    <rate>
                                        <timebase>30</timebase>
                                        <ntsc>TRUE</ntsc>
                                    </rate>
                                    <duration>54922</duration>
                                    <timecode>
                                        <rate>
                                            <timebase>30</timebase>
                                            <ntsc>TRUE</ntsc>
                                        </rate>
                                        <string>00:00:00:00</string>
                                        <frame>0</frame>
                                        <displayformat>NDF</displayformat>
                                        <media>
                                            <video/>
                                            <audio/>
                                        </media>
                                    </timecode>
                                </file>
                                <name>/home/davidk/code/python/JC-render/JC-examples/yoga.mp4</name>
                                <rate>
                                    <timebase>30</timebase>
                                    <ntsc>TRUE</ntsc>
                                </rate>
                                <start>6720</start>
                                <end>6937</end>
                            </clipitem>
                            <clipitem frameBlend="FALSE" id="clipitem-138">
                                <media>
                                    <video>
                                        <samplecharacteristics>
                                            <height>720</height>
                                            <width>1270</width>
                                        </samplecharacteristics>
                                    </video>
                                </media>
                                <file id="file-1">
                                    <pathurl>/home/davidk/code/python/JC-render/JC-examples/yoga.mp4</pathurl>
                                    <name>yoga.mp4</name>
                                    <rate>
                                        <timebase>30</timebase>
                                        <ntsc>TRUE</ntsc>
                                    </rate>
                                    <duration>54922</duration>
                                    <timecode>
                                        <rate>
                                            <timebase>30</timebase>
                                            <ntsc>TRUE</ntsc>
                                        </rate>
                                        <string>00:00:00:00</string>
                                        <frame>0</frame>
                                        <displayformat>NDF</displayformat>
                                        <media>
                                            <video/>
                                            <audio/>
                                        </media>
                                    </timecode>
                                </file>
                                <name>/home/davidk/code/python/JC-render/JC-examples/yoga.mp4</name>
                                <rate>
                                    <timebase>30</timebase>
                                    <ntsc>TRUE</ntsc>
                                </rate>
                                <start>6937</start>
                                <end>6943</end>
                            </clipitem>
                            <clipitem frameBlend="FALSE" id="clipitem-139">
                                <media>
                                    <video>
                                        <samplecharacteristics>
                                            <height>720</height>
                                            <width>1270</width>
                                        </samplecharacteristics>
                                    </video>
                                </media>
                                <file id="file-1">
                                    <pathurl>/home/davidk/code/python/JC-render/JC-examples/yoga.mp4</pathurl>
                                    <name>yoga.mp4</name>
                                    <rate>
                                        <timebase>30</timebase>
                                        <ntsc>TRUE</ntsc>
                                    </rate>
                                    <duration>54922</duration>
                                    <timecode>
                                        <rate>
                                            <timebase>30</timebase>
                                            <ntsc>TRUE</ntsc>
                                        </rate>
                                        <string>00:00:00:00</string>
                                        <frame>0</frame>
                                        <displayformat>NDF</displayformat>
                                        <media>
                                            <video/>
                                            <audio/>
                                        </media>
                                    </timecode>
                                </file>
                                <name>/home/davidk/code/python/JC-render/JC-examples/yoga.mp4</name>
                                <rate>
                                    <timebase>30</timebase>
                                    <ntsc>TRUE</ntsc>
                                </rate>
                                <start>6943</start>
                                <end>7059</end>
                            </clipitem>
                            <clipitem frameBlend="FALSE" id="clipitem-140">
                                <media>
                                    <video>
                                        <samplecharacteristics>
                                            <height>720</height>
                                            <width>1270</width>
                                        </samplecharacteristics>
                                    </video>
                                </media>
                                <file id="file-1">
                                    <pathurl>/home/davidk/code/python/JC-render/JC-examples/yoga.mp4</pathurl>
                                    <name>yoga.mp4</name>
                                    <rate>
                                        <timebase>30</timebase>
                                        <ntsc>TRUE</ntsc>
                                    </rate>
                                    <duration>54922</duration>
                                    <timecode>
                                        <rate>
                                            <timebase>30</timebase>
                                            <ntsc>TRUE</ntsc>
                                        </rate>
                                        <string>00:00:00:00</string>
                                        <frame>0</frame>
                                        <displayformat>NDF</displayformat>
                                        <media>
                                            <video/>
                                            <audio/>
                                        </media>
                                    </timecode>
                                </file>
                                <name>/home/davidk/code/python/JC-render/JC-examples/yoga.mp4</name>
                                <rate>
                                    <timebase>30</timebase>
                                    <ntsc>TRUE</ntsc>
                                </rate>
                                <start>7059</start>
                                <end>7061</end>
                            </clipitem>
                            <clipitem frameBlend="FALSE" id="clipitem-141">
                                <media>
                                    <video>
                                        <samplecharacteristics>
                                            <height>720</height>
                                            <width>1270</width>
                                        </samplecharacteristics>
                                    </video>
                                </media>
                                <file id="file-1">
                                    <pathurl>/home/davidk/code/python/JC-render/JC-examples/yoga.mp4</pathurl>
                                    <name>yoga.mp4</name>
                                    <rate>
                                        <timebase>30</timebase>
                                        <ntsc>TRUE</ntsc>
                                    </rate>
                                    <duration>54922</duration>
                                    <timecode>
                                        <rate>
                                            <timebase>30</timebase>
                                            <ntsc>TRUE</ntsc>
                                        </rate>
                                        <string>00:00:00:00</string>
                                        <frame>0</frame>
                                        <displayformat>NDF</displayformat>
                                        <media>
                                            <video/>
                                            <audio/>
                                        </media>
                                    </timecode>
                                </file>
                                <name>/home/davidk/code/python/JC-render/JC-examples/yoga.mp4</name>
                                <rate>
                                    <timebase>30</timebase>
                                    <ntsc>TRUE</ntsc>
                                </rate>
                                <start>7061</start>
                                <end>7244</end>
                            </clipitem>
                            <clipitem frameBlend="FALSE" id="clipitem-142">
                                <media>
                                    <video>
                                        <samplecharacteristics>
                                            <height>720</height>
                                            <width>1270</width>
                                        </samplecharacteristics>
                                    </video>
                                </media>
                                <file id="file-1">
                                    <pathurl>/home/davidk/code/python/JC-render/JC-examples/yoga.mp4</pathurl>
                                    <name>yoga.mp4</name>
                                    <rate>
                                        <timebase>30</timebase>
                                        <ntsc>TRUE</ntsc>
                                    </rate>
                                    <duration>54922</duration>
                                    <timecode>
                                        <rate>
                                            <timebase>30</timebase>
                                            <ntsc>TRUE</ntsc>
                                        </rate>
                                        <string>00:00:00:00</string>
                                        <frame>0</frame>
                                        <displayformat>NDF</displayformat>
                                        <media>
                                            <video/>
                                            <audio/>
                                        </media>
                                    </timecode>
                                </file>
                                <name>/home/davidk/code/python/JC-render/JC-examples/yoga.mp4</name>
                                <rate>
                                    <timebase>30</timebase>
                                    <ntsc>TRUE</ntsc>
                                </rate>
                                <start>7244</start>
                                <end>7249</end>
                            </clipitem>
                            <clipitem frameBlend="FALSE" id="clipitem-143">
                                <media>
                                    <video>
                                        <samplecharacteristics>
                                            <height>720</height>
                                            <width>1270</width>
                                        </samplecharacteristics>
                                    </video>
                                </media>
                                <file id="file-1">
                                    <pathurl>/home/davidk/code/python/JC-render/JC-examples/yoga.mp4</pathurl>
                                    <name>yoga.mp4</name>
                                    <rate>
                                        <timebase>30</timebase>
                                        <ntsc>TRUE</ntsc>
                                    </rate>
                                    <duration>54922</duration>
                                    <timecode>
                                        <rate>
                                            <timebase>30</timebase>
                                            <ntsc>TRUE</ntsc>
                                        </rate>
                                        <string>00:00:00:00</string>
                                        <frame>0</frame>
                                        <displayformat>NDF</displayformat>
                                        <media>
                                            <video/>
                                            <audio/>
                                        </media>
                                    </timecode>
                                </file>
                                <name>/home/davidk/code/python/JC-render/JC-examples/yoga.mp4</name>
                                <rate>
                                    <timebase>30</timebase>
                                    <ntsc>TRUE</ntsc>
                                </rate>
                                <start>7249</start>
                                <end>7303</end>
                            </clipitem>
                            <clipitem frameBlend="FALSE" id="clipitem-144">
                                <media>
                                    <video>
                                        <samplecharacteristics>
                                            <height>720</height>
                                            <width>1270</width>
                                        </samplecharacteristics>
                                    </video>
                                </media>
                                <file id="file-1">
                                    <pathurl>/home/davidk/code/python/JC-render/JC-examples/yoga.mp4</pathurl>
                                    <name>yoga.mp4</name>
                                    <rate>
                                        <timebase>30</timebase>
                                        <ntsc>TRUE</ntsc>
                                    </rate>
                                    <duration>54922</duration>
                                    <timecode>
                                        <rate>
                                            <timebase>30</timebase>
                                            <ntsc>TRUE</ntsc>
                                        </rate>
                                        <string>00:00:00:00</string>
                                        <frame>0</frame>
                                        <displayformat>NDF</displayformat>
                                        <media>
                                            <video/>
                                            <audio/>
                                        </media>
                                    </timecode>
                                </file>
                                <name>/home/davidk/code/python/JC-render/JC-examples/yoga.mp4</name>
                                <rate>
                                    <timebase>30</timebase>
                                    <ntsc>TRUE</ntsc>
                                </rate>
                                <start>7303</start>
                                <end>7308</end>
                            </clipitem>
                            <clipitem frameBlend="FALSE" id="clipitem-145">
                                <media>
                                    <video>
                                        <samplecharacteristics>
                                            <height>720</height>
                                            <width>1270</width>
                                        </samplecharacteristics>
                                    </video>
                                </media>
                                <file id="file-1">
                                    <pathurl>/home/davidk/code/python/JC-render/JC-examples/yoga.mp4</pathurl>
                                    <name>yoga.mp4</name>
                                    <rate>
                                        <timebase>30</timebase>
                                        <ntsc>TRUE</ntsc>
                                    </rate>
                                    <duration>54922</duration>
                                    <timecode>
                                        <rate>
                                            <timebase>30</timebase>
                                            <ntsc>TRUE</ntsc>
                                        </rate>
                                        <string>00:00:00:00</string>
                                        <frame>0</frame>
                                        <displayformat>NDF</displayformat>
                                        <media>
                                            <video/>
                                            <audio/>
                                        </media>
                                    </timecode>
                                </file>
                                <name>/home/davidk/code/python/JC-render/JC-examples/yoga.mp4</name>
                                <rate>
                                    <timebase>30</timebase>
                                    <ntsc>TRUE</ntsc>
                                </rate>
                                <start>7308</start>
                                <end>7348</end>
                            </clipitem>
                            <clipitem frameBlend="FALSE" id="clipitem-146">
                                <media>
                                    <video>
                                        <samplecharacteristics>
                                            <height>720</height>
                                            <width>1270</width>
                                        </samplecharacteristics>
                                    </video>
                                </media>
                                <file id="file-1">
                                    <pathurl>/home/davidk/code/python/JC-render/JC-examples/yoga.mp4</pathurl>
                                    <name>yoga.mp4</name>
                                    <rate>
                                        <timebase>30</timebase>
                                        <ntsc>TRUE</ntsc>
                                    </rate>
                                    <duration>54922</duration>
                                    <timecode>
                                        <rate>
                                            <timebase>30</timebase>
                                            <ntsc>TRUE</ntsc>
                                        </rate>
                                        <string>00:00:00:00</string>
                                        <frame>0</frame>
                                        <displayformat>NDF</displayformat>
                                        <media>
                                            <video/>
                                            <audio/>
                                        </media>
                                    </timecode>
                                </file>
                                <name>/home/davidk/code/python/JC-render/JC-examples/yoga.mp4</name>
                                <rate>
                                    <timebase>30</timebase>
                                    <ntsc>TRUE</ntsc>
                                </rate>
                                <start>7348</start>
                                <end>7361</end>
                            </clipitem>
                            <clipitem frameBlend="FALSE" id="clipitem-147">
                                <media>
                                    <video>
                                        <samplecharacteristics>
                                            <height>720</height>
                                            <width>1270</width>
                                        </samplecharacteristics>
                                    </video>
                                </media>
                                <file id="file-1">
                                    <pathurl>/home/davidk/code/python/JC-render/JC-examples/yoga.mp4</pathurl>
                                    <name>yoga.mp4</name>
                                    <rate>
                                        <timebase>30</timebase>
                                        <ntsc>TRUE</ntsc>
                                    </rate>
                                    <duration>54922</duration>
                                    <timecode>
                                        <rate>
                                            <timebase>30</timebase>
                                            <ntsc>TRUE</ntsc>
                                        </rate>
                                        <string>00:00:00:00</string>
                                        <frame>0</frame>
                                        <displayformat>NDF</displayformat>
                                        <media>
                                            <video/>
                                            <audio/>
                                        </media>
                                    </timecode>
                                </file>
                                <name>/home/davidk/code/python/JC-render/JC-examples/yoga.mp4</name>
                                <rate>
                                    <timebase>30</timebase>
                                    <ntsc>TRUE</ntsc>
                                </rate>
                                <start>7361</start>
                                <end>7435</end>
                            </clipitem>
                            <clipitem frameBlend="FALSE" id="clipitem-148">
                                <media>
                                    <video>
                                        <samplecharacteristics>
                                            <height>720</height>
                                            <width>1270</width>
                                        </samplecharacteristics>
                                    </video>
                                </media>
                                <file id="file-1">
                                    <pathurl>/home/davidk/code/python/JC-render/JC-examples/yoga.mp4</pathurl>
                                    <name>yoga.mp4</name>
                                    <rate>
                                        <timebase>30</timebase>
                                        <ntsc>TRUE</ntsc>
                                    </rate>
                                    <duration>54922</duration>
                                    <timecode>
                                        <rate>
                                            <timebase>30</timebase>
                                            <ntsc>TRUE</ntsc>
                                        </rate>
                                        <string>00:00:00:00</string>
                                        <frame>0</frame>
                                        <displayformat>NDF</displayformat>
                                        <media>
                                            <video/>
                                            <audio/>
                                        </media>
                                    </timecode>
                                </file>
                                <name>/home/davidk/code/python/JC-render/JC-examples/yoga.mp4</name>
                                <rate>
                                    <timebase>30</timebase>
                                    <ntsc>TRUE</ntsc>
                                </rate>
                                <start>7435</start>
                                <end>7451</end>
                            </clipitem>
                            <clipitem frameBlend="FALSE" id="clipitem-149">
                                <media>
                                    <video>
                                        <samplecharacteristics>
                                            <height>720</height>
                                            <width>1270</width>
                                        </samplecharacteristics>
                                    </video>
                                </media>
                                <file id="file-1">
                                    <pathurl>/home/davidk/code/python/JC-render/JC-examples/yoga.mp4</pathurl>
                                    <name>yoga.mp4</name>
                                    <rate>
                                        <timebase>30</timebase>
                                        <ntsc>TRUE</ntsc>
                                    </rate>
                                    <duration>54922</duration>
                                    <timecode>
                                        <rate>
                                            <timebase>30</timebase>
                                            <ntsc>TRUE</ntsc>
                                        </rate>
                                        <string>00:00:00:00</string>
                                        <frame>0</frame>
                                        <displayformat>NDF</displayformat>
                                        <media>
                                            <video/>
                                            <audio/>
                                        </media>
                                    </timecode>
                                </file>
                                <name>/home/davidk/code/python/JC-render/JC-examples/yoga.mp4</name>
                                <rate>
                                    <timebase>30</timebase>
                                    <ntsc>TRUE</ntsc>
                                </rate>
                                <start>7451</start>
                                <end>7467</end>
                            </clipitem>
                            <clipitem frameBlend="FALSE" id="clipitem-150">
                                <media>
                                    <video>
                                        <samplecharacteristics>
                                            <height>720</height>
                                            <width>1270</width>
                                        </samplecharacteristics>
                                    </video>
                                </media>
                                <file id="file-1">
                                    <pathurl>/home/davidk/code/python/JC-render/JC-examples/yoga.mp4</pathurl>
                                    <name>yoga.mp4</name>
                                    <rate>
                                        <timebase>30</timebase>
                                        <ntsc>TRUE</ntsc>
                                    </rate>
                                    <duration>54922</duration>
                                    <timecode>
                                        <rate>
                                            <timebase>30</timebase>
                                            <ntsc>TRUE</ntsc>
                                        </rate>
                                        <string>00:00:00:00</string>
                                        <frame>0</frame>
                                        <displayformat>NDF</displayformat>
                                        <media>
                                            <video/>
                                            <audio/>
                                        </media>
                                    </timecode>
                                </file>
                                <name>/home/davidk/code/python/JC-render/JC-examples/yoga.mp4</name>
                                <rate>
                                    <timebase>30</timebase>
                                    <ntsc>TRUE</ntsc>
                                </rate>
                                <start>7467</start>
                                <end>7482</end>
                            </clipitem>
                            <clipitem frameBlend="FALSE" id="clipitem-151">
                                <media>
                                    <video>
                                        <samplecharacteristics>
                                            <height>720</height>
                                            <width>1270</width>
                                        </samplecharacteristics>
                                    </video>
                                </media>
                                <file id="file-1">
                                    <pathurl>/home/davidk/code/python/JC-render/JC-examples/yoga.mp4</pathurl>
                                    <name>yoga.mp4</name>
                                    <rate>
                                        <timebase>30</timebase>
                                        <ntsc>TRUE</ntsc>
                                    </rate>
                                    <duration>54922</duration>
                                    <timecode>
                                        <rate>
                                            <timebase>30</timebase>
                                            <ntsc>TRUE</ntsc>
                                        </rate>
                                        <string>00:00:00:00</string>
                                        <frame>0</frame>
                                        <displayformat>NDF</displayformat>
                                        <media>
                                            <video/>
                                            <audio/>
                                        </media>
                                    </timecode>
                                </file>
                                <name>/home/davidk/code/python/JC-render/JC-examples/yoga.mp4</name>
                                <rate>
                                    <timebase>30</timebase>
                                    <ntsc>TRUE</ntsc>
                                </rate>
                                <start>7482</start>
                                <end>7540</end>
                            </clipitem>
                            <clipitem frameBlend="FALSE" id="clipitem-152">
                                <media>
                                    <video>
                                        <samplecharacteristics>
                                            <height>720</height>
                                            <width>1270</width>
                                        </samplecharacteristics>
                                    </video>
                                </media>
                                <file id="file-1">
                                    <pathurl>/home/davidk/code/python/JC-render/JC-examples/yoga.mp4</pathurl>
                                    <name>yoga.mp4</name>
                                    <rate>
                                        <timebase>30</timebase>
                                        <ntsc>TRUE</ntsc>
                                    </rate>
                                    <duration>54922</duration>
                                    <timecode>
                                        <rate>
                                            <timebase>30</timebase>
                                            <ntsc>TRUE</ntsc>
                                        </rate>
                                        <string>00:00:00:00</string>
                                        <frame>0</frame>
                                        <displayformat>NDF</displayformat>
                                        <media>
                                            <video/>
                                            <audio/>
                                        </media>
                                    </timecode>
                                </file>
                                <name>/home/davidk/code/python/JC-render/JC-examples/yoga.mp4</name>
                                <rate>
                                    <timebase>30</timebase>
                                    <ntsc>TRUE</ntsc>
                                </rate>
                                <start>7540</start>
                                <end>7542</end>
                            </clipitem>
                            <clipitem frameBlend="FALSE" id="clipitem-153">
                                <media>
                                    <video>
                                        <samplecharacteristics>
                                            <height>720</height>
                                            <width>1270</width>
                                        </samplecharacteristics>
                                    </video>
                                </media>
                                <file id="file-1">
                                    <pathurl>/home/davidk/code/python/JC-render/JC-examples/yoga.mp4</pathurl>
                                    <name>yoga.mp4</name>
                                    <rate>
                                        <timebase>30</timebase>
                                        <ntsc>TRUE</ntsc>
                                    </rate>
                                    <duration>54922</duration>
                                    <timecode>
                                        <rate>
                                            <timebase>30</timebase>
                                            <ntsc>TRUE</ntsc>
                                        </rate>
                                        <string>00:00:00:00</string>
                                        <frame>0</frame>
                                        <displayformat>NDF</displayformat>
                                        <media>
                                            <video/>
                                            <audio/>
                                        </media>
                                    </timecode>
                                </file>
                                <name>/home/davidk/code/python/JC-render/JC-examples/yoga.mp4</name>
                                <rate>
                                    <timebase>30</timebase>
                                    <ntsc>TRUE</ntsc>
                                </rate>
                                <start>7542</start>
                                <end>7595</end>
                            </clipitem>
                            <clipitem frameBlend="FALSE" id="clipitem-154">
                                <media>
                                    <video>
                                        <samplecharacteristics>
                                            <height>720</height>
                                            <width>1270</width>
                                        </samplecharacteristics>
                                    </video>
                                </media>
                                <file id="file-1">
                                    <pathurl>/home/davidk/code/python/JC-render/JC-examples/yoga.mp4</pathurl>
                                    <name>yoga.mp4</name>
                                    <rate>
                                        <timebase>30</timebase>
                                        <ntsc>TRUE</ntsc>
                                    </rate>
                                    <duration>54922</duration>
                                    <timecode>
                                        <rate>
                                            <timebase>30</timebase>
                                            <ntsc>TRUE</ntsc>
                                        </rate>
                                        <string>00:00:00:00</string>
                                        <frame>0</frame>
                                        <displayformat>NDF</displayformat>
                                        <media>
                                            <video/>
                                            <audio/>
                                        </media>
                                    </timecode>
                                </file>
                                <name>/home/davidk/code/python/JC-render/JC-examples/yoga.mp4</name>
                                <rate>
                                    <timebase>30</timebase>
                                    <ntsc>TRUE</ntsc>
                                </rate>
                                <start>7595</start>
                                <end>7615</end>
                            </clipitem>
                            <clipitem frameBlend="FALSE" id="clipitem-155">
                                <media>
                                    <video>
                                        <samplecharacteristics>
                                            <height>720</height>
                                            <width>1270</width>
                                        </samplecharacteristics>
                                    </video>
                                </media>
                                <file id="file-1">
                                    <pathurl>/home/davidk/code/python/JC-render/JC-examples/yoga.mp4</pathurl>
                                    <name>yoga.mp4</name>
                                    <rate>
                                        <timebase>30</timebase>
                                        <ntsc>TRUE</ntsc>
                                    </rate>
                                    <duration>54922</duration>
                                    <timecode>
                                        <rate>
                                            <timebase>30</timebase>
                                            <ntsc>TRUE</ntsc>
                                        </rate>
                                        <string>00:00:00:00</string>
                                        <frame>0</frame>
                                        <displayformat>NDF</displayformat>
                                        <media>
                                            <video/>
                                            <audio/>
                                        </media>
                                    </timecode>
                                </file>
                                <name>/home/davidk/code/python/JC-render/JC-examples/yoga.mp4</name>
                                <rate>
                                    <timebase>30</timebase>
                                    <ntsc>TRUE</ntsc>
                                </rate>
                                <start>7615</start>
                                <end>7637</end>
                            </clipitem>
                            <clipitem frameBlend="FALSE" id="clipitem-156">
                                <media>
                                    <video>
                                        <samplecharacteristics>
                                            <height>720</height>
                                            <width>1270</width>
                                        </samplecharacteristics>
                                    </video>
                                </media>
                                <file id="file-1">
                                    <pathurl>/home/davidk/code/python/JC-render/JC-examples/yoga.mp4</pathurl>
                                    <name>yoga.mp4</name>
                                    <rate>
                                        <timebase>30</timebase>
                                        <ntsc>TRUE</ntsc>
                                    </rate>
                                    <duration>54922</duration>
                                    <timecode>
                                        <rate>
                                            <timebase>30</timebase>
                                            <ntsc>TRUE</ntsc>
                                        </rate>
                                        <string>00:00:00:00</string>
                                        <frame>0</frame>
                                        <displayformat>NDF</displayformat>
                                        <media>
                                            <video/>
                                            <audio/>
                                        </media>
                                    </timecode>
                                </file>
                                <name>/home/davidk/code/python/JC-render/JC-examples/yoga.mp4</name>
                                <rate>
                                    <timebase>30</timebase>
                                    <ntsc>TRUE</ntsc>
                                </rate>
                                <start>7637</start>
                                <end>7657</end>
                            </clipitem>
                            <clipitem frameBlend="FALSE" id="clipitem-157">
                                <media>
                                    <video>
                                        <samplecharacteristics>
                                            <height>720</height>
                                            <width>1270</width>
                                        </samplecharacteristics>
                                    </video>
                                </media>
                                <file id="file-1">
                                    <pathurl>/home/davidk/code/python/JC-render/JC-examples/yoga.mp4</pathurl>
                                    <name>yoga.mp4</name>
                                    <rate>
                                        <timebase>30</timebase>
                                        <ntsc>TRUE</ntsc>
                                    </rate>
                                    <duration>54922</duration>
                                    <timecode>
                                        <rate>
                                            <timebase>30</timebase>
                                            <ntsc>TRUE</ntsc>
                                        </rate>
                                        <string>00:00:00:00</string>
                                        <frame>0</frame>
                                        <displayformat>NDF</displayformat>
                                        <media>
                                            <video/>
                                            <audio/>
                                        </media>
                                    </timecode>
                                </file>
                                <name>/home/davidk/code/python/JC-render/JC-examples/yoga.mp4</name>
                                <rate>
                                    <timebase>30</timebase>
                                    <ntsc>TRUE</ntsc>
                                </rate>
                                <start>7657</start>
                                <end>7731</end>
                            </clipitem>
                            <clipitem frameBlend="FALSE" id="clipitem-158">
                                <media>
                                    <video>
                                        <samplecharacteristics>
                                            <height>720</height>
                                            <width>1270</width>
                                        </samplecharacteristics>
                                    </video>
                                </media>
                                <file id="file-1">
                                    <pathurl>/home/davidk/code/python/JC-render/JC-examples/yoga.mp4</pathurl>
                                    <name>yoga.mp4</name>
                                    <rate>
                                        <timebase>30</timebase>
                                        <ntsc>TRUE</ntsc>
                                    </rate>
                                    <duration>54922</duration>
                                    <timecode>
                                        <rate>
                                            <timebase>30</timebase>
                                            <ntsc>TRUE</ntsc>
                                        </rate>
                                        <string>00:00:00:00</string>
                                        <frame>0</frame>
                                        <displayformat>NDF</displayformat>
                                        <media>
                                            <video/>
                                            <audio/>
                                        </media>
                                    </timecode>
                                </file>
                                <name>/home/davidk/code/python/JC-render/JC-examples/yoga.mp4</name>
                                <rate>
                                    <timebase>30</timebase>
                                    <ntsc>TRUE</ntsc>
                                </rate>
                                <start>7731</start>
                                <end>7733</end>
                            </clipitem>
                            <clipitem frameBlend="FALSE" id="clipitem-159">
                                <media>
                                    <video>
                                        <samplecharacteristics>
                                            <height>720</height>
                                            <width>1270</width>
                                        </samplecharacteristics>
                                    </video>
                                </media>
                                <file id="file-1">
                                    <pathurl>/home/davidk/code/python/JC-render/JC-examples/yoga.mp4</pathurl>
                                    <name>yoga.mp4</name>
                                    <rate>
                                        <timebase>30</timebase>
                                        <ntsc>TRUE</ntsc>
                                    </rate>
                                    <duration>54922</duration>
                                    <timecode>
                                        <rate>
                                            <timebase>30</timebase>
                                            <ntsc>TRUE</ntsc>
                                        </rate>
                                        <string>00:00:00:00</string>
                                        <frame>0</frame>
                                        <displayformat>NDF</displayformat>
                                        <media>
                                            <video/>
                                            <audio/>
                                        </media>
                                    </timecode>
                                </file>
                                <name>/home/davidk/code/python/JC-render/JC-examples/yoga.mp4</name>
                                <rate>
                                    <timebase>30</timebase>
                                    <ntsc>TRUE</ntsc>
                                </rate>
                                <start>7733</start>
                                <end>7801</end>
                            </clipitem>
                            <clipitem frameBlend="FALSE" id="clipitem-160">
                                <media>
                                    <video>
                                        <samplecharacteristics>
                                            <height>720</height>
                                            <width>1270</width>
                                        </samplecharacteristics>
                                    </video>
                                </media>
                                <file id="file-1">
                                    <pathurl>/home/davidk/code/python/JC-render/JC-examples/yoga.mp4</pathurl>
                                    <name>yoga.mp4</name>
                                    <rate>
                                        <timebase>30</timebase>
                                        <ntsc>TRUE</ntsc>
                                    </rate>
                                    <duration>54922</duration>
                                    <timecode>
                                        <rate>
                                            <timebase>30</timebase>
                                            <ntsc>TRUE</ntsc>
                                        </rate>
                                        <string>00:00:00:00</string>
                                        <frame>0</frame>
                                        <displayformat>NDF</displayformat>
                                        <media>
                                            <video/>
                                            <audio/>
                                        </media>
                                    </timecode>
                                </file>
                                <name>/home/davidk/code/python/JC-render/JC-examples/yoga.mp4</name>
                                <rate>
                                    <timebase>30</timebase>
                                    <ntsc>TRUE</ntsc>
                                </rate>
                                <start>7801</start>
                                <end>7810</end>
                            </clipitem>
                            <clipitem frameBlend="FALSE" id="clipitem-161">
                                <media>
                                    <video>
                                        <samplecharacteristics>
                                            <height>720</height>
                                            <width>1270</width>
                                        </samplecharacteristics>
                                    </video>
                                </media>
                                <file id="file-1">
                                    <pathurl>/home/davidk/code/python/JC-render/JC-examples/yoga.mp4</pathurl>
                                    <name>yoga.mp4</name>
                                    <rate>
                                        <timebase>30</timebase>
                                        <ntsc>TRUE</ntsc>
                                    </rate>
                                    <duration>54922</duration>
                                    <timecode>
                                        <rate>
                                            <timebase>30</timebase>
                                            <ntsc>TRUE</ntsc>
                                        </rate>
                                        <string>00:00:00:00</string>
                                        <frame>0</frame>
                                        <displayformat>NDF</displayformat>
                                        <media>
                                            <video/>
                                            <audio/>
                                        </media>
                                    </timecode>
                                </file>
                                <name>/home/davidk/code/python/JC-render/JC-examples/yoga.mp4</name>
                                <rate>
                                    <timebase>30</timebase>
                                    <ntsc>TRUE</ntsc>
                                </rate>
                                <start>7810</start>
                                <end>7986</end>
                            </clipitem>
                            <clipitem frameBlend="FALSE" id="clipitem-162">
                                <media>
                                    <video>
                                        <samplecharacteristics>
                                            <height>720</height>
                                            <width>1270</width>
                                        </samplecharacteristics>
                                    </video>
                                </media>
                                <file id="file-1">
                                    <pathurl>/home/davidk/code/python/JC-render/JC-examples/yoga.mp4</pathurl>
                                    <name>yoga.mp4</name>
                                    <rate>
                                        <timebase>30</timebase>
                                        <ntsc>TRUE</ntsc>
                                    </rate>
                                    <duration>54922</duration>
                                    <timecode>
                                        <rate>
                                            <timebase>30</timebase>
                                            <ntsc>TRUE</ntsc>
                                        </rate>
                                        <string>00:00:00:00</string>
                                        <frame>0</frame>
                                        <displayformat>NDF</displayformat>
                                        <media>
                                            <video/>
                                            <audio/>
                                        </media>
                                    </timecode>
                                </file>
                                <name>/home/davidk/code/python/JC-render/JC-examples/yoga.mp4</name>
                                <rate>
                                    <timebase>30</timebase>
                                    <ntsc>TRUE</ntsc>
                                </rate>
                                <start>7986</start>
                                <end>7987</end>
                            </clipitem>
                            <clipitem frameBlend="FALSE" id="clipitem-163">
                                <media>
                                    <video>
                                        <samplecharacteristics>
                                            <height>720</height>
                                            <width>1270</width>
                                        </samplecharacteristics>
                                    </video>
                                </media>
                                <file id="file-1">
                                    <pathurl>/home/davidk/code/python/JC-render/JC-examples/yoga.mp4</pathurl>
                                    <name>yoga.mp4</name>
                                    <rate>
                                        <timebase>30</timebase>
                                        <ntsc>TRUE</ntsc>
                                    </rate>
                                    <duration>54922</duration>
                                    <timecode>
                                        <rate>
                                            <timebase>30</timebase>
                                            <ntsc>TRUE</ntsc>
                                        </rate>
                                        <string>00:00:00:00</string>
                                        <frame>0</frame>
                                        <displayformat>NDF</displayformat>
                                        <media>
                                            <video/>
                                            <audio/>
                                        </media>
                                    </timecode>
                                </file>
                                <name>/home/davidk/code/python/JC-render/JC-examples/yoga.mp4</name>
                                <rate>
                                    <timebase>30</timebase>
                                    <ntsc>TRUE</ntsc>
                                </rate>
                                <start>7987</start>
                                <end>8107</end>
                            </clipitem>
                            <clipitem frameBlend="FALSE" id="clipitem-164">
                                <media>
                                    <video>
                                        <samplecharacteristics>
                                            <height>720</height>
                                            <width>1270</width>
                                        </samplecharacteristics>
                                    </video>
                                </media>
                                <file id="file-1">
                                    <pathurl>/home/davidk/code/python/JC-render/JC-examples/yoga.mp4</pathurl>
                                    <name>yoga.mp4</name>
                                    <rate>
                                        <timebase>30</timebase>
                                        <ntsc>TRUE</ntsc>
                                    </rate>
                                    <duration>54922</duration>
                                    <timecode>
                                        <rate>
                                            <timebase>30</timebase>
                                            <ntsc>TRUE</ntsc>
                                        </rate>
                                        <string>00:00:00:00</string>
                                        <frame>0</frame>
                                        <displayformat>NDF</displayformat>
                                        <media>
                                            <video/>
                                            <audio/>
                                        </media>
                                    </timecode>
                                </file>
                                <name>/home/davidk/code/python/JC-render/JC-examples/yoga.mp4</name>
                                <rate>
                                    <timebase>30</timebase>
                                    <ntsc>TRUE</ntsc>
                                </rate>
                                <start>8107</start>
                                <end>8120</end>
                            </clipitem>
                            <clipitem frameBlend="FALSE" id="clipitem-165">
                                <media>
                                    <video>
                                        <samplecharacteristics>
                                            <height>720</height>
                                            <width>1270</width>
                                        </samplecharacteristics>
                                    </video>
                                </media>
                                <file id="file-1">
                                    <pathurl>/home/davidk/code/python/JC-render/JC-examples/yoga.mp4</pathurl>
                                    <name>yoga.mp4</name>
                                    <rate>
                                        <timebase>30</timebase>
                                        <ntsc>TRUE</ntsc>
                                    </rate>
                                    <duration>54922</duration>
                                    <timecode>
                                        <rate>
                                            <timebase>30</timebase>
                                            <ntsc>TRUE</ntsc>
                                        </rate>
                                        <string>00:00:00:00</string>
                                        <frame>0</frame>
                                        <displayformat>NDF</displayformat>
                                        <media>
                                            <video/>
                                            <audio/>
                                        </media>
                                    </timecode>
                                </file>
                                <name>/home/davidk/code/python/JC-render/JC-examples/yoga.mp4</name>
                                <rate>
                                    <timebase>30</timebase>
                                    <ntsc>TRUE</ntsc>
                                </rate>
                                <start>8120</start>
                                <end>8292</end>
                            </clipitem>
                            <clipitem frameBlend="FALSE" id="clipitem-166">
                                <media>
                                    <video>
                                        <samplecharacteristics>
                                            <height>720</height>
                                            <width>1270</width>
                                        </samplecharacteristics>
                                    </video>
                                </media>
                                <file id="file-1">
                                    <pathurl>/home/davidk/code/python/JC-render/JC-examples/yoga.mp4</pathurl>
                                    <name>yoga.mp4</name>
                                    <rate>
                                        <timebase>30</timebase>
                                        <ntsc>TRUE</ntsc>
                                    </rate>
                                    <duration>54922</duration>
                                    <timecode>
                                        <rate>
                                            <timebase>30</timebase>
                                            <ntsc>TRUE</ntsc>
                                        </rate>
                                        <string>00:00:00:00</string>
                                        <frame>0</frame>
                                        <displayformat>NDF</displayformat>
                                        <media>
                                            <video/>
                                            <audio/>
                                        </media>
                                    </timecode>
                                </file>
                                <name>/home/davidk/code/python/JC-render/JC-examples/yoga.mp4</name>
                                <rate>
                                    <timebase>30</timebase>
                                    <ntsc>TRUE</ntsc>
                                </rate>
                                <start>8292</start>
                                <end>8294</end>
                            </clipitem>
                            <clipitem frameBlend="FALSE" id="clipitem-167">
                                <media>
                                    <video>
                                        <samplecharacteristics>
                                            <height>720</height>
                                            <width>1270</width>
                                        </samplecharacteristics>
                                    </video>
                                </media>
                                <file id="file-1">
                                    <pathurl>/home/davidk/code/python/JC-render/JC-examples/yoga.mp4</pathurl>
                                    <name>yoga.mp4</name>
                                    <rate>
                                        <timebase>30</timebase>
                                        <ntsc>TRUE</ntsc>
                                    </rate>
                                    <duration>54922</duration>
                                    <timecode>
                                        <rate>
                                            <timebase>30</timebase>
                                            <ntsc>TRUE</ntsc>
                                        </rate>
                                        <string>00:00:00:00</string>
                                        <frame>0</frame>
                                        <displayformat>NDF</displayformat>
                                        <media>
                                            <video/>
                                            <audio/>
                                        </media>
                                    </timecode>
                                </file>
                                <name>/home/davidk/code/python/JC-render/JC-examples/yoga.mp4</name>
                                <rate>
                                    <timebase>30</timebase>
                                    <ntsc>TRUE</ntsc>
                                </rate>
                                <start>8294</start>
                                <end>8365</end>
                            </clipitem>
                            <clipitem frameBlend="FALSE" id="clipitem-168">
                                <media>
                                    <video>
                                        <samplecharacteristics>
                                            <height>720</height>
                                            <width>1270</width>
                                        </samplecharacteristics>
                                    </video>
                                </media>
                                <file id="file-1">
                                    <pathurl>/home/davidk/code/python/JC-render/JC-examples/yoga.mp4</pathurl>
                                    <name>yoga.mp4</name>
                                    <rate>
                                        <timebase>30</timebase>
                                        <ntsc>TRUE</ntsc>
                                    </rate>
                                    <duration>54922</duration>
                                    <timecode>
                                        <rate>
                                            <timebase>30</timebase>
                                            <ntsc>TRUE</ntsc>
                                        </rate>
                                        <string>00:00:00:00</string>
                                        <frame>0</frame>
                                        <displayformat>NDF</displayformat>
                                        <media>
                                            <video/>
                                            <audio/>
                                        </media>
                                    </timecode>
                                </file>
                                <name>/home/davidk/code/python/JC-render/JC-examples/yoga.mp4</name>
                                <rate>
                                    <timebase>30</timebase>
                                    <ntsc>TRUE</ntsc>
                                </rate>
                                <start>8365</start>
                                <end>8378</end>
                            </clipitem>
                            <clipitem frameBlend="FALSE" id="clipitem-169">
                                <media>
                                    <video>
                                        <samplecharacteristics>
                                            <height>720</height>
                                            <width>1270</width>
                                        </samplecharacteristics>
                                    </video>
                                </media>
                                <file id="file-1">
                                    <pathurl>/home/davidk/code/python/JC-render/JC-examples/yoga.mp4</pathurl>
                                    <name>yoga.mp4</name>
                                    <rate>
                                        <timebase>30</timebase>
                                        <ntsc>TRUE</ntsc>
                                    </rate>
                                    <duration>54922</duration>
                                    <timecode>
                                        <rate>
                                            <timebase>30</timebase>
                                            <ntsc>TRUE</ntsc>
                                        </rate>
                                        <string>00:00:00:00</string>
                                        <frame>0</frame>
                                        <displayformat>NDF</displayformat>
                                        <media>
                                            <video/>
                                            <audio/>
                                        </media>
                                    </timecode>
                                </file>
                                <name>/home/davidk/code/python/JC-render/JC-examples/yoga.mp4</name>
                                <rate>
                                    <timebase>30</timebase>
                                    <ntsc>TRUE</ntsc>
                                </rate>
                                <start>8378</start>
                                <end>8393</end>
                            </clipitem>
                            <clipitem frameBlend="FALSE" id="clipitem-170">
                                <media>
                                    <video>
                                        <samplecharacteristics>
                                            <height>720</height>
                                            <width>1270</width>
                                        </samplecharacteristics>
                                    </video>
                                </media>
                                <file id="file-1">
                                    <pathurl>/home/davidk/code/python/JC-render/JC-examples/yoga.mp4</pathurl>
                                    <name>yoga.mp4</name>
                                    <rate>
                                        <timebase>30</timebase>
                                        <ntsc>TRUE</ntsc>
                                    </rate>
                                    <duration>54922</duration>
                                    <timecode>
                                        <rate>
                                            <timebase>30</timebase>
                                            <ntsc>TRUE</ntsc>
                                        </rate>
                                        <string>00:00:00:00</string>
                                        <frame>0</frame>
                                        <displayformat>NDF</displayformat>
                                        <media>
                                            <video/>
                                            <audio/>
                                        </media>
                                    </timecode>
                                </file>
                                <name>/home/davidk/code/python/JC-render/JC-examples/yoga.mp4</name>
                                <rate>
                                    <timebase>30</timebase>
                                    <ntsc>TRUE</ntsc>
                                </rate>
                                <start>8393</start>
                                <end>8405</end>
                            </clipitem>
                            <clipitem frameBlend="FALSE" id="clipitem-171">
                                <media>
                                    <video>
                                        <samplecharacteristics>
                                            <height>720</height>
                                            <width>1270</width>
                                        </samplecharacteristics>
                                    </video>
                                </media>
                                <file id="file-1">
                                    <pathurl>/home/davidk/code/python/JC-render/JC-examples/yoga.mp4</pathurl>
                                    <name>yoga.mp4</name>
                                    <rate>
                                        <timebase>30</timebase>
                                        <ntsc>TRUE</ntsc>
                                    </rate>
                                    <duration>54922</duration>
                                    <timecode>
                                        <rate>
                                            <timebase>30</timebase>
                                            <ntsc>TRUE</ntsc>
                                        </rate>
                                        <string>00:00:00:00</string>
                                        <frame>0</frame>
                                        <displayformat>NDF</displayformat>
                                        <media>
                                            <video/>
                                            <audio/>
                                        </media>
                                    </timecode>
                                </file>
                                <name>/home/davidk/code/python/JC-render/JC-examples/yoga.mp4</name>
                                <rate>
                                    <timebase>30</timebase>
                                    <ntsc>TRUE</ntsc>
                                </rate>
                                <start>8405</start>
                                <end>8484</end>
                            </clipitem>
                            <clipitem frameBlend="FALSE" id="clipitem-172">
                                <media>
                                    <video>
                                        <samplecharacteristics>
                                            <height>720</height>
                                            <width>1270</width>
                                        </samplecharacteristics>
                                    </video>
                                </media>
                                <file id="file-1">
                                    <pathurl>/home/davidk/code/python/JC-render/JC-examples/yoga.mp4</pathurl>
                                    <name>yoga.mp4</name>
                                    <rate>
                                        <timebase>30</timebase>
                                        <ntsc>TRUE</ntsc>
                                    </rate>
                                    <duration>54922</duration>
                                    <timecode>
                                        <rate>
                                            <timebase>30</timebase>
                                            <ntsc>TRUE</ntsc>
                                        </rate>
                                        <string>00:00:00:00</string>
                                        <frame>0</frame>
                                        <displayformat>NDF</displayformat>
                                        <media>
                                            <video/>
                                            <audio/>
                                        </media>
                                    </timecode>
                                </file>
                                <name>/home/davidk/code/python/JC-render/JC-examples/yoga.mp4</name>
                                <rate>
                                    <timebase>30</timebase>
                                    <ntsc>TRUE</ntsc>
                                </rate>
                                <start>8484</start>
                                <end>8517</end>
                            </clipitem>
                            <clipitem frameBlend="FALSE" id="clipitem-173">
                                <media>
                                    <video>
                                        <samplecharacteristics>
                                            <height>720</height>
                                            <width>1270</width>
                                        </samplecharacteristics>
                                    </video>
                                </media>
                                <file id="file-1">
                                    <pathurl>/home/davidk/code/python/JC-render/JC-examples/yoga.mp4</pathurl>
                                    <name>yoga.mp4</name>
                                    <rate>
                                        <timebase>30</timebase>
                                        <ntsc>TRUE</ntsc>
                                    </rate>
                                    <duration>54922</duration>
                                    <timecode>
                                        <rate>
                                            <timebase>30</timebase>
                                            <ntsc>TRUE</ntsc>
                                        </rate>
                                        <string>00:00:00:00</string>
                                        <frame>0</frame>
                                        <displayformat>NDF</displayformat>
                                        <media>
                                            <video/>
                                            <audio/>
                                        </media>
                                    </timecode>
                                </file>
                                <name>/home/davidk/code/python/JC-render/JC-examples/yoga.mp4</name>
                                <rate>
                                    <timebase>30</timebase>
                                    <ntsc>TRUE</ntsc>
                                </rate>
                                <start>8517</start>
                                <end>8578</end>
                            </clipitem>
                            <clipitem frameBlend="FALSE" id="clipitem-174">
                                <media>
                                    <video>
                                        <samplecharacteristics>
                                            <height>720</height>
                                            <width>1270</width>
                                        </samplecharacteristics>
                                    </video>
                                </media>
                                <file id="file-1">
                                    <pathurl>/home/davidk/code/python/JC-render/JC-examples/yoga.mp4</pathurl>
                                    <name>yoga.mp4</name>
                                    <rate>
                                        <timebase>30</timebase>
                                        <ntsc>TRUE</ntsc>
                                    </rate>
                                    <duration>54922</duration>
                                    <timecode>
                                        <rate>
                                            <timebase>30</timebase>
                                            <ntsc>TRUE</ntsc>
                                        </rate>
                                        <string>00:00:00:00</string>
                                        <frame>0</frame>
                                        <displayformat>NDF</displayformat>
                                        <media>
                                            <video/>
                                            <audio/>
                                        </media>
                                    </timecode>
                                </file>
                                <name>/home/davidk/code/python/JC-render/JC-examples/yoga.mp4</name>
                                <rate>
                                    <timebase>30</timebase>
                                    <ntsc>TRUE</ntsc>
                                </rate>
                                <start>8578</start>
                                <end>8583</end>
                            </clipitem>
                            <clipitem frameBlend="FALSE" id="clipitem-175">
                                <media>
                                    <video>
                                        <samplecharacteristics>
                                            <height>720</height>
                                            <width>1270</width>
                                        </samplecharacteristics>
                                    </video>
                                </media>
                                <file id="file-1">
                                    <pathurl>/home/davidk/code/python/JC-render/JC-examples/yoga.mp4</pathurl>
                                    <name>yoga.mp4</name>
                                    <rate>
                                        <timebase>30</timebase>
                                        <ntsc>TRUE</ntsc>
                                    </rate>
                                    <duration>54922</duration>
                                    <timecode>
                                        <rate>
                                            <timebase>30</timebase>
                                            <ntsc>TRUE</ntsc>
                                        </rate>
                                        <string>00:00:00:00</string>
                                        <frame>0</frame>
                                        <displayformat>NDF</displayformat>
                                        <media>
                                            <video/>
                                            <audio/>
                                        </media>
                                    </timecode>
                                </file>
                                <name>/home/davidk/code/python/JC-render/JC-examples/yoga.mp4</name>
                                <rate>
                                    <timebase>30</timebase>
                                    <ntsc>TRUE</ntsc>
                                </rate>
                                <start>8583</start>
                                <end>8616</end>
                            </clipitem>
                            <clipitem frameBlend="FALSE" id="clipitem-176">
                                <media>
                                    <video>
                                        <samplecharacteristics>
                                            <height>720</height>
                                            <width>1270</width>
                                        </samplecharacteristics>
                                    </video>
                                </media>
                                <file id="file-1">
                                    <pathurl>/home/davidk/code/python/JC-render/JC-examples/yoga.mp4</pathurl>
                                    <name>yoga.mp4</name>
                                    <rate>
                                        <timebase>30</timebase>
                                        <ntsc>TRUE</ntsc>
                                    </rate>
                                    <duration>54922</duration>
                                    <timecode>
                                        <rate>
                                            <timebase>30</timebase>
                                            <ntsc>TRUE</ntsc>
                                        </rate>
                                        <string>00:00:00:00</string>
                                        <frame>0</frame>
                                        <displayformat>NDF</displayformat>
                                        <media>
                                            <video/>
                                            <audio/>
                                        </media>
                                    </timecode>
                                </file>
                                <name>/home/davidk/code/python/JC-render/JC-examples/yoga.mp4</name>
                                <rate>
                                    <timebase>30</timebase>
                                    <ntsc>TRUE</ntsc>
                                </rate>
                                <start>8616</start>
                                <end>8625</end>
                            </clipitem>
                            <clipitem frameBlend="FALSE" id="clipitem-177">
                                <media>
                                    <video>
                                        <samplecharacteristics>
                                            <height>720</height>
                                            <width>1270</width>
                                        </samplecharacteristics>
                                    </video>
                                </media>
                                <file id="file-1">
                                    <pathurl>/home/davidk/code/python/JC-render/JC-examples/yoga.mp4</pathurl>
                                    <name>yoga.mp4</name>
                                    <rate>
                                        <timebase>30</timebase>
                                        <ntsc>TRUE</ntsc>
                                    </rate>
                                    <duration>54922</duration>
                                    <timecode>
                                        <rate>
                                            <timebase>30</timebase>
                                            <ntsc>TRUE</ntsc>
                                        </rate>
                                        <string>00:00:00:00</string>
                                        <frame>0</frame>
                                        <displayformat>NDF</displayformat>
                                        <media>
                                            <video/>
                                            <audio/>
                                        </media>
                                    </timecode>
                                </file>
                                <name>/home/davidk/code/python/JC-render/JC-examples/yoga.mp4</name>
                                <rate>
                                    <timebase>30</timebase>
                                    <ntsc>TRUE</ntsc>
                                </rate>
                                <start>8625</start>
                                <end>8668</end>
                            </clipitem>
                            <clipitem frameBlend="FALSE" id="clipitem-178">
                                <media>
                                    <video>
                                        <samplecharacteristics>
                                            <height>720</height>
                                            <width>1270</width>
                                        </samplecharacteristics>
                                    </video>
                                </media>
                                <file id="file-1">
                                    <pathurl>/home/davidk/code/python/JC-render/JC-examples/yoga.mp4</pathurl>
                                    <name>yoga.mp4</name>
                                    <rate>
                                        <timebase>30</timebase>
                                        <ntsc>TRUE</ntsc>
                                    </rate>
                                    <duration>54922</duration>
                                    <timecode>
                                        <rate>
                                            <timebase>30</timebase>
                                            <ntsc>TRUE</ntsc>
                                        </rate>
                                        <string>00:00:00:00</string>
                                        <frame>0</frame>
                                        <displayformat>NDF</displayformat>
                                        <media>
                                            <video/>
                                            <audio/>
                                        </media>
                                    </timecode>
                                </file>
                                <name>/home/davidk/code/python/JC-render/JC-examples/yoga.mp4</name>
                                <rate>
                                    <timebase>30</timebase>
                                    <ntsc>TRUE</ntsc>
                                </rate>
                                <start>8668</start>
                                <end>8684</end>
                            </clipitem>
                            <clipitem frameBlend="FALSE" id="clipitem-179">
                                <media>
                                    <video>
                                        <samplecharacteristics>
                                            <height>720</height>
                                            <width>1270</width>
                                        </samplecharacteristics>
                                    </video>
                                </media>
                                <file id="file-1">
                                    <pathurl>/home/davidk/code/python/JC-render/JC-examples/yoga.mp4</pathurl>
                                    <name>yoga.mp4</name>
                                    <rate>
                                        <timebase>30</timebase>
                                        <ntsc>TRUE</ntsc>
                                    </rate>
                                    <duration>54922</duration>
                                    <timecode>
                                        <rate>
                                            <timebase>30</timebase>
                                            <ntsc>TRUE</ntsc>
                                        </rate>
                                        <string>00:00:00:00</string>
                                        <frame>0</frame>
                                        <displayformat>NDF</displayformat>
                                        <media>
                                            <video/>
                                            <audio/>
                                        </media>
                                    </timecode>
                                </file>
                                <name>/home/davidk/code/python/JC-render/JC-examples/yoga.mp4</name>
                                <rate>
                                    <timebase>30</timebase>
                                    <ntsc>TRUE</ntsc>
                                </rate>
                                <start>8684</start>
                                <end>8707</end>
                            </clipitem>
                            <clipitem frameBlend="FALSE" id="clipitem-180">
                                <media>
                                    <video>
                                        <samplecharacteristics>
                                            <height>720</height>
                                            <width>1270</width>
                                        </samplecharacteristics>
                                    </video>
                                </media>
                                <file id="file-1">
                                    <pathurl>/home/davidk/code/python/JC-render/JC-examples/yoga.mp4</pathurl>
                                    <name>yoga.mp4</name>
                                    <rate>
                                        <timebase>30</timebase>
                                        <ntsc>TRUE</ntsc>
                                    </rate>
                                    <duration>54922</duration>
                                    <timecode>
                                        <rate>
                                            <timebase>30</timebase>
                                            <ntsc>TRUE</ntsc>
                                        </rate>
                                        <string>00:00:00:00</string>
                                        <frame>0</frame>
                                        <displayformat>NDF</displayformat>
                                        <media>
                                            <video/>
                                            <audio/>
                                        </media>
                                    </timecode>
                                </file>
                                <name>/home/davidk/code/python/JC-render/JC-examples/yoga.mp4</name>
                                <rate>
                                    <timebase>30</timebase>
                                    <ntsc>TRUE</ntsc>
                                </rate>
                                <start>8707</start>
                                <end>8729</end>
                            </clipitem>
                            <clipitem frameBlend="FALSE" id="clipitem-181">
                                <media>
                                    <video>
                                        <samplecharacteristics>
                                            <height>720</height>
                                            <width>1270</width>
                                        </samplecharacteristics>
                                    </video>
                                </media>
                                <file id="file-1">
                                    <pathurl>/home/davidk/code/python/JC-render/JC-examples/yoga.mp4</pathurl>
                                    <name>yoga.mp4</name>
                                    <rate>
                                        <timebase>30</timebase>
                                        <ntsc>TRUE</ntsc>
                                    </rate>
                                    <duration>54922</duration>
                                    <timecode>
                                        <rate>
                                            <timebase>30</timebase>
                                            <ntsc>TRUE</ntsc>
                                        </rate>
                                        <string>00:00:00:00</string>
                                        <frame>0</frame>
                                        <displayformat>NDF</displayformat>
                                        <media>
                                            <video/>
                                            <audio/>
                                        </media>
                                    </timecode>
                                </file>
                                <name>/home/davidk/code/python/JC-render/JC-examples/yoga.mp4</name>
                                <rate>
                                    <timebase>30</timebase>
                                    <ntsc>TRUE</ntsc>
                                </rate>
                                <start>8729</start>
                                <end>8797</end>
                            </clipitem>
                            <clipitem frameBlend="FALSE" id="clipitem-182">
                                <media>
                                    <video>
                                        <samplecharacteristics>
                                            <height>720</height>
                                            <width>1270</width>
                                        </samplecharacteristics>
                                    </video>
                                </media>
                                <file id="file-1">
                                    <pathurl>/home/davidk/code/python/JC-render/JC-examples/yoga.mp4</pathurl>
                                    <name>yoga.mp4</name>
                                    <rate>
                                        <timebase>30</timebase>
                                        <ntsc>TRUE</ntsc>
                                    </rate>
                                    <duration>54922</duration>
                                    <timecode>
                                        <rate>
                                            <timebase>30</timebase>
                                            <ntsc>TRUE</ntsc>
                                        </rate>
                                        <string>00:00:00:00</string>
                                        <frame>0</frame>
                                        <displayformat>NDF</displayformat>
                                        <media>
                                            <video/>
                                            <audio/>
                                        </media>
                                    </timecode>
                                </file>
                                <name>/home/davidk/code/python/JC-render/JC-examples/yoga.mp4</name>
                                <rate>
                                    <timebase>30</timebase>
                                    <ntsc>TRUE</ntsc>
                                </rate>
                                <start>8797</start>
                                <end>8806</end>
                            </clipitem>
                            <clipitem frameBlend="FALSE" id="clipitem-183">
                                <media>
                                    <video>
                                        <samplecharacteristics>
                                            <height>720</height>
                                            <width>1270</width>
                                        </samplecharacteristics>
                                    </video>
                                </media>
                                <file id="file-1">
                                    <pathurl>/home/davidk/code/python/JC-render/JC-examples/yoga.mp4</pathurl>
                                    <name>yoga.mp4</name>
                                    <rate>
                                        <timebase>30</timebase>
                                        <ntsc>TRUE</ntsc>
                                    </rate>
                                    <duration>54922</duration>
                                    <timecode>
                                        <rate>
                                            <timebase>30</timebase>
                                            <ntsc>TRUE</ntsc>
                                        </rate>
                                        <string>00:00:00:00</string>
                                        <frame>0</frame>
                                        <displayformat>NDF</displayformat>
                                        <media>
                                            <video/>
                                            <audio/>
                                        </media>
                                    </timecode>
                                </file>
                                <name>/home/davidk/code/python/JC-render/JC-examples/yoga.mp4</name>
                                <rate>
                                    <timebase>30</timebase>
                                    <ntsc>TRUE</ntsc>
                                </rate>
                                <start>8806</start>
                                <end>8821</end>
                            </clipitem>
                            <clipitem frameBlend="FALSE" id="clipitem-184">
                                <media>
                                    <video>
                                        <samplecharacteristics>
                                            <height>720</height>
                                            <width>1270</width>
                                        </samplecharacteristics>
                                    </video>
                                </media>
                                <file id="file-1">
                                    <pathurl>/home/davidk/code/python/JC-render/JC-examples/yoga.mp4</pathurl>
                                    <name>yoga.mp4</name>
                                    <rate>
                                        <timebase>30</timebase>
                                        <ntsc>TRUE</ntsc>
                                    </rate>
                                    <duration>54922</duration>
                                    <timecode>
                                        <rate>
                                            <timebase>30</timebase>
                                            <ntsc>TRUE</ntsc>
                                        </rate>
                                        <string>00:00:00:00</string>
                                        <frame>0</frame>
                                        <displayformat>NDF</displayformat>
                                        <media>
                                            <video/>
                                            <audio/>
                                        </media>
                                    </timecode>
                                </file>
                                <name>/home/davidk/code/python/JC-render/JC-examples/yoga.mp4</name>
                                <rate>
                                    <timebase>30</timebase>
                                    <ntsc>TRUE</ntsc>
                                </rate>
                                <start>8821</start>
                                <end>8827</end>
                            </clipitem>
                            <clipitem frameBlend="FALSE" id="clipitem-185">
                                <media>
                                    <video>
                                        <samplecharacteristics>
                                            <height>720</height>
                                            <width>1270</width>
                                        </samplecharacteristics>
                                    </video>
                                </media>
                                <file id="file-1">
                                    <pathurl>/home/davidk/code/python/JC-render/JC-examples/yoga.mp4</pathurl>
                                    <name>yoga.mp4</name>
                                    <rate>
                                        <timebase>30</timebase>
                                        <ntsc>TRUE</ntsc>
                                    </rate>
                                    <duration>54922</duration>
                                    <timecode>
                                        <rate>
                                            <timebase>30</timebase>
                                            <ntsc>TRUE</ntsc>
                                        </rate>
                                        <string>00:00:00:00</string>
                                        <frame>0</frame>
                                        <displayformat>NDF</displayformat>
                                        <media>
                                            <video/>
                                            <audio/>
                                        </media>
                                    </timecode>
                                </file>
                                <name>/home/davidk/code/python/JC-render/JC-examples/yoga.mp4</name>
                                <rate>
                                    <timebase>30</timebase>
                                    <ntsc>TRUE</ntsc>
                                </rate>
                                <start>8827</start>
                                <end>8919</end>
                            </clipitem>
                            <clipitem frameBlend="FALSE" id="clipitem-186">
                                <media>
                                    <video>
                                        <samplecharacteristics>
                                            <height>720</height>
                                            <width>1270</width>
                                        </samplecharacteristics>
                                    </video>
                                </media>
                                <file id="file-1">
                                    <pathurl>/home/davidk/code/python/JC-render/JC-examples/yoga.mp4</pathurl>
                                    <name>yoga.mp4</name>
                                    <rate>
                                        <timebase>30</timebase>
                                        <ntsc>TRUE</ntsc>
                                    </rate>
                                    <duration>54922</duration>
                                    <timecode>
                                        <rate>
                                            <timebase>30</timebase>
                                            <ntsc>TRUE</ntsc>
                                        </rate>
                                        <string>00:00:00:00</string>
                                        <frame>0</frame>
                                        <displayformat>NDF</displayformat>
                                        <media>
                                            <video/>
                                            <audio/>
                                        </media>
                                    </timecode>
                                </file>
                                <name>/home/davidk/code/python/JC-render/JC-examples/yoga.mp4</name>
                                <rate>
                                    <timebase>30</timebase>
                                    <ntsc>TRUE</ntsc>
                                </rate>
                                <start>8919</start>
                                <end>8924</end>
                            </clipitem>
                            <clipitem frameBlend="FALSE" id="clipitem-187">
                                <media>
                                    <video>
                                        <samplecharacteristics>
                                            <height>720</height>
                                            <width>1270</width>
                                        </samplecharacteristics>
                                    </video>
                                </media>
                                <file id="file-1">
                                    <pathurl>/home/davidk/code/python/JC-render/JC-examples/yoga.mp4</pathurl>
                                    <name>yoga.mp4</name>
                                    <rate>
                                        <timebase>30</timebase>
                                        <ntsc>TRUE</ntsc>
                                    </rate>
                                    <duration>54922</duration>
                                    <timecode>
                                        <rate>
                                            <timebase>30</timebase>
                                            <ntsc>TRUE</ntsc>
                                        </rate>
                                        <string>00:00:00:00</string>
                                        <frame>0</frame>
                                        <displayformat>NDF</displayformat>
                                        <media>
                                            <video/>
                                            <audio/>
                                        </media>
                                    </timecode>
                                </file>
                                <name>/home/davidk/code/python/JC-render/JC-examples/yoga.mp4</name>
                                <rate>
                                    <timebase>30</timebase>
                                    <ntsc>TRUE</ntsc>
                                </rate>
                                <start>8924</start>
                                <end>9010</end>
                            </clipitem>
                            <clipitem frameBlend="FALSE" id="clipitem-188">
                                <media>
                                    <video>
                                        <samplecharacteristics>
                                            <height>720</height>
                                            <width>1270</width>
                                        </samplecharacteristics>
                                    </video>
                                </media>
                                <file id="file-1">
                                    <pathurl>/home/davidk/code/python/JC-render/JC-examples/yoga.mp4</pathurl>
                                    <name>yoga.mp4</name>
                                    <rate>
                                        <timebase>30</timebase>
                                        <ntsc>TRUE</ntsc>
                                    </rate>
                                    <duration>54922</duration>
                                    <timecode>
                                        <rate>
                                            <timebase>30</timebase>
                                            <ntsc>TRUE</ntsc>
                                        </rate>
                                        <string>00:00:00:00</string>
                                        <frame>0</frame>
                                        <displayformat>NDF</displayformat>
                                        <media>
                                            <video/>
                                            <audio/>
                                        </media>
                                    </timecode>
                                </file>
                                <name>/home/davidk/code/python/JC-render/JC-examples/yoga.mp4</name>
                                <rate>
                                    <timebase>30</timebase>
                                    <ntsc>TRUE</ntsc>
                                </rate>
                                <start>9010</start>
                                <end>9025</end>
                            </clipitem>
                            <clipitem frameBlend="FALSE" id="clipitem-189">
                                <media>
                                    <video>
                                        <samplecharacteristics>
                                            <height>720</height>
                                            <width>1270</width>
                                        </samplecharacteristics>
                                    </video>
                                </media>
                                <file id="file-1">
                                    <pathurl>/home/davidk/code/python/JC-render/JC-examples/yoga.mp4</pathurl>
                                    <name>yoga.mp4</name>
                                    <rate>
                                        <timebase>30</timebase>
                                        <ntsc>TRUE</ntsc>
                                    </rate>
                                    <duration>54922</duration>
                                    <timecode>
                                        <rate>
                                            <timebase>30</timebase>
                                            <ntsc>TRUE</ntsc>
                                        </rate>
                                        <string>00:00:00:00</string>
                                        <frame>0</frame>
                                        <displayformat>NDF</displayformat>
                                        <media>
                                            <video/>
                                            <audio/>
                                        </media>
                                    </timecode>
                                </file>
                                <name>/home/davidk/code/python/JC-render/JC-examples/yoga.mp4</name>
                                <rate>
                                    <timebase>30</timebase>
                                    <ntsc>TRUE</ntsc>
                                </rate>
                                <start>9025</start>
                                <end>9173</end>
                            </clipitem>
                            <clipitem frameBlend="FALSE" id="clipitem-190">
                                <media>
                                    <video>
                                        <samplecharacteristics>
                                            <height>720</height>
                                            <width>1270</width>
                                        </samplecharacteristics>
                                    </video>
                                </media>
                                <file id="file-1">
                                    <pathurl>/home/davidk/code/python/JC-render/JC-examples/yoga.mp4</pathurl>
                                    <name>yoga.mp4</name>
                                    <rate>
                                        <timebase>30</timebase>
                                        <ntsc>TRUE</ntsc>
                                    </rate>
                                    <duration>54922</duration>
                                    <timecode>
                                        <rate>
                                            <timebase>30</timebase>
                                            <ntsc>TRUE</ntsc>
                                        </rate>
                                        <string>00:00:00:00</string>
                                        <frame>0</frame>
                                        <displayformat>NDF</displayformat>
                                        <media>
                                            <video/>
                                            <audio/>
                                        </media>
                                    </timecode>
                                </file>
                                <name>/home/davidk/code/python/JC-render/JC-examples/yoga.mp4</name>
                                <rate>
                                    <timebase>30</timebase>
                                    <ntsc>TRUE</ntsc>
                                </rate>
                                <start>9173</start>
                                <end>9193</end>
                            </clipitem>
                            <clipitem frameBlend="FALSE" id="clipitem-191">
                                <media>
                                    <video>
                                        <samplecharacteristics>
                                            <height>720</height>
                                            <width>1270</width>
                                        </samplecharacteristics>
                                    </video>
                                </media>
                                <file id="file-1">
                                    <pathurl>/home/davidk/code/python/JC-render/JC-examples/yoga.mp4</pathurl>
                                    <name>yoga.mp4</name>
                                    <rate>
                                        <timebase>30</timebase>
                                        <ntsc>TRUE</ntsc>
                                    </rate>
                                    <duration>54922</duration>
                                    <timecode>
                                        <rate>
                                            <timebase>30</timebase>
                                            <ntsc>TRUE</ntsc>
                                        </rate>
                                        <string>00:00:00:00</string>
                                        <frame>0</frame>
                                        <displayformat>NDF</displayformat>
                                        <media>
                                            <video/>
                                            <audio/>
                                        </media>
                                    </timecode>
                                </file>
                                <name>/home/davidk/code/python/JC-render/JC-examples/yoga.mp4</name>
                                <rate>
                                    <timebase>30</timebase>
                                    <ntsc>TRUE</ntsc>
                                </rate>
                                <start>9193</start>
                                <end>9208</end>
                            </clipitem>
                            <clipitem frameBlend="FALSE" id="clipitem-192">
                                <media>
                                    <video>
                                        <samplecharacteristics>
                                            <height>720</height>
                                            <width>1270</width>
                                        </samplecharacteristics>
                                    </video>
                                </media>
                                <file id="file-1">
                                    <pathurl>/home/davidk/code/python/JC-render/JC-examples/yoga.mp4</pathurl>
                                    <name>yoga.mp4</name>
                                    <rate>
                                        <timebase>30</timebase>
                                        <ntsc>TRUE</ntsc>
                                    </rate>
                                    <duration>54922</duration>
                                    <timecode>
                                        <rate>
                                            <timebase>30</timebase>
                                            <ntsc>TRUE</ntsc>
                                        </rate>
                                        <string>00:00:00:00</string>
                                        <frame>0</frame>
                                        <displayformat>NDF</displayformat>
                                        <media>
                                            <video/>
                                            <audio/>
                                        </media>
                                    </timecode>
                                </file>
                                <name>/home/davidk/code/python/JC-render/JC-examples/yoga.mp4</name>
                                <rate>
                                    <timebase>30</timebase>
                                    <ntsc>TRUE</ntsc>
                                </rate>
                                <start>9208</start>
                                <end>9210</end>
                            </clipitem>
                            <clipitem frameBlend="FALSE" id="clipitem-193">
                                <media>
                                    <video>
                                        <samplecharacteristics>
                                            <height>720</height>
                                            <width>1270</width>
                                        </samplecharacteristics>
                                    </video>
                                </media>
                                <file id="file-1">
                                    <pathurl>/home/davidk/code/python/JC-render/JC-examples/yoga.mp4</pathurl>
                                    <name>yoga.mp4</name>
                                    <rate>
                                        <timebase>30</timebase>
                                        <ntsc>TRUE</ntsc>
                                    </rate>
                                    <duration>54922</duration>
                                    <timecode>
                                        <rate>
                                            <timebase>30</timebase>
                                            <ntsc>TRUE</ntsc>
                                        </rate>
                                        <string>00:00:00:00</string>
                                        <frame>0</frame>
                                        <displayformat>NDF</displayformat>
                                        <media>
                                            <video/>
                                            <audio/>
                                        </media>
                                    </timecode>
                                </file>
                                <name>/home/davidk/code/python/JC-render/JC-examples/yoga.mp4</name>
                                <rate>
                                    <timebase>30</timebase>
                                    <ntsc>TRUE</ntsc>
                                </rate>
                                <start>9210</start>
                                <end>9278</end>
                            </clipitem>
                            <clipitem frameBlend="FALSE" id="clipitem-194">
                                <media>
                                    <video>
                                        <samplecharacteristics>
                                            <height>720</height>
                                            <width>1270</width>
                                        </samplecharacteristics>
                                    </video>
                                </media>
                                <file id="file-1">
                                    <pathurl>/home/davidk/code/python/JC-render/JC-examples/yoga.mp4</pathurl>
                                    <name>yoga.mp4</name>
                                    <rate>
                                        <timebase>30</timebase>
                                        <ntsc>TRUE</ntsc>
                                    </rate>
                                    <duration>54922</duration>
                                    <timecode>
                                        <rate>
                                            <timebase>30</timebase>
                                            <ntsc>TRUE</ntsc>
                                        </rate>
                                        <string>00:00:00:00</string>
                                        <frame>0</frame>
                                        <displayformat>NDF</displayformat>
                                        <media>
                                            <video/>
                                            <audio/>
                                        </media>
                                    </timecode>
                                </file>
                                <name>/home/davidk/code/python/JC-render/JC-examples/yoga.mp4</name>
                                <rate>
                                    <timebase>30</timebase>
                                    <ntsc>TRUE</ntsc>
                                </rate>
                                <start>9278</start>
                                <end>9297</end>
                            </clipitem>
                            <clipitem frameBlend="FALSE" id="clipitem-195">
                                <media>
                                    <video>
                                        <samplecharacteristics>
                                            <height>720</height>
                                            <width>1270</width>
                                        </samplecharacteristics>
                                    </video>
                                </media>
                                <file id="file-1">
                                    <pathurl>/home/davidk/code/python/JC-render/JC-examples/yoga.mp4</pathurl>
                                    <name>yoga.mp4</name>
                                    <rate>
                                        <timebase>30</timebase>
                                        <ntsc>TRUE</ntsc>
                                    </rate>
                                    <duration>54922</duration>
                                    <timecode>
                                        <rate>
                                            <timebase>30</timebase>
                                            <ntsc>TRUE</ntsc>
                                        </rate>
                                        <string>00:00:00:00</string>
                                        <frame>0</frame>
                                        <displayformat>NDF</displayformat>
                                        <media>
                                            <video/>
                                            <audio/>
                                        </media>
                                    </timecode>
                                </file>
                                <name>/home/davidk/code/python/JC-render/JC-examples/yoga.mp4</name>
                                <rate>
                                    <timebase>30</timebase>
                                    <ntsc>TRUE</ntsc>
                                </rate>
                                <start>9297</start>
                                <end>9313</end>
                            </clipitem>
                            <clipitem frameBlend="FALSE" id="clipitem-196">
                                <media>
                                    <video>
                                        <samplecharacteristics>
                                            <height>720</height>
                                            <width>1270</width>
                                        </samplecharacteristics>
                                    </video>
                                </media>
                                <file id="file-1">
                                    <pathurl>/home/davidk/code/python/JC-render/JC-examples/yoga.mp4</pathurl>
                                    <name>yoga.mp4</name>
                                    <rate>
                                        <timebase>30</timebase>
                                        <ntsc>TRUE</ntsc>
                                    </rate>
                                    <duration>54922</duration>
                                    <timecode>
                                        <rate>
                                            <timebase>30</timebase>
                                            <ntsc>TRUE</ntsc>
                                        </rate>
                                        <string>00:00:00:00</string>
                                        <frame>0</frame>
                                        <displayformat>NDF</displayformat>
                                        <media>
                                            <video/>
                                            <audio/>
                                        </media>
                                    </timecode>
                                </file>
                                <name>/home/davidk/code/python/JC-render/JC-examples/yoga.mp4</name>
                                <rate>
                                    <timebase>30</timebase>
                                    <ntsc>TRUE</ntsc>
                                </rate>
                                <start>9313</start>
                                <end>9318</end>
                            </clipitem>
                            <clipitem frameBlend="FALSE" id="clipitem-197">
                                <media>
                                    <video>
                                        <samplecharacteristics>
                                            <height>720</height>
                                            <width>1270</width>
                                        </samplecharacteristics>
                                    </video>
                                </media>
                                <file id="file-1">
                                    <pathurl>/home/davidk/code/python/JC-render/JC-examples/yoga.mp4</pathurl>
                                    <name>yoga.mp4</name>
                                    <rate>
                                        <timebase>30</timebase>
                                        <ntsc>TRUE</ntsc>
                                    </rate>
                                    <duration>54922</duration>
                                    <timecode>
                                        <rate>
                                            <timebase>30</timebase>
                                            <ntsc>TRUE</ntsc>
                                        </rate>
                                        <string>00:00:00:00</string>
                                        <frame>0</frame>
                                        <displayformat>NDF</displayformat>
                                        <media>
                                            <video/>
                                            <audio/>
                                        </media>
                                    </timecode>
                                </file>
                                <name>/home/davidk/code/python/JC-render/JC-examples/yoga.mp4</name>
                                <rate>
                                    <timebase>30</timebase>
                                    <ntsc>TRUE</ntsc>
                                </rate>
                                <start>9318</start>
                                <end>9396</end>
                            </clipitem>
                            <clipitem frameBlend="FALSE" id="clipitem-198">
                                <media>
                                    <video>
                                        <samplecharacteristics>
                                            <height>720</height>
                                            <width>1270</width>
                                        </samplecharacteristics>
                                    </video>
                                </media>
                                <file id="file-1">
                                    <pathurl>/home/davidk/code/python/JC-render/JC-examples/yoga.mp4</pathurl>
                                    <name>yoga.mp4</name>
                                    <rate>
                                        <timebase>30</timebase>
                                        <ntsc>TRUE</ntsc>
                                    </rate>
                                    <duration>54922</duration>
                                    <timecode>
                                        <rate>
                                            <timebase>30</timebase>
                                            <ntsc>TRUE</ntsc>
                                        </rate>
                                        <string>00:00:00:00</string>
                                        <frame>0</frame>
                                        <displayformat>NDF</displayformat>
                                        <media>
                                            <video/>
                                            <audio/>
                                        </media>
                                    </timecode>
                                </file>
                                <name>/home/davidk/code/python/JC-render/JC-examples/yoga.mp4</name>
                                <rate>
                                    <timebase>30</timebase>
                                    <ntsc>TRUE</ntsc>
                                </rate>
                                <start>9396</start>
                                <end>9450</end>
                            </clipitem>
                            <clipitem frameBlend="FALSE" id="clipitem-199">
                                <media>
                                    <video>
                                        <samplecharacteristics>
                                            <height>720</height>
                                            <width>1270</width>
                                        </samplecharacteristics>
                                    </video>
                                </media>
                                <file id="file-1">
                                    <pathurl>/home/davidk/code/python/JC-render/JC-examples/yoga.mp4</pathurl>
                                    <name>yoga.mp4</name>
                                    <rate>
                                        <timebase>30</timebase>
                                        <ntsc>TRUE</ntsc>
                                    </rate>
                                    <duration>54922</duration>
                                    <timecode>
                                        <rate>
                                            <timebase>30</timebase>
                                            <ntsc>TRUE</ntsc>
                                        </rate>
                                        <string>00:00:00:00</string>
                                        <frame>0</frame>
                                        <displayformat>NDF</displayformat>
                                        <media>
                                            <video/>
                                            <audio/>
                                        </media>
                                    </timecode>
                                </file>
                                <name>/home/davidk/code/python/JC-render/JC-examples/yoga.mp4</name>
                                <rate>
                                    <timebase>30</timebase>
                                    <ntsc>TRUE</ntsc>
                                </rate>
                                <start>9450</start>
                                <end>9553</end>
                            </clipitem>
                            <clipitem frameBlend="FALSE" id="clipitem-200">
                                <media>
                                    <video>
                                        <samplecharacteristics>
                                            <height>720</height>
                                            <width>1270</width>
                                        </samplecharacteristics>
                                    </video>
                                </media>
                                <file id="file-1">
                                    <pathurl>/home/davidk/code/python/JC-render/JC-examples/yoga.mp4</pathurl>
                                    <name>yoga.mp4</name>
                                    <rate>
                                        <timebase>30</timebase>
                                        <ntsc>TRUE</ntsc>
                                    </rate>
                                    <duration>54922</duration>
                                    <timecode>
                                        <rate>
                                            <timebase>30</timebase>
                                            <ntsc>TRUE</ntsc>
                                        </rate>
                                        <string>00:00:00:00</string>
                                        <frame>0</frame>
                                        <displayformat>NDF</displayformat>
                                        <media>
                                            <video/>
                                            <audio/>
                                        </media>
                                    </timecode>
                                </file>
                                <name>/home/davidk/code/python/JC-render/JC-examples/yoga.mp4</name>
                                <rate>
                                    <timebase>30</timebase>
                                    <ntsc>TRUE</ntsc>
                                </rate>
                                <start>9553</start>
                                <end>9572</end>
                            </clipitem>
                            <clipitem frameBlend="FALSE" id="clipitem-201">
                                <media>
                                    <video>
                                        <samplecharacteristics>
                                            <height>720</height>
                                            <width>1270</width>
                                        </samplecharacteristics>
                                    </video>
                                </media>
                                <file id="file-1">
                                    <pathurl>/home/davidk/code/python/JC-render/JC-examples/yoga.mp4</pathurl>
                                    <name>yoga.mp4</name>
                                    <rate>
                                        <timebase>30</timebase>
                                        <ntsc>TRUE</ntsc>
                                    </rate>
                                    <duration>54922</duration>
                                    <timecode>
                                        <rate>
                                            <timebase>30</timebase>
                                            <ntsc>TRUE</ntsc>
                                        </rate>
                                        <string>00:00:00:00</string>
                                        <frame>0</frame>
                                        <displayformat>NDF</displayformat>
                                        <media>
                                            <video/>
                                            <audio/>
                                        </media>
                                    </timecode>
                                </file>
                                <name>/home/davidk/code/python/JC-render/JC-examples/yoga.mp4</name>
                                <rate>
                                    <timebase>30</timebase>
                                    <ntsc>TRUE</ntsc>
                                </rate>
                                <start>9572</start>
                                <end>9654</end>
                            </clipitem>
                            <clipitem frameBlend="FALSE" id="clipitem-202">
                                <media>
                                    <video>
                                        <samplecharacteristics>
                                            <height>720</height>
                                            <width>1270</width>
                                        </samplecharacteristics>
                                    </video>
                                </media>
                                <file id="file-1">
                                    <pathurl>/home/davidk/code/python/JC-render/JC-examples/yoga.mp4</pathurl>
                                    <name>yoga.mp4</name>
                                    <rate>
                                        <timebase>30</timebase>
                                        <ntsc>TRUE</ntsc>
                                    </rate>
                                    <duration>54922</duration>
                                    <timecode>
                                        <rate>
                                            <timebase>30</timebase>
                                            <ntsc>TRUE</ntsc>
                                        </rate>
                                        <string>00:00:00:00</string>
                                        <frame>0</frame>
                                        <displayformat>NDF</displayformat>
                                        <media>
                                            <video/>
                                            <audio/>
                                        </media>
                                    </timecode>
                                </file>
                                <name>/home/davidk/code/python/JC-render/JC-examples/yoga.mp4</name>
                                <rate>
                                    <timebase>30</timebase>
                                    <ntsc>TRUE</ntsc>
                                </rate>
                                <start>9654</start>
                                <end>9694</end>
                            </clipitem>
                            <clipitem frameBlend="FALSE" id="clipitem-203">
                                <media>
                                    <video>
                                        <samplecharacteristics>
                                            <height>720</height>
                                            <width>1270</width>
                                        </samplecharacteristics>
                                    </video>
                                </media>
                                <file id="file-1">
                                    <pathurl>/home/davidk/code/python/JC-render/JC-examples/yoga.mp4</pathurl>
                                    <name>yoga.mp4</name>
                                    <rate>
                                        <timebase>30</timebase>
                                        <ntsc>TRUE</ntsc>
                                    </rate>
                                    <duration>54922</duration>
                                    <timecode>
                                        <rate>
                                            <timebase>30</timebase>
                                            <ntsc>TRUE</ntsc>
                                        </rate>
                                        <string>00:00:00:00</string>
                                        <frame>0</frame>
                                        <displayformat>NDF</displayformat>
                                        <media>
                                            <video/>
                                            <audio/>
                                        </media>
                                    </timecode>
                                </file>
                                <name>/home/davidk/code/python/JC-render/JC-examples/yoga.mp4</name>
                                <rate>
                                    <timebase>30</timebase>
                                    <ntsc>TRUE</ntsc>
                                </rate>
                                <start>9694</start>
                                <end>9912</end>
                            </clipitem>
                            <clipitem frameBlend="FALSE" id="clipitem-204">
                                <media>
                                    <video>
                                        <samplecharacteristics>
                                            <height>720</height>
                                            <width>1270</width>
                                        </samplecharacteristics>
                                    </video>
                                </media>
                                <file id="file-1">
                                    <pathurl>/home/davidk/code/python/JC-render/JC-examples/yoga.mp4</pathurl>
                                    <name>yoga.mp4</name>
                                    <rate>
                                        <timebase>30</timebase>
                                        <ntsc>TRUE</ntsc>
                                    </rate>
                                    <duration>54922</duration>
                                    <timecode>
                                        <rate>
                                            <timebase>30</timebase>
                                            <ntsc>TRUE</ntsc>
                                        </rate>
                                        <string>00:00:00:00</string>
                                        <frame>0</frame>
                                        <displayformat>NDF</displayformat>
                                        <media>
                                            <video/>
                                            <audio/>
                                        </media>
                                    </timecode>
                                </file>
                                <name>/home/davidk/code/python/JC-render/JC-examples/yoga.mp4</name>
                                <rate>
                                    <timebase>30</timebase>
                                    <ntsc>TRUE</ntsc>
                                </rate>
                                <start>9912</start>
                                <end>9914</end>
                            </clipitem>
                            <clipitem frameBlend="FALSE" id="clipitem-205">
                                <media>
                                    <video>
                                        <samplecharacteristics>
                                            <height>720</height>
                                            <width>1270</width>
                                        </samplecharacteristics>
                                    </video>
                                </media>
                                <file id="file-1">
                                    <pathurl>/home/davidk/code/python/JC-render/JC-examples/yoga.mp4</pathurl>
                                    <name>yoga.mp4</name>
                                    <rate>
                                        <timebase>30</timebase>
                                        <ntsc>TRUE</ntsc>
                                    </rate>
                                    <duration>54922</duration>
                                    <timecode>
                                        <rate>
                                            <timebase>30</timebase>
                                            <ntsc>TRUE</ntsc>
                                        </rate>
                                        <string>00:00:00:00</string>
                                        <frame>0</frame>
                                        <displayformat>NDF</displayformat>
                                        <media>
                                            <video/>
                                            <audio/>
                                        </media>
                                    </timecode>
                                </file>
                                <name>/home/davidk/code/python/JC-render/JC-examples/yoga.mp4</name>
                                <rate>
                                    <timebase>30</timebase>
                                    <ntsc>TRUE</ntsc>
                                </rate>
                                <start>9914</start>
                                <end>10030</end>
                            </clipitem>
                            <clipitem frameBlend="FALSE" id="clipitem-206">
                                <media>
                                    <video>
                                        <samplecharacteristics>
                                            <height>720</height>
                                            <width>1270</width>
                                        </samplecharacteristics>
                                    </video>
                                </media>
                                <file id="file-1">
                                    <pathurl>/home/davidk/code/python/JC-render/JC-examples/yoga.mp4</pathurl>
                                    <name>yoga.mp4</name>
                                    <rate>
                                        <timebase>30</timebase>
                                        <ntsc>TRUE</ntsc>
                                    </rate>
                                    <duration>54922</duration>
                                    <timecode>
                                        <rate>
                                            <timebase>30</timebase>
                                            <ntsc>TRUE</ntsc>
                                        </rate>
                                        <string>00:00:00:00</string>
                                        <frame>0</frame>
                                        <displayformat>NDF</displayformat>
                                        <media>
                                            <video/>
                                            <audio/>
                                        </media>
                                    </timecode>
                                </file>
                                <name>/home/davidk/code/python/JC-render/JC-examples/yoga.mp4</name>
                                <rate>
                                    <timebase>30</timebase>
                                    <ntsc>TRUE</ntsc>
                                </rate>
                                <start>10030</start>
                                <end>10063</end>
                            </clipitem>
                            <clipitem frameBlend="FALSE" id="clipitem-207">
                                <media>
                                    <video>
                                        <samplecharacteristics>
                                            <height>720</height>
                                            <width>1270</width>
                                        </samplecharacteristics>
                                    </video>
                                </media>
                                <file id="file-1">
                                    <pathurl>/home/davidk/code/python/JC-render/JC-examples/yoga.mp4</pathurl>
                                    <name>yoga.mp4</name>
                                    <rate>
                                        <timebase>30</timebase>
                                        <ntsc>TRUE</ntsc>
                                    </rate>
                                    <duration>54922</duration>
                                    <timecode>
                                        <rate>
                                            <timebase>30</timebase>
                                            <ntsc>TRUE</ntsc>
                                        </rate>
                                        <string>00:00:00:00</string>
                                        <frame>0</frame>
                                        <displayformat>NDF</displayformat>
                                        <media>
                                            <video/>
                                            <audio/>
                                        </media>
                                    </timecode>
                                </file>
                                <name>/home/davidk/code/python/JC-render/JC-examples/yoga.mp4</name>
                                <rate>
                                    <timebase>30</timebase>
                                    <ntsc>TRUE</ntsc>
                                </rate>
                                <start>10063</start>
                                <end>10145</end>
                            </clipitem>
                            <clipitem frameBlend="FALSE" id="clipitem-208">
                                <media>
                                    <video>
                                        <samplecharacteristics>
                                            <height>720</height>
                                            <width>1270</width>
                                        </samplecharacteristics>
                                    </video>
                                </media>
                                <file id="file-1">
                                    <pathurl>/home/davidk/code/python/JC-render/JC-examples/yoga.mp4</pathurl>
                                    <name>yoga.mp4</name>
                                    <rate>
                                        <timebase>30</timebase>
                                        <ntsc>TRUE</ntsc>
                                    </rate>
                                    <duration>54922</duration>
                                    <timecode>
                                        <rate>
                                            <timebase>30</timebase>
                                            <ntsc>TRUE</ntsc>
                                        </rate>
                                        <string>00:00:00:00</string>
                                        <frame>0</frame>
                                        <displayformat>NDF</displayformat>
                                        <media>
                                            <video/>
                                            <audio/>
                                        </media>
                                    </timecode>
                                </file>
                                <name>/home/davidk/code/python/JC-render/JC-examples/yoga.mp4</name>
                                <rate>
                                    <timebase>30</timebase>
                                    <ntsc>TRUE</ntsc>
                                </rate>
                                <start>10145</start>
                                <end>10203</end>
                            </clipitem>
                            <clipitem frameBlend="FALSE" id="clipitem-209">
                                <media>
                                    <video>
                                        <samplecharacteristics>
                                            <height>720</height>
                                            <width>1270</width>
                                        </samplecharacteristics>
                                    </video>
                                </media>
                                <file id="file-1">
                                    <pathurl>/home/davidk/code/python/JC-render/JC-examples/yoga.mp4</pathurl>
                                    <name>yoga.mp4</name>
                                    <rate>
                                        <timebase>30</timebase>
                                        <ntsc>TRUE</ntsc>
                                    </rate>
                                    <duration>54922</duration>
                                    <timecode>
                                        <rate>
                                            <timebase>30</timebase>
                                            <ntsc>TRUE</ntsc>
                                        </rate>
                                        <string>00:00:00:00</string>
                                        <frame>0</frame>
                                        <displayformat>NDF</displayformat>
                                        <media>
                                            <video/>
                                            <audio/>
                                        </media>
                                    </timecode>
                                </file>
                                <name>/home/davidk/code/python/JC-render/JC-examples/yoga.mp4</name>
                                <rate>
                                    <timebase>30</timebase>
                                    <ntsc>TRUE</ntsc>
                                </rate>
                                <start>10203</start>
                                <end>10232</end>
                            </clipitem>
                            <clipitem frameBlend="FALSE" id="clipitem-210">
                                <media>
                                    <video>
                                        <samplecharacteristics>
                                            <height>720</height>
                                            <width>1270</width>
                                        </samplecharacteristics>
                                    </video>
                                </media>
                                <file id="file-1">
                                    <pathurl>/home/davidk/code/python/JC-render/JC-examples/yoga.mp4</pathurl>
                                    <name>yoga.mp4</name>
                                    <rate>
                                        <timebase>30</timebase>
                                        <ntsc>TRUE</ntsc>
                                    </rate>
                                    <duration>54922</duration>
                                    <timecode>
                                        <rate>
                                            <timebase>30</timebase>
                                            <ntsc>TRUE</ntsc>
                                        </rate>
                                        <string>00:00:00:00</string>
                                        <frame>0</frame>
                                        <displayformat>NDF</displayformat>
                                        <media>
                                            <video/>
                                            <audio/>
                                        </media>
                                    </timecode>
                                </file>
                                <name>/home/davidk/code/python/JC-render/JC-examples/yoga.mp4</name>
                                <rate>
                                    <timebase>30</timebase>
                                    <ntsc>TRUE</ntsc>
                                </rate>
                                <start>10232</start>
                                <end>10241</end>
                            </clipitem>
                            <clipitem frameBlend="FALSE" id="clipitem-211">
                                <media>
                                    <video>
                                        <samplecharacteristics>
                                            <height>720</height>
                                            <width>1270</width>
                                        </samplecharacteristics>
                                    </video>
                                </media>
                                <file id="file-1">
                                    <pathurl>/home/davidk/code/python/JC-render/JC-examples/yoga.mp4</pathurl>
                                    <name>yoga.mp4</name>
                                    <rate>
                                        <timebase>30</timebase>
                                        <ntsc>TRUE</ntsc>
                                    </rate>
                                    <duration>54922</duration>
                                    <timecode>
                                        <rate>
                                            <timebase>30</timebase>
                                            <ntsc>TRUE</ntsc>
                                        </rate>
                                        <string>00:00:00:00</string>
                                        <frame>0</frame>
                                        <displayformat>NDF</displayformat>
                                        <media>
                                            <video/>
                                            <audio/>
                                        </media>
                                    </timecode>
                                </file>
                                <name>/home/davidk/code/python/JC-render/JC-examples/yoga.mp4</name>
                                <rate>
                                    <timebase>30</timebase>
                                    <ntsc>TRUE</ntsc>
                                </rate>
                                <start>10241</start>
                                <end>10277</end>
                            </clipitem>
                            <clipitem frameBlend="FALSE" id="clipitem-212">
                                <media>
                                    <video>
                                        <samplecharacteristics>
                                            <height>720</height>
                                            <width>1270</width>
                                        </samplecharacteristics>
                                    </video>
                                </media>
                                <file id="file-1">
                                    <pathurl>/home/davidk/code/python/JC-render/JC-examples/yoga.mp4</pathurl>
                                    <name>yoga.mp4</name>
                                    <rate>
                                        <timebase>30</timebase>
                                        <ntsc>TRUE</ntsc>
                                    </rate>
                                    <duration>54922</duration>
                                    <timecode>
                                        <rate>
                                            <timebase>30</timebase>
                                            <ntsc>TRUE</ntsc>
                                        </rate>
                                        <string>00:00:00:00</string>
                                        <frame>0</frame>
                                        <displayformat>NDF</displayformat>
                                        <media>
                                            <video/>
                                            <audio/>
                                        </media>
                                    </timecode>
                                </file>
                                <name>/home/davidk/code/python/JC-render/JC-examples/yoga.mp4</name>
                                <rate>
                                    <timebase>30</timebase>
                                    <ntsc>TRUE</ntsc>
                                </rate>
                                <start>10277</start>
                                <end>10286</end>
                            </clipitem>
                            <clipitem frameBlend="FALSE" id="clipitem-213">
                                <media>
                                    <video>
                                        <samplecharacteristics>
                                            <height>720</height>
                                            <width>1270</width>
                                        </samplecharacteristics>
                                    </video>
                                </media>
                                <file id="file-1">
                                    <pathurl>/home/davidk/code/python/JC-render/JC-examples/yoga.mp4</pathurl>
                                    <name>yoga.mp4</name>
                                    <rate>
                                        <timebase>30</timebase>
                                        <ntsc>TRUE</ntsc>
                                    </rate>
                                    <duration>54922</duration>
                                    <timecode>
                                        <rate>
                                            <timebase>30</timebase>
                                            <ntsc>TRUE</ntsc>
                                        </rate>
                                        <string>00:00:00:00</string>
                                        <frame>0</frame>
                                        <displayformat>NDF</displayformat>
                                        <media>
                                            <video/>
                                            <audio/>
                                        </media>
                                    </timecode>
                                </file>
                                <name>/home/davidk/code/python/JC-render/JC-examples/yoga.mp4</name>
                                <rate>
                                    <timebase>30</timebase>
                                    <ntsc>TRUE</ntsc>
                                </rate>
                                <start>10286</start>
                                <end>10302</end>
                            </clipitem>
                            <clipitem frameBlend="FALSE" id="clipitem-214">
                                <media>
                                    <video>
                                        <samplecharacteristics>
                                            <height>720</height>
                                            <width>1270</width>
                                        </samplecharacteristics>
                                    </video>
                                </media>
                                <file id="file-1">
                                    <pathurl>/home/davidk/code/python/JC-render/JC-examples/yoga.mp4</pathurl>
                                    <name>yoga.mp4</name>
                                    <rate>
                                        <timebase>30</timebase>
                                        <ntsc>TRUE</ntsc>
                                    </rate>
                                    <duration>54922</duration>
                                    <timecode>
                                        <rate>
                                            <timebase>30</timebase>
                                            <ntsc>TRUE</ntsc>
                                        </rate>
                                        <string>00:00:00:00</string>
                                        <frame>0</frame>
                                        <displayformat>NDF</displayformat>
                                        <media>
                                            <video/>
                                            <audio/>
                                        </media>
                                    </timecode>
                                </file>
                                <name>/home/davidk/code/python/JC-render/JC-examples/yoga.mp4</name>
                                <rate>
                                    <timebase>30</timebase>
                                    <ntsc>TRUE</ntsc>
                                </rate>
                                <start>10302</start>
                                <end>10318</end>
                            </clipitem>
                            <clipitem frameBlend="FALSE" id="clipitem-215">
                                <media>
                                    <video>
                                        <samplecharacteristics>
                                            <height>720</height>
                                            <width>1270</width>
                                        </samplecharacteristics>
                                    </video>
                                </media>
                                <file id="file-1">
                                    <pathurl>/home/davidk/code/python/JC-render/JC-examples/yoga.mp4</pathurl>
                                    <name>yoga.mp4</name>
                                    <rate>
                                        <timebase>30</timebase>
                                        <ntsc>TRUE</ntsc>
                                    </rate>
                                    <duration>54922</duration>
                                    <timecode>
                                        <rate>
                                            <timebase>30</timebase>
                                            <ntsc>TRUE</ntsc>
                                        </rate>
                                        <string>00:00:00:00</string>
                                        <frame>0</frame>
                                        <displayformat>NDF</displayformat>
                                        <media>
                                            <video/>
                                            <audio/>
                                        </media>
                                    </timecode>
                                </file>
                                <name>/home/davidk/code/python/JC-render/JC-examples/yoga.mp4</name>
                                <rate>
                                    <timebase>30</timebase>
                                    <ntsc>TRUE</ntsc>
                                </rate>
                                <start>10318</start>
                                <end>10333</end>
                            </clipitem>
                            <clipitem frameBlend="FALSE" id="clipitem-216">
                                <media>
                                    <video>
                                        <samplecharacteristics>
                                            <height>720</height>
                                            <width>1270</width>
                                        </samplecharacteristics>
                                    </video>
                                </media>
                                <file id="file-1">
                                    <pathurl>/home/davidk/code/python/JC-render/JC-examples/yoga.mp4</pathurl>
                                    <name>yoga.mp4</name>
                                    <rate>
                                        <timebase>30</timebase>
                                        <ntsc>TRUE</ntsc>
                                    </rate>
                                    <duration>54922</duration>
                                    <timecode>
                                        <rate>
                                            <timebase>30</timebase>
                                            <ntsc>TRUE</ntsc>
                                        </rate>
                                        <string>00:00:00:00</string>
                                        <frame>0</frame>
                                        <displayformat>NDF</displayformat>
                                        <media>
                                            <video/>
                                            <audio/>
                                        </media>
                                    </timecode>
                                </file>
                                <name>/home/davidk/code/python/JC-render/JC-examples/yoga.mp4</name>
                                <rate>
                                    <timebase>30</timebase>
                                    <ntsc>TRUE</ntsc>
                                </rate>
                                <start>10333</start>
                                <end>10335</end>
                            </clipitem>
                            <clipitem frameBlend="FALSE" id="clipitem-217">
                                <media>
                                    <video>
                                        <samplecharacteristics>
                                            <height>720</height>
                                            <width>1270</width>
                                        </samplecharacteristics>
                                    </video>
                                </media>
                                <file id="file-1">
                                    <pathurl>/home/davidk/code/python/JC-render/JC-examples/yoga.mp4</pathurl>
                                    <name>yoga.mp4</name>
                                    <rate>
                                        <timebase>30</timebase>
                                        <ntsc>TRUE</ntsc>
                                    </rate>
                                    <duration>54922</duration>
                                    <timecode>
                                        <rate>
                                            <timebase>30</timebase>
                                            <ntsc>TRUE</ntsc>
                                        </rate>
                                        <string>00:00:00:00</string>
                                        <frame>0</frame>
                                        <displayformat>NDF</displayformat>
                                        <media>
                                            <video/>
                                            <audio/>
                                        </media>
                                    </timecode>
                                </file>
                                <name>/home/davidk/code/python/JC-render/JC-examples/yoga.mp4</name>
                                <rate>
                                    <timebase>30</timebase>
                                    <ntsc>TRUE</ntsc>
                                </rate>
                                <start>10335</start>
                                <end>10406</end>
                            </clipitem>
                            <clipitem frameBlend="FALSE" id="clipitem-218">
                                <media>
                                    <video>
                                        <samplecharacteristics>
                                            <height>720</height>
                                            <width>1270</width>
                                        </samplecharacteristics>
                                    </video>
                                </media>
                                <file id="file-1">
                                    <pathurl>/home/davidk/code/python/JC-render/JC-examples/yoga.mp4</pathurl>
                                    <name>yoga.mp4</name>
                                    <rate>
                                        <timebase>30</timebase>
                                        <ntsc>TRUE</ntsc>
                                    </rate>
                                    <duration>54922</duration>
                                    <timecode>
                                        <rate>
                                            <timebase>30</timebase>
                                            <ntsc>TRUE</ntsc>
                                        </rate>
                                        <string>00:00:00:00</string>
                                        <frame>0</frame>
                                        <displayformat>NDF</displayformat>
                                        <media>
                                            <video/>
                                            <audio/>
                                        </media>
                                    </timecode>
                                </file>
                                <name>/home/davidk/code/python/JC-render/JC-examples/yoga.mp4</name>
                                <rate>
                                    <timebase>30</timebase>
                                    <ntsc>TRUE</ntsc>
                                </rate>
                                <start>10406</start>
                                <end>10460</end>
                            </clipitem>
                            <clipitem frameBlend="FALSE" id="clipitem-219">
                                <media>
                                    <video>
                                        <samplecharacteristics>
                                            <height>720</height>
                                            <width>1270</width>
                                        </samplecharacteristics>
                                    </video>
                                </media>
                                <file id="file-1">
                                    <pathurl>/home/davidk/code/python/JC-render/JC-examples/yoga.mp4</pathurl>
                                    <name>yoga.mp4</name>
                                    <rate>
                                        <timebase>30</timebase>
                                        <ntsc>TRUE</ntsc>
                                    </rate>
                                    <duration>54922</duration>
                                    <timecode>
                                        <rate>
                                            <timebase>30</timebase>
                                            <ntsc>TRUE</ntsc>
                                        </rate>
                                        <string>00:00:00:00</string>
                                        <frame>0</frame>
                                        <displayformat>NDF</displayformat>
                                        <media>
                                            <video/>
                                            <audio/>
                                        </media>
                                    </timecode>
                                </file>
                                <name>/home/davidk/code/python/JC-render/JC-examples/yoga.mp4</name>
                                <rate>
                                    <timebase>30</timebase>
                                    <ntsc>TRUE</ntsc>
                                </rate>
                                <start>10460</start>
                                <end>10507</end>
                            </clipitem>
                            <clipitem frameBlend="FALSE" id="clipitem-220">
                                <media>
                                    <video>
                                        <samplecharacteristics>
                                            <height>720</height>
                                            <width>1270</width>
                                        </samplecharacteristics>
                                    </video>
                                </media>
                                <file id="file-1">
                                    <pathurl>/home/davidk/code/python/JC-render/JC-examples/yoga.mp4</pathurl>
                                    <name>yoga.mp4</name>
                                    <rate>
                                        <timebase>30</timebase>
                                        <ntsc>TRUE</ntsc>
                                    </rate>
                                    <duration>54922</duration>
                                    <timecode>
                                        <rate>
                                            <timebase>30</timebase>
                                            <ntsc>TRUE</ntsc>
                                        </rate>
                                        <string>00:00:00:00</string>
                                        <frame>0</frame>
                                        <displayformat>NDF</displayformat>
                                        <media>
                                            <video/>
                                            <audio/>
                                        </media>
                                    </timecode>
                                </file>
                                <name>/home/davidk/code/python/JC-render/JC-examples/yoga.mp4</name>
                                <rate>
                                    <timebase>30</timebase>
                                    <ntsc>TRUE</ntsc>
                                </rate>
                                <start>10507</start>
                                <end>10509</end>
                            </clipitem>
                            <clipitem frameBlend="FALSE" id="clipitem-221">
                                <media>
                                    <video>
                                        <samplecharacteristics>
                                            <height>720</height>
                                            <width>1270</width>
                                        </samplecharacteristics>
                                    </video>
                                </media>
                                <file id="file-1">
                                    <pathurl>/home/davidk/code/python/JC-render/JC-examples/yoga.mp4</pathurl>
                                    <name>yoga.mp4</name>
                                    <rate>
                                        <timebase>30</timebase>
                                        <ntsc>TRUE</ntsc>
                                    </rate>
                                    <duration>54922</duration>
                                    <timecode>
                                        <rate>
                                            <timebase>30</timebase>
                                            <ntsc>TRUE</ntsc>
                                        </rate>
                                        <string>00:00:00:00</string>
                                        <frame>0</frame>
                                        <displayformat>NDF</displayformat>
                                        <media>
                                            <video/>
                                            <audio/>
                                        </media>
                                    </timecode>
                                </file>
                                <name>/home/davidk/code/python/JC-render/JC-examples/yoga.mp4</name>
                                <rate>
                                    <timebase>30</timebase>
                                    <ntsc>TRUE</ntsc>
                                </rate>
                                <start>10509</start>
                                <end>10556</end>
                            </clipitem>
                            <clipitem frameBlend="FALSE" id="clipitem-222">
                                <media>
                                    <video>
                                        <samplecharacteristics>
                                            <height>720</height>
                                            <width>1270</width>
                                        </samplecharacteristics>
                                    </video>
                                </media>
                                <file id="file-1">
                                    <pathurl>/home/davidk/code/python/JC-render/JC-examples/yoga.mp4</pathurl>
                                    <name>yoga.mp4</name>
                                    <rate>
                                        <timebase>30</timebase>
                                        <ntsc>TRUE</ntsc>
                                    </rate>
                                    <duration>54922</duration>
                                    <timecode>
                                        <rate>
                                            <timebase>30</timebase>
                                            <ntsc>TRUE</ntsc>
                                        </rate>
                                        <string>00:00:00:00</string>
                                        <frame>0</frame>
                                        <displayformat>NDF</displayformat>
                                        <media>
                                            <video/>
                                            <audio/>
                                        </media>
                                    </timecode>
                                </file>
                                <name>/home/davidk/code/python/JC-render/JC-examples/yoga.mp4</name>
                                <rate>
                                    <timebase>30</timebase>
                                    <ntsc>TRUE</ntsc>
                                </rate>
                                <start>10556</start>
                                <end>10561</end>
                            </clipitem>
                            <clipitem frameBlend="FALSE" id="clipitem-223">
                                <media>
                                    <video>
                                        <samplecharacteristics>
                                            <height>720</height>
                                            <width>1270</width>
                                        </samplecharacteristics>
                                    </video>
                                </media>
                                <file id="file-1">
                                    <pathurl>/home/davidk/code/python/JC-render/JC-examples/yoga.mp4</pathurl>
                                    <name>yoga.mp4</name>
                                    <rate>
                                        <timebase>30</timebase>
                                        <ntsc>TRUE</ntsc>
                                    </rate>
                                    <duration>54922</duration>
                                    <timecode>
                                        <rate>
                                            <timebase>30</timebase>
                                            <ntsc>TRUE</ntsc>
                                        </rate>
                                        <string>00:00:00:00</string>
                                        <frame>0</frame>
                                        <displayformat>NDF</displayformat>
                                        <media>
                                            <video/>
                                            <audio/>
                                        </media>
                                    </timecode>
                                </file>
                                <name>/home/davidk/code/python/JC-render/JC-examples/yoga.mp4</name>
                                <rate>
                                    <timebase>30</timebase>
                                    <ntsc>TRUE</ntsc>
                                </rate>
                                <start>10561</start>
                                <end>10577</end>
                            </clipitem>
                            <clipitem frameBlend="FALSE" id="clipitem-224">
                                <media>
                                    <video>
                                        <samplecharacteristics>
                                            <height>720</height>
                                            <width>1270</width>
                                        </samplecharacteristics>
                                    </video>
                                </media>
                                <file id="file-1">
                                    <pathurl>/home/davidk/code/python/JC-render/JC-examples/yoga.mp4</pathurl>
                                    <name>yoga.mp4</name>
                                    <rate>
                                        <timebase>30</timebase>
                                        <ntsc>TRUE</ntsc>
                                    </rate>
                                    <duration>54922</duration>
                                    <timecode>
                                        <rate>
                                            <timebase>30</timebase>
                                            <ntsc>TRUE</ntsc>
                                        </rate>
                                        <string>00:00:00:00</string>
                                        <frame>0</frame>
                                        <displayformat>NDF</displayformat>
                                        <media>
                                            <video/>
                                            <audio/>
                                        </media>
                                    </timecode>
                                </file>
                                <name>/home/davidk/code/python/JC-render/JC-examples/yoga.mp4</name>
                                <rate>
                                    <timebase>30</timebase>
                                    <ntsc>TRUE</ntsc>
                                </rate>
                                <start>10577</start>
                                <end>10593</end>
                            </clipitem>
                            <clipitem frameBlend="FALSE" id="clipitem-225">
                                <media>
                                    <video>
                                        <samplecharacteristics>
                                            <height>720</height>
                                            <width>1270</width>
                                        </samplecharacteristics>
                                    </video>
                                </media>
                                <file id="file-1">
                                    <pathurl>/home/davidk/code/python/JC-render/JC-examples/yoga.mp4</pathurl>
                                    <name>yoga.mp4</name>
                                    <rate>
                                        <timebase>30</timebase>
                                        <ntsc>TRUE</ntsc>
                                    </rate>
                                    <duration>54922</duration>
                                    <timecode>
                                        <rate>
                                            <timebase>30</timebase>
                                            <ntsc>TRUE</ntsc>
                                        </rate>
                                        <string>00:00:00:00</string>
                                        <frame>0</frame>
                                        <displayformat>NDF</displayformat>
                                        <media>
                                            <video/>
                                            <audio/>
                                        </media>
                                    </timecode>
                                </file>
                                <name>/home/davidk/code/python/JC-render/JC-examples/yoga.mp4</name>
                                <rate>
                                    <timebase>30</timebase>
                                    <ntsc>TRUE</ntsc>
                                </rate>
                                <start>10593</start>
                                <end>10612</end>
                            </clipitem>
                            <clipitem frameBlend="FALSE" id="clipitem-226">
                                <media>
                                    <video>
                                        <samplecharacteristics>
                                            <height>720</height>
                                            <width>1270</width>
                                        </samplecharacteristics>
                                    </video>
                                </media>
                                <file id="file-1">
                                    <pathurl>/home/davidk/code/python/JC-render/JC-examples/yoga.mp4</pathurl>
                                    <name>yoga.mp4</name>
                                    <rate>
                                        <timebase>30</timebase>
                                        <ntsc>TRUE</ntsc>
                                    </rate>
                                    <duration>54922</duration>
                                    <timecode>
                                        <rate>
                                            <timebase>30</timebase>
                                            <ntsc>TRUE</ntsc>
                                        </rate>
                                        <string>00:00:00:00</string>
                                        <frame>0</frame>
                                        <displayformat>NDF</displayformat>
                                        <media>
                                            <video/>
                                            <audio/>
                                        </media>
                                    </timecode>
                                </file>
                                <name>/home/davidk/code/python/JC-render/JC-examples/yoga.mp4</name>
                                <rate>
                                    <timebase>30</timebase>
                                    <ntsc>TRUE</ntsc>
                                </rate>
                                <start>10612</start>
                                <end>10624</end>
                            </clipitem>
                            <clipitem frameBlend="FALSE" id="clipitem-227">
                                <media>
                                    <video>
                                        <samplecharacteristics>
                                            <height>720</height>
                                            <width>1270</width>
                                        </samplecharacteristics>
                                    </video>
                                </media>
                                <file id="file-1">
                                    <pathurl>/home/davidk/code/python/JC-render/JC-examples/yoga.mp4</pathurl>
                                    <name>yoga.mp4</name>
                                    <rate>
                                        <timebase>30</timebase>
                                        <ntsc>TRUE</ntsc>
                                    </rate>
                                    <duration>54922</duration>
                                    <timecode>
                                        <rate>
                                            <timebase>30</timebase>
                                            <ntsc>TRUE</ntsc>
                                        </rate>
                                        <string>00:00:00:00</string>
                                        <frame>0</frame>
                                        <displayformat>NDF</displayformat>
                                        <media>
                                            <video/>
                                            <audio/>
                                        </media>
                                    </timecode>
                                </file>
                                <name>/home/davidk/code/python/JC-render/JC-examples/yoga.mp4</name>
                                <rate>
                                    <timebase>30</timebase>
                                    <ntsc>TRUE</ntsc>
                                </rate>
                                <start>10624</start>
                                <end>10643</end>
                            </clipitem>
                            <clipitem frameBlend="FALSE" id="clipitem-228">
                                <media>
                                    <video>
                                        <samplecharacteristics>
                                            <height>720</height>
                                            <width>1270</width>
                                        </samplecharacteristics>
                                    </video>
                                </media>
                                <file id="file-1">
                                    <pathurl>/home/davidk/code/python/JC-render/JC-examples/yoga.mp4</pathurl>
                                    <name>yoga.mp4</name>
                                    <rate>
                                        <timebase>30</timebase>
                                        <ntsc>TRUE</ntsc>
                                    </rate>
                                    <duration>54922</duration>
                                    <timecode>
                                        <rate>
                                            <timebase>30</timebase>
                                            <ntsc>TRUE</ntsc>
                                        </rate>
                                        <string>00:00:00:00</string>
                                        <frame>0</frame>
                                        <displayformat>NDF</displayformat>
                                        <media>
                                            <video/>
                                            <audio/>
                                        </media>
                                    </timecode>
                                </file>
                                <name>/home/davidk/code/python/JC-render/JC-examples/yoga.mp4</name>
                                <rate>
                                    <timebase>30</timebase>
                                    <ntsc>TRUE</ntsc>
                                </rate>
                                <start>10643</start>
                                <end>10655</end>
                            </clipitem>
                            <clipitem frameBlend="FALSE" id="clipitem-229">
                                <media>
                                    <video>
                                        <samplecharacteristics>
                                            <height>720</height>
                                            <width>1270</width>
                                        </samplecharacteristics>
                                    </video>
                                </media>
                                <file id="file-1">
                                    <pathurl>/home/davidk/code/python/JC-render/JC-examples/yoga.mp4</pathurl>
                                    <name>yoga.mp4</name>
                                    <rate>
                                        <timebase>30</timebase>
                                        <ntsc>TRUE</ntsc>
                                    </rate>
                                    <duration>54922</duration>
                                    <timecode>
                                        <rate>
                                            <timebase>30</timebase>
                                            <ntsc>TRUE</ntsc>
                                        </rate>
                                        <string>00:00:00:00</string>
                                        <frame>0</frame>
                                        <displayformat>NDF</displayformat>
                                        <media>
                                            <video/>
                                            <audio/>
                                        </media>
                                    </timecode>
                                </file>
                                <name>/home/davidk/code/python/JC-render/JC-examples/yoga.mp4</name>
                                <rate>
                                    <timebase>30</timebase>
                                    <ntsc>TRUE</ntsc>
                                </rate>
                                <start>10655</start>
                                <end>10671</end>
                            </clipitem>
                            <clipitem frameBlend="FALSE" id="clipitem-230">
                                <media>
                                    <video>
                                        <samplecharacteristics>
                                            <height>720</height>
                                            <width>1270</width>
                                        </samplecharacteristics>
                                    </video>
                                </media>
                                <file id="file-1">
                                    <pathurl>/home/davidk/code/python/JC-render/JC-examples/yoga.mp4</pathurl>
                                    <name>yoga.mp4</name>
                                    <rate>
                                        <timebase>30</timebase>
                                        <ntsc>TRUE</ntsc>
                                    </rate>
                                    <duration>54922</duration>
                                    <timecode>
                                        <rate>
                                            <timebase>30</timebase>
                                            <ntsc>TRUE</ntsc>
                                        </rate>
                                        <string>00:00:00:00</string>
                                        <frame>0</frame>
                                        <displayformat>NDF</displayformat>
                                        <media>
                                            <video/>
                                            <audio/>
                                        </media>
                                    </timecode>
                                </file>
                                <name>/home/davidk/code/python/JC-render/JC-examples/yoga.mp4</name>
                                <rate>
                                    <timebase>30</timebase>
                                    <ntsc>TRUE</ntsc>
                                </rate>
                                <start>10671</start>
                                <end>10680</end>
                            </clipitem>
                            <clipitem frameBlend="FALSE" id="clipitem-231">
                                <media>
                                    <video>
                                        <samplecharacteristics>
                                            <height>720</height>
                                            <width>1270</width>
                                        </samplecharacteristics>
                                    </video>
                                </media>
                                <file id="file-1">
                                    <pathurl>/home/davidk/code/python/JC-render/JC-examples/yoga.mp4</pathurl>
                                    <name>yoga.mp4</name>
                                    <rate>
                                        <timebase>30</timebase>
                                        <ntsc>TRUE</ntsc>
                                    </rate>
                                    <duration>54922</duration>
                                    <timecode>
                                        <rate>
                                            <timebase>30</timebase>
                                            <ntsc>TRUE</ntsc>
                                        </rate>
                                        <string>00:00:00:00</string>
                                        <frame>0</frame>
                                        <displayformat>NDF</displayformat>
                                        <media>
                                            <video/>
                                            <audio/>
                                        </media>
                                    </timecode>
                                </file>
                                <name>/home/davidk/code/python/JC-render/JC-examples/yoga.mp4</name>
                                <rate>
                                    <timebase>30</timebase>
                                    <ntsc>TRUE</ntsc>
                                </rate>
                                <start>10680</start>
                                <end>10786</end>
                            </clipitem>
                            <clipitem frameBlend="FALSE" id="clipitem-232">
                                <media>
                                    <video>
                                        <samplecharacteristics>
                                            <height>720</height>
                                            <width>1270</width>
                                        </samplecharacteristics>
                                    </video>
                                </media>
                                <file id="file-1">
                                    <pathurl>/home/davidk/code/python/JC-render/JC-examples/yoga.mp4</pathurl>
                                    <name>yoga.mp4</name>
                                    <rate>
                                        <timebase>30</timebase>
                                        <ntsc>TRUE</ntsc>
                                    </rate>
                                    <duration>54922</duration>
                                    <timecode>
                                        <rate>
                                            <timebase>30</timebase>
                                            <ntsc>TRUE</ntsc>
                                        </rate>
                                        <string>00:00:00:00</string>
                                        <frame>0</frame>
                                        <displayformat>NDF</displayformat>
                                        <media>
                                            <video/>
                                            <audio/>
                                        </media>
                                    </timecode>
                                </file>
                                <name>/home/davidk/code/python/JC-render/JC-examples/yoga.mp4</name>
                                <rate>
                                    <timebase>30</timebase>
                                    <ntsc>TRUE</ntsc>
                                </rate>
                                <start>10786</start>
                                <end>10812</end>
                            </clipitem>
                            <clipitem frameBlend="FALSE" id="clipitem-233">
                                <media>
                                    <video>
                                        <samplecharacteristics>
                                            <height>720</height>
                                            <width>1270</width>
                                        </samplecharacteristics>
                                    </video>
                                </media>
                                <file id="file-1">
                                    <pathurl>/home/davidk/code/python/JC-render/JC-examples/yoga.mp4</pathurl>
                                    <name>yoga.mp4</name>
                                    <rate>
                                        <timebase>30</timebase>
                                        <ntsc>TRUE</ntsc>
                                    </rate>
                                    <duration>54922</duration>
                                    <timecode>
                                        <rate>
                                            <timebase>30</timebase>
                                            <ntsc>TRUE</ntsc>
                                        </rate>
                                        <string>00:00:00:00</string>
                                        <frame>0</frame>
                                        <displayformat>NDF</displayformat>
                                        <media>
                                            <video/>
                                            <audio/>
                                        </media>
                                    </timecode>
                                </file>
                                <name>/home/davidk/code/python/JC-render/JC-examples/yoga.mp4</name>
                                <rate>
                                    <timebase>30</timebase>
                                    <ntsc>TRUE</ntsc>
                                </rate>
                                <start>10812</start>
                                <end>11287</end>
                            </clipitem>
                            <clipitem frameBlend="FALSE" id="clipitem-234">
                                <media>
                                    <video>
                                        <samplecharacteristics>
                                            <height>720</height>
                                            <width>1270</width>
                                        </samplecharacteristics>
                                    </video>
                                </media>
                                <file id="file-1">
                                    <pathurl>/home/davidk/code/python/JC-render/JC-examples/yoga.mp4</pathurl>
                                    <name>yoga.mp4</name>
                                    <rate>
                                        <timebase>30</timebase>
                                        <ntsc>TRUE</ntsc>
                                    </rate>
                                    <duration>54922</duration>
                                    <timecode>
                                        <rate>
                                            <timebase>30</timebase>
                                            <ntsc>TRUE</ntsc>
                                        </rate>
                                        <string>00:00:00:00</string>
                                        <frame>0</frame>
                                        <displayformat>NDF</displayformat>
                                        <media>
                                            <video/>
                                            <audio/>
                                        </media>
                                    </timecode>
                                </file>
                                <name>/home/davidk/code/python/JC-render/JC-examples/yoga.mp4</name>
                                <rate>
                                    <timebase>30</timebase>
                                    <ntsc>TRUE</ntsc>
                                </rate>
                                <start>11287</start>
                                <end>11300</end>
                            </clipitem>
                            <clipitem frameBlend="FALSE" id="clipitem-235">
                                <media>
                                    <video>
                                        <samplecharacteristics>
                                            <height>720</height>
                                            <width>1270</width>
                                        </samplecharacteristics>
                                    </video>
                                </media>
                                <file id="file-1">
                                    <pathurl>/home/davidk/code/python/JC-render/JC-examples/yoga.mp4</pathurl>
                                    <name>yoga.mp4</name>
                                    <rate>
                                        <timebase>30</timebase>
                                        <ntsc>TRUE</ntsc>
                                    </rate>
                                    <duration>54922</duration>
                                    <timecode>
                                        <rate>
                                            <timebase>30</timebase>
                                            <ntsc>TRUE</ntsc>
                                        </rate>
                                        <string>00:00:00:00</string>
                                        <frame>0</frame>
                                        <displayformat>NDF</displayformat>
                                        <media>
                                            <video/>
                                            <audio/>
                                        </media>
                                    </timecode>
                                </file>
                                <name>/home/davidk/code/python/JC-render/JC-examples/yoga.mp4</name>
                                <rate>
                                    <timebase>30</timebase>
                                    <ntsc>TRUE</ntsc>
                                </rate>
                                <start>11300</start>
                                <end>11434</end>
                            </clipitem>
                            <clipitem frameBlend="FALSE" id="clipitem-236">
                                <media>
                                    <video>
                                        <samplecharacteristics>
                                            <height>720</height>
                                            <width>1270</width>
                                        </samplecharacteristics>
                                    </video>
                                </media>
                                <file id="file-1">
                                    <pathurl>/home/davidk/code/python/JC-render/JC-examples/yoga.mp4</pathurl>
                                    <name>yoga.mp4</name>
                                    <rate>
                                        <timebase>30</timebase>
                                        <ntsc>TRUE</ntsc>
                                    </rate>
                                    <duration>54922</duration>
                                    <timecode>
                                        <rate>
                                            <timebase>30</timebase>
                                            <ntsc>TRUE</ntsc>
                                        </rate>
                                        <string>00:00:00:00</string>
                                        <frame>0</frame>
                                        <displayformat>NDF</displayformat>
                                        <media>
                                            <video/>
                                            <audio/>
                                        </media>
                                    </timecode>
                                </file>
                                <name>/home/davidk/code/python/JC-render/JC-examples/yoga.mp4</name>
                                <rate>
                                    <timebase>30</timebase>
                                    <ntsc>TRUE</ntsc>
                                </rate>
                                <start>11434</start>
                                <end>11436</end>
                            </clipitem>
                            <clipitem frameBlend="FALSE" id="clipitem-237">
                                <media>
                                    <video>
                                        <samplecharacteristics>
                                            <height>720</height>
                                            <width>1270</width>
                                        </samplecharacteristics>
                                    </video>
                                </media>
                                <file id="file-1">
                                    <pathurl>/home/davidk/code/python/JC-render/JC-examples/yoga.mp4</pathurl>
                                    <name>yoga.mp4</name>
                                    <rate>
                                        <timebase>30</timebase>
                                        <ntsc>TRUE</ntsc>
                                    </rate>
                                    <duration>54922</duration>
                                    <timecode>
                                        <rate>
                                            <timebase>30</timebase>
                                            <ntsc>TRUE</ntsc>
                                        </rate>
                                        <string>00:00:00:00</string>
                                        <frame>0</frame>
                                        <displayformat>NDF</displayformat>
                                        <media>
                                            <video/>
                                            <audio/>
                                        </media>
                                    </timecode>
                                </file>
                                <name>/home/davidk/code/python/JC-render/JC-examples/yoga.mp4</name>
                                <rate>
                                    <timebase>30</timebase>
                                    <ntsc>TRUE</ntsc>
                                </rate>
                                <start>11436</start>
                                <end>11583</end>
                            </clipitem>
                            <clipitem frameBlend="FALSE" id="clipitem-238">
                                <media>
                                    <video>
                                        <samplecharacteristics>
                                            <height>720</height>
                                            <width>1270</width>
                                        </samplecharacteristics>
                                    </video>
                                </media>
                                <file id="file-1">
                                    <pathurl>/home/davidk/code/python/JC-render/JC-examples/yoga.mp4</pathurl>
                                    <name>yoga.mp4</name>
                                    <rate>
                                        <timebase>30</timebase>
                                        <ntsc>TRUE</ntsc>
                                    </rate>
                                    <duration>54922</duration>
                                    <timecode>
                                        <rate>
                                            <timebase>30</timebase>
                                            <ntsc>TRUE</ntsc>
                                        </rate>
                                        <string>00:00:00:00</string>
                                        <frame>0</frame>
                                        <displayformat>NDF</displayformat>
                                        <media>
                                            <video/>
                                            <audio/>
                                        </media>
                                    </timecode>
                                </file>
                                <name>/home/davidk/code/python/JC-render/JC-examples/yoga.mp4</name>
                                <rate>
                                    <timebase>30</timebase>
                                    <ntsc>TRUE</ntsc>
                                </rate>
                                <start>11583</start>
                                <end>11585</end>
                            </clipitem>
                            <clipitem frameBlend="FALSE" id="clipitem-239">
                                <media>
                                    <video>
                                        <samplecharacteristics>
                                            <height>720</height>
                                            <width>1270</width>
                                        </samplecharacteristics>
                                    </video>
                                </media>
                                <file id="file-1">
                                    <pathurl>/home/davidk/code/python/JC-render/JC-examples/yoga.mp4</pathurl>
                                    <name>yoga.mp4</name>
                                    <rate>
                                        <timebase>30</timebase>
                                        <ntsc>TRUE</ntsc>
                                    </rate>
                                    <duration>54922</duration>
                                    <timecode>
                                        <rate>
                                            <timebase>30</timebase>
                                            <ntsc>TRUE</ntsc>
                                        </rate>
                                        <string>00:00:00:00</string>
                                        <frame>0</frame>
                                        <displayformat>NDF</displayformat>
                                        <media>
                                            <video/>
                                            <audio/>
                                        </media>
                                    </timecode>
                                </file>
                                <name>/home/davidk/code/python/JC-render/JC-examples/yoga.mp4</name>
                                <rate>
                                    <timebase>30</timebase>
                                    <ntsc>TRUE</ntsc>
                                </rate>
                                <start>11585</start>
                                <end>11886</end>
                            </clipitem>
                            <clipitem frameBlend="FALSE" id="clipitem-240">
                                <media>
                                    <video>
                                        <samplecharacteristics>
                                            <height>720</height>
                                            <width>1270</width>
                                        </samplecharacteristics>
                                    </video>
                                </media>
                                <file id="file-1">
                                    <pathurl>/home/davidk/code/python/JC-render/JC-examples/yoga.mp4</pathurl>
                                    <name>yoga.mp4</name>
                                    <rate>
                                        <timebase>30</timebase>
                                        <ntsc>TRUE</ntsc>
                                    </rate>
                                    <duration>54922</duration>
                                    <timecode>
                                        <rate>
                                            <timebase>30</timebase>
                                            <ntsc>TRUE</ntsc>
                                        </rate>
                                        <string>00:00:00:00</string>
                                        <frame>0</frame>
                                        <displayformat>NDF</displayformat>
                                        <media>
                                            <video/>
                                            <audio/>
                                        </media>
                                    </timecode>
                                </file>
                                <name>/home/davidk/code/python/JC-render/JC-examples/yoga.mp4</name>
                                <rate>
                                    <timebase>30</timebase>
                                    <ntsc>TRUE</ntsc>
                                </rate>
                                <start>11886</start>
                                <end>11888</end>
                            </clipitem>
                            <clipitem frameBlend="FALSE" id="clipitem-241">
                                <media>
                                    <video>
                                        <samplecharacteristics>
                                            <height>720</height>
                                            <width>1270</width>
                                        </samplecharacteristics>
                                    </video>
                                </media>
                                <file id="file-1">
                                    <pathurl>/home/davidk/code/python/JC-render/JC-examples/yoga.mp4</pathurl>
                                    <name>yoga.mp4</name>
                                    <rate>
                                        <timebase>30</timebase>
                                        <ntsc>TRUE</ntsc>
                                    </rate>
                                    <duration>54922</duration>
                                    <timecode>
                                        <rate>
                                            <timebase>30</timebase>
                                            <ntsc>TRUE</ntsc>
                                        </rate>
                                        <string>00:00:00:00</string>
                                        <frame>0</frame>
                                        <displayformat>NDF</displayformat>
                                        <media>
                                            <video/>
                                            <audio/>
                                        </media>
                                    </timecode>
                                </file>
                                <name>/home/davidk/code/python/JC-render/JC-examples/yoga.mp4</name>
                                <rate>
                                    <timebase>30</timebase>
                                    <ntsc>TRUE</ntsc>
                                </rate>
                                <start>11888</start>
                                <end>11960</end>
                            </clipitem>
                            <clipitem frameBlend="FALSE" id="clipitem-242">
                                <media>
                                    <video>
                                        <samplecharacteristics>
                                            <height>720</height>
                                            <width>1270</width>
                                        </samplecharacteristics>
                                    </video>
                                </media>
                                <file id="file-1">
                                    <pathurl>/home/davidk/code/python/JC-render/JC-examples/yoga.mp4</pathurl>
                                    <name>yoga.mp4</name>
                                    <rate>
                                        <timebase>30</timebase>
                                        <ntsc>TRUE</ntsc>
                                    </rate>
                                    <duration>54922</duration>
                                    <timecode>
                                        <rate>
                                            <timebase>30</timebase>
                                            <ntsc>TRUE</ntsc>
                                        </rate>
                                        <string>00:00:00:00</string>
                                        <frame>0</frame>
                                        <displayformat>NDF</displayformat>
                                        <media>
                                            <video/>
                                            <audio/>
                                        </media>
                                    </timecode>
                                </file>
                                <name>/home/davidk/code/python/JC-render/JC-examples/yoga.mp4</name>
                                <rate>
                                    <timebase>30</timebase>
                                    <ntsc>TRUE</ntsc>
                                </rate>
                                <start>11960</start>
                                <end>11972</end>
                            </clipitem>
                            <clipitem frameBlend="FALSE" id="clipitem-243">
                                <media>
                                    <video>
                                        <samplecharacteristics>
                                            <height>720</height>
                                            <width>1270</width>
                                        </samplecharacteristics>
                                    </video>
                                </media>
                                <file id="file-1">
                                    <pathurl>/home/davidk/code/python/JC-render/JC-examples/yoga.mp4</pathurl>
                                    <name>yoga.mp4</name>
                                    <rate>
                                        <timebase>30</timebase>
                                        <ntsc>TRUE</ntsc>
                                    </rate>
                                    <duration>54922</duration>
                                    <timecode>
                                        <rate>
                                            <timebase>30</timebase>
                                            <ntsc>TRUE</ntsc>
                                        </rate>
                                        <string>00:00:00:00</string>
                                        <frame>0</frame>
                                        <displayformat>NDF</displayformat>
                                        <media>
                                            <video/>
                                            <audio/>
                                        </media>
                                    </timecode>
                                </file>
                                <name>/home/davidk/code/python/JC-render/JC-examples/yoga.mp4</name>
                                <rate>
                                    <timebase>30</timebase>
                                    <ntsc>TRUE</ntsc>
                                </rate>
                                <start>11972</start>
                                <end>11994</end>
                            </clipitem>
                            <clipitem frameBlend="FALSE" id="clipitem-244">
                                <media>
                                    <video>
                                        <samplecharacteristics>
                                            <height>720</height>
                                            <width>1270</width>
                                        </samplecharacteristics>
                                    </video>
                                </media>
                                <file id="file-1">
                                    <pathurl>/home/davidk/code/python/JC-render/JC-examples/yoga.mp4</pathurl>
                                    <name>yoga.mp4</name>
                                    <rate>
                                        <timebase>30</timebase>
                                        <ntsc>TRUE</ntsc>
                                    </rate>
                                    <duration>54922</duration>
                                    <timecode>
                                        <rate>
                                            <timebase>30</timebase>
                                            <ntsc>TRUE</ntsc>
                                        </rate>
                                        <string>00:00:00:00</string>
                                        <frame>0</frame>
                                        <displayformat>NDF</displayformat>
                                        <media>
                                            <video/>
                                            <audio/>
                                        </media>
                                    </timecode>
                                </file>
                                <name>/home/davidk/code/python/JC-render/JC-examples/yoga.mp4</name>
                                <rate>
                                    <timebase>30</timebase>
                                    <ntsc>TRUE</ntsc>
                                </rate>
                                <start>11994</start>
                                <end>12017</end>
                            </clipitem>
                            <clipitem frameBlend="FALSE" id="clipitem-245">
                                <media>
                                    <video>
                                        <samplecharacteristics>
                                            <height>720</height>
                                            <width>1270</width>
                                        </samplecharacteristics>
                                    </video>
                                </media>
                                <file id="file-1">
                                    <pathurl>/home/davidk/code/python/JC-render/JC-examples/yoga.mp4</pathurl>
                                    <name>yoga.mp4</name>
                                    <rate>
                                        <timebase>30</timebase>
                                        <ntsc>TRUE</ntsc>
                                    </rate>
                                    <duration>54922</duration>
                                    <timecode>
                                        <rate>
                                            <timebase>30</timebase>
                                            <ntsc>TRUE</ntsc>
                                        </rate>
                                        <string>00:00:00:00</string>
                                        <frame>0</frame>
                                        <displayformat>NDF</displayformat>
                                        <media>
                                            <video/>
                                            <audio/>
                                        </media>
                                    </timecode>
                                </file>
                                <name>/home/davidk/code/python/JC-render/JC-examples/yoga.mp4</name>
                                <rate>
                                    <timebase>30</timebase>
                                    <ntsc>TRUE</ntsc>
                                </rate>
                                <start>12017</start>
                                <end>12043</end>
                            </clipitem>
                            <clipitem frameBlend="FALSE" id="clipitem-246">
                                <media>
                                    <video>
                                        <samplecharacteristics>
                                            <height>720</height>
                                            <width>1270</width>
                                        </samplecharacteristics>
                                    </video>
                                </media>
                                <file id="file-1">
                                    <pathurl>/home/davidk/code/python/JC-render/JC-examples/yoga.mp4</pathurl>
                                    <name>yoga.mp4</name>
                                    <rate>
                                        <timebase>30</timebase>
                                        <ntsc>TRUE</ntsc>
                                    </rate>
                                    <duration>54922</duration>
                                    <timecode>
                                        <rate>
                                            <timebase>30</timebase>
                                            <ntsc>TRUE</ntsc>
                                        </rate>
                                        <string>00:00:00:00</string>
                                        <frame>0</frame>
                                        <displayformat>NDF</displayformat>
                                        <media>
                                            <video/>
                                            <audio/>
                                        </media>
                                    </timecode>
                                </file>
                                <name>/home/davidk/code/python/JC-render/JC-examples/yoga.mp4</name>
                                <rate>
                                    <timebase>30</timebase>
                                    <ntsc>TRUE</ntsc>
                                </rate>
                                <start>12043</start>
                                <end>12077</end>
                            </clipitem>
                            <clipitem frameBlend="FALSE" id="clipitem-247">
                                <media>
                                    <video>
                                        <samplecharacteristics>
                                            <height>720</height>
                                            <width>1270</width>
                                        </samplecharacteristics>
                                    </video>
                                </media>
                                <file id="file-1">
                                    <pathurl>/home/davidk/code/python/JC-render/JC-examples/yoga.mp4</pathurl>
                                    <name>yoga.mp4</name>
                                    <rate>
                                        <timebase>30</timebase>
                                        <ntsc>TRUE</ntsc>
                                    </rate>
                                    <duration>54922</duration>
                                    <timecode>
                                        <rate>
                                            <timebase>30</timebase>
                                            <ntsc>TRUE</ntsc>
                                        </rate>
                                        <string>00:00:00:00</string>
                                        <frame>0</frame>
                                        <displayformat>NDF</displayformat>
                                        <media>
                                            <video/>
                                            <audio/>
                                        </media>
                                    </timecode>
                                </file>
                                <name>/home/davidk/code/python/JC-render/JC-examples/yoga.mp4</name>
                                <rate>
                                    <timebase>30</timebase>
                                    <ntsc>TRUE</ntsc>
                                </rate>
                                <start>12077</start>
                                <end>12095</end>
                            </clipitem>
                            <clipitem frameBlend="FALSE" id="clipitem-248">
                                <media>
                                    <video>
                                        <samplecharacteristics>
                                            <height>720</height>
                                            <width>1270</width>
                                        </samplecharacteristics>
                                    </video>
                                </media>
                                <file id="file-1">
                                    <pathurl>/home/davidk/code/python/JC-render/JC-examples/yoga.mp4</pathurl>
                                    <name>yoga.mp4</name>
                                    <rate>
                                        <timebase>30</timebase>
                                        <ntsc>TRUE</ntsc>
                                    </rate>
                                    <duration>54922</duration>
                                    <timecode>
                                        <rate>
                                            <timebase>30</timebase>
                                            <ntsc>TRUE</ntsc>
                                        </rate>
                                        <string>00:00:00:00</string>
                                        <frame>0</frame>
                                        <displayformat>NDF</displayformat>
                                        <media>
                                            <video/>
                                            <audio/>
                                        </media>
                                    </timecode>
                                </file>
                                <name>/home/davidk/code/python/JC-render/JC-examples/yoga.mp4</name>
                                <rate>
                                    <timebase>30</timebase>
                                    <ntsc>TRUE</ntsc>
                                </rate>
                                <start>12095</start>
                                <end>12101</end>
                            </clipitem>
                            <clipitem frameBlend="FALSE" id="clipitem-249">
                                <media>
                                    <video>
                                        <samplecharacteristics>
                                            <height>720</height>
                                            <width>1270</width>
                                        </samplecharacteristics>
                                    </video>
                                </media>
                                <file id="file-1">
                                    <pathurl>/home/davidk/code/python/JC-render/JC-examples/yoga.mp4</pathurl>
                                    <name>yoga.mp4</name>
                                    <rate>
                                        <timebase>30</timebase>
                                        <ntsc>TRUE</ntsc>
                                    </rate>
                                    <duration>54922</duration>
                                    <timecode>
                                        <rate>
                                            <timebase>30</timebase>
                                            <ntsc>TRUE</ntsc>
                                        </rate>
                                        <string>00:00:00:00</string>
                                        <frame>0</frame>
                                        <displayformat>NDF</displayformat>
                                        <media>
                                            <video/>
                                            <audio/>
                                        </media>
                                    </timecode>
                                </file>
                                <name>/home/davidk/code/python/JC-render/JC-examples/yoga.mp4</name>
                                <rate>
                                    <timebase>30</timebase>
                                    <ntsc>TRUE</ntsc>
                                </rate>
                                <start>12101</start>
                                <end>12141</end>
                            </clipitem>
                            <clipitem frameBlend="FALSE" id="clipitem-250">
                                <media>
                                    <video>
                                        <samplecharacteristics>
                                            <height>720</height>
                                            <width>1270</width>
                                        </samplecharacteristics>
                                    </video>
                                </media>
                                <file id="file-1">
                                    <pathurl>/home/davidk/code/python/JC-render/JC-examples/yoga.mp4</pathurl>
                                    <name>yoga.mp4</name>
                                    <rate>
                                        <timebase>30</timebase>
                                        <ntsc>TRUE</ntsc>
                                    </rate>
                                    <duration>54922</duration>
                                    <timecode>
                                        <rate>
                                            <timebase>30</timebase>
                                            <ntsc>TRUE</ntsc>
                                        </rate>
                                        <string>00:00:00:00</string>
                                        <frame>0</frame>
                                        <displayformat>NDF</displayformat>
                                        <media>
                                            <video/>
                                            <audio/>
                                        </media>
                                    </timecode>
                                </file>
                                <name>/home/davidk/code/python/JC-render/JC-examples/yoga.mp4</name>
                                <rate>
                                    <timebase>30</timebase>
                                    <ntsc>TRUE</ntsc>
                                </rate>
                                <start>12141</start>
                                <end>12143</end>
                            </clipitem>
                            <clipitem frameBlend="FALSE" id="clipitem-251">
                                <media>
                                    <video>
                                        <samplecharacteristics>
                                            <height>720</height>
                                            <width>1270</width>
                                        </samplecharacteristics>
                                    </video>
                                </media>
                                <file id="file-1">
                                    <pathurl>/home/davidk/code/python/JC-render/JC-examples/yoga.mp4</pathurl>
                                    <name>yoga.mp4</name>
                                    <rate>
                                        <timebase>30</timebase>
                                        <ntsc>TRUE</ntsc>
                                    </rate>
                                    <duration>54922</duration>
                                    <timecode>
                                        <rate>
                                            <timebase>30</timebase>
                                            <ntsc>TRUE</ntsc>
                                        </rate>
                                        <string>00:00:00:00</string>
                                        <frame>0</frame>
                                        <displayformat>NDF</displayformat>
                                        <media>
                                            <video/>
                                            <audio/>
                                        </media>
                                    </timecode>
                                </file>
                                <name>/home/davidk/code/python/JC-render/JC-examples/yoga.mp4</name>
                                <rate>
                                    <timebase>30</timebase>
                                    <ntsc>TRUE</ntsc>
                                </rate>
                                <start>12143</start>
                                <end>12196</end>
                            </clipitem>
                            <clipitem frameBlend="FALSE" id="clipitem-252">
                                <media>
                                    <video>
                                        <samplecharacteristics>
                                            <height>720</height>
                                            <width>1270</width>
                                        </samplecharacteristics>
                                    </video>
                                </media>
                                <file id="file-1">
                                    <pathurl>/home/davidk/code/python/JC-render/JC-examples/yoga.mp4</pathurl>
                                    <name>yoga.mp4</name>
                                    <rate>
                                        <timebase>30</timebase>
                                        <ntsc>TRUE</ntsc>
                                    </rate>
                                    <duration>54922</duration>
                                    <timecode>
                                        <rate>
                                            <timebase>30</timebase>
                                            <ntsc>TRUE</ntsc>
                                        </rate>
                                        <string>00:00:00:00</string>
                                        <frame>0</frame>
                                        <displayformat>NDF</displayformat>
                                        <media>
                                            <video/>
                                            <audio/>
                                        </media>
                                    </timecode>
                                </file>
                                <name>/home/davidk/code/python/JC-render/JC-examples/yoga.mp4</name>
                                <rate>
                                    <timebase>30</timebase>
                                    <ntsc>TRUE</ntsc>
                                </rate>
                                <start>12196</start>
                                <end>12198</end>
                            </clipitem>
                            <clipitem frameBlend="FALSE" id="clipitem-253">
                                <media>
                                    <video>
                                        <samplecharacteristics>
                                            <height>720</height>
                                            <width>1270</width>
                                        </samplecharacteristics>
                                    </video>
                                </media>
                                <file id="file-1">
                                    <pathurl>/home/davidk/code/python/JC-render/JC-examples/yoga.mp4</pathurl>
                                    <name>yoga.mp4</name>
                                    <rate>
                                        <timebase>30</timebase>
                                        <ntsc>TRUE</ntsc>
                                    </rate>
                                    <duration>54922</duration>
                                    <timecode>
                                        <rate>
                                            <timebase>30</timebase>
                                            <ntsc>TRUE</ntsc>
                                        </rate>
                                        <string>00:00:00:00</string>
                                        <frame>0</frame>
                                        <displayformat>NDF</displayformat>
                                        <media>
                                            <video/>
                                            <audio/>
                                        </media>
                                    </timecode>
                                </file>
                                <name>/home/davidk/code/python/JC-render/JC-examples/yoga.mp4</name>
                                <rate>
                                    <timebase>30</timebase>
                                    <ntsc>TRUE</ntsc>
                                </rate>
                                <start>12198</start>
                                <end>12378</end>
                            </clipitem>
                            <clipitem frameBlend="FALSE" id="clipitem-254">
                                <media>
                                    <video>
                                        <samplecharacteristics>
                                            <height>720</height>
                                            <width>1270</width>
                                        </samplecharacteristics>
                                    </video>
                                </media>
                                <file id="file-1">
                                    <pathurl>/home/davidk/code/python/JC-render/JC-examples/yoga.mp4</pathurl>
                                    <name>yoga.mp4</name>
                                    <rate>
                                        <timebase>30</timebase>
                                        <ntsc>TRUE</ntsc>
                                    </rate>
                                    <duration>54922</duration>
                                    <timecode>
                                        <rate>
                                            <timebase>30</timebase>
                                            <ntsc>TRUE</ntsc>
                                        </rate>
                                        <string>00:00:00:00</string>
                                        <frame>0</frame>
                                        <displayformat>NDF</displayformat>
                                        <media>
                                            <video/>
                                            <audio/>
                                        </media>
                                    </timecode>
                                </file>
                                <name>/home/davidk/code/python/JC-render/JC-examples/yoga.mp4</name>
                                <rate>
                                    <timebase>30</timebase>
                                    <ntsc>TRUE</ntsc>
                                </rate>
                                <start>12378</start>
                                <end>12435</end>
                            </clipitem>
                            <clipitem frameBlend="FALSE" id="clipitem-255">
                                <media>
                                    <video>
                                        <samplecharacteristics>
                                            <height>720</height>
                                            <width>1270</width>
                                        </samplecharacteristics>
                                    </video>
                                </media>
                                <file id="file-1">
                                    <pathurl>/home/davidk/code/python/JC-render/JC-examples/yoga.mp4</pathurl>
                                    <name>yoga.mp4</name>
                                    <rate>
                                        <timebase>30</timebase>
                                        <ntsc>TRUE</ntsc>
                                    </rate>
                                    <duration>54922</duration>
                                    <timecode>
                                        <rate>
                                            <timebase>30</timebase>
                                            <ntsc>TRUE</ntsc>
                                        </rate>
                                        <string>00:00:00:00</string>
                                        <frame>0</frame>
                                        <displayformat>NDF</displayformat>
                                        <media>
                                            <video/>
                                            <audio/>
                                        </media>
                                    </timecode>
                                </file>
                                <name>/home/davidk/code/python/JC-render/JC-examples/yoga.mp4</name>
                                <rate>
                                    <timebase>30</timebase>
                                    <ntsc>TRUE</ntsc>
                                </rate>
                                <start>12435</start>
                                <end>12520</end>
                            </clipitem>
                            <clipitem frameBlend="FALSE" id="clipitem-256">
                                <media>
                                    <video>
                                        <samplecharacteristics>
                                            <height>720</height>
                                            <width>1270</width>
                                        </samplecharacteristics>
                                    </video>
                                </media>
                                <file id="file-1">
                                    <pathurl>/home/davidk/code/python/JC-render/JC-examples/yoga.mp4</pathurl>
                                    <name>yoga.mp4</name>
                                    <rate>
                                        <timebase>30</timebase>
                                        <ntsc>TRUE</ntsc>
                                    </rate>
                                    <duration>54922</duration>
                                    <timecode>
                                        <rate>
                                            <timebase>30</timebase>
                                            <ntsc>TRUE</ntsc>
                                        </rate>
                                        <string>00:00:00:00</string>
                                        <frame>0</frame>
                                        <displayformat>NDF</displayformat>
                                        <media>
                                            <video/>
                                            <audio/>
                                        </media>
                                    </timecode>
                                </file>
                                <name>/home/davidk/code/python/JC-render/JC-examples/yoga.mp4</name>
                                <rate>
                                    <timebase>30</timebase>
                                    <ntsc>TRUE</ntsc>
                                </rate>
                                <start>12520</start>
                                <end>12564</end>
                            </clipitem>
                            <clipitem frameBlend="FALSE" id="clipitem-257">
                                <media>
                                    <video>
                                        <samplecharacteristics>
                                            <height>720</height>
                                            <width>1270</width>
                                        </samplecharacteristics>
                                    </video>
                                </media>
                                <file id="file-1">
                                    <pathurl>/home/davidk/code/python/JC-render/JC-examples/yoga.mp4</pathurl>
                                    <name>yoga.mp4</name>
                                    <rate>
                                        <timebase>30</timebase>
                                        <ntsc>TRUE</ntsc>
                                    </rate>
                                    <duration>54922</duration>
                                    <timecode>
                                        <rate>
                                            <timebase>30</timebase>
                                            <ntsc>TRUE</ntsc>
                                        </rate>
                                        <string>00:00:00:00</string>
                                        <frame>0</frame>
                                        <displayformat>NDF</displayformat>
                                        <media>
                                            <video/>
                                            <audio/>
                                        </media>
                                    </timecode>
                                </file>
                                <name>/home/davidk/code/python/JC-render/JC-examples/yoga.mp4</name>
                                <rate>
                                    <timebase>30</timebase>
                                    <ntsc>TRUE</ntsc>
                                </rate>
                                <start>12564</start>
                                <end>12649</end>
                            </clipitem>
                            <clipitem frameBlend="FALSE" id="clipitem-258">
                                <media>
                                    <video>
                                        <samplecharacteristics>
                                            <height>720</height>
                                            <width>1270</width>
                                        </samplecharacteristics>
                                    </video>
                                </media>
                                <file id="file-1">
                                    <pathurl>/home/davidk/code/python/JC-render/JC-examples/yoga.mp4</pathurl>
                                    <name>yoga.mp4</name>
                                    <rate>
                                        <timebase>30</timebase>
                                        <ntsc>TRUE</ntsc>
                                    </rate>
                                    <duration>54922</duration>
                                    <timecode>
                                        <rate>
                                            <timebase>30</timebase>
                                            <ntsc>TRUE</ntsc>
                                        </rate>
                                        <string>00:00:00:00</string>
                                        <frame>0</frame>
                                        <displayformat>NDF</displayformat>
                                        <media>
                                            <video/>
                                            <audio/>
                                        </media>
                                    </timecode>
                                </file>
                                <name>/home/davidk/code/python/JC-render/JC-examples/yoga.mp4</name>
                                <rate>
                                    <timebase>30</timebase>
                                    <ntsc>TRUE</ntsc>
                                </rate>
                                <start>12649</start>
                                <end>12655</end>
                            </clipitem>
                            <clipitem frameBlend="FALSE" id="clipitem-259">
                                <media>
                                    <video>
                                        <samplecharacteristics>
                                            <height>720</height>
                                            <width>1270</width>
                                        </samplecharacteristics>
                                    </video>
                                </media>
                                <file id="file-1">
                                    <pathurl>/home/davidk/code/python/JC-render/JC-examples/yoga.mp4</pathurl>
                                    <name>yoga.mp4</name>
                                    <rate>
                                        <timebase>30</timebase>
                                        <ntsc>TRUE</ntsc>
                                    </rate>
                                    <duration>54922</duration>
                                    <timecode>
                                        <rate>
                                            <timebase>30</timebase>
                                            <ntsc>TRUE</ntsc>
                                        </rate>
                                        <string>00:00:00:00</string>
                                        <frame>0</frame>
                                        <displayformat>NDF</displayformat>
                                        <media>
                                            <video/>
                                            <audio/>
                                        </media>
                                    </timecode>
                                </file>
                                <name>/home/davidk/code/python/JC-render/JC-examples/yoga.mp4</name>
                                <rate>
                                    <timebase>30</timebase>
                                    <ntsc>TRUE</ntsc>
                                </rate>
                                <start>12655</start>
                                <end>12789</end>
                            </clipitem>
                            <clipitem frameBlend="FALSE" id="clipitem-260">
                                <media>
                                    <video>
                                        <samplecharacteristics>
                                            <height>720</height>
                                            <width>1270</width>
                                        </samplecharacteristics>
                                    </video>
                                </media>
                                <file id="file-1">
                                    <pathurl>/home/davidk/code/python/JC-render/JC-examples/yoga.mp4</pathurl>
                                    <name>yoga.mp4</name>
                                    <rate>
                                        <timebase>30</timebase>
                                        <ntsc>TRUE</ntsc>
                                    </rate>
                                    <duration>54922</duration>
                                    <timecode>
                                        <rate>
                                            <timebase>30</timebase>
                                            <ntsc>TRUE</ntsc>
                                        </rate>
                                        <string>00:00:00:00</string>
                                        <frame>0</frame>
                                        <displayformat>NDF</displayformat>
                                        <media>
                                            <video/>
                                            <audio/>
                                        </media>
                                    </timecode>
                                </file>
                                <name>/home/davidk/code/python/JC-render/JC-examples/yoga.mp4</name>
                                <rate>
                                    <timebase>30</timebase>
                                    <ntsc>TRUE</ntsc>
                                </rate>
                                <start>12789</start>
                                <end>12794</end>
                            </clipitem>
                            <clipitem frameBlend="FALSE" id="clipitem-261">
                                <media>
                                    <video>
                                        <samplecharacteristics>
                                            <height>720</height>
                                            <width>1270</width>
                                        </samplecharacteristics>
                                    </video>
                                </media>
                                <file id="file-1">
                                    <pathurl>/home/davidk/code/python/JC-render/JC-examples/yoga.mp4</pathurl>
                                    <name>yoga.mp4</name>
                                    <rate>
                                        <timebase>30</timebase>
                                        <ntsc>TRUE</ntsc>
                                    </rate>
                                    <duration>54922</duration>
                                    <timecode>
                                        <rate>
                                            <timebase>30</timebase>
                                            <ntsc>TRUE</ntsc>
                                        </rate>
                                        <string>00:00:00:00</string>
                                        <frame>0</frame>
                                        <displayformat>NDF</displayformat>
                                        <media>
                                            <video/>
                                            <audio/>
                                        </media>
                                    </timecode>
                                </file>
                                <name>/home/davidk/code/python/JC-render/JC-examples/yoga.mp4</name>
                                <rate>
                                    <timebase>30</timebase>
                                    <ntsc>TRUE</ntsc>
                                </rate>
                                <start>12794</start>
                                <end>12904</end>
                            </clipitem>
                            <clipitem frameBlend="FALSE" id="clipitem-262">
                                <media>
                                    <video>
                                        <samplecharacteristics>
                                            <height>720</height>
                                            <width>1270</width>
                                        </samplecharacteristics>
                                    </video>
                                </media>
                                <file id="file-1">
                                    <pathurl>/home/davidk/code/python/JC-render/JC-examples/yoga.mp4</pathurl>
                                    <name>yoga.mp4</name>
                                    <rate>
                                        <timebase>30</timebase>
                                        <ntsc>TRUE</ntsc>
                                    </rate>
                                    <duration>54922</duration>
                                    <timecode>
                                        <rate>
                                            <timebase>30</timebase>
                                            <ntsc>TRUE</ntsc>
                                        </rate>
                                        <string>00:00:00:00</string>
                                        <frame>0</frame>
                                        <displayformat>NDF</displayformat>
                                        <media>
                                            <video/>
                                            <audio/>
                                        </media>
                                    </timecode>
                                </file>
                                <name>/home/davidk/code/python/JC-render/JC-examples/yoga.mp4</name>
                                <rate>
                                    <timebase>30</timebase>
                                    <ntsc>TRUE</ntsc>
                                </rate>
                                <start>12904</start>
                                <end>12909</end>
                            </clipitem>
                            <clipitem frameBlend="FALSE" id="clipitem-263">
                                <media>
                                    <video>
                                        <samplecharacteristics>
                                            <height>720</height>
                                            <width>1270</width>
                                        </samplecharacteristics>
                                    </video>
                                </media>
                                <file id="file-1">
                                    <pathurl>/home/davidk/code/python/JC-render/JC-examples/yoga.mp4</pathurl>
                                    <name>yoga.mp4</name>
                                    <rate>
                                        <timebase>30</timebase>
                                        <ntsc>TRUE</ntsc>
                                    </rate>
                                    <duration>54922</duration>
                                    <timecode>
                                        <rate>
                                            <timebase>30</timebase>
                                            <ntsc>TRUE</ntsc>
                                        </rate>
                                        <string>00:00:00:00</string>
                                        <frame>0</frame>
                                        <displayformat>NDF</displayformat>
                                        <media>
                                            <video/>
                                            <audio/>
                                        </media>
                                    </timecode>
                                </file>
                                <name>/home/davidk/code/python/JC-render/JC-examples/yoga.mp4</name>
                                <rate>
                                    <timebase>30</timebase>
                                    <ntsc>TRUE</ntsc>
                                </rate>
                                <start>12909</start>
                                <end>12924</end>
                            </clipitem>
                            <clipitem frameBlend="FALSE" id="clipitem-264">
                                <media>
                                    <video>
                                        <samplecharacteristics>
                                            <height>720</height>
                                            <width>1270</width>
                                        </samplecharacteristics>
                                    </video>
                                </media>
                                <file id="file-1">
                                    <pathurl>/home/davidk/code/python/JC-render/JC-examples/yoga.mp4</pathurl>
                                    <name>yoga.mp4</name>
                                    <rate>
                                        <timebase>30</timebase>
                                        <ntsc>TRUE</ntsc>
                                    </rate>
                                    <duration>54922</duration>
                                    <timecode>
                                        <rate>
                                            <timebase>30</timebase>
                                            <ntsc>TRUE</ntsc>
                                        </rate>
                                        <string>00:00:00:00</string>
                                        <frame>0</frame>
                                        <displayformat>NDF</displayformat>
                                        <media>
                                            <video/>
                                            <audio/>
                                        </media>
                                    </timecode>
                                </file>
                                <name>/home/davidk/code/python/JC-render/JC-examples/yoga.mp4</name>
                                <rate>
                                    <timebase>30</timebase>
                                    <ntsc>TRUE</ntsc>
                                </rate>
                                <start>12924</start>
                                <end>12926</end>
                            </clipitem>
                            <clipitem frameBlend="FALSE" id="clipitem-265">
                                <media>
                                    <video>
                                        <samplecharacteristics>
                                            <height>720</height>
                                            <width>1270</width>
                                        </samplecharacteristics>
                                    </video>
                                </media>
                                <file id="file-1">
                                    <pathurl>/home/davidk/code/python/JC-render/JC-examples/yoga.mp4</pathurl>
                                    <name>yoga.mp4</name>
                                    <rate>
                                        <timebase>30</timebase>
                                        <ntsc>TRUE</ntsc>
                                    </rate>
                                    <duration>54922</duration>
                                    <timecode>
                                        <rate>
                                            <timebase>30</timebase>
                                            <ntsc>TRUE</ntsc>
                                        </rate>
                                        <string>00:00:00:00</string>
                                        <frame>0</frame>
                                        <displayformat>NDF</displayformat>
                                        <media>
                                            <video/>
                                            <audio/>
                                        </media>
                                    </timecode>
                                </file>
                                <name>/home/davidk/code/python/JC-render/JC-examples/yoga.mp4</name>
                                <rate>
                                    <timebase>30</timebase>
                                    <ntsc>TRUE</ntsc>
                                </rate>
                                <start>12926</start>
                                <end>12956</end>
                            </clipitem>
                            <clipitem frameBlend="FALSE" id="clipitem-266">
                                <media>
                                    <video>
                                        <samplecharacteristics>
                                            <height>720</height>
                                            <width>1270</width>
                                        </samplecharacteristics>
                                    </video>
                                </media>
                                <file id="file-1">
                                    <pathurl>/home/davidk/code/python/JC-render/JC-examples/yoga.mp4</pathurl>
                                    <name>yoga.mp4</name>
                                    <rate>
                                        <timebase>30</timebase>
                                        <ntsc>TRUE</ntsc>
                                    </rate>
                                    <duration>54922</duration>
                                    <timecode>
                                        <rate>
                                            <timebase>30</timebase>
                                            <ntsc>TRUE</ntsc>
                                        </rate>
                                        <string>00:00:00:00</string>
                                        <frame>0</frame>
                                        <displayformat>NDF</displayformat>
                                        <media>
                                            <video/>
                                            <audio/>
                                        </media>
                                    </timecode>
                                </file>
                                <name>/home/davidk/code/python/JC-render/JC-examples/yoga.mp4</name>
                                <rate>
                                    <timebase>30</timebase>
                                    <ntsc>TRUE</ntsc>
                                </rate>
                                <start>12956</start>
                                <end>12961</end>
                            </clipitem>
                            <clipitem frameBlend="FALSE" id="clipitem-267">
                                <media>
                                    <video>
                                        <samplecharacteristics>
                                            <height>720</height>
                                            <width>1270</width>
                                        </samplecharacteristics>
                                    </video>
                                </media>
                                <file id="file-1">
                                    <pathurl>/home/davidk/code/python/JC-render/JC-examples/yoga.mp4</pathurl>
                                    <name>yoga.mp4</name>
                                    <rate>
                                        <timebase>30</timebase>
                                        <ntsc>TRUE</ntsc>
                                    </rate>
                                    <duration>54922</duration>
                                    <timecode>
                                        <rate>
                                            <timebase>30</timebase>
                                            <ntsc>TRUE</ntsc>
                                        </rate>
                                        <string>00:00:00:00</string>
                                        <frame>0</frame>
                                        <displayformat>NDF</displayformat>
                                        <media>
                                            <video/>
                                            <audio/>
                                        </media>
                                    </timecode>
                                </file>
                                <name>/home/davidk/code/python/JC-render/JC-examples/yoga.mp4</name>
                                <rate>
                                    <timebase>30</timebase>
                                    <ntsc>TRUE</ntsc>
                                </rate>
                                <start>12961</start>
                                <end>12977</end>
                            </clipitem>
                            <clipitem frameBlend="FALSE" id="clipitem-268">
                                <media>
                                    <video>
                                        <samplecharacteristics>
                                            <height>720</height>
                                            <width>1270</width>
                                        </samplecharacteristics>
                                    </video>
                                </media>
                                <file id="file-1">
                                    <pathurl>/home/davidk/code/python/JC-render/JC-examples/yoga.mp4</pathurl>
                                    <name>yoga.mp4</name>
                                    <rate>
                                        <timebase>30</timebase>
                                        <ntsc>TRUE</ntsc>
                                    </rate>
                                    <duration>54922</duration>
                                    <timecode>
                                        <rate>
                                            <timebase>30</timebase>
                                            <ntsc>TRUE</ntsc>
                                        </rate>
                                        <string>00:00:00:00</string>
                                        <frame>0</frame>
                                        <displayformat>NDF</displayformat>
                                        <media>
                                            <video/>
                                            <audio/>
                                        </media>
                                    </timecode>
                                </file>
                                <name>/home/davidk/code/python/JC-render/JC-examples/yoga.mp4</name>
                                <rate>
                                    <timebase>30</timebase>
                                    <ntsc>TRUE</ntsc>
                                </rate>
                                <start>12977</start>
                                <end>12993</end>
                            </clipitem>
                            <clipitem frameBlend="FALSE" id="clipitem-269">
                                <media>
                                    <video>
                                        <samplecharacteristics>
                                            <height>720</height>
                                            <width>1270</width>
                                        </samplecharacteristics>
                                    </video>
                                </media>
                                <file id="file-1">
                                    <pathurl>/home/davidk/code/python/JC-render/JC-examples/yoga.mp4</pathurl>
                                    <name>yoga.mp4</name>
                                    <rate>
                                        <timebase>30</timebase>
                                        <ntsc>TRUE</ntsc>
                                    </rate>
                                    <duration>54922</duration>
                                    <timecode>
                                        <rate>
                                            <timebase>30</timebase>
                                            <ntsc>TRUE</ntsc>
                                        </rate>
                                        <string>00:00:00:00</string>
                                        <frame>0</frame>
                                        <displayformat>NDF</displayformat>
                                        <media>
                                            <video/>
                                            <audio/>
                                        </media>
                                    </timecode>
                                </file>
                                <name>/home/davidk/code/python/JC-render/JC-examples/yoga.mp4</name>
                                <rate>
                                    <timebase>30</timebase>
                                    <ntsc>TRUE</ntsc>
                                </rate>
                                <start>12993</start>
                                <end>13039</end>
                            </clipitem>
                            <clipitem frameBlend="FALSE" id="clipitem-270">
                                <media>
                                    <video>
                                        <samplecharacteristics>
                                            <height>720</height>
                                            <width>1270</width>
                                        </samplecharacteristics>
                                    </video>
                                </media>
                                <file id="file-1">
                                    <pathurl>/home/davidk/code/python/JC-render/JC-examples/yoga.mp4</pathurl>
                                    <name>yoga.mp4</name>
                                    <rate>
                                        <timebase>30</timebase>
                                        <ntsc>TRUE</ntsc>
                                    </rate>
                                    <duration>54922</duration>
                                    <timecode>
                                        <rate>
                                            <timebase>30</timebase>
                                            <ntsc>TRUE</ntsc>
                                        </rate>
                                        <string>00:00:00:00</string>
                                        <frame>0</frame>
                                        <displayformat>NDF</displayformat>
                                        <media>
                                            <video/>
                                            <audio/>
                                        </media>
                                    </timecode>
                                </file>
                                <name>/home/davidk/code/python/JC-render/JC-examples/yoga.mp4</name>
                                <rate>
                                    <timebase>30</timebase>
                                    <ntsc>TRUE</ntsc>
                                </rate>
                                <start>13039</start>
                                <end>13048</end>
                            </clipitem>
                            <clipitem frameBlend="FALSE" id="clipitem-271">
                                <media>
                                    <video>
                                        <samplecharacteristics>
                                            <height>720</height>
                                            <width>1270</width>
                                        </samplecharacteristics>
                                    </video>
                                </media>
                                <file id="file-1">
                                    <pathurl>/home/davidk/code/python/JC-render/JC-examples/yoga.mp4</pathurl>
                                    <name>yoga.mp4</name>
                                    <rate>
                                        <timebase>30</timebase>
                                        <ntsc>TRUE</ntsc>
                                    </rate>
                                    <duration>54922</duration>
                                    <timecode>
                                        <rate>
                                            <timebase>30</timebase>
                                            <ntsc>TRUE</ntsc>
                                        </rate>
                                        <string>00:00:00:00</string>
                                        <frame>0</frame>
                                        <displayformat>NDF</displayformat>
                                        <media>
                                            <video/>
                                            <audio/>
                                        </media>
                                    </timecode>
                                </file>
                                <name>/home/davidk/code/python/JC-render/JC-examples/yoga.mp4</name>
                                <rate>
                                    <timebase>30</timebase>
                                    <ntsc>TRUE</ntsc>
                                </rate>
                                <start>13048</start>
                                <end>13064</end>
                            </clipitem>
                            <clipitem frameBlend="FALSE" id="clipitem-272">
                                <media>
                                    <video>
                                        <samplecharacteristics>
                                            <height>720</height>
                                            <width>1270</width>
                                        </samplecharacteristics>
                                    </video>
                                </media>
                                <file id="file-1">
                                    <pathurl>/home/davidk/code/python/JC-render/JC-examples/yoga.mp4</pathurl>
                                    <name>yoga.mp4</name>
                                    <rate>
                                        <timebase>30</timebase>
                                        <ntsc>TRUE</ntsc>
                                    </rate>
                                    <duration>54922</duration>
                                    <timecode>
                                        <rate>
                                            <timebase>30</timebase>
                                            <ntsc>TRUE</ntsc>
                                        </rate>
                                        <string>00:00:00:00</string>
                                        <frame>0</frame>
                                        <displayformat>NDF</displayformat>
                                        <media>
                                            <video/>
                                            <audio/>
                                        </media>
                                    </timecode>
                                </file>
                                <name>/home/davidk/code/python/JC-render/JC-examples/yoga.mp4</name>
                                <rate>
                                    <timebase>30</timebase>
                                    <ntsc>TRUE</ntsc>
                                </rate>
                                <start>13064</start>
                                <end>13080</end>
                            </clipitem>
                            <clipitem frameBlend="FALSE" id="clipitem-273">
                                <media>
                                    <video>
                                        <samplecharacteristics>
                                            <height>720</height>
                                            <width>1270</width>
                                        </samplecharacteristics>
                                    </video>
                                </media>
                                <file id="file-1">
                                    <pathurl>/home/davidk/code/python/JC-render/JC-examples/yoga.mp4</pathurl>
                                    <name>yoga.mp4</name>
                                    <rate>
                                        <timebase>30</timebase>
                                        <ntsc>TRUE</ntsc>
                                    </rate>
                                    <duration>54922</duration>
                                    <timecode>
                                        <rate>
                                            <timebase>30</timebase>
                                            <ntsc>TRUE</ntsc>
                                        </rate>
                                        <string>00:00:00:00</string>
                                        <frame>0</frame>
                                        <displayformat>NDF</displayformat>
                                        <media>
                                            <video/>
                                            <audio/>
                                        </media>
                                    </timecode>
                                </file>
                                <name>/home/davidk/code/python/JC-render/JC-examples/yoga.mp4</name>
                                <rate>
                                    <timebase>30</timebase>
                                    <ntsc>TRUE</ntsc>
                                </rate>
                                <start>13080</start>
                                <end>13109</end>
                            </clipitem>
                            <clipitem frameBlend="FALSE" id="clipitem-274">
                                <media>
                                    <video>
                                        <samplecharacteristics>
                                            <height>720</height>
                                            <width>1270</width>
                                        </samplecharacteristics>
                                    </video>
                                </media>
                                <file id="file-1">
                                    <pathurl>/home/davidk/code/python/JC-render/JC-examples/yoga.mp4</pathurl>
                                    <name>yoga.mp4</name>
                                    <rate>
                                        <timebase>30</timebase>
                                        <ntsc>TRUE</ntsc>
                                    </rate>
                                    <duration>54922</duration>
                                    <timecode>
                                        <rate>
                                            <timebase>30</timebase>
                                            <ntsc>TRUE</ntsc>
                                        </rate>
                                        <string>00:00:00:00</string>
                                        <frame>0</frame>
                                        <displayformat>NDF</displayformat>
                                        <media>
                                            <video/>
                                            <audio/>
                                        </media>
                                    </timecode>
                                </file>
                                <name>/home/davidk/code/python/JC-render/JC-examples/yoga.mp4</name>
                                <rate>
                                    <timebase>30</timebase>
                                    <ntsc>TRUE</ntsc>
                                </rate>
                                <start>13109</start>
                                <end>13111</end>
                            </clipitem>
                            <clipitem frameBlend="FALSE" id="clipitem-275">
                                <media>
                                    <video>
                                        <samplecharacteristics>
                                            <height>720</height>
                                            <width>1270</width>
                                        </samplecharacteristics>
                                    </video>
                                </media>
                                <file id="file-1">
                                    <pathurl>/home/davidk/code/python/JC-render/JC-examples/yoga.mp4</pathurl>
                                    <name>yoga.mp4</name>
                                    <rate>
                                        <timebase>30</timebase>
                                        <ntsc>TRUE</ntsc>
                                    </rate>
                                    <duration>54922</duration>
                                    <timecode>
                                        <rate>
                                            <timebase>30</timebase>
                                            <ntsc>TRUE</ntsc>
                                        </rate>
                                        <string>00:00:00:00</string>
                                        <frame>0</frame>
                                        <displayformat>NDF</displayformat>
                                        <media>
                                            <video/>
                                            <audio/>
                                        </media>
                                    </timecode>
                                </file>
                                <name>/home/davidk/code/python/JC-render/JC-examples/yoga.mp4</name>
                                <rate>
                                    <timebase>30</timebase>
                                    <ntsc>TRUE</ntsc>
                                </rate>
                                <start>13111</start>
                                <end>13147</end>
                            </clipitem>
                            <clipitem frameBlend="FALSE" id="clipitem-276">
                                <media>
                                    <video>
                                        <samplecharacteristics>
                                            <height>720</height>
                                            <width>1270</width>
                                        </samplecharacteristics>
                                    </video>
                                </media>
                                <file id="file-1">
                                    <pathurl>/home/davidk/code/python/JC-render/JC-examples/yoga.mp4</pathurl>
                                    <name>yoga.mp4</name>
                                    <rate>
                                        <timebase>30</timebase>
                                        <ntsc>TRUE</ntsc>
                                    </rate>
                                    <duration>54922</duration>
                                    <timecode>
                                        <rate>
                                            <timebase>30</timebase>
                                            <ntsc>TRUE</ntsc>
                                        </rate>
                                        <string>00:00:00:00</string>
                                        <frame>0</frame>
                                        <displayformat>NDF</displayformat>
                                        <media>
                                            <video/>
                                            <audio/>
                                        </media>
                                    </timecode>
                                </file>
                                <name>/home/davidk/code/python/JC-render/JC-examples/yoga.mp4</name>
                                <rate>
                                    <timebase>30</timebase>
                                    <ntsc>TRUE</ntsc>
                                </rate>
                                <start>13147</start>
                                <end>13170</end>
                            </clipitem>
                            <clipitem frameBlend="FALSE" id="clipitem-277">
                                <media>
                                    <video>
                                        <samplecharacteristics>
                                            <height>720</height>
                                            <width>1270</width>
                                        </samplecharacteristics>
                                    </video>
                                </media>
                                <file id="file-1">
                                    <pathurl>/home/davidk/code/python/JC-render/JC-examples/yoga.mp4</pathurl>
                                    <name>yoga.mp4</name>
                                    <rate>
                                        <timebase>30</timebase>
                                        <ntsc>TRUE</ntsc>
                                    </rate>
                                    <duration>54922</duration>
                                    <timecode>
                                        <rate>
                                            <timebase>30</timebase>
                                            <ntsc>TRUE</ntsc>
                                        </rate>
                                        <string>00:00:00:00</string>
                                        <frame>0</frame>
                                        <displayformat>NDF</displayformat>
                                        <media>
                                            <video/>
                                            <audio/>
                                        </media>
                                    </timecode>
                                </file>
                                <name>/home/davidk/code/python/JC-render/JC-examples/yoga.mp4</name>
                                <rate>
                                    <timebase>30</timebase>
                                    <ntsc>TRUE</ntsc>
                                </rate>
                                <start>13170</start>
                                <end>13269</end>
                            </clipitem>
                            <clipitem frameBlend="FALSE" id="clipitem-278">
                                <media>
                                    <video>
                                        <samplecharacteristics>
                                            <height>720</height>
                                            <width>1270</width>
                                        </samplecharacteristics>
                                    </video>
                                </media>
                                <file id="file-1">
                                    <pathurl>/home/davidk/code/python/JC-render/JC-examples/yoga.mp4</pathurl>
                                    <name>yoga.mp4</name>
                                    <rate>
                                        <timebase>30</timebase>
                                        <ntsc>TRUE</ntsc>
                                    </rate>
                                    <duration>54922</duration>
                                    <timecode>
                                        <rate>
                                            <timebase>30</timebase>
                                            <ntsc>TRUE</ntsc>
                                        </rate>
                                        <string>00:00:00:00</string>
                                        <frame>0</frame>
                                        <displayformat>NDF</displayformat>
                                        <media>
                                            <video/>
                                            <audio/>
                                        </media>
                                    </timecode>
                                </file>
                                <name>/home/davidk/code/python/JC-render/JC-examples/yoga.mp4</name>
                                <rate>
                                    <timebase>30</timebase>
                                    <ntsc>TRUE</ntsc>
                                </rate>
                                <start>13269</start>
                                <end>13271</end>
                            </clipitem>
                            <clipitem frameBlend="FALSE" id="clipitem-279">
                                <media>
                                    <video>
                                        <samplecharacteristics>
                                            <height>720</height>
                                            <width>1270</width>
                                        </samplecharacteristics>
                                    </video>
                                </media>
                                <file id="file-1">
                                    <pathurl>/home/davidk/code/python/JC-render/JC-examples/yoga.mp4</pathurl>
                                    <name>yoga.mp4</name>
                                    <rate>
                                        <timebase>30</timebase>
                                        <ntsc>TRUE</ntsc>
                                    </rate>
                                    <duration>54922</duration>
                                    <timecode>
                                        <rate>
                                            <timebase>30</timebase>
                                            <ntsc>TRUE</ntsc>
                                        </rate>
                                        <string>00:00:00:00</string>
                                        <frame>0</frame>
                                        <displayformat>NDF</displayformat>
                                        <media>
                                            <video/>
                                            <audio/>
                                        </media>
                                    </timecode>
                                </file>
                                <name>/home/davidk/code/python/JC-render/JC-examples/yoga.mp4</name>
                                <rate>
                                    <timebase>30</timebase>
                                    <ntsc>TRUE</ntsc>
                                </rate>
                                <start>13271</start>
                                <end>13422</end>
                            </clipitem>
                            <clipitem frameBlend="FALSE" id="clipitem-280">
                                <media>
                                    <video>
                                        <samplecharacteristics>
                                            <height>720</height>
                                            <width>1270</width>
                                        </samplecharacteristics>
                                    </video>
                                </media>
                                <file id="file-1">
                                    <pathurl>/home/davidk/code/python/JC-render/JC-examples/yoga.mp4</pathurl>
                                    <name>yoga.mp4</name>
                                    <rate>
                                        <timebase>30</timebase>
                                        <ntsc>TRUE</ntsc>
                                    </rate>
                                    <duration>54922</duration>
                                    <timecode>
                                        <rate>
                                            <timebase>30</timebase>
                                            <ntsc>TRUE</ntsc>
                                        </rate>
                                        <string>00:00:00:00</string>
                                        <frame>0</frame>
                                        <displayformat>NDF</displayformat>
                                        <media>
                                            <video/>
                                            <audio/>
                                        </media>
                                    </timecode>
                                </file>
                                <name>/home/davidk/code/python/JC-render/JC-examples/yoga.mp4</name>
                                <rate>
                                    <timebase>30</timebase>
                                    <ntsc>TRUE</ntsc>
                                </rate>
                                <start>13422</start>
                                <end>13431</end>
                            </clipitem>
                            <clipitem frameBlend="FALSE" id="clipitem-281">
                                <media>
                                    <video>
                                        <samplecharacteristics>
                                            <height>720</height>
                                            <width>1270</width>
                                        </samplecharacteristics>
                                    </video>
                                </media>
                                <file id="file-1">
                                    <pathurl>/home/davidk/code/python/JC-render/JC-examples/yoga.mp4</pathurl>
                                    <name>yoga.mp4</name>
                                    <rate>
                                        <timebase>30</timebase>
                                        <ntsc>TRUE</ntsc>
                                    </rate>
                                    <duration>54922</duration>
                                    <timecode>
                                        <rate>
                                            <timebase>30</timebase>
                                            <ntsc>TRUE</ntsc>
                                        </rate>
                                        <string>00:00:00:00</string>
                                        <frame>0</frame>
                                        <displayformat>NDF</displayformat>
                                        <media>
                                            <video/>
                                            <audio/>
                                        </media>
                                    </timecode>
                                </file>
                                <name>/home/davidk/code/python/JC-render/JC-examples/yoga.mp4</name>
                                <rate>
                                    <timebase>30</timebase>
                                    <ntsc>TRUE</ntsc>
                                </rate>
                                <start>13431</start>
                                <end>13537</end>
                            </clipitem>
                            <clipitem frameBlend="FALSE" id="clipitem-282">
                                <media>
                                    <video>
                                        <samplecharacteristics>
                                            <height>720</height>
                                            <width>1270</width>
                                        </samplecharacteristics>
                                    </video>
                                </media>
                                <file id="file-1">
                                    <pathurl>/home/davidk/code/python/JC-render/JC-examples/yoga.mp4</pathurl>
                                    <name>yoga.mp4</name>
                                    <rate>
                                        <timebase>30</timebase>
                                        <ntsc>TRUE</ntsc>
                                    </rate>
                                    <duration>54922</duration>
                                    <timecode>
                                        <rate>
                                            <timebase>30</timebase>
                                            <ntsc>TRUE</ntsc>
                                        </rate>
                                        <string>00:00:00:00</string>
                                        <frame>0</frame>
                                        <displayformat>NDF</displayformat>
                                        <media>
                                            <video/>
                                            <audio/>
                                        </media>
                                    </timecode>
                                </file>
                                <name>/home/davidk/code/python/JC-render/JC-examples/yoga.mp4</name>
                                <rate>
                                    <timebase>30</timebase>
                                    <ntsc>TRUE</ntsc>
                                </rate>
                                <start>13537</start>
                                <end>13585</end>
                            </clipitem>
                            <clipitem frameBlend="FALSE" id="clipitem-283">
                                <media>
                                    <video>
                                        <samplecharacteristics>
                                            <height>720</height>
                                            <width>1270</width>
                                        </samplecharacteristics>
                                    </video>
                                </media>
                                <file id="file-1">
                                    <pathurl>/home/davidk/code/python/JC-render/JC-examples/yoga.mp4</pathurl>
                                    <name>yoga.mp4</name>
                                    <rate>
                                        <timebase>30</timebase>
                                        <ntsc>TRUE</ntsc>
                                    </rate>
                                    <duration>54922</duration>
                                    <timecode>
                                        <rate>
                                            <timebase>30</timebase>
                                            <ntsc>TRUE</ntsc>
                                        </rate>
                                        <string>00:00:00:00</string>
                                        <frame>0</frame>
                                        <displayformat>NDF</displayformat>
                                        <media>
                                            <video/>
                                            <audio/>
                                        </media>
                                    </timecode>
                                </file>
                                <name>/home/davidk/code/python/JC-render/JC-examples/yoga.mp4</name>
                                <rate>
                                    <timebase>30</timebase>
                                    <ntsc>TRUE</ntsc>
                                </rate>
                                <start>13585</start>
                                <end>13604</end>
                            </clipitem>
                            <clipitem frameBlend="FALSE" id="clipitem-284">
                                <media>
                                    <video>
                                        <samplecharacteristics>
                                            <height>720</height>
                                            <width>1270</width>
                                        </samplecharacteristics>
                                    </video>
                                </media>
                                <file id="file-1">
                                    <pathurl>/home/davidk/code/python/JC-render/JC-examples/yoga.mp4</pathurl>
                                    <name>yoga.mp4</name>
                                    <rate>
                                        <timebase>30</timebase>
                                        <ntsc>TRUE</ntsc>
                                    </rate>
                                    <duration>54922</duration>
                                    <timecode>
                                        <rate>
                                            <timebase>30</timebase>
                                            <ntsc>TRUE</ntsc>
                                        </rate>
                                        <string>00:00:00:00</string>
                                        <frame>0</frame>
                                        <displayformat>NDF</displayformat>
                                        <media>
                                            <video/>
                                            <audio/>
                                        </media>
                                    </timecode>
                                </file>
                                <name>/home/davidk/code/python/JC-render/JC-examples/yoga.mp4</name>
                                <rate>
                                    <timebase>30</timebase>
                                    <ntsc>TRUE</ntsc>
                                </rate>
                                <start>13604</start>
                                <end>13682</end>
                            </clipitem>
                            <clipitem frameBlend="FALSE" id="clipitem-285">
                                <media>
                                    <video>
                                        <samplecharacteristics>
                                            <height>720</height>
                                            <width>1270</width>
                                        </samplecharacteristics>
                                    </video>
                                </media>
                                <file id="file-1">
                                    <pathurl>/home/davidk/code/python/JC-render/JC-examples/yoga.mp4</pathurl>
                                    <name>yoga.mp4</name>
                                    <rate>
                                        <timebase>30</timebase>
                                        <ntsc>TRUE</ntsc>
                                    </rate>
                                    <duration>54922</duration>
                                    <timecode>
                                        <rate>
                                            <timebase>30</timebase>
                                            <ntsc>TRUE</ntsc>
                                        </rate>
                                        <string>00:00:00:00</string>
                                        <frame>0</frame>
                                        <displayformat>NDF</displayformat>
                                        <media>
                                            <video/>
                                            <audio/>
                                        </media>
                                    </timecode>
                                </file>
                                <name>/home/davidk/code/python/JC-render/JC-examples/yoga.mp4</name>
                                <rate>
                                    <timebase>30</timebase>
                                    <ntsc>TRUE</ntsc>
                                </rate>
                                <start>13682</start>
                                <end>13701</end>
                            </clipitem>
                            <clipitem frameBlend="FALSE" id="clipitem-286">
                                <media>
                                    <video>
                                        <samplecharacteristics>
                                            <height>720</height>
                                            <width>1270</width>
                                        </samplecharacteristics>
                                    </video>
                                </media>
                                <file id="file-1">
                                    <pathurl>/home/davidk/code/python/JC-render/JC-examples/yoga.mp4</pathurl>
                                    <name>yoga.mp4</name>
                                    <rate>
                                        <timebase>30</timebase>
                                        <ntsc>TRUE</ntsc>
                                    </rate>
                                    <duration>54922</duration>
                                    <timecode>
                                        <rate>
                                            <timebase>30</timebase>
                                            <ntsc>TRUE</ntsc>
                                        </rate>
                                        <string>00:00:00:00</string>
                                        <frame>0</frame>
                                        <displayformat>NDF</displayformat>
                                        <media>
                                            <video/>
                                            <audio/>
                                        </media>
                                    </timecode>
                                </file>
                                <name>/home/davidk/code/python/JC-render/JC-examples/yoga.mp4</name>
                                <rate>
                                    <timebase>30</timebase>
                                    <ntsc>TRUE</ntsc>
                                </rate>
                                <start>13701</start>
                                <end>13731</end>
                            </clipitem>
                            <clipitem frameBlend="FALSE" id="clipitem-287">
                                <media>
                                    <video>
                                        <samplecharacteristics>
                                            <height>720</height>
                                            <width>1270</width>
                                        </samplecharacteristics>
                                    </video>
                                </media>
                                <file id="file-1">
                                    <pathurl>/home/davidk/code/python/JC-render/JC-examples/yoga.mp4</pathurl>
                                    <name>yoga.mp4</name>
                                    <rate>
                                        <timebase>30</timebase>
                                        <ntsc>TRUE</ntsc>
                                    </rate>
                                    <duration>54922</duration>
                                    <timecode>
                                        <rate>
                                            <timebase>30</timebase>
                                            <ntsc>TRUE</ntsc>
                                        </rate>
                                        <string>00:00:00:00</string>
                                        <frame>0</frame>
                                        <displayformat>NDF</displayformat>
                                        <media>
                                            <video/>
                                            <audio/>
                                        </media>
                                    </timecode>
                                </file>
                                <name>/home/davidk/code/python/JC-render/JC-examples/yoga.mp4</name>
                                <rate>
                                    <timebase>30</timebase>
                                    <ntsc>TRUE</ntsc>
                                </rate>
                                <start>13731</start>
                                <end>13750</end>
                            </clipitem>
                            <clipitem frameBlend="FALSE" id="clipitem-288">
                                <media>
                                    <video>
                                        <samplecharacteristics>
                                            <height>720</height>
                                            <width>1270</width>
                                        </samplecharacteristics>
                                    </video>
                                </media>
                                <file id="file-1">
                                    <pathurl>/home/davidk/code/python/JC-render/JC-examples/yoga.mp4</pathurl>
                                    <name>yoga.mp4</name>
                                    <rate>
                                        <timebase>30</timebase>
                                        <ntsc>TRUE</ntsc>
                                    </rate>
                                    <duration>54922</duration>
                                    <timecode>
                                        <rate>
                                            <timebase>30</timebase>
                                            <ntsc>TRUE</ntsc>
                                        </rate>
                                        <string>00:00:00:00</string>
                                        <frame>0</frame>
                                        <displayformat>NDF</displayformat>
                                        <media>
                                            <video/>
                                            <audio/>
                                        </media>
                                    </timecode>
                                </file>
                                <name>/home/davidk/code/python/JC-render/JC-examples/yoga.mp4</name>
                                <rate>
                                    <timebase>30</timebase>
                                    <ntsc>TRUE</ntsc>
                                </rate>
                                <start>13750</start>
                                <end>13790</end>
                            </clipitem>
                            <clipitem frameBlend="FALSE" id="clipitem-289">
                                <media>
                                    <video>
                                        <samplecharacteristics>
                                            <height>720</height>
                                            <width>1270</width>
                                        </samplecharacteristics>
                                    </video>
                                </media>
                                <file id="file-1">
                                    <pathurl>/home/davidk/code/python/JC-render/JC-examples/yoga.mp4</pathurl>
                                    <name>yoga.mp4</name>
                                    <rate>
                                        <timebase>30</timebase>
                                        <ntsc>TRUE</ntsc>
                                    </rate>
                                    <duration>54922</duration>
                                    <timecode>
                                        <rate>
                                            <timebase>30</timebase>
                                            <ntsc>TRUE</ntsc>
                                        </rate>
                                        <string>00:00:00:00</string>
                                        <frame>0</frame>
                                        <displayformat>NDF</displayformat>
                                        <media>
                                            <video/>
                                            <audio/>
                                        </media>
                                    </timecode>
                                </file>
                                <name>/home/davidk/code/python/JC-render/JC-examples/yoga.mp4</name>
                                <rate>
                                    <timebase>30</timebase>
                                    <ntsc>TRUE</ntsc>
                                </rate>
                                <start>13790</start>
                                <end>13882</end>
                            </clipitem>
                            <clipitem frameBlend="FALSE" id="clipitem-290">
                                <media>
                                    <video>
                                        <samplecharacteristics>
                                            <height>720</height>
                                            <width>1270</width>
                                        </samplecharacteristics>
                                    </video>
                                </media>
                                <file id="file-1">
                                    <pathurl>/home/davidk/code/python/JC-render/JC-examples/yoga.mp4</pathurl>
                                    <name>yoga.mp4</name>
                                    <rate>
                                        <timebase>30</timebase>
                                        <ntsc>TRUE</ntsc>
                                    </rate>
                                    <duration>54922</duration>
                                    <timecode>
                                        <rate>
                                            <timebase>30</timebase>
                                            <ntsc>TRUE</ntsc>
                                        </rate>
                                        <string>00:00:00:00</string>
                                        <frame>0</frame>
                                        <displayformat>NDF</displayformat>
                                        <media>
                                            <video/>
                                            <audio/>
                                        </media>
                                    </timecode>
                                </file>
                                <name>/home/davidk/code/python/JC-render/JC-examples/yoga.mp4</name>
                                <rate>
                                    <timebase>30</timebase>
                                    <ntsc>TRUE</ntsc>
                                </rate>
                                <start>13882</start>
                                <end>13895</end>
                            </clipitem>
                            <clipitem frameBlend="FALSE" id="clipitem-291">
                                <media>
                                    <video>
                                        <samplecharacteristics>
                                            <height>720</height>
                                            <width>1270</width>
                                        </samplecharacteristics>
                                    </video>
                                </media>
                                <file id="file-1">
                                    <pathurl>/home/davidk/code/python/JC-render/JC-examples/yoga.mp4</pathurl>
                                    <name>yoga.mp4</name>
                                    <rate>
                                        <timebase>30</timebase>
                                        <ntsc>TRUE</ntsc>
                                    </rate>
                                    <duration>54922</duration>
                                    <timecode>
                                        <rate>
                                            <timebase>30</timebase>
                                            <ntsc>TRUE</ntsc>
                                        </rate>
                                        <string>00:00:00:00</string>
                                        <frame>0</frame>
                                        <displayformat>NDF</displayformat>
                                        <media>
                                            <video/>
                                            <audio/>
                                        </media>
                                    </timecode>
                                </file>
                                <name>/home/davidk/code/python/JC-render/JC-examples/yoga.mp4</name>
                                <rate>
                                    <timebase>30</timebase>
                                    <ntsc>TRUE</ntsc>
                                </rate>
                                <start>13895</start>
                                <end>13987</end>
                            </clipitem>
                            <clipitem frameBlend="FALSE" id="clipitem-292">
                                <media>
                                    <video>
                                        <samplecharacteristics>
                                            <height>720</height>
                                            <width>1270</width>
                                        </samplecharacteristics>
                                    </video>
                                </media>
                                <file id="file-1">
                                    <pathurl>/home/davidk/code/python/JC-render/JC-examples/yoga.mp4</pathurl>
                                    <name>yoga.mp4</name>
                                    <rate>
                                        <timebase>30</timebase>
                                        <ntsc>TRUE</ntsc>
                                    </rate>
                                    <duration>54922</duration>
                                    <timecode>
                                        <rate>
                                            <timebase>30</timebase>
                                            <ntsc>TRUE</ntsc>
                                        </rate>
                                        <string>00:00:00:00</string>
                                        <frame>0</frame>
                                        <displayformat>NDF</displayformat>
                                        <media>
                                            <video/>
                                            <audio/>
                                        </media>
                                    </timecode>
                                </file>
                                <name>/home/davidk/code/python/JC-render/JC-examples/yoga.mp4</name>
                                <rate>
                                    <timebase>30</timebase>
                                    <ntsc>TRUE</ntsc>
                                </rate>
                                <start>13987</start>
                                <end>13999</end>
                            </clipitem>
                            <clipitem frameBlend="FALSE" id="clipitem-293">
                                <media>
                                    <video>
                                        <samplecharacteristics>
                                            <height>720</height>
                                            <width>1270</width>
                                        </samplecharacteristics>
                                    </video>
                                </media>
                                <file id="file-1">
                                    <pathurl>/home/davidk/code/python/JC-render/JC-examples/yoga.mp4</pathurl>
                                    <name>yoga.mp4</name>
                                    <rate>
                                        <timebase>30</timebase>
                                        <ntsc>TRUE</ntsc>
                                    </rate>
                                    <duration>54922</duration>
                                    <timecode>
                                        <rate>
                                            <timebase>30</timebase>
                                            <ntsc>TRUE</ntsc>
                                        </rate>
                                        <string>00:00:00:00</string>
                                        <frame>0</frame>
                                        <displayformat>NDF</displayformat>
                                        <media>
                                            <video/>
                                            <audio/>
                                        </media>
                                    </timecode>
                                </file>
                                <name>/home/davidk/code/python/JC-render/JC-examples/yoga.mp4</name>
                                <rate>
                                    <timebase>30</timebase>
                                    <ntsc>TRUE</ntsc>
                                </rate>
                                <start>13999</start>
                                <end>14074</end>
                            </clipitem>
                            <clipitem frameBlend="FALSE" id="clipitem-294">
                                <media>
                                    <video>
                                        <samplecharacteristics>
                                            <height>720</height>
                                            <width>1270</width>
                                        </samplecharacteristics>
                                    </video>
                                </media>
                                <file id="file-1">
                                    <pathurl>/home/davidk/code/python/JC-render/JC-examples/yoga.mp4</pathurl>
                                    <name>yoga.mp4</name>
                                    <rate>
                                        <timebase>30</timebase>
                                        <ntsc>TRUE</ntsc>
                                    </rate>
                                    <duration>54922</duration>
                                    <timecode>
                                        <rate>
                                            <timebase>30</timebase>
                                            <ntsc>TRUE</ntsc>
                                        </rate>
                                        <string>00:00:00:00</string>
                                        <frame>0</frame>
                                        <displayformat>NDF</displayformat>
                                        <media>
                                            <video/>
                                            <audio/>
                                        </media>
                                    </timecode>
                                </file>
                                <name>/home/davidk/code/python/JC-render/JC-examples/yoga.mp4</name>
                                <rate>
                                    <timebase>30</timebase>
                                    <ntsc>TRUE</ntsc>
                                </rate>
                                <start>14074</start>
                                <end>14100</end>
                            </clipitem>
                            <clipitem frameBlend="FALSE" id="clipitem-295">
                                <media>
                                    <video>
                                        <samplecharacteristics>
                                            <height>720</height>
                                            <width>1270</width>
                                        </samplecharacteristics>
                                    </video>
                                </media>
                                <file id="file-1">
                                    <pathurl>/home/davidk/code/python/JC-render/JC-examples/yoga.mp4</pathurl>
                                    <name>yoga.mp4</name>
                                    <rate>
                                        <timebase>30</timebase>
                                        <ntsc>TRUE</ntsc>
                                    </rate>
                                    <duration>54922</duration>
                                    <timecode>
                                        <rate>
                                            <timebase>30</timebase>
                                            <ntsc>TRUE</ntsc>
                                        </rate>
                                        <string>00:00:00:00</string>
                                        <frame>0</frame>
                                        <displayformat>NDF</displayformat>
                                        <media>
                                            <video/>
                                            <audio/>
                                        </media>
                                    </timecode>
                                </file>
                                <name>/home/davidk/code/python/JC-render/JC-examples/yoga.mp4</name>
                                <rate>
                                    <timebase>30</timebase>
                                    <ntsc>TRUE</ntsc>
                                </rate>
                                <start>14100</start>
                                <end>14217</end>
                            </clipitem>
                            <clipitem frameBlend="FALSE" id="clipitem-296">
                                <media>
                                    <video>
                                        <samplecharacteristics>
                                            <height>720</height>
                                            <width>1270</width>
                                        </samplecharacteristics>
                                    </video>
                                </media>
                                <file id="file-1">
                                    <pathurl>/home/davidk/code/python/JC-render/JC-examples/yoga.mp4</pathurl>
                                    <name>yoga.mp4</name>
                                    <rate>
                                        <timebase>30</timebase>
                                        <ntsc>TRUE</ntsc>
                                    </rate>
                                    <duration>54922</duration>
                                    <timecode>
                                        <rate>
                                            <timebase>30</timebase>
                                            <ntsc>TRUE</ntsc>
                                        </rate>
                                        <string>00:00:00:00</string>
                                        <frame>0</frame>
                                        <displayformat>NDF</displayformat>
                                        <media>
                                            <video/>
                                            <audio/>
                                        </media>
                                    </timecode>
                                </file>
                                <name>/home/davidk/code/python/JC-render/JC-examples/yoga.mp4</name>
                                <rate>
                                    <timebase>30</timebase>
                                    <ntsc>TRUE</ntsc>
                                </rate>
                                <start>14217</start>
                                <end>14368</end>
                            </clipitem>
                            <clipitem frameBlend="FALSE" id="clipitem-297">
                                <media>
                                    <video>
                                        <samplecharacteristics>
                                            <height>720</height>
                                            <width>1270</width>
                                        </samplecharacteristics>
                                    </video>
                                </media>
                                <file id="file-1">
                                    <pathurl>/home/davidk/code/python/JC-render/JC-examples/yoga.mp4</pathurl>
                                    <name>yoga.mp4</name>
                                    <rate>
                                        <timebase>30</timebase>
                                        <ntsc>TRUE</ntsc>
                                    </rate>
                                    <duration>54922</duration>
                                    <timecode>
                                        <rate>
                                            <timebase>30</timebase>
                                            <ntsc>TRUE</ntsc>
                                        </rate>
                                        <string>00:00:00:00</string>
                                        <frame>0</frame>
                                        <displayformat>NDF</displayformat>
                                        <media>
                                            <video/>
                                            <audio/>
                                        </media>
                                    </timecode>
                                </file>
                                <name>/home/davidk/code/python/JC-render/JC-examples/yoga.mp4</name>
                                <rate>
                                    <timebase>30</timebase>
                                    <ntsc>TRUE</ntsc>
                                </rate>
                                <start>14368</start>
                                <end>14401</end>
                            </clipitem>
                            <clipitem frameBlend="FALSE" id="clipitem-298">
                                <media>
                                    <video>
                                        <samplecharacteristics>
                                            <height>720</height>
                                            <width>1270</width>
                                        </samplecharacteristics>
                                    </video>
                                </media>
                                <file id="file-1">
                                    <pathurl>/home/davidk/code/python/JC-render/JC-examples/yoga.mp4</pathurl>
                                    <name>yoga.mp4</name>
                                    <rate>
                                        <timebase>30</timebase>
                                        <ntsc>TRUE</ntsc>
                                    </rate>
                                    <duration>54922</duration>
                                    <timecode>
                                        <rate>
                                            <timebase>30</timebase>
                                            <ntsc>TRUE</ntsc>
                                        </rate>
                                        <string>00:00:00:00</string>
                                        <frame>0</frame>
                                        <displayformat>NDF</displayformat>
                                        <media>
                                            <video/>
                                            <audio/>
                                        </media>
                                    </timecode>
                                </file>
                                <name>/home/davidk/code/python/JC-render/JC-examples/yoga.mp4</name>
                                <rate>
                                    <timebase>30</timebase>
                                    <ntsc>TRUE</ntsc>
                                </rate>
                                <start>14401</start>
                                <end>14438</end>
                            </clipitem>
                            <clipitem frameBlend="FALSE" id="clipitem-299">
                                <media>
                                    <video>
                                        <samplecharacteristics>
                                            <height>720</height>
                                            <width>1270</width>
                                        </samplecharacteristics>
                                    </video>
                                </media>
                                <file id="file-1">
                                    <pathurl>/home/davidk/code/python/JC-render/JC-examples/yoga.mp4</pathurl>
                                    <name>yoga.mp4</name>
                                    <rate>
                                        <timebase>30</timebase>
                                        <ntsc>TRUE</ntsc>
                                    </rate>
                                    <duration>54922</duration>
                                    <timecode>
                                        <rate>
                                            <timebase>30</timebase>
                                            <ntsc>TRUE</ntsc>
                                        </rate>
                                        <string>00:00:00:00</string>
                                        <frame>0</frame>
                                        <displayformat>NDF</displayformat>
                                        <media>
                                            <video/>
                                            <audio/>
                                        </media>
                                    </timecode>
                                </file>
                                <name>/home/davidk/code/python/JC-render/JC-examples/yoga.mp4</name>
                                <rate>
                                    <timebase>30</timebase>
                                    <ntsc>TRUE</ntsc>
                                </rate>
                                <start>14438</start>
                                <end>14492</end>
                            </clipitem>
                            <clipitem frameBlend="FALSE" id="clipitem-300">
                                <media>
                                    <video>
                                        <samplecharacteristics>
                                            <height>720</height>
                                            <width>1270</width>
                                        </samplecharacteristics>
                                    </video>
                                </media>
                                <file id="file-1">
                                    <pathurl>/home/davidk/code/python/JC-render/JC-examples/yoga.mp4</pathurl>
                                    <name>yoga.mp4</name>
                                    <rate>
                                        <timebase>30</timebase>
                                        <ntsc>TRUE</ntsc>
                                    </rate>
                                    <duration>54922</duration>
                                    <timecode>
                                        <rate>
                                            <timebase>30</timebase>
                                            <ntsc>TRUE</ntsc>
                                        </rate>
                                        <string>00:00:00:00</string>
                                        <frame>0</frame>
                                        <displayformat>NDF</displayformat>
                                        <media>
                                            <video/>
                                            <audio/>
                                        </media>
                                    </timecode>
                                </file>
                                <name>/home/davidk/code/python/JC-render/JC-examples/yoga.mp4</name>
                                <rate>
                                    <timebase>30</timebase>
                                    <ntsc>TRUE</ntsc>
                                </rate>
                                <start>14492</start>
                                <end>14546</end>
                            </clipitem>
                            <clipitem frameBlend="FALSE" id="clipitem-301">
                                <media>
                                    <video>
                                        <samplecharacteristics>
                                            <height>720</height>
                                            <width>1270</width>
                                        </samplecharacteristics>
                                    </video>
                                </media>
                                <file id="file-1">
                                    <pathurl>/home/davidk/code/python/JC-render/JC-examples/yoga.mp4</pathurl>
                                    <name>yoga.mp4</name>
                                    <rate>
                                        <timebase>30</timebase>
                                        <ntsc>TRUE</ntsc>
                                    </rate>
                                    <duration>54922</duration>
                                    <timecode>
                                        <rate>
                                            <timebase>30</timebase>
                                            <ntsc>TRUE</ntsc>
                                        </rate>
                                        <string>00:00:00:00</string>
                                        <frame>0</frame>
                                        <displayformat>NDF</displayformat>
                                        <media>
                                            <video/>
                                            <audio/>
                                        </media>
                                    </timecode>
                                </file>
                                <name>/home/davidk/code/python/JC-render/JC-examples/yoga.mp4</name>
                                <rate>
                                    <timebase>30</timebase>
                                    <ntsc>TRUE</ntsc>
                                </rate>
                                <start>14546</start>
                                <end>14687</end>
                            </clipitem>
                            <clipitem frameBlend="FALSE" id="clipitem-302">
                                <media>
                                    <video>
                                        <samplecharacteristics>
                                            <height>720</height>
                                            <width>1270</width>
                                        </samplecharacteristics>
                                    </video>
                                </media>
                                <file id="file-1">
                                    <pathurl>/home/davidk/code/python/JC-render/JC-examples/yoga.mp4</pathurl>
                                    <name>yoga.mp4</name>
                                    <rate>
                                        <timebase>30</timebase>
                                        <ntsc>TRUE</ntsc>
                                    </rate>
                                    <duration>54922</duration>
                                    <timecode>
                                        <rate>
                                            <timebase>30</timebase>
                                            <ntsc>TRUE</ntsc>
                                        </rate>
                                        <string>00:00:00:00</string>
                                        <frame>0</frame>
                                        <displayformat>NDF</displayformat>
                                        <media>
                                            <video/>
                                            <audio/>
                                        </media>
                                    </timecode>
                                </file>
                                <name>/home/davidk/code/python/JC-render/JC-examples/yoga.mp4</name>
                                <rate>
                                    <timebase>30</timebase>
                                    <ntsc>TRUE</ntsc>
                                </rate>
                                <start>14687</start>
                                <end>14818</end>
                            </clipitem>
                            <clipitem frameBlend="FALSE" id="clipitem-303">
                                <media>
                                    <video>
                                        <samplecharacteristics>
                                            <height>720</height>
                                            <width>1270</width>
                                        </samplecharacteristics>
                                    </video>
                                </media>
                                <file id="file-1">
                                    <pathurl>/home/davidk/code/python/JC-render/JC-examples/yoga.mp4</pathurl>
                                    <name>yoga.mp4</name>
                                    <rate>
                                        <timebase>30</timebase>
                                        <ntsc>TRUE</ntsc>
                                    </rate>
                                    <duration>54922</duration>
                                    <timecode>
                                        <rate>
                                            <timebase>30</timebase>
                                            <ntsc>TRUE</ntsc>
                                        </rate>
                                        <string>00:00:00:00</string>
                                        <frame>0</frame>
                                        <displayformat>NDF</displayformat>
                                        <media>
                                            <video/>
                                            <audio/>
                                        </media>
                                    </timecode>
                                </file>
                                <name>/home/davidk/code/python/JC-render/JC-examples/yoga.mp4</name>
                                <rate>
                                    <timebase>30</timebase>
                                    <ntsc>TRUE</ntsc>
                                </rate>
                                <start>14818</start>
                                <end>14997</end>
                            </clipitem>
                            <clipitem frameBlend="FALSE" id="clipitem-304">
                                <media>
                                    <video>
                                        <samplecharacteristics>
                                            <height>720</height>
                                            <width>1270</width>
                                        </samplecharacteristics>
                                    </video>
                                </media>
                                <file id="file-1">
                                    <pathurl>/home/davidk/code/python/JC-render/JC-examples/yoga.mp4</pathurl>
                                    <name>yoga.mp4</name>
                                    <rate>
                                        <timebase>30</timebase>
                                        <ntsc>TRUE</ntsc>
                                    </rate>
                                    <duration>54922</duration>
                                    <timecode>
                                        <rate>
                                            <timebase>30</timebase>
                                            <ntsc>TRUE</ntsc>
                                        </rate>
                                        <string>00:00:00:00</string>
                                        <frame>0</frame>
                                        <displayformat>NDF</displayformat>
                                        <media>
                                            <video/>
                                            <audio/>
                                        </media>
                                    </timecode>
                                </file>
                                <name>/home/davidk/code/python/JC-render/JC-examples/yoga.mp4</name>
                                <rate>
                                    <timebase>30</timebase>
                                    <ntsc>TRUE</ntsc>
                                </rate>
                                <start>14997</start>
                                <end>15006</end>
                            </clipitem>
                            <clipitem frameBlend="FALSE" id="clipitem-305">
                                <media>
                                    <video>
                                        <samplecharacteristics>
                                            <height>720</height>
                                            <width>1270</width>
                                        </samplecharacteristics>
                                    </video>
                                </media>
                                <file id="file-1">
                                    <pathurl>/home/davidk/code/python/JC-render/JC-examples/yoga.mp4</pathurl>
                                    <name>yoga.mp4</name>
                                    <rate>
                                        <timebase>30</timebase>
                                        <ntsc>TRUE</ntsc>
                                    </rate>
                                    <duration>54922</duration>
                                    <timecode>
                                        <rate>
                                            <timebase>30</timebase>
                                            <ntsc>TRUE</ntsc>
                                        </rate>
                                        <string>00:00:00:00</string>
                                        <frame>0</frame>
                                        <displayformat>NDF</displayformat>
                                        <media>
                                            <video/>
                                            <audio/>
                                        </media>
                                    </timecode>
                                </file>
                                <name>/home/davidk/code/python/JC-render/JC-examples/yoga.mp4</name>
                                <rate>
                                    <timebase>30</timebase>
                                    <ntsc>TRUE</ntsc>
                                </rate>
                                <start>15006</start>
                                <end>15042</end>
                            </clipitem>
                            <clipitem frameBlend="FALSE" id="clipitem-306">
                                <media>
                                    <video>
                                        <samplecharacteristics>
                                            <height>720</height>
                                            <width>1270</width>
                                        </samplecharacteristics>
                                    </video>
                                </media>
                                <file id="file-1">
                                    <pathurl>/home/davidk/code/python/JC-render/JC-examples/yoga.mp4</pathurl>
                                    <name>yoga.mp4</name>
                                    <rate>
                                        <timebase>30</timebase>
                                        <ntsc>TRUE</ntsc>
                                    </rate>
                                    <duration>54922</duration>
                                    <timecode>
                                        <rate>
                                            <timebase>30</timebase>
                                            <ntsc>TRUE</ntsc>
                                        </rate>
                                        <string>00:00:00:00</string>
                                        <frame>0</frame>
                                        <displayformat>NDF</displayformat>
                                        <media>
                                            <video/>
                                            <audio/>
                                        </media>
                                    </timecode>
                                </file>
                                <name>/home/davidk/code/python/JC-render/JC-examples/yoga.mp4</name>
                                <rate>
                                    <timebase>30</timebase>
                                    <ntsc>TRUE</ntsc>
                                </rate>
                                <start>15042</start>
                                <end>15072</end>
                            </clipitem>
                            <clipitem frameBlend="FALSE" id="clipitem-307">
                                <media>
                                    <video>
                                        <samplecharacteristics>
                                            <height>720</height>
                                            <width>1270</width>
                                        </samplecharacteristics>
                                    </video>
                                </media>
                                <file id="file-1">
                                    <pathurl>/home/davidk/code/python/JC-render/JC-examples/yoga.mp4</pathurl>
                                    <name>yoga.mp4</name>
                                    <rate>
                                        <timebase>30</timebase>
                                        <ntsc>TRUE</ntsc>
                                    </rate>
                                    <duration>54922</duration>
                                    <timecode>
                                        <rate>
                                            <timebase>30</timebase>
                                            <ntsc>TRUE</ntsc>
                                        </rate>
                                        <string>00:00:00:00</string>
                                        <frame>0</frame>
                                        <displayformat>NDF</displayformat>
                                        <media>
                                            <video/>
                                            <audio/>
                                        </media>
                                    </timecode>
                                </file>
                                <name>/home/davidk/code/python/JC-render/JC-examples/yoga.mp4</name>
                                <rate>
                                    <timebase>30</timebase>
                                    <ntsc>TRUE</ntsc>
                                </rate>
                                <start>15072</start>
                                <end>15195</end>
                            </clipitem>
                            <clipitem frameBlend="FALSE" id="clipitem-308">
                                <media>
                                    <video>
                                        <samplecharacteristics>
                                            <height>720</height>
                                            <width>1270</width>
                                        </samplecharacteristics>
                                    </video>
                                </media>
                                <file id="file-1">
                                    <pathurl>/home/davidk/code/python/JC-render/JC-examples/yoga.mp4</pathurl>
                                    <name>yoga.mp4</name>
                                    <rate>
                                        <timebase>30</timebase>
                                        <ntsc>TRUE</ntsc>
                                    </rate>
                                    <duration>54922</duration>
                                    <timecode>
                                        <rate>
                                            <timebase>30</timebase>
                                            <ntsc>TRUE</ntsc>
                                        </rate>
                                        <string>00:00:00:00</string>
                                        <frame>0</frame>
                                        <displayformat>NDF</displayformat>
                                        <media>
                                            <video/>
                                            <audio/>
                                        </media>
                                    </timecode>
                                </file>
                                <name>/home/davidk/code/python/JC-render/JC-examples/yoga.mp4</name>
                                <rate>
                                    <timebase>30</timebase>
                                    <ntsc>TRUE</ntsc>
                                </rate>
                                <start>15195</start>
                                <end>15256</end>
                            </clipitem>
                            <clipitem frameBlend="FALSE" id="clipitem-309">
                                <media>
                                    <video>
                                        <samplecharacteristics>
                                            <height>720</height>
                                            <width>1270</width>
                                        </samplecharacteristics>
                                    </video>
                                </media>
                                <file id="file-1">
                                    <pathurl>/home/davidk/code/python/JC-render/JC-examples/yoga.mp4</pathurl>
                                    <name>yoga.mp4</name>
                                    <rate>
                                        <timebase>30</timebase>
                                        <ntsc>TRUE</ntsc>
                                    </rate>
                                    <duration>54922</duration>
                                    <timecode>
                                        <rate>
                                            <timebase>30</timebase>
                                            <ntsc>TRUE</ntsc>
                                        </rate>
                                        <string>00:00:00:00</string>
                                        <frame>0</frame>
                                        <displayformat>NDF</displayformat>
                                        <media>
                                            <video/>
                                            <audio/>
                                        </media>
                                    </timecode>
                                </file>
                                <name>/home/davidk/code/python/JC-render/JC-examples/yoga.mp4</name>
                                <rate>
                                    <timebase>30</timebase>
                                    <ntsc>TRUE</ntsc>
                                </rate>
                                <start>15256</start>
                                <end>15282</end>
                            </clipitem>
                            <clipitem frameBlend="FALSE" id="clipitem-310">
                                <media>
                                    <video>
                                        <samplecharacteristics>
                                            <height>720</height>
                                            <width>1270</width>
                                        </samplecharacteristics>
                                    </video>
                                </media>
                                <file id="file-1">
                                    <pathurl>/home/davidk/code/python/JC-render/JC-examples/yoga.mp4</pathurl>
                                    <name>yoga.mp4</name>
                                    <rate>
                                        <timebase>30</timebase>
                                        <ntsc>TRUE</ntsc>
                                    </rate>
                                    <duration>54922</duration>
                                    <timecode>
                                        <rate>
                                            <timebase>30</timebase>
                                            <ntsc>TRUE</ntsc>
                                        </rate>
                                        <string>00:00:00:00</string>
                                        <frame>0</frame>
                                        <displayformat>NDF</displayformat>
                                        <media>
                                            <video/>
                                            <audio/>
                                        </media>
                                    </timecode>
                                </file>
                                <name>/home/davidk/code/python/JC-render/JC-examples/yoga.mp4</name>
                                <rate>
                                    <timebase>30</timebase>
                                    <ntsc>TRUE</ntsc>
                                </rate>
                                <start>15282</start>
                                <end>15340</end>
                            </clipitem>
                            <clipitem frameBlend="FALSE" id="clipitem-311">
                                <media>
                                    <video>
                                        <samplecharacteristics>
                                            <height>720</height>
                                            <width>1270</width>
                                        </samplecharacteristics>
                                    </video>
                                </media>
                                <file id="file-1">
                                    <pathurl>/home/davidk/code/python/JC-render/JC-examples/yoga.mp4</pathurl>
                                    <name>yoga.mp4</name>
                                    <rate>
                                        <timebase>30</timebase>
                                        <ntsc>TRUE</ntsc>
                                    </rate>
                                    <duration>54922</duration>
                                    <timecode>
                                        <rate>
                                            <timebase>30</timebase>
                                            <ntsc>TRUE</ntsc>
                                        </rate>
                                        <string>00:00:00:00</string>
                                        <frame>0</frame>
                                        <displayformat>NDF</displayformat>
                                        <media>
                                            <video/>
                                            <audio/>
                                        </media>
                                    </timecode>
                                </file>
                                <name>/home/davidk/code/python/JC-render/JC-examples/yoga.mp4</name>
                                <rate>
                                    <timebase>30</timebase>
                                    <ntsc>TRUE</ntsc>
                                </rate>
                                <start>15340</start>
                                <end>15356</end>
                            </clipitem>
                            <clipitem frameBlend="FALSE" id="clipitem-312">
                                <media>
                                    <video>
                                        <samplecharacteristics>
                                            <height>720</height>
                                            <width>1270</width>
                                        </samplecharacteristics>
                                    </video>
                                </media>
                                <file id="file-1">
                                    <pathurl>/home/davidk/code/python/JC-render/JC-examples/yoga.mp4</pathurl>
                                    <name>yoga.mp4</name>
                                    <rate>
                                        <timebase>30</timebase>
                                        <ntsc>TRUE</ntsc>
                                    </rate>
                                    <duration>54922</duration>
                                    <timecode>
                                        <rate>
                                            <timebase>30</timebase>
                                            <ntsc>TRUE</ntsc>
                                        </rate>
                                        <string>00:00:00:00</string>
                                        <frame>0</frame>
                                        <displayformat>NDF</displayformat>
                                        <media>
                                            <video/>
                                            <audio/>
                                        </media>
                                    </timecode>
                                </file>
                                <name>/home/davidk/code/python/JC-render/JC-examples/yoga.mp4</name>
                                <rate>
                                    <timebase>30</timebase>
                                    <ntsc>TRUE</ntsc>
                                </rate>
                                <start>15356</start>
                                <end>15357</end>
                            </clipitem>
                            <clipitem frameBlend="FALSE" id="clipitem-313">
                                <media>
                                    <video>
                                        <samplecharacteristics>
                                            <height>720</height>
                                            <width>1270</width>
                                        </samplecharacteristics>
                                    </video>
                                </media>
                                <file id="file-1">
                                    <pathurl>/home/davidk/code/python/JC-render/JC-examples/yoga.mp4</pathurl>
                                    <name>yoga.mp4</name>
                                    <rate>
                                        <timebase>30</timebase>
                                        <ntsc>TRUE</ntsc>
                                    </rate>
                                    <duration>54922</duration>
                                    <timecode>
                                        <rate>
                                            <timebase>30</timebase>
                                            <ntsc>TRUE</ntsc>
                                        </rate>
                                        <string>00:00:00:00</string>
                                        <frame>0</frame>
                                        <displayformat>NDF</displayformat>
                                        <media>
                                            <video/>
                                            <audio/>
                                        </media>
                                    </timecode>
                                </file>
                                <name>/home/davidk/code/python/JC-render/JC-examples/yoga.mp4</name>
                                <rate>
                                    <timebase>30</timebase>
                                    <ntsc>TRUE</ntsc>
                                </rate>
                                <start>15357</start>
                                <end>15401</end>
                            </clipitem>
                            <clipitem frameBlend="FALSE" id="clipitem-314">
                                <media>
                                    <video>
                                        <samplecharacteristics>
                                            <height>720</height>
                                            <width>1270</width>
                                        </samplecharacteristics>
                                    </video>
                                </media>
                                <file id="file-1">
                                    <pathurl>/home/davidk/code/python/JC-render/JC-examples/yoga.mp4</pathurl>
                                    <name>yoga.mp4</name>
                                    <rate>
                                        <timebase>30</timebase>
                                        <ntsc>TRUE</ntsc>
                                    </rate>
                                    <duration>54922</duration>
                                    <timecode>
                                        <rate>
                                            <timebase>30</timebase>
                                            <ntsc>TRUE</ntsc>
                                        </rate>
                                        <string>00:00:00:00</string>
                                        <frame>0</frame>
                                        <displayformat>NDF</displayformat>
                                        <media>
                                            <video/>
                                            <audio/>
                                        </media>
                                    </timecode>
                                </file>
                                <name>/home/davidk/code/python/JC-render/JC-examples/yoga.mp4</name>
                                <rate>
                                    <timebase>30</timebase>
                                    <ntsc>TRUE</ntsc>
                                </rate>
                                <start>15401</start>
                                <end>15420</end>
                            </clipitem>
                            <clipitem frameBlend="FALSE" id="clipitem-315">
                                <media>
                                    <video>
                                        <samplecharacteristics>
                                            <height>720</height>
                                            <width>1270</width>
                                        </samplecharacteristics>
                                    </video>
                                </media>
                                <file id="file-1">
                                    <pathurl>/home/davidk/code/python/JC-render/JC-examples/yoga.mp4</pathurl>
                                    <name>yoga.mp4</name>
                                    <rate>
                                        <timebase>30</timebase>
                                        <ntsc>TRUE</ntsc>
                                    </rate>
                                    <duration>54922</duration>
                                    <timecode>
                                        <rate>
                                            <timebase>30</timebase>
                                            <ntsc>TRUE</ntsc>
                                        </rate>
                                        <string>00:00:00:00</string>
                                        <frame>0</frame>
                                        <displayformat>NDF</displayformat>
                                        <media>
                                            <video/>
                                            <audio/>
                                        </media>
                                    </timecode>
                                </file>
                                <name>/home/davidk/code/python/JC-render/JC-examples/yoga.mp4</name>
                                <rate>
                                    <timebase>30</timebase>
                                    <ntsc>TRUE</ntsc>
                                </rate>
                                <start>15420</start>
                                <end>15436</end>
                            </clipitem>
                            <clipitem frameBlend="FALSE" id="clipitem-316">
                                <media>
                                    <video>
                                        <samplecharacteristics>
                                            <height>720</height>
                                            <width>1270</width>
                                        </samplecharacteristics>
                                    </video>
                                </media>
                                <file id="file-1">
                                    <pathurl>/home/davidk/code/python/JC-render/JC-examples/yoga.mp4</pathurl>
                                    <name>yoga.mp4</name>
                                    <rate>
                                        <timebase>30</timebase>
                                        <ntsc>TRUE</ntsc>
                                    </rate>
                                    <duration>54922</duration>
                                    <timecode>
                                        <rate>
                                            <timebase>30</timebase>
                                            <ntsc>TRUE</ntsc>
                                        </rate>
                                        <string>00:00:00:00</string>
                                        <frame>0</frame>
                                        <displayformat>NDF</displayformat>
                                        <media>
                                            <video/>
                                            <audio/>
                                        </media>
                                    </timecode>
                                </file>
                                <name>/home/davidk/code/python/JC-render/JC-examples/yoga.mp4</name>
                                <rate>
                                    <timebase>30</timebase>
                                    <ntsc>TRUE</ntsc>
                                </rate>
                                <start>15436</start>
                                <end>15483</end>
                            </clipitem>
                            <clipitem frameBlend="FALSE" id="clipitem-317">
                                <media>
                                    <video>
                                        <samplecharacteristics>
                                            <height>720</height>
                                            <width>1270</width>
                                        </samplecharacteristics>
                                    </video>
                                </media>
                                <file id="file-1">
                                    <pathurl>/home/davidk/code/python/JC-render/JC-examples/yoga.mp4</pathurl>
                                    <name>yoga.mp4</name>
                                    <rate>
                                        <timebase>30</timebase>
                                        <ntsc>TRUE</ntsc>
                                    </rate>
                                    <duration>54922</duration>
                                    <timecode>
                                        <rate>
                                            <timebase>30</timebase>
                                            <ntsc>TRUE</ntsc>
                                        </rate>
                                        <string>00:00:00:00</string>
                                        <frame>0</frame>
                                        <displayformat>NDF</displayformat>
                                        <media>
                                            <video/>
                                            <audio/>
                                        </media>
                                    </timecode>
                                </file>
                                <name>/home/davidk/code/python/JC-render/JC-examples/yoga.mp4</name>
                                <rate>
                                    <timebase>30</timebase>
                                    <ntsc>TRUE</ntsc>
                                </rate>
                                <start>15483</start>
                                <end>15523</end>
                            </clipitem>
                            <clipitem frameBlend="FALSE" id="clipitem-318">
                                <media>
                                    <video>
                                        <samplecharacteristics>
                                            <height>720</height>
                                            <width>1270</width>
                                        </samplecharacteristics>
                                    </video>
                                </media>
                                <file id="file-1">
                                    <pathurl>/home/davidk/code/python/JC-render/JC-examples/yoga.mp4</pathurl>
                                    <name>yoga.mp4</name>
                                    <rate>
                                        <timebase>30</timebase>
                                        <ntsc>TRUE</ntsc>
                                    </rate>
                                    <duration>54922</duration>
                                    <timecode>
                                        <rate>
                                            <timebase>30</timebase>
                                            <ntsc>TRUE</ntsc>
                                        </rate>
                                        <string>00:00:00:00</string>
                                        <frame>0</frame>
                                        <displayformat>NDF</displayformat>
                                        <media>
                                            <video/>
                                            <audio/>
                                        </media>
                                    </timecode>
                                </file>
                                <name>/home/davidk/code/python/JC-render/JC-examples/yoga.mp4</name>
                                <rate>
                                    <timebase>30</timebase>
                                    <ntsc>TRUE</ntsc>
                                </rate>
                                <start>15523</start>
                                <end>15573</end>
                            </clipitem>
                            <clipitem frameBlend="FALSE" id="clipitem-319">
                                <media>
                                    <video>
                                        <samplecharacteristics>
                                            <height>720</height>
                                            <width>1270</width>
                                        </samplecharacteristics>
                                    </video>
                                </media>
                                <file id="file-1">
                                    <pathurl>/home/davidk/code/python/JC-render/JC-examples/yoga.mp4</pathurl>
                                    <name>yoga.mp4</name>
                                    <rate>
                                        <timebase>30</timebase>
                                        <ntsc>TRUE</ntsc>
                                    </rate>
                                    <duration>54922</duration>
                                    <timecode>
                                        <rate>
                                            <timebase>30</timebase>
                                            <ntsc>TRUE</ntsc>
                                        </rate>
                                        <string>00:00:00:00</string>
                                        <frame>0</frame>
                                        <displayformat>NDF</displayformat>
                                        <media>
                                            <video/>
                                            <audio/>
                                        </media>
                                    </timecode>
                                </file>
                                <name>/home/davidk/code/python/JC-render/JC-examples/yoga.mp4</name>
                                <rate>
                                    <timebase>30</timebase>
                                    <ntsc>TRUE</ntsc>
                                </rate>
                                <start>15573</start>
                                <end>15693</end>
                            </clipitem>
                            <clipitem frameBlend="FALSE" id="clipitem-320">
                                <media>
                                    <video>
                                        <samplecharacteristics>
                                            <height>720</height>
                                            <width>1270</width>
                                        </samplecharacteristics>
                                    </video>
                                </media>
                                <file id="file-1">
                                    <pathurl>/home/davidk/code/python/JC-render/JC-examples/yoga.mp4</pathurl>
                                    <name>yoga.mp4</name>
                                    <rate>
                                        <timebase>30</timebase>
                                        <ntsc>TRUE</ntsc>
                                    </rate>
                                    <duration>54922</duration>
                                    <timecode>
                                        <rate>
                                            <timebase>30</timebase>
                                            <ntsc>TRUE</ntsc>
                                        </rate>
                                        <string>00:00:00:00</string>
                                        <frame>0</frame>
                                        <displayformat>NDF</displayformat>
                                        <media>
                                            <video/>
                                            <audio/>
                                        </media>
                                    </timecode>
                                </file>
                                <name>/home/davidk/code/python/JC-render/JC-examples/yoga.mp4</name>
                                <rate>
                                    <timebase>30</timebase>
                                    <ntsc>TRUE</ntsc>
                                </rate>
                                <start>15693</start>
                                <end>15741</end>
                            </clipitem>
                            <clipitem frameBlend="FALSE" id="clipitem-321">
                                <media>
                                    <video>
                                        <samplecharacteristics>
                                            <height>720</height>
                                            <width>1270</width>
                                        </samplecharacteristics>
                                    </video>
                                </media>
                                <file id="file-1">
                                    <pathurl>/home/davidk/code/python/JC-render/JC-examples/yoga.mp4</pathurl>
                                    <name>yoga.mp4</name>
                                    <rate>
                                        <timebase>30</timebase>
                                        <ntsc>TRUE</ntsc>
                                    </rate>
                                    <duration>54922</duration>
                                    <timecode>
                                        <rate>
                                            <timebase>30</timebase>
                                            <ntsc>TRUE</ntsc>
                                        </rate>
                                        <string>00:00:00:00</string>
                                        <frame>0</frame>
                                        <displayformat>NDF</displayformat>
                                        <media>
                                            <video/>
                                            <audio/>
                                        </media>
                                    </timecode>
                                </file>
                                <name>/home/davidk/code/python/JC-render/JC-examples/yoga.mp4</name>
                                <rate>
                                    <timebase>30</timebase>
                                    <ntsc>TRUE</ntsc>
                                </rate>
                                <start>15741</start>
                                <end>15916</end>
                            </clipitem>
                            <clipitem frameBlend="FALSE" id="clipitem-322">
                                <media>
                                    <video>
                                        <samplecharacteristics>
                                            <height>720</height>
                                            <width>1270</width>
                                        </samplecharacteristics>
                                    </video>
                                </media>
                                <file id="file-1">
                                    <pathurl>/home/davidk/code/python/JC-render/JC-examples/yoga.mp4</pathurl>
                                    <name>yoga.mp4</name>
                                    <rate>
                                        <timebase>30</timebase>
                                        <ntsc>TRUE</ntsc>
                                    </rate>
                                    <duration>54922</duration>
                                    <timecode>
                                        <rate>
                                            <timebase>30</timebase>
                                            <ntsc>TRUE</ntsc>
                                        </rate>
                                        <string>00:00:00:00</string>
                                        <frame>0</frame>
                                        <displayformat>NDF</displayformat>
                                        <media>
                                            <video/>
                                            <audio/>
                                        </media>
                                    </timecode>
                                </file>
                                <name>/home/davidk/code/python/JC-render/JC-examples/yoga.mp4</name>
                                <rate>
                                    <timebase>30</timebase>
                                    <ntsc>TRUE</ntsc>
                                </rate>
                                <start>15916</start>
                                <end>16030</end>
                            </clipitem>
                            <clipitem frameBlend="FALSE" id="clipitem-323">
                                <media>
                                    <video>
                                        <samplecharacteristics>
                                            <height>720</height>
                                            <width>1270</width>
                                        </samplecharacteristics>
                                    </video>
                                </media>
                                <file id="file-1">
                                    <pathurl>/home/davidk/code/python/JC-render/JC-examples/yoga.mp4</pathurl>
                                    <name>yoga.mp4</name>
                                    <rate>
                                        <timebase>30</timebase>
                                        <ntsc>TRUE</ntsc>
                                    </rate>
                                    <duration>54922</duration>
                                    <timecode>
                                        <rate>
                                            <timebase>30</timebase>
                                            <ntsc>TRUE</ntsc>
                                        </rate>
                                        <string>00:00:00:00</string>
                                        <frame>0</frame>
                                        <displayformat>NDF</displayformat>
                                        <media>
                                            <video/>
                                            <audio/>
                                        </media>
                                    </timecode>
                                </file>
                                <name>/home/davidk/code/python/JC-render/JC-examples/yoga.mp4</name>
                                <rate>
                                    <timebase>30</timebase>
                                    <ntsc>TRUE</ntsc>
                                </rate>
                                <start>16030</start>
                                <end>16073</end>
                            </clipitem>
                            <clipitem frameBlend="FALSE" id="clipitem-324">
                                <media>
                                    <video>
                                        <samplecharacteristics>
                                            <height>720</height>
                                            <width>1270</width>
                                        </samplecharacteristics>
                                    </video>
                                </media>
                                <file id="file-1">
                                    <pathurl>/home/davidk/code/python/JC-render/JC-examples/yoga.mp4</pathurl>
                                    <name>yoga.mp4</name>
                                    <rate>
                                        <timebase>30</timebase>
                                        <ntsc>TRUE</ntsc>
                                    </rate>
                                    <duration>54922</duration>
                                    <timecode>
                                        <rate>
                                            <timebase>30</timebase>
                                            <ntsc>TRUE</ntsc>
                                        </rate>
                                        <string>00:00:00:00</string>
                                        <frame>0</frame>
                                        <displayformat>NDF</displayformat>
                                        <media>
                                            <video/>
                                            <audio/>
                                        </media>
                                    </timecode>
                                </file>
                                <name>/home/davidk/code/python/JC-render/JC-examples/yoga.mp4</name>
                                <rate>
                                    <timebase>30</timebase>
                                    <ntsc>TRUE</ntsc>
                                </rate>
                                <start>16073</start>
                                <end>16075</end>
                            </clipitem>
                            <clipitem frameBlend="FALSE" id="clipitem-325">
                                <media>
                                    <video>
                                        <samplecharacteristics>
                                            <height>720</height>
                                            <width>1270</width>
                                        </samplecharacteristics>
                                    </video>
                                </media>
                                <file id="file-1">
                                    <pathurl>/home/davidk/code/python/JC-render/JC-examples/yoga.mp4</pathurl>
                                    <name>yoga.mp4</name>
                                    <rate>
                                        <timebase>30</timebase>
                                        <ntsc>TRUE</ntsc>
                                    </rate>
                                    <duration>54922</duration>
                                    <timecode>
                                        <rate>
                                            <timebase>30</timebase>
                                            <ntsc>TRUE</ntsc>
                                        </rate>
                                        <string>00:00:00:00</string>
                                        <frame>0</frame>
                                        <displayformat>NDF</displayformat>
                                        <media>
                                            <video/>
                                            <audio/>
                                        </media>
                                    </timecode>
                                </file>
                                <name>/home/davidk/code/python/JC-render/JC-examples/yoga.mp4</name>
                                <rate>
                                    <timebase>30</timebase>
                                    <ntsc>TRUE</ntsc>
                                </rate>
                                <start>16075</start>
                                <end>16265</end>
                            </clipitem>
                            <clipitem frameBlend="FALSE" id="clipitem-326">
                                <media>
                                    <video>
                                        <samplecharacteristics>
                                            <height>720</height>
                                            <width>1270</width>
                                        </samplecharacteristics>
                                    </video>
                                </media>
                                <file id="file-1">
                                    <pathurl>/home/davidk/code/python/JC-render/JC-examples/yoga.mp4</pathurl>
                                    <name>yoga.mp4</name>
                                    <rate>
                                        <timebase>30</timebase>
                                        <ntsc>TRUE</ntsc>
                                    </rate>
                                    <duration>54922</duration>
                                    <timecode>
                                        <rate>
                                            <timebase>30</timebase>
                                            <ntsc>TRUE</ntsc>
                                        </rate>
                                        <string>00:00:00:00</string>
                                        <frame>0</frame>
                                        <displayformat>NDF</displayformat>
                                        <media>
                                            <video/>
                                            <audio/>
                                        </media>
                                    </timecode>
                                </file>
                                <name>/home/davidk/code/python/JC-render/JC-examples/yoga.mp4</name>
                                <rate>
                                    <timebase>30</timebase>
                                    <ntsc>TRUE</ntsc>
                                </rate>
                                <start>16265</start>
                                <end>16267</end>
                            </clipitem>
                            <clipitem frameBlend="FALSE" id="clipitem-327">
                                <media>
                                    <video>
                                        <samplecharacteristics>
                                            <height>720</height>
                                            <width>1270</width>
                                        </samplecharacteristics>
                                    </video>
                                </media>
                                <file id="file-1">
                                    <pathurl>/home/davidk/code/python/JC-render/JC-examples/yoga.mp4</pathurl>
                                    <name>yoga.mp4</name>
                                    <rate>
                                        <timebase>30</timebase>
                                        <ntsc>TRUE</ntsc>
                                    </rate>
                                    <duration>54922</duration>
                                    <timecode>
                                        <rate>
                                            <timebase>30</timebase>
                                            <ntsc>TRUE</ntsc>
                                        </rate>
                                        <string>00:00:00:00</string>
                                        <frame>0</frame>
                                        <displayformat>NDF</displayformat>
                                        <media>
                                            <video/>
                                            <audio/>
                                        </media>
                                    </timecode>
                                </file>
                                <name>/home/davidk/code/python/JC-render/JC-examples/yoga.mp4</name>
                                <rate>
                                    <timebase>30</timebase>
                                    <ntsc>TRUE</ntsc>
                                </rate>
                                <start>16267</start>
                                <end>16296</end>
                            </clipitem>
                            <clipitem frameBlend="FALSE" id="clipitem-328">
                                <media>
                                    <video>
                                        <samplecharacteristics>
                                            <height>720</height>
                                            <width>1270</width>
                                        </samplecharacteristics>
                                    </video>
                                </media>
                                <file id="file-1">
                                    <pathurl>/home/davidk/code/python/JC-render/JC-examples/yoga.mp4</pathurl>
                                    <name>yoga.mp4</name>
                                    <rate>
                                        <timebase>30</timebase>
                                        <ntsc>TRUE</ntsc>
                                    </rate>
                                    <duration>54922</duration>
                                    <timecode>
                                        <rate>
                                            <timebase>30</timebase>
                                            <ntsc>TRUE</ntsc>
                                        </rate>
                                        <string>00:00:00:00</string>
                                        <frame>0</frame>
                                        <displayformat>NDF</displayformat>
                                        <media>
                                            <video/>
                                            <audio/>
                                        </media>
                                    </timecode>
                                </file>
                                <name>/home/davidk/code/python/JC-render/JC-examples/yoga.mp4</name>
                                <rate>
                                    <timebase>30</timebase>
                                    <ntsc>TRUE</ntsc>
                                </rate>
                                <start>16296</start>
                                <end>16350</end>
                            </clipitem>
                            <clipitem frameBlend="FALSE" id="clipitem-329">
                                <media>
                                    <video>
                                        <samplecharacteristics>
                                            <height>720</height>
                                            <width>1270</width>
                                        </samplecharacteristics>
                                    </video>
                                </media>
                                <file id="file-1">
                                    <pathurl>/home/davidk/code/python/JC-render/JC-examples/yoga.mp4</pathurl>
                                    <name>yoga.mp4</name>
                                    <rate>
                                        <timebase>30</timebase>
                                        <ntsc>TRUE</ntsc>
                                    </rate>
                                    <duration>54922</duration>
                                    <timecode>
                                        <rate>
                                            <timebase>30</timebase>
                                            <ntsc>TRUE</ntsc>
                                        </rate>
                                        <string>00:00:00:00</string>
                                        <frame>0</frame>
                                        <displayformat>NDF</displayformat>
                                        <media>
                                            <video/>
                                            <audio/>
                                        </media>
                                    </timecode>
                                </file>
                                <name>/home/davidk/code/python/JC-render/JC-examples/yoga.mp4</name>
                                <rate>
                                    <timebase>30</timebase>
                                    <ntsc>TRUE</ntsc>
                                </rate>
                                <start>16350</start>
                                <end>16498</end>
                            </clipitem>
                            <clipitem frameBlend="FALSE" id="clipitem-330">
                                <media>
                                    <video>
                                        <samplecharacteristics>
                                            <height>720</height>
                                            <width>1270</width>
                                        </samplecharacteristics>
                                    </video>
                                </media>
                                <file id="file-1">
                                    <pathurl>/home/davidk/code/python/JC-render/JC-examples/yoga.mp4</pathurl>
                                    <name>yoga.mp4</name>
                                    <rate>
                                        <timebase>30</timebase>
                                        <ntsc>TRUE</ntsc>
                                    </rate>
                                    <duration>54922</duration>
                                    <timecode>
                                        <rate>
                                            <timebase>30</timebase>
                                            <ntsc>TRUE</ntsc>
                                        </rate>
                                        <string>00:00:00:00</string>
                                        <frame>0</frame>
                                        <displayformat>NDF</displayformat>
                                        <media>
                                            <video/>
                                            <audio/>
                                        </media>
                                    </timecode>
                                </file>
                                <name>/home/davidk/code/python/JC-render/JC-examples/yoga.mp4</name>
                                <rate>
                                    <timebase>30</timebase>
                                    <ntsc>TRUE</ntsc>
                                </rate>
                                <start>16498</start>
                                <end>16510</end>
                            </clipitem>
                            <clipitem frameBlend="FALSE" id="clipitem-331">
                                <media>
                                    <video>
                                        <samplecharacteristics>
                                            <height>720</height>
                                            <width>1270</width>
                                        </samplecharacteristics>
                                    </video>
                                </media>
                                <file id="file-1">
                                    <pathurl>/home/davidk/code/python/JC-render/JC-examples/yoga.mp4</pathurl>
                                    <name>yoga.mp4</name>
                                    <rate>
                                        <timebase>30</timebase>
                                        <ntsc>TRUE</ntsc>
                                    </rate>
                                    <duration>54922</duration>
                                    <timecode>
                                        <rate>
                                            <timebase>30</timebase>
                                            <ntsc>TRUE</ntsc>
                                        </rate>
                                        <string>00:00:00:00</string>
                                        <frame>0</frame>
                                        <displayformat>NDF</displayformat>
                                        <media>
                                            <video/>
                                            <audio/>
                                        </media>
                                    </timecode>
                                </file>
                                <name>/home/davidk/code/python/JC-render/JC-examples/yoga.mp4</name>
                                <rate>
                                    <timebase>30</timebase>
                                    <ntsc>TRUE</ntsc>
                                </rate>
                                <start>16510</start>
                                <end>16686</end>
                            </clipitem>
                            <clipitem frameBlend="FALSE" id="clipitem-332">
                                <media>
                                    <video>
                                        <samplecharacteristics>
                                            <height>720</height>
                                            <width>1270</width>
                                        </samplecharacteristics>
                                    </video>
                                </media>
                                <file id="file-1">
                                    <pathurl>/home/davidk/code/python/JC-render/JC-examples/yoga.mp4</pathurl>
                                    <name>yoga.mp4</name>
                                    <rate>
                                        <timebase>30</timebase>
                                        <ntsc>TRUE</ntsc>
                                    </rate>
                                    <duration>54922</duration>
                                    <timecode>
                                        <rate>
                                            <timebase>30</timebase>
                                            <ntsc>TRUE</ntsc>
                                        </rate>
                                        <string>00:00:00:00</string>
                                        <frame>0</frame>
                                        <displayformat>NDF</displayformat>
                                        <media>
                                            <video/>
                                            <audio/>
                                        </media>
                                    </timecode>
                                </file>
                                <name>/home/davidk/code/python/JC-render/JC-examples/yoga.mp4</name>
                                <rate>
                                    <timebase>30</timebase>
                                    <ntsc>TRUE</ntsc>
                                </rate>
                                <start>16686</start>
                                <end>16730</end>
                            </clipitem>
                            <clipitem frameBlend="FALSE" id="clipitem-333">
                                <media>
                                    <video>
                                        <samplecharacteristics>
                                            <height>720</height>
                                            <width>1270</width>
                                        </samplecharacteristics>
                                    </video>
                                </media>
                                <file id="file-1">
                                    <pathurl>/home/davidk/code/python/JC-render/JC-examples/yoga.mp4</pathurl>
                                    <name>yoga.mp4</name>
                                    <rate>
                                        <timebase>30</timebase>
                                        <ntsc>TRUE</ntsc>
                                    </rate>
                                    <duration>54922</duration>
                                    <timecode>
                                        <rate>
                                            <timebase>30</timebase>
                                            <ntsc>TRUE</ntsc>
                                        </rate>
                                        <string>00:00:00:00</string>
                                        <frame>0</frame>
                                        <displayformat>NDF</displayformat>
                                        <media>
                                            <video/>
                                            <audio/>
                                        </media>
                                    </timecode>
                                </file>
                                <name>/home/davidk/code/python/JC-render/JC-examples/yoga.mp4</name>
                                <rate>
                                    <timebase>30</timebase>
                                    <ntsc>TRUE</ntsc>
                                </rate>
                                <start>16730</start>
                                <end>16787</end>
                            </clipitem>
                            <clipitem frameBlend="FALSE" id="clipitem-334">
                                <media>
                                    <video>
                                        <samplecharacteristics>
                                            <height>720</height>
                                            <width>1270</width>
                                        </samplecharacteristics>
                                    </video>
                                </media>
                                <file id="file-1">
                                    <pathurl>/home/davidk/code/python/JC-render/JC-examples/yoga.mp4</pathurl>
                                    <name>yoga.mp4</name>
                                    <rate>
                                        <timebase>30</timebase>
                                        <ntsc>TRUE</ntsc>
                                    </rate>
                                    <duration>54922</duration>
                                    <timecode>
                                        <rate>
                                            <timebase>30</timebase>
                                            <ntsc>TRUE</ntsc>
                                        </rate>
                                        <string>00:00:00:00</string>
                                        <frame>0</frame>
                                        <displayformat>NDF</displayformat>
                                        <media>
                                            <video/>
                                            <audio/>
                                        </media>
                                    </timecode>
                                </file>
                                <name>/home/davidk/code/python/JC-render/JC-examples/yoga.mp4</name>
                                <rate>
                                    <timebase>30</timebase>
                                    <ntsc>TRUE</ntsc>
                                </rate>
                                <start>16787</start>
                                <end>16789</end>
                            </clipitem>
                            <clipitem frameBlend="FALSE" id="clipitem-335">
                                <media>
                                    <video>
                                        <samplecharacteristics>
                                            <height>720</height>
                                            <width>1270</width>
                                        </samplecharacteristics>
                                    </video>
                                </media>
                                <file id="file-1">
                                    <pathurl>/home/davidk/code/python/JC-render/JC-examples/yoga.mp4</pathurl>
                                    <name>yoga.mp4</name>
                                    <rate>
                                        <timebase>30</timebase>
                                        <ntsc>TRUE</ntsc>
                                    </rate>
                                    <duration>54922</duration>
                                    <timecode>
                                        <rate>
                                            <timebase>30</timebase>
                                            <ntsc>TRUE</ntsc>
                                        </rate>
                                        <string>00:00:00:00</string>
                                        <frame>0</frame>
                                        <displayformat>NDF</displayformat>
                                        <media>
                                            <video/>
                                            <audio/>
                                        </media>
                                    </timecode>
                                </file>
                                <name>/home/davidk/code/python/JC-render/JC-examples/yoga.mp4</name>
                                <rate>
                                    <timebase>30</timebase>
                                    <ntsc>TRUE</ntsc>
                                </rate>
                                <start>16789</start>
                                <end>16825</end>
                            </clipitem>
                            <clipitem frameBlend="FALSE" id="clipitem-336">
                                <media>
                                    <video>
                                        <samplecharacteristics>
                                            <height>720</height>
                                            <width>1270</width>
                                        </samplecharacteristics>
                                    </video>
                                </media>
                                <file id="file-1">
                                    <pathurl>/home/davidk/code/python/JC-render/JC-examples/yoga.mp4</pathurl>
                                    <name>yoga.mp4</name>
                                    <rate>
                                        <timebase>30</timebase>
                                        <ntsc>TRUE</ntsc>
                                    </rate>
                                    <duration>54922</duration>
                                    <timecode>
                                        <rate>
                                            <timebase>30</timebase>
                                            <ntsc>TRUE</ntsc>
                                        </rate>
                                        <string>00:00:00:00</string>
                                        <frame>0</frame>
                                        <displayformat>NDF</displayformat>
                                        <media>
                                            <video/>
                                            <audio/>
                                        </media>
                                    </timecode>
                                </file>
                                <name>/home/davidk/code/python/JC-render/JC-examples/yoga.mp4</name>
                                <rate>
                                    <timebase>30</timebase>
                                    <ntsc>TRUE</ntsc>
                                </rate>
                                <start>16825</start>
                                <end>16918</end>
                            </clipitem>
                            <clipitem frameBlend="FALSE" id="clipitem-337">
                                <media>
                                    <video>
                                        <samplecharacteristics>
                                            <height>720</height>
                                            <width>1270</width>
                                        </samplecharacteristics>
                                    </video>
                                </media>
                                <file id="file-1">
                                    <pathurl>/home/davidk/code/python/JC-render/JC-examples/yoga.mp4</pathurl>
                                    <name>yoga.mp4</name>
                                    <rate>
                                        <timebase>30</timebase>
                                        <ntsc>TRUE</ntsc>
                                    </rate>
                                    <duration>54922</duration>
                                    <timecode>
                                        <rate>
                                            <timebase>30</timebase>
                                            <ntsc>TRUE</ntsc>
                                        </rate>
                                        <string>00:00:00:00</string>
                                        <frame>0</frame>
                                        <displayformat>NDF</displayformat>
                                        <media>
                                            <video/>
                                            <audio/>
                                        </media>
                                    </timecode>
                                </file>
                                <name>/home/davidk/code/python/JC-render/JC-examples/yoga.mp4</name>
                                <rate>
                                    <timebase>30</timebase>
                                    <ntsc>TRUE</ntsc>
                                </rate>
                                <start>16918</start>
                                <end>16944</end>
                            </clipitem>
                            <clipitem frameBlend="FALSE" id="clipitem-338">
                                <media>
                                    <video>
                                        <samplecharacteristics>
                                            <height>720</height>
                                            <width>1270</width>
                                        </samplecharacteristics>
                                    </video>
                                </media>
                                <file id="file-1">
                                    <pathurl>/home/davidk/code/python/JC-render/JC-examples/yoga.mp4</pathurl>
                                    <name>yoga.mp4</name>
                                    <rate>
                                        <timebase>30</timebase>
                                        <ntsc>TRUE</ntsc>
                                    </rate>
                                    <duration>54922</duration>
                                    <timecode>
                                        <rate>
                                            <timebase>30</timebase>
                                            <ntsc>TRUE</ntsc>
                                        </rate>
                                        <string>00:00:00:00</string>
                                        <frame>0</frame>
                                        <displayformat>NDF</displayformat>
                                        <media>
                                            <video/>
                                            <audio/>
                                        </media>
                                    </timecode>
                                </file>
                                <name>/home/davidk/code/python/JC-render/JC-examples/yoga.mp4</name>
                                <rate>
                                    <timebase>30</timebase>
                                    <ntsc>TRUE</ntsc>
                                </rate>
                                <start>16944</start>
                                <end>16949</end>
                            </clipitem>
                            <clipitem frameBlend="FALSE" id="clipitem-339">
                                <media>
                                    <video>
                                        <samplecharacteristics>
                                            <height>720</height>
                                            <width>1270</width>
                                        </samplecharacteristics>
                                    </video>
                                </media>
                                <file id="file-1">
                                    <pathurl>/home/davidk/code/python/JC-render/JC-examples/yoga.mp4</pathurl>
                                    <name>yoga.mp4</name>
                                    <rate>
                                        <timebase>30</timebase>
                                        <ntsc>TRUE</ntsc>
                                    </rate>
                                    <duration>54922</duration>
                                    <timecode>
                                        <rate>
                                            <timebase>30</timebase>
                                            <ntsc>TRUE</ntsc>
                                        </rate>
                                        <string>00:00:00:00</string>
                                        <frame>0</frame>
                                        <displayformat>NDF</displayformat>
                                        <media>
                                            <video/>
                                            <audio/>
                                        </media>
                                    </timecode>
                                </file>
                                <name>/home/davidk/code/python/JC-render/JC-examples/yoga.mp4</name>
                                <rate>
                                    <timebase>30</timebase>
                                    <ntsc>TRUE</ntsc>
                                </rate>
                                <start>16949</start>
                                <end>16986</end>
                            </clipitem>
                            <clipitem frameBlend="FALSE" id="clipitem-340">
                                <media>
                                    <video>
                                        <samplecharacteristics>
                                            <height>720</height>
                                            <width>1270</width>
                                        </samplecharacteristics>
                                    </video>
                                </media>
                                <file id="file-1">
                                    <pathurl>/home/davidk/code/python/JC-render/JC-examples/yoga.mp4</pathurl>
                                    <name>yoga.mp4</name>
                                    <rate>
                                        <timebase>30</timebase>
                                        <ntsc>TRUE</ntsc>
                                    </rate>
                                    <duration>54922</duration>
                                    <timecode>
                                        <rate>
                                            <timebase>30</timebase>
                                            <ntsc>TRUE</ntsc>
                                        </rate>
                                        <string>00:00:00:00</string>
                                        <frame>0</frame>
                                        <displayformat>NDF</displayformat>
                                        <media>
                                            <video/>
                                            <audio/>
                                        </media>
                                    </timecode>
                                </file>
                                <name>/home/davidk/code/python/JC-render/JC-examples/yoga.mp4</name>
                                <rate>
                                    <timebase>30</timebase>
                                    <ntsc>TRUE</ntsc>
                                </rate>
                                <start>16986</start>
                                <end>17001</end>
                            </clipitem>
                            <clipitem frameBlend="FALSE" id="clipitem-341">
                                <media>
                                    <video>
                                        <samplecharacteristics>
                                            <height>720</height>
                                            <width>1270</width>
                                        </samplecharacteristics>
                                    </video>
                                </media>
                                <file id="file-1">
                                    <pathurl>/home/davidk/code/python/JC-render/JC-examples/yoga.mp4</pathurl>
                                    <name>yoga.mp4</name>
                                    <rate>
                                        <timebase>30</timebase>
                                        <ntsc>TRUE</ntsc>
                                    </rate>
                                    <duration>54922</duration>
                                    <timecode>
                                        <rate>
                                            <timebase>30</timebase>
                                            <ntsc>TRUE</ntsc>
                                        </rate>
                                        <string>00:00:00:00</string>
                                        <frame>0</frame>
                                        <displayformat>NDF</displayformat>
                                        <media>
                                            <video/>
                                            <audio/>
                                        </media>
                                    </timecode>
                                </file>
                                <name>/home/davidk/code/python/JC-render/JC-examples/yoga.mp4</name>
                                <rate>
                                    <timebase>30</timebase>
                                    <ntsc>TRUE</ntsc>
                                </rate>
                                <start>17001</start>
                                <end>17135</end>
                            </clipitem>
                            <clipitem frameBlend="FALSE" id="clipitem-342">
                                <media>
                                    <video>
                                        <samplecharacteristics>
                                            <height>720</height>
                                            <width>1270</width>
                                        </samplecharacteristics>
                                    </video>
                                </media>
                                <file id="file-1">
                                    <pathurl>/home/davidk/code/python/JC-render/JC-examples/yoga.mp4</pathurl>
                                    <name>yoga.mp4</name>
                                    <rate>
                                        <timebase>30</timebase>
                                        <ntsc>TRUE</ntsc>
                                    </rate>
                                    <duration>54922</duration>
                                    <timecode>
                                        <rate>
                                            <timebase>30</timebase>
                                            <ntsc>TRUE</ntsc>
                                        </rate>
                                        <string>00:00:00:00</string>
                                        <frame>0</frame>
                                        <displayformat>NDF</displayformat>
                                        <media>
                                            <video/>
                                            <audio/>
                                        </media>
                                    </timecode>
                                </file>
                                <name>/home/davidk/code/python/JC-render/JC-examples/yoga.mp4</name>
                                <rate>
                                    <timebase>30</timebase>
                                    <ntsc>TRUE</ntsc>
                                </rate>
                                <start>17135</start>
                                <end>17137</end>
                            </clipitem>
                            <clipitem frameBlend="FALSE" id="clipitem-343">
                                <media>
                                    <video>
                                        <samplecharacteristics>
                                            <height>720</height>
                                            <width>1270</width>
                                        </samplecharacteristics>
                                    </video>
                                </media>
                                <file id="file-1">
                                    <pathurl>/home/davidk/code/python/JC-render/JC-examples/yoga.mp4</pathurl>
                                    <name>yoga.mp4</name>
                                    <rate>
                                        <timebase>30</timebase>
                                        <ntsc>TRUE</ntsc>
                                    </rate>
                                    <duration>54922</duration>
                                    <timecode>
                                        <rate>
                                            <timebase>30</timebase>
                                            <ntsc>TRUE</ntsc>
                                        </rate>
                                        <string>00:00:00:00</string>
                                        <frame>0</frame>
                                        <displayformat>NDF</displayformat>
                                        <media>
                                            <video/>
                                            <audio/>
                                        </media>
                                    </timecode>
                                </file>
                                <name>/home/davidk/code/python/JC-render/JC-examples/yoga.mp4</name>
                                <rate>
                                    <timebase>30</timebase>
                                    <ntsc>TRUE</ntsc>
                                </rate>
                                <start>17137</start>
                                <end>17212</end>
                            </clipitem>
                            <clipitem frameBlend="FALSE" id="clipitem-344">
                                <media>
                                    <video>
                                        <samplecharacteristics>
                                            <height>720</height>
                                            <width>1270</width>
                                        </samplecharacteristics>
                                    </video>
                                </media>
                                <file id="file-1">
                                    <pathurl>/home/davidk/code/python/JC-render/JC-examples/yoga.mp4</pathurl>
                                    <name>yoga.mp4</name>
                                    <rate>
                                        <timebase>30</timebase>
                                        <ntsc>TRUE</ntsc>
                                    </rate>
                                    <duration>54922</duration>
                                    <timecode>
                                        <rate>
                                            <timebase>30</timebase>
                                            <ntsc>TRUE</ntsc>
                                        </rate>
                                        <string>00:00:00:00</string>
                                        <frame>0</frame>
                                        <displayformat>NDF</displayformat>
                                        <media>
                                            <video/>
                                            <audio/>
                                        </media>
                                    </timecode>
                                </file>
                                <name>/home/davidk/code/python/JC-render/JC-examples/yoga.mp4</name>
                                <rate>
                                    <timebase>30</timebase>
                                    <ntsc>TRUE</ntsc>
                                </rate>
                                <start>17212</start>
                                <end>17224</end>
                            </clipitem>
                            <clipitem frameBlend="FALSE" id="clipitem-345">
                                <media>
                                    <video>
                                        <samplecharacteristics>
                                            <height>720</height>
                                            <width>1270</width>
                                        </samplecharacteristics>
                                    </video>
                                </media>
                                <file id="file-1">
                                    <pathurl>/home/davidk/code/python/JC-render/JC-examples/yoga.mp4</pathurl>
                                    <name>yoga.mp4</name>
                                    <rate>
                                        <timebase>30</timebase>
                                        <ntsc>TRUE</ntsc>
                                    </rate>
                                    <duration>54922</duration>
                                    <timecode>
                                        <rate>
                                            <timebase>30</timebase>
                                            <ntsc>TRUE</ntsc>
                                        </rate>
                                        <string>00:00:00:00</string>
                                        <frame>0</frame>
                                        <displayformat>NDF</displayformat>
                                        <media>
                                            <video/>
                                            <audio/>
                                        </media>
                                    </timecode>
                                </file>
                                <name>/home/davidk/code/python/JC-render/JC-examples/yoga.mp4</name>
                                <rate>
                                    <timebase>30</timebase>
                                    <ntsc>TRUE</ntsc>
                                </rate>
                                <start>17224</start>
                                <end>17254</end>
                            </clipitem>
                            <clipitem frameBlend="FALSE" id="clipitem-346">
                                <media>
                                    <video>
                                        <samplecharacteristics>
                                            <height>720</height>
                                            <width>1270</width>
                                        </samplecharacteristics>
                                    </video>
                                </media>
                                <file id="file-1">
                                    <pathurl>/home/davidk/code/python/JC-render/JC-examples/yoga.mp4</pathurl>
                                    <name>yoga.mp4</name>
                                    <rate>
                                        <timebase>30</timebase>
                                        <ntsc>TRUE</ntsc>
                                    </rate>
                                    <duration>54922</duration>
                                    <timecode>
                                        <rate>
                                            <timebase>30</timebase>
                                            <ntsc>TRUE</ntsc>
                                        </rate>
                                        <string>00:00:00:00</string>
                                        <frame>0</frame>
                                        <displayformat>NDF</displayformat>
                                        <media>
                                            <video/>
                                            <audio/>
                                        </media>
                                    </timecode>
                                </file>
                                <name>/home/davidk/code/python/JC-render/JC-examples/yoga.mp4</name>
                                <rate>
                                    <timebase>30</timebase>
                                    <ntsc>TRUE</ntsc>
                                </rate>
                                <start>17254</start>
                                <end>17298</end>
                            </clipitem>
                            <clipitem frameBlend="FALSE" id="clipitem-347">
                                <media>
                                    <video>
                                        <samplecharacteristics>
                                            <height>720</height>
                                            <width>1270</width>
                                        </samplecharacteristics>
                                    </video>
                                </media>
                                <file id="file-1">
                                    <pathurl>/home/davidk/code/python/JC-render/JC-examples/yoga.mp4</pathurl>
                                    <name>yoga.mp4</name>
                                    <rate>
                                        <timebase>30</timebase>
                                        <ntsc>TRUE</ntsc>
                                    </rate>
                                    <duration>54922</duration>
                                    <timecode>
                                        <rate>
                                            <timebase>30</timebase>
                                            <ntsc>TRUE</ntsc>
                                        </rate>
                                        <string>00:00:00:00</string>
                                        <frame>0</frame>
                                        <displayformat>NDF</displayformat>
                                        <media>
                                            <video/>
                                            <audio/>
                                        </media>
                                    </timecode>
                                </file>
                                <name>/home/davidk/code/python/JC-render/JC-examples/yoga.mp4</name>
                                <rate>
                                    <timebase>30</timebase>
                                    <ntsc>TRUE</ntsc>
                                </rate>
                                <start>17298</start>
                                <end>17414</end>
                            </clipitem>
                            <clipitem frameBlend="FALSE" id="clipitem-348">
                                <media>
                                    <video>
                                        <samplecharacteristics>
                                            <height>720</height>
                                            <width>1270</width>
                                        </samplecharacteristics>
                                    </video>
                                </media>
                                <file id="file-1">
                                    <pathurl>/home/davidk/code/python/JC-render/JC-examples/yoga.mp4</pathurl>
                                    <name>yoga.mp4</name>
                                    <rate>
                                        <timebase>30</timebase>
                                        <ntsc>TRUE</ntsc>
                                    </rate>
                                    <duration>54922</duration>
                                    <timecode>
                                        <rate>
                                            <timebase>30</timebase>
                                            <ntsc>TRUE</ntsc>
                                        </rate>
                                        <string>00:00:00:00</string>
                                        <frame>0</frame>
                                        <displayformat>NDF</displayformat>
                                        <media>
                                            <video/>
                                            <audio/>
                                        </media>
                                    </timecode>
                                </file>
                                <name>/home/davidk/code/python/JC-render/JC-examples/yoga.mp4</name>
                                <rate>
                                    <timebase>30</timebase>
                                    <ntsc>TRUE</ntsc>
                                </rate>
                                <start>17414</start>
                                <end>17419</end>
                            </clipitem>
                            <clipitem frameBlend="FALSE" id="clipitem-349">
                                <media>
                                    <video>
                                        <samplecharacteristics>
                                            <height>720</height>
                                            <width>1270</width>
                                        </samplecharacteristics>
                                    </video>
                                </media>
                                <file id="file-1">
                                    <pathurl>/home/davidk/code/python/JC-render/JC-examples/yoga.mp4</pathurl>
                                    <name>yoga.mp4</name>
                                    <rate>
                                        <timebase>30</timebase>
                                        <ntsc>TRUE</ntsc>
                                    </rate>
                                    <duration>54922</duration>
                                    <timecode>
                                        <rate>
                                            <timebase>30</timebase>
                                            <ntsc>TRUE</ntsc>
                                        </rate>
                                        <string>00:00:00:00</string>
                                        <frame>0</frame>
                                        <displayformat>NDF</displayformat>
                                        <media>
                                            <video/>
                                            <audio/>
                                        </media>
                                    </timecode>
                                </file>
                                <name>/home/davidk/code/python/JC-render/JC-examples/yoga.mp4</name>
                                <rate>
                                    <timebase>30</timebase>
                                    <ntsc>TRUE</ntsc>
                                </rate>
                                <start>17419</start>
                                <end>17473</end>
                            </clipitem>
                            <clipitem frameBlend="FALSE" id="clipitem-350">
                                <media>
                                    <video>
                                        <samplecharacteristics>
                                            <height>720</height>
                                            <width>1270</width>
                                        </samplecharacteristics>
                                    </video>
                                </media>
                                <file id="file-1">
                                    <pathurl>/home/davidk/code/python/JC-render/JC-examples/yoga.mp4</pathurl>
                                    <name>yoga.mp4</name>
                                    <rate>
                                        <timebase>30</timebase>
                                        <ntsc>TRUE</ntsc>
                                    </rate>
                                    <duration>54922</duration>
                                    <timecode>
                                        <rate>
                                            <timebase>30</timebase>
                                            <ntsc>TRUE</ntsc>
                                        </rate>
                                        <string>00:00:00:00</string>
                                        <frame>0</frame>
                                        <displayformat>NDF</displayformat>
                                        <media>
                                            <video/>
                                            <audio/>
                                        </media>
                                    </timecode>
                                </file>
                                <name>/home/davidk/code/python/JC-render/JC-examples/yoga.mp4</name>
                                <rate>
                                    <timebase>30</timebase>
                                    <ntsc>TRUE</ntsc>
                                </rate>
                                <start>17473</start>
                                <end>17479</end>
                            </clipitem>
                            <clipitem frameBlend="FALSE" id="clipitem-351">
                                <media>
                                    <video>
                                        <samplecharacteristics>
                                            <height>720</height>
                                            <width>1270</width>
                                        </samplecharacteristics>
                                    </video>
                                </media>
                                <file id="file-1">
                                    <pathurl>/home/davidk/code/python/JC-render/JC-examples/yoga.mp4</pathurl>
                                    <name>yoga.mp4</name>
                                    <rate>
                                        <timebase>30</timebase>
                                        <ntsc>TRUE</ntsc>
                                    </rate>
                                    <duration>54922</duration>
                                    <timecode>
                                        <rate>
                                            <timebase>30</timebase>
                                            <ntsc>TRUE</ntsc>
                                        </rate>
                                        <string>00:00:00:00</string>
                                        <frame>0</frame>
                                        <displayformat>NDF</displayformat>
                                        <media>
                                            <video/>
                                            <audio/>
                                        </media>
                                    </timecode>
                                </file>
                                <name>/home/davidk/code/python/JC-render/JC-examples/yoga.mp4</name>
                                <rate>
                                    <timebase>30</timebase>
                                    <ntsc>TRUE</ntsc>
                                </rate>
                                <start>17479</start>
                                <end>17599</end>
                            </clipitem>
                            <clipitem frameBlend="FALSE" id="clipitem-352">
                                <media>
                                    <video>
                                        <samplecharacteristics>
                                            <height>720</height>
                                            <width>1270</width>
                                        </samplecharacteristics>
                                    </video>
                                </media>
                                <file id="file-1">
                                    <pathurl>/home/davidk/code/python/JC-render/JC-examples/yoga.mp4</pathurl>
                                    <name>yoga.mp4</name>
                                    <rate>
                                        <timebase>30</timebase>
                                        <ntsc>TRUE</ntsc>
                                    </rate>
                                    <duration>54922</duration>
                                    <timecode>
                                        <rate>
                                            <timebase>30</timebase>
                                            <ntsc>TRUE</ntsc>
                                        </rate>
                                        <string>00:00:00:00</string>
                                        <frame>0</frame>
                                        <displayformat>NDF</displayformat>
                                        <media>
                                            <video/>
                                            <audio/>
                                        </media>
                                    </timecode>
                                </file>
                                <name>/home/davidk/code/python/JC-render/JC-examples/yoga.mp4</name>
                                <rate>
                                    <timebase>30</timebase>
                                    <ntsc>TRUE</ntsc>
                                </rate>
                                <start>17599</start>
                                <end>17601</end>
                            </clipitem>
                            <clipitem frameBlend="FALSE" id="clipitem-353">
                                <media>
                                    <video>
                                        <samplecharacteristics>
                                            <height>720</height>
                                            <width>1270</width>
                                        </samplecharacteristics>
                                    </video>
                                </media>
                                <file id="file-1">
                                    <pathurl>/home/davidk/code/python/JC-render/JC-examples/yoga.mp4</pathurl>
                                    <name>yoga.mp4</name>
                                    <rate>
                                        <timebase>30</timebase>
                                        <ntsc>TRUE</ntsc>
                                    </rate>
                                    <duration>54922</duration>
                                    <timecode>
                                        <rate>
                                            <timebase>30</timebase>
                                            <ntsc>TRUE</ntsc>
                                        </rate>
                                        <string>00:00:00:00</string>
                                        <frame>0</frame>
                                        <displayformat>NDF</displayformat>
                                        <media>
                                            <video/>
                                            <audio/>
                                        </media>
                                    </timecode>
                                </file>
                                <name>/home/davidk/code/python/JC-render/JC-examples/yoga.mp4</name>
                                <rate>
                                    <timebase>30</timebase>
                                    <ntsc>TRUE</ntsc>
                                </rate>
                                <start>17601</start>
                                <end>17630</end>
                            </clipitem>
                            <clipitem frameBlend="FALSE" id="clipitem-354">
                                <media>
                                    <video>
                                        <samplecharacteristics>
                                            <height>720</height>
                                            <width>1270</width>
                                        </samplecharacteristics>
                                    </video>
                                </media>
                                <file id="file-1">
                                    <pathurl>/home/davidk/code/python/JC-render/JC-examples/yoga.mp4</pathurl>
                                    <name>yoga.mp4</name>
                                    <rate>
                                        <timebase>30</timebase>
                                        <ntsc>TRUE</ntsc>
                                    </rate>
                                    <duration>54922</duration>
                                    <timecode>
                                        <rate>
                                            <timebase>30</timebase>
                                            <ntsc>TRUE</ntsc>
                                        </rate>
                                        <string>00:00:00:00</string>
                                        <frame>0</frame>
                                        <displayformat>NDF</displayformat>
                                        <media>
                                            <video/>
                                            <audio/>
                                        </media>
                                    </timecode>
                                </file>
                                <name>/home/davidk/code/python/JC-render/JC-examples/yoga.mp4</name>
                                <rate>
                                    <timebase>30</timebase>
                                    <ntsc>TRUE</ntsc>
                                </rate>
                                <start>17630</start>
                                <end>17639</end>
                            </clipitem>
                            <clipitem frameBlend="FALSE" id="clipitem-355">
                                <media>
                                    <video>
                                        <samplecharacteristics>
                                            <height>720</height>
                                            <width>1270</width>
                                        </samplecharacteristics>
                                    </video>
                                </media>
                                <file id="file-1">
                                    <pathurl>/home/davidk/code/python/JC-render/JC-examples/yoga.mp4</pathurl>
                                    <name>yoga.mp4</name>
                                    <rate>
                                        <timebase>30</timebase>
                                        <ntsc>TRUE</ntsc>
                                    </rate>
                                    <duration>54922</duration>
                                    <timecode>
                                        <rate>
                                            <timebase>30</timebase>
                                            <ntsc>TRUE</ntsc>
                                        </rate>
                                        <string>00:00:00:00</string>
                                        <frame>0</frame>
                                        <displayformat>NDF</displayformat>
                                        <media>
                                            <video/>
                                            <audio/>
                                        </media>
                                    </timecode>
                                </file>
                                <name>/home/davidk/code/python/JC-render/JC-examples/yoga.mp4</name>
                                <rate>
                                    <timebase>30</timebase>
                                    <ntsc>TRUE</ntsc>
                                </rate>
                                <start>17639</start>
                                <end>17703</end>
                            </clipitem>
                            <clipitem frameBlend="FALSE" id="clipitem-356">
                                <media>
                                    <video>
                                        <samplecharacteristics>
                                            <height>720</height>
                                            <width>1270</width>
                                        </samplecharacteristics>
                                    </video>
                                </media>
                                <file id="file-1">
                                    <pathurl>/home/davidk/code/python/JC-render/JC-examples/yoga.mp4</pathurl>
                                    <name>yoga.mp4</name>
                                    <rate>
                                        <timebase>30</timebase>
                                        <ntsc>TRUE</ntsc>
                                    </rate>
                                    <duration>54922</duration>
                                    <timecode>
                                        <rate>
                                            <timebase>30</timebase>
                                            <ntsc>TRUE</ntsc>
                                        </rate>
                                        <string>00:00:00:00</string>
                                        <frame>0</frame>
                                        <displayformat>NDF</displayformat>
                                        <media>
                                            <video/>
                                            <audio/>
                                        </media>
                                    </timecode>
                                </file>
                                <name>/home/davidk/code/python/JC-render/JC-examples/yoga.mp4</name>
                                <rate>
                                    <timebase>30</timebase>
                                    <ntsc>TRUE</ntsc>
                                </rate>
                                <start>17703</start>
                                <end>17740</end>
                            </clipitem>
                            <clipitem frameBlend="FALSE" id="clipitem-357">
                                <media>
                                    <video>
                                        <samplecharacteristics>
                                            <height>720</height>
                                            <width>1270</width>
                                        </samplecharacteristics>
                                    </video>
                                </media>
                                <file id="file-1">
                                    <pathurl>/home/davidk/code/python/JC-render/JC-examples/yoga.mp4</pathurl>
                                    <name>yoga.mp4</name>
                                    <rate>
                                        <timebase>30</timebase>
                                        <ntsc>TRUE</ntsc>
                                    </rate>
                                    <duration>54922</duration>
                                    <timecode>
                                        <rate>
                                            <timebase>30</timebase>
                                            <ntsc>TRUE</ntsc>
                                        </rate>
                                        <string>00:00:00:00</string>
                                        <frame>0</frame>
                                        <displayformat>NDF</displayformat>
                                        <media>
                                            <video/>
                                            <audio/>
                                        </media>
                                    </timecode>
                                </file>
                                <name>/home/davidk/code/python/JC-render/JC-examples/yoga.mp4</name>
                                <rate>
                                    <timebase>30</timebase>
                                    <ntsc>TRUE</ntsc>
                                </rate>
                                <start>17740</start>
                                <end>17811</end>
                            </clipitem>
                            <clipitem frameBlend="FALSE" id="clipitem-358">
                                <media>
                                    <video>
                                        <samplecharacteristics>
                                            <height>720</height>
                                            <width>1270</width>
                                        </samplecharacteristics>
                                    </video>
                                </media>
                                <file id="file-1">
                                    <pathurl>/home/davidk/code/python/JC-render/JC-examples/yoga.mp4</pathurl>
                                    <name>yoga.mp4</name>
                                    <rate>
                                        <timebase>30</timebase>
                                        <ntsc>TRUE</ntsc>
                                    </rate>
                                    <duration>54922</duration>
                                    <timecode>
                                        <rate>
                                            <timebase>30</timebase>
                                            <ntsc>TRUE</ntsc>
                                        </rate>
                                        <string>00:00:00:00</string>
                                        <frame>0</frame>
                                        <displayformat>NDF</displayformat>
                                        <media>
                                            <video/>
                                            <audio/>
                                        </media>
                                    </timecode>
                                </file>
                                <name>/home/davidk/code/python/JC-render/JC-examples/yoga.mp4</name>
                                <rate>
                                    <timebase>30</timebase>
                                    <ntsc>TRUE</ntsc>
                                </rate>
                                <start>17811</start>
                                <end>17820</end>
                            </clipitem>
                            <clipitem frameBlend="FALSE" id="clipitem-359">
                                <media>
                                    <video>
                                        <samplecharacteristics>
                                            <height>720</height>
                                            <width>1270</width>
                                        </samplecharacteristics>
                                    </video>
                                </media>
                                <file id="file-1">
                                    <pathurl>/home/davidk/code/python/JC-render/JC-examples/yoga.mp4</pathurl>
                                    <name>yoga.mp4</name>
                                    <rate>
                                        <timebase>30</timebase>
                                        <ntsc>TRUE</ntsc>
                                    </rate>
                                    <duration>54922</duration>
                                    <timecode>
                                        <rate>
                                            <timebase>30</timebase>
                                            <ntsc>TRUE</ntsc>
                                        </rate>
                                        <string>00:00:00:00</string>
                                        <frame>0</frame>
                                        <displayformat>NDF</displayformat>
                                        <media>
                                            <video/>
                                            <audio/>
                                        </media>
                                    </timecode>
                                </file>
                                <name>/home/davidk/code/python/JC-render/JC-examples/yoga.mp4</name>
                                <rate>
                                    <timebase>30</timebase>
                                    <ntsc>TRUE</ntsc>
                                </rate>
                                <start>17820</start>
                                <end>17916</end>
                            </clipitem>
                            <clipitem frameBlend="FALSE" id="clipitem-360">
                                <media>
                                    <video>
                                        <samplecharacteristics>
                                            <height>720</height>
                                            <width>1270</width>
                                        </samplecharacteristics>
                                    </video>
                                </media>
                                <file id="file-1">
                                    <pathurl>/home/davidk/code/python/JC-render/JC-examples/yoga.mp4</pathurl>
                                    <name>yoga.mp4</name>
                                    <rate>
                                        <timebase>30</timebase>
                                        <ntsc>TRUE</ntsc>
                                    </rate>
                                    <duration>54922</duration>
                                    <timecode>
                                        <rate>
                                            <timebase>30</timebase>
                                            <ntsc>TRUE</ntsc>
                                        </rate>
                                        <string>00:00:00:00</string>
                                        <frame>0</frame>
                                        <displayformat>NDF</displayformat>
                                        <media>
                                            <video/>
                                            <audio/>
                                        </media>
                                    </timecode>
                                </file>
                                <name>/home/davidk/code/python/JC-render/JC-examples/yoga.mp4</name>
                                <rate>
                                    <timebase>30</timebase>
                                    <ntsc>TRUE</ntsc>
                                </rate>
                                <start>17916</start>
                                <end>17935</end>
                            </clipitem>
                            <clipitem frameBlend="FALSE" id="clipitem-361">
                                <media>
                                    <video>
                                        <samplecharacteristics>
                                            <height>720</height>
                                            <width>1270</width>
                                        </samplecharacteristics>
                                    </video>
                                </media>
                                <file id="file-1">
                                    <pathurl>/home/davidk/code/python/JC-render/JC-examples/yoga.mp4</pathurl>
                                    <name>yoga.mp4</name>
                                    <rate>
                                        <timebase>30</timebase>
                                        <ntsc>TRUE</ntsc>
                                    </rate>
                                    <duration>54922</duration>
                                    <timecode>
                                        <rate>
                                            <timebase>30</timebase>
                                            <ntsc>TRUE</ntsc>
                                        </rate>
                                        <string>00:00:00:00</string>
                                        <frame>0</frame>
                                        <displayformat>NDF</displayformat>
                                        <media>
                                            <video/>
                                            <audio/>
                                        </media>
                                    </timecode>
                                </file>
                                <name>/home/davidk/code/python/JC-render/JC-examples/yoga.mp4</name>
                                <rate>
                                    <timebase>30</timebase>
                                    <ntsc>TRUE</ntsc>
                                </rate>
                                <start>17935</start>
                                <end>17996</end>
                            </clipitem>
                            <clipitem frameBlend="FALSE" id="clipitem-362">
                                <media>
                                    <video>
                                        <samplecharacteristics>
                                            <height>720</height>
                                            <width>1270</width>
                                        </samplecharacteristics>
                                    </video>
                                </media>
                                <file id="file-1">
                                    <pathurl>/home/davidk/code/python/JC-render/JC-examples/yoga.mp4</pathurl>
                                    <name>yoga.mp4</name>
                                    <rate>
                                        <timebase>30</timebase>
                                        <ntsc>TRUE</ntsc>
                                    </rate>
                                    <duration>54922</duration>
                                    <timecode>
                                        <rate>
                                            <timebase>30</timebase>
                                            <ntsc>TRUE</ntsc>
                                        </rate>
                                        <string>00:00:00:00</string>
                                        <frame>0</frame>
                                        <displayformat>NDF</displayformat>
                                        <media>
                                            <video/>
                                            <audio/>
                                        </media>
                                    </timecode>
                                </file>
                                <name>/home/davidk/code/python/JC-render/JC-examples/yoga.mp4</name>
                                <rate>
                                    <timebase>30</timebase>
                                    <ntsc>TRUE</ntsc>
                                </rate>
                                <start>17996</start>
                                <end>18060</end>
                            </clipitem>
                            <clipitem frameBlend="FALSE" id="clipitem-363">
                                <media>
                                    <video>
                                        <samplecharacteristics>
                                            <height>720</height>
                                            <width>1270</width>
                                        </samplecharacteristics>
                                    </video>
                                </media>
                                <file id="file-1">
                                    <pathurl>/home/davidk/code/python/JC-render/JC-examples/yoga.mp4</pathurl>
                                    <name>yoga.mp4</name>
                                    <rate>
                                        <timebase>30</timebase>
                                        <ntsc>TRUE</ntsc>
                                    </rate>
                                    <duration>54922</duration>
                                    <timecode>
                                        <rate>
                                            <timebase>30</timebase>
                                            <ntsc>TRUE</ntsc>
                                        </rate>
                                        <string>00:00:00:00</string>
                                        <frame>0</frame>
                                        <displayformat>NDF</displayformat>
                                        <media>
                                            <video/>
                                            <audio/>
                                        </media>
                                    </timecode>
                                </file>
                                <name>/home/davidk/code/python/JC-render/JC-examples/yoga.mp4</name>
                                <rate>
                                    <timebase>30</timebase>
                                    <ntsc>TRUE</ntsc>
                                </rate>
                                <start>18060</start>
                                <end>18076</end>
                            </clipitem>
                            <clipitem frameBlend="FALSE" id="clipitem-364">
                                <media>
                                    <video>
                                        <samplecharacteristics>
                                            <height>720</height>
                                            <width>1270</width>
                                        </samplecharacteristics>
                                    </video>
                                </media>
                                <file id="file-1">
                                    <pathurl>/home/davidk/code/python/JC-render/JC-examples/yoga.mp4</pathurl>
                                    <name>yoga.mp4</name>
                                    <rate>
                                        <timebase>30</timebase>
                                        <ntsc>TRUE</ntsc>
                                    </rate>
                                    <duration>54922</duration>
                                    <timecode>
                                        <rate>
                                            <timebase>30</timebase>
                                            <ntsc>TRUE</ntsc>
                                        </rate>
                                        <string>00:00:00:00</string>
                                        <frame>0</frame>
                                        <displayformat>NDF</displayformat>
                                        <media>
                                            <video/>
                                            <audio/>
                                        </media>
                                    </timecode>
                                </file>
                                <name>/home/davidk/code/python/JC-render/JC-examples/yoga.mp4</name>
                                <rate>
                                    <timebase>30</timebase>
                                    <ntsc>TRUE</ntsc>
                                </rate>
                                <start>18076</start>
                                <end>18140</end>
                            </clipitem>
                            <clipitem frameBlend="FALSE" id="clipitem-365">
                                <media>
                                    <video>
                                        <samplecharacteristics>
                                            <height>720</height>
                                            <width>1270</width>
                                        </samplecharacteristics>
                                    </video>
                                </media>
                                <file id="file-1">
                                    <pathurl>/home/davidk/code/python/JC-render/JC-examples/yoga.mp4</pathurl>
                                    <name>yoga.mp4</name>
                                    <rate>
                                        <timebase>30</timebase>
                                        <ntsc>TRUE</ntsc>
                                    </rate>
                                    <duration>54922</duration>
                                    <timecode>
                                        <rate>
                                            <timebase>30</timebase>
                                            <ntsc>TRUE</ntsc>
                                        </rate>
                                        <string>00:00:00:00</string>
                                        <frame>0</frame>
                                        <displayformat>NDF</displayformat>
                                        <media>
                                            <video/>
                                            <audio/>
                                        </media>
                                    </timecode>
                                </file>
                                <name>/home/davidk/code/python/JC-render/JC-examples/yoga.mp4</name>
                                <rate>
                                    <timebase>30</timebase>
                                    <ntsc>TRUE</ntsc>
                                </rate>
                                <start>18140</start>
                                <end>18166</end>
                            </clipitem>
                            <clipitem frameBlend="FALSE" id="clipitem-366">
                                <media>
                                    <video>
                                        <samplecharacteristics>
                                            <height>720</height>
                                            <width>1270</width>
                                        </samplecharacteristics>
                                    </video>
                                </media>
                                <file id="file-1">
                                    <pathurl>/home/davidk/code/python/JC-render/JC-examples/yoga.mp4</pathurl>
                                    <name>yoga.mp4</name>
                                    <rate>
                                        <timebase>30</timebase>
                                        <ntsc>TRUE</ntsc>
                                    </rate>
                                    <duration>54922</duration>
                                    <timecode>
                                        <rate>
                                            <timebase>30</timebase>
                                            <ntsc>TRUE</ntsc>
                                        </rate>
                                        <string>00:00:00:00</string>
                                        <frame>0</frame>
                                        <displayformat>NDF</displayformat>
                                        <media>
                                            <video/>
                                            <audio/>
                                        </media>
                                    </timecode>
                                </file>
                                <name>/home/davidk/code/python/JC-render/JC-examples/yoga.mp4</name>
                                <rate>
                                    <timebase>30</timebase>
                                    <ntsc>TRUE</ntsc>
                                </rate>
                                <start>18166</start>
                                <end>18175</end>
                            </clipitem>
                            <clipitem frameBlend="FALSE" id="clipitem-367">
                                <media>
                                    <video>
                                        <samplecharacteristics>
                                            <height>720</height>
                                            <width>1270</width>
                                        </samplecharacteristics>
                                    </video>
                                </media>
                                <file id="file-1">
                                    <pathurl>/home/davidk/code/python/JC-render/JC-examples/yoga.mp4</pathurl>
                                    <name>yoga.mp4</name>
                                    <rate>
                                        <timebase>30</timebase>
                                        <ntsc>TRUE</ntsc>
                                    </rate>
                                    <duration>54922</duration>
                                    <timecode>
                                        <rate>
                                            <timebase>30</timebase>
                                            <ntsc>TRUE</ntsc>
                                        </rate>
                                        <string>00:00:00:00</string>
                                        <frame>0</frame>
                                        <displayformat>NDF</displayformat>
                                        <media>
                                            <video/>
                                            <audio/>
                                        </media>
                                    </timecode>
                                </file>
                                <name>/home/davidk/code/python/JC-render/JC-examples/yoga.mp4</name>
                                <rate>
                                    <timebase>30</timebase>
                                    <ntsc>TRUE</ntsc>
                                </rate>
                                <start>18175</start>
                                <end>18267</end>
                            </clipitem>
                            <clipitem frameBlend="FALSE" id="clipitem-368">
                                <media>
                                    <video>
                                        <samplecharacteristics>
                                            <height>720</height>
                                            <width>1270</width>
                                        </samplecharacteristics>
                                    </video>
                                </media>
                                <file id="file-1">
                                    <pathurl>/home/davidk/code/python/JC-render/JC-examples/yoga.mp4</pathurl>
                                    <name>yoga.mp4</name>
                                    <rate>
                                        <timebase>30</timebase>
                                        <ntsc>TRUE</ntsc>
                                    </rate>
                                    <duration>54922</duration>
                                    <timecode>
                                        <rate>
                                            <timebase>30</timebase>
                                            <ntsc>TRUE</ntsc>
                                        </rate>
                                        <string>00:00:00:00</string>
                                        <frame>0</frame>
                                        <displayformat>NDF</displayformat>
                                        <media>
                                            <video/>
                                            <audio/>
                                        </media>
                                    </timecode>
                                </file>
                                <name>/home/davidk/code/python/JC-render/JC-examples/yoga.mp4</name>
                                <rate>
                                    <timebase>30</timebase>
                                    <ntsc>TRUE</ntsc>
                                </rate>
                                <start>18267</start>
                                <end>18301</end>
                            </clipitem>
                            <clipitem frameBlend="FALSE" id="clipitem-369">
                                <media>
                                    <video>
                                        <samplecharacteristics>
                                            <height>720</height>
                                            <width>1270</width>
                                        </samplecharacteristics>
                                    </video>
                                </media>
                                <file id="file-1">
                                    <pathurl>/home/davidk/code/python/JC-render/JC-examples/yoga.mp4</pathurl>
                                    <name>yoga.mp4</name>
                                    <rate>
                                        <timebase>30</timebase>
                                        <ntsc>TRUE</ntsc>
                                    </rate>
                                    <duration>54922</duration>
                                    <timecode>
                                        <rate>
                                            <timebase>30</timebase>
                                            <ntsc>TRUE</ntsc>
                                        </rate>
                                        <string>00:00:00:00</string>
                                        <frame>0</frame>
                                        <displayformat>NDF</displayformat>
                                        <media>
                                            <video/>
                                            <audio/>
                                        </media>
                                    </timecode>
                                </file>
                                <name>/home/davidk/code/python/JC-render/JC-examples/yoga.mp4</name>
                                <rate>
                                    <timebase>30</timebase>
                                    <ntsc>TRUE</ntsc>
                                </rate>
                                <start>18301</start>
                                <end>18316</end>
                            </clipitem>
                            <clipitem frameBlend="FALSE" id="clipitem-370">
                                <media>
                                    <video>
                                        <samplecharacteristics>
                                            <height>720</height>
                                            <width>1270</width>
                                        </samplecharacteristics>
                                    </video>
                                </media>
                                <file id="file-1">
                                    <pathurl>/home/davidk/code/python/JC-render/JC-examples/yoga.mp4</pathurl>
                                    <name>yoga.mp4</name>
                                    <rate>
                                        <timebase>30</timebase>
                                        <ntsc>TRUE</ntsc>
                                    </rate>
                                    <duration>54922</duration>
                                    <timecode>
                                        <rate>
                                            <timebase>30</timebase>
                                            <ntsc>TRUE</ntsc>
                                        </rate>
                                        <string>00:00:00:00</string>
                                        <frame>0</frame>
                                        <displayformat>NDF</displayformat>
                                        <media>
                                            <video/>
                                            <audio/>
                                        </media>
                                    </timecode>
                                </file>
                                <name>/home/davidk/code/python/JC-render/JC-examples/yoga.mp4</name>
                                <rate>
                                    <timebase>30</timebase>
                                    <ntsc>TRUE</ntsc>
                                </rate>
                                <start>18316</start>
                                <end>18325</end>
                            </clipitem>
                            <clipitem frameBlend="FALSE" id="clipitem-371">
                                <media>
                                    <video>
                                        <samplecharacteristics>
                                            <height>720</height>
                                            <width>1270</width>
                                        </samplecharacteristics>
                                    </video>
                                </media>
                                <file id="file-1">
                                    <pathurl>/home/davidk/code/python/JC-render/JC-examples/yoga.mp4</pathurl>
                                    <name>yoga.mp4</name>
                                    <rate>
                                        <timebase>30</timebase>
                                        <ntsc>TRUE</ntsc>
                                    </rate>
                                    <duration>54922</duration>
                                    <timecode>
                                        <rate>
                                            <timebase>30</timebase>
                                            <ntsc>TRUE</ntsc>
                                        </rate>
                                        <string>00:00:00:00</string>
                                        <frame>0</frame>
                                        <displayformat>NDF</displayformat>
                                        <media>
                                            <video/>
                                            <audio/>
                                        </media>
                                    </timecode>
                                </file>
                                <name>/home/davidk/code/python/JC-render/JC-examples/yoga.mp4</name>
                                <rate>
                                    <timebase>30</timebase>
                                    <ntsc>TRUE</ntsc>
                                </rate>
                                <start>18325</start>
                                <end>18515</end>
                            </clipitem>
                            <clipitem frameBlend="FALSE" id="clipitem-372">
                                <media>
                                    <video>
                                        <samplecharacteristics>
                                            <height>720</height>
                                            <width>1270</width>
                                        </samplecharacteristics>
                                    </video>
                                </media>
                                <file id="file-1">
                                    <pathurl>/home/davidk/code/python/JC-render/JC-examples/yoga.mp4</pathurl>
                                    <name>yoga.mp4</name>
                                    <rate>
                                        <timebase>30</timebase>
                                        <ntsc>TRUE</ntsc>
                                    </rate>
                                    <duration>54922</duration>
                                    <timecode>
                                        <rate>
                                            <timebase>30</timebase>
                                            <ntsc>TRUE</ntsc>
                                        </rate>
                                        <string>00:00:00:00</string>
                                        <frame>0</frame>
                                        <displayformat>NDF</displayformat>
                                        <media>
                                            <video/>
                                            <audio/>
                                        </media>
                                    </timecode>
                                </file>
                                <name>/home/davidk/code/python/JC-render/JC-examples/yoga.mp4</name>
                                <rate>
                                    <timebase>30</timebase>
                                    <ntsc>TRUE</ntsc>
                                </rate>
                                <start>18515</start>
                                <end>18593</end>
                            </clipitem>
                            <clipitem frameBlend="FALSE" id="clipitem-373">
                                <media>
                                    <video>
                                        <samplecharacteristics>
                                            <height>720</height>
                                            <width>1270</width>
                                        </samplecharacteristics>
                                    </video>
                                </media>
                                <file id="file-1">
                                    <pathurl>/home/davidk/code/python/JC-render/JC-examples/yoga.mp4</pathurl>
                                    <name>yoga.mp4</name>
                                    <rate>
                                        <timebase>30</timebase>
                                        <ntsc>TRUE</ntsc>
                                    </rate>
                                    <duration>54922</duration>
                                    <timecode>
                                        <rate>
                                            <timebase>30</timebase>
                                            <ntsc>TRUE</ntsc>
                                        </rate>
                                        <string>00:00:00:00</string>
                                        <frame>0</frame>
                                        <displayformat>NDF</displayformat>
                                        <media>
                                            <video/>
                                            <audio/>
                                        </media>
                                    </timecode>
                                </file>
                                <name>/home/davidk/code/python/JC-render/JC-examples/yoga.mp4</name>
                                <rate>
                                    <timebase>30</timebase>
                                    <ntsc>TRUE</ntsc>
                                </rate>
                                <start>18593</start>
                                <end>18706</end>
                            </clipitem>
                            <clipitem frameBlend="FALSE" id="clipitem-374">
                                <media>
                                    <video>
                                        <samplecharacteristics>
                                            <height>720</height>
                                            <width>1270</width>
                                        </samplecharacteristics>
                                    </video>
                                </media>
                                <file id="file-1">
                                    <pathurl>/home/davidk/code/python/JC-render/JC-examples/yoga.mp4</pathurl>
                                    <name>yoga.mp4</name>
                                    <rate>
                                        <timebase>30</timebase>
                                        <ntsc>TRUE</ntsc>
                                    </rate>
                                    <duration>54922</duration>
                                    <timecode>
                                        <rate>
                                            <timebase>30</timebase>
                                            <ntsc>TRUE</ntsc>
                                        </rate>
                                        <string>00:00:00:00</string>
                                        <frame>0</frame>
                                        <displayformat>NDF</displayformat>
                                        <media>
                                            <video/>
                                            <audio/>
                                        </media>
                                    </timecode>
                                </file>
                                <name>/home/davidk/code/python/JC-render/JC-examples/yoga.mp4</name>
                                <rate>
                                    <timebase>30</timebase>
                                    <ntsc>TRUE</ntsc>
                                </rate>
                                <start>18706</start>
                                <end>18708</end>
                            </clipitem>
                            <clipitem frameBlend="FALSE" id="clipitem-375">
                                <media>
                                    <video>
                                        <samplecharacteristics>
                                            <height>720</height>
                                            <width>1270</width>
                                        </samplecharacteristics>
                                    </video>
                                </media>
                                <file id="file-1">
                                    <pathurl>/home/davidk/code/python/JC-render/JC-examples/yoga.mp4</pathurl>
                                    <name>yoga.mp4</name>
                                    <rate>
                                        <timebase>30</timebase>
                                        <ntsc>TRUE</ntsc>
                                    </rate>
                                    <duration>54922</duration>
                                    <timecode>
                                        <rate>
                                            <timebase>30</timebase>
                                            <ntsc>TRUE</ntsc>
                                        </rate>
                                        <string>00:00:00:00</string>
                                        <frame>0</frame>
                                        <displayformat>NDF</displayformat>
                                        <media>
                                            <video/>
                                            <audio/>
                                        </media>
                                    </timecode>
                                </file>
                                <name>/home/davidk/code/python/JC-render/JC-examples/yoga.mp4</name>
                                <rate>
                                    <timebase>30</timebase>
                                    <ntsc>TRUE</ntsc>
                                </rate>
                                <start>18708</start>
                                <end>18751</end>
                            </clipitem>
                            <clipitem frameBlend="FALSE" id="clipitem-376">
                                <media>
                                    <video>
                                        <samplecharacteristics>
                                            <height>720</height>
                                            <width>1270</width>
                                        </samplecharacteristics>
                                    </video>
                                </media>
                                <file id="file-1">
                                    <pathurl>/home/davidk/code/python/JC-render/JC-examples/yoga.mp4</pathurl>
                                    <name>yoga.mp4</name>
                                    <rate>
                                        <timebase>30</timebase>
                                        <ntsc>TRUE</ntsc>
                                    </rate>
                                    <duration>54922</duration>
                                    <timecode>
                                        <rate>
                                            <timebase>30</timebase>
                                            <ntsc>TRUE</ntsc>
                                        </rate>
                                        <string>00:00:00:00</string>
                                        <frame>0</frame>
                                        <displayformat>NDF</displayformat>
                                        <media>
                                            <video/>
                                            <audio/>
                                        </media>
                                    </timecode>
                                </file>
                                <name>/home/davidk/code/python/JC-render/JC-examples/yoga.mp4</name>
                                <rate>
                                    <timebase>30</timebase>
                                    <ntsc>TRUE</ntsc>
                                </rate>
                                <start>18751</start>
                                <end>18757</end>
                            </clipitem>
                            <clipitem frameBlend="FALSE" id="clipitem-377">
                                <media>
                                    <video>
                                        <samplecharacteristics>
                                            <height>720</height>
                                            <width>1270</width>
                                        </samplecharacteristics>
                                    </video>
                                </media>
                                <file id="file-1">
                                    <pathurl>/home/davidk/code/python/JC-render/JC-examples/yoga.mp4</pathurl>
                                    <name>yoga.mp4</name>
                                    <rate>
                                        <timebase>30</timebase>
                                        <ntsc>TRUE</ntsc>
                                    </rate>
                                    <duration>54922</duration>
                                    <timecode>
                                        <rate>
                                            <timebase>30</timebase>
                                            <ntsc>TRUE</ntsc>
                                        </rate>
                                        <string>00:00:00:00</string>
                                        <frame>0</frame>
                                        <displayformat>NDF</displayformat>
                                        <media>
                                            <video/>
                                            <audio/>
                                        </media>
                                    </timecode>
                                </file>
                                <name>/home/davidk/code/python/JC-render/JC-examples/yoga.mp4</name>
                                <rate>
                                    <timebase>30</timebase>
                                    <ntsc>TRUE</ntsc>
                                </rate>
                                <start>18757</start>
                                <end>18772</end>
                            </clipitem>
                            <clipitem frameBlend="FALSE" id="clipitem-378">
                                <media>
                                    <video>
                                        <samplecharacteristics>
                                            <height>720</height>
                                            <width>1270</width>
                                        </samplecharacteristics>
                                    </video>
                                </media>
                                <file id="file-1">
                                    <pathurl>/home/davidk/code/python/JC-render/JC-examples/yoga.mp4</pathurl>
                                    <name>yoga.mp4</name>
                                    <rate>
                                        <timebase>30</timebase>
                                        <ntsc>TRUE</ntsc>
                                    </rate>
                                    <duration>54922</duration>
                                    <timecode>
                                        <rate>
                                            <timebase>30</timebase>
                                            <ntsc>TRUE</ntsc>
                                        </rate>
                                        <string>00:00:00:00</string>
                                        <frame>0</frame>
                                        <displayformat>NDF</displayformat>
                                        <media>
                                            <video/>
                                            <audio/>
                                        </media>
                                    </timecode>
                                </file>
                                <name>/home/davidk/code/python/JC-render/JC-examples/yoga.mp4</name>
                                <rate>
                                    <timebase>30</timebase>
                                    <ntsc>TRUE</ntsc>
                                </rate>
                                <start>18772</start>
                                <end>18823</end>
                            </clipitem>
                            <clipitem frameBlend="FALSE" id="clipitem-379">
                                <media>
                                    <video>
                                        <samplecharacteristics>
                                            <height>720</height>
                                            <width>1270</width>
                                        </samplecharacteristics>
                                    </video>
                                </media>
                                <file id="file-1">
                                    <pathurl>/home/davidk/code/python/JC-render/JC-examples/yoga.mp4</pathurl>
                                    <name>yoga.mp4</name>
                                    <rate>
                                        <timebase>30</timebase>
                                        <ntsc>TRUE</ntsc>
                                    </rate>
                                    <duration>54922</duration>
                                    <timecode>
                                        <rate>
                                            <timebase>30</timebase>
                                            <ntsc>TRUE</ntsc>
                                        </rate>
                                        <string>00:00:00:00</string>
                                        <frame>0</frame>
                                        <displayformat>NDF</displayformat>
                                        <media>
                                            <video/>
                                            <audio/>
                                        </media>
                                    </timecode>
                                </file>
                                <name>/home/davidk/code/python/JC-render/JC-examples/yoga.mp4</name>
                                <rate>
                                    <timebase>30</timebase>
                                    <ntsc>TRUE</ntsc>
                                </rate>
                                <start>18823</start>
                                <end>18880</end>
                            </clipitem>
                            <clipitem frameBlend="FALSE" id="clipitem-380">
                                <media>
                                    <video>
                                        <samplecharacteristics>
                                            <height>720</height>
                                            <width>1270</width>
                                        </samplecharacteristics>
                                    </video>
                                </media>
                                <file id="file-1">
                                    <pathurl>/home/davidk/code/python/JC-render/JC-examples/yoga.mp4</pathurl>
                                    <name>yoga.mp4</name>
                                    <rate>
                                        <timebase>30</timebase>
                                        <ntsc>TRUE</ntsc>
                                    </rate>
                                    <duration>54922</duration>
                                    <timecode>
                                        <rate>
                                            <timebase>30</timebase>
                                            <ntsc>TRUE</ntsc>
                                        </rate>
                                        <string>00:00:00:00</string>
                                        <frame>0</frame>
                                        <displayformat>NDF</displayformat>
                                        <media>
                                            <video/>
                                            <audio/>
                                        </media>
                                    </timecode>
                                </file>
                                <name>/home/davidk/code/python/JC-render/JC-examples/yoga.mp4</name>
                                <rate>
                                    <timebase>30</timebase>
                                    <ntsc>TRUE</ntsc>
                                </rate>
                                <start>18880</start>
                                <end>18917</end>
                            </clipitem>
                            <clipitem frameBlend="FALSE" id="clipitem-381">
                                <media>
                                    <video>
                                        <samplecharacteristics>
                                            <height>720</height>
                                            <width>1270</width>
                                        </samplecharacteristics>
                                    </video>
                                </media>
                                <file id="file-1">
                                    <pathurl>/home/davidk/code/python/JC-render/JC-examples/yoga.mp4</pathurl>
                                    <name>yoga.mp4</name>
                                    <rate>
                                        <timebase>30</timebase>
                                        <ntsc>TRUE</ntsc>
                                    </rate>
                                    <duration>54922</duration>
                                    <timecode>
                                        <rate>
                                            <timebase>30</timebase>
                                            <ntsc>TRUE</ntsc>
                                        </rate>
                                        <string>00:00:00:00</string>
                                        <frame>0</frame>
                                        <displayformat>NDF</displayformat>
                                        <media>
                                            <video/>
                                            <audio/>
                                        </media>
                                    </timecode>
                                </file>
                                <name>/home/davidk/code/python/JC-render/JC-examples/yoga.mp4</name>
                                <rate>
                                    <timebase>30</timebase>
                                    <ntsc>TRUE</ntsc>
                                </rate>
                                <start>18917</start>
                                <end>18988</end>
                            </clipitem>
                            <clipitem frameBlend="FALSE" id="clipitem-382">
                                <media>
                                    <video>
                                        <samplecharacteristics>
                                            <height>720</height>
                                            <width>1270</width>
                                        </samplecharacteristics>
                                    </video>
                                </media>
                                <file id="file-1">
                                    <pathurl>/home/davidk/code/python/JC-render/JC-examples/yoga.mp4</pathurl>
                                    <name>yoga.mp4</name>
                                    <rate>
                                        <timebase>30</timebase>
                                        <ntsc>TRUE</ntsc>
                                    </rate>
                                    <duration>54922</duration>
                                    <timecode>
                                        <rate>
                                            <timebase>30</timebase>
                                            <ntsc>TRUE</ntsc>
                                        </rate>
                                        <string>00:00:00:00</string>
                                        <frame>0</frame>
                                        <displayformat>NDF</displayformat>
                                        <media>
                                            <video/>
                                            <audio/>
                                        </media>
                                    </timecode>
                                </file>
                                <name>/home/davidk/code/python/JC-render/JC-examples/yoga.mp4</name>
                                <rate>
                                    <timebase>30</timebase>
                                    <ntsc>TRUE</ntsc>
                                </rate>
                                <start>18988</start>
                                <end>19001</end>
                            </clipitem>
                            <clipitem frameBlend="FALSE" id="clipitem-383">
                                <media>
                                    <video>
                                        <samplecharacteristics>
                                            <height>720</height>
                                            <width>1270</width>
                                        </samplecharacteristics>
                                    </video>
                                </media>
                                <file id="file-1">
                                    <pathurl>/home/davidk/code/python/JC-render/JC-examples/yoga.mp4</pathurl>
                                    <name>yoga.mp4</name>
                                    <rate>
                                        <timebase>30</timebase>
                                        <ntsc>TRUE</ntsc>
                                    </rate>
                                    <duration>54922</duration>
                                    <timecode>
                                        <rate>
                                            <timebase>30</timebase>
                                            <ntsc>TRUE</ntsc>
                                        </rate>
                                        <string>00:00:00:00</string>
                                        <frame>0</frame>
                                        <displayformat>NDF</displayformat>
                                        <media>
                                            <video/>
                                            <audio/>
                                        </media>
                                    </timecode>
                                </file>
                                <name>/home/davidk/code/python/JC-render/JC-examples/yoga.mp4</name>
                                <rate>
                                    <timebase>30</timebase>
                                    <ntsc>TRUE</ntsc>
                                </rate>
                                <start>19001</start>
                                <end>19016</end>
                            </clipitem>
                            <clipitem frameBlend="FALSE" id="clipitem-384">
                                <media>
                                    <video>
                                        <samplecharacteristics>
                                            <height>720</height>
                                            <width>1270</width>
                                        </samplecharacteristics>
                                    </video>
                                </media>
                                <file id="file-1">
                                    <pathurl>/home/davidk/code/python/JC-render/JC-examples/yoga.mp4</pathurl>
                                    <name>yoga.mp4</name>
                                    <rate>
                                        <timebase>30</timebase>
                                        <ntsc>TRUE</ntsc>
                                    </rate>
                                    <duration>54922</duration>
                                    <timecode>
                                        <rate>
                                            <timebase>30</timebase>
                                            <ntsc>TRUE</ntsc>
                                        </rate>
                                        <string>00:00:00:00</string>
                                        <frame>0</frame>
                                        <displayformat>NDF</displayformat>
                                        <media>
                                            <video/>
                                            <audio/>
                                        </media>
                                    </timecode>
                                </file>
                                <name>/home/davidk/code/python/JC-render/JC-examples/yoga.mp4</name>
                                <rate>
                                    <timebase>30</timebase>
                                    <ntsc>TRUE</ntsc>
                                </rate>
                                <start>19016</start>
                                <end>19060</end>
                            </clipitem>
                            <clipitem frameBlend="FALSE" id="clipitem-385">
                                <media>
                                    <video>
                                        <samplecharacteristics>
                                            <height>720</height>
                                            <width>1270</width>
                                        </samplecharacteristics>
                                    </video>
                                </media>
                                <file id="file-1">
                                    <pathurl>/home/davidk/code/python/JC-render/JC-examples/yoga.mp4</pathurl>
                                    <name>yoga.mp4</name>
                                    <rate>
                                        <timebase>30</timebase>
                                        <ntsc>TRUE</ntsc>
                                    </rate>
                                    <duration>54922</duration>
                                    <timecode>
                                        <rate>
                                            <timebase>30</timebase>
                                            <ntsc>TRUE</ntsc>
                                        </rate>
                                        <string>00:00:00:00</string>
                                        <frame>0</frame>
                                        <displayformat>NDF</displayformat>
                                        <media>
                                            <video/>
                                            <audio/>
                                        </media>
                                    </timecode>
                                </file>
                                <name>/home/davidk/code/python/JC-render/JC-examples/yoga.mp4</name>
                                <rate>
                                    <timebase>30</timebase>
                                    <ntsc>TRUE</ntsc>
                                </rate>
                                <start>19060</start>
                                <end>19075</end>
                            </clipitem>
                            <clipitem frameBlend="FALSE" id="clipitem-386">
                                <media>
                                    <video>
                                        <samplecharacteristics>
                                            <height>720</height>
                                            <width>1270</width>
                                        </samplecharacteristics>
                                    </video>
                                </media>
                                <file id="file-1">
                                    <pathurl>/home/davidk/code/python/JC-render/JC-examples/yoga.mp4</pathurl>
                                    <name>yoga.mp4</name>
                                    <rate>
                                        <timebase>30</timebase>
                                        <ntsc>TRUE</ntsc>
                                    </rate>
                                    <duration>54922</duration>
                                    <timecode>
                                        <rate>
                                            <timebase>30</timebase>
                                            <ntsc>TRUE</ntsc>
                                        </rate>
                                        <string>00:00:00:00</string>
                                        <frame>0</frame>
                                        <displayformat>NDF</displayformat>
                                        <media>
                                            <video/>
                                            <audio/>
                                        </media>
                                    </timecode>
                                </file>
                                <name>/home/davidk/code/python/JC-render/JC-examples/yoga.mp4</name>
                                <rate>
                                    <timebase>30</timebase>
                                    <ntsc>TRUE</ntsc>
                                </rate>
                                <start>19075</start>
                                <end>19081</end>
                            </clipitem>
                            <clipitem frameBlend="FALSE" id="clipitem-387">
                                <media>
                                    <video>
                                        <samplecharacteristics>
                                            <height>720</height>
                                            <width>1270</width>
                                        </samplecharacteristics>
                                    </video>
                                </media>
                                <file id="file-1">
                                    <pathurl>/home/davidk/code/python/JC-render/JC-examples/yoga.mp4</pathurl>
                                    <name>yoga.mp4</name>
                                    <rate>
                                        <timebase>30</timebase>
                                        <ntsc>TRUE</ntsc>
                                    </rate>
                                    <duration>54922</duration>
                                    <timecode>
                                        <rate>
                                            <timebase>30</timebase>
                                            <ntsc>TRUE</ntsc>
                                        </rate>
                                        <string>00:00:00:00</string>
                                        <frame>0</frame>
                                        <displayformat>NDF</displayformat>
                                        <media>
                                            <video/>
                                            <audio/>
                                        </media>
                                    </timecode>
                                </file>
                                <name>/home/davidk/code/python/JC-render/JC-examples/yoga.mp4</name>
                                <rate>
                                    <timebase>30</timebase>
                                    <ntsc>TRUE</ntsc>
                                </rate>
                                <start>19081</start>
                                <end>19096</end>
                            </clipitem>
                            <clipitem frameBlend="FALSE" id="clipitem-388">
                                <media>
                                    <video>
                                        <samplecharacteristics>
                                            <height>720</height>
                                            <width>1270</width>
                                        </samplecharacteristics>
                                    </video>
                                </media>
                                <file id="file-1">
                                    <pathurl>/home/davidk/code/python/JC-render/JC-examples/yoga.mp4</pathurl>
                                    <name>yoga.mp4</name>
                                    <rate>
                                        <timebase>30</timebase>
                                        <ntsc>TRUE</ntsc>
                                    </rate>
                                    <duration>54922</duration>
                                    <timecode>
                                        <rate>
                                            <timebase>30</timebase>
                                            <ntsc>TRUE</ntsc>
                                        </rate>
                                        <string>00:00:00:00</string>
                                        <frame>0</frame>
                                        <displayformat>NDF</displayformat>
                                        <media>
                                            <video/>
                                            <audio/>
                                        </media>
                                    </timecode>
                                </file>
                                <name>/home/davidk/code/python/JC-render/JC-examples/yoga.mp4</name>
                                <rate>
                                    <timebase>30</timebase>
                                    <ntsc>TRUE</ntsc>
                                </rate>
                                <start>19096</start>
                                <end>19137</end>
                            </clipitem>
                            <clipitem frameBlend="FALSE" id="clipitem-389">
                                <media>
                                    <video>
                                        <samplecharacteristics>
                                            <height>720</height>
                                            <width>1270</width>
                                        </samplecharacteristics>
                                    </video>
                                </media>
                                <file id="file-1">
                                    <pathurl>/home/davidk/code/python/JC-render/JC-examples/yoga.mp4</pathurl>
                                    <name>yoga.mp4</name>
                                    <rate>
                                        <timebase>30</timebase>
                                        <ntsc>TRUE</ntsc>
                                    </rate>
                                    <duration>54922</duration>
                                    <timecode>
                                        <rate>
                                            <timebase>30</timebase>
                                            <ntsc>TRUE</ntsc>
                                        </rate>
                                        <string>00:00:00:00</string>
                                        <frame>0</frame>
                                        <displayformat>NDF</displayformat>
                                        <media>
                                            <video/>
                                            <audio/>
                                        </media>
                                    </timecode>
                                </file>
                                <name>/home/davidk/code/python/JC-render/JC-examples/yoga.mp4</name>
                                <rate>
                                    <timebase>30</timebase>
                                    <ntsc>TRUE</ntsc>
                                </rate>
                                <start>19137</start>
                                <end>19166</end>
                            </clipitem>
                            <clipitem frameBlend="FALSE" id="clipitem-390">
                                <media>
                                    <video>
                                        <samplecharacteristics>
                                            <height>720</height>
                                            <width>1270</width>
                                        </samplecharacteristics>
                                    </video>
                                </media>
                                <file id="file-1">
                                    <pathurl>/home/davidk/code/python/JC-render/JC-examples/yoga.mp4</pathurl>
                                    <name>yoga.mp4</name>
                                    <rate>
                                        <timebase>30</timebase>
                                        <ntsc>TRUE</ntsc>
                                    </rate>
                                    <duration>54922</duration>
                                    <timecode>
                                        <rate>
                                            <timebase>30</timebase>
                                            <ntsc>TRUE</ntsc>
                                        </rate>
                                        <string>00:00:00:00</string>
                                        <frame>0</frame>
                                        <displayformat>NDF</displayformat>
                                        <media>
                                            <video/>
                                            <audio/>
                                        </media>
                                    </timecode>
                                </file>
                                <name>/home/davidk/code/python/JC-render/JC-examples/yoga.mp4</name>
                                <rate>
                                    <timebase>30</timebase>
                                    <ntsc>TRUE</ntsc>
                                </rate>
                                <start>19166</start>
                                <end>19168</end>
                            </clipitem>
                            <clipitem frameBlend="FALSE" id="clipitem-391">
                                <media>
                                    <video>
                                        <samplecharacteristics>
                                            <height>720</height>
                                            <width>1270</width>
                                        </samplecharacteristics>
                                    </video>
                                </media>
                                <file id="file-1">
                                    <pathurl>/home/davidk/code/python/JC-render/JC-examples/yoga.mp4</pathurl>
                                    <name>yoga.mp4</name>
                                    <rate>
                                        <timebase>30</timebase>
                                        <ntsc>TRUE</ntsc>
                                    </rate>
                                    <duration>54922</duration>
                                    <timecode>
                                        <rate>
                                            <timebase>30</timebase>
                                            <ntsc>TRUE</ntsc>
                                        </rate>
                                        <string>00:00:00:00</string>
                                        <frame>0</frame>
                                        <displayformat>NDF</displayformat>
                                        <media>
                                            <video/>
                                            <audio/>
                                        </media>
                                    </timecode>
                                </file>
                                <name>/home/davidk/code/python/JC-render/JC-examples/yoga.mp4</name>
                                <rate>
                                    <timebase>30</timebase>
                                    <ntsc>TRUE</ntsc>
                                </rate>
                                <start>19168</start>
                                <end>19236</end>
                            </clipitem>
                            <clipitem frameBlend="FALSE" id="clipitem-392">
                                <media>
                                    <video>
                                        <samplecharacteristics>
                                            <height>720</height>
                                            <width>1270</width>
                                        </samplecharacteristics>
                                    </video>
                                </media>
                                <file id="file-1">
                                    <pathurl>/home/davidk/code/python/JC-render/JC-examples/yoga.mp4</pathurl>
                                    <name>yoga.mp4</name>
                                    <rate>
                                        <timebase>30</timebase>
                                        <ntsc>TRUE</ntsc>
                                    </rate>
                                    <duration>54922</duration>
                                    <timecode>
                                        <rate>
                                            <timebase>30</timebase>
                                            <ntsc>TRUE</ntsc>
                                        </rate>
                                        <string>00:00:00:00</string>
                                        <frame>0</frame>
                                        <displayformat>NDF</displayformat>
                                        <media>
                                            <video/>
                                            <audio/>
                                        </media>
                                    </timecode>
                                </file>
                                <name>/home/davidk/code/python/JC-render/JC-examples/yoga.mp4</name>
                                <rate>
                                    <timebase>30</timebase>
                                    <ntsc>TRUE</ntsc>
                                </rate>
                                <start>19236</start>
                                <end>19241</end>
                            </clipitem>
                            <clipitem frameBlend="FALSE" id="clipitem-393">
                                <media>
                                    <video>
                                        <samplecharacteristics>
                                            <height>720</height>
                                            <width>1270</width>
                                        </samplecharacteristics>
                                    </video>
                                </media>
                                <file id="file-1">
                                    <pathurl>/home/davidk/code/python/JC-render/JC-examples/yoga.mp4</pathurl>
                                    <name>yoga.mp4</name>
                                    <rate>
                                        <timebase>30</timebase>
                                        <ntsc>TRUE</ntsc>
                                    </rate>
                                    <duration>54922</duration>
                                    <timecode>
                                        <rate>
                                            <timebase>30</timebase>
                                            <ntsc>TRUE</ntsc>
                                        </rate>
                                        <string>00:00:00:00</string>
                                        <frame>0</frame>
                                        <displayformat>NDF</displayformat>
                                        <media>
                                            <video/>
                                            <audio/>
                                        </media>
                                    </timecode>
                                </file>
                                <name>/home/davidk/code/python/JC-render/JC-examples/yoga.mp4</name>
                                <rate>
                                    <timebase>30</timebase>
                                    <ntsc>TRUE</ntsc>
                                </rate>
                                <start>19241</start>
                                <end>19257</end>
                            </clipitem>
                            <clipitem frameBlend="FALSE" id="clipitem-394">
                                <media>
                                    <video>
                                        <samplecharacteristics>
                                            <height>720</height>
                                            <width>1270</width>
                                        </samplecharacteristics>
                                    </video>
                                </media>
                                <file id="file-1">
                                    <pathurl>/home/davidk/code/python/JC-render/JC-examples/yoga.mp4</pathurl>
                                    <name>yoga.mp4</name>
                                    <rate>
                                        <timebase>30</timebase>
                                        <ntsc>TRUE</ntsc>
                                    </rate>
                                    <duration>54922</duration>
                                    <timecode>
                                        <rate>
                                            <timebase>30</timebase>
                                            <ntsc>TRUE</ntsc>
                                        </rate>
                                        <string>00:00:00:00</string>
                                        <frame>0</frame>
                                        <displayformat>NDF</displayformat>
                                        <media>
                                            <video/>
                                            <audio/>
                                        </media>
                                    </timecode>
                                </file>
                                <name>/home/davidk/code/python/JC-render/JC-examples/yoga.mp4</name>
                                <rate>
                                    <timebase>30</timebase>
                                    <ntsc>TRUE</ntsc>
                                </rate>
                                <start>19257</start>
                                <end>19304</end>
                            </clipitem>
                            <clipitem frameBlend="FALSE" id="clipitem-395">
                                <media>
                                    <video>
                                        <samplecharacteristics>
                                            <height>720</height>
                                            <width>1270</width>
                                        </samplecharacteristics>
                                    </video>
                                </media>
                                <file id="file-1">
                                    <pathurl>/home/davidk/code/python/JC-render/JC-examples/yoga.mp4</pathurl>
                                    <name>yoga.mp4</name>
                                    <rate>
                                        <timebase>30</timebase>
                                        <ntsc>TRUE</ntsc>
                                    </rate>
                                    <duration>54922</duration>
                                    <timecode>
                                        <rate>
                                            <timebase>30</timebase>
                                            <ntsc>TRUE</ntsc>
                                        </rate>
                                        <string>00:00:00:00</string>
                                        <frame>0</frame>
                                        <displayformat>NDF</displayformat>
                                        <media>
                                            <video/>
                                            <audio/>
                                        </media>
                                    </timecode>
                                </file>
                                <name>/home/davidk/code/python/JC-render/JC-examples/yoga.mp4</name>
                                <rate>
                                    <timebase>30</timebase>
                                    <ntsc>TRUE</ntsc>
                                </rate>
                                <start>19304</start>
                                <end>19368</end>
                            </clipitem>
                            <clipitem frameBlend="FALSE" id="clipitem-396">
                                <media>
                                    <video>
                                        <samplecharacteristics>
                                            <height>720</height>
                                            <width>1270</width>
                                        </samplecharacteristics>
                                    </video>
                                </media>
                                <file id="file-1">
                                    <pathurl>/home/davidk/code/python/JC-render/JC-examples/yoga.mp4</pathurl>
                                    <name>yoga.mp4</name>
                                    <rate>
                                        <timebase>30</timebase>
                                        <ntsc>TRUE</ntsc>
                                    </rate>
                                    <duration>54922</duration>
                                    <timecode>
                                        <rate>
                                            <timebase>30</timebase>
                                            <ntsc>TRUE</ntsc>
                                        </rate>
                                        <string>00:00:00:00</string>
                                        <frame>0</frame>
                                        <displayformat>NDF</displayformat>
                                        <media>
                                            <video/>
                                            <audio/>
                                        </media>
                                    </timecode>
                                </file>
                                <name>/home/davidk/code/python/JC-render/JC-examples/yoga.mp4</name>
                                <rate>
                                    <timebase>30</timebase>
                                    <ntsc>TRUE</ntsc>
                                </rate>
                                <start>19368</start>
                                <end>19384</end>
                            </clipitem>
                            <clipitem frameBlend="FALSE" id="clipitem-397">
                                <media>
                                    <video>
                                        <samplecharacteristics>
                                            <height>720</height>
                                            <width>1270</width>
                                        </samplecharacteristics>
                                    </video>
                                </media>
                                <file id="file-1">
                                    <pathurl>/home/davidk/code/python/JC-render/JC-examples/yoga.mp4</pathurl>
                                    <name>yoga.mp4</name>
                                    <rate>
                                        <timebase>30</timebase>
                                        <ntsc>TRUE</ntsc>
                                    </rate>
                                    <duration>54922</duration>
                                    <timecode>
                                        <rate>
                                            <timebase>30</timebase>
                                            <ntsc>TRUE</ntsc>
                                        </rate>
                                        <string>00:00:00:00</string>
                                        <frame>0</frame>
                                        <displayformat>NDF</displayformat>
                                        <media>
                                            <video/>
                                            <audio/>
                                        </media>
                                    </timecode>
                                </file>
                                <name>/home/davidk/code/python/JC-render/JC-examples/yoga.mp4</name>
                                <rate>
                                    <timebase>30</timebase>
                                    <ntsc>TRUE</ntsc>
                                </rate>
                                <start>19384</start>
                                <end>19399</end>
                            </clipitem>
                            <clipitem frameBlend="FALSE" id="clipitem-398">
                                <media>
                                    <video>
                                        <samplecharacteristics>
                                            <height>720</height>
                                            <width>1270</width>
                                        </samplecharacteristics>
                                    </video>
                                </media>
                                <file id="file-1">
                                    <pathurl>/home/davidk/code/python/JC-render/JC-examples/yoga.mp4</pathurl>
                                    <name>yoga.mp4</name>
                                    <rate>
                                        <timebase>30</timebase>
                                        <ntsc>TRUE</ntsc>
                                    </rate>
                                    <duration>54922</duration>
                                    <timecode>
                                        <rate>
                                            <timebase>30</timebase>
                                            <ntsc>TRUE</ntsc>
                                        </rate>
                                        <string>00:00:00:00</string>
                                        <frame>0</frame>
                                        <displayformat>NDF</displayformat>
                                        <media>
                                            <video/>
                                            <audio/>
                                        </media>
                                    </timecode>
                                </file>
                                <name>/home/davidk/code/python/JC-render/JC-examples/yoga.mp4</name>
                                <rate>
                                    <timebase>30</timebase>
                                    <ntsc>TRUE</ntsc>
                                </rate>
                                <start>19399</start>
                                <end>19405</end>
                            </clipitem>
                            <clipitem frameBlend="FALSE" id="clipitem-399">
                                <media>
                                    <video>
                                        <samplecharacteristics>
                                            <height>720</height>
                                            <width>1270</width>
                                        </samplecharacteristics>
                                    </video>
                                </media>
                                <file id="file-1">
                                    <pathurl>/home/davidk/code/python/JC-render/JC-examples/yoga.mp4</pathurl>
                                    <name>yoga.mp4</name>
                                    <rate>
                                        <timebase>30</timebase>
                                        <ntsc>TRUE</ntsc>
                                    </rate>
                                    <duration>54922</duration>
                                    <timecode>
                                        <rate>
                                            <timebase>30</timebase>
                                            <ntsc>TRUE</ntsc>
                                        </rate>
                                        <string>00:00:00:00</string>
                                        <frame>0</frame>
                                        <displayformat>NDF</displayformat>
                                        <media>
                                            <video/>
                                            <audio/>
                                        </media>
                                    </timecode>
                                </file>
                                <name>/home/davidk/code/python/JC-render/JC-examples/yoga.mp4</name>
                                <rate>
                                    <timebase>30</timebase>
                                    <ntsc>TRUE</ntsc>
                                </rate>
                                <start>19405</start>
                                <end>19420</end>
                            </clipitem>
                            <clipitem frameBlend="FALSE" id="clipitem-400">
                                <media>
                                    <video>
                                        <samplecharacteristics>
                                            <height>720</height>
                                            <width>1270</width>
                                        </samplecharacteristics>
                                    </video>
                                </media>
                                <file id="file-1">
                                    <pathurl>/home/davidk/code/python/JC-render/JC-examples/yoga.mp4</pathurl>
                                    <name>yoga.mp4</name>
                                    <rate>
                                        <timebase>30</timebase>
                                        <ntsc>TRUE</ntsc>
                                    </rate>
                                    <duration>54922</duration>
                                    <timecode>
                                        <rate>
                                            <timebase>30</timebase>
                                            <ntsc>TRUE</ntsc>
                                        </rate>
                                        <string>00:00:00:00</string>
                                        <frame>0</frame>
                                        <displayformat>NDF</displayformat>
                                        <media>
                                            <video/>
                                            <audio/>
                                        </media>
                                    </timecode>
                                </file>
                                <name>/home/davidk/code/python/JC-render/JC-examples/yoga.mp4</name>
                                <rate>
                                    <timebase>30</timebase>
                                    <ntsc>TRUE</ntsc>
                                </rate>
                                <start>19420</start>
                                <end>19422</end>
                            </clipitem>
                            <clipitem frameBlend="FALSE" id="clipitem-401">
                                <media>
                                    <video>
                                        <samplecharacteristics>
                                            <height>720</height>
                                            <width>1270</width>
                                        </samplecharacteristics>
                                    </video>
                                </media>
                                <file id="file-1">
                                    <pathurl>/home/davidk/code/python/JC-render/JC-examples/yoga.mp4</pathurl>
                                    <name>yoga.mp4</name>
                                    <rate>
                                        <timebase>30</timebase>
                                        <ntsc>TRUE</ntsc>
                                    </rate>
                                    <duration>54922</duration>
                                    <timecode>
                                        <rate>
                                            <timebase>30</timebase>
                                            <ntsc>TRUE</ntsc>
                                        </rate>
                                        <string>00:00:00:00</string>
                                        <frame>0</frame>
                                        <displayformat>NDF</displayformat>
                                        <media>
                                            <video/>
                                            <audio/>
                                        </media>
                                    </timecode>
                                </file>
                                <name>/home/davidk/code/python/JC-render/JC-examples/yoga.mp4</name>
                                <rate>
                                    <timebase>30</timebase>
                                    <ntsc>TRUE</ntsc>
                                </rate>
                                <start>19422</start>
                                <end>19490</end>
                            </clipitem>
                            <clipitem frameBlend="FALSE" id="clipitem-402">
                                <media>
                                    <video>
                                        <samplecharacteristics>
                                            <height>720</height>
                                            <width>1270</width>
                                        </samplecharacteristics>
                                    </video>
                                </media>
                                <file id="file-1">
                                    <pathurl>/home/davidk/code/python/JC-render/JC-examples/yoga.mp4</pathurl>
                                    <name>yoga.mp4</name>
                                    <rate>
                                        <timebase>30</timebase>
                                        <ntsc>TRUE</ntsc>
                                    </rate>
                                    <duration>54922</duration>
                                    <timecode>
                                        <rate>
                                            <timebase>30</timebase>
                                            <ntsc>TRUE</ntsc>
                                        </rate>
                                        <string>00:00:00:00</string>
                                        <frame>0</frame>
                                        <displayformat>NDF</displayformat>
                                        <media>
                                            <video/>
                                            <audio/>
                                        </media>
                                    </timecode>
                                </file>
                                <name>/home/davidk/code/python/JC-render/JC-examples/yoga.mp4</name>
                                <rate>
                                    <timebase>30</timebase>
                                    <ntsc>TRUE</ntsc>
                                </rate>
                                <start>19490</start>
                                <end>19554</end>
                            </clipitem>
                            <clipitem frameBlend="FALSE" id="clipitem-403">
                                <media>
                                    <video>
                                        <samplecharacteristics>
                                            <height>720</height>
                                            <width>1270</width>
                                        </samplecharacteristics>
                                    </video>
                                </media>
                                <file id="file-1">
                                    <pathurl>/home/davidk/code/python/JC-render/JC-examples/yoga.mp4</pathurl>
                                    <name>yoga.mp4</name>
                                    <rate>
                                        <timebase>30</timebase>
                                        <ntsc>TRUE</ntsc>
                                    </rate>
                                    <duration>54922</duration>
                                    <timecode>
                                        <rate>
                                            <timebase>30</timebase>
                                            <ntsc>TRUE</ntsc>
                                        </rate>
                                        <string>00:00:00:00</string>
                                        <frame>0</frame>
                                        <displayformat>NDF</displayformat>
                                        <media>
                                            <video/>
                                            <audio/>
                                        </media>
                                    </timecode>
                                </file>
                                <name>/home/davidk/code/python/JC-render/JC-examples/yoga.mp4</name>
                                <rate>
                                    <timebase>30</timebase>
                                    <ntsc>TRUE</ntsc>
                                </rate>
                                <start>19554</start>
                                <end>19605</end>
                            </clipitem>
                            <clipitem frameBlend="FALSE" id="clipitem-404">
                                <media>
                                    <video>
                                        <samplecharacteristics>
                                            <height>720</height>
                                            <width>1270</width>
                                        </samplecharacteristics>
                                    </video>
                                </media>
                                <file id="file-1">
                                    <pathurl>/home/davidk/code/python/JC-render/JC-examples/yoga.mp4</pathurl>
                                    <name>yoga.mp4</name>
                                    <rate>
                                        <timebase>30</timebase>
                                        <ntsc>TRUE</ntsc>
                                    </rate>
                                    <duration>54922</duration>
                                    <timecode>
                                        <rate>
                                            <timebase>30</timebase>
                                            <ntsc>TRUE</ntsc>
                                        </rate>
                                        <string>00:00:00:00</string>
                                        <frame>0</frame>
                                        <displayformat>NDF</displayformat>
                                        <media>
                                            <video/>
                                            <audio/>
                                        </media>
                                    </timecode>
                                </file>
                                <name>/home/davidk/code/python/JC-render/JC-examples/yoga.mp4</name>
                                <rate>
                                    <timebase>30</timebase>
                                    <ntsc>TRUE</ntsc>
                                </rate>
                                <start>19605</start>
                                <end>19607</end>
                            </clipitem>
                            <clipitem frameBlend="FALSE" id="clipitem-405">
                                <media>
                                    <video>
                                        <samplecharacteristics>
                                            <height>720</height>
                                            <width>1270</width>
                                        </samplecharacteristics>
                                    </video>
                                </media>
                                <file id="file-1">
                                    <pathurl>/home/davidk/code/python/JC-render/JC-examples/yoga.mp4</pathurl>
                                    <name>yoga.mp4</name>
                                    <rate>
                                        <timebase>30</timebase>
                                        <ntsc>TRUE</ntsc>
                                    </rate>
                                    <duration>54922</duration>
                                    <timecode>
                                        <rate>
                                            <timebase>30</timebase>
                                            <ntsc>TRUE</ntsc>
                                        </rate>
                                        <string>00:00:00:00</string>
                                        <frame>0</frame>
                                        <displayformat>NDF</displayformat>
                                        <media>
                                            <video/>
                                            <audio/>
                                        </media>
                                    </timecode>
                                </file>
                                <name>/home/davidk/code/python/JC-render/JC-examples/yoga.mp4</name>
                                <rate>
                                    <timebase>30</timebase>
                                    <ntsc>TRUE</ntsc>
                                </rate>
                                <start>19607</start>
                                <end>19650</end>
                            </clipitem>
                            <clipitem frameBlend="FALSE" id="clipitem-406">
                                <media>
                                    <video>
                                        <samplecharacteristics>
                                            <height>720</height>
                                            <width>1270</width>
                                        </samplecharacteristics>
                                    </video>
                                </media>
                                <file id="file-1">
                                    <pathurl>/home/davidk/code/python/JC-render/JC-examples/yoga.mp4</pathurl>
                                    <name>yoga.mp4</name>
                                    <rate>
                                        <timebase>30</timebase>
                                        <ntsc>TRUE</ntsc>
                                    </rate>
                                    <duration>54922</duration>
                                    <timecode>
                                        <rate>
                                            <timebase>30</timebase>
                                            <ntsc>TRUE</ntsc>
                                        </rate>
                                        <string>00:00:00:00</string>
                                        <frame>0</frame>
                                        <displayformat>NDF</displayformat>
                                        <media>
                                            <video/>
                                            <audio/>
                                        </media>
                                    </timecode>
                                </file>
                                <name>/home/davidk/code/python/JC-render/JC-examples/yoga.mp4</name>
                                <rate>
                                    <timebase>30</timebase>
                                    <ntsc>TRUE</ntsc>
                                </rate>
                                <start>19650</start>
                                <end>19697</end>
                            </clipitem>
                            <clipitem frameBlend="FALSE" id="clipitem-407">
                                <media>
                                    <video>
                                        <samplecharacteristics>
                                            <height>720</height>
                                            <width>1270</width>
                                        </samplecharacteristics>
                                    </video>
                                </media>
                                <file id="file-1">
                                    <pathurl>/home/davidk/code/python/JC-render/JC-examples/yoga.mp4</pathurl>
                                    <name>yoga.mp4</name>
                                    <rate>
                                        <timebase>30</timebase>
                                        <ntsc>TRUE</ntsc>
                                    </rate>
                                    <duration>54922</duration>
                                    <timecode>
                                        <rate>
                                            <timebase>30</timebase>
                                            <ntsc>TRUE</ntsc>
                                        </rate>
                                        <string>00:00:00:00</string>
                                        <frame>0</frame>
                                        <displayformat>NDF</displayformat>
                                        <media>
                                            <video/>
                                            <audio/>
                                        </media>
                                    </timecode>
                                </file>
                                <name>/home/davidk/code/python/JC-render/JC-examples/yoga.mp4</name>
                                <rate>
                                    <timebase>30</timebase>
                                    <ntsc>TRUE</ntsc>
                                </rate>
                                <start>19697</start>
                                <end>19796</end>
                            </clipitem>
                            <clipitem frameBlend="FALSE" id="clipitem-408">
                                <media>
                                    <video>
                                        <samplecharacteristics>
                                            <height>720</height>
                                            <width>1270</width>
                                        </samplecharacteristics>
                                    </video>
                                </media>
                                <file id="file-1">
                                    <pathurl>/home/davidk/code/python/JC-render/JC-examples/yoga.mp4</pathurl>
                                    <name>yoga.mp4</name>
                                    <rate>
                                        <timebase>30</timebase>
                                        <ntsc>TRUE</ntsc>
                                    </rate>
                                    <duration>54922</duration>
                                    <timecode>
                                        <rate>
                                            <timebase>30</timebase>
                                            <ntsc>TRUE</ntsc>
                                        </rate>
                                        <string>00:00:00:00</string>
                                        <frame>0</frame>
                                        <displayformat>NDF</displayformat>
                                        <media>
                                            <video/>
                                            <audio/>
                                        </media>
                                    </timecode>
                                </file>
                                <name>/home/davidk/code/python/JC-render/JC-examples/yoga.mp4</name>
                                <rate>
                                    <timebase>30</timebase>
                                    <ntsc>TRUE</ntsc>
                                </rate>
                                <start>19796</start>
                                <end>19851</end>
                            </clipitem>
                            <clipitem frameBlend="FALSE" id="clipitem-409">
                                <media>
                                    <video>
                                        <samplecharacteristics>
                                            <height>720</height>
                                            <width>1270</width>
                                        </samplecharacteristics>
                                    </video>
                                </media>
                                <file id="file-1">
                                    <pathurl>/home/davidk/code/python/JC-render/JC-examples/yoga.mp4</pathurl>
                                    <name>yoga.mp4</name>
                                    <rate>
                                        <timebase>30</timebase>
                                        <ntsc>TRUE</ntsc>
                                    </rate>
                                    <duration>54922</duration>
                                    <timecode>
                                        <rate>
                                            <timebase>30</timebase>
                                            <ntsc>TRUE</ntsc>
                                        </rate>
                                        <string>00:00:00:00</string>
                                        <frame>0</frame>
                                        <displayformat>NDF</displayformat>
                                        <media>
                                            <video/>
                                            <audio/>
                                        </media>
                                    </timecode>
                                </file>
                                <name>/home/davidk/code/python/JC-render/JC-examples/yoga.mp4</name>
                                <rate>
                                    <timebase>30</timebase>
                                    <ntsc>TRUE</ntsc>
                                </rate>
                                <start>19851</start>
                                <end>19894</end>
                            </clipitem>
                            <clipitem frameBlend="FALSE" id="clipitem-410">
                                <media>
                                    <video>
                                        <samplecharacteristics>
                                            <height>720</height>
                                            <width>1270</width>
                                        </samplecharacteristics>
                                    </video>
                                </media>
                                <file id="file-1">
                                    <pathurl>/home/davidk/code/python/JC-render/JC-examples/yoga.mp4</pathurl>
                                    <name>yoga.mp4</name>
                                    <rate>
                                        <timebase>30</timebase>
                                        <ntsc>TRUE</ntsc>
                                    </rate>
                                    <duration>54922</duration>
                                    <timecode>
                                        <rate>
                                            <timebase>30</timebase>
                                            <ntsc>TRUE</ntsc>
                                        </rate>
                                        <string>00:00:00:00</string>
                                        <frame>0</frame>
                                        <displayformat>NDF</displayformat>
                                        <media>
                                            <video/>
                                            <audio/>
                                        </media>
                                    </timecode>
                                </file>
                                <name>/home/davidk/code/python/JC-render/JC-examples/yoga.mp4</name>
                                <rate>
                                    <timebase>30</timebase>
                                    <ntsc>TRUE</ntsc>
                                </rate>
                                <start>19894</start>
                                <end>19903</end>
                            </clipitem>
                            <clipitem frameBlend="FALSE" id="clipitem-411">
                                <media>
                                    <video>
                                        <samplecharacteristics>
                                            <height>720</height>
                                            <width>1270</width>
                                        </samplecharacteristics>
                                    </video>
                                </media>
                                <file id="file-1">
                                    <pathurl>/home/davidk/code/python/JC-render/JC-examples/yoga.mp4</pathurl>
                                    <name>yoga.mp4</name>
                                    <rate>
                                        <timebase>30</timebase>
                                        <ntsc>TRUE</ntsc>
                                    </rate>
                                    <duration>54922</duration>
                                    <timecode>
                                        <rate>
                                            <timebase>30</timebase>
                                            <ntsc>TRUE</ntsc>
                                        </rate>
                                        <string>00:00:00:00</string>
                                        <frame>0</frame>
                                        <displayformat>NDF</displayformat>
                                        <media>
                                            <video/>
                                            <audio/>
                                        </media>
                                    </timecode>
                                </file>
                                <name>/home/davidk/code/python/JC-render/JC-examples/yoga.mp4</name>
                                <rate>
                                    <timebase>30</timebase>
                                    <ntsc>TRUE</ntsc>
                                </rate>
                                <start>19903</start>
                                <end>20054</end>
                            </clipitem>
                            <clipitem frameBlend="FALSE" id="clipitem-412">
                                <media>
                                    <video>
                                        <samplecharacteristics>
                                            <height>720</height>
                                            <width>1270</width>
                                        </samplecharacteristics>
                                    </video>
                                </media>
                                <file id="file-1">
                                    <pathurl>/home/davidk/code/python/JC-render/JC-examples/yoga.mp4</pathurl>
                                    <name>yoga.mp4</name>
                                    <rate>
                                        <timebase>30</timebase>
                                        <ntsc>TRUE</ntsc>
                                    </rate>
                                    <duration>54922</duration>
                                    <timecode>
                                        <rate>
                                            <timebase>30</timebase>
                                            <ntsc>TRUE</ntsc>
                                        </rate>
                                        <string>00:00:00:00</string>
                                        <frame>0</frame>
                                        <displayformat>NDF</displayformat>
                                        <media>
                                            <video/>
                                            <audio/>
                                        </media>
                                    </timecode>
                                </file>
                                <name>/home/davidk/code/python/JC-render/JC-examples/yoga.mp4</name>
                                <rate>
                                    <timebase>30</timebase>
                                    <ntsc>TRUE</ntsc>
                                </rate>
                                <start>20054</start>
                                <end>20056</end>
                            </clipitem>
                            <clipitem frameBlend="FALSE" id="clipitem-413">
                                <media>
                                    <video>
                                        <samplecharacteristics>
                                            <height>720</height>
                                            <width>1270</width>
                                        </samplecharacteristics>
                                    </video>
                                </media>
                                <file id="file-1">
                                    <pathurl>/home/davidk/code/python/JC-render/JC-examples/yoga.mp4</pathurl>
                                    <name>yoga.mp4</name>
                                    <rate>
                                        <timebase>30</timebase>
                                        <ntsc>TRUE</ntsc>
                                    </rate>
                                    <duration>54922</duration>
                                    <timecode>
                                        <rate>
                                            <timebase>30</timebase>
                                            <ntsc>TRUE</ntsc>
                                        </rate>
                                        <string>00:00:00:00</string>
                                        <frame>0</frame>
                                        <displayformat>NDF</displayformat>
                                        <media>
                                            <video/>
                                            <audio/>
                                        </media>
                                    </timecode>
                                </file>
                                <name>/home/davidk/code/python/JC-render/JC-examples/yoga.mp4</name>
                                <rate>
                                    <timebase>30</timebase>
                                    <ntsc>TRUE</ntsc>
                                </rate>
                                <start>20056</start>
                                <end>20092</end>
                            </clipitem>
                            <clipitem frameBlend="FALSE" id="clipitem-414">
                                <media>
                                    <video>
                                        <samplecharacteristics>
                                            <height>720</height>
                                            <width>1270</width>
                                        </samplecharacteristics>
                                    </video>
                                </media>
                                <file id="file-1">
                                    <pathurl>/home/davidk/code/python/JC-render/JC-examples/yoga.mp4</pathurl>
                                    <name>yoga.mp4</name>
                                    <rate>
                                        <timebase>30</timebase>
                                        <ntsc>TRUE</ntsc>
                                    </rate>
                                    <duration>54922</duration>
                                    <timecode>
                                        <rate>
                                            <timebase>30</timebase>
                                            <ntsc>TRUE</ntsc>
                                        </rate>
                                        <string>00:00:00:00</string>
                                        <frame>0</frame>
                                        <displayformat>NDF</displayformat>
                                        <media>
                                            <video/>
                                            <audio/>
                                        </media>
                                    </timecode>
                                </file>
                                <name>/home/davidk/code/python/JC-render/JC-examples/yoga.mp4</name>
                                <rate>
                                    <timebase>30</timebase>
                                    <ntsc>TRUE</ntsc>
                                </rate>
                                <start>20092</start>
                                <end>20115</end>
                            </clipitem>
                            <clipitem frameBlend="FALSE" id="clipitem-415">
                                <media>
                                    <video>
                                        <samplecharacteristics>
                                            <height>720</height>
                                            <width>1270</width>
                                        </samplecharacteristics>
                                    </video>
                                </media>
                                <file id="file-1">
                                    <pathurl>/home/davidk/code/python/JC-render/JC-examples/yoga.mp4</pathurl>
                                    <name>yoga.mp4</name>
                                    <rate>
                                        <timebase>30</timebase>
                                        <ntsc>TRUE</ntsc>
                                    </rate>
                                    <duration>54922</duration>
                                    <timecode>
                                        <rate>
                                            <timebase>30</timebase>
                                            <ntsc>TRUE</ntsc>
                                        </rate>
                                        <string>00:00:00:00</string>
                                        <frame>0</frame>
                                        <displayformat>NDF</displayformat>
                                        <media>
                                            <video/>
                                            <audio/>
                                        </media>
                                    </timecode>
                                </file>
                                <name>/home/davidk/code/python/JC-render/JC-examples/yoga.mp4</name>
                                <rate>
                                    <timebase>30</timebase>
                                    <ntsc>TRUE</ntsc>
                                </rate>
                                <start>20115</start>
                                <end>20221</end>
                            </clipitem>
                            <clipitem frameBlend="FALSE" id="clipitem-416">
                                <media>
                                    <video>
                                        <samplecharacteristics>
                                            <height>720</height>
                                            <width>1270</width>
                                        </samplecharacteristics>
                                    </video>
                                </media>
                                <file id="file-1">
                                    <pathurl>/home/davidk/code/python/JC-render/JC-examples/yoga.mp4</pathurl>
                                    <name>yoga.mp4</name>
                                    <rate>
                                        <timebase>30</timebase>
                                        <ntsc>TRUE</ntsc>
                                    </rate>
                                    <duration>54922</duration>
                                    <timecode>
                                        <rate>
                                            <timebase>30</timebase>
                                            <ntsc>TRUE</ntsc>
                                        </rate>
                                        <string>00:00:00:00</string>
                                        <frame>0</frame>
                                        <displayformat>NDF</displayformat>
                                        <media>
                                            <video/>
                                            <audio/>
                                        </media>
                                    </timecode>
                                </file>
                                <name>/home/davidk/code/python/JC-render/JC-examples/yoga.mp4</name>
                                <rate>
                                    <timebase>30</timebase>
                                    <ntsc>TRUE</ntsc>
                                </rate>
                                <start>20221</start>
                                <end>20248</end>
                            </clipitem>
                            <clipitem frameBlend="FALSE" id="clipitem-417">
                                <media>
                                    <video>
                                        <samplecharacteristics>
                                            <height>720</height>
                                            <width>1270</width>
                                        </samplecharacteristics>
                                    </video>
                                </media>
                                <file id="file-1">
                                    <pathurl>/home/davidk/code/python/JC-render/JC-examples/yoga.mp4</pathurl>
                                    <name>yoga.mp4</name>
                                    <rate>
                                        <timebase>30</timebase>
                                        <ntsc>TRUE</ntsc>
                                    </rate>
                                    <duration>54922</duration>
                                    <timecode>
                                        <rate>
                                            <timebase>30</timebase>
                                            <ntsc>TRUE</ntsc>
                                        </rate>
                                        <string>00:00:00:00</string>
                                        <frame>0</frame>
                                        <displayformat>NDF</displayformat>
                                        <media>
                                            <video/>
                                            <audio/>
                                        </media>
                                    </timecode>
                                </file>
                                <name>/home/davidk/code/python/JC-render/JC-examples/yoga.mp4</name>
                                <rate>
                                    <timebase>30</timebase>
                                    <ntsc>TRUE</ntsc>
                                </rate>
                                <start>20248</start>
                                <end>20274</end>
                            </clipitem>
                            <clipitem frameBlend="FALSE" id="clipitem-418">
                                <media>
                                    <video>
                                        <samplecharacteristics>
                                            <height>720</height>
                                            <width>1270</width>
                                        </samplecharacteristics>
                                    </video>
                                </media>
                                <file id="file-1">
                                    <pathurl>/home/davidk/code/python/JC-render/JC-examples/yoga.mp4</pathurl>
                                    <name>yoga.mp4</name>
                                    <rate>
                                        <timebase>30</timebase>
                                        <ntsc>TRUE</ntsc>
                                    </rate>
                                    <duration>54922</duration>
                                    <timecode>
                                        <rate>
                                            <timebase>30</timebase>
                                            <ntsc>TRUE</ntsc>
                                        </rate>
                                        <string>00:00:00:00</string>
                                        <frame>0</frame>
                                        <displayformat>NDF</displayformat>
                                        <media>
                                            <video/>
                                            <audio/>
                                        </media>
                                    </timecode>
                                </file>
                                <name>/home/davidk/code/python/JC-render/JC-examples/yoga.mp4</name>
                                <rate>
                                    <timebase>30</timebase>
                                    <ntsc>TRUE</ntsc>
                                </rate>
                                <start>20274</start>
                                <end>20317</end>
                            </clipitem>
                            <clipitem frameBlend="FALSE" id="clipitem-419">
                                <media>
                                    <video>
                                        <samplecharacteristics>
                                            <height>720</height>
                                            <width>1270</width>
                                        </samplecharacteristics>
                                    </video>
                                </media>
                                <file id="file-1">
                                    <pathurl>/home/davidk/code/python/JC-render/JC-examples/yoga.mp4</pathurl>
                                    <name>yoga.mp4</name>
                                    <rate>
                                        <timebase>30</timebase>
                                        <ntsc>TRUE</ntsc>
                                    </rate>
                                    <duration>54922</duration>
                                    <timecode>
                                        <rate>
                                            <timebase>30</timebase>
                                            <ntsc>TRUE</ntsc>
                                        </rate>
                                        <string>00:00:00:00</string>
                                        <frame>0</frame>
                                        <displayformat>NDF</displayformat>
                                        <media>
                                            <video/>
                                            <audio/>
                                        </media>
                                    </timecode>
                                </file>
                                <name>/home/davidk/code/python/JC-render/JC-examples/yoga.mp4</name>
                                <rate>
                                    <timebase>30</timebase>
                                    <ntsc>TRUE</ntsc>
                                </rate>
                                <start>20317</start>
                                <end>20336</end>
                            </clipitem>
                            <clipitem frameBlend="FALSE" id="clipitem-420">
                                <media>
                                    <video>
                                        <samplecharacteristics>
                                            <height>720</height>
                                            <width>1270</width>
                                        </samplecharacteristics>
                                    </video>
                                </media>
                                <file id="file-1">
                                    <pathurl>/home/davidk/code/python/JC-render/JC-examples/yoga.mp4</pathurl>
                                    <name>yoga.mp4</name>
                                    <rate>
                                        <timebase>30</timebase>
                                        <ntsc>TRUE</ntsc>
                                    </rate>
                                    <duration>54922</duration>
                                    <timecode>
                                        <rate>
                                            <timebase>30</timebase>
                                            <ntsc>TRUE</ntsc>
                                        </rate>
                                        <string>00:00:00:00</string>
                                        <frame>0</frame>
                                        <displayformat>NDF</displayformat>
                                        <media>
                                            <video/>
                                            <audio/>
                                        </media>
                                    </timecode>
                                </file>
                                <name>/home/davidk/code/python/JC-render/JC-examples/yoga.mp4</name>
                                <rate>
                                    <timebase>30</timebase>
                                    <ntsc>TRUE</ntsc>
                                </rate>
                                <start>20336</start>
                                <end>20363</end>
                            </clipitem>
                            <clipitem frameBlend="FALSE" id="clipitem-421">
                                <media>
                                    <video>
                                        <samplecharacteristics>
                                            <height>720</height>
                                            <width>1270</width>
                                        </samplecharacteristics>
                                    </video>
                                </media>
                                <file id="file-1">
                                    <pathurl>/home/davidk/code/python/JC-render/JC-examples/yoga.mp4</pathurl>
                                    <name>yoga.mp4</name>
                                    <rate>
                                        <timebase>30</timebase>
                                        <ntsc>TRUE</ntsc>
                                    </rate>
                                    <duration>54922</duration>
                                    <timecode>
                                        <rate>
                                            <timebase>30</timebase>
                                            <ntsc>TRUE</ntsc>
                                        </rate>
                                        <string>00:00:00:00</string>
                                        <frame>0</frame>
                                        <displayformat>NDF</displayformat>
                                        <media>
                                            <video/>
                                            <audio/>
                                        </media>
                                    </timecode>
                                </file>
                                <name>/home/davidk/code/python/JC-render/JC-examples/yoga.mp4</name>
                                <rate>
                                    <timebase>30</timebase>
                                    <ntsc>TRUE</ntsc>
                                </rate>
                                <start>20363</start>
                                <end>20378</end>
                            </clipitem>
                            <clipitem frameBlend="FALSE" id="clipitem-422">
                                <media>
                                    <video>
                                        <samplecharacteristics>
                                            <height>720</height>
                                            <width>1270</width>
                                        </samplecharacteristics>
                                    </video>
                                </media>
                                <file id="file-1">
                                    <pathurl>/home/davidk/code/python/JC-render/JC-examples/yoga.mp4</pathurl>
                                    <name>yoga.mp4</name>
                                    <rate>
                                        <timebase>30</timebase>
                                        <ntsc>TRUE</ntsc>
                                    </rate>
                                    <duration>54922</duration>
                                    <timecode>
                                        <rate>
                                            <timebase>30</timebase>
                                            <ntsc>TRUE</ntsc>
                                        </rate>
                                        <string>00:00:00:00</string>
                                        <frame>0</frame>
                                        <displayformat>NDF</displayformat>
                                        <media>
                                            <video/>
                                            <audio/>
                                        </media>
                                    </timecode>
                                </file>
                                <name>/home/davidk/code/python/JC-render/JC-examples/yoga.mp4</name>
                                <rate>
                                    <timebase>30</timebase>
                                    <ntsc>TRUE</ntsc>
                                </rate>
                                <start>20378</start>
                                <end>20387</end>
                            </clipitem>
                            <clipitem frameBlend="FALSE" id="clipitem-423">
                                <media>
                                    <video>
                                        <samplecharacteristics>
                                            <height>720</height>
                                            <width>1270</width>
                                        </samplecharacteristics>
                                    </video>
                                </media>
                                <file id="file-1">
                                    <pathurl>/home/davidk/code/python/JC-render/JC-examples/yoga.mp4</pathurl>
                                    <name>yoga.mp4</name>
                                    <rate>
                                        <timebase>30</timebase>
                                        <ntsc>TRUE</ntsc>
                                    </rate>
                                    <duration>54922</duration>
                                    <timecode>
                                        <rate>
                                            <timebase>30</timebase>
                                            <ntsc>TRUE</ntsc>
                                        </rate>
                                        <string>00:00:00:00</string>
                                        <frame>0</frame>
                                        <displayformat>NDF</displayformat>
                                        <media>
                                            <video/>
                                            <audio/>
                                        </media>
                                    </timecode>
                                </file>
                                <name>/home/davidk/code/python/JC-render/JC-examples/yoga.mp4</name>
                                <rate>
                                    <timebase>30</timebase>
                                    <ntsc>TRUE</ntsc>
                                </rate>
                                <start>20387</start>
                                <end>20406</end>
                            </clipitem>
                            <clipitem frameBlend="FALSE" id="clipitem-424">
                                <media>
                                    <video>
                                        <samplecharacteristics>
                                            <height>720</height>
                                            <width>1270</width>
                                        </samplecharacteristics>
                                    </video>
                                </media>
                                <file id="file-1">
                                    <pathurl>/home/davidk/code/python/JC-render/JC-examples/yoga.mp4</pathurl>
                                    <name>yoga.mp4</name>
                                    <rate>
                                        <timebase>30</timebase>
                                        <ntsc>TRUE</ntsc>
                                    </rate>
                                    <duration>54922</duration>
                                    <timecode>
                                        <rate>
                                            <timebase>30</timebase>
                                            <ntsc>TRUE</ntsc>
                                        </rate>
                                        <string>00:00:00:00</string>
                                        <frame>0</frame>
                                        <displayformat>NDF</displayformat>
                                        <media>
                                            <video/>
                                            <audio/>
                                        </media>
                                    </timecode>
                                </file>
                                <name>/home/davidk/code/python/JC-render/JC-examples/yoga.mp4</name>
                                <rate>
                                    <timebase>30</timebase>
                                    <ntsc>TRUE</ntsc>
                                </rate>
                                <start>20406</start>
                                <end>20422</end>
                            </clipitem>
                            <clipitem frameBlend="FALSE" id="clipitem-425">
                                <media>
                                    <video>
                                        <samplecharacteristics>
                                            <height>720</height>
                                            <width>1270</width>
                                        </samplecharacteristics>
                                    </video>
                                </media>
                                <file id="file-1">
                                    <pathurl>/home/davidk/code/python/JC-render/JC-examples/yoga.mp4</pathurl>
                                    <name>yoga.mp4</name>
                                    <rate>
                                        <timebase>30</timebase>
                                        <ntsc>TRUE</ntsc>
                                    </rate>
                                    <duration>54922</duration>
                                    <timecode>
                                        <rate>
                                            <timebase>30</timebase>
                                            <ntsc>TRUE</ntsc>
                                        </rate>
                                        <string>00:00:00:00</string>
                                        <frame>0</frame>
                                        <displayformat>NDF</displayformat>
                                        <media>
                                            <video/>
                                            <audio/>
                                        </media>
                                    </timecode>
                                </file>
                                <name>/home/davidk/code/python/JC-render/JC-examples/yoga.mp4</name>
                                <rate>
                                    <timebase>30</timebase>
                                    <ntsc>TRUE</ntsc>
                                </rate>
                                <start>20422</start>
                                <end>20503</end>
                            </clipitem>
                            <clipitem frameBlend="FALSE" id="clipitem-426">
                                <media>
                                    <video>
                                        <samplecharacteristics>
                                            <height>720</height>
                                            <width>1270</width>
                                        </samplecharacteristics>
                                    </video>
                                </media>
                                <file id="file-1">
                                    <pathurl>/home/davidk/code/python/JC-render/JC-examples/yoga.mp4</pathurl>
                                    <name>yoga.mp4</name>
                                    <rate>
                                        <timebase>30</timebase>
                                        <ntsc>TRUE</ntsc>
                                    </rate>
                                    <duration>54922</duration>
                                    <timecode>
                                        <rate>
                                            <timebase>30</timebase>
                                            <ntsc>TRUE</ntsc>
                                        </rate>
                                        <string>00:00:00:00</string>
                                        <frame>0</frame>
                                        <displayformat>NDF</displayformat>
                                        <media>
                                            <video/>
                                            <audio/>
                                        </media>
                                    </timecode>
                                </file>
                                <name>/home/davidk/code/python/JC-render/JC-examples/yoga.mp4</name>
                                <rate>
                                    <timebase>30</timebase>
                                    <ntsc>TRUE</ntsc>
                                </rate>
                                <start>20503</start>
                                <end>20505</end>
                            </clipitem>
                            <clipitem frameBlend="FALSE" id="clipitem-427">
                                <media>
                                    <video>
                                        <samplecharacteristics>
                                            <height>720</height>
                                            <width>1270</width>
                                        </samplecharacteristics>
                                    </video>
                                </media>
                                <file id="file-1">
                                    <pathurl>/home/davidk/code/python/JC-render/JC-examples/yoga.mp4</pathurl>
                                    <name>yoga.mp4</name>
                                    <rate>
                                        <timebase>30</timebase>
                                        <ntsc>TRUE</ntsc>
                                    </rate>
                                    <duration>54922</duration>
                                    <timecode>
                                        <rate>
                                            <timebase>30</timebase>
                                            <ntsc>TRUE</ntsc>
                                        </rate>
                                        <string>00:00:00:00</string>
                                        <frame>0</frame>
                                        <displayformat>NDF</displayformat>
                                        <media>
                                            <video/>
                                            <audio/>
                                        </media>
                                    </timecode>
                                </file>
                                <name>/home/davidk/code/python/JC-render/JC-examples/yoga.mp4</name>
                                <rate>
                                    <timebase>30</timebase>
                                    <ntsc>TRUE</ntsc>
                                </rate>
                                <start>20505</start>
                                <end>20538</end>
                            </clipitem>
                            <clipitem frameBlend="FALSE" id="clipitem-428">
                                <media>
                                    <video>
                                        <samplecharacteristics>
                                            <height>720</height>
                                            <width>1270</width>
                                        </samplecharacteristics>
                                    </video>
                                </media>
                                <file id="file-1">
                                    <pathurl>/home/davidk/code/python/JC-render/JC-examples/yoga.mp4</pathurl>
                                    <name>yoga.mp4</name>
                                    <rate>
                                        <timebase>30</timebase>
                                        <ntsc>TRUE</ntsc>
                                    </rate>
                                    <duration>54922</duration>
                                    <timecode>
                                        <rate>
                                            <timebase>30</timebase>
                                            <ntsc>TRUE</ntsc>
                                        </rate>
                                        <string>00:00:00:00</string>
                                        <frame>0</frame>
                                        <displayformat>NDF</displayformat>
                                        <media>
                                            <video/>
                                            <audio/>
                                        </media>
                                    </timecode>
                                </file>
                                <name>/home/davidk/code/python/JC-render/JC-examples/yoga.mp4</name>
                                <rate>
                                    <timebase>30</timebase>
                                    <ntsc>TRUE</ntsc>
                                </rate>
                                <start>20538</start>
                                <end>20603</end>
                            </clipitem>
                            <clipitem frameBlend="FALSE" id="clipitem-429">
                                <media>
                                    <video>
                                        <samplecharacteristics>
                                            <height>720</height>
                                            <width>1270</width>
                                        </samplecharacteristics>
                                    </video>
                                </media>
                                <file id="file-1">
                                    <pathurl>/home/davidk/code/python/JC-render/JC-examples/yoga.mp4</pathurl>
                                    <name>yoga.mp4</name>
                                    <rate>
                                        <timebase>30</timebase>
                                        <ntsc>TRUE</ntsc>
                                    </rate>
                                    <duration>54922</duration>
                                    <timecode>
                                        <rate>
                                            <timebase>30</timebase>
                                            <ntsc>TRUE</ntsc>
                                        </rate>
                                        <string>00:00:00:00</string>
                                        <frame>0</frame>
                                        <displayformat>NDF</displayformat>
                                        <media>
                                            <video/>
                                            <audio/>
                                        </media>
                                    </timecode>
                                </file>
                                <name>/home/davidk/code/python/JC-render/JC-examples/yoga.mp4</name>
                                <rate>
                                    <timebase>30</timebase>
                                    <ntsc>TRUE</ntsc>
                                </rate>
                                <start>20603</start>
                                <end>20716</end>
                            </clipitem>
                            <clipitem frameBlend="FALSE" id="clipitem-430">
                                <media>
                                    <video>
                                        <samplecharacteristics>
                                            <height>720</height>
                                            <width>1270</width>
                                        </samplecharacteristics>
                                    </video>
                                </media>
                                <file id="file-1">
                                    <pathurl>/home/davidk/code/python/JC-render/JC-examples/yoga.mp4</pathurl>
                                    <name>yoga.mp4</name>
                                    <rate>
                                        <timebase>30</timebase>
                                        <ntsc>TRUE</ntsc>
                                    </rate>
                                    <duration>54922</duration>
                                    <timecode>
                                        <rate>
                                            <timebase>30</timebase>
                                            <ntsc>TRUE</ntsc>
                                        </rate>
                                        <string>00:00:00:00</string>
                                        <frame>0</frame>
                                        <displayformat>NDF</displayformat>
                                        <media>
                                            <video/>
                                            <audio/>
                                        </media>
                                    </timecode>
                                </file>
                                <name>/home/davidk/code/python/JC-render/JC-examples/yoga.mp4</name>
                                <rate>
                                    <timebase>30</timebase>
                                    <ntsc>TRUE</ntsc>
                                </rate>
                                <start>20716</start>
                                <end>20756</end>
                            </clipitem>
                            <clipitem frameBlend="FALSE" id="clipitem-431">
                                <media>
                                    <video>
                                        <samplecharacteristics>
                                            <height>720</height>
                                            <width>1270</width>
                                        </samplecharacteristics>
                                    </video>
                                </media>
                                <file id="file-1">
                                    <pathurl>/home/davidk/code/python/JC-render/JC-examples/yoga.mp4</pathurl>
                                    <name>yoga.mp4</name>
                                    <rate>
                                        <timebase>30</timebase>
                                        <ntsc>TRUE</ntsc>
                                    </rate>
                                    <duration>54922</duration>
                                    <timecode>
                                        <rate>
                                            <timebase>30</timebase>
                                            <ntsc>TRUE</ntsc>
                                        </rate>
                                        <string>00:00:00:00</string>
                                        <frame>0</frame>
                                        <displayformat>NDF</displayformat>
                                        <media>
                                            <video/>
                                            <audio/>
                                        </media>
                                    </timecode>
                                </file>
                                <name>/home/davidk/code/python/JC-render/JC-examples/yoga.mp4</name>
                                <rate>
                                    <timebase>30</timebase>
                                    <ntsc>TRUE</ntsc>
                                </rate>
                                <start>20756</start>
                                <end>20820</end>
                            </clipitem>
                            <clipitem frameBlend="FALSE" id="clipitem-432">
                                <media>
                                    <video>
                                        <samplecharacteristics>
                                            <height>720</height>
                                            <width>1270</width>
                                        </samplecharacteristics>
                                    </video>
                                </media>
                                <file id="file-1">
                                    <pathurl>/home/davidk/code/python/JC-render/JC-examples/yoga.mp4</pathurl>
                                    <name>yoga.mp4</name>
                                    <rate>
                                        <timebase>30</timebase>
                                        <ntsc>TRUE</ntsc>
                                    </rate>
                                    <duration>54922</duration>
                                    <timecode>
                                        <rate>
                                            <timebase>30</timebase>
                                            <ntsc>TRUE</ntsc>
                                        </rate>
                                        <string>00:00:00:00</string>
                                        <frame>0</frame>
                                        <displayformat>NDF</displayformat>
                                        <media>
                                            <video/>
                                            <audio/>
                                        </media>
                                    </timecode>
                                </file>
                                <name>/home/davidk/code/python/JC-render/JC-examples/yoga.mp4</name>
                                <rate>
                                    <timebase>30</timebase>
                                    <ntsc>TRUE</ntsc>
                                </rate>
                                <start>20820</start>
                                <end>20829</end>
                            </clipitem>
                            <clipitem frameBlend="FALSE" id="clipitem-433">
                                <media>
                                    <video>
                                        <samplecharacteristics>
                                            <height>720</height>
                                            <width>1270</width>
                                        </samplecharacteristics>
                                    </video>
                                </media>
                                <file id="file-1">
                                    <pathurl>/home/davidk/code/python/JC-render/JC-examples/yoga.mp4</pathurl>
                                    <name>yoga.mp4</name>
                                    <rate>
                                        <timebase>30</timebase>
                                        <ntsc>TRUE</ntsc>
                                    </rate>
                                    <duration>54922</duration>
                                    <timecode>
                                        <rate>
                                            <timebase>30</timebase>
                                            <ntsc>TRUE</ntsc>
                                        </rate>
                                        <string>00:00:00:00</string>
                                        <frame>0</frame>
                                        <displayformat>NDF</displayformat>
                                        <media>
                                            <video/>
                                            <audio/>
                                        </media>
                                    </timecode>
                                </file>
                                <name>/home/davidk/code/python/JC-render/JC-examples/yoga.mp4</name>
                                <rate>
                                    <timebase>30</timebase>
                                    <ntsc>TRUE</ntsc>
                                </rate>
                                <start>20829</start>
                                <end>20890</end>
                            </clipitem>
                            <clipitem frameBlend="FALSE" id="clipitem-434">
                                <media>
                                    <video>
                                        <samplecharacteristics>
                                            <height>720</height>
                                            <width>1270</width>
                                        </samplecharacteristics>
                                    </video>
                                </media>
                                <file id="file-1">
                                    <pathurl>/home/davidk/code/python/JC-render/JC-examples/yoga.mp4</pathurl>
                                    <name>yoga.mp4</name>
                                    <rate>
                                        <timebase>30</timebase>
                                        <ntsc>TRUE</ntsc>
                                    </rate>
                                    <duration>54922</duration>
                                    <timecode>
                                        <rate>
                                            <timebase>30</timebase>
                                            <ntsc>TRUE</ntsc>
                                        </rate>
                                        <string>00:00:00:00</string>
                                        <frame>0</frame>
                                        <displayformat>NDF</displayformat>
                                        <media>
                                            <video/>
                                            <audio/>
                                        </media>
                                    </timecode>
                                </file>
                                <name>/home/davidk/code/python/JC-render/JC-examples/yoga.mp4</name>
                                <rate>
                                    <timebase>30</timebase>
                                    <ntsc>TRUE</ntsc>
                                </rate>
                                <start>20890</start>
                                <end>20902</end>
                            </clipitem>
                            <clipitem frameBlend="FALSE" id="clipitem-435">
                                <media>
                                    <video>
                                        <samplecharacteristics>
                                            <height>720</height>
                                            <width>1270</width>
                                        </samplecharacteristics>
                                    </video>
                                </media>
                                <file id="file-1">
                                    <pathurl>/home/davidk/code/python/JC-render/JC-examples/yoga.mp4</pathurl>
                                    <name>yoga.mp4</name>
                                    <rate>
                                        <timebase>30</timebase>
                                        <ntsc>TRUE</ntsc>
                                    </rate>
                                    <duration>54922</duration>
                                    <timecode>
                                        <rate>
                                            <timebase>30</timebase>
                                            <ntsc>TRUE</ntsc>
                                        </rate>
                                        <string>00:00:00:00</string>
                                        <frame>0</frame>
                                        <displayformat>NDF</displayformat>
                                        <media>
                                            <video/>
                                            <audio/>
                                        </media>
                                    </timecode>
                                </file>
                                <name>/home/davidk/code/python/JC-render/JC-examples/yoga.mp4</name>
                                <rate>
                                    <timebase>30</timebase>
                                    <ntsc>TRUE</ntsc>
                                </rate>
                                <start>20902</start>
                                <end>21019</end>
                            </clipitem>
                            <clipitem frameBlend="FALSE" id="clipitem-436">
                                <media>
                                    <video>
                                        <samplecharacteristics>
                                            <height>720</height>
                                            <width>1270</width>
                                        </samplecharacteristics>
                                    </video>
                                </media>
                                <file id="file-1">
                                    <pathurl>/home/davidk/code/python/JC-render/JC-examples/yoga.mp4</pathurl>
                                    <name>yoga.mp4</name>
                                    <rate>
                                        <timebase>30</timebase>
                                        <ntsc>TRUE</ntsc>
                                    </rate>
                                    <duration>54922</duration>
                                    <timecode>
                                        <rate>
                                            <timebase>30</timebase>
                                            <ntsc>TRUE</ntsc>
                                        </rate>
                                        <string>00:00:00:00</string>
                                        <frame>0</frame>
                                        <displayformat>NDF</displayformat>
                                        <media>
                                            <video/>
                                            <audio/>
                                        </media>
                                    </timecode>
                                </file>
                                <name>/home/davidk/code/python/JC-render/JC-examples/yoga.mp4</name>
                                <rate>
                                    <timebase>30</timebase>
                                    <ntsc>TRUE</ntsc>
                                </rate>
                                <start>21019</start>
                                <end>21024</end>
                            </clipitem>
                            <clipitem frameBlend="FALSE" id="clipitem-437">
                                <media>
                                    <video>
                                        <samplecharacteristics>
                                            <height>720</height>
                                            <width>1270</width>
                                        </samplecharacteristics>
                                    </video>
                                </media>
                                <file id="file-1">
                                    <pathurl>/home/davidk/code/python/JC-render/JC-examples/yoga.mp4</pathurl>
                                    <name>yoga.mp4</name>
                                    <rate>
                                        <timebase>30</timebase>
                                        <ntsc>TRUE</ntsc>
                                    </rate>
                                    <duration>54922</duration>
                                    <timecode>
                                        <rate>
                                            <timebase>30</timebase>
                                            <ntsc>TRUE</ntsc>
                                        </rate>
                                        <string>00:00:00:00</string>
                                        <frame>0</frame>
                                        <displayformat>NDF</displayformat>
                                        <media>
                                            <video/>
                                            <audio/>
                                        </media>
                                    </timecode>
                                </file>
                                <name>/home/davidk/code/python/JC-render/JC-examples/yoga.mp4</name>
                                <rate>
                                    <timebase>30</timebase>
                                    <ntsc>TRUE</ntsc>
                                </rate>
                                <start>21024</start>
                                <end>21057</end>
                            </clipitem>
                            <clipitem frameBlend="FALSE" id="clipitem-438">
                                <media>
                                    <video>
                                        <samplecharacteristics>
                                            <height>720</height>
                                            <width>1270</width>
                                        </samplecharacteristics>
                                    </video>
                                </media>
                                <file id="file-1">
                                    <pathurl>/home/davidk/code/python/JC-render/JC-examples/yoga.mp4</pathurl>
                                    <name>yoga.mp4</name>
                                    <rate>
                                        <timebase>30</timebase>
                                        <ntsc>TRUE</ntsc>
                                    </rate>
                                    <duration>54922</duration>
                                    <timecode>
                                        <rate>
                                            <timebase>30</timebase>
                                            <ntsc>TRUE</ntsc>
                                        </rate>
                                        <string>00:00:00:00</string>
                                        <frame>0</frame>
                                        <displayformat>NDF</displayformat>
                                        <media>
                                            <video/>
                                            <audio/>
                                        </media>
                                    </timecode>
                                </file>
                                <name>/home/davidk/code/python/JC-render/JC-examples/yoga.mp4</name>
                                <rate>
                                    <timebase>30</timebase>
                                    <ntsc>TRUE</ntsc>
                                </rate>
                                <start>21057</start>
                                <end>21084</end>
                            </clipitem>
                            <clipitem frameBlend="FALSE" id="clipitem-439">
                                <media>
                                    <video>
                                        <samplecharacteristics>
                                            <height>720</height>
                                            <width>1270</width>
                                        </samplecharacteristics>
                                    </video>
                                </media>
                                <file id="file-1">
                                    <pathurl>/home/davidk/code/python/JC-render/JC-examples/yoga.mp4</pathurl>
                                    <name>yoga.mp4</name>
                                    <rate>
                                        <timebase>30</timebase>
                                        <ntsc>TRUE</ntsc>
                                    </rate>
                                    <duration>54922</duration>
                                    <timecode>
                                        <rate>
                                            <timebase>30</timebase>
                                            <ntsc>TRUE</ntsc>
                                        </rate>
                                        <string>00:00:00:00</string>
                                        <frame>0</frame>
                                        <displayformat>NDF</displayformat>
                                        <media>
                                            <video/>
                                            <audio/>
                                        </media>
                                    </timecode>
                                </file>
                                <name>/home/davidk/code/python/JC-render/JC-examples/yoga.mp4</name>
                                <rate>
                                    <timebase>30</timebase>
                                    <ntsc>TRUE</ntsc>
                                </rate>
                                <start>21084</start>
                                <end>21106</end>
                            </clipitem>
                            <clipitem frameBlend="FALSE" id="clipitem-440">
                                <media>
                                    <video>
                                        <samplecharacteristics>
                                            <height>720</height>
                                            <width>1270</width>
                                        </samplecharacteristics>
                                    </video>
                                </media>
                                <file id="file-1">
                                    <pathurl>/home/davidk/code/python/JC-render/JC-examples/yoga.mp4</pathurl>
                                    <name>yoga.mp4</name>
                                    <rate>
                                        <timebase>30</timebase>
                                        <ntsc>TRUE</ntsc>
                                    </rate>
                                    <duration>54922</duration>
                                    <timecode>
                                        <rate>
                                            <timebase>30</timebase>
                                            <ntsc>TRUE</ntsc>
                                        </rate>
                                        <string>00:00:00:00</string>
                                        <frame>0</frame>
                                        <displayformat>NDF</displayformat>
                                        <media>
                                            <video/>
                                            <audio/>
                                        </media>
                                    </timecode>
                                </file>
                                <name>/home/davidk/code/python/JC-render/JC-examples/yoga.mp4</name>
                                <rate>
                                    <timebase>30</timebase>
                                    <ntsc>TRUE</ntsc>
                                </rate>
                                <start>21106</start>
                                <end>21108</end>
                            </clipitem>
                            <clipitem frameBlend="FALSE" id="clipitem-441">
                                <media>
                                    <video>
                                        <samplecharacteristics>
                                            <height>720</height>
                                            <width>1270</width>
                                        </samplecharacteristics>
                                    </video>
                                </media>
                                <file id="file-1">
                                    <pathurl>/home/davidk/code/python/JC-render/JC-examples/yoga.mp4</pathurl>
                                    <name>yoga.mp4</name>
                                    <rate>
                                        <timebase>30</timebase>
                                        <ntsc>TRUE</ntsc>
                                    </rate>
                                    <duration>54922</duration>
                                    <timecode>
                                        <rate>
                                            <timebase>30</timebase>
                                            <ntsc>TRUE</ntsc>
                                        </rate>
                                        <string>00:00:00:00</string>
                                        <frame>0</frame>
                                        <displayformat>NDF</displayformat>
                                        <media>
                                            <video/>
                                            <audio/>
                                        </media>
                                    </timecode>
                                </file>
                                <name>/home/davidk/code/python/JC-render/JC-examples/yoga.mp4</name>
                                <rate>
                                    <timebase>30</timebase>
                                    <ntsc>TRUE</ntsc>
                                </rate>
                                <start>21108</start>
                                <end>21235</end>
                            </clipitem>
                            <clipitem frameBlend="FALSE" id="clipitem-442">
                                <media>
                                    <video>
                                        <samplecharacteristics>
                                            <height>720</height>
                                            <width>1270</width>
                                        </samplecharacteristics>
                                    </video>
                                </media>
                                <file id="file-1">
                                    <pathurl>/home/davidk/code/python/JC-render/JC-examples/yoga.mp4</pathurl>
                                    <name>yoga.mp4</name>
                                    <rate>
                                        <timebase>30</timebase>
                                        <ntsc>TRUE</ntsc>
                                    </rate>
                                    <duration>54922</duration>
                                    <timecode>
                                        <rate>
                                            <timebase>30</timebase>
                                            <ntsc>TRUE</ntsc>
                                        </rate>
                                        <string>00:00:00:00</string>
                                        <frame>0</frame>
                                        <displayformat>NDF</displayformat>
                                        <media>
                                            <video/>
                                            <audio/>
                                        </media>
                                    </timecode>
                                </file>
                                <name>/home/davidk/code/python/JC-render/JC-examples/yoga.mp4</name>
                                <rate>
                                    <timebase>30</timebase>
                                    <ntsc>TRUE</ntsc>
                                </rate>
                                <start>21235</start>
                                <end>21320</end>
                            </clipitem>
                            <clipitem frameBlend="FALSE" id="clipitem-443">
                                <media>
                                    <video>
                                        <samplecharacteristics>
                                            <height>720</height>
                                            <width>1270</width>
                                        </samplecharacteristics>
                                    </video>
                                </media>
                                <file id="file-1">
                                    <pathurl>/home/davidk/code/python/JC-render/JC-examples/yoga.mp4</pathurl>
                                    <name>yoga.mp4</name>
                                    <rate>
                                        <timebase>30</timebase>
                                        <ntsc>TRUE</ntsc>
                                    </rate>
                                    <duration>54922</duration>
                                    <timecode>
                                        <rate>
                                            <timebase>30</timebase>
                                            <ntsc>TRUE</ntsc>
                                        </rate>
                                        <string>00:00:00:00</string>
                                        <frame>0</frame>
                                        <displayformat>NDF</displayformat>
                                        <media>
                                            <video/>
                                            <audio/>
                                        </media>
                                    </timecode>
                                </file>
                                <name>/home/davidk/code/python/JC-render/JC-examples/yoga.mp4</name>
                                <rate>
                                    <timebase>30</timebase>
                                    <ntsc>TRUE</ntsc>
                                </rate>
                                <start>21320</start>
                                <end>21336</end>
                            </clipitem>
                            <clipitem frameBlend="FALSE" id="clipitem-444">
                                <media>
                                    <video>
                                        <samplecharacteristics>
                                            <height>720</height>
                                            <width>1270</width>
                                        </samplecharacteristics>
                                    </video>
                                </media>
                                <file id="file-1">
                                    <pathurl>/home/davidk/code/python/JC-render/JC-examples/yoga.mp4</pathurl>
                                    <name>yoga.mp4</name>
                                    <rate>
                                        <timebase>30</timebase>
                                        <ntsc>TRUE</ntsc>
                                    </rate>
                                    <duration>54922</duration>
                                    <timecode>
                                        <rate>
                                            <timebase>30</timebase>
                                            <ntsc>TRUE</ntsc>
                                        </rate>
                                        <string>00:00:00:00</string>
                                        <frame>0</frame>
                                        <displayformat>NDF</displayformat>
                                        <media>
                                            <video/>
                                            <audio/>
                                        </media>
                                    </timecode>
                                </file>
                                <name>/home/davidk/code/python/JC-render/JC-examples/yoga.mp4</name>
                                <rate>
                                    <timebase>30</timebase>
                                    <ntsc>TRUE</ntsc>
                                </rate>
                                <start>21336</start>
                                <end>21345</end>
                            </clipitem>
                            <clipitem frameBlend="FALSE" id="clipitem-445">
                                <media>
                                    <video>
                                        <samplecharacteristics>
                                            <height>720</height>
                                            <width>1270</width>
                                        </samplecharacteristics>
                                    </video>
                                </media>
                                <file id="file-1">
                                    <pathurl>/home/davidk/code/python/JC-render/JC-examples/yoga.mp4</pathurl>
                                    <name>yoga.mp4</name>
                                    <rate>
                                        <timebase>30</timebase>
                                        <ntsc>TRUE</ntsc>
                                    </rate>
                                    <duration>54922</duration>
                                    <timecode>
                                        <rate>
                                            <timebase>30</timebase>
                                            <ntsc>TRUE</ntsc>
                                        </rate>
                                        <string>00:00:00:00</string>
                                        <frame>0</frame>
                                        <displayformat>NDF</displayformat>
                                        <media>
                                            <video/>
                                            <audio/>
                                        </media>
                                    </timecode>
                                </file>
                                <name>/home/davidk/code/python/JC-render/JC-examples/yoga.mp4</name>
                                <rate>
                                    <timebase>30</timebase>
                                    <ntsc>TRUE</ntsc>
                                </rate>
                                <start>21345</start>
                                <end>21399</end>
                            </clipitem>
                            <clipitem frameBlend="FALSE" id="clipitem-446">
                                <media>
                                    <video>
                                        <samplecharacteristics>
                                            <height>720</height>
                                            <width>1270</width>
                                        </samplecharacteristics>
                                    </video>
                                </media>
                                <file id="file-1">
                                    <pathurl>/home/davidk/code/python/JC-render/JC-examples/yoga.mp4</pathurl>
                                    <name>yoga.mp4</name>
                                    <rate>
                                        <timebase>30</timebase>
                                        <ntsc>TRUE</ntsc>
                                    </rate>
                                    <duration>54922</duration>
                                    <timecode>
                                        <rate>
                                            <timebase>30</timebase>
                                            <ntsc>TRUE</ntsc>
                                        </rate>
                                        <string>00:00:00:00</string>
                                        <frame>0</frame>
                                        <displayformat>NDF</displayformat>
                                        <media>
                                            <video/>
                                            <audio/>
                                        </media>
                                    </timecode>
                                </file>
                                <name>/home/davidk/code/python/JC-render/JC-examples/yoga.mp4</name>
                                <rate>
                                    <timebase>30</timebase>
                                    <ntsc>TRUE</ntsc>
                                </rate>
                                <start>21399</start>
                                <end>21418</end>
                            </clipitem>
                            <clipitem frameBlend="FALSE" id="clipitem-447">
                                <media>
                                    <video>
                                        <samplecharacteristics>
                                            <height>720</height>
                                            <width>1270</width>
                                        </samplecharacteristics>
                                    </video>
                                </media>
                                <file id="file-1">
                                    <pathurl>/home/davidk/code/python/JC-render/JC-examples/yoga.mp4</pathurl>
                                    <name>yoga.mp4</name>
                                    <rate>
                                        <timebase>30</timebase>
                                        <ntsc>TRUE</ntsc>
                                    </rate>
                                    <duration>54922</duration>
                                    <timecode>
                                        <rate>
                                            <timebase>30</timebase>
                                            <ntsc>TRUE</ntsc>
                                        </rate>
                                        <string>00:00:00:00</string>
                                        <frame>0</frame>
                                        <displayformat>NDF</displayformat>
                                        <media>
                                            <video/>
                                            <audio/>
                                        </media>
                                    </timecode>
                                </file>
                                <name>/home/davidk/code/python/JC-render/JC-examples/yoga.mp4</name>
                                <rate>
                                    <timebase>30</timebase>
                                    <ntsc>TRUE</ntsc>
                                </rate>
                                <start>21418</start>
                                <end>21552</end>
                            </clipitem>
                            <clipitem frameBlend="FALSE" id="clipitem-448">
                                <media>
                                    <video>
                                        <samplecharacteristics>
                                            <height>720</height>
                                            <width>1270</width>
                                        </samplecharacteristics>
                                    </video>
                                </media>
                                <file id="file-1">
                                    <pathurl>/home/davidk/code/python/JC-render/JC-examples/yoga.mp4</pathurl>
                                    <name>yoga.mp4</name>
                                    <rate>
                                        <timebase>30</timebase>
                                        <ntsc>TRUE</ntsc>
                                    </rate>
                                    <duration>54922</duration>
                                    <timecode>
                                        <rate>
                                            <timebase>30</timebase>
                                            <ntsc>TRUE</ntsc>
                                        </rate>
                                        <string>00:00:00:00</string>
                                        <frame>0</frame>
                                        <displayformat>NDF</displayformat>
                                        <media>
                                            <video/>
                                            <audio/>
                                        </media>
                                    </timecode>
                                </file>
                                <name>/home/davidk/code/python/JC-render/JC-examples/yoga.mp4</name>
                                <rate>
                                    <timebase>30</timebase>
                                    <ntsc>TRUE</ntsc>
                                </rate>
                                <start>21552</start>
                                <end>21554</end>
                            </clipitem>
                            <clipitem frameBlend="FALSE" id="clipitem-449">
                                <media>
                                    <video>
                                        <samplecharacteristics>
                                            <height>720</height>
                                            <width>1270</width>
                                        </samplecharacteristics>
                                    </video>
                                </media>
                                <file id="file-1">
                                    <pathurl>/home/davidk/code/python/JC-render/JC-examples/yoga.mp4</pathurl>
                                    <name>yoga.mp4</name>
                                    <rate>
                                        <timebase>30</timebase>
                                        <ntsc>TRUE</ntsc>
                                    </rate>
                                    <duration>54922</duration>
                                    <timecode>
                                        <rate>
                                            <timebase>30</timebase>
                                            <ntsc>TRUE</ntsc>
                                        </rate>
                                        <string>00:00:00:00</string>
                                        <frame>0</frame>
                                        <displayformat>NDF</displayformat>
                                        <media>
                                            <video/>
                                            <audio/>
                                        </media>
                                    </timecode>
                                </file>
                                <name>/home/davidk/code/python/JC-render/JC-examples/yoga.mp4</name>
                                <rate>
                                    <timebase>30</timebase>
                                    <ntsc>TRUE</ntsc>
                                </rate>
                                <start>21554</start>
                                <end>21635</end>
                            </clipitem>
                            <clipitem frameBlend="FALSE" id="clipitem-450">
                                <media>
                                    <video>
                                        <samplecharacteristics>
                                            <height>720</height>
                                            <width>1270</width>
                                        </samplecharacteristics>
                                    </video>
                                </media>
                                <file id="file-1">
                                    <pathurl>/home/davidk/code/python/JC-render/JC-examples/yoga.mp4</pathurl>
                                    <name>yoga.mp4</name>
                                    <rate>
                                        <timebase>30</timebase>
                                        <ntsc>TRUE</ntsc>
                                    </rate>
                                    <duration>54922</duration>
                                    <timecode>
                                        <rate>
                                            <timebase>30</timebase>
                                            <ntsc>TRUE</ntsc>
                                        </rate>
                                        <string>00:00:00:00</string>
                                        <frame>0</frame>
                                        <displayformat>NDF</displayformat>
                                        <media>
                                            <video/>
                                            <audio/>
                                        </media>
                                    </timecode>
                                </file>
                                <name>/home/davidk/code/python/JC-render/JC-examples/yoga.mp4</name>
                                <rate>
                                    <timebase>30</timebase>
                                    <ntsc>TRUE</ntsc>
                                </rate>
                                <start>21635</start>
                                <end>21669</end>
                            </clipitem>
                            <clipitem frameBlend="FALSE" id="clipitem-451">
                                <media>
                                    <video>
                                        <samplecharacteristics>
                                            <height>720</height>
                                            <width>1270</width>
                                        </samplecharacteristics>
                                    </video>
                                </media>
                                <file id="file-1">
                                    <pathurl>/home/davidk/code/python/JC-render/JC-examples/yoga.mp4</pathurl>
                                    <name>yoga.mp4</name>
                                    <rate>
                                        <timebase>30</timebase>
                                        <ntsc>TRUE</ntsc>
                                    </rate>
                                    <duration>54922</duration>
                                    <timecode>
                                        <rate>
                                            <timebase>30</timebase>
                                            <ntsc>TRUE</ntsc>
                                        </rate>
                                        <string>00:00:00:00</string>
                                        <frame>0</frame>
                                        <displayformat>NDF</displayformat>
                                        <media>
                                            <video/>
                                            <audio/>
                                        </media>
                                    </timecode>
                                </file>
                                <name>/home/davidk/code/python/JC-render/JC-examples/yoga.mp4</name>
                                <rate>
                                    <timebase>30</timebase>
                                    <ntsc>TRUE</ntsc>
                                </rate>
                                <start>21669</start>
                                <end>21709</end>
                            </clipitem>
                            <clipitem frameBlend="FALSE" id="clipitem-452">
                                <media>
                                    <video>
                                        <samplecharacteristics>
                                            <height>720</height>
                                            <width>1270</width>
                                        </samplecharacteristics>
                                    </video>
                                </media>
                                <file id="file-1">
                                    <pathurl>/home/davidk/code/python/JC-render/JC-examples/yoga.mp4</pathurl>
                                    <name>yoga.mp4</name>
                                    <rate>
                                        <timebase>30</timebase>
                                        <ntsc>TRUE</ntsc>
                                    </rate>
                                    <duration>54922</duration>
                                    <timecode>
                                        <rate>
                                            <timebase>30</timebase>
                                            <ntsc>TRUE</ntsc>
                                        </rate>
                                        <string>00:00:00:00</string>
                                        <frame>0</frame>
                                        <displayformat>NDF</displayformat>
                                        <media>
                                            <video/>
                                            <audio/>
                                        </media>
                                    </timecode>
                                </file>
                                <name>/home/davidk/code/python/JC-render/JC-examples/yoga.mp4</name>
                                <rate>
                                    <timebase>30</timebase>
                                    <ntsc>TRUE</ntsc>
                                </rate>
                                <start>21709</start>
                                <end>21714</end>
                            </clipitem>
                            <clipitem frameBlend="FALSE" id="clipitem-453">
                                <media>
                                    <video>
                                        <samplecharacteristics>
                                            <height>720</height>
                                            <width>1270</width>
                                        </samplecharacteristics>
                                    </video>
                                </media>
                                <file id="file-1">
                                    <pathurl>/home/davidk/code/python/JC-render/JC-examples/yoga.mp4</pathurl>
                                    <name>yoga.mp4</name>
                                    <rate>
                                        <timebase>30</timebase>
                                        <ntsc>TRUE</ntsc>
                                    </rate>
                                    <duration>54922</duration>
                                    <timecode>
                                        <rate>
                                            <timebase>30</timebase>
                                            <ntsc>TRUE</ntsc>
                                        </rate>
                                        <string>00:00:00:00</string>
                                        <frame>0</frame>
                                        <displayformat>NDF</displayformat>
                                        <media>
                                            <video/>
                                            <audio/>
                                        </media>
                                    </timecode>
                                </file>
                                <name>/home/davidk/code/python/JC-render/JC-examples/yoga.mp4</name>
                                <rate>
                                    <timebase>30</timebase>
                                    <ntsc>TRUE</ntsc>
                                </rate>
                                <start>21714</start>
                                <end>21736</end>
                            </clipitem>
                            <clipitem frameBlend="FALSE" id="clipitem-454">
                                <media>
                                    <video>
                                        <samplecharacteristics>
                                            <height>720</height>
                                            <width>1270</width>
                                        </samplecharacteristics>
                                    </video>
                                </media>
                                <file id="file-1">
                                    <pathurl>/home/davidk/code/python/JC-render/JC-examples/yoga.mp4</pathurl>
                                    <name>yoga.mp4</name>
                                    <rate>
                                        <timebase>30</timebase>
                                        <ntsc>TRUE</ntsc>
                                    </rate>
                                    <duration>54922</duration>
                                    <timecode>
                                        <rate>
                                            <timebase>30</timebase>
                                            <ntsc>TRUE</ntsc>
                                        </rate>
                                        <string>00:00:00:00</string>
                                        <frame>0</frame>
                                        <displayformat>NDF</displayformat>
                                        <media>
                                            <video/>
                                            <audio/>
                                        </media>
                                    </timecode>
                                </file>
                                <name>/home/davidk/code/python/JC-render/JC-examples/yoga.mp4</name>
                                <rate>
                                    <timebase>30</timebase>
                                    <ntsc>TRUE</ntsc>
                                </rate>
                                <start>21736</start>
                                <end>21745</end>
                            </clipitem>
                            <clipitem frameBlend="FALSE" id="clipitem-455">
                                <media>
                                    <video>
                                        <samplecharacteristics>
                                            <height>720</height>
                                            <width>1270</width>
                                        </samplecharacteristics>
                                    </video>
                                </media>
                                <file id="file-1">
                                    <pathurl>/home/davidk/code/python/JC-render/JC-examples/yoga.mp4</pathurl>
                                    <name>yoga.mp4</name>
                                    <rate>
                                        <timebase>30</timebase>
                                        <ntsc>TRUE</ntsc>
                                    </rate>
                                    <duration>54922</duration>
                                    <timecode>
                                        <rate>
                                            <timebase>30</timebase>
                                            <ntsc>TRUE</ntsc>
                                        </rate>
                                        <string>00:00:00:00</string>
                                        <frame>0</frame>
                                        <displayformat>NDF</displayformat>
                                        <media>
                                            <video/>
                                            <audio/>
                                        </media>
                                    </timecode>
                                </file>
                                <name>/home/davidk/code/python/JC-render/JC-examples/yoga.mp4</name>
                                <rate>
                                    <timebase>30</timebase>
                                    <ntsc>TRUE</ntsc>
                                </rate>
                                <start>21745</start>
                                <end>21775</end>
                            </clipitem>
                            <clipitem frameBlend="FALSE" id="clipitem-456">
                                <media>
                                    <video>
                                        <samplecharacteristics>
                                            <height>720</height>
                                            <width>1270</width>
                                        </samplecharacteristics>
                                    </video>
                                </media>
                                <file id="file-1">
                                    <pathurl>/home/davidk/code/python/JC-render/JC-examples/yoga.mp4</pathurl>
                                    <name>yoga.mp4</name>
                                    <rate>
                                        <timebase>30</timebase>
                                        <ntsc>TRUE</ntsc>
                                    </rate>
                                    <duration>54922</duration>
                                    <timecode>
                                        <rate>
                                            <timebase>30</timebase>
                                            <ntsc>TRUE</ntsc>
                                        </rate>
                                        <string>00:00:00:00</string>
                                        <frame>0</frame>
                                        <displayformat>NDF</displayformat>
                                        <media>
                                            <video/>
                                            <audio/>
                                        </media>
                                    </timecode>
                                </file>
                                <name>/home/davidk/code/python/JC-render/JC-examples/yoga.mp4</name>
                                <rate>
                                    <timebase>30</timebase>
                                    <ntsc>TRUE</ntsc>
                                </rate>
                                <start>21775</start>
                                <end>21798</end>
                            </clipitem>
                            <clipitem frameBlend="FALSE" id="clipitem-457">
                                <media>
                                    <video>
                                        <samplecharacteristics>
                                            <height>720</height>
                                            <width>1270</width>
                                        </samplecharacteristics>
                                    </video>
                                </media>
                                <file id="file-1">
                                    <pathurl>/home/davidk/code/python/JC-render/JC-examples/yoga.mp4</pathurl>
                                    <name>yoga.mp4</name>
                                    <rate>
                                        <timebase>30</timebase>
                                        <ntsc>TRUE</ntsc>
                                    </rate>
                                    <duration>54922</duration>
                                    <timecode>
                                        <rate>
                                            <timebase>30</timebase>
                                            <ntsc>TRUE</ntsc>
                                        </rate>
                                        <string>00:00:00:00</string>
                                        <frame>0</frame>
                                        <displayformat>NDF</displayformat>
                                        <media>
                                            <video/>
                                            <audio/>
                                        </media>
                                    </timecode>
                                </file>
                                <name>/home/davidk/code/python/JC-render/JC-examples/yoga.mp4</name>
                                <rate>
                                    <timebase>30</timebase>
                                    <ntsc>TRUE</ntsc>
                                </rate>
                                <start>21798</start>
                                <end>21813</end>
                            </clipitem>
                            <clipitem frameBlend="FALSE" id="clipitem-458">
                                <media>
                                    <video>
                                        <samplecharacteristics>
                                            <height>720</height>
                                            <width>1270</width>
                                        </samplecharacteristics>
                                    </video>
                                </media>
                                <file id="file-1">
                                    <pathurl>/home/davidk/code/python/JC-render/JC-examples/yoga.mp4</pathurl>
                                    <name>yoga.mp4</name>
                                    <rate>
                                        <timebase>30</timebase>
                                        <ntsc>TRUE</ntsc>
                                    </rate>
                                    <duration>54922</duration>
                                    <timecode>
                                        <rate>
                                            <timebase>30</timebase>
                                            <ntsc>TRUE</ntsc>
                                        </rate>
                                        <string>00:00:00:00</string>
                                        <frame>0</frame>
                                        <displayformat>NDF</displayformat>
                                        <media>
                                            <video/>
                                            <audio/>
                                        </media>
                                    </timecode>
                                </file>
                                <name>/home/davidk/code/python/JC-render/JC-examples/yoga.mp4</name>
                                <rate>
                                    <timebase>30</timebase>
                                    <ntsc>TRUE</ntsc>
                                </rate>
                                <start>21813</start>
                                <end>21951</end>
                            </clipitem>
                            <clipitem frameBlend="FALSE" id="clipitem-459">
                                <media>
                                    <video>
                                        <samplecharacteristics>
                                            <height>720</height>
                                            <width>1270</width>
                                        </samplecharacteristics>
                                    </video>
                                </media>
                                <file id="file-1">
                                    <pathurl>/home/davidk/code/python/JC-render/JC-examples/yoga.mp4</pathurl>
                                    <name>yoga.mp4</name>
                                    <rate>
                                        <timebase>30</timebase>
                                        <ntsc>TRUE</ntsc>
                                    </rate>
                                    <duration>54922</duration>
                                    <timecode>
                                        <rate>
                                            <timebase>30</timebase>
                                            <ntsc>TRUE</ntsc>
                                        </rate>
                                        <string>00:00:00:00</string>
                                        <frame>0</frame>
                                        <displayformat>NDF</displayformat>
                                        <media>
                                            <video/>
                                            <audio/>
                                        </media>
                                    </timecode>
                                </file>
                                <name>/home/davidk/code/python/JC-render/JC-examples/yoga.mp4</name>
                                <rate>
                                    <timebase>30</timebase>
                                    <ntsc>TRUE</ntsc>
                                </rate>
                                <start>21951</start>
                                <end>21966</end>
                            </clipitem>
                            <clipitem frameBlend="FALSE" id="clipitem-460">
                                <media>
                                    <video>
                                        <samplecharacteristics>
                                            <height>720</height>
                                            <width>1270</width>
                                        </samplecharacteristics>
                                    </video>
                                </media>
                                <file id="file-1">
                                    <pathurl>/home/davidk/code/python/JC-render/JC-examples/yoga.mp4</pathurl>
                                    <name>yoga.mp4</name>
                                    <rate>
                                        <timebase>30</timebase>
                                        <ntsc>TRUE</ntsc>
                                    </rate>
                                    <duration>54922</duration>
                                    <timecode>
                                        <rate>
                                            <timebase>30</timebase>
                                            <ntsc>TRUE</ntsc>
                                        </rate>
                                        <string>00:00:00:00</string>
                                        <frame>0</frame>
                                        <displayformat>NDF</displayformat>
                                        <media>
                                            <video/>
                                            <audio/>
                                        </media>
                                    </timecode>
                                </file>
                                <name>/home/davidk/code/python/JC-render/JC-examples/yoga.mp4</name>
                                <rate>
                                    <timebase>30</timebase>
                                    <ntsc>TRUE</ntsc>
                                </rate>
                                <start>21966</start>
                                <end>22034</end>
                            </clipitem>
                            <clipitem frameBlend="FALSE" id="clipitem-461">
                                <media>
                                    <video>
                                        <samplecharacteristics>
                                            <height>720</height>
                                            <width>1270</width>
                                        </samplecharacteristics>
                                    </video>
                                </media>
                                <file id="file-1">
                                    <pathurl>/home/davidk/code/python/JC-render/JC-examples/yoga.mp4</pathurl>
                                    <name>yoga.mp4</name>
                                    <rate>
                                        <timebase>30</timebase>
                                        <ntsc>TRUE</ntsc>
                                    </rate>
                                    <duration>54922</duration>
                                    <timecode>
                                        <rate>
                                            <timebase>30</timebase>
                                            <ntsc>TRUE</ntsc>
                                        </rate>
                                        <string>00:00:00:00</string>
                                        <frame>0</frame>
                                        <displayformat>NDF</displayformat>
                                        <media>
                                            <video/>
                                            <audio/>
                                        </media>
                                    </timecode>
                                </file>
                                <name>/home/davidk/code/python/JC-render/JC-examples/yoga.mp4</name>
                                <rate>
                                    <timebase>30</timebase>
                                    <ntsc>TRUE</ntsc>
                                </rate>
                                <start>22034</start>
                                <end>22064</end>
                            </clipitem>
                            <clipitem frameBlend="FALSE" id="clipitem-462">
                                <media>
                                    <video>
                                        <samplecharacteristics>
                                            <height>720</height>
                                            <width>1270</width>
                                        </samplecharacteristics>
                                    </video>
                                </media>
                                <file id="file-1">
                                    <pathurl>/home/davidk/code/python/JC-render/JC-examples/yoga.mp4</pathurl>
                                    <name>yoga.mp4</name>
                                    <rate>
                                        <timebase>30</timebase>
                                        <ntsc>TRUE</ntsc>
                                    </rate>
                                    <duration>54922</duration>
                                    <timecode>
                                        <rate>
                                            <timebase>30</timebase>
                                            <ntsc>TRUE</ntsc>
                                        </rate>
                                        <string>00:00:00:00</string>
                                        <frame>0</frame>
                                        <displayformat>NDF</displayformat>
                                        <media>
                                            <video/>
                                            <audio/>
                                        </media>
                                    </timecode>
                                </file>
                                <name>/home/davidk/code/python/JC-render/JC-examples/yoga.mp4</name>
                                <rate>
                                    <timebase>30</timebase>
                                    <ntsc>TRUE</ntsc>
                                </rate>
                                <start>22064</start>
                                <end>22142</end>
                            </clipitem>
                            <clipitem frameBlend="FALSE" id="clipitem-463">
                                <media>
                                    <video>
                                        <samplecharacteristics>
                                            <height>720</height>
                                            <width>1270</width>
                                        </samplecharacteristics>
                                    </video>
                                </media>
                                <file id="file-1">
                                    <pathurl>/home/davidk/code/python/JC-render/JC-examples/yoga.mp4</pathurl>
                                    <name>yoga.mp4</name>
                                    <rate>
                                        <timebase>30</timebase>
                                        <ntsc>TRUE</ntsc>
                                    </rate>
                                    <duration>54922</duration>
                                    <timecode>
                                        <rate>
                                            <timebase>30</timebase>
                                            <ntsc>TRUE</ntsc>
                                        </rate>
                                        <string>00:00:00:00</string>
                                        <frame>0</frame>
                                        <displayformat>NDF</displayformat>
                                        <media>
                                            <video/>
                                            <audio/>
                                        </media>
                                    </timecode>
                                </file>
                                <name>/home/davidk/code/python/JC-render/JC-examples/yoga.mp4</name>
                                <rate>
                                    <timebase>30</timebase>
                                    <ntsc>TRUE</ntsc>
                                </rate>
                                <start>22142</start>
                                <end>22158</end>
                            </clipitem>
                            <clipitem frameBlend="FALSE" id="clipitem-464">
                                <media>
                                    <video>
                                        <samplecharacteristics>
                                            <height>720</height>
                                            <width>1270</width>
                                        </samplecharacteristics>
                                    </video>
                                </media>
                                <file id="file-1">
                                    <pathurl>/home/davidk/code/python/JC-render/JC-examples/yoga.mp4</pathurl>
                                    <name>yoga.mp4</name>
                                    <rate>
                                        <timebase>30</timebase>
                                        <ntsc>TRUE</ntsc>
                                    </rate>
                                    <duration>54922</duration>
                                    <timecode>
                                        <rate>
                                            <timebase>30</timebase>
                                            <ntsc>TRUE</ntsc>
                                        </rate>
                                        <string>00:00:00:00</string>
                                        <frame>0</frame>
                                        <displayformat>NDF</displayformat>
                                        <media>
                                            <video/>
                                            <audio/>
                                        </media>
                                    </timecode>
                                </file>
                                <name>/home/davidk/code/python/JC-render/JC-examples/yoga.mp4</name>
                                <rate>
                                    <timebase>30</timebase>
                                    <ntsc>TRUE</ntsc>
                                </rate>
                                <start>22158</start>
                                <end>22275</end>
                            </clipitem>
                            <clipitem frameBlend="FALSE" id="clipitem-465">
                                <media>
                                    <video>
                                        <samplecharacteristics>
                                            <height>720</height>
                                            <width>1270</width>
                                        </samplecharacteristics>
                                    </video>
                                </media>
                                <file id="file-1">
                                    <pathurl>/home/davidk/code/python/JC-render/JC-examples/yoga.mp4</pathurl>
                                    <name>yoga.mp4</name>
                                    <rate>
                                        <timebase>30</timebase>
                                        <ntsc>TRUE</ntsc>
                                    </rate>
                                    <duration>54922</duration>
                                    <timecode>
                                        <rate>
                                            <timebase>30</timebase>
                                            <ntsc>TRUE</ntsc>
                                        </rate>
                                        <string>00:00:00:00</string>
                                        <frame>0</frame>
                                        <displayformat>NDF</displayformat>
                                        <media>
                                            <video/>
                                            <audio/>
                                        </media>
                                    </timecode>
                                </file>
                                <name>/home/davidk/code/python/JC-render/JC-examples/yoga.mp4</name>
                                <rate>
                                    <timebase>30</timebase>
                                    <ntsc>TRUE</ntsc>
                                </rate>
                                <start>22275</start>
                                <end>22290</end>
                            </clipitem>
                            <clipitem frameBlend="FALSE" id="clipitem-466">
                                <media>
                                    <video>
                                        <samplecharacteristics>
                                            <height>720</height>
                                            <width>1270</width>
                                        </samplecharacteristics>
                                    </video>
                                </media>
                                <file id="file-1">
                                    <pathurl>/home/davidk/code/python/JC-render/JC-examples/yoga.mp4</pathurl>
                                    <name>yoga.mp4</name>
                                    <rate>
                                        <timebase>30</timebase>
                                        <ntsc>TRUE</ntsc>
                                    </rate>
                                    <duration>54922</duration>
                                    <timecode>
                                        <rate>
                                            <timebase>30</timebase>
                                            <ntsc>TRUE</ntsc>
                                        </rate>
                                        <string>00:00:00:00</string>
                                        <frame>0</frame>
                                        <displayformat>NDF</displayformat>
                                        <media>
                                            <video/>
                                            <audio/>
                                        </media>
                                    </timecode>
                                </file>
                                <name>/home/davidk/code/python/JC-render/JC-examples/yoga.mp4</name>
                                <rate>
                                    <timebase>30</timebase>
                                    <ntsc>TRUE</ntsc>
                                </rate>
                                <start>22290</start>
                                <end>22299</end>
                            </clipitem>
                            <clipitem frameBlend="FALSE" id="clipitem-467">
                                <media>
                                    <video>
                                        <samplecharacteristics>
                                            <height>720</height>
                                            <width>1270</width>
                                        </samplecharacteristics>
                                    </video>
                                </media>
                                <file id="file-1">
                                    <pathurl>/home/davidk/code/python/JC-render/JC-examples/yoga.mp4</pathurl>
                                    <name>yoga.mp4</name>
                                    <rate>
                                        <timebase>30</timebase>
                                        <ntsc>TRUE</ntsc>
                                    </rate>
                                    <duration>54922</duration>
                                    <timecode>
                                        <rate>
                                            <timebase>30</timebase>
                                            <ntsc>TRUE</ntsc>
                                        </rate>
                                        <string>00:00:00:00</string>
                                        <frame>0</frame>
                                        <displayformat>NDF</displayformat>
                                        <media>
                                            <video/>
                                            <audio/>
                                        </media>
                                    </timecode>
                                </file>
                                <name>/home/davidk/code/python/JC-render/JC-examples/yoga.mp4</name>
                                <rate>
                                    <timebase>30</timebase>
                                    <ntsc>TRUE</ntsc>
                                </rate>
                                <start>22299</start>
                                <end>22315</end>
                            </clipitem>
                            <clipitem frameBlend="FALSE" id="clipitem-468">
                                <media>
                                    <video>
                                        <samplecharacteristics>
                                            <height>720</height>
                                            <width>1270</width>
                                        </samplecharacteristics>
                                    </video>
                                </media>
                                <file id="file-1">
                                    <pathurl>/home/davidk/code/python/JC-render/JC-examples/yoga.mp4</pathurl>
                                    <name>yoga.mp4</name>
                                    <rate>
                                        <timebase>30</timebase>
                                        <ntsc>TRUE</ntsc>
                                    </rate>
                                    <duration>54922</duration>
                                    <timecode>
                                        <rate>
                                            <timebase>30</timebase>
                                            <ntsc>TRUE</ntsc>
                                        </rate>
                                        <string>00:00:00:00</string>
                                        <frame>0</frame>
                                        <displayformat>NDF</displayformat>
                                        <media>
                                            <video/>
                                            <audio/>
                                        </media>
                                    </timecode>
                                </file>
                                <name>/home/davidk/code/python/JC-render/JC-examples/yoga.mp4</name>
                                <rate>
                                    <timebase>30</timebase>
                                    <ntsc>TRUE</ntsc>
                                </rate>
                                <start>22315</start>
                                <end>22365</end>
                            </clipitem>
                            <clipitem frameBlend="FALSE" id="clipitem-469">
                                <media>
                                    <video>
                                        <samplecharacteristics>
                                            <height>720</height>
                                            <width>1270</width>
                                        </samplecharacteristics>
                                    </video>
                                </media>
                                <file id="file-1">
                                    <pathurl>/home/davidk/code/python/JC-render/JC-examples/yoga.mp4</pathurl>
                                    <name>yoga.mp4</name>
                                    <rate>
                                        <timebase>30</timebase>
                                        <ntsc>TRUE</ntsc>
                                    </rate>
                                    <duration>54922</duration>
                                    <timecode>
                                        <rate>
                                            <timebase>30</timebase>
                                            <ntsc>TRUE</ntsc>
                                        </rate>
                                        <string>00:00:00:00</string>
                                        <frame>0</frame>
                                        <displayformat>NDF</displayformat>
                                        <media>
                                            <video/>
                                            <audio/>
                                        </media>
                                    </timecode>
                                </file>
                                <name>/home/davidk/code/python/JC-render/JC-examples/yoga.mp4</name>
                                <rate>
                                    <timebase>30</timebase>
                                    <ntsc>TRUE</ntsc>
                                </rate>
                                <start>22365</start>
                                <end>22457</end>
                            </clipitem>
                            <clipitem frameBlend="FALSE" id="clipitem-470">
                                <media>
                                    <video>
                                        <samplecharacteristics>
                                            <height>720</height>
                                            <width>1270</width>
                                        </samplecharacteristics>
                                    </video>
                                </media>
                                <file id="file-1">
                                    <pathurl>/home/davidk/code/python/JC-render/JC-examples/yoga.mp4</pathurl>
                                    <name>yoga.mp4</name>
                                    <rate>
                                        <timebase>30</timebase>
                                        <ntsc>TRUE</ntsc>
                                    </rate>
                                    <duration>54922</duration>
                                    <timecode>
                                        <rate>
                                            <timebase>30</timebase>
                                            <ntsc>TRUE</ntsc>
                                        </rate>
                                        <string>00:00:00:00</string>
                                        <frame>0</frame>
                                        <displayformat>NDF</displayformat>
                                        <media>
                                            <video/>
                                            <audio/>
                                        </media>
                                    </timecode>
                                </file>
                                <name>/home/davidk/code/python/JC-render/JC-examples/yoga.mp4</name>
                                <rate>
                                    <timebase>30</timebase>
                                    <ntsc>TRUE</ntsc>
                                </rate>
                                <start>22457</start>
                                <end>22480</end>
                            </clipitem>
                            <clipitem frameBlend="FALSE" id="clipitem-471">
                                <media>
                                    <video>
                                        <samplecharacteristics>
                                            <height>720</height>
                                            <width>1270</width>
                                        </samplecharacteristics>
                                    </video>
                                </media>
                                <file id="file-1">
                                    <pathurl>/home/davidk/code/python/JC-render/JC-examples/yoga.mp4</pathurl>
                                    <name>yoga.mp4</name>
                                    <rate>
                                        <timebase>30</timebase>
                                        <ntsc>TRUE</ntsc>
                                    </rate>
                                    <duration>54922</duration>
                                    <timecode>
                                        <rate>
                                            <timebase>30</timebase>
                                            <ntsc>TRUE</ntsc>
                                        </rate>
                                        <string>00:00:00:00</string>
                                        <frame>0</frame>
                                        <displayformat>NDF</displayformat>
                                        <media>
                                            <video/>
                                            <audio/>
                                        </media>
                                    </timecode>
                                </file>
                                <name>/home/davidk/code/python/JC-render/JC-examples/yoga.mp4</name>
                                <rate>
                                    <timebase>30</timebase>
                                    <ntsc>TRUE</ntsc>
                                </rate>
                                <start>22480</start>
                                <end>22513</end>
                            </clipitem>
                            <clipitem frameBlend="FALSE" id="clipitem-472">
                                <media>
                                    <video>
                                        <samplecharacteristics>
                                            <height>720</height>
                                            <width>1270</width>
                                        </samplecharacteristics>
                                    </video>
                                </media>
                                <file id="file-1">
                                    <pathurl>/home/davidk/code/python/JC-render/JC-examples/yoga.mp4</pathurl>
                                    <name>yoga.mp4</name>
                                    <rate>
                                        <timebase>30</timebase>
                                        <ntsc>TRUE</ntsc>
                                    </rate>
                                    <duration>54922</duration>
                                    <timecode>
                                        <rate>
                                            <timebase>30</timebase>
                                            <ntsc>TRUE</ntsc>
                                        </rate>
                                        <string>00:00:00:00</string>
                                        <frame>0</frame>
                                        <displayformat>NDF</displayformat>
                                        <media>
                                            <video/>
                                            <audio/>
                                        </media>
                                    </timecode>
                                </file>
                                <name>/home/davidk/code/python/JC-render/JC-examples/yoga.mp4</name>
                                <rate>
                                    <timebase>30</timebase>
                                    <ntsc>TRUE</ntsc>
                                </rate>
                                <start>22513</start>
                                <end>22529</end>
                            </clipitem>
                            <clipitem frameBlend="FALSE" id="clipitem-473">
                                <media>
                                    <video>
                                        <samplecharacteristics>
                                            <height>720</height>
                                            <width>1270</width>
                                        </samplecharacteristics>
                                    </video>
                                </media>
                                <file id="file-1">
                                    <pathurl>/home/davidk/code/python/JC-render/JC-examples/yoga.mp4</pathurl>
                                    <name>yoga.mp4</name>
                                    <rate>
                                        <timebase>30</timebase>
                                        <ntsc>TRUE</ntsc>
                                    </rate>
                                    <duration>54922</duration>
                                    <timecode>
                                        <rate>
                                            <timebase>30</timebase>
                                            <ntsc>TRUE</ntsc>
                                        </rate>
                                        <string>00:00:00:00</string>
                                        <frame>0</frame>
                                        <displayformat>NDF</displayformat>
                                        <media>
                                            <video/>
                                            <audio/>
                                        </media>
                                    </timecode>
                                </file>
                                <name>/home/davidk/code/python/JC-render/JC-examples/yoga.mp4</name>
                                <rate>
                                    <timebase>30</timebase>
                                    <ntsc>TRUE</ntsc>
                                </rate>
                                <start>22529</start>
                                <end>22579</end>
                            </clipitem>
                            <clipitem frameBlend="FALSE" id="clipitem-474">
                                <media>
                                    <video>
                                        <samplecharacteristics>
                                            <height>720</height>
                                            <width>1270</width>
                                        </samplecharacteristics>
                                    </video>
                                </media>
                                <file id="file-1">
                                    <pathurl>/home/davidk/code/python/JC-render/JC-examples/yoga.mp4</pathurl>
                                    <name>yoga.mp4</name>
                                    <rate>
                                        <timebase>30</timebase>
                                        <ntsc>TRUE</ntsc>
                                    </rate>
                                    <duration>54922</duration>
                                    <timecode>
                                        <rate>
                                            <timebase>30</timebase>
                                            <ntsc>TRUE</ntsc>
                                        </rate>
                                        <string>00:00:00:00</string>
                                        <frame>0</frame>
                                        <displayformat>NDF</displayformat>
                                        <media>
                                            <video/>
                                            <audio/>
                                        </media>
                                    </timecode>
                                </file>
                                <name>/home/davidk/code/python/JC-render/JC-examples/yoga.mp4</name>
                                <rate>
                                    <timebase>30</timebase>
                                    <ntsc>TRUE</ntsc>
                                </rate>
                                <start>22579</start>
                                <end>22613</end>
                            </clipitem>
                            <clipitem frameBlend="FALSE" id="clipitem-475">
                                <media>
                                    <video>
                                        <samplecharacteristics>
                                            <height>720</height>
                                            <width>1270</width>
                                        </samplecharacteristics>
                                    </video>
                                </media>
                                <file id="file-1">
                                    <pathurl>/home/davidk/code/python/JC-render/JC-examples/yoga.mp4</pathurl>
                                    <name>yoga.mp4</name>
                                    <rate>
                                        <timebase>30</timebase>
                                        <ntsc>TRUE</ntsc>
                                    </rate>
                                    <duration>54922</duration>
                                    <timecode>
                                        <rate>
                                            <timebase>30</timebase>
                                            <ntsc>TRUE</ntsc>
                                        </rate>
                                        <string>00:00:00:00</string>
                                        <frame>0</frame>
                                        <displayformat>NDF</displayformat>
                                        <media>
                                            <video/>
                                            <audio/>
                                        </media>
                                    </timecode>
                                </file>
                                <name>/home/davidk/code/python/JC-render/JC-examples/yoga.mp4</name>
                                <rate>
                                    <timebase>30</timebase>
                                    <ntsc>TRUE</ntsc>
                                </rate>
                                <start>22613</start>
                                <end>22670</end>
                            </clipitem>
                            <clipitem frameBlend="FALSE" id="clipitem-476">
                                <media>
                                    <video>
                                        <samplecharacteristics>
                                            <height>720</height>
                                            <width>1270</width>
                                        </samplecharacteristics>
                                    </video>
                                </media>
                                <file id="file-1">
                                    <pathurl>/home/davidk/code/python/JC-render/JC-examples/yoga.mp4</pathurl>
                                    <name>yoga.mp4</name>
                                    <rate>
                                        <timebase>30</timebase>
                                        <ntsc>TRUE</ntsc>
                                    </rate>
                                    <duration>54922</duration>
                                    <timecode>
                                        <rate>
                                            <timebase>30</timebase>
                                            <ntsc>TRUE</ntsc>
                                        </rate>
                                        <string>00:00:00:00</string>
                                        <frame>0</frame>
                                        <displayformat>NDF</displayformat>
                                        <media>
                                            <video/>
                                            <audio/>
                                        </media>
                                    </timecode>
                                </file>
                                <name>/home/davidk/code/python/JC-render/JC-examples/yoga.mp4</name>
                                <rate>
                                    <timebase>30</timebase>
                                    <ntsc>TRUE</ntsc>
                                </rate>
                                <start>22670</start>
                                <end>22762</end>
                            </clipitem>
                            <clipitem frameBlend="FALSE" id="clipitem-477">
                                <media>
                                    <video>
                                        <samplecharacteristics>
                                            <height>720</height>
                                            <width>1270</width>
                                        </samplecharacteristics>
                                    </video>
                                </media>
                                <file id="file-1">
                                    <pathurl>/home/davidk/code/python/JC-render/JC-examples/yoga.mp4</pathurl>
                                    <name>yoga.mp4</name>
                                    <rate>
                                        <timebase>30</timebase>
                                        <ntsc>TRUE</ntsc>
                                    </rate>
                                    <duration>54922</duration>
                                    <timecode>
                                        <rate>
                                            <timebase>30</timebase>
                                            <ntsc>TRUE</ntsc>
                                        </rate>
                                        <string>00:00:00:00</string>
                                        <frame>0</frame>
                                        <displayformat>NDF</displayformat>
                                        <media>
                                            <video/>
                                            <audio/>
                                        </media>
                                    </timecode>
                                </file>
                                <name>/home/davidk/code/python/JC-render/JC-examples/yoga.mp4</name>
                                <rate>
                                    <timebase>30</timebase>
                                    <ntsc>TRUE</ntsc>
                                </rate>
                                <start>22762</start>
                                <end>22889</end>
                            </clipitem>
                            <clipitem frameBlend="FALSE" id="clipitem-478">
                                <media>
                                    <video>
                                        <samplecharacteristics>
                                            <height>720</height>
                                            <width>1270</width>
                                        </samplecharacteristics>
                                    </video>
                                </media>
                                <file id="file-1">
                                    <pathurl>/home/davidk/code/python/JC-render/JC-examples/yoga.mp4</pathurl>
                                    <name>yoga.mp4</name>
                                    <rate>
                                        <timebase>30</timebase>
                                        <ntsc>TRUE</ntsc>
                                    </rate>
                                    <duration>54922</duration>
                                    <timecode>
                                        <rate>
                                            <timebase>30</timebase>
                                            <ntsc>TRUE</ntsc>
                                        </rate>
                                        <string>00:00:00:00</string>
                                        <frame>0</frame>
                                        <displayformat>NDF</displayformat>
                                        <media>
                                            <video/>
                                            <audio/>
                                        </media>
                                    </timecode>
                                </file>
                                <name>/home/davidk/code/python/JC-render/JC-examples/yoga.mp4</name>
                                <rate>
                                    <timebase>30</timebase>
                                    <ntsc>TRUE</ntsc>
                                </rate>
                                <start>22889</start>
                                <end>22891</end>
                            </clipitem>
                            <clipitem frameBlend="FALSE" id="clipitem-479">
                                <media>
                                    <video>
                                        <samplecharacteristics>
                                            <height>720</height>
                                            <width>1270</width>
                                        </samplecharacteristics>
                                    </video>
                                </media>
                                <file id="file-1">
                                    <pathurl>/home/davidk/code/python/JC-render/JC-examples/yoga.mp4</pathurl>
                                    <name>yoga.mp4</name>
                                    <rate>
                                        <timebase>30</timebase>
                                        <ntsc>TRUE</ntsc>
                                    </rate>
                                    <duration>54922</duration>
                                    <timecode>
                                        <rate>
                                            <timebase>30</timebase>
                                            <ntsc>TRUE</ntsc>
                                        </rate>
                                        <string>00:00:00:00</string>
                                        <frame>0</frame>
                                        <displayformat>NDF</displayformat>
                                        <media>
                                            <video/>
                                            <audio/>
                                        </media>
                                    </timecode>
                                </file>
                                <name>/home/davidk/code/python/JC-render/JC-examples/yoga.mp4</name>
                                <rate>
                                    <timebase>30</timebase>
                                    <ntsc>TRUE</ntsc>
                                </rate>
                                <start>22891</start>
                                <end>22945</end>
                            </clipitem>
                            <clipitem frameBlend="FALSE" id="clipitem-480">
                                <media>
                                    <video>
                                        <samplecharacteristics>
                                            <height>720</height>
                                            <width>1270</width>
                                        </samplecharacteristics>
                                    </video>
                                </media>
                                <file id="file-1">
                                    <pathurl>/home/davidk/code/python/JC-render/JC-examples/yoga.mp4</pathurl>
                                    <name>yoga.mp4</name>
                                    <rate>
                                        <timebase>30</timebase>
                                        <ntsc>TRUE</ntsc>
                                    </rate>
                                    <duration>54922</duration>
                                    <timecode>
                                        <rate>
                                            <timebase>30</timebase>
                                            <ntsc>TRUE</ntsc>
                                        </rate>
                                        <string>00:00:00:00</string>
                                        <frame>0</frame>
                                        <displayformat>NDF</displayformat>
                                        <media>
                                            <video/>
                                            <audio/>
                                        </media>
                                    </timecode>
                                </file>
                                <name>/home/davidk/code/python/JC-render/JC-examples/yoga.mp4</name>
                                <rate>
                                    <timebase>30</timebase>
                                    <ntsc>TRUE</ntsc>
                                </rate>
                                <start>22945</start>
                                <end>22964</end>
                            </clipitem>
                            <clipitem frameBlend="FALSE" id="clipitem-481">
                                <media>
                                    <video>
                                        <samplecharacteristics>
                                            <height>720</height>
                                            <width>1270</width>
                                        </samplecharacteristics>
                                    </video>
                                </media>
                                <file id="file-1">
                                    <pathurl>/home/davidk/code/python/JC-render/JC-examples/yoga.mp4</pathurl>
                                    <name>yoga.mp4</name>
                                    <rate>
                                        <timebase>30</timebase>
                                        <ntsc>TRUE</ntsc>
                                    </rate>
                                    <duration>54922</duration>
                                    <timecode>
                                        <rate>
                                            <timebase>30</timebase>
                                            <ntsc>TRUE</ntsc>
                                        </rate>
                                        <string>00:00:00:00</string>
                                        <frame>0</frame>
                                        <displayformat>NDF</displayformat>
                                        <media>
                                            <video/>
                                            <audio/>
                                        </media>
                                    </timecode>
                                </file>
                                <name>/home/davidk/code/python/JC-render/JC-examples/yoga.mp4</name>
                                <rate>
                                    <timebase>30</timebase>
                                    <ntsc>TRUE</ntsc>
                                </rate>
                                <start>22964</start>
                                <end>23008</end>
                            </clipitem>
                            <clipitem frameBlend="FALSE" id="clipitem-482">
                                <media>
                                    <video>
                                        <samplecharacteristics>
                                            <height>720</height>
                                            <width>1270</width>
                                        </samplecharacteristics>
                                    </video>
                                </media>
                                <file id="file-1">
                                    <pathurl>/home/davidk/code/python/JC-render/JC-examples/yoga.mp4</pathurl>
                                    <name>yoga.mp4</name>
                                    <rate>
                                        <timebase>30</timebase>
                                        <ntsc>TRUE</ntsc>
                                    </rate>
                                    <duration>54922</duration>
                                    <timecode>
                                        <rate>
                                            <timebase>30</timebase>
                                            <ntsc>TRUE</ntsc>
                                        </rate>
                                        <string>00:00:00:00</string>
                                        <frame>0</frame>
                                        <displayformat>NDF</displayformat>
                                        <media>
                                            <video/>
                                            <audio/>
                                        </media>
                                    </timecode>
                                </file>
                                <name>/home/davidk/code/python/JC-render/JC-examples/yoga.mp4</name>
                                <rate>
                                    <timebase>30</timebase>
                                    <ntsc>TRUE</ntsc>
                                </rate>
                                <start>23008</start>
                                <end>23024</end>
                            </clipitem>
                            <clipitem frameBlend="FALSE" id="clipitem-483">
                                <media>
                                    <video>
                                        <samplecharacteristics>
                                            <height>720</height>
                                            <width>1270</width>
                                        </samplecharacteristics>
                                    </video>
                                </media>
                                <file id="file-1">
                                    <pathurl>/home/davidk/code/python/JC-render/JC-examples/yoga.mp4</pathurl>
                                    <name>yoga.mp4</name>
                                    <rate>
                                        <timebase>30</timebase>
                                        <ntsc>TRUE</ntsc>
                                    </rate>
                                    <duration>54922</duration>
                                    <timecode>
                                        <rate>
                                            <timebase>30</timebase>
                                            <ntsc>TRUE</ntsc>
                                        </rate>
                                        <string>00:00:00:00</string>
                                        <frame>0</frame>
                                        <displayformat>NDF</displayformat>
                                        <media>
                                            <video/>
                                            <audio/>
                                        </media>
                                    </timecode>
                                </file>
                                <name>/home/davidk/code/python/JC-render/JC-examples/yoga.mp4</name>
                                <rate>
                                    <timebase>30</timebase>
                                    <ntsc>TRUE</ntsc>
                                </rate>
                                <start>23024</start>
                                <end>23088</end>
                            </clipitem>
                            <clipitem frameBlend="FALSE" id="clipitem-484">
                                <media>
                                    <video>
                                        <samplecharacteristics>
                                            <height>720</height>
                                            <width>1270</width>
                                        </samplecharacteristics>
                                    </video>
                                </media>
                                <file id="file-1">
                                    <pathurl>/home/davidk/code/python/JC-render/JC-examples/yoga.mp4</pathurl>
                                    <name>yoga.mp4</name>
                                    <rate>
                                        <timebase>30</timebase>
                                        <ntsc>TRUE</ntsc>
                                    </rate>
                                    <duration>54922</duration>
                                    <timecode>
                                        <rate>
                                            <timebase>30</timebase>
                                            <ntsc>TRUE</ntsc>
                                        </rate>
                                        <string>00:00:00:00</string>
                                        <frame>0</frame>
                                        <displayformat>NDF</displayformat>
                                        <media>
                                            <video/>
                                            <audio/>
                                        </media>
                                    </timecode>
                                </file>
                                <name>/home/davidk/code/python/JC-render/JC-examples/yoga.mp4</name>
                                <rate>
                                    <timebase>30</timebase>
                                    <ntsc>TRUE</ntsc>
                                </rate>
                                <start>23088</start>
                                <end>23093</end>
                            </clipitem>
                            <clipitem frameBlend="FALSE" id="clipitem-485">
                                <media>
                                    <video>
                                        <samplecharacteristics>
                                            <height>720</height>
                                            <width>1270</width>
                                        </samplecharacteristics>
                                    </video>
                                </media>
                                <file id="file-1">
                                    <pathurl>/home/davidk/code/python/JC-render/JC-examples/yoga.mp4</pathurl>
                                    <name>yoga.mp4</name>
                                    <rate>
                                        <timebase>30</timebase>
                                        <ntsc>TRUE</ntsc>
                                    </rate>
                                    <duration>54922</duration>
                                    <timecode>
                                        <rate>
                                            <timebase>30</timebase>
                                            <ntsc>TRUE</ntsc>
                                        </rate>
                                        <string>00:00:00:00</string>
                                        <frame>0</frame>
                                        <displayformat>NDF</displayformat>
                                        <media>
                                            <video/>
                                            <audio/>
                                        </media>
                                    </timecode>
                                </file>
                                <name>/home/davidk/code/python/JC-render/JC-examples/yoga.mp4</name>
                                <rate>
                                    <timebase>30</timebase>
                                    <ntsc>TRUE</ntsc>
                                </rate>
                                <start>23093</start>
                                <end>23161</end>
                            </clipitem>
                            <clipitem frameBlend="FALSE" id="clipitem-486">
                                <media>
                                    <video>
                                        <samplecharacteristics>
                                            <height>720</height>
                                            <width>1270</width>
                                        </samplecharacteristics>
                                    </video>
                                </media>
                                <file id="file-1">
                                    <pathurl>/home/davidk/code/python/JC-render/JC-examples/yoga.mp4</pathurl>
                                    <name>yoga.mp4</name>
                                    <rate>
                                        <timebase>30</timebase>
                                        <ntsc>TRUE</ntsc>
                                    </rate>
                                    <duration>54922</duration>
                                    <timecode>
                                        <rate>
                                            <timebase>30</timebase>
                                            <ntsc>TRUE</ntsc>
                                        </rate>
                                        <string>00:00:00:00</string>
                                        <frame>0</frame>
                                        <displayformat>NDF</displayformat>
                                        <media>
                                            <video/>
                                            <audio/>
                                        </media>
                                    </timecode>
                                </file>
                                <name>/home/davidk/code/python/JC-render/JC-examples/yoga.mp4</name>
                                <rate>
                                    <timebase>30</timebase>
                                    <ntsc>TRUE</ntsc>
                                </rate>
                                <start>23161</start>
                                <end>23170</end>
                            </clipitem>
                            <clipitem frameBlend="FALSE" id="clipitem-487">
                                <media>
                                    <video>
                                        <samplecharacteristics>
                                            <height>720</height>
                                            <width>1270</width>
                                        </samplecharacteristics>
                                    </video>
                                </media>
                                <file id="file-1">
                                    <pathurl>/home/davidk/code/python/JC-render/JC-examples/yoga.mp4</pathurl>
                                    <name>yoga.mp4</name>
                                    <rate>
                                        <timebase>30</timebase>
                                        <ntsc>TRUE</ntsc>
                                    </rate>
                                    <duration>54922</duration>
                                    <timecode>
                                        <rate>
                                            <timebase>30</timebase>
                                            <ntsc>TRUE</ntsc>
                                        </rate>
                                        <string>00:00:00:00</string>
                                        <frame>0</frame>
                                        <displayformat>NDF</displayformat>
                                        <media>
                                            <video/>
                                            <audio/>
                                        </media>
                                    </timecode>
                                </file>
                                <name>/home/davidk/code/python/JC-render/JC-examples/yoga.mp4</name>
                                <rate>
                                    <timebase>30</timebase>
                                    <ntsc>TRUE</ntsc>
                                </rate>
                                <start>23170</start>
                                <end>23224</end>
                            </clipitem>
                            <clipitem frameBlend="FALSE" id="clipitem-488">
                                <media>
                                    <video>
                                        <samplecharacteristics>
                                            <height>720</height>
                                            <width>1270</width>
                                        </samplecharacteristics>
                                    </video>
                                </media>
                                <file id="file-1">
                                    <pathurl>/home/davidk/code/python/JC-render/JC-examples/yoga.mp4</pathurl>
                                    <name>yoga.mp4</name>
                                    <rate>
                                        <timebase>30</timebase>
                                        <ntsc>TRUE</ntsc>
                                    </rate>
                                    <duration>54922</duration>
                                    <timecode>
                                        <rate>
                                            <timebase>30</timebase>
                                            <ntsc>TRUE</ntsc>
                                        </rate>
                                        <string>00:00:00:00</string>
                                        <frame>0</frame>
                                        <displayformat>NDF</displayformat>
                                        <media>
                                            <video/>
                                            <audio/>
                                        </media>
                                    </timecode>
                                </file>
                                <name>/home/davidk/code/python/JC-render/JC-examples/yoga.mp4</name>
                                <rate>
                                    <timebase>30</timebase>
                                    <ntsc>TRUE</ntsc>
                                </rate>
                                <start>23224</start>
                                <end>23229</end>
                            </clipitem>
                            <clipitem frameBlend="FALSE" id="clipitem-489">
                                <media>
                                    <video>
                                        <samplecharacteristics>
                                            <height>720</height>
                                            <width>1270</width>
                                        </samplecharacteristics>
                                    </video>
                                </media>
                                <file id="file-1">
                                    <pathurl>/home/davidk/code/python/JC-render/JC-examples/yoga.mp4</pathurl>
                                    <name>yoga.mp4</name>
                                    <rate>
                                        <timebase>30</timebase>
                                        <ntsc>TRUE</ntsc>
                                    </rate>
                                    <duration>54922</duration>
                                    <timecode>
                                        <rate>
                                            <timebase>30</timebase>
                                            <ntsc>TRUE</ntsc>
                                        </rate>
                                        <string>00:00:00:00</string>
                                        <frame>0</frame>
                                        <displayformat>NDF</displayformat>
                                        <media>
                                            <video/>
                                            <audio/>
                                        </media>
                                    </timecode>
                                </file>
                                <name>/home/davidk/code/python/JC-render/JC-examples/yoga.mp4</name>
                                <rate>
                                    <timebase>30</timebase>
                                    <ntsc>TRUE</ntsc>
                                </rate>
                                <start>23229</start>
                                <end>23300</end>
                            </clipitem>
                            <clipitem frameBlend="FALSE" id="clipitem-490">
                                <media>
                                    <video>
                                        <samplecharacteristics>
                                            <height>720</height>
                                            <width>1270</width>
                                        </samplecharacteristics>
                                    </video>
                                </media>
                                <file id="file-1">
                                    <pathurl>/home/davidk/code/python/JC-render/JC-examples/yoga.mp4</pathurl>
                                    <name>yoga.mp4</name>
                                    <rate>
                                        <timebase>30</timebase>
                                        <ntsc>TRUE</ntsc>
                                    </rate>
                                    <duration>54922</duration>
                                    <timecode>
                                        <rate>
                                            <timebase>30</timebase>
                                            <ntsc>TRUE</ntsc>
                                        </rate>
                                        <string>00:00:00:00</string>
                                        <frame>0</frame>
                                        <displayformat>NDF</displayformat>
                                        <media>
                                            <video/>
                                            <audio/>
                                        </media>
                                    </timecode>
                                </file>
                                <name>/home/davidk/code/python/JC-render/JC-examples/yoga.mp4</name>
                                <rate>
                                    <timebase>30</timebase>
                                    <ntsc>TRUE</ntsc>
                                </rate>
                                <start>23300</start>
                                <end>23347</end>
                            </clipitem>
                            <clipitem frameBlend="FALSE" id="clipitem-491">
                                <media>
                                    <video>
                                        <samplecharacteristics>
                                            <height>720</height>
                                            <width>1270</width>
                                        </samplecharacteristics>
                                    </video>
                                </media>
                                <file id="file-1">
                                    <pathurl>/home/davidk/code/python/JC-render/JC-examples/yoga.mp4</pathurl>
                                    <name>yoga.mp4</name>
                                    <rate>
                                        <timebase>30</timebase>
                                        <ntsc>TRUE</ntsc>
                                    </rate>
                                    <duration>54922</duration>
                                    <timecode>
                                        <rate>
                                            <timebase>30</timebase>
                                            <ntsc>TRUE</ntsc>
                                        </rate>
                                        <string>00:00:00:00</string>
                                        <frame>0</frame>
                                        <displayformat>NDF</displayformat>
                                        <media>
                                            <video/>
                                            <audio/>
                                        </media>
                                    </timecode>
                                </file>
                                <name>/home/davidk/code/python/JC-render/JC-examples/yoga.mp4</name>
                                <rate>
                                    <timebase>30</timebase>
                                    <ntsc>TRUE</ntsc>
                                </rate>
                                <start>23347</start>
                                <end>23405</end>
                            </clipitem>
                            <clipitem frameBlend="FALSE" id="clipitem-492">
                                <media>
                                    <video>
                                        <samplecharacteristics>
                                            <height>720</height>
                                            <width>1270</width>
                                        </samplecharacteristics>
                                    </video>
                                </media>
                                <file id="file-1">
                                    <pathurl>/home/davidk/code/python/JC-render/JC-examples/yoga.mp4</pathurl>
                                    <name>yoga.mp4</name>
                                    <rate>
                                        <timebase>30</timebase>
                                        <ntsc>TRUE</ntsc>
                                    </rate>
                                    <duration>54922</duration>
                                    <timecode>
                                        <rate>
                                            <timebase>30</timebase>
                                            <ntsc>TRUE</ntsc>
                                        </rate>
                                        <string>00:00:00:00</string>
                                        <frame>0</frame>
                                        <displayformat>NDF</displayformat>
                                        <media>
                                            <video/>
                                            <audio/>
                                        </media>
                                    </timecode>
                                </file>
                                <name>/home/davidk/code/python/JC-render/JC-examples/yoga.mp4</name>
                                <rate>
                                    <timebase>30</timebase>
                                    <ntsc>TRUE</ntsc>
                                </rate>
                                <start>23405</start>
                                <end>23410</end>
                            </clipitem>
                            <clipitem frameBlend="FALSE" id="clipitem-493">
                                <media>
                                    <video>
                                        <samplecharacteristics>
                                            <height>720</height>
                                            <width>1270</width>
                                        </samplecharacteristics>
                                    </video>
                                </media>
                                <file id="file-1">
                                    <pathurl>/home/davidk/code/python/JC-render/JC-examples/yoga.mp4</pathurl>
                                    <name>yoga.mp4</name>
                                    <rate>
                                        <timebase>30</timebase>
                                        <ntsc>TRUE</ntsc>
                                    </rate>
                                    <duration>54922</duration>
                                    <timecode>
                                        <rate>
                                            <timebase>30</timebase>
                                            <ntsc>TRUE</ntsc>
                                        </rate>
                                        <string>00:00:00:00</string>
                                        <frame>0</frame>
                                        <displayformat>NDF</displayformat>
                                        <media>
                                            <video/>
                                            <audio/>
                                        </media>
                                    </timecode>
                                </file>
                                <name>/home/davidk/code/python/JC-render/JC-examples/yoga.mp4</name>
                                <rate>
                                    <timebase>30</timebase>
                                    <ntsc>TRUE</ntsc>
                                </rate>
                                <start>23410</start>
                                <end>23457</end>
                            </clipitem>
                            <clipitem frameBlend="FALSE" id="clipitem-494">
                                <media>
                                    <video>
                                        <samplecharacteristics>
                                            <height>720</height>
                                            <width>1270</width>
                                        </samplecharacteristics>
                                    </video>
                                </media>
                                <file id="file-1">
                                    <pathurl>/home/davidk/code/python/JC-render/JC-examples/yoga.mp4</pathurl>
                                    <name>yoga.mp4</name>
                                    <rate>
                                        <timebase>30</timebase>
                                        <ntsc>TRUE</ntsc>
                                    </rate>
                                    <duration>54922</duration>
                                    <timecode>
                                        <rate>
                                            <timebase>30</timebase>
                                            <ntsc>TRUE</ntsc>
                                        </rate>
                                        <string>00:00:00:00</string>
                                        <frame>0</frame>
                                        <displayformat>NDF</displayformat>
                                        <media>
                                            <video/>
                                            <audio/>
                                        </media>
                                    </timecode>
                                </file>
                                <name>/home/davidk/code/python/JC-render/JC-examples/yoga.mp4</name>
                                <rate>
                                    <timebase>30</timebase>
                                    <ntsc>TRUE</ntsc>
                                </rate>
                                <start>23457</start>
                                <end>23504</end>
                            </clipitem>
                            <clipitem frameBlend="FALSE" id="clipitem-495">
                                <media>
                                    <video>
                                        <samplecharacteristics>
                                            <height>720</height>
                                            <width>1270</width>
                                        </samplecharacteristics>
                                    </video>
                                </media>
                                <file id="file-1">
                                    <pathurl>/home/davidk/code/python/JC-render/JC-examples/yoga.mp4</pathurl>
                                    <name>yoga.mp4</name>
                                    <rate>
                                        <timebase>30</timebase>
                                        <ntsc>TRUE</ntsc>
                                    </rate>
                                    <duration>54922</duration>
                                    <timecode>
                                        <rate>
                                            <timebase>30</timebase>
                                            <ntsc>TRUE</ntsc>
                                        </rate>
                                        <string>00:00:00:00</string>
                                        <frame>0</frame>
                                        <displayformat>NDF</displayformat>
                                        <media>
                                            <video/>
                                            <audio/>
                                        </media>
                                    </timecode>
                                </file>
                                <name>/home/davidk/code/python/JC-render/JC-examples/yoga.mp4</name>
                                <rate>
                                    <timebase>30</timebase>
                                    <ntsc>TRUE</ntsc>
                                </rate>
                                <start>23504</start>
                                <end>23537</end>
                            </clipitem>
                            <clipitem frameBlend="FALSE" id="clipitem-496">
                                <media>
                                    <video>
                                        <samplecharacteristics>
                                            <height>720</height>
                                            <width>1270</width>
                                        </samplecharacteristics>
                                    </video>
                                </media>
                                <file id="file-1">
                                    <pathurl>/home/davidk/code/python/JC-render/JC-examples/yoga.mp4</pathurl>
                                    <name>yoga.mp4</name>
                                    <rate>
                                        <timebase>30</timebase>
                                        <ntsc>TRUE</ntsc>
                                    </rate>
                                    <duration>54922</duration>
                                    <timecode>
                                        <rate>
                                            <timebase>30</timebase>
                                            <ntsc>TRUE</ntsc>
                                        </rate>
                                        <string>00:00:00:00</string>
                                        <frame>0</frame>
                                        <displayformat>NDF</displayformat>
                                        <media>
                                            <video/>
                                            <audio/>
                                        </media>
                                    </timecode>
                                </file>
                                <name>/home/davidk/code/python/JC-render/JC-examples/yoga.mp4</name>
                                <rate>
                                    <timebase>30</timebase>
                                    <ntsc>TRUE</ntsc>
                                </rate>
                                <start>23537</start>
                                <end>23539</end>
                            </clipitem>
                            <clipitem frameBlend="FALSE" id="clipitem-497">
                                <media>
                                    <video>
                                        <samplecharacteristics>
                                            <height>720</height>
                                            <width>1270</width>
                                        </samplecharacteristics>
                                    </video>
                                </media>
                                <file id="file-1">
                                    <pathurl>/home/davidk/code/python/JC-render/JC-examples/yoga.mp4</pathurl>
                                    <name>yoga.mp4</name>
                                    <rate>
                                        <timebase>30</timebase>
                                        <ntsc>TRUE</ntsc>
                                    </rate>
                                    <duration>54922</duration>
                                    <timecode>
                                        <rate>
                                            <timebase>30</timebase>
                                            <ntsc>TRUE</ntsc>
                                        </rate>
                                        <string>00:00:00:00</string>
                                        <frame>0</frame>
                                        <displayformat>NDF</displayformat>
                                        <media>
                                            <video/>
                                            <audio/>
                                        </media>
                                    </timecode>
                                </file>
                                <name>/home/davidk/code/python/JC-render/JC-examples/yoga.mp4</name>
                                <rate>
                                    <timebase>30</timebase>
                                    <ntsc>TRUE</ntsc>
                                </rate>
                                <start>23539</start>
                                <end>23589</end>
                            </clipitem>
                            <clipitem frameBlend="FALSE" id="clipitem-498">
                                <media>
                                    <video>
                                        <samplecharacteristics>
                                            <height>720</height>
                                            <width>1270</width>
                                        </samplecharacteristics>
                                    </video>
                                </media>
                                <file id="file-1">
                                    <pathurl>/home/davidk/code/python/JC-render/JC-examples/yoga.mp4</pathurl>
                                    <name>yoga.mp4</name>
                                    <rate>
                                        <timebase>30</timebase>
                                        <ntsc>TRUE</ntsc>
                                    </rate>
                                    <duration>54922</duration>
                                    <timecode>
                                        <rate>
                                            <timebase>30</timebase>
                                            <ntsc>TRUE</ntsc>
                                        </rate>
                                        <string>00:00:00:00</string>
                                        <frame>0</frame>
                                        <displayformat>NDF</displayformat>
                                        <media>
                                            <video/>
                                            <audio/>
                                        </media>
                                    </timecode>
                                </file>
                                <name>/home/davidk/code/python/JC-render/JC-examples/yoga.mp4</name>
                                <rate>
                                    <timebase>30</timebase>
                                    <ntsc>TRUE</ntsc>
                                </rate>
                                <start>23589</start>
                                <end>23616</end>
                            </clipitem>
                            <clipitem frameBlend="FALSE" id="clipitem-499">
                                <media>
                                    <video>
                                        <samplecharacteristics>
                                            <height>720</height>
                                            <width>1270</width>
                                        </samplecharacteristics>
                                    </video>
                                </media>
                                <file id="file-1">
                                    <pathurl>/home/davidk/code/python/JC-render/JC-examples/yoga.mp4</pathurl>
                                    <name>yoga.mp4</name>
                                    <rate>
                                        <timebase>30</timebase>
                                        <ntsc>TRUE</ntsc>
                                    </rate>
                                    <duration>54922</duration>
                                    <timecode>
                                        <rate>
                                            <timebase>30</timebase>
                                            <ntsc>TRUE</ntsc>
                                        </rate>
                                        <string>00:00:00:00</string>
                                        <frame>0</frame>
                                        <displayformat>NDF</displayformat>
                                        <media>
                                            <video/>
                                            <audio/>
                                        </media>
                                    </timecode>
                                </file>
                                <name>/home/davidk/code/python/JC-render/JC-examples/yoga.mp4</name>
                                <rate>
                                    <timebase>30</timebase>
                                    <ntsc>TRUE</ntsc>
                                </rate>
                                <start>23616</start>
                                <end>23642</end>
                            </clipitem>
                            <clipitem frameBlend="FALSE" id="clipitem-500">
                                <media>
                                    <video>
                                        <samplecharacteristics>
                                            <height>720</height>
                                            <width>1270</width>
                                        </samplecharacteristics>
                                    </video>
                                </media>
                                <file id="file-1">
                                    <pathurl>/home/davidk/code/python/JC-render/JC-examples/yoga.mp4</pathurl>
                                    <name>yoga.mp4</name>
                                    <rate>
                                        <timebase>30</timebase>
                                        <ntsc>TRUE</ntsc>
                                    </rate>
                                    <duration>54922</duration>
                                    <timecode>
                                        <rate>
                                            <timebase>30</timebase>
                                            <ntsc>TRUE</ntsc>
                                        </rate>
                                        <string>00:00:00:00</string>
                                        <frame>0</frame>
                                        <displayformat>NDF</displayformat>
                                        <media>
                                            <video/>
                                            <audio/>
                                        </media>
                                    </timecode>
                                </file>
                                <name>/home/davidk/code/python/JC-render/JC-examples/yoga.mp4</name>
                                <rate>
                                    <timebase>30</timebase>
                                    <ntsc>TRUE</ntsc>
                                </rate>
                                <start>23642</start>
                                <end>23692</end>
                            </clipitem>
                            <clipitem frameBlend="FALSE" id="clipitem-501">
                                <media>
                                    <video>
                                        <samplecharacteristics>
                                            <height>720</height>
                                            <width>1270</width>
                                        </samplecharacteristics>
                                    </video>
                                </media>
                                <file id="file-1">
                                    <pathurl>/home/davidk/code/python/JC-render/JC-examples/yoga.mp4</pathurl>
                                    <name>yoga.mp4</name>
                                    <rate>
                                        <timebase>30</timebase>
                                        <ntsc>TRUE</ntsc>
                                    </rate>
                                    <duration>54922</duration>
                                    <timecode>
                                        <rate>
                                            <timebase>30</timebase>
                                            <ntsc>TRUE</ntsc>
                                        </rate>
                                        <string>00:00:00:00</string>
                                        <frame>0</frame>
                                        <displayformat>NDF</displayformat>
                                        <media>
                                            <video/>
                                            <audio/>
                                        </media>
                                    </timecode>
                                </file>
                                <name>/home/davidk/code/python/JC-render/JC-examples/yoga.mp4</name>
                                <rate>
                                    <timebase>30</timebase>
                                    <ntsc>TRUE</ntsc>
                                </rate>
                                <start>23692</start>
                                <end>23715</end>
                            </clipitem>
                            <clipitem frameBlend="FALSE" id="clipitem-502">
                                <media>
                                    <video>
                                        <samplecharacteristics>
                                            <height>720</height>
                                            <width>1270</width>
                                        </samplecharacteristics>
                                    </video>
                                </media>
                                <file id="file-1">
                                    <pathurl>/home/davidk/code/python/JC-render/JC-examples/yoga.mp4</pathurl>
                                    <name>yoga.mp4</name>
                                    <rate>
                                        <timebase>30</timebase>
                                        <ntsc>TRUE</ntsc>
                                    </rate>
                                    <duration>54922</duration>
                                    <timecode>
                                        <rate>
                                            <timebase>30</timebase>
                                            <ntsc>TRUE</ntsc>
                                        </rate>
                                        <string>00:00:00:00</string>
                                        <frame>0</frame>
                                        <displayformat>NDF</displayformat>
                                        <media>
                                            <video/>
                                            <audio/>
                                        </media>
                                    </timecode>
                                </file>
                                <name>/home/davidk/code/python/JC-render/JC-examples/yoga.mp4</name>
                                <rate>
                                    <timebase>30</timebase>
                                    <ntsc>TRUE</ntsc>
                                </rate>
                                <start>23715</start>
                                <end>23776</end>
                            </clipitem>
                            <clipitem frameBlend="FALSE" id="clipitem-503">
                                <media>
                                    <video>
                                        <samplecharacteristics>
                                            <height>720</height>
                                            <width>1270</width>
                                        </samplecharacteristics>
                                    </video>
                                </media>
                                <file id="file-1">
                                    <pathurl>/home/davidk/code/python/JC-render/JC-examples/yoga.mp4</pathurl>
                                    <name>yoga.mp4</name>
                                    <rate>
                                        <timebase>30</timebase>
                                        <ntsc>TRUE</ntsc>
                                    </rate>
                                    <duration>54922</duration>
                                    <timecode>
                                        <rate>
                                            <timebase>30</timebase>
                                            <ntsc>TRUE</ntsc>
                                        </rate>
                                        <string>00:00:00:00</string>
                                        <frame>0</frame>
                                        <displayformat>NDF</displayformat>
                                        <media>
                                            <video/>
                                            <audio/>
                                        </media>
                                    </timecode>
                                </file>
                                <name>/home/davidk/code/python/JC-render/JC-examples/yoga.mp4</name>
                                <rate>
                                    <timebase>30</timebase>
                                    <ntsc>TRUE</ntsc>
                                </rate>
                                <start>23776</start>
                                <end>23795</end>
                            </clipitem>
                            <clipitem frameBlend="FALSE" id="clipitem-504">
                                <media>
                                    <video>
                                        <samplecharacteristics>
                                            <height>720</height>
                                            <width>1270</width>
                                        </samplecharacteristics>
                                    </video>
                                </media>
                                <file id="file-1">
                                    <pathurl>/home/davidk/code/python/JC-render/JC-examples/yoga.mp4</pathurl>
                                    <name>yoga.mp4</name>
                                    <rate>
                                        <timebase>30</timebase>
                                        <ntsc>TRUE</ntsc>
                                    </rate>
                                    <duration>54922</duration>
                                    <timecode>
                                        <rate>
                                            <timebase>30</timebase>
                                            <ntsc>TRUE</ntsc>
                                        </rate>
                                        <string>00:00:00:00</string>
                                        <frame>0</frame>
                                        <displayformat>NDF</displayformat>
                                        <media>
                                            <video/>
                                            <audio/>
                                        </media>
                                    </timecode>
                                </file>
                                <name>/home/davidk/code/python/JC-render/JC-examples/yoga.mp4</name>
                                <rate>
                                    <timebase>30</timebase>
                                    <ntsc>TRUE</ntsc>
                                </rate>
                                <start>23795</start>
                                <end>23797</end>
                            </clipitem>
                            <clipitem frameBlend="FALSE" id="clipitem-505">
                                <media>
                                    <video>
                                        <samplecharacteristics>
                                            <height>720</height>
                                            <width>1270</width>
                                        </samplecharacteristics>
                                    </video>
                                </media>
                                <file id="file-1">
                                    <pathurl>/home/davidk/code/python/JC-render/JC-examples/yoga.mp4</pathurl>
                                    <name>yoga.mp4</name>
                                    <rate>
                                        <timebase>30</timebase>
                                        <ntsc>TRUE</ntsc>
                                    </rate>
                                    <duration>54922</duration>
                                    <timecode>
                                        <rate>
                                            <timebase>30</timebase>
                                            <ntsc>TRUE</ntsc>
                                        </rate>
                                        <string>00:00:00:00</string>
                                        <frame>0</frame>
                                        <displayformat>NDF</displayformat>
                                        <media>
                                            <video/>
                                            <audio/>
                                        </media>
                                    </timecode>
                                </file>
                                <name>/home/davidk/code/python/JC-render/JC-examples/yoga.mp4</name>
                                <rate>
                                    <timebase>30</timebase>
                                    <ntsc>TRUE</ntsc>
                                </rate>
                                <start>23797</start>
                                <end>23865</end>
                            </clipitem>
                            <clipitem frameBlend="FALSE" id="clipitem-506">
                                <media>
                                    <video>
                                        <samplecharacteristics>
                                            <height>720</height>
                                            <width>1270</width>
                                        </samplecharacteristics>
                                    </video>
                                </media>
                                <file id="file-1">
                                    <pathurl>/home/davidk/code/python/JC-render/JC-examples/yoga.mp4</pathurl>
                                    <name>yoga.mp4</name>
                                    <rate>
                                        <timebase>30</timebase>
                                        <ntsc>TRUE</ntsc>
                                    </rate>
                                    <duration>54922</duration>
                                    <timecode>
                                        <rate>
                                            <timebase>30</timebase>
                                            <ntsc>TRUE</ntsc>
                                        </rate>
                                        <string>00:00:00:00</string>
                                        <frame>0</frame>
                                        <displayformat>NDF</displayformat>
                                        <media>
                                            <video/>
                                            <audio/>
                                        </media>
                                    </timecode>
                                </file>
                                <name>/home/davidk/code/python/JC-render/JC-examples/yoga.mp4</name>
                                <rate>
                                    <timebase>30</timebase>
                                    <ntsc>TRUE</ntsc>
                                </rate>
                                <start>23865</start>
                                <end>23870</end>
                            </clipitem>
                            <clipitem frameBlend="FALSE" id="clipitem-507">
                                <media>
                                    <video>
                                        <samplecharacteristics>
                                            <height>720</height>
                                            <width>1270</width>
                                        </samplecharacteristics>
                                    </video>
                                </media>
                                <file id="file-1">
                                    <pathurl>/home/davidk/code/python/JC-render/JC-examples/yoga.mp4</pathurl>
                                    <name>yoga.mp4</name>
                                    <rate>
                                        <timebase>30</timebase>
                                        <ntsc>TRUE</ntsc>
                                    </rate>
                                    <duration>54922</duration>
                                    <timecode>
                                        <rate>
                                            <timebase>30</timebase>
                                            <ntsc>TRUE</ntsc>
                                        </rate>
                                        <string>00:00:00:00</string>
                                        <frame>0</frame>
                                        <displayformat>NDF</displayformat>
                                        <media>
                                            <video/>
                                            <audio/>
                                        </media>
                                    </timecode>
                                </file>
                                <name>/home/davidk/code/python/JC-render/JC-examples/yoga.mp4</name>
                                <rate>
                                    <timebase>30</timebase>
                                    <ntsc>TRUE</ntsc>
                                </rate>
                                <start>23870</start>
                                <end>23917</end>
                            </clipitem>
                            <clipitem frameBlend="FALSE" id="clipitem-508">
                                <media>
                                    <video>
                                        <samplecharacteristics>
                                            <height>720</height>
                                            <width>1270</width>
                                        </samplecharacteristics>
                                    </video>
                                </media>
                                <file id="file-1">
                                    <pathurl>/home/davidk/code/python/JC-render/JC-examples/yoga.mp4</pathurl>
                                    <name>yoga.mp4</name>
                                    <rate>
                                        <timebase>30</timebase>
                                        <ntsc>TRUE</ntsc>
                                    </rate>
                                    <duration>54922</duration>
                                    <timecode>
                                        <rate>
                                            <timebase>30</timebase>
                                            <ntsc>TRUE</ntsc>
                                        </rate>
                                        <string>00:00:00:00</string>
                                        <frame>0</frame>
                                        <displayformat>NDF</displayformat>
                                        <media>
                                            <video/>
                                            <audio/>
                                        </media>
                                    </timecode>
                                </file>
                                <name>/home/davidk/code/python/JC-render/JC-examples/yoga.mp4</name>
                                <rate>
                                    <timebase>30</timebase>
                                    <ntsc>TRUE</ntsc>
                                </rate>
                                <start>23917</start>
                                <end>23933</end>
                            </clipitem>
                            <clipitem frameBlend="FALSE" id="clipitem-509">
                                <media>
                                    <video>
                                        <samplecharacteristics>
                                            <height>720</height>
                                            <width>1270</width>
                                        </samplecharacteristics>
                                    </video>
                                </media>
                                <file id="file-1">
                                    <pathurl>/home/davidk/code/python/JC-render/JC-examples/yoga.mp4</pathurl>
                                    <name>yoga.mp4</name>
                                    <rate>
                                        <timebase>30</timebase>
                                        <ntsc>TRUE</ntsc>
                                    </rate>
                                    <duration>54922</duration>
                                    <timecode>
                                        <rate>
                                            <timebase>30</timebase>
                                            <ntsc>TRUE</ntsc>
                                        </rate>
                                        <string>00:00:00:00</string>
                                        <frame>0</frame>
                                        <displayformat>NDF</displayformat>
                                        <media>
                                            <video/>
                                            <audio/>
                                        </media>
                                    </timecode>
                                </file>
                                <name>/home/davidk/code/python/JC-render/JC-examples/yoga.mp4</name>
                                <rate>
                                    <timebase>30</timebase>
                                    <ntsc>TRUE</ntsc>
                                </rate>
                                <start>23933</start>
                                <end>23990</end>
                            </clipitem>
                            <clipitem frameBlend="FALSE" id="clipitem-510">
                                <media>
                                    <video>
                                        <samplecharacteristics>
                                            <height>720</height>
                                            <width>1270</width>
                                        </samplecharacteristics>
                                    </video>
                                </media>
                                <file id="file-1">
                                    <pathurl>/home/davidk/code/python/JC-render/JC-examples/yoga.mp4</pathurl>
                                    <name>yoga.mp4</name>
                                    <rate>
                                        <timebase>30</timebase>
                                        <ntsc>TRUE</ntsc>
                                    </rate>
                                    <duration>54922</duration>
                                    <timecode>
                                        <rate>
                                            <timebase>30</timebase>
                                            <ntsc>TRUE</ntsc>
                                        </rate>
                                        <string>00:00:00:00</string>
                                        <frame>0</frame>
                                        <displayformat>NDF</displayformat>
                                        <media>
                                            <video/>
                                            <audio/>
                                        </media>
                                    </timecode>
                                </file>
                                <name>/home/davidk/code/python/JC-render/JC-examples/yoga.mp4</name>
                                <rate>
                                    <timebase>30</timebase>
                                    <ntsc>TRUE</ntsc>
                                </rate>
                                <start>23990</start>
                                <end>24002</end>
                            </clipitem>
                            <clipitem frameBlend="FALSE" id="clipitem-511">
                                <media>
                                    <video>
                                        <samplecharacteristics>
                                            <height>720</height>
                                            <width>1270</width>
                                        </samplecharacteristics>
                                    </video>
                                </media>
                                <file id="file-1">
                                    <pathurl>/home/davidk/code/python/JC-render/JC-examples/yoga.mp4</pathurl>
                                    <name>yoga.mp4</name>
                                    <rate>
                                        <timebase>30</timebase>
                                        <ntsc>TRUE</ntsc>
                                    </rate>
                                    <duration>54922</duration>
                                    <timecode>
                                        <rate>
                                            <timebase>30</timebase>
                                            <ntsc>TRUE</ntsc>
                                        </rate>
                                        <string>00:00:00:00</string>
                                        <frame>0</frame>
                                        <displayformat>NDF</displayformat>
                                        <media>
                                            <video/>
                                            <audio/>
                                        </media>
                                    </timecode>
                                </file>
                                <name>/home/davidk/code/python/JC-render/JC-examples/yoga.mp4</name>
                                <rate>
                                    <timebase>30</timebase>
                                    <ntsc>TRUE</ntsc>
                                </rate>
                                <start>24002</start>
                                <end>24049</end>
                            </clipitem>
                            <clipitem frameBlend="FALSE" id="clipitem-512">
                                <media>
                                    <video>
                                        <samplecharacteristics>
                                            <height>720</height>
                                            <width>1270</width>
                                        </samplecharacteristics>
                                    </video>
                                </media>
                                <file id="file-1">
                                    <pathurl>/home/davidk/code/python/JC-render/JC-examples/yoga.mp4</pathurl>
                                    <name>yoga.mp4</name>
                                    <rate>
                                        <timebase>30</timebase>
                                        <ntsc>TRUE</ntsc>
                                    </rate>
                                    <duration>54922</duration>
                                    <timecode>
                                        <rate>
                                            <timebase>30</timebase>
                                            <ntsc>TRUE</ntsc>
                                        </rate>
                                        <string>00:00:00:00</string>
                                        <frame>0</frame>
                                        <displayformat>NDF</displayformat>
                                        <media>
                                            <video/>
                                            <audio/>
                                        </media>
                                    </timecode>
                                </file>
                                <name>/home/davidk/code/python/JC-render/JC-examples/yoga.mp4</name>
                                <rate>
                                    <timebase>30</timebase>
                                    <ntsc>TRUE</ntsc>
                                </rate>
                                <start>24049</start>
                                <end>24055</end>
                            </clipitem>
                            <clipitem frameBlend="FALSE" id="clipitem-513">
                                <media>
                                    <video>
                                        <samplecharacteristics>
                                            <height>720</height>
                                            <width>1270</width>
                                        </samplecharacteristics>
                                    </video>
                                </media>
                                <file id="file-1">
                                    <pathurl>/home/davidk/code/python/JC-render/JC-examples/yoga.mp4</pathurl>
                                    <name>yoga.mp4</name>
                                    <rate>
                                        <timebase>30</timebase>
                                        <ntsc>TRUE</ntsc>
                                    </rate>
                                    <duration>54922</duration>
                                    <timecode>
                                        <rate>
                                            <timebase>30</timebase>
                                            <ntsc>TRUE</ntsc>
                                        </rate>
                                        <string>00:00:00:00</string>
                                        <frame>0</frame>
                                        <displayformat>NDF</displayformat>
                                        <media>
                                            <video/>
                                            <audio/>
                                        </media>
                                    </timecode>
                                </file>
                                <name>/home/davidk/code/python/JC-render/JC-examples/yoga.mp4</name>
                                <rate>
                                    <timebase>30</timebase>
                                    <ntsc>TRUE</ntsc>
                                </rate>
                                <start>24055</start>
                                <end>24080</end>
                            </clipitem>
                            <clipitem frameBlend="FALSE" id="clipitem-514">
                                <media>
                                    <video>
                                        <samplecharacteristics>
                                            <height>720</height>
                                            <width>1270</width>
                                        </samplecharacteristics>
                                    </video>
                                </media>
                                <file id="file-1">
                                    <pathurl>/home/davidk/code/python/JC-render/JC-examples/yoga.mp4</pathurl>
                                    <name>yoga.mp4</name>
                                    <rate>
                                        <timebase>30</timebase>
                                        <ntsc>TRUE</ntsc>
                                    </rate>
                                    <duration>54922</duration>
                                    <timecode>
                                        <rate>
                                            <timebase>30</timebase>
                                            <ntsc>TRUE</ntsc>
                                        </rate>
                                        <string>00:00:00:00</string>
                                        <frame>0</frame>
                                        <displayformat>NDF</displayformat>
                                        <media>
                                            <video/>
                                            <audio/>
                                        </media>
                                    </timecode>
                                </file>
                                <name>/home/davidk/code/python/JC-render/JC-examples/yoga.mp4</name>
                                <rate>
                                    <timebase>30</timebase>
                                    <ntsc>TRUE</ntsc>
                                </rate>
                                <start>24080</start>
                                <end>24145</end>
                            </clipitem>
                            <clipitem frameBlend="FALSE" id="clipitem-515">
                                <media>
                                    <video>
                                        <samplecharacteristics>
                                            <height>720</height>
                                            <width>1270</width>
                                        </samplecharacteristics>
                                    </video>
                                </media>
                                <file id="file-1">
                                    <pathurl>/home/davidk/code/python/JC-render/JC-examples/yoga.mp4</pathurl>
                                    <name>yoga.mp4</name>
                                    <rate>
                                        <timebase>30</timebase>
                                        <ntsc>TRUE</ntsc>
                                    </rate>
                                    <duration>54922</duration>
                                    <timecode>
                                        <rate>
                                            <timebase>30</timebase>
                                            <ntsc>TRUE</ntsc>
                                        </rate>
                                        <string>00:00:00:00</string>
                                        <frame>0</frame>
                                        <displayformat>NDF</displayformat>
                                        <media>
                                            <video/>
                                            <audio/>
                                        </media>
                                    </timecode>
                                </file>
                                <name>/home/davidk/code/python/JC-render/JC-examples/yoga.mp4</name>
                                <rate>
                                    <timebase>30</timebase>
                                    <ntsc>TRUE</ntsc>
                                </rate>
                                <start>24145</start>
                                <end>24178</end>
                            </clipitem>
                            <clipitem frameBlend="FALSE" id="clipitem-516">
                                <media>
                                    <video>
                                        <samplecharacteristics>
                                            <height>720</height>
                                            <width>1270</width>
                                        </samplecharacteristics>
                                    </video>
                                </media>
                                <file id="file-1">
                                    <pathurl>/home/davidk/code/python/JC-render/JC-examples/yoga.mp4</pathurl>
                                    <name>yoga.mp4</name>
                                    <rate>
                                        <timebase>30</timebase>
                                        <ntsc>TRUE</ntsc>
                                    </rate>
                                    <duration>54922</duration>
                                    <timecode>
                                        <rate>
                                            <timebase>30</timebase>
                                            <ntsc>TRUE</ntsc>
                                        </rate>
                                        <string>00:00:00:00</string>
                                        <frame>0</frame>
                                        <displayformat>NDF</displayformat>
                                        <media>
                                            <video/>
                                            <audio/>
                                        </media>
                                    </timecode>
                                </file>
                                <name>/home/davidk/code/python/JC-render/JC-examples/yoga.mp4</name>
                                <rate>
                                    <timebase>30</timebase>
                                    <ntsc>TRUE</ntsc>
                                </rate>
                                <start>24178</start>
                                <end>24183</end>
                            </clipitem>
                            <clipitem frameBlend="FALSE" id="clipitem-517">
                                <media>
                                    <video>
                                        <samplecharacteristics>
                                            <height>720</height>
                                            <width>1270</width>
                                        </samplecharacteristics>
                                    </video>
                                </media>
                                <file id="file-1">
                                    <pathurl>/home/davidk/code/python/JC-render/JC-examples/yoga.mp4</pathurl>
                                    <name>yoga.mp4</name>
                                    <rate>
                                        <timebase>30</timebase>
                                        <ntsc>TRUE</ntsc>
                                    </rate>
                                    <duration>54922</duration>
                                    <timecode>
                                        <rate>
                                            <timebase>30</timebase>
                                            <ntsc>TRUE</ntsc>
                                        </rate>
                                        <string>00:00:00:00</string>
                                        <frame>0</frame>
                                        <displayformat>NDF</displayformat>
                                        <media>
                                            <video/>
                                            <audio/>
                                        </media>
                                    </timecode>
                                </file>
                                <name>/home/davidk/code/python/JC-render/JC-examples/yoga.mp4</name>
                                <rate>
                                    <timebase>30</timebase>
                                    <ntsc>TRUE</ntsc>
                                </rate>
                                <start>24183</start>
                                <end>24216</end>
                            </clipitem>
                            <clipitem frameBlend="FALSE" id="clipitem-518">
                                <media>
                                    <video>
                                        <samplecharacteristics>
                                            <height>720</height>
                                            <width>1270</width>
                                        </samplecharacteristics>
                                    </video>
                                </media>
                                <file id="file-1">
                                    <pathurl>/home/davidk/code/python/JC-render/JC-examples/yoga.mp4</pathurl>
                                    <name>yoga.mp4</name>
                                    <rate>
                                        <timebase>30</timebase>
                                        <ntsc>TRUE</ntsc>
                                    </rate>
                                    <duration>54922</duration>
                                    <timecode>
                                        <rate>
                                            <timebase>30</timebase>
                                            <ntsc>TRUE</ntsc>
                                        </rate>
                                        <string>00:00:00:00</string>
                                        <frame>0</frame>
                                        <displayformat>NDF</displayformat>
                                        <media>
                                            <video/>
                                            <audio/>
                                        </media>
                                    </timecode>
                                </file>
                                <name>/home/davidk/code/python/JC-render/JC-examples/yoga.mp4</name>
                                <rate>
                                    <timebase>30</timebase>
                                    <ntsc>TRUE</ntsc>
                                </rate>
                                <start>24216</start>
                                <end>24243</end>
                            </clipitem>
                            <clipitem frameBlend="FALSE" id="clipitem-519">
                                <media>
                                    <video>
                                        <samplecharacteristics>
                                            <height>720</height>
                                            <width>1270</width>
                                        </samplecharacteristics>
                                    </video>
                                </media>
                                <file id="file-1">
                                    <pathurl>/home/davidk/code/python/JC-render/JC-examples/yoga.mp4</pathurl>
                                    <name>yoga.mp4</name>
                                    <rate>
                                        <timebase>30</timebase>
                                        <ntsc>TRUE</ntsc>
                                    </rate>
                                    <duration>54922</duration>
                                    <timecode>
                                        <rate>
                                            <timebase>30</timebase>
                                            <ntsc>TRUE</ntsc>
                                        </rate>
                                        <string>00:00:00:00</string>
                                        <frame>0</frame>
                                        <displayformat>NDF</displayformat>
                                        <media>
                                            <video/>
                                            <audio/>
                                        </media>
                                    </timecode>
                                </file>
                                <name>/home/davidk/code/python/JC-render/JC-examples/yoga.mp4</name>
                                <rate>
                                    <timebase>30</timebase>
                                    <ntsc>TRUE</ntsc>
                                </rate>
                                <start>24243</start>
                                <end>24272</end>
                            </clipitem>
                            <clipitem frameBlend="FALSE" id="clipitem-520">
                                <media>
                                    <video>
                                        <samplecharacteristics>
                                            <height>720</height>
                                            <width>1270</width>
                                        </samplecharacteristics>
                                    </video>
                                </media>
                                <file id="file-1">
                                    <pathurl>/home/davidk/code/python/JC-render/JC-examples/yoga.mp4</pathurl>
                                    <name>yoga.mp4</name>
                                    <rate>
                                        <timebase>30</timebase>
                                        <ntsc>TRUE</ntsc>
                                    </rate>
                                    <duration>54922</duration>
                                    <timecode>
                                        <rate>
                                            <timebase>30</timebase>
                                            <ntsc>TRUE</ntsc>
                                        </rate>
                                        <string>00:00:00:00</string>
                                        <frame>0</frame>
                                        <displayformat>NDF</displayformat>
                                        <media>
                                            <video/>
                                            <audio/>
                                        </media>
                                    </timecode>
                                </file>
                                <name>/home/davidk/code/python/JC-render/JC-examples/yoga.mp4</name>
                                <rate>
                                    <timebase>30</timebase>
                                    <ntsc>TRUE</ntsc>
                                </rate>
                                <start>24272</start>
                                <end>24302</end>
                            </clipitem>
                            <clipitem frameBlend="FALSE" id="clipitem-521">
                                <media>
                                    <video>
                                        <samplecharacteristics>
                                            <height>720</height>
                                            <width>1270</width>
                                        </samplecharacteristics>
                                    </video>
                                </media>
                                <file id="file-1">
                                    <pathurl>/home/davidk/code/python/JC-render/JC-examples/yoga.mp4</pathurl>
                                    <name>yoga.mp4</name>
                                    <rate>
                                        <timebase>30</timebase>
                                        <ntsc>TRUE</ntsc>
                                    </rate>
                                    <duration>54922</duration>
                                    <timecode>
                                        <rate>
                                            <timebase>30</timebase>
                                            <ntsc>TRUE</ntsc>
                                        </rate>
                                        <string>00:00:00:00</string>
                                        <frame>0</frame>
                                        <displayformat>NDF</displayformat>
                                        <media>
                                            <video/>
                                            <audio/>
                                        </media>
                                    </timecode>
                                </file>
                                <name>/home/davidk/code/python/JC-render/JC-examples/yoga.mp4</name>
                                <rate>
                                    <timebase>30</timebase>
                                    <ntsc>TRUE</ntsc>
                                </rate>
                                <start>24302</start>
                                <end>24335</end>
                            </clipitem>
                            <clipitem frameBlend="FALSE" id="clipitem-522">
                                <media>
                                    <video>
                                        <samplecharacteristics>
                                            <height>720</height>
                                            <width>1270</width>
                                        </samplecharacteristics>
                                    </video>
                                </media>
                                <file id="file-1">
                                    <pathurl>/home/davidk/code/python/JC-render/JC-examples/yoga.mp4</pathurl>
                                    <name>yoga.mp4</name>
                                    <rate>
                                        <timebase>30</timebase>
                                        <ntsc>TRUE</ntsc>
                                    </rate>
                                    <duration>54922</duration>
                                    <timecode>
                                        <rate>
                                            <timebase>30</timebase>
                                            <ntsc>TRUE</ntsc>
                                        </rate>
                                        <string>00:00:00:00</string>
                                        <frame>0</frame>
                                        <displayformat>NDF</displayformat>
                                        <media>
                                            <video/>
                                            <audio/>
                                        </media>
                                    </timecode>
                                </file>
                                <name>/home/davidk/code/python/JC-render/JC-examples/yoga.mp4</name>
                                <rate>
                                    <timebase>30</timebase>
                                    <ntsc>TRUE</ntsc>
                                </rate>
                                <start>24335</start>
                                <end>24389</end>
                            </clipitem>
                            <clipitem frameBlend="FALSE" id="clipitem-523">
                                <media>
                                    <video>
                                        <samplecharacteristics>
                                            <height>720</height>
                                            <width>1270</width>
                                        </samplecharacteristics>
                                    </video>
                                </media>
                                <file id="file-1">
                                    <pathurl>/home/davidk/code/python/JC-render/JC-examples/yoga.mp4</pathurl>
                                    <name>yoga.mp4</name>
                                    <rate>
                                        <timebase>30</timebase>
                                        <ntsc>TRUE</ntsc>
                                    </rate>
                                    <duration>54922</duration>
                                    <timecode>
                                        <rate>
                                            <timebase>30</timebase>
                                            <ntsc>TRUE</ntsc>
                                        </rate>
                                        <string>00:00:00:00</string>
                                        <frame>0</frame>
                                        <displayformat>NDF</displayformat>
                                        <media>
                                            <video/>
                                            <audio/>
                                        </media>
                                    </timecode>
                                </file>
                                <name>/home/davidk/code/python/JC-render/JC-examples/yoga.mp4</name>
                                <rate>
                                    <timebase>30</timebase>
                                    <ntsc>TRUE</ntsc>
                                </rate>
                                <start>24389</start>
                                <end>24432</end>
                            </clipitem>
                            <clipitem frameBlend="FALSE" id="clipitem-524">
                                <media>
                                    <video>
                                        <samplecharacteristics>
                                            <height>720</height>
                                            <width>1270</width>
                                        </samplecharacteristics>
                                    </video>
                                </media>
                                <file id="file-1">
                                    <pathurl>/home/davidk/code/python/JC-render/JC-examples/yoga.mp4</pathurl>
                                    <name>yoga.mp4</name>
                                    <rate>
                                        <timebase>30</timebase>
                                        <ntsc>TRUE</ntsc>
                                    </rate>
                                    <duration>54922</duration>
                                    <timecode>
                                        <rate>
                                            <timebase>30</timebase>
                                            <ntsc>TRUE</ntsc>
                                        </rate>
                                        <string>00:00:00:00</string>
                                        <frame>0</frame>
                                        <displayformat>NDF</displayformat>
                                        <media>
                                            <video/>
                                            <audio/>
                                        </media>
                                    </timecode>
                                </file>
                                <name>/home/davidk/code/python/JC-render/JC-examples/yoga.mp4</name>
                                <rate>
                                    <timebase>30</timebase>
                                    <ntsc>TRUE</ntsc>
                                </rate>
                                <start>24432</start>
                                <end>24434</end>
                            </clipitem>
                            <clipitem frameBlend="FALSE" id="clipitem-525">
                                <media>
                                    <video>
                                        <samplecharacteristics>
                                            <height>720</height>
                                            <width>1270</width>
                                        </samplecharacteristics>
                                    </video>
                                </media>
                                <file id="file-1">
                                    <pathurl>/home/davidk/code/python/JC-render/JC-examples/yoga.mp4</pathurl>
                                    <name>yoga.mp4</name>
                                    <rate>
                                        <timebase>30</timebase>
                                        <ntsc>TRUE</ntsc>
                                    </rate>
                                    <duration>54922</duration>
                                    <timecode>
                                        <rate>
                                            <timebase>30</timebase>
                                            <ntsc>TRUE</ntsc>
                                        </rate>
                                        <string>00:00:00:00</string>
                                        <frame>0</frame>
                                        <displayformat>NDF</displayformat>
                                        <media>
                                            <video/>
                                            <audio/>
                                        </media>
                                    </timecode>
                                </file>
                                <name>/home/davidk/code/python/JC-render/JC-examples/yoga.mp4</name>
                                <rate>
                                    <timebase>30</timebase>
                                    <ntsc>TRUE</ntsc>
                                </rate>
                                <start>24434</start>
                                <end>24453</end>
                            </clipitem>
                            <clipitem frameBlend="FALSE" id="clipitem-526">
                                <media>
                                    <video>
                                        <samplecharacteristics>
                                            <height>720</height>
                                            <width>1270</width>
                                        </samplecharacteristics>
                                    </video>
                                </media>
                                <file id="file-1">
                                    <pathurl>/home/davidk/code/python/JC-render/JC-examples/yoga.mp4</pathurl>
                                    <name>yoga.mp4</name>
                                    <rate>
                                        <timebase>30</timebase>
                                        <ntsc>TRUE</ntsc>
                                    </rate>
                                    <duration>54922</duration>
                                    <timecode>
                                        <rate>
                                            <timebase>30</timebase>
                                            <ntsc>TRUE</ntsc>
                                        </rate>
                                        <string>00:00:00:00</string>
                                        <frame>0</frame>
                                        <displayformat>NDF</displayformat>
                                        <media>
                                            <video/>
                                            <audio/>
                                        </media>
                                    </timecode>
                                </file>
                                <name>/home/davidk/code/python/JC-render/JC-examples/yoga.mp4</name>
                                <rate>
                                    <timebase>30</timebase>
                                    <ntsc>TRUE</ntsc>
                                </rate>
                                <start>24453</start>
                                <end>24525</end>
                            </clipitem>
                            <clipitem frameBlend="FALSE" id="clipitem-527">
                                <media>
                                    <video>
                                        <samplecharacteristics>
                                            <height>720</height>
                                            <width>1270</width>
                                        </samplecharacteristics>
                                    </video>
                                </media>
                                <file id="file-1">
                                    <pathurl>/home/davidk/code/python/JC-render/JC-examples/yoga.mp4</pathurl>
                                    <name>yoga.mp4</name>
                                    <rate>
                                        <timebase>30</timebase>
                                        <ntsc>TRUE</ntsc>
                                    </rate>
                                    <duration>54922</duration>
                                    <timecode>
                                        <rate>
                                            <timebase>30</timebase>
                                            <ntsc>TRUE</ntsc>
                                        </rate>
                                        <string>00:00:00:00</string>
                                        <frame>0</frame>
                                        <displayformat>NDF</displayformat>
                                        <media>
                                            <video/>
                                            <audio/>
                                        </media>
                                    </timecode>
                                </file>
                                <name>/home/davidk/code/python/JC-render/JC-examples/yoga.mp4</name>
                                <rate>
                                    <timebase>30</timebase>
                                    <ntsc>TRUE</ntsc>
                                </rate>
                                <start>24525</start>
                                <end>24596</end>
                            </clipitem>
                            <clipitem frameBlend="FALSE" id="clipitem-528">
                                <media>
                                    <video>
                                        <samplecharacteristics>
                                            <height>720</height>
                                            <width>1270</width>
                                        </samplecharacteristics>
                                    </video>
                                </media>
                                <file id="file-1">
                                    <pathurl>/home/davidk/code/python/JC-render/JC-examples/yoga.mp4</pathurl>
                                    <name>yoga.mp4</name>
                                    <rate>
                                        <timebase>30</timebase>
                                        <ntsc>TRUE</ntsc>
                                    </rate>
                                    <duration>54922</duration>
                                    <timecode>
                                        <rate>
                                            <timebase>30</timebase>
                                            <ntsc>TRUE</ntsc>
                                        </rate>
                                        <string>00:00:00:00</string>
                                        <frame>0</frame>
                                        <displayformat>NDF</displayformat>
                                        <media>
                                            <video/>
                                            <audio/>
                                        </media>
                                    </timecode>
                                </file>
                                <name>/home/davidk/code/python/JC-render/JC-examples/yoga.mp4</name>
                                <rate>
                                    <timebase>30</timebase>
                                    <ntsc>TRUE</ntsc>
                                </rate>
                                <start>24596</start>
                                <end>24601</end>
                            </clipitem>
                            <clipitem frameBlend="FALSE" id="clipitem-529">
                                <media>
                                    <video>
                                        <samplecharacteristics>
                                            <height>720</height>
                                            <width>1270</width>
                                        </samplecharacteristics>
                                    </video>
                                </media>
                                <file id="file-1">
                                    <pathurl>/home/davidk/code/python/JC-render/JC-examples/yoga.mp4</pathurl>
                                    <name>yoga.mp4</name>
                                    <rate>
                                        <timebase>30</timebase>
                                        <ntsc>TRUE</ntsc>
                                    </rate>
                                    <duration>54922</duration>
                                    <timecode>
                                        <rate>
                                            <timebase>30</timebase>
                                            <ntsc>TRUE</ntsc>
                                        </rate>
                                        <string>00:00:00:00</string>
                                        <frame>0</frame>
                                        <displayformat>NDF</displayformat>
                                        <media>
                                            <video/>
                                            <audio/>
                                        </media>
                                    </timecode>
                                </file>
                                <name>/home/davidk/code/python/JC-render/JC-examples/yoga.mp4</name>
                                <rate>
                                    <timebase>30</timebase>
                                    <ntsc>TRUE</ntsc>
                                </rate>
                                <start>24601</start>
                                <end>24655</end>
                            </clipitem>
                            <clipitem frameBlend="FALSE" id="clipitem-530">
                                <media>
                                    <video>
                                        <samplecharacteristics>
                                            <height>720</height>
                                            <width>1270</width>
                                        </samplecharacteristics>
                                    </video>
                                </media>
                                <file id="file-1">
                                    <pathurl>/home/davidk/code/python/JC-render/JC-examples/yoga.mp4</pathurl>
                                    <name>yoga.mp4</name>
                                    <rate>
                                        <timebase>30</timebase>
                                        <ntsc>TRUE</ntsc>
                                    </rate>
                                    <duration>54922</duration>
                                    <timecode>
                                        <rate>
                                            <timebase>30</timebase>
                                            <ntsc>TRUE</ntsc>
                                        </rate>
                                        <string>00:00:00:00</string>
                                        <frame>0</frame>
                                        <displayformat>NDF</displayformat>
                                        <media>
                                            <video/>
                                            <audio/>
                                        </media>
                                    </timecode>
                                </file>
                                <name>/home/davidk/code/python/JC-render/JC-examples/yoga.mp4</name>
                                <rate>
                                    <timebase>30</timebase>
                                    <ntsc>TRUE</ntsc>
                                </rate>
                                <start>24655</start>
                                <end>24769</end>
                            </clipitem>
                            <clipitem frameBlend="FALSE" id="clipitem-531">
                                <media>
                                    <video>
                                        <samplecharacteristics>
                                            <height>720</height>
                                            <width>1270</width>
                                        </samplecharacteristics>
                                    </video>
                                </media>
                                <file id="file-1">
                                    <pathurl>/home/davidk/code/python/JC-render/JC-examples/yoga.mp4</pathurl>
                                    <name>yoga.mp4</name>
                                    <rate>
                                        <timebase>30</timebase>
                                        <ntsc>TRUE</ntsc>
                                    </rate>
                                    <duration>54922</duration>
                                    <timecode>
                                        <rate>
                                            <timebase>30</timebase>
                                            <ntsc>TRUE</ntsc>
                                        </rate>
                                        <string>00:00:00:00</string>
                                        <frame>0</frame>
                                        <displayformat>NDF</displayformat>
                                        <media>
                                            <video/>
                                            <audio/>
                                        </media>
                                    </timecode>
                                </file>
                                <name>/home/davidk/code/python/JC-render/JC-examples/yoga.mp4</name>
                                <rate>
                                    <timebase>30</timebase>
                                    <ntsc>TRUE</ntsc>
                                </rate>
                                <start>24769</start>
                                <end>24833</end>
                            </clipitem>
                            <clipitem frameBlend="FALSE" id="clipitem-532">
                                <media>
                                    <video>
                                        <samplecharacteristics>
                                            <height>720</height>
                                            <width>1270</width>
                                        </samplecharacteristics>
                                    </video>
                                </media>
                                <file id="file-1">
                                    <pathurl>/home/davidk/code/python/JC-render/JC-examples/yoga.mp4</pathurl>
                                    <name>yoga.mp4</name>
                                    <rate>
                                        <timebase>30</timebase>
                                        <ntsc>TRUE</ntsc>
                                    </rate>
                                    <duration>54922</duration>
                                    <timecode>
                                        <rate>
                                            <timebase>30</timebase>
                                            <ntsc>TRUE</ntsc>
                                        </rate>
                                        <string>00:00:00:00</string>
                                        <frame>0</frame>
                                        <displayformat>NDF</displayformat>
                                        <media>
                                            <video/>
                                            <audio/>
                                        </media>
                                    </timecode>
                                </file>
                                <name>/home/davidk/code/python/JC-render/JC-examples/yoga.mp4</name>
                                <rate>
                                    <timebase>30</timebase>
                                    <ntsc>TRUE</ntsc>
                                </rate>
                                <start>24833</start>
                                <end>24849</end>
                            </clipitem>
                            <clipitem frameBlend="FALSE" id="clipitem-533">
                                <media>
                                    <video>
                                        <samplecharacteristics>
                                            <height>720</height>
                                            <width>1270</width>
                                        </samplecharacteristics>
                                    </video>
                                </media>
                                <file id="file-1">
                                    <pathurl>/home/davidk/code/python/JC-render/JC-examples/yoga.mp4</pathurl>
                                    <name>yoga.mp4</name>
                                    <rate>
                                        <timebase>30</timebase>
                                        <ntsc>TRUE</ntsc>
                                    </rate>
                                    <duration>54922</duration>
                                    <timecode>
                                        <rate>
                                            <timebase>30</timebase>
                                            <ntsc>TRUE</ntsc>
                                        </rate>
                                        <string>00:00:00:00</string>
                                        <frame>0</frame>
                                        <displayformat>NDF</displayformat>
                                        <media>
                                            <video/>
                                            <audio/>
                                        </media>
                                    </timecode>
                                </file>
                                <name>/home/davidk/code/python/JC-render/JC-examples/yoga.mp4</name>
                                <rate>
                                    <timebase>30</timebase>
                                    <ntsc>TRUE</ntsc>
                                </rate>
                                <start>24849</start>
                                <end>24878</end>
                            </clipitem>
                            <clipitem frameBlend="FALSE" id="clipitem-534">
                                <media>
                                    <video>
                                        <samplecharacteristics>
                                            <height>720</height>
                                            <width>1270</width>
                                        </samplecharacteristics>
                                    </video>
                                </media>
                                <file id="file-1">
                                    <pathurl>/home/davidk/code/python/JC-render/JC-examples/yoga.mp4</pathurl>
                                    <name>yoga.mp4</name>
                                    <rate>
                                        <timebase>30</timebase>
                                        <ntsc>TRUE</ntsc>
                                    </rate>
                                    <duration>54922</duration>
                                    <timecode>
                                        <rate>
                                            <timebase>30</timebase>
                                            <ntsc>TRUE</ntsc>
                                        </rate>
                                        <string>00:00:00:00</string>
                                        <frame>0</frame>
                                        <displayformat>NDF</displayformat>
                                        <media>
                                            <video/>
                                            <audio/>
                                        </media>
                                    </timecode>
                                </file>
                                <name>/home/davidk/code/python/JC-render/JC-examples/yoga.mp4</name>
                                <rate>
                                    <timebase>30</timebase>
                                    <ntsc>TRUE</ntsc>
                                </rate>
                                <start>24878</start>
                                <end>24894</end>
                            </clipitem>
                            <clipitem frameBlend="FALSE" id="clipitem-535">
                                <media>
                                    <video>
                                        <samplecharacteristics>
                                            <height>720</height>
                                            <width>1270</width>
                                        </samplecharacteristics>
                                    </video>
                                </media>
                                <file id="file-1">
                                    <pathurl>/home/davidk/code/python/JC-render/JC-examples/yoga.mp4</pathurl>
                                    <name>yoga.mp4</name>
                                    <rate>
                                        <timebase>30</timebase>
                                        <ntsc>TRUE</ntsc>
                                    </rate>
                                    <duration>54922</duration>
                                    <timecode>
                                        <rate>
                                            <timebase>30</timebase>
                                            <ntsc>TRUE</ntsc>
                                        </rate>
                                        <string>00:00:00:00</string>
                                        <frame>0</frame>
                                        <displayformat>NDF</displayformat>
                                        <media>
                                            <video/>
                                            <audio/>
                                        </media>
                                    </timecode>
                                </file>
                                <name>/home/davidk/code/python/JC-render/JC-examples/yoga.mp4</name>
                                <rate>
                                    <timebase>30</timebase>
                                    <ntsc>TRUE</ntsc>
                                </rate>
                                <start>24894</start>
                                <end>24934</end>
                            </clipitem>
                            <clipitem frameBlend="FALSE" id="clipitem-536">
                                <media>
                                    <video>
                                        <samplecharacteristics>
                                            <height>720</height>
                                            <width>1270</width>
                                        </samplecharacteristics>
                                    </video>
                                </media>
                                <file id="file-1">
                                    <pathurl>/home/davidk/code/python/JC-render/JC-examples/yoga.mp4</pathurl>
                                    <name>yoga.mp4</name>
                                    <rate>
                                        <timebase>30</timebase>
                                        <ntsc>TRUE</ntsc>
                                    </rate>
                                    <duration>54922</duration>
                                    <timecode>
                                        <rate>
                                            <timebase>30</timebase>
                                            <ntsc>TRUE</ntsc>
                                        </rate>
                                        <string>00:00:00:00</string>
                                        <frame>0</frame>
                                        <displayformat>NDF</displayformat>
                                        <media>
                                            <video/>
                                            <audio/>
                                        </media>
                                    </timecode>
                                </file>
                                <name>/home/davidk/code/python/JC-render/JC-examples/yoga.mp4</name>
                                <rate>
                                    <timebase>30</timebase>
                                    <ntsc>TRUE</ntsc>
                                </rate>
                                <start>24934</start>
                                <end>25267</end>
                            </clipitem>
                            <clipitem frameBlend="FALSE" id="clipitem-537">
                                <media>
                                    <video>
                                        <samplecharacteristics>
                                            <height>720</height>
                                            <width>1270</width>
                                        </samplecharacteristics>
                                    </video>
                                </media>
                                <file id="file-1">
                                    <pathurl>/home/davidk/code/python/JC-render/JC-examples/yoga.mp4</pathurl>
                                    <name>yoga.mp4</name>
                                    <rate>
                                        <timebase>30</timebase>
                                        <ntsc>TRUE</ntsc>
                                    </rate>
                                    <duration>54922</duration>
                                    <timecode>
                                        <rate>
                                            <timebase>30</timebase>
                                            <ntsc>TRUE</ntsc>
                                        </rate>
                                        <string>00:00:00:00</string>
                                        <frame>0</frame>
                                        <displayformat>NDF</displayformat>
                                        <media>
                                            <video/>
                                            <audio/>
                                        </media>
                                    </timecode>
                                </file>
                                <name>/home/davidk/code/python/JC-render/JC-examples/yoga.mp4</name>
                                <rate>
                                    <timebase>30</timebase>
                                    <ntsc>TRUE</ntsc>
                                </rate>
                                <start>25267</start>
                                <end>25303</end>
                            </clipitem>
                            <clipitem frameBlend="FALSE" id="clipitem-538">
                                <media>
                                    <video>
                                        <samplecharacteristics>
                                            <height>720</height>
                                            <width>1270</width>
                                        </samplecharacteristics>
                                    </video>
                                </media>
                                <file id="file-1">
                                    <pathurl>/home/davidk/code/python/JC-render/JC-examples/yoga.mp4</pathurl>
                                    <name>yoga.mp4</name>
                                    <rate>
                                        <timebase>30</timebase>
                                        <ntsc>TRUE</ntsc>
                                    </rate>
                                    <duration>54922</duration>
                                    <timecode>
                                        <rate>
                                            <timebase>30</timebase>
                                            <ntsc>TRUE</ntsc>
                                        </rate>
                                        <string>00:00:00:00</string>
                                        <frame>0</frame>
                                        <displayformat>NDF</displayformat>
                                        <media>
                                            <video/>
                                            <audio/>
                                        </media>
                                    </timecode>
                                </file>
                                <name>/home/davidk/code/python/JC-render/JC-examples/yoga.mp4</name>
                                <rate>
                                    <timebase>30</timebase>
                                    <ntsc>TRUE</ntsc>
                                </rate>
                                <start>25303</start>
                                <end>25402</end>
                            </clipitem>
                            <clipitem frameBlend="FALSE" id="clipitem-539">
                                <media>
                                    <video>
                                        <samplecharacteristics>
                                            <height>720</height>
                                            <width>1270</width>
                                        </samplecharacteristics>
                                    </video>
                                </media>
                                <file id="file-1">
                                    <pathurl>/home/davidk/code/python/JC-render/JC-examples/yoga.mp4</pathurl>
                                    <name>yoga.mp4</name>
                                    <rate>
                                        <timebase>30</timebase>
                                        <ntsc>TRUE</ntsc>
                                    </rate>
                                    <duration>54922</duration>
                                    <timecode>
                                        <rate>
                                            <timebase>30</timebase>
                                            <ntsc>TRUE</ntsc>
                                        </rate>
                                        <string>00:00:00:00</string>
                                        <frame>0</frame>
                                        <displayformat>NDF</displayformat>
                                        <media>
                                            <video/>
                                            <audio/>
                                        </media>
                                    </timecode>
                                </file>
                                <name>/home/davidk/code/python/JC-render/JC-examples/yoga.mp4</name>
                                <rate>
                                    <timebase>30</timebase>
                                    <ntsc>TRUE</ntsc>
                                </rate>
                                <start>25402</start>
                                <end>25463</end>
                            </clipitem>
                            <clipitem frameBlend="FALSE" id="clipitem-540">
                                <media>
                                    <video>
                                        <samplecharacteristics>
                                            <height>720</height>
                                            <width>1270</width>
                                        </samplecharacteristics>
                                    </video>
                                </media>
                                <file id="file-1">
                                    <pathurl>/home/davidk/code/python/JC-render/JC-examples/yoga.mp4</pathurl>
                                    <name>yoga.mp4</name>
                                    <rate>
                                        <timebase>30</timebase>
                                        <ntsc>TRUE</ntsc>
                                    </rate>
                                    <duration>54922</duration>
                                    <timecode>
                                        <rate>
                                            <timebase>30</timebase>
                                            <ntsc>TRUE</ntsc>
                                        </rate>
                                        <string>00:00:00:00</string>
                                        <frame>0</frame>
                                        <displayformat>NDF</displayformat>
                                        <media>
                                            <video/>
                                            <audio/>
                                        </media>
                                    </timecode>
                                </file>
                                <name>/home/davidk/code/python/JC-render/JC-examples/yoga.mp4</name>
                                <rate>
                                    <timebase>30</timebase>
                                    <ntsc>TRUE</ntsc>
                                </rate>
                                <start>25463</start>
                                <end>25549</end>
                            </clipitem>
                            <clipitem frameBlend="FALSE" id="clipitem-541">
                                <media>
                                    <video>
                                        <samplecharacteristics>
                                            <height>720</height>
                                            <width>1270</width>
                                        </samplecharacteristics>
                                    </video>
                                </media>
                                <file id="file-1">
                                    <pathurl>/home/davidk/code/python/JC-render/JC-examples/yoga.mp4</pathurl>
                                    <name>yoga.mp4</name>
                                    <rate>
                                        <timebase>30</timebase>
                                        <ntsc>TRUE</ntsc>
                                    </rate>
                                    <duration>54922</duration>
                                    <timecode>
                                        <rate>
                                            <timebase>30</timebase>
                                            <ntsc>TRUE</ntsc>
                                        </rate>
                                        <string>00:00:00:00</string>
                                        <frame>0</frame>
                                        <displayformat>NDF</displayformat>
                                        <media>
                                            <video/>
                                            <audio/>
                                        </media>
                                    </timecode>
                                </file>
                                <name>/home/davidk/code/python/JC-render/JC-examples/yoga.mp4</name>
                                <rate>
                                    <timebase>30</timebase>
                                    <ntsc>TRUE</ntsc>
                                </rate>
                                <start>25549</start>
                                <end>25582</end>
                            </clipitem>
                            <clipitem frameBlend="FALSE" id="clipitem-542">
                                <media>
                                    <video>
                                        <samplecharacteristics>
                                            <height>720</height>
                                            <width>1270</width>
                                        </samplecharacteristics>
                                    </video>
                                </media>
                                <file id="file-1">
                                    <pathurl>/home/davidk/code/python/JC-render/JC-examples/yoga.mp4</pathurl>
                                    <name>yoga.mp4</name>
                                    <rate>
                                        <timebase>30</timebase>
                                        <ntsc>TRUE</ntsc>
                                    </rate>
                                    <duration>54922</duration>
                                    <timecode>
                                        <rate>
                                            <timebase>30</timebase>
                                            <ntsc>TRUE</ntsc>
                                        </rate>
                                        <string>00:00:00:00</string>
                                        <frame>0</frame>
                                        <displayformat>NDF</displayformat>
                                        <media>
                                            <video/>
                                            <audio/>
                                        </media>
                                    </timecode>
                                </file>
                                <name>/home/davidk/code/python/JC-render/JC-examples/yoga.mp4</name>
                                <rate>
                                    <timebase>30</timebase>
                                    <ntsc>TRUE</ntsc>
                                </rate>
                                <start>25582</start>
                                <end>25604</end>
                            </clipitem>
                            <clipitem frameBlend="FALSE" id="clipitem-543">
                                <media>
                                    <video>
                                        <samplecharacteristics>
                                            <height>720</height>
                                            <width>1270</width>
                                        </samplecharacteristics>
                                    </video>
                                </media>
                                <file id="file-1">
                                    <pathurl>/home/davidk/code/python/JC-render/JC-examples/yoga.mp4</pathurl>
                                    <name>yoga.mp4</name>
                                    <rate>
                                        <timebase>30</timebase>
                                        <ntsc>TRUE</ntsc>
                                    </rate>
                                    <duration>54922</duration>
                                    <timecode>
                                        <rate>
                                            <timebase>30</timebase>
                                            <ntsc>TRUE</ntsc>
                                        </rate>
                                        <string>00:00:00:00</string>
                                        <frame>0</frame>
                                        <displayformat>NDF</displayformat>
                                        <media>
                                            <video/>
                                            <audio/>
                                        </media>
                                    </timecode>
                                </file>
                                <name>/home/davidk/code/python/JC-render/JC-examples/yoga.mp4</name>
                                <rate>
                                    <timebase>30</timebase>
                                    <ntsc>TRUE</ntsc>
                                </rate>
                                <start>25604</start>
                                <end>25623</end>
                            </clipitem>
                            <clipitem frameBlend="FALSE" id="clipitem-544">
                                <media>
                                    <video>
                                        <samplecharacteristics>
                                            <height>720</height>
                                            <width>1270</width>
                                        </samplecharacteristics>
                                    </video>
                                </media>
                                <file id="file-1">
                                    <pathurl>/home/davidk/code/python/JC-render/JC-examples/yoga.mp4</pathurl>
                                    <name>yoga.mp4</name>
                                    <rate>
                                        <timebase>30</timebase>
                                        <ntsc>TRUE</ntsc>
                                    </rate>
                                    <duration>54922</duration>
                                    <timecode>
                                        <rate>
                                            <timebase>30</timebase>
                                            <ntsc>TRUE</ntsc>
                                        </rate>
                                        <string>00:00:00:00</string>
                                        <frame>0</frame>
                                        <displayformat>NDF</displayformat>
                                        <media>
                                            <video/>
                                            <audio/>
                                        </media>
                                    </timecode>
                                </file>
                                <name>/home/davidk/code/python/JC-render/JC-examples/yoga.mp4</name>
                                <rate>
                                    <timebase>30</timebase>
                                    <ntsc>TRUE</ntsc>
                                </rate>
                                <start>25623</start>
                                <end>25678</end>
                            </clipitem>
                            <clipitem frameBlend="FALSE" id="clipitem-545">
                                <media>
                                    <video>
                                        <samplecharacteristics>
                                            <height>720</height>
                                            <width>1270</width>
                                        </samplecharacteristics>
                                    </video>
                                </media>
                                <file id="file-1">
                                    <pathurl>/home/davidk/code/python/JC-render/JC-examples/yoga.mp4</pathurl>
                                    <name>yoga.mp4</name>
                                    <rate>
                                        <timebase>30</timebase>
                                        <ntsc>TRUE</ntsc>
                                    </rate>
                                    <duration>54922</duration>
                                    <timecode>
                                        <rate>
                                            <timebase>30</timebase>
                                            <ntsc>TRUE</ntsc>
                                        </rate>
                                        <string>00:00:00:00</string>
                                        <frame>0</frame>
                                        <displayformat>NDF</displayformat>
                                        <media>
                                            <video/>
                                            <audio/>
                                        </media>
                                    </timecode>
                                </file>
                                <name>/home/davidk/code/python/JC-render/JC-examples/yoga.mp4</name>
                                <rate>
                                    <timebase>30</timebase>
                                    <ntsc>TRUE</ntsc>
                                </rate>
                                <start>25678</start>
                                <end>25697</end>
                            </clipitem>
                            <clipitem frameBlend="FALSE" id="clipitem-546">
                                <media>
                                    <video>
                                        <samplecharacteristics>
                                            <height>720</height>
                                            <width>1270</width>
                                        </samplecharacteristics>
                                    </video>
                                </media>
                                <file id="file-1">
                                    <pathurl>/home/davidk/code/python/JC-render/JC-examples/yoga.mp4</pathurl>
                                    <name>yoga.mp4</name>
                                    <rate>
                                        <timebase>30</timebase>
                                        <ntsc>TRUE</ntsc>
                                    </rate>
                                    <duration>54922</duration>
                                    <timecode>
                                        <rate>
                                            <timebase>30</timebase>
                                            <ntsc>TRUE</ntsc>
                                        </rate>
                                        <string>00:00:00:00</string>
                                        <frame>0</frame>
                                        <displayformat>NDF</displayformat>
                                        <media>
                                            <video/>
                                            <audio/>
                                        </media>
                                    </timecode>
                                </file>
                                <name>/home/davidk/code/python/JC-render/JC-examples/yoga.mp4</name>
                                <rate>
                                    <timebase>30</timebase>
                                    <ntsc>TRUE</ntsc>
                                </rate>
                                <start>25697</start>
                                <end>25765</end>
                            </clipitem>
                            <clipitem frameBlend="FALSE" id="clipitem-547">
                                <media>
                                    <video>
                                        <samplecharacteristics>
                                            <height>720</height>
                                            <width>1270</width>
                                        </samplecharacteristics>
                                    </video>
                                </media>
                                <file id="file-1">
                                    <pathurl>/home/davidk/code/python/JC-render/JC-examples/yoga.mp4</pathurl>
                                    <name>yoga.mp4</name>
                                    <rate>
                                        <timebase>30</timebase>
                                        <ntsc>TRUE</ntsc>
                                    </rate>
                                    <duration>54922</duration>
                                    <timecode>
                                        <rate>
                                            <timebase>30</timebase>
                                            <ntsc>TRUE</ntsc>
                                        </rate>
                                        <string>00:00:00:00</string>
                                        <frame>0</frame>
                                        <displayformat>NDF</displayformat>
                                        <media>
                                            <video/>
                                            <audio/>
                                        </media>
                                    </timecode>
                                </file>
                                <name>/home/davidk/code/python/JC-render/JC-examples/yoga.mp4</name>
                                <rate>
                                    <timebase>30</timebase>
                                    <ntsc>TRUE</ntsc>
                                </rate>
                                <start>25765</start>
                                <end>25784</end>
                            </clipitem>
                            <clipitem frameBlend="FALSE" id="clipitem-548">
                                <media>
                                    <video>
                                        <samplecharacteristics>
                                            <height>720</height>
                                            <width>1270</width>
                                        </samplecharacteristics>
                                    </video>
                                </media>
                                <file id="file-1">
                                    <pathurl>/home/davidk/code/python/JC-render/JC-examples/yoga.mp4</pathurl>
                                    <name>yoga.mp4</name>
                                    <rate>
                                        <timebase>30</timebase>
                                        <ntsc>TRUE</ntsc>
                                    </rate>
                                    <duration>54922</duration>
                                    <timecode>
                                        <rate>
                                            <timebase>30</timebase>
                                            <ntsc>TRUE</ntsc>
                                        </rate>
                                        <string>00:00:00:00</string>
                                        <frame>0</frame>
                                        <displayformat>NDF</displayformat>
                                        <media>
                                            <video/>
                                            <audio/>
                                        </media>
                                    </timecode>
                                </file>
                                <name>/home/davidk/code/python/JC-render/JC-examples/yoga.mp4</name>
                                <rate>
                                    <timebase>30</timebase>
                                    <ntsc>TRUE</ntsc>
                                </rate>
                                <start>25784</start>
                                <end>25803</end>
                            </clipitem>
                            <clipitem frameBlend="FALSE" id="clipitem-549">
                                <media>
                                    <video>
                                        <samplecharacteristics>
                                            <height>720</height>
                                            <width>1270</width>
                                        </samplecharacteristics>
                                    </video>
                                </media>
                                <file id="file-1">
                                    <pathurl>/home/davidk/code/python/JC-render/JC-examples/yoga.mp4</pathurl>
                                    <name>yoga.mp4</name>
                                    <rate>
                                        <timebase>30</timebase>
                                        <ntsc>TRUE</ntsc>
                                    </rate>
                                    <duration>54922</duration>
                                    <timecode>
                                        <rate>
                                            <timebase>30</timebase>
                                            <ntsc>TRUE</ntsc>
                                        </rate>
                                        <string>00:00:00:00</string>
                                        <frame>0</frame>
                                        <displayformat>NDF</displayformat>
                                        <media>
                                            <video/>
                                            <audio/>
                                        </media>
                                    </timecode>
                                </file>
                                <name>/home/davidk/code/python/JC-render/JC-examples/yoga.mp4</name>
                                <rate>
                                    <timebase>30</timebase>
                                    <ntsc>TRUE</ntsc>
                                </rate>
                                <start>25803</start>
                                <end>25836</end>
                            </clipitem>
                            <clipitem frameBlend="FALSE" id="clipitem-550">
                                <media>
                                    <video>
                                        <samplecharacteristics>
                                            <height>720</height>
                                            <width>1270</width>
                                        </samplecharacteristics>
                                    </video>
                                </media>
                                <file id="file-1">
                                    <pathurl>/home/davidk/code/python/JC-render/JC-examples/yoga.mp4</pathurl>
                                    <name>yoga.mp4</name>
                                    <rate>
                                        <timebase>30</timebase>
                                        <ntsc>TRUE</ntsc>
                                    </rate>
                                    <duration>54922</duration>
                                    <timecode>
                                        <rate>
                                            <timebase>30</timebase>
                                            <ntsc>TRUE</ntsc>
                                        </rate>
                                        <string>00:00:00:00</string>
                                        <frame>0</frame>
                                        <displayformat>NDF</displayformat>
                                        <media>
                                            <video/>
                                            <audio/>
                                        </media>
                                    </timecode>
                                </file>
                                <name>/home/davidk/code/python/JC-render/JC-examples/yoga.mp4</name>
                                <rate>
                                    <timebase>30</timebase>
                                    <ntsc>TRUE</ntsc>
                                </rate>
                                <start>25836</start>
                                <end>25841</end>
                            </clipitem>
                            <clipitem frameBlend="FALSE" id="clipitem-551">
                                <media>
                                    <video>
                                        <samplecharacteristics>
                                            <height>720</height>
                                            <width>1270</width>
                                        </samplecharacteristics>
                                    </video>
                                </media>
                                <file id="file-1">
                                    <pathurl>/home/davidk/code/python/JC-render/JC-examples/yoga.mp4</pathurl>
                                    <name>yoga.mp4</name>
                                    <rate>
                                        <timebase>30</timebase>
                                        <ntsc>TRUE</ntsc>
                                    </rate>
                                    <duration>54922</duration>
                                    <timecode>
                                        <rate>
                                            <timebase>30</timebase>
                                            <ntsc>TRUE</ntsc>
                                        </rate>
                                        <string>00:00:00:00</string>
                                        <frame>0</frame>
                                        <displayformat>NDF</displayformat>
                                        <media>
                                            <video/>
                                            <audio/>
                                        </media>
                                    </timecode>
                                </file>
                                <name>/home/davidk/code/python/JC-render/JC-examples/yoga.mp4</name>
                                <rate>
                                    <timebase>30</timebase>
                                    <ntsc>TRUE</ntsc>
                                </rate>
                                <start>25841</start>
                                <end>25913</end>
                            </clipitem>
                            <clipitem frameBlend="FALSE" id="clipitem-552">
                                <media>
                                    <video>
                                        <samplecharacteristics>
                                            <height>720</height>
                                            <width>1270</width>
                                        </samplecharacteristics>
                                    </video>
                                </media>
                                <file id="file-1">
                                    <pathurl>/home/davidk/code/python/JC-render/JC-examples/yoga.mp4</pathurl>
                                    <name>yoga.mp4</name>
                                    <rate>
                                        <timebase>30</timebase>
                                        <ntsc>TRUE</ntsc>
                                    </rate>
                                    <duration>54922</duration>
                                    <timecode>
                                        <rate>
                                            <timebase>30</timebase>
                                            <ntsc>TRUE</ntsc>
                                        </rate>
                                        <string>00:00:00:00</string>
                                        <frame>0</frame>
                                        <displayformat>NDF</displayformat>
                                        <media>
                                            <video/>
                                            <audio/>
                                        </media>
                                    </timecode>
                                </file>
                                <name>/home/davidk/code/python/JC-render/JC-examples/yoga.mp4</name>
                                <rate>
                                    <timebase>30</timebase>
                                    <ntsc>TRUE</ntsc>
                                </rate>
                                <start>25913</start>
                                <end>25988</end>
                            </clipitem>
                            <clipitem frameBlend="FALSE" id="clipitem-553">
                                <media>
                                    <video>
                                        <samplecharacteristics>
                                            <height>720</height>
                                            <width>1270</width>
                                        </samplecharacteristics>
                                    </video>
                                </media>
                                <file id="file-1">
                                    <pathurl>/home/davidk/code/python/JC-render/JC-examples/yoga.mp4</pathurl>
                                    <name>yoga.mp4</name>
                                    <rate>
                                        <timebase>30</timebase>
                                        <ntsc>TRUE</ntsc>
                                    </rate>
                                    <duration>54922</duration>
                                    <timecode>
                                        <rate>
                                            <timebase>30</timebase>
                                            <ntsc>TRUE</ntsc>
                                        </rate>
                                        <string>00:00:00:00</string>
                                        <frame>0</frame>
                                        <displayformat>NDF</displayformat>
                                        <media>
                                            <video/>
                                            <audio/>
                                        </media>
                                    </timecode>
                                </file>
                                <name>/home/davidk/code/python/JC-render/JC-examples/yoga.mp4</name>
                                <rate>
                                    <timebase>30</timebase>
                                    <ntsc>TRUE</ntsc>
                                </rate>
                                <start>25988</start>
                                <end>26031</end>
                            </clipitem>
                            <clipitem frameBlend="FALSE" id="clipitem-554">
                                <media>
                                    <video>
                                        <samplecharacteristics>
                                            <height>720</height>
                                            <width>1270</width>
                                        </samplecharacteristics>
                                    </video>
                                </media>
                                <file id="file-1">
                                    <pathurl>/home/davidk/code/python/JC-render/JC-examples/yoga.mp4</pathurl>
                                    <name>yoga.mp4</name>
                                    <rate>
                                        <timebase>30</timebase>
                                        <ntsc>TRUE</ntsc>
                                    </rate>
                                    <duration>54922</duration>
                                    <timecode>
                                        <rate>
                                            <timebase>30</timebase>
                                            <ntsc>TRUE</ntsc>
                                        </rate>
                                        <string>00:00:00:00</string>
                                        <frame>0</frame>
                                        <displayformat>NDF</displayformat>
                                        <media>
                                            <video/>
                                            <audio/>
                                        </media>
                                    </timecode>
                                </file>
                                <name>/home/davidk/code/python/JC-render/JC-examples/yoga.mp4</name>
                                <rate>
                                    <timebase>30</timebase>
                                    <ntsc>TRUE</ntsc>
                                </rate>
                                <start>26031</start>
                                <end>26040</end>
                            </clipitem>
                            <clipitem frameBlend="FALSE" id="clipitem-555">
                                <media>
                                    <video>
                                        <samplecharacteristics>
                                            <height>720</height>
                                            <width>1270</width>
                                        </samplecharacteristics>
                                    </video>
                                </media>
                                <file id="file-1">
                                    <pathurl>/home/davidk/code/python/JC-render/JC-examples/yoga.mp4</pathurl>
                                    <name>yoga.mp4</name>
                                    <rate>
                                        <timebase>30</timebase>
                                        <ntsc>TRUE</ntsc>
                                    </rate>
                                    <duration>54922</duration>
                                    <timecode>
                                        <rate>
                                            <timebase>30</timebase>
                                            <ntsc>TRUE</ntsc>
                                        </rate>
                                        <string>00:00:00:00</string>
                                        <frame>0</frame>
                                        <displayformat>NDF</displayformat>
                                        <media>
                                            <video/>
                                            <audio/>
                                        </media>
                                    </timecode>
                                </file>
                                <name>/home/davidk/code/python/JC-render/JC-examples/yoga.mp4</name>
                                <rate>
                                    <timebase>30</timebase>
                                    <ntsc>TRUE</ntsc>
                                </rate>
                                <start>26040</start>
                                <end>26101</end>
                            </clipitem>
                            <clipitem frameBlend="FALSE" id="clipitem-556">
                                <media>
                                    <video>
                                        <samplecharacteristics>
                                            <height>720</height>
                                            <width>1270</width>
                                        </samplecharacteristics>
                                    </video>
                                </media>
                                <file id="file-1">
                                    <pathurl>/home/davidk/code/python/JC-render/JC-examples/yoga.mp4</pathurl>
                                    <name>yoga.mp4</name>
                                    <rate>
                                        <timebase>30</timebase>
                                        <ntsc>TRUE</ntsc>
                                    </rate>
                                    <duration>54922</duration>
                                    <timecode>
                                        <rate>
                                            <timebase>30</timebase>
                                            <ntsc>TRUE</ntsc>
                                        </rate>
                                        <string>00:00:00:00</string>
                                        <frame>0</frame>
                                        <displayformat>NDF</displayformat>
                                        <media>
                                            <video/>
                                            <audio/>
                                        </media>
                                    </timecode>
                                </file>
                                <name>/home/davidk/code/python/JC-render/JC-examples/yoga.mp4</name>
                                <rate>
                                    <timebase>30</timebase>
                                    <ntsc>TRUE</ntsc>
                                </rate>
                                <start>26101</start>
                                <end>26106</end>
                            </clipitem>
                            <clipitem frameBlend="FALSE" id="clipitem-557">
                                <media>
                                    <video>
                                        <samplecharacteristics>
                                            <height>720</height>
                                            <width>1270</width>
                                        </samplecharacteristics>
                                    </video>
                                </media>
                                <file id="file-1">
                                    <pathurl>/home/davidk/code/python/JC-render/JC-examples/yoga.mp4</pathurl>
                                    <name>yoga.mp4</name>
                                    <rate>
                                        <timebase>30</timebase>
                                        <ntsc>TRUE</ntsc>
                                    </rate>
                                    <duration>54922</duration>
                                    <timecode>
                                        <rate>
                                            <timebase>30</timebase>
                                            <ntsc>TRUE</ntsc>
                                        </rate>
                                        <string>00:00:00:00</string>
                                        <frame>0</frame>
                                        <displayformat>NDF</displayformat>
                                        <media>
                                            <video/>
                                            <audio/>
                                        </media>
                                    </timecode>
                                </file>
                                <name>/home/davidk/code/python/JC-render/JC-examples/yoga.mp4</name>
                                <rate>
                                    <timebase>30</timebase>
                                    <ntsc>TRUE</ntsc>
                                </rate>
                                <start>26106</start>
                                <end>26170</end>
                            </clipitem>
                            <clipitem frameBlend="FALSE" id="clipitem-558">
                                <media>
                                    <video>
                                        <samplecharacteristics>
                                            <height>720</height>
                                            <width>1270</width>
                                        </samplecharacteristics>
                                    </video>
                                </media>
                                <file id="file-1">
                                    <pathurl>/home/davidk/code/python/JC-render/JC-examples/yoga.mp4</pathurl>
                                    <name>yoga.mp4</name>
                                    <rate>
                                        <timebase>30</timebase>
                                        <ntsc>TRUE</ntsc>
                                    </rate>
                                    <duration>54922</duration>
                                    <timecode>
                                        <rate>
                                            <timebase>30</timebase>
                                            <ntsc>TRUE</ntsc>
                                        </rate>
                                        <string>00:00:00:00</string>
                                        <frame>0</frame>
                                        <displayformat>NDF</displayformat>
                                        <media>
                                            <video/>
                                            <audio/>
                                        </media>
                                    </timecode>
                                </file>
                                <name>/home/davidk/code/python/JC-render/JC-examples/yoga.mp4</name>
                                <rate>
                                    <timebase>30</timebase>
                                    <ntsc>TRUE</ntsc>
                                </rate>
                                <start>26170</start>
                                <end>26176</end>
                            </clipitem>
                            <clipitem frameBlend="FALSE" id="clipitem-559">
                                <media>
                                    <video>
                                        <samplecharacteristics>
                                            <height>720</height>
                                            <width>1270</width>
                                        </samplecharacteristics>
                                    </video>
                                </media>
                                <file id="file-1">
                                    <pathurl>/home/davidk/code/python/JC-render/JC-examples/yoga.mp4</pathurl>
                                    <name>yoga.mp4</name>
                                    <rate>
                                        <timebase>30</timebase>
                                        <ntsc>TRUE</ntsc>
                                    </rate>
                                    <duration>54922</duration>
                                    <timecode>
                                        <rate>
                                            <timebase>30</timebase>
                                            <ntsc>TRUE</ntsc>
                                        </rate>
                                        <string>00:00:00:00</string>
                                        <frame>0</frame>
                                        <displayformat>NDF</displayformat>
                                        <media>
                                            <video/>
                                            <audio/>
                                        </media>
                                    </timecode>
                                </file>
                                <name>/home/davidk/code/python/JC-render/JC-examples/yoga.mp4</name>
                                <rate>
                                    <timebase>30</timebase>
                                    <ntsc>TRUE</ntsc>
                                </rate>
                                <start>26176</start>
                                <end>26358</end>
                            </clipitem>
                            <clipitem frameBlend="FALSE" id="clipitem-560">
                                <media>
                                    <video>
                                        <samplecharacteristics>
                                            <height>720</height>
                                            <width>1270</width>
                                        </samplecharacteristics>
                                    </video>
                                </media>
                                <file id="file-1">
                                    <pathurl>/home/davidk/code/python/JC-render/JC-examples/yoga.mp4</pathurl>
                                    <name>yoga.mp4</name>
                                    <rate>
                                        <timebase>30</timebase>
                                        <ntsc>TRUE</ntsc>
                                    </rate>
                                    <duration>54922</duration>
                                    <timecode>
                                        <rate>
                                            <timebase>30</timebase>
                                            <ntsc>TRUE</ntsc>
                                        </rate>
                                        <string>00:00:00:00</string>
                                        <frame>0</frame>
                                        <displayformat>NDF</displayformat>
                                        <media>
                                            <video/>
                                            <audio/>
                                        </media>
                                    </timecode>
                                </file>
                                <name>/home/davidk/code/python/JC-render/JC-examples/yoga.mp4</name>
                                <rate>
                                    <timebase>30</timebase>
                                    <ntsc>TRUE</ntsc>
                                </rate>
                                <start>26358</start>
                                <end>26378</end>
                            </clipitem>
                            <clipitem frameBlend="FALSE" id="clipitem-561">
                                <media>
                                    <video>
                                        <samplecharacteristics>
                                            <height>720</height>
                                            <width>1270</width>
                                        </samplecharacteristics>
                                    </video>
                                </media>
                                <file id="file-1">
                                    <pathurl>/home/davidk/code/python/JC-render/JC-examples/yoga.mp4</pathurl>
                                    <name>yoga.mp4</name>
                                    <rate>
                                        <timebase>30</timebase>
                                        <ntsc>TRUE</ntsc>
                                    </rate>
                                    <duration>54922</duration>
                                    <timecode>
                                        <rate>
                                            <timebase>30</timebase>
                                            <ntsc>TRUE</ntsc>
                                        </rate>
                                        <string>00:00:00:00</string>
                                        <frame>0</frame>
                                        <displayformat>NDF</displayformat>
                                        <media>
                                            <video/>
                                            <audio/>
                                        </media>
                                    </timecode>
                                </file>
                                <name>/home/davidk/code/python/JC-render/JC-examples/yoga.mp4</name>
                                <rate>
                                    <timebase>30</timebase>
                                    <ntsc>TRUE</ntsc>
                                </rate>
                                <start>26378</start>
                                <end>26480</end>
                            </clipitem>
                            <clipitem frameBlend="FALSE" id="clipitem-562">
                                <media>
                                    <video>
                                        <samplecharacteristics>
                                            <height>720</height>
                                            <width>1270</width>
                                        </samplecharacteristics>
                                    </video>
                                </media>
                                <file id="file-1">
                                    <pathurl>/home/davidk/code/python/JC-render/JC-examples/yoga.mp4</pathurl>
                                    <name>yoga.mp4</name>
                                    <rate>
                                        <timebase>30</timebase>
                                        <ntsc>TRUE</ntsc>
                                    </rate>
                                    <duration>54922</duration>
                                    <timecode>
                                        <rate>
                                            <timebase>30</timebase>
                                            <ntsc>TRUE</ntsc>
                                        </rate>
                                        <string>00:00:00:00</string>
                                        <frame>0</frame>
                                        <displayformat>NDF</displayformat>
                                        <media>
                                            <video/>
                                            <audio/>
                                        </media>
                                    </timecode>
                                </file>
                                <name>/home/davidk/code/python/JC-render/JC-examples/yoga.mp4</name>
                                <rate>
                                    <timebase>30</timebase>
                                    <ntsc>TRUE</ntsc>
                                </rate>
                                <start>26480</start>
                                <end>26482</end>
                            </clipitem>
                            <clipitem frameBlend="FALSE" id="clipitem-563">
                                <media>
                                    <video>
                                        <samplecharacteristics>
                                            <height>720</height>
                                            <width>1270</width>
                                        </samplecharacteristics>
                                    </video>
                                </media>
                                <file id="file-1">
                                    <pathurl>/home/davidk/code/python/JC-render/JC-examples/yoga.mp4</pathurl>
                                    <name>yoga.mp4</name>
                                    <rate>
                                        <timebase>30</timebase>
                                        <ntsc>TRUE</ntsc>
                                    </rate>
                                    <duration>54922</duration>
                                    <timecode>
                                        <rate>
                                            <timebase>30</timebase>
                                            <ntsc>TRUE</ntsc>
                                        </rate>
                                        <string>00:00:00:00</string>
                                        <frame>0</frame>
                                        <displayformat>NDF</displayformat>
                                        <media>
                                            <video/>
                                            <audio/>
                                        </media>
                                    </timecode>
                                </file>
                                <name>/home/davidk/code/python/JC-render/JC-examples/yoga.mp4</name>
                                <rate>
                                    <timebase>30</timebase>
                                    <ntsc>TRUE</ntsc>
                                </rate>
                                <start>26482</start>
                                <end>26512</end>
                            </clipitem>
                            <clipitem frameBlend="FALSE" id="clipitem-564">
                                <media>
                                    <video>
                                        <samplecharacteristics>
                                            <height>720</height>
                                            <width>1270</width>
                                        </samplecharacteristics>
                                    </video>
                                </media>
                                <file id="file-1">
                                    <pathurl>/home/davidk/code/python/JC-render/JC-examples/yoga.mp4</pathurl>
                                    <name>yoga.mp4</name>
                                    <rate>
                                        <timebase>30</timebase>
                                        <ntsc>TRUE</ntsc>
                                    </rate>
                                    <duration>54922</duration>
                                    <timecode>
                                        <rate>
                                            <timebase>30</timebase>
                                            <ntsc>TRUE</ntsc>
                                        </rate>
                                        <string>00:00:00:00</string>
                                        <frame>0</frame>
                                        <displayformat>NDF</displayformat>
                                        <media>
                                            <video/>
                                            <audio/>
                                        </media>
                                    </timecode>
                                </file>
                                <name>/home/davidk/code/python/JC-render/JC-examples/yoga.mp4</name>
                                <rate>
                                    <timebase>30</timebase>
                                    <ntsc>TRUE</ntsc>
                                </rate>
                                <start>26512</start>
                                <end>26548</end>
                            </clipitem>
                            <clipitem frameBlend="FALSE" id="clipitem-565">
                                <media>
                                    <video>
                                        <samplecharacteristics>
                                            <height>720</height>
                                            <width>1270</width>
                                        </samplecharacteristics>
                                    </video>
                                </media>
                                <file id="file-1">
                                    <pathurl>/home/davidk/code/python/JC-render/JC-examples/yoga.mp4</pathurl>
                                    <name>yoga.mp4</name>
                                    <rate>
                                        <timebase>30</timebase>
                                        <ntsc>TRUE</ntsc>
                                    </rate>
                                    <duration>54922</duration>
                                    <timecode>
                                        <rate>
                                            <timebase>30</timebase>
                                            <ntsc>TRUE</ntsc>
                                        </rate>
                                        <string>00:00:00:00</string>
                                        <frame>0</frame>
                                        <displayformat>NDF</displayformat>
                                        <media>
                                            <video/>
                                            <audio/>
                                        </media>
                                    </timecode>
                                </file>
                                <name>/home/davidk/code/python/JC-render/JC-examples/yoga.mp4</name>
                                <rate>
                                    <timebase>30</timebase>
                                    <ntsc>TRUE</ntsc>
                                </rate>
                                <start>26548</start>
                                <end>26647</end>
                            </clipitem>
                            <clipitem frameBlend="FALSE" id="clipitem-566">
                                <media>
                                    <video>
                                        <samplecharacteristics>
                                            <height>720</height>
                                            <width>1270</width>
                                        </samplecharacteristics>
                                    </video>
                                </media>
                                <file id="file-1">
                                    <pathurl>/home/davidk/code/python/JC-render/JC-examples/yoga.mp4</pathurl>
                                    <name>yoga.mp4</name>
                                    <rate>
                                        <timebase>30</timebase>
                                        <ntsc>TRUE</ntsc>
                                    </rate>
                                    <duration>54922</duration>
                                    <timecode>
                                        <rate>
                                            <timebase>30</timebase>
                                            <ntsc>TRUE</ntsc>
                                        </rate>
                                        <string>00:00:00:00</string>
                                        <frame>0</frame>
                                        <displayformat>NDF</displayformat>
                                        <media>
                                            <video/>
                                            <audio/>
                                        </media>
                                    </timecode>
                                </file>
                                <name>/home/davidk/code/python/JC-render/JC-examples/yoga.mp4</name>
                                <rate>
                                    <timebase>30</timebase>
                                    <ntsc>TRUE</ntsc>
                                </rate>
                                <start>26647</start>
                                <end>26656</end>
                            </clipitem>
                            <clipitem frameBlend="FALSE" id="clipitem-567">
                                <media>
                                    <video>
                                        <samplecharacteristics>
                                            <height>720</height>
                                            <width>1270</width>
                                        </samplecharacteristics>
                                    </video>
                                </media>
                                <file id="file-1">
                                    <pathurl>/home/davidk/code/python/JC-render/JC-examples/yoga.mp4</pathurl>
                                    <name>yoga.mp4</name>
                                    <rate>
                                        <timebase>30</timebase>
                                        <ntsc>TRUE</ntsc>
                                    </rate>
                                    <duration>54922</duration>
                                    <timecode>
                                        <rate>
                                            <timebase>30</timebase>
                                            <ntsc>TRUE</ntsc>
                                        </rate>
                                        <string>00:00:00:00</string>
                                        <frame>0</frame>
                                        <displayformat>NDF</displayformat>
                                        <media>
                                            <video/>
                                            <audio/>
                                        </media>
                                    </timecode>
                                </file>
                                <name>/home/davidk/code/python/JC-render/JC-examples/yoga.mp4</name>
                                <rate>
                                    <timebase>30</timebase>
                                    <ntsc>TRUE</ntsc>
                                </rate>
                                <start>26656</start>
                                <end>26696</end>
                            </clipitem>
                            <clipitem frameBlend="FALSE" id="clipitem-568">
                                <media>
                                    <video>
                                        <samplecharacteristics>
                                            <height>720</height>
                                            <width>1270</width>
                                        </samplecharacteristics>
                                    </video>
                                </media>
                                <file id="file-1">
                                    <pathurl>/home/davidk/code/python/JC-render/JC-examples/yoga.mp4</pathurl>
                                    <name>yoga.mp4</name>
                                    <rate>
                                        <timebase>30</timebase>
                                        <ntsc>TRUE</ntsc>
                                    </rate>
                                    <duration>54922</duration>
                                    <timecode>
                                        <rate>
                                            <timebase>30</timebase>
                                            <ntsc>TRUE</ntsc>
                                        </rate>
                                        <string>00:00:00:00</string>
                                        <frame>0</frame>
                                        <displayformat>NDF</displayformat>
                                        <media>
                                            <video/>
                                            <audio/>
                                        </media>
                                    </timecode>
                                </file>
                                <name>/home/davidk/code/python/JC-render/JC-examples/yoga.mp4</name>
                                <rate>
                                    <timebase>30</timebase>
                                    <ntsc>TRUE</ntsc>
                                </rate>
                                <start>26696</start>
                                <end>26698</end>
                            </clipitem>
                            <clipitem frameBlend="FALSE" id="clipitem-569">
                                <media>
                                    <video>
                                        <samplecharacteristics>
                                            <height>720</height>
                                            <width>1270</width>
                                        </samplecharacteristics>
                                    </video>
                                </media>
                                <file id="file-1">
                                    <pathurl>/home/davidk/code/python/JC-render/JC-examples/yoga.mp4</pathurl>
                                    <name>yoga.mp4</name>
                                    <rate>
                                        <timebase>30</timebase>
                                        <ntsc>TRUE</ntsc>
                                    </rate>
                                    <duration>54922</duration>
                                    <timecode>
                                        <rate>
                                            <timebase>30</timebase>
                                            <ntsc>TRUE</ntsc>
                                        </rate>
                                        <string>00:00:00:00</string>
                                        <frame>0</frame>
                                        <displayformat>NDF</displayformat>
                                        <media>
                                            <video/>
                                            <audio/>
                                        </media>
                                    </timecode>
                                </file>
                                <name>/home/davidk/code/python/JC-render/JC-examples/yoga.mp4</name>
                                <rate>
                                    <timebase>30</timebase>
                                    <ntsc>TRUE</ntsc>
                                </rate>
                                <start>26698</start>
                                <end>26745</end>
                            </clipitem>
                            <clipitem frameBlend="FALSE" id="clipitem-570">
                                <media>
                                    <video>
                                        <samplecharacteristics>
                                            <height>720</height>
                                            <width>1270</width>
                                        </samplecharacteristics>
                                    </video>
                                </media>
                                <file id="file-1">
                                    <pathurl>/home/davidk/code/python/JC-render/JC-examples/yoga.mp4</pathurl>
                                    <name>yoga.mp4</name>
                                    <rate>
                                        <timebase>30</timebase>
                                        <ntsc>TRUE</ntsc>
                                    </rate>
                                    <duration>54922</duration>
                                    <timecode>
                                        <rate>
                                            <timebase>30</timebase>
                                            <ntsc>TRUE</ntsc>
                                        </rate>
                                        <string>00:00:00:00</string>
                                        <frame>0</frame>
                                        <displayformat>NDF</displayformat>
                                        <media>
                                            <video/>
                                            <audio/>
                                        </media>
                                    </timecode>
                                </file>
                                <name>/home/davidk/code/python/JC-render/JC-examples/yoga.mp4</name>
                                <rate>
                                    <timebase>30</timebase>
                                    <ntsc>TRUE</ntsc>
                                </rate>
                                <start>26745</start>
                                <end>26761</end>
                            </clipitem>
                            <clipitem frameBlend="FALSE" id="clipitem-571">
                                <media>
                                    <video>
                                        <samplecharacteristics>
                                            <height>720</height>
                                            <width>1270</width>
                                        </samplecharacteristics>
                                    </video>
                                </media>
                                <file id="file-1">
                                    <pathurl>/home/davidk/code/python/JC-render/JC-examples/yoga.mp4</pathurl>
                                    <name>yoga.mp4</name>
                                    <rate>
                                        <timebase>30</timebase>
                                        <ntsc>TRUE</ntsc>
                                    </rate>
                                    <duration>54922</duration>
                                    <timecode>
                                        <rate>
                                            <timebase>30</timebase>
                                            <ntsc>TRUE</ntsc>
                                        </rate>
                                        <string>00:00:00:00</string>
                                        <frame>0</frame>
                                        <displayformat>NDF</displayformat>
                                        <media>
                                            <video/>
                                            <audio/>
                                        </media>
                                    </timecode>
                                </file>
                                <name>/home/davidk/code/python/JC-render/JC-examples/yoga.mp4</name>
                                <rate>
                                    <timebase>30</timebase>
                                    <ntsc>TRUE</ntsc>
                                </rate>
                                <start>26761</start>
                                <end>26808</end>
                            </clipitem>
                            <clipitem frameBlend="FALSE" id="clipitem-572">
                                <media>
                                    <video>
                                        <samplecharacteristics>
                                            <height>720</height>
                                            <width>1270</width>
                                        </samplecharacteristics>
                                    </video>
                                </media>
                                <file id="file-1">
                                    <pathurl>/home/davidk/code/python/JC-render/JC-examples/yoga.mp4</pathurl>
                                    <name>yoga.mp4</name>
                                    <rate>
                                        <timebase>30</timebase>
                                        <ntsc>TRUE</ntsc>
                                    </rate>
                                    <duration>54922</duration>
                                    <timecode>
                                        <rate>
                                            <timebase>30</timebase>
                                            <ntsc>TRUE</ntsc>
                                        </rate>
                                        <string>00:00:00:00</string>
                                        <frame>0</frame>
                                        <displayformat>NDF</displayformat>
                                        <media>
                                            <video/>
                                            <audio/>
                                        </media>
                                    </timecode>
                                </file>
                                <name>/home/davidk/code/python/JC-render/JC-examples/yoga.mp4</name>
                                <rate>
                                    <timebase>30</timebase>
                                    <ntsc>TRUE</ntsc>
                                </rate>
                                <start>26808</start>
                                <end>27137</end>
                            </clipitem>
                            <clipitem frameBlend="FALSE" id="clipitem-573">
                                <media>
                                    <video>
                                        <samplecharacteristics>
                                            <height>720</height>
                                            <width>1270</width>
                                        </samplecharacteristics>
                                    </video>
                                </media>
                                <file id="file-1">
                                    <pathurl>/home/davidk/code/python/JC-render/JC-examples/yoga.mp4</pathurl>
                                    <name>yoga.mp4</name>
                                    <rate>
                                        <timebase>30</timebase>
                                        <ntsc>TRUE</ntsc>
                                    </rate>
                                    <duration>54922</duration>
                                    <timecode>
                                        <rate>
                                            <timebase>30</timebase>
                                            <ntsc>TRUE</ntsc>
                                        </rate>
                                        <string>00:00:00:00</string>
                                        <frame>0</frame>
                                        <displayformat>NDF</displayformat>
                                        <media>
                                            <video/>
                                            <audio/>
                                        </media>
                                    </timecode>
                                </file>
                                <name>/home/davidk/code/python/JC-render/JC-examples/yoga.mp4</name>
                                <rate>
                                    <timebase>30</timebase>
                                    <ntsc>TRUE</ntsc>
                                </rate>
                                <start>27137</start>
                                <end>27173</end>
                            </clipitem>
                            <clipitem frameBlend="FALSE" id="clipitem-574">
                                <media>
                                    <video>
                                        <samplecharacteristics>
                                            <height>720</height>
                                            <width>1270</width>
                                        </samplecharacteristics>
                                    </video>
                                </media>
                                <file id="file-1">
                                    <pathurl>/home/davidk/code/python/JC-render/JC-examples/yoga.mp4</pathurl>
                                    <name>yoga.mp4</name>
                                    <rate>
                                        <timebase>30</timebase>
                                        <ntsc>TRUE</ntsc>
                                    </rate>
                                    <duration>54922</duration>
                                    <timecode>
                                        <rate>
                                            <timebase>30</timebase>
                                            <ntsc>TRUE</ntsc>
                                        </rate>
                                        <string>00:00:00:00</string>
                                        <frame>0</frame>
                                        <displayformat>NDF</displayformat>
                                        <media>
                                            <video/>
                                            <audio/>
                                        </media>
                                    </timecode>
                                </file>
                                <name>/home/davidk/code/python/JC-render/JC-examples/yoga.mp4</name>
                                <rate>
                                    <timebase>30</timebase>
                                    <ntsc>TRUE</ntsc>
                                </rate>
                                <start>27173</start>
                                <end>27207</end>
                            </clipitem>
                            <clipitem frameBlend="FALSE" id="clipitem-575">
                                <media>
                                    <video>
                                        <samplecharacteristics>
                                            <height>720</height>
                                            <width>1270</width>
                                        </samplecharacteristics>
                                    </video>
                                </media>
                                <file id="file-1">
                                    <pathurl>/home/davidk/code/python/JC-render/JC-examples/yoga.mp4</pathurl>
                                    <name>yoga.mp4</name>
                                    <rate>
                                        <timebase>30</timebase>
                                        <ntsc>TRUE</ntsc>
                                    </rate>
                                    <duration>54922</duration>
                                    <timecode>
                                        <rate>
                                            <timebase>30</timebase>
                                            <ntsc>TRUE</ntsc>
                                        </rate>
                                        <string>00:00:00:00</string>
                                        <frame>0</frame>
                                        <displayformat>NDF</displayformat>
                                        <media>
                                            <video/>
                                            <audio/>
                                        </media>
                                    </timecode>
                                </file>
                                <name>/home/davidk/code/python/JC-render/JC-examples/yoga.mp4</name>
                                <rate>
                                    <timebase>30</timebase>
                                    <ntsc>TRUE</ntsc>
                                </rate>
                                <start>27207</start>
                                <end>27271</end>
                            </clipitem>
                            <clipitem frameBlend="FALSE" id="clipitem-576">
                                <media>
                                    <video>
                                        <samplecharacteristics>
                                            <height>720</height>
                                            <width>1270</width>
                                        </samplecharacteristics>
                                    </video>
                                </media>
                                <file id="file-1">
                                    <pathurl>/home/davidk/code/python/JC-render/JC-examples/yoga.mp4</pathurl>
                                    <name>yoga.mp4</name>
                                    <rate>
                                        <timebase>30</timebase>
                                        <ntsc>TRUE</ntsc>
                                    </rate>
                                    <duration>54922</duration>
                                    <timecode>
                                        <rate>
                                            <timebase>30</timebase>
                                            <ntsc>TRUE</ntsc>
                                        </rate>
                                        <string>00:00:00:00</string>
                                        <frame>0</frame>
                                        <displayformat>NDF</displayformat>
                                        <media>
                                            <video/>
                                            <audio/>
                                        </media>
                                    </timecode>
                                </file>
                                <name>/home/davidk/code/python/JC-render/JC-examples/yoga.mp4</name>
                                <rate>
                                    <timebase>30</timebase>
                                    <ntsc>TRUE</ntsc>
                                </rate>
                                <start>27271</start>
                                <end>27273</end>
                            </clipitem>
                            <clipitem frameBlend="FALSE" id="clipitem-577">
                                <media>
                                    <video>
                                        <samplecharacteristics>
                                            <height>720</height>
                                            <width>1270</width>
                                        </samplecharacteristics>
                                    </video>
                                </media>
                                <file id="file-1">
                                    <pathurl>/home/davidk/code/python/JC-render/JC-examples/yoga.mp4</pathurl>
                                    <name>yoga.mp4</name>
                                    <rate>
                                        <timebase>30</timebase>
                                        <ntsc>TRUE</ntsc>
                                    </rate>
                                    <duration>54922</duration>
                                    <timecode>
                                        <rate>
                                            <timebase>30</timebase>
                                            <ntsc>TRUE</ntsc>
                                        </rate>
                                        <string>00:00:00:00</string>
                                        <frame>0</frame>
                                        <displayformat>NDF</displayformat>
                                        <media>
                                            <video/>
                                            <audio/>
                                        </media>
                                    </timecode>
                                </file>
                                <name>/home/davidk/code/python/JC-render/JC-examples/yoga.mp4</name>
                                <rate>
                                    <timebase>30</timebase>
                                    <ntsc>TRUE</ntsc>
                                </rate>
                                <start>27273</start>
                                <end>27306</end>
                            </clipitem>
                            <clipitem frameBlend="FALSE" id="clipitem-578">
                                <media>
                                    <video>
                                        <samplecharacteristics>
                                            <height>720</height>
                                            <width>1270</width>
                                        </samplecharacteristics>
                                    </video>
                                </media>
                                <file id="file-1">
                                    <pathurl>/home/davidk/code/python/JC-render/JC-examples/yoga.mp4</pathurl>
                                    <name>yoga.mp4</name>
                                    <rate>
                                        <timebase>30</timebase>
                                        <ntsc>TRUE</ntsc>
                                    </rate>
                                    <duration>54922</duration>
                                    <timecode>
                                        <rate>
                                            <timebase>30</timebase>
                                            <ntsc>TRUE</ntsc>
                                        </rate>
                                        <string>00:00:00:00</string>
                                        <frame>0</frame>
                                        <displayformat>NDF</displayformat>
                                        <media>
                                            <video/>
                                            <audio/>
                                        </media>
                                    </timecode>
                                </file>
                                <name>/home/davidk/code/python/JC-render/JC-examples/yoga.mp4</name>
                                <rate>
                                    <timebase>30</timebase>
                                    <ntsc>TRUE</ntsc>
                                </rate>
                                <start>27306</start>
                                <end>27318</end>
                            </clipitem>
                            <clipitem frameBlend="FALSE" id="clipitem-579">
                                <media>
                                    <video>
                                        <samplecharacteristics>
                                            <height>720</height>
                                            <width>1270</width>
                                        </samplecharacteristics>
                                    </video>
                                </media>
                                <file id="file-1">
                                    <pathurl>/home/davidk/code/python/JC-render/JC-examples/yoga.mp4</pathurl>
                                    <name>yoga.mp4</name>
                                    <rate>
                                        <timebase>30</timebase>
                                        <ntsc>TRUE</ntsc>
                                    </rate>
                                    <duration>54922</duration>
                                    <timecode>
                                        <rate>
                                            <timebase>30</timebase>
                                            <ntsc>TRUE</ntsc>
                                        </rate>
                                        <string>00:00:00:00</string>
                                        <frame>0</frame>
                                        <displayformat>NDF</displayformat>
                                        <media>
                                            <video/>
                                            <audio/>
                                        </media>
                                    </timecode>
                                </file>
                                <name>/home/davidk/code/python/JC-render/JC-examples/yoga.mp4</name>
                                <rate>
                                    <timebase>30</timebase>
                                    <ntsc>TRUE</ntsc>
                                </rate>
                                <start>27318</start>
                                <end>27375</end>
                            </clipitem>
                            <clipitem frameBlend="FALSE" id="clipitem-580">
                                <media>
                                    <video>
                                        <samplecharacteristics>
                                            <height>720</height>
                                            <width>1270</width>
                                        </samplecharacteristics>
                                    </video>
                                </media>
                                <file id="file-1">
                                    <pathurl>/home/davidk/code/python/JC-render/JC-examples/yoga.mp4</pathurl>
                                    <name>yoga.mp4</name>
                                    <rate>
                                        <timebase>30</timebase>
                                        <ntsc>TRUE</ntsc>
                                    </rate>
                                    <duration>54922</duration>
                                    <timecode>
                                        <rate>
                                            <timebase>30</timebase>
                                            <ntsc>TRUE</ntsc>
                                        </rate>
                                        <string>00:00:00:00</string>
                                        <frame>0</frame>
                                        <displayformat>NDF</displayformat>
                                        <media>
                                            <video/>
                                            <audio/>
                                        </media>
                                    </timecode>
                                </file>
                                <name>/home/davidk/code/python/JC-render/JC-examples/yoga.mp4</name>
                                <rate>
                                    <timebase>30</timebase>
                                    <ntsc>TRUE</ntsc>
                                </rate>
                                <start>27375</start>
                                <end>27499</end>
                            </clipitem>
                            <clipitem frameBlend="FALSE" id="clipitem-581">
                                <media>
                                    <video>
                                        <samplecharacteristics>
                                            <height>720</height>
                                            <width>1270</width>
                                        </samplecharacteristics>
                                    </video>
                                </media>
                                <file id="file-1">
                                    <pathurl>/home/davidk/code/python/JC-render/JC-examples/yoga.mp4</pathurl>
                                    <name>yoga.mp4</name>
                                    <rate>
                                        <timebase>30</timebase>
                                        <ntsc>TRUE</ntsc>
                                    </rate>
                                    <duration>54922</duration>
                                    <timecode>
                                        <rate>
                                            <timebase>30</timebase>
                                            <ntsc>TRUE</ntsc>
                                        </rate>
                                        <string>00:00:00:00</string>
                                        <frame>0</frame>
                                        <displayformat>NDF</displayformat>
                                        <media>
                                            <video/>
                                            <audio/>
                                        </media>
                                    </timecode>
                                </file>
                                <name>/home/davidk/code/python/JC-render/JC-examples/yoga.mp4</name>
                                <rate>
                                    <timebase>30</timebase>
                                    <ntsc>TRUE</ntsc>
                                </rate>
                                <start>27499</start>
                                <end>27553</end>
                            </clipitem>
                            <clipitem frameBlend="FALSE" id="clipitem-582">
                                <media>
                                    <video>
                                        <samplecharacteristics>
                                            <height>720</height>
                                            <width>1270</width>
                                        </samplecharacteristics>
                                    </video>
                                </media>
                                <file id="file-1">
                                    <pathurl>/home/davidk/code/python/JC-render/JC-examples/yoga.mp4</pathurl>
                                    <name>yoga.mp4</name>
                                    <rate>
                                        <timebase>30</timebase>
                                        <ntsc>TRUE</ntsc>
                                    </rate>
                                    <duration>54922</duration>
                                    <timecode>
                                        <rate>
                                            <timebase>30</timebase>
                                            <ntsc>TRUE</ntsc>
                                        </rate>
                                        <string>00:00:00:00</string>
                                        <frame>0</frame>
                                        <displayformat>NDF</displayformat>
                                        <media>
                                            <video/>
                                            <audio/>
                                        </media>
                                    </timecode>
                                </file>
                                <name>/home/davidk/code/python/JC-render/JC-examples/yoga.mp4</name>
                                <rate>
                                    <timebase>30</timebase>
                                    <ntsc>TRUE</ntsc>
                                </rate>
                                <start>27553</start>
                                <end>27590</end>
                            </clipitem>
                            <clipitem frameBlend="FALSE" id="clipitem-583">
                                <media>
                                    <video>
                                        <samplecharacteristics>
                                            <height>720</height>
                                            <width>1270</width>
                                        </samplecharacteristics>
                                    </video>
                                </media>
                                <file id="file-1">
                                    <pathurl>/home/davidk/code/python/JC-render/JC-examples/yoga.mp4</pathurl>
                                    <name>yoga.mp4</name>
                                    <rate>
                                        <timebase>30</timebase>
                                        <ntsc>TRUE</ntsc>
                                    </rate>
                                    <duration>54922</duration>
                                    <timecode>
                                        <rate>
                                            <timebase>30</timebase>
                                            <ntsc>TRUE</ntsc>
                                        </rate>
                                        <string>00:00:00:00</string>
                                        <frame>0</frame>
                                        <displayformat>NDF</displayformat>
                                        <media>
                                            <video/>
                                            <audio/>
                                        </media>
                                    </timecode>
                                </file>
                                <name>/home/davidk/code/python/JC-render/JC-examples/yoga.mp4</name>
                                <rate>
                                    <timebase>30</timebase>
                                    <ntsc>TRUE</ntsc>
                                </rate>
                                <start>27590</start>
                                <end>27661</end>
                            </clipitem>
                            <clipitem frameBlend="FALSE" id="clipitem-584">
                                <media>
                                    <video>
                                        <samplecharacteristics>
                                            <height>720</height>
                                            <width>1270</width>
                                        </samplecharacteristics>
                                    </video>
                                </media>
                                <file id="file-1">
                                    <pathurl>/home/davidk/code/python/JC-render/JC-examples/yoga.mp4</pathurl>
                                    <name>yoga.mp4</name>
                                    <rate>
                                        <timebase>30</timebase>
                                        <ntsc>TRUE</ntsc>
                                    </rate>
                                    <duration>54922</duration>
                                    <timecode>
                                        <rate>
                                            <timebase>30</timebase>
                                            <ntsc>TRUE</ntsc>
                                        </rate>
                                        <string>00:00:00:00</string>
                                        <frame>0</frame>
                                        <displayformat>NDF</displayformat>
                                        <media>
                                            <video/>
                                            <audio/>
                                        </media>
                                    </timecode>
                                </file>
                                <name>/home/davidk/code/python/JC-render/JC-examples/yoga.mp4</name>
                                <rate>
                                    <timebase>30</timebase>
                                    <ntsc>TRUE</ntsc>
                                </rate>
                                <start>27661</start>
                                <end>27687</end>
                            </clipitem>
                            <clipitem frameBlend="FALSE" id="clipitem-585">
                                <media>
                                    <video>
                                        <samplecharacteristics>
                                            <height>720</height>
                                            <width>1270</width>
                                        </samplecharacteristics>
                                    </video>
                                </media>
                                <file id="file-1">
                                    <pathurl>/home/davidk/code/python/JC-render/JC-examples/yoga.mp4</pathurl>
                                    <name>yoga.mp4</name>
                                    <rate>
                                        <timebase>30</timebase>
                                        <ntsc>TRUE</ntsc>
                                    </rate>
                                    <duration>54922</duration>
                                    <timecode>
                                        <rate>
                                            <timebase>30</timebase>
                                            <ntsc>TRUE</ntsc>
                                        </rate>
                                        <string>00:00:00:00</string>
                                        <frame>0</frame>
                                        <displayformat>NDF</displayformat>
                                        <media>
                                            <video/>
                                            <audio/>
                                        </media>
                                    </timecode>
                                </file>
                                <name>/home/davidk/code/python/JC-render/JC-examples/yoga.mp4</name>
                                <rate>
                                    <timebase>30</timebase>
                                    <ntsc>TRUE</ntsc>
                                </rate>
                                <start>27687</start>
                                <end>27717</end>
                            </clipitem>
                            <clipitem frameBlend="FALSE" id="clipitem-586">
                                <media>
                                    <video>
                                        <samplecharacteristics>
                                            <height>720</height>
                                            <width>1270</width>
                                        </samplecharacteristics>
                                    </video>
                                </media>
                                <file id="file-1">
                                    <pathurl>/home/davidk/code/python/JC-render/JC-examples/yoga.mp4</pathurl>
                                    <name>yoga.mp4</name>
                                    <rate>
                                        <timebase>30</timebase>
                                        <ntsc>TRUE</ntsc>
                                    </rate>
                                    <duration>54922</duration>
                                    <timecode>
                                        <rate>
                                            <timebase>30</timebase>
                                            <ntsc>TRUE</ntsc>
                                        </rate>
                                        <string>00:00:00:00</string>
                                        <frame>0</frame>
                                        <displayformat>NDF</displayformat>
                                        <media>
                                            <video/>
                                            <audio/>
                                        </media>
                                    </timecode>
                                </file>
                                <name>/home/davidk/code/python/JC-render/JC-examples/yoga.mp4</name>
                                <rate>
                                    <timebase>30</timebase>
                                    <ntsc>TRUE</ntsc>
                                </rate>
                                <start>27717</start>
                                <end>27740</end>
                            </clipitem>
                            <clipitem frameBlend="FALSE" id="clipitem-587">
                                <media>
                                    <video>
                                        <samplecharacteristics>
                                            <height>720</height>
                                            <width>1270</width>
                                        </samplecharacteristics>
                                    </video>
                                </media>
                                <file id="file-1">
                                    <pathurl>/home/davidk/code/python/JC-render/JC-examples/yoga.mp4</pathurl>
                                    <name>yoga.mp4</name>
                                    <rate>
                                        <timebase>30</timebase>
                                        <ntsc>TRUE</ntsc>
                                    </rate>
                                    <duration>54922</duration>
                                    <timecode>
                                        <rate>
                                            <timebase>30</timebase>
                                            <ntsc>TRUE</ntsc>
                                        </rate>
                                        <string>00:00:00:00</string>
                                        <frame>0</frame>
                                        <displayformat>NDF</displayformat>
                                        <media>
                                            <video/>
                                            <audio/>
                                        </media>
                                    </timecode>
                                </file>
                                <name>/home/davidk/code/python/JC-render/JC-examples/yoga.mp4</name>
                                <rate>
                                    <timebase>30</timebase>
                                    <ntsc>TRUE</ntsc>
                                </rate>
                                <start>27740</start>
                                <end>27772</end>
                            </clipitem>
                            <clipitem frameBlend="FALSE" id="clipitem-588">
                                <media>
                                    <video>
                                        <samplecharacteristics>
                                            <height>720</height>
                                            <width>1270</width>
                                        </samplecharacteristics>
                                    </video>
                                </media>
                                <file id="file-1">
                                    <pathurl>/home/davidk/code/python/JC-render/JC-examples/yoga.mp4</pathurl>
                                    <name>yoga.mp4</name>
                                    <rate>
                                        <timebase>30</timebase>
                                        <ntsc>TRUE</ntsc>
                                    </rate>
                                    <duration>54922</duration>
                                    <timecode>
                                        <rate>
                                            <timebase>30</timebase>
                                            <ntsc>TRUE</ntsc>
                                        </rate>
                                        <string>00:00:00:00</string>
                                        <frame>0</frame>
                                        <displayformat>NDF</displayformat>
                                        <media>
                                            <video/>
                                            <audio/>
                                        </media>
                                    </timecode>
                                </file>
                                <name>/home/davidk/code/python/JC-render/JC-examples/yoga.mp4</name>
                                <rate>
                                    <timebase>30</timebase>
                                    <ntsc>TRUE</ntsc>
                                </rate>
                                <start>27772</start>
                                <end>27792</end>
                            </clipitem>
                            <clipitem frameBlend="FALSE" id="clipitem-589">
                                <media>
                                    <video>
                                        <samplecharacteristics>
                                            <height>720</height>
                                            <width>1270</width>
                                        </samplecharacteristics>
                                    </video>
                                </media>
                                <file id="file-1">
                                    <pathurl>/home/davidk/code/python/JC-render/JC-examples/yoga.mp4</pathurl>
                                    <name>yoga.mp4</name>
                                    <rate>
                                        <timebase>30</timebase>
                                        <ntsc>TRUE</ntsc>
                                    </rate>
                                    <duration>54922</duration>
                                    <timecode>
                                        <rate>
                                            <timebase>30</timebase>
                                            <ntsc>TRUE</ntsc>
                                        </rate>
                                        <string>00:00:00:00</string>
                                        <frame>0</frame>
                                        <displayformat>NDF</displayformat>
                                        <media>
                                            <video/>
                                            <audio/>
                                        </media>
                                    </timecode>
                                </file>
                                <name>/home/davidk/code/python/JC-render/JC-examples/yoga.mp4</name>
                                <rate>
                                    <timebase>30</timebase>
                                    <ntsc>TRUE</ntsc>
                                </rate>
                                <start>27792</start>
                                <end>27853</end>
                            </clipitem>
                            <clipitem frameBlend="FALSE" id="clipitem-590">
                                <media>
                                    <video>
                                        <samplecharacteristics>
                                            <height>720</height>
                                            <width>1270</width>
                                        </samplecharacteristics>
                                    </video>
                                </media>
                                <file id="file-1">
                                    <pathurl>/home/davidk/code/python/JC-render/JC-examples/yoga.mp4</pathurl>
                                    <name>yoga.mp4</name>
                                    <rate>
                                        <timebase>30</timebase>
                                        <ntsc>TRUE</ntsc>
                                    </rate>
                                    <duration>54922</duration>
                                    <timecode>
                                        <rate>
                                            <timebase>30</timebase>
                                            <ntsc>TRUE</ntsc>
                                        </rate>
                                        <string>00:00:00:00</string>
                                        <frame>0</frame>
                                        <displayformat>NDF</displayformat>
                                        <media>
                                            <video/>
                                            <audio/>
                                        </media>
                                    </timecode>
                                </file>
                                <name>/home/davidk/code/python/JC-render/JC-examples/yoga.mp4</name>
                                <rate>
                                    <timebase>30</timebase>
                                    <ntsc>TRUE</ntsc>
                                </rate>
                                <start>27853</start>
                                <end>27907</end>
                            </clipitem>
                            <clipitem frameBlend="FALSE" id="clipitem-591">
                                <media>
                                    <video>
                                        <samplecharacteristics>
                                            <height>720</height>
                                            <width>1270</width>
                                        </samplecharacteristics>
                                    </video>
                                </media>
                                <file id="file-1">
                                    <pathurl>/home/davidk/code/python/JC-render/JC-examples/yoga.mp4</pathurl>
                                    <name>yoga.mp4</name>
                                    <rate>
                                        <timebase>30</timebase>
                                        <ntsc>TRUE</ntsc>
                                    </rate>
                                    <duration>54922</duration>
                                    <timecode>
                                        <rate>
                                            <timebase>30</timebase>
                                            <ntsc>TRUE</ntsc>
                                        </rate>
                                        <string>00:00:00:00</string>
                                        <frame>0</frame>
                                        <displayformat>NDF</displayformat>
                                        <media>
                                            <video/>
                                            <audio/>
                                        </media>
                                    </timecode>
                                </file>
                                <name>/home/davidk/code/python/JC-render/JC-examples/yoga.mp4</name>
                                <rate>
                                    <timebase>30</timebase>
                                    <ntsc>TRUE</ntsc>
                                </rate>
                                <start>27907</start>
                                <end>27936</end>
                            </clipitem>
                            <clipitem frameBlend="FALSE" id="clipitem-592">
                                <media>
                                    <video>
                                        <samplecharacteristics>
                                            <height>720</height>
                                            <width>1270</width>
                                        </samplecharacteristics>
                                    </video>
                                </media>
                                <file id="file-1">
                                    <pathurl>/home/davidk/code/python/JC-render/JC-examples/yoga.mp4</pathurl>
                                    <name>yoga.mp4</name>
                                    <rate>
                                        <timebase>30</timebase>
                                        <ntsc>TRUE</ntsc>
                                    </rate>
                                    <duration>54922</duration>
                                    <timecode>
                                        <rate>
                                            <timebase>30</timebase>
                                            <ntsc>TRUE</ntsc>
                                        </rate>
                                        <string>00:00:00:00</string>
                                        <frame>0</frame>
                                        <displayformat>NDF</displayformat>
                                        <media>
                                            <video/>
                                            <audio/>
                                        </media>
                                    </timecode>
                                </file>
                                <name>/home/davidk/code/python/JC-render/JC-examples/yoga.mp4</name>
                                <rate>
                                    <timebase>30</timebase>
                                    <ntsc>TRUE</ntsc>
                                </rate>
                                <start>27936</start>
                                <end>27990</end>
                            </clipitem>
                            <clipitem frameBlend="FALSE" id="clipitem-593">
                                <media>
                                    <video>
                                        <samplecharacteristics>
                                            <height>720</height>
                                            <width>1270</width>
                                        </samplecharacteristics>
                                    </video>
                                </media>
                                <file id="file-1">
                                    <pathurl>/home/davidk/code/python/JC-render/JC-examples/yoga.mp4</pathurl>
                                    <name>yoga.mp4</name>
                                    <rate>
                                        <timebase>30</timebase>
                                        <ntsc>TRUE</ntsc>
                                    </rate>
                                    <duration>54922</duration>
                                    <timecode>
                                        <rate>
                                            <timebase>30</timebase>
                                            <ntsc>TRUE</ntsc>
                                        </rate>
                                        <string>00:00:00:00</string>
                                        <frame>0</frame>
                                        <displayformat>NDF</displayformat>
                                        <media>
                                            <video/>
                                            <audio/>
                                        </media>
                                    </timecode>
                                </file>
                                <name>/home/davidk/code/python/JC-render/JC-examples/yoga.mp4</name>
                                <rate>
                                    <timebase>30</timebase>
                                    <ntsc>TRUE</ntsc>
                                </rate>
                                <start>27990</start>
                                <end>28013</end>
                            </clipitem>
                            <clipitem frameBlend="FALSE" id="clipitem-594">
                                <media>
                                    <video>
                                        <samplecharacteristics>
                                            <height>720</height>
                                            <width>1270</width>
                                        </samplecharacteristics>
                                    </video>
                                </media>
                                <file id="file-1">
                                    <pathurl>/home/davidk/code/python/JC-render/JC-examples/yoga.mp4</pathurl>
                                    <name>yoga.mp4</name>
                                    <rate>
                                        <timebase>30</timebase>
                                        <ntsc>TRUE</ntsc>
                                    </rate>
                                    <duration>54922</duration>
                                    <timecode>
                                        <rate>
                                            <timebase>30</timebase>
                                            <ntsc>TRUE</ntsc>
                                        </rate>
                                        <string>00:00:00:00</string>
                                        <frame>0</frame>
                                        <displayformat>NDF</displayformat>
                                        <media>
                                            <video/>
                                            <audio/>
                                        </media>
                                    </timecode>
                                </file>
                                <name>/home/davidk/code/python/JC-render/JC-examples/yoga.mp4</name>
                                <rate>
                                    <timebase>30</timebase>
                                    <ntsc>TRUE</ntsc>
                                </rate>
                                <start>28013</start>
                                <end>28022</end>
                            </clipitem>
                            <clipitem frameBlend="FALSE" id="clipitem-595">
                                <media>
                                    <video>
                                        <samplecharacteristics>
                                            <height>720</height>
                                            <width>1270</width>
                                        </samplecharacteristics>
                                    </video>
                                </media>
                                <file id="file-1">
                                    <pathurl>/home/davidk/code/python/JC-render/JC-examples/yoga.mp4</pathurl>
                                    <name>yoga.mp4</name>
                                    <rate>
                                        <timebase>30</timebase>
                                        <ntsc>TRUE</ntsc>
                                    </rate>
                                    <duration>54922</duration>
                                    <timecode>
                                        <rate>
                                            <timebase>30</timebase>
                                            <ntsc>TRUE</ntsc>
                                        </rate>
                                        <string>00:00:00:00</string>
                                        <frame>0</frame>
                                        <displayformat>NDF</displayformat>
                                        <media>
                                            <video/>
                                            <audio/>
                                        </media>
                                    </timecode>
                                </file>
                                <name>/home/davidk/code/python/JC-render/JC-examples/yoga.mp4</name>
                                <rate>
                                    <timebase>30</timebase>
                                    <ntsc>TRUE</ntsc>
                                </rate>
                                <start>28022</start>
                                <end>28037</end>
                            </clipitem>
                            <clipitem frameBlend="FALSE" id="clipitem-596">
                                <media>
                                    <video>
                                        <samplecharacteristics>
                                            <height>720</height>
                                            <width>1270</width>
                                        </samplecharacteristics>
                                    </video>
                                </media>
                                <file id="file-1">
                                    <pathurl>/home/davidk/code/python/JC-render/JC-examples/yoga.mp4</pathurl>
                                    <name>yoga.mp4</name>
                                    <rate>
                                        <timebase>30</timebase>
                                        <ntsc>TRUE</ntsc>
                                    </rate>
                                    <duration>54922</duration>
                                    <timecode>
                                        <rate>
                                            <timebase>30</timebase>
                                            <ntsc>TRUE</ntsc>
                                        </rate>
                                        <string>00:00:00:00</string>
                                        <frame>0</frame>
                                        <displayformat>NDF</displayformat>
                                        <media>
                                            <video/>
                                            <audio/>
                                        </media>
                                    </timecode>
                                </file>
                                <name>/home/davidk/code/python/JC-render/JC-examples/yoga.mp4</name>
                                <rate>
                                    <timebase>30</timebase>
                                    <ntsc>TRUE</ntsc>
                                </rate>
                                <start>28037</start>
                                <end>28043</end>
                            </clipitem>
                            <clipitem frameBlend="FALSE" id="clipitem-597">
                                <media>
                                    <video>
                                        <samplecharacteristics>
                                            <height>720</height>
                                            <width>1270</width>
                                        </samplecharacteristics>
                                    </video>
                                </media>
                                <file id="file-1">
                                    <pathurl>/home/davidk/code/python/JC-render/JC-examples/yoga.mp4</pathurl>
                                    <name>yoga.mp4</name>
                                    <rate>
                                        <timebase>30</timebase>
                                        <ntsc>TRUE</ntsc>
                                    </rate>
                                    <duration>54922</duration>
                                    <timecode>
                                        <rate>
                                            <timebase>30</timebase>
                                            <ntsc>TRUE</ntsc>
                                        </rate>
                                        <string>00:00:00:00</string>
                                        <frame>0</frame>
                                        <displayformat>NDF</displayformat>
                                        <media>
                                            <video/>
                                            <audio/>
                                        </media>
                                    </timecode>
                                </file>
                                <name>/home/davidk/code/python/JC-render/JC-examples/yoga.mp4</name>
                                <rate>
                                    <timebase>30</timebase>
                                    <ntsc>TRUE</ntsc>
                                </rate>
                                <start>28043</start>
                                <end>28075</end>
                            </clipitem>
                            <clipitem frameBlend="FALSE" id="clipitem-598">
                                <media>
                                    <video>
                                        <samplecharacteristics>
                                            <height>720</height>
                                            <width>1270</width>
                                        </samplecharacteristics>
                                    </video>
                                </media>
                                <file id="file-1">
                                    <pathurl>/home/davidk/code/python/JC-render/JC-examples/yoga.mp4</pathurl>
                                    <name>yoga.mp4</name>
                                    <rate>
                                        <timebase>30</timebase>
                                        <ntsc>TRUE</ntsc>
                                    </rate>
                                    <duration>54922</duration>
                                    <timecode>
                                        <rate>
                                            <timebase>30</timebase>
                                            <ntsc>TRUE</ntsc>
                                        </rate>
                                        <string>00:00:00:00</string>
                                        <frame>0</frame>
                                        <displayformat>NDF</displayformat>
                                        <media>
                                            <video/>
                                            <audio/>
                                        </media>
                                    </timecode>
                                </file>
                                <name>/home/davidk/code/python/JC-render/JC-examples/yoga.mp4</name>
                                <rate>
                                    <timebase>30</timebase>
                                    <ntsc>TRUE</ntsc>
                                </rate>
                                <start>28075</start>
                                <end>28140</end>
                            </clipitem>
                            <clipitem frameBlend="FALSE" id="clipitem-599">
                                <media>
                                    <video>
                                        <samplecharacteristics>
                                            <height>720</height>
                                            <width>1270</width>
                                        </samplecharacteristics>
                                    </video>
                                </media>
                                <file id="file-1">
                                    <pathurl>/home/davidk/code/python/JC-render/JC-examples/yoga.mp4</pathurl>
                                    <name>yoga.mp4</name>
                                    <rate>
                                        <timebase>30</timebase>
                                        <ntsc>TRUE</ntsc>
                                    </rate>
                                    <duration>54922</duration>
                                    <timecode>
                                        <rate>
                                            <timebase>30</timebase>
                                            <ntsc>TRUE</ntsc>
                                        </rate>
                                        <string>00:00:00:00</string>
                                        <frame>0</frame>
                                        <displayformat>NDF</displayformat>
                                        <media>
                                            <video/>
                                            <audio/>
                                        </media>
                                    </timecode>
                                </file>
                                <name>/home/davidk/code/python/JC-render/JC-examples/yoga.mp4</name>
                                <rate>
                                    <timebase>30</timebase>
                                    <ntsc>TRUE</ntsc>
                                </rate>
                                <start>28140</start>
                                <end>28156</end>
                            </clipitem>
                            <clipitem frameBlend="FALSE" id="clipitem-600">
                                <media>
                                    <video>
                                        <samplecharacteristics>
                                            <height>720</height>
                                            <width>1270</width>
                                        </samplecharacteristics>
                                    </video>
                                </media>
                                <file id="file-1">
                                    <pathurl>/home/davidk/code/python/JC-render/JC-examples/yoga.mp4</pathurl>
                                    <name>yoga.mp4</name>
                                    <rate>
                                        <timebase>30</timebase>
                                        <ntsc>TRUE</ntsc>
                                    </rate>
                                    <duration>54922</duration>
                                    <timecode>
                                        <rate>
                                            <timebase>30</timebase>
                                            <ntsc>TRUE</ntsc>
                                        </rate>
                                        <string>00:00:00:00</string>
                                        <frame>0</frame>
                                        <displayformat>NDF</displayformat>
                                        <media>
                                            <video/>
                                            <audio/>
                                        </media>
                                    </timecode>
                                </file>
                                <name>/home/davidk/code/python/JC-render/JC-examples/yoga.mp4</name>
                                <rate>
                                    <timebase>30</timebase>
                                    <ntsc>TRUE</ntsc>
                                </rate>
                                <start>28156</start>
                                <end>28161</end>
                            </clipitem>
                            <clipitem frameBlend="FALSE" id="clipitem-601">
                                <media>
                                    <video>
                                        <samplecharacteristics>
                                            <height>720</height>
                                            <width>1270</width>
                                        </samplecharacteristics>
                                    </video>
                                </media>
                                <file id="file-1">
                                    <pathurl>/home/davidk/code/python/JC-render/JC-examples/yoga.mp4</pathurl>
                                    <name>yoga.mp4</name>
                                    <rate>
                                        <timebase>30</timebase>
                                        <ntsc>TRUE</ntsc>
                                    </rate>
                                    <duration>54922</duration>
                                    <timecode>
                                        <rate>
                                            <timebase>30</timebase>
                                            <ntsc>TRUE</ntsc>
                                        </rate>
                                        <string>00:00:00:00</string>
                                        <frame>0</frame>
                                        <displayformat>NDF</displayformat>
                                        <media>
                                            <video/>
                                            <audio/>
                                        </media>
                                    </timecode>
                                </file>
                                <name>/home/davidk/code/python/JC-render/JC-examples/yoga.mp4</name>
                                <rate>
                                    <timebase>30</timebase>
                                    <ntsc>TRUE</ntsc>
                                </rate>
                                <start>28161</start>
                                <end>28222</end>
                            </clipitem>
                            <clipitem frameBlend="FALSE" id="clipitem-602">
                                <media>
                                    <video>
                                        <samplecharacteristics>
                                            <height>720</height>
                                            <width>1270</width>
                                        </samplecharacteristics>
                                    </video>
                                </media>
                                <file id="file-1">
                                    <pathurl>/home/davidk/code/python/JC-render/JC-examples/yoga.mp4</pathurl>
                                    <name>yoga.mp4</name>
                                    <rate>
                                        <timebase>30</timebase>
                                        <ntsc>TRUE</ntsc>
                                    </rate>
                                    <duration>54922</duration>
                                    <timecode>
                                        <rate>
                                            <timebase>30</timebase>
                                            <ntsc>TRUE</ntsc>
                                        </rate>
                                        <string>00:00:00:00</string>
                                        <frame>0</frame>
                                        <displayformat>NDF</displayformat>
                                        <media>
                                            <video/>
                                            <audio/>
                                        </media>
                                    </timecode>
                                </file>
                                <name>/home/davidk/code/python/JC-render/JC-examples/yoga.mp4</name>
                                <rate>
                                    <timebase>30</timebase>
                                    <ntsc>TRUE</ntsc>
                                </rate>
                                <start>28222</start>
                                <end>28272</end>
                            </clipitem>
                            <clipitem frameBlend="FALSE" id="clipitem-603">
                                <media>
                                    <video>
                                        <samplecharacteristics>
                                            <height>720</height>
                                            <width>1270</width>
                                        </samplecharacteristics>
                                    </video>
                                </media>
                                <file id="file-1">
                                    <pathurl>/home/davidk/code/python/JC-render/JC-examples/yoga.mp4</pathurl>
                                    <name>yoga.mp4</name>
                                    <rate>
                                        <timebase>30</timebase>
                                        <ntsc>TRUE</ntsc>
                                    </rate>
                                    <duration>54922</duration>
                                    <timecode>
                                        <rate>
                                            <timebase>30</timebase>
                                            <ntsc>TRUE</ntsc>
                                        </rate>
                                        <string>00:00:00:00</string>
                                        <frame>0</frame>
                                        <displayformat>NDF</displayformat>
                                        <media>
                                            <video/>
                                            <audio/>
                                        </media>
                                    </timecode>
                                </file>
                                <name>/home/davidk/code/python/JC-render/JC-examples/yoga.mp4</name>
                                <rate>
                                    <timebase>30</timebase>
                                    <ntsc>TRUE</ntsc>
                                </rate>
                                <start>28272</start>
                                <end>28323</end>
                            </clipitem>
                            <clipitem frameBlend="FALSE" id="clipitem-604">
                                <media>
                                    <video>
                                        <samplecharacteristics>
                                            <height>720</height>
                                            <width>1270</width>
                                        </samplecharacteristics>
                                    </video>
                                </media>
                                <file id="file-1">
                                    <pathurl>/home/davidk/code/python/JC-render/JC-examples/yoga.mp4</pathurl>
                                    <name>yoga.mp4</name>
                                    <rate>
                                        <timebase>30</timebase>
                                        <ntsc>TRUE</ntsc>
                                    </rate>
                                    <duration>54922</duration>
                                    <timecode>
                                        <rate>
                                            <timebase>30</timebase>
                                            <ntsc>TRUE</ntsc>
                                        </rate>
                                        <string>00:00:00:00</string>
                                        <frame>0</frame>
                                        <displayformat>NDF</displayformat>
                                        <media>
                                            <video/>
                                            <audio/>
                                        </media>
                                    </timecode>
                                </file>
                                <name>/home/davidk/code/python/JC-render/JC-examples/yoga.mp4</name>
                                <rate>
                                    <timebase>30</timebase>
                                    <ntsc>TRUE</ntsc>
                                </rate>
                                <start>28323</start>
                                <end>28436</end>
                            </clipitem>
                            <clipitem frameBlend="FALSE" id="clipitem-605">
                                <media>
                                    <video>
                                        <samplecharacteristics>
                                            <height>720</height>
                                            <width>1270</width>
                                        </samplecharacteristics>
                                    </video>
                                </media>
                                <file id="file-1">
                                    <pathurl>/home/davidk/code/python/JC-render/JC-examples/yoga.mp4</pathurl>
                                    <name>yoga.mp4</name>
                                    <rate>
                                        <timebase>30</timebase>
                                        <ntsc>TRUE</ntsc>
                                    </rate>
                                    <duration>54922</duration>
                                    <timecode>
                                        <rate>
                                            <timebase>30</timebase>
                                            <ntsc>TRUE</ntsc>
                                        </rate>
                                        <string>00:00:00:00</string>
                                        <frame>0</frame>
                                        <displayformat>NDF</displayformat>
                                        <media>
                                            <video/>
                                            <audio/>
                                        </media>
                                    </timecode>
                                </file>
                                <name>/home/davidk/code/python/JC-render/JC-examples/yoga.mp4</name>
                                <rate>
                                    <timebase>30</timebase>
                                    <ntsc>TRUE</ntsc>
                                </rate>
                                <start>28436</start>
                                <end>28462</end>
                            </clipitem>
                            <clipitem frameBlend="FALSE" id="clipitem-606">
                                <media>
                                    <video>
                                        <samplecharacteristics>
                                            <height>720</height>
                                            <width>1270</width>
                                        </samplecharacteristics>
                                    </video>
                                </media>
                                <file id="file-1">
                                    <pathurl>/home/davidk/code/python/JC-render/JC-examples/yoga.mp4</pathurl>
                                    <name>yoga.mp4</name>
                                    <rate>
                                        <timebase>30</timebase>
                                        <ntsc>TRUE</ntsc>
                                    </rate>
                                    <duration>54922</duration>
                                    <timecode>
                                        <rate>
                                            <timebase>30</timebase>
                                            <ntsc>TRUE</ntsc>
                                        </rate>
                                        <string>00:00:00:00</string>
                                        <frame>0</frame>
                                        <displayformat>NDF</displayformat>
                                        <media>
                                            <video/>
                                            <audio/>
                                        </media>
                                    </timecode>
                                </file>
                                <name>/home/davidk/code/python/JC-render/JC-examples/yoga.mp4</name>
                                <rate>
                                    <timebase>30</timebase>
                                    <ntsc>TRUE</ntsc>
                                </rate>
                                <start>28462</start>
                                <end>28544</end>
                            </clipitem>
                            <clipitem frameBlend="FALSE" id="clipitem-607">
                                <media>
                                    <video>
                                        <samplecharacteristics>
                                            <height>720</height>
                                            <width>1270</width>
                                        </samplecharacteristics>
                                    </video>
                                </media>
                                <file id="file-1">
                                    <pathurl>/home/davidk/code/python/JC-render/JC-examples/yoga.mp4</pathurl>
                                    <name>yoga.mp4</name>
                                    <rate>
                                        <timebase>30</timebase>
                                        <ntsc>TRUE</ntsc>
                                    </rate>
                                    <duration>54922</duration>
                                    <timecode>
                                        <rate>
                                            <timebase>30</timebase>
                                            <ntsc>TRUE</ntsc>
                                        </rate>
                                        <string>00:00:00:00</string>
                                        <frame>0</frame>
                                        <displayformat>NDF</displayformat>
                                        <media>
                                            <video/>
                                            <audio/>
                                        </media>
                                    </timecode>
                                </file>
                                <name>/home/davidk/code/python/JC-render/JC-examples/yoga.mp4</name>
                                <rate>
                                    <timebase>30</timebase>
                                    <ntsc>TRUE</ntsc>
                                </rate>
                                <start>28544</start>
                                <end>28560</end>
                            </clipitem>
                            <clipitem frameBlend="FALSE" id="clipitem-608">
                                <media>
                                    <video>
                                        <samplecharacteristics>
                                            <height>720</height>
                                            <width>1270</width>
                                        </samplecharacteristics>
                                    </video>
                                </media>
                                <file id="file-1">
                                    <pathurl>/home/davidk/code/python/JC-render/JC-examples/yoga.mp4</pathurl>
                                    <name>yoga.mp4</name>
                                    <rate>
                                        <timebase>30</timebase>
                                        <ntsc>TRUE</ntsc>
                                    </rate>
                                    <duration>54922</duration>
                                    <timecode>
                                        <rate>
                                            <timebase>30</timebase>
                                            <ntsc>TRUE</ntsc>
                                        </rate>
                                        <string>00:00:00:00</string>
                                        <frame>0</frame>
                                        <displayformat>NDF</displayformat>
                                        <media>
                                            <video/>
                                            <audio/>
                                        </media>
                                    </timecode>
                                </file>
                                <name>/home/davidk/code/python/JC-render/JC-examples/yoga.mp4</name>
                                <rate>
                                    <timebase>30</timebase>
                                    <ntsc>TRUE</ntsc>
                                </rate>
                                <start>28560</start>
                                <end>28603</end>
                            </clipitem>
                            <clipitem frameBlend="FALSE" id="clipitem-609">
                                <media>
                                    <video>
                                        <samplecharacteristics>
                                            <height>720</height>
                                            <width>1270</width>
                                        </samplecharacteristics>
                                    </video>
                                </media>
                                <file id="file-1">
                                    <pathurl>/home/davidk/code/python/JC-render/JC-examples/yoga.mp4</pathurl>
                                    <name>yoga.mp4</name>
                                    <rate>
                                        <timebase>30</timebase>
                                        <ntsc>TRUE</ntsc>
                                    </rate>
                                    <duration>54922</duration>
                                    <timecode>
                                        <rate>
                                            <timebase>30</timebase>
                                            <ntsc>TRUE</ntsc>
                                        </rate>
                                        <string>00:00:00:00</string>
                                        <frame>0</frame>
                                        <displayformat>NDF</displayformat>
                                        <media>
                                            <video/>
                                            <audio/>
                                        </media>
                                    </timecode>
                                </file>
                                <name>/home/davidk/code/python/JC-render/JC-examples/yoga.mp4</name>
                                <rate>
                                    <timebase>30</timebase>
                                    <ntsc>TRUE</ntsc>
                                </rate>
                                <start>28603</start>
                                <end>28619</end>
                            </clipitem>
                            <clipitem frameBlend="FALSE" id="clipitem-610">
                                <media>
                                    <video>
                                        <samplecharacteristics>
                                            <height>720</height>
                                            <width>1270</width>
                                        </samplecharacteristics>
                                    </video>
                                </media>
                                <file id="file-1">
                                    <pathurl>/home/davidk/code/python/JC-render/JC-examples/yoga.mp4</pathurl>
                                    <name>yoga.mp4</name>
                                    <rate>
                                        <timebase>30</timebase>
                                        <ntsc>TRUE</ntsc>
                                    </rate>
                                    <duration>54922</duration>
                                    <timecode>
                                        <rate>
                                            <timebase>30</timebase>
                                            <ntsc>TRUE</ntsc>
                                        </rate>
                                        <string>00:00:00:00</string>
                                        <frame>0</frame>
                                        <displayformat>NDF</displayformat>
                                        <media>
                                            <video/>
                                            <audio/>
                                        </media>
                                    </timecode>
                                </file>
                                <name>/home/davidk/code/python/JC-render/JC-examples/yoga.mp4</name>
                                <rate>
                                    <timebase>30</timebase>
                                    <ntsc>TRUE</ntsc>
                                </rate>
                                <start>28619</start>
                                <end>28652</end>
                            </clipitem>
                            <clipitem frameBlend="FALSE" id="clipitem-611">
                                <media>
                                    <video>
                                        <samplecharacteristics>
                                            <height>720</height>
                                            <width>1270</width>
                                        </samplecharacteristics>
                                    </video>
                                </media>
                                <file id="file-1">
                                    <pathurl>/home/davidk/code/python/JC-render/JC-examples/yoga.mp4</pathurl>
                                    <name>yoga.mp4</name>
                                    <rate>
                                        <timebase>30</timebase>
                                        <ntsc>TRUE</ntsc>
                                    </rate>
                                    <duration>54922</duration>
                                    <timecode>
                                        <rate>
                                            <timebase>30</timebase>
                                            <ntsc>TRUE</ntsc>
                                        </rate>
                                        <string>00:00:00:00</string>
                                        <frame>0</frame>
                                        <displayformat>NDF</displayformat>
                                        <media>
                                            <video/>
                                            <audio/>
                                        </media>
                                    </timecode>
                                </file>
                                <name>/home/davidk/code/python/JC-render/JC-examples/yoga.mp4</name>
                                <rate>
                                    <timebase>30</timebase>
                                    <ntsc>TRUE</ntsc>
                                </rate>
                                <start>28652</start>
                                <end>28668</end>
                            </clipitem>
                            <clipitem frameBlend="FALSE" id="clipitem-612">
                                <media>
                                    <video>
                                        <samplecharacteristics>
                                            <height>720</height>
                                            <width>1270</width>
                                        </samplecharacteristics>
                                    </video>
                                </media>
                                <file id="file-1">
                                    <pathurl>/home/davidk/code/python/JC-render/JC-examples/yoga.mp4</pathurl>
                                    <name>yoga.mp4</name>
                                    <rate>
                                        <timebase>30</timebase>
                                        <ntsc>TRUE</ntsc>
                                    </rate>
                                    <duration>54922</duration>
                                    <timecode>
                                        <rate>
                                            <timebase>30</timebase>
                                            <ntsc>TRUE</ntsc>
                                        </rate>
                                        <string>00:00:00:00</string>
                                        <frame>0</frame>
                                        <displayformat>NDF</displayformat>
                                        <media>
                                            <video/>
                                            <audio/>
                                        </media>
                                    </timecode>
                                </file>
                                <name>/home/davidk/code/python/JC-render/JC-examples/yoga.mp4</name>
                                <rate>
                                    <timebase>30</timebase>
                                    <ntsc>TRUE</ntsc>
                                </rate>
                                <start>28668</start>
                                <end>29230</end>
                            </clipitem>
                            <clipitem frameBlend="FALSE" id="clipitem-613">
                                <media>
                                    <video>
                                        <samplecharacteristics>
                                            <height>720</height>
                                            <width>1270</width>
                                        </samplecharacteristics>
                                    </video>
                                </media>
                                <file id="file-1">
                                    <pathurl>/home/davidk/code/python/JC-render/JC-examples/yoga.mp4</pathurl>
                                    <name>yoga.mp4</name>
                                    <rate>
                                        <timebase>30</timebase>
                                        <ntsc>TRUE</ntsc>
                                    </rate>
                                    <duration>54922</duration>
                                    <timecode>
                                        <rate>
                                            <timebase>30</timebase>
                                            <ntsc>TRUE</ntsc>
                                        </rate>
                                        <string>00:00:00:00</string>
                                        <frame>0</frame>
                                        <displayformat>NDF</displayformat>
                                        <media>
                                            <video/>
                                            <audio/>
                                        </media>
                                    </timecode>
                                </file>
                                <name>/home/davidk/code/python/JC-render/JC-examples/yoga.mp4</name>
                                <rate>
                                    <timebase>30</timebase>
                                    <ntsc>TRUE</ntsc>
                                </rate>
                                <start>29230</start>
                                <end>29277</end>
                            </clipitem>
                            <clipitem frameBlend="FALSE" id="clipitem-614">
                                <media>
                                    <video>
                                        <samplecharacteristics>
                                            <height>720</height>
                                            <width>1270</width>
                                        </samplecharacteristics>
                                    </video>
                                </media>
                                <file id="file-1">
                                    <pathurl>/home/davidk/code/python/JC-render/JC-examples/yoga.mp4</pathurl>
                                    <name>yoga.mp4</name>
                                    <rate>
                                        <timebase>30</timebase>
                                        <ntsc>TRUE</ntsc>
                                    </rate>
                                    <duration>54922</duration>
                                    <timecode>
                                        <rate>
                                            <timebase>30</timebase>
                                            <ntsc>TRUE</ntsc>
                                        </rate>
                                        <string>00:00:00:00</string>
                                        <frame>0</frame>
                                        <displayformat>NDF</displayformat>
                                        <media>
                                            <video/>
                                            <audio/>
                                        </media>
                                    </timecode>
                                </file>
                                <name>/home/davidk/code/python/JC-render/JC-examples/yoga.mp4</name>
                                <rate>
                                    <timebase>30</timebase>
                                    <ntsc>TRUE</ntsc>
                                </rate>
                                <start>29277</start>
                                <end>29370</end>
                            </clipitem>
                            <clipitem frameBlend="FALSE" id="clipitem-615">
                                <media>
                                    <video>
                                        <samplecharacteristics>
                                            <height>720</height>
                                            <width>1270</width>
                                        </samplecharacteristics>
                                    </video>
                                </media>
                                <file id="file-1">
                                    <pathurl>/home/davidk/code/python/JC-render/JC-examples/yoga.mp4</pathurl>
                                    <name>yoga.mp4</name>
                                    <rate>
                                        <timebase>30</timebase>
                                        <ntsc>TRUE</ntsc>
                                    </rate>
                                    <duration>54922</duration>
                                    <timecode>
                                        <rate>
                                            <timebase>30</timebase>
                                            <ntsc>TRUE</ntsc>
                                        </rate>
                                        <string>00:00:00:00</string>
                                        <frame>0</frame>
                                        <displayformat>NDF</displayformat>
                                        <media>
                                            <video/>
                                            <audio/>
                                        </media>
                                    </timecode>
                                </file>
                                <name>/home/davidk/code/python/JC-render/JC-examples/yoga.mp4</name>
                                <rate>
                                    <timebase>30</timebase>
                                    <ntsc>TRUE</ntsc>
                                </rate>
                                <start>29370</start>
                                <end>29395</end>
                            </clipitem>
                            <clipitem frameBlend="FALSE" id="clipitem-616">
                                <media>
                                    <video>
                                        <samplecharacteristics>
                                            <height>720</height>
                                            <width>1270</width>
                                        </samplecharacteristics>
                                    </video>
                                </media>
                                <file id="file-1">
                                    <pathurl>/home/davidk/code/python/JC-render/JC-examples/yoga.mp4</pathurl>
                                    <name>yoga.mp4</name>
                                    <rate>
                                        <timebase>30</timebase>
                                        <ntsc>TRUE</ntsc>
                                    </rate>
                                    <duration>54922</duration>
                                    <timecode>
                                        <rate>
                                            <timebase>30</timebase>
                                            <ntsc>TRUE</ntsc>
                                        </rate>
                                        <string>00:00:00:00</string>
                                        <frame>0</frame>
                                        <displayformat>NDF</displayformat>
                                        <media>
                                            <video/>
                                            <audio/>
                                        </media>
                                    </timecode>
                                </file>
                                <name>/home/davidk/code/python/JC-render/JC-examples/yoga.mp4</name>
                                <rate>
                                    <timebase>30</timebase>
                                    <ntsc>TRUE</ntsc>
                                </rate>
                                <start>29395</start>
                                <end>29568</end>
                            </clipitem>
                            <clipitem frameBlend="FALSE" id="clipitem-617">
                                <media>
                                    <video>
                                        <samplecharacteristics>
                                            <height>720</height>
                                            <width>1270</width>
                                        </samplecharacteristics>
                                    </video>
                                </media>
                                <file id="file-1">
                                    <pathurl>/home/davidk/code/python/JC-render/JC-examples/yoga.mp4</pathurl>
                                    <name>yoga.mp4</name>
                                    <rate>
                                        <timebase>30</timebase>
                                        <ntsc>TRUE</ntsc>
                                    </rate>
                                    <duration>54922</duration>
                                    <timecode>
                                        <rate>
                                            <timebase>30</timebase>
                                            <ntsc>TRUE</ntsc>
                                        </rate>
                                        <string>00:00:00:00</string>
                                        <frame>0</frame>
                                        <displayformat>NDF</displayformat>
                                        <media>
                                            <video/>
                                            <audio/>
                                        </media>
                                    </timecode>
                                </file>
                                <name>/home/davidk/code/python/JC-render/JC-examples/yoga.mp4</name>
                                <rate>
                                    <timebase>30</timebase>
                                    <ntsc>TRUE</ntsc>
                                </rate>
                                <start>29568</start>
                                <end>29629</end>
                            </clipitem>
                            <clipitem frameBlend="FALSE" id="clipitem-618">
                                <media>
                                    <video>
                                        <samplecharacteristics>
                                            <height>720</height>
                                            <width>1270</width>
                                        </samplecharacteristics>
                                    </video>
                                </media>
                                <file id="file-1">
                                    <pathurl>/home/davidk/code/python/JC-render/JC-examples/yoga.mp4</pathurl>
                                    <name>yoga.mp4</name>
                                    <rate>
                                        <timebase>30</timebase>
                                        <ntsc>TRUE</ntsc>
                                    </rate>
                                    <duration>54922</duration>
                                    <timecode>
                                        <rate>
                                            <timebase>30</timebase>
                                            <ntsc>TRUE</ntsc>
                                        </rate>
                                        <string>00:00:00:00</string>
                                        <frame>0</frame>
                                        <displayformat>NDF</displayformat>
                                        <media>
                                            <video/>
                                            <audio/>
                                        </media>
                                    </timecode>
                                </file>
                                <name>/home/davidk/code/python/JC-render/JC-examples/yoga.mp4</name>
                                <rate>
                                    <timebase>30</timebase>
                                    <ntsc>TRUE</ntsc>
                                </rate>
                                <start>29629</start>
                                <end>29676</end>
                            </clipitem>
                            <clipitem frameBlend="FALSE" id="clipitem-619">
                                <media>
                                    <video>
                                        <samplecharacteristics>
                                            <height>720</height>
                                            <width>1270</width>
                                        </samplecharacteristics>
                                    </video>
                                </media>
                                <file id="file-1">
                                    <pathurl>/home/davidk/code/python/JC-render/JC-examples/yoga.mp4</pathurl>
                                    <name>yoga.mp4</name>
                                    <rate>
                                        <timebase>30</timebase>
                                        <ntsc>TRUE</ntsc>
                                    </rate>
                                    <duration>54922</duration>
                                    <timecode>
                                        <rate>
                                            <timebase>30</timebase>
                                            <ntsc>TRUE</ntsc>
                                        </rate>
                                        <string>00:00:00:00</string>
                                        <frame>0</frame>
                                        <displayformat>NDF</displayformat>
                                        <media>
                                            <video/>
                                            <audio/>
                                        </media>
                                    </timecode>
                                </file>
                                <name>/home/davidk/code/python/JC-render/JC-examples/yoga.mp4</name>
                                <rate>
                                    <timebase>30</timebase>
                                    <ntsc>TRUE</ntsc>
                                </rate>
                                <start>29676</start>
                                <end>29754</end>
                            </clipitem>
                            <clipitem frameBlend="FALSE" id="clipitem-620">
                                <media>
                                    <video>
                                        <samplecharacteristics>
                                            <height>720</height>
                                            <width>1270</width>
                                        </samplecharacteristics>
                                    </video>
                                </media>
                                <file id="file-1">
                                    <pathurl>/home/davidk/code/python/JC-render/JC-examples/yoga.mp4</pathurl>
                                    <name>yoga.mp4</name>
                                    <rate>
                                        <timebase>30</timebase>
                                        <ntsc>TRUE</ntsc>
                                    </rate>
                                    <duration>54922</duration>
                                    <timecode>
                                        <rate>
                                            <timebase>30</timebase>
                                            <ntsc>TRUE</ntsc>
                                        </rate>
                                        <string>00:00:00:00</string>
                                        <frame>0</frame>
                                        <displayformat>NDF</displayformat>
                                        <media>
                                            <video/>
                                            <audio/>
                                        </media>
                                    </timecode>
                                </file>
                                <name>/home/davidk/code/python/JC-render/JC-examples/yoga.mp4</name>
                                <rate>
                                    <timebase>30</timebase>
                                    <ntsc>TRUE</ntsc>
                                </rate>
                                <start>29754</start>
                                <end>29767</end>
                            </clipitem>
                            <clipitem frameBlend="FALSE" id="clipitem-621">
                                <media>
                                    <video>
                                        <samplecharacteristics>
                                            <height>720</height>
                                            <width>1270</width>
                                        </samplecharacteristics>
                                    </video>
                                </media>
                                <file id="file-1">
                                    <pathurl>/home/davidk/code/python/JC-render/JC-examples/yoga.mp4</pathurl>
                                    <name>yoga.mp4</name>
                                    <rate>
                                        <timebase>30</timebase>
                                        <ntsc>TRUE</ntsc>
                                    </rate>
                                    <duration>54922</duration>
                                    <timecode>
                                        <rate>
                                            <timebase>30</timebase>
                                            <ntsc>TRUE</ntsc>
                                        </rate>
                                        <string>00:00:00:00</string>
                                        <frame>0</frame>
                                        <displayformat>NDF</displayformat>
                                        <media>
                                            <video/>
                                            <audio/>
                                        </media>
                                    </timecode>
                                </file>
                                <name>/home/davidk/code/python/JC-render/JC-examples/yoga.mp4</name>
                                <rate>
                                    <timebase>30</timebase>
                                    <ntsc>TRUE</ntsc>
                                </rate>
                                <start>29767</start>
                                <end>29942</end>
                            </clipitem>
                            <clipitem frameBlend="FALSE" id="clipitem-622">
                                <media>
                                    <video>
                                        <samplecharacteristics>
                                            <height>720</height>
                                            <width>1270</width>
                                        </samplecharacteristics>
                                    </video>
                                </media>
                                <file id="file-1">
                                    <pathurl>/home/davidk/code/python/JC-render/JC-examples/yoga.mp4</pathurl>
                                    <name>yoga.mp4</name>
                                    <rate>
                                        <timebase>30</timebase>
                                        <ntsc>TRUE</ntsc>
                                    </rate>
                                    <duration>54922</duration>
                                    <timecode>
                                        <rate>
                                            <timebase>30</timebase>
                                            <ntsc>TRUE</ntsc>
                                        </rate>
                                        <string>00:00:00:00</string>
                                        <frame>0</frame>
                                        <displayformat>NDF</displayformat>
                                        <media>
                                            <video/>
                                            <audio/>
                                        </media>
                                    </timecode>
                                </file>
                                <name>/home/davidk/code/python/JC-render/JC-examples/yoga.mp4</name>
                                <rate>
                                    <timebase>30</timebase>
                                    <ntsc>TRUE</ntsc>
                                </rate>
                                <start>29942</start>
                                <end>29944</end>
                            </clipitem>
                            <clipitem frameBlend="FALSE" id="clipitem-623">
                                <media>
                                    <video>
                                        <samplecharacteristics>
                                            <height>720</height>
                                            <width>1270</width>
                                        </samplecharacteristics>
                                    </video>
                                </media>
                                <file id="file-1">
                                    <pathurl>/home/davidk/code/python/JC-render/JC-examples/yoga.mp4</pathurl>
                                    <name>yoga.mp4</name>
                                    <rate>
                                        <timebase>30</timebase>
                                        <ntsc>TRUE</ntsc>
                                    </rate>
                                    <duration>54922</duration>
                                    <timecode>
                                        <rate>
                                            <timebase>30</timebase>
                                            <ntsc>TRUE</ntsc>
                                        </rate>
                                        <string>00:00:00:00</string>
                                        <frame>0</frame>
                                        <displayformat>NDF</displayformat>
                                        <media>
                                            <video/>
                                            <audio/>
                                        </media>
                                    </timecode>
                                </file>
                                <name>/home/davidk/code/python/JC-render/JC-examples/yoga.mp4</name>
                                <rate>
                                    <timebase>30</timebase>
                                    <ntsc>TRUE</ntsc>
                                </rate>
                                <start>29944</start>
                                <end>30085</end>
                            </clipitem>
                            <clipitem frameBlend="FALSE" id="clipitem-624">
                                <media>
                                    <video>
                                        <samplecharacteristics>
                                            <height>720</height>
                                            <width>1270</width>
                                        </samplecharacteristics>
                                    </video>
                                </media>
                                <file id="file-1">
                                    <pathurl>/home/davidk/code/python/JC-render/JC-examples/yoga.mp4</pathurl>
                                    <name>yoga.mp4</name>
                                    <rate>
                                        <timebase>30</timebase>
                                        <ntsc>TRUE</ntsc>
                                    </rate>
                                    <duration>54922</duration>
                                    <timecode>
                                        <rate>
                                            <timebase>30</timebase>
                                            <ntsc>TRUE</ntsc>
                                        </rate>
                                        <string>00:00:00:00</string>
                                        <frame>0</frame>
                                        <displayformat>NDF</displayformat>
                                        <media>
                                            <video/>
                                            <audio/>
                                        </media>
                                    </timecode>
                                </file>
                                <name>/home/davidk/code/python/JC-render/JC-examples/yoga.mp4</name>
                                <rate>
                                    <timebase>30</timebase>
                                    <ntsc>TRUE</ntsc>
                                </rate>
                                <start>30085</start>
                                <end>30091</end>
                            </clipitem>
                            <clipitem frameBlend="FALSE" id="clipitem-625">
                                <media>
                                    <video>
                                        <samplecharacteristics>
                                            <height>720</height>
                                            <width>1270</width>
                                        </samplecharacteristics>
                                    </video>
                                </media>
                                <file id="file-1">
                                    <pathurl>/home/davidk/code/python/JC-render/JC-examples/yoga.mp4</pathurl>
                                    <name>yoga.mp4</name>
                                    <rate>
                                        <timebase>30</timebase>
                                        <ntsc>TRUE</ntsc>
                                    </rate>
                                    <duration>54922</duration>
                                    <timecode>
                                        <rate>
                                            <timebase>30</timebase>
                                            <ntsc>TRUE</ntsc>
                                        </rate>
                                        <string>00:00:00:00</string>
                                        <frame>0</frame>
                                        <displayformat>NDF</displayformat>
                                        <media>
                                            <video/>
                                            <audio/>
                                        </media>
                                    </timecode>
                                </file>
                                <name>/home/davidk/code/python/JC-render/JC-examples/yoga.mp4</name>
                                <rate>
                                    <timebase>30</timebase>
                                    <ntsc>TRUE</ntsc>
                                </rate>
                                <start>30091</start>
                                <end>30123</end>
                            </clipitem>
                            <clipitem frameBlend="FALSE" id="clipitem-626">
                                <media>
                                    <video>
                                        <samplecharacteristics>
                                            <height>720</height>
                                            <width>1270</width>
                                        </samplecharacteristics>
                                    </video>
                                </media>
                                <file id="file-1">
                                    <pathurl>/home/davidk/code/python/JC-render/JC-examples/yoga.mp4</pathurl>
                                    <name>yoga.mp4</name>
                                    <rate>
                                        <timebase>30</timebase>
                                        <ntsc>TRUE</ntsc>
                                    </rate>
                                    <duration>54922</duration>
                                    <timecode>
                                        <rate>
                                            <timebase>30</timebase>
                                            <ntsc>TRUE</ntsc>
                                        </rate>
                                        <string>00:00:00:00</string>
                                        <frame>0</frame>
                                        <displayformat>NDF</displayformat>
                                        <media>
                                            <video/>
                                            <audio/>
                                        </media>
                                    </timecode>
                                </file>
                                <name>/home/davidk/code/python/JC-render/JC-examples/yoga.mp4</name>
                                <rate>
                                    <timebase>30</timebase>
                                    <ntsc>TRUE</ntsc>
                                </rate>
                                <start>30123</start>
                                <end>30439</end>
                            </clipitem>
                            <clipitem frameBlend="FALSE" id="clipitem-627">
                                <media>
                                    <video>
                                        <samplecharacteristics>
                                            <height>720</height>
                                            <width>1270</width>
                                        </samplecharacteristics>
                                    </video>
                                </media>
                                <file id="file-1">
                                    <pathurl>/home/davidk/code/python/JC-render/JC-examples/yoga.mp4</pathurl>
                                    <name>yoga.mp4</name>
                                    <rate>
                                        <timebase>30</timebase>
                                        <ntsc>TRUE</ntsc>
                                    </rate>
                                    <duration>54922</duration>
                                    <timecode>
                                        <rate>
                                            <timebase>30</timebase>
                                            <ntsc>TRUE</ntsc>
                                        </rate>
                                        <string>00:00:00:00</string>
                                        <frame>0</frame>
                                        <displayformat>NDF</displayformat>
                                        <media>
                                            <video/>
                                            <audio/>
                                        </media>
                                    </timecode>
                                </file>
                                <name>/home/davidk/code/python/JC-render/JC-examples/yoga.mp4</name>
                                <rate>
                                    <timebase>30</timebase>
                                    <ntsc>TRUE</ntsc>
                                </rate>
                                <start>30439</start>
                                <end>30517</end>
                            </clipitem>
                            <clipitem frameBlend="FALSE" id="clipitem-628">
                                <media>
                                    <video>
                                        <samplecharacteristics>
                                            <height>720</height>
                                            <width>1270</width>
                                        </samplecharacteristics>
                                    </video>
                                </media>
                                <file id="file-1">
                                    <pathurl>/home/davidk/code/python/JC-render/JC-examples/yoga.mp4</pathurl>
                                    <name>yoga.mp4</name>
                                    <rate>
                                        <timebase>30</timebase>
                                        <ntsc>TRUE</ntsc>
                                    </rate>
                                    <duration>54922</duration>
                                    <timecode>
                                        <rate>
                                            <timebase>30</timebase>
                                            <ntsc>TRUE</ntsc>
                                        </rate>
                                        <string>00:00:00:00</string>
                                        <frame>0</frame>
                                        <displayformat>NDF</displayformat>
                                        <media>
                                            <video/>
                                            <audio/>
                                        </media>
                                    </timecode>
                                </file>
                                <name>/home/davidk/code/python/JC-render/JC-examples/yoga.mp4</name>
                                <rate>
                                    <timebase>30</timebase>
                                    <ntsc>TRUE</ntsc>
                                </rate>
                                <start>30517</start>
                                <end>30613</end>
                            </clipitem>
                            <clipitem frameBlend="FALSE" id="clipitem-629">
                                <media>
                                    <video>
                                        <samplecharacteristics>
                                            <height>720</height>
                                            <width>1270</width>
                                        </samplecharacteristics>
                                    </video>
                                </media>
                                <file id="file-1">
                                    <pathurl>/home/davidk/code/python/JC-render/JC-examples/yoga.mp4</pathurl>
                                    <name>yoga.mp4</name>
                                    <rate>
                                        <timebase>30</timebase>
                                        <ntsc>TRUE</ntsc>
                                    </rate>
                                    <duration>54922</duration>
                                    <timecode>
                                        <rate>
                                            <timebase>30</timebase>
                                            <ntsc>TRUE</ntsc>
                                        </rate>
                                        <string>00:00:00:00</string>
                                        <frame>0</frame>
                                        <displayformat>NDF</displayformat>
                                        <media>
                                            <video/>
                                            <audio/>
                                        </media>
                                    </timecode>
                                </file>
                                <name>/home/davidk/code/python/JC-render/JC-examples/yoga.mp4</name>
                                <rate>
                                    <timebase>30</timebase>
                                    <ntsc>TRUE</ntsc>
                                </rate>
                                <start>30613</start>
                                <end>30635</end>
                            </clipitem>
                            <clipitem frameBlend="FALSE" id="clipitem-630">
                                <media>
                                    <video>
                                        <samplecharacteristics>
                                            <height>720</height>
                                            <width>1270</width>
                                        </samplecharacteristics>
                                    </video>
                                </media>
                                <file id="file-1">
                                    <pathurl>/home/davidk/code/python/JC-render/JC-examples/yoga.mp4</pathurl>
                                    <name>yoga.mp4</name>
                                    <rate>
                                        <timebase>30</timebase>
                                        <ntsc>TRUE</ntsc>
                                    </rate>
                                    <duration>54922</duration>
                                    <timecode>
                                        <rate>
                                            <timebase>30</timebase>
                                            <ntsc>TRUE</ntsc>
                                        </rate>
                                        <string>00:00:00:00</string>
                                        <frame>0</frame>
                                        <displayformat>NDF</displayformat>
                                        <media>
                                            <video/>
                                            <audio/>
                                        </media>
                                    </timecode>
                                </file>
                                <name>/home/davidk/code/python/JC-render/JC-examples/yoga.mp4</name>
                                <rate>
                                    <timebase>30</timebase>
                                    <ntsc>TRUE</ntsc>
                                </rate>
                                <start>30635</start>
                                <end>30651</end>
                            </clipitem>
                            <clipitem frameBlend="FALSE" id="clipitem-631">
                                <media>
                                    <video>
                                        <samplecharacteristics>
                                            <height>720</height>
                                            <width>1270</width>
                                        </samplecharacteristics>
                                    </video>
                                </media>
                                <file id="file-1">
                                    <pathurl>/home/davidk/code/python/JC-render/JC-examples/yoga.mp4</pathurl>
                                    <name>yoga.mp4</name>
                                    <rate>
                                        <timebase>30</timebase>
                                        <ntsc>TRUE</ntsc>
                                    </rate>
                                    <duration>54922</duration>
                                    <timecode>
                                        <rate>
                                            <timebase>30</timebase>
                                            <ntsc>TRUE</ntsc>
                                        </rate>
                                        <string>00:00:00:00</string>
                                        <frame>0</frame>
                                        <displayformat>NDF</displayformat>
                                        <media>
                                            <video/>
                                            <audio/>
                                        </media>
                                    </timecode>
                                </file>
                                <name>/home/davidk/code/python/JC-render/JC-examples/yoga.mp4</name>
                                <rate>
                                    <timebase>30</timebase>
                                    <ntsc>TRUE</ntsc>
                                </rate>
                                <start>30651</start>
                                <end>30712</end>
                            </clipitem>
                            <clipitem frameBlend="FALSE" id="clipitem-632">
                                <media>
                                    <video>
                                        <samplecharacteristics>
                                            <height>720</height>
                                            <width>1270</width>
                                        </samplecharacteristics>
                                    </video>
                                </media>
                                <file id="file-1">
                                    <pathurl>/home/davidk/code/python/JC-render/JC-examples/yoga.mp4</pathurl>
                                    <name>yoga.mp4</name>
                                    <rate>
                                        <timebase>30</timebase>
                                        <ntsc>TRUE</ntsc>
                                    </rate>
                                    <duration>54922</duration>
                                    <timecode>
                                        <rate>
                                            <timebase>30</timebase>
                                            <ntsc>TRUE</ntsc>
                                        </rate>
                                        <string>00:00:00:00</string>
                                        <frame>0</frame>
                                        <displayformat>NDF</displayformat>
                                        <media>
                                            <video/>
                                            <audio/>
                                        </media>
                                    </timecode>
                                </file>
                                <name>/home/davidk/code/python/JC-render/JC-examples/yoga.mp4</name>
                                <rate>
                                    <timebase>30</timebase>
                                    <ntsc>TRUE</ntsc>
                                </rate>
                                <start>30712</start>
                                <end>30749</end>
                            </clipitem>
                            <clipitem frameBlend="FALSE" id="clipitem-633">
                                <media>
                                    <video>
                                        <samplecharacteristics>
                                            <height>720</height>
                                            <width>1270</width>
                                        </samplecharacteristics>
                                    </video>
                                </media>
                                <file id="file-1">
                                    <pathurl>/home/davidk/code/python/JC-render/JC-examples/yoga.mp4</pathurl>
                                    <name>yoga.mp4</name>
                                    <rate>
                                        <timebase>30</timebase>
                                        <ntsc>TRUE</ntsc>
                                    </rate>
                                    <duration>54922</duration>
                                    <timecode>
                                        <rate>
                                            <timebase>30</timebase>
                                            <ntsc>TRUE</ntsc>
                                        </rate>
                                        <string>00:00:00:00</string>
                                        <frame>0</frame>
                                        <displayformat>NDF</displayformat>
                                        <media>
                                            <video/>
                                            <audio/>
                                        </media>
                                    </timecode>
                                </file>
                                <name>/home/davidk/code/python/JC-render/JC-examples/yoga.mp4</name>
                                <rate>
                                    <timebase>30</timebase>
                                    <ntsc>TRUE</ntsc>
                                </rate>
                                <start>30749</start>
                                <end>30820</end>
                            </clipitem>
                            <clipitem frameBlend="FALSE" id="clipitem-634">
                                <media>
                                    <video>
                                        <samplecharacteristics>
                                            <height>720</height>
                                            <width>1270</width>
                                        </samplecharacteristics>
                                    </video>
                                </media>
                                <file id="file-1">
                                    <pathurl>/home/davidk/code/python/JC-render/JC-examples/yoga.mp4</pathurl>
                                    <name>yoga.mp4</name>
                                    <rate>
                                        <timebase>30</timebase>
                                        <ntsc>TRUE</ntsc>
                                    </rate>
                                    <duration>54922</duration>
                                    <timecode>
                                        <rate>
                                            <timebase>30</timebase>
                                            <ntsc>TRUE</ntsc>
                                        </rate>
                                        <string>00:00:00:00</string>
                                        <frame>0</frame>
                                        <displayformat>NDF</displayformat>
                                        <media>
                                            <video/>
                                            <audio/>
                                        </media>
                                    </timecode>
                                </file>
                                <name>/home/davidk/code/python/JC-render/JC-examples/yoga.mp4</name>
                                <rate>
                                    <timebase>30</timebase>
                                    <ntsc>TRUE</ntsc>
                                </rate>
                                <start>30820</start>
                                <end>30825</end>
                            </clipitem>
                            <clipitem frameBlend="FALSE" id="clipitem-635">
                                <media>
                                    <video>
                                        <samplecharacteristics>
                                            <height>720</height>
                                            <width>1270</width>
                                        </samplecharacteristics>
                                    </video>
                                </media>
                                <file id="file-1">
                                    <pathurl>/home/davidk/code/python/JC-render/JC-examples/yoga.mp4</pathurl>
                                    <name>yoga.mp4</name>
                                    <rate>
                                        <timebase>30</timebase>
                                        <ntsc>TRUE</ntsc>
                                    </rate>
                                    <duration>54922</duration>
                                    <timecode>
                                        <rate>
                                            <timebase>30</timebase>
                                            <ntsc>TRUE</ntsc>
                                        </rate>
                                        <string>00:00:00:00</string>
                                        <frame>0</frame>
                                        <displayformat>NDF</displayformat>
                                        <media>
                                            <video/>
                                            <audio/>
                                        </media>
                                    </timecode>
                                </file>
                                <name>/home/davidk/code/python/JC-render/JC-examples/yoga.mp4</name>
                                <rate>
                                    <timebase>30</timebase>
                                    <ntsc>TRUE</ntsc>
                                </rate>
                                <start>30825</start>
                                <end>30928</end>
                            </clipitem>
                            <clipitem frameBlend="FALSE" id="clipitem-636">
                                <media>
                                    <video>
                                        <samplecharacteristics>
                                            <height>720</height>
                                            <width>1270</width>
                                        </samplecharacteristics>
                                    </video>
                                </media>
                                <file id="file-1">
                                    <pathurl>/home/davidk/code/python/JC-render/JC-examples/yoga.mp4</pathurl>
                                    <name>yoga.mp4</name>
                                    <rate>
                                        <timebase>30</timebase>
                                        <ntsc>TRUE</ntsc>
                                    </rate>
                                    <duration>54922</duration>
                                    <timecode>
                                        <rate>
                                            <timebase>30</timebase>
                                            <ntsc>TRUE</ntsc>
                                        </rate>
                                        <string>00:00:00:00</string>
                                        <frame>0</frame>
                                        <displayformat>NDF</displayformat>
                                        <media>
                                            <video/>
                                            <audio/>
                                        </media>
                                    </timecode>
                                </file>
                                <name>/home/davidk/code/python/JC-render/JC-examples/yoga.mp4</name>
                                <rate>
                                    <timebase>30</timebase>
                                    <ntsc>TRUE</ntsc>
                                </rate>
                                <start>30928</start>
                                <end>30979</end>
                            </clipitem>
                            <clipitem frameBlend="FALSE" id="clipitem-637">
                                <media>
                                    <video>
                                        <samplecharacteristics>
                                            <height>720</height>
                                            <width>1270</width>
                                        </samplecharacteristics>
                                    </video>
                                </media>
                                <file id="file-1">
                                    <pathurl>/home/davidk/code/python/JC-render/JC-examples/yoga.mp4</pathurl>
                                    <name>yoga.mp4</name>
                                    <rate>
                                        <timebase>30</timebase>
                                        <ntsc>TRUE</ntsc>
                                    </rate>
                                    <duration>54922</duration>
                                    <timecode>
                                        <rate>
                                            <timebase>30</timebase>
                                            <ntsc>TRUE</ntsc>
                                        </rate>
                                        <string>00:00:00:00</string>
                                        <frame>0</frame>
                                        <displayformat>NDF</displayformat>
                                        <media>
                                            <video/>
                                            <audio/>
                                        </media>
                                    </timecode>
                                </file>
                                <name>/home/davidk/code/python/JC-render/JC-examples/yoga.mp4</name>
                                <rate>
                                    <timebase>30</timebase>
                                    <ntsc>TRUE</ntsc>
                                </rate>
                                <start>30979</start>
                                <end>31113</end>
                            </clipitem>
                            <clipitem frameBlend="FALSE" id="clipitem-638">
                                <media>
                                    <video>
                                        <samplecharacteristics>
                                            <height>720</height>
                                            <width>1270</width>
                                        </samplecharacteristics>
                                    </video>
                                </media>
                                <file id="file-1">
                                    <pathurl>/home/davidk/code/python/JC-render/JC-examples/yoga.mp4</pathurl>
                                    <name>yoga.mp4</name>
                                    <rate>
                                        <timebase>30</timebase>
                                        <ntsc>TRUE</ntsc>
                                    </rate>
                                    <duration>54922</duration>
                                    <timecode>
                                        <rate>
                                            <timebase>30</timebase>
                                            <ntsc>TRUE</ntsc>
                                        </rate>
                                        <string>00:00:00:00</string>
                                        <frame>0</frame>
                                        <displayformat>NDF</displayformat>
                                        <media>
                                            <video/>
                                            <audio/>
                                        </media>
                                    </timecode>
                                </file>
                                <name>/home/davidk/code/python/JC-render/JC-examples/yoga.mp4</name>
                                <rate>
                                    <timebase>30</timebase>
                                    <ntsc>TRUE</ntsc>
                                </rate>
                                <start>31113</start>
                                <end>31132</end>
                            </clipitem>
                            <clipitem frameBlend="FALSE" id="clipitem-639">
                                <media>
                                    <video>
                                        <samplecharacteristics>
                                            <height>720</height>
                                            <width>1270</width>
                                        </samplecharacteristics>
                                    </video>
                                </media>
                                <file id="file-1">
                                    <pathurl>/home/davidk/code/python/JC-render/JC-examples/yoga.mp4</pathurl>
                                    <name>yoga.mp4</name>
                                    <rate>
                                        <timebase>30</timebase>
                                        <ntsc>TRUE</ntsc>
                                    </rate>
                                    <duration>54922</duration>
                                    <timecode>
                                        <rate>
                                            <timebase>30</timebase>
                                            <ntsc>TRUE</ntsc>
                                        </rate>
                                        <string>00:00:00:00</string>
                                        <frame>0</frame>
                                        <displayformat>NDF</displayformat>
                                        <media>
                                            <video/>
                                            <audio/>
                                        </media>
                                    </timecode>
                                </file>
                                <name>/home/davidk/code/python/JC-render/JC-examples/yoga.mp4</name>
                                <rate>
                                    <timebase>30</timebase>
                                    <ntsc>TRUE</ntsc>
                                </rate>
                                <start>31132</start>
                                <end>31207</end>
                            </clipitem>
                            <clipitem frameBlend="FALSE" id="clipitem-640">
                                <media>
                                    <video>
                                        <samplecharacteristics>
                                            <height>720</height>
                                            <width>1270</width>
                                        </samplecharacteristics>
                                    </video>
                                </media>
                                <file id="file-1">
                                    <pathurl>/home/davidk/code/python/JC-render/JC-examples/yoga.mp4</pathurl>
                                    <name>yoga.mp4</name>
                                    <rate>
                                        <timebase>30</timebase>
                                        <ntsc>TRUE</ntsc>
                                    </rate>
                                    <duration>54922</duration>
                                    <timecode>
                                        <rate>
                                            <timebase>30</timebase>
                                            <ntsc>TRUE</ntsc>
                                        </rate>
                                        <string>00:00:00:00</string>
                                        <frame>0</frame>
                                        <displayformat>NDF</displayformat>
                                        <media>
                                            <video/>
                                            <audio/>
                                        </media>
                                    </timecode>
                                </file>
                                <name>/home/davidk/code/python/JC-render/JC-examples/yoga.mp4</name>
                                <rate>
                                    <timebase>30</timebase>
                                    <ntsc>TRUE</ntsc>
                                </rate>
                                <start>31207</start>
                                <end>31223</end>
                            </clipitem>
                            <clipitem frameBlend="FALSE" id="clipitem-641">
                                <media>
                                    <video>
                                        <samplecharacteristics>
                                            <height>720</height>
                                            <width>1270</width>
                                        </samplecharacteristics>
                                    </video>
                                </media>
                                <file id="file-1">
                                    <pathurl>/home/davidk/code/python/JC-render/JC-examples/yoga.mp4</pathurl>
                                    <name>yoga.mp4</name>
                                    <rate>
                                        <timebase>30</timebase>
                                        <ntsc>TRUE</ntsc>
                                    </rate>
                                    <duration>54922</duration>
                                    <timecode>
                                        <rate>
                                            <timebase>30</timebase>
                                            <ntsc>TRUE</ntsc>
                                        </rate>
                                        <string>00:00:00:00</string>
                                        <frame>0</frame>
                                        <displayformat>NDF</displayformat>
                                        <media>
                                            <video/>
                                            <audio/>
                                        </media>
                                    </timecode>
                                </file>
                                <name>/home/davidk/code/python/JC-render/JC-examples/yoga.mp4</name>
                                <rate>
                                    <timebase>30</timebase>
                                    <ntsc>TRUE</ntsc>
                                </rate>
                                <start>31223</start>
                                <end>31294</end>
                            </clipitem>
                            <clipitem frameBlend="FALSE" id="clipitem-642">
                                <media>
                                    <video>
                                        <samplecharacteristics>
                                            <height>720</height>
                                            <width>1270</width>
                                        </samplecharacteristics>
                                    </video>
                                </media>
                                <file id="file-1">
                                    <pathurl>/home/davidk/code/python/JC-render/JC-examples/yoga.mp4</pathurl>
                                    <name>yoga.mp4</name>
                                    <rate>
                                        <timebase>30</timebase>
                                        <ntsc>TRUE</ntsc>
                                    </rate>
                                    <duration>54922</duration>
                                    <timecode>
                                        <rate>
                                            <timebase>30</timebase>
                                            <ntsc>TRUE</ntsc>
                                        </rate>
                                        <string>00:00:00:00</string>
                                        <frame>0</frame>
                                        <displayformat>NDF</displayformat>
                                        <media>
                                            <video/>
                                            <audio/>
                                        </media>
                                    </timecode>
                                </file>
                                <name>/home/davidk/code/python/JC-render/JC-examples/yoga.mp4</name>
                                <rate>
                                    <timebase>30</timebase>
                                    <ntsc>TRUE</ntsc>
                                </rate>
                                <start>31294</start>
                                <end>31306</end>
                            </clipitem>
                            <clipitem frameBlend="FALSE" id="clipitem-643">
                                <media>
                                    <video>
                                        <samplecharacteristics>
                                            <height>720</height>
                                            <width>1270</width>
                                        </samplecharacteristics>
                                    </video>
                                </media>
                                <file id="file-1">
                                    <pathurl>/home/davidk/code/python/JC-render/JC-examples/yoga.mp4</pathurl>
                                    <name>yoga.mp4</name>
                                    <rate>
                                        <timebase>30</timebase>
                                        <ntsc>TRUE</ntsc>
                                    </rate>
                                    <duration>54922</duration>
                                    <timecode>
                                        <rate>
                                            <timebase>30</timebase>
                                            <ntsc>TRUE</ntsc>
                                        </rate>
                                        <string>00:00:00:00</string>
                                        <frame>0</frame>
                                        <displayformat>NDF</displayformat>
                                        <media>
                                            <video/>
                                            <audio/>
                                        </media>
                                    </timecode>
                                </file>
                                <name>/home/davidk/code/python/JC-render/JC-examples/yoga.mp4</name>
                                <rate>
                                    <timebase>30</timebase>
                                    <ntsc>TRUE</ntsc>
                                </rate>
                                <start>31306</start>
                                <end>31356</end>
                            </clipitem>
                            <clipitem frameBlend="FALSE" id="clipitem-644">
                                <media>
                                    <video>
                                        <samplecharacteristics>
                                            <height>720</height>
                                            <width>1270</width>
                                        </samplecharacteristics>
                                    </video>
                                </media>
                                <file id="file-1">
                                    <pathurl>/home/davidk/code/python/JC-render/JC-examples/yoga.mp4</pathurl>
                                    <name>yoga.mp4</name>
                                    <rate>
                                        <timebase>30</timebase>
                                        <ntsc>TRUE</ntsc>
                                    </rate>
                                    <duration>54922</duration>
                                    <timecode>
                                        <rate>
                                            <timebase>30</timebase>
                                            <ntsc>TRUE</ntsc>
                                        </rate>
                                        <string>00:00:00:00</string>
                                        <frame>0</frame>
                                        <displayformat>NDF</displayformat>
                                        <media>
                                            <video/>
                                            <audio/>
                                        </media>
                                    </timecode>
                                </file>
                                <name>/home/davidk/code/python/JC-render/JC-examples/yoga.mp4</name>
                                <rate>
                                    <timebase>30</timebase>
                                    <ntsc>TRUE</ntsc>
                                </rate>
                                <start>31356</start>
                                <end>31428</end>
                            </clipitem>
                            <clipitem frameBlend="FALSE" id="clipitem-645">
                                <media>
                                    <video>
                                        <samplecharacteristics>
                                            <height>720</height>
                                            <width>1270</width>
                                        </samplecharacteristics>
                                    </video>
                                </media>
                                <file id="file-1">
                                    <pathurl>/home/davidk/code/python/JC-render/JC-examples/yoga.mp4</pathurl>
                                    <name>yoga.mp4</name>
                                    <rate>
                                        <timebase>30</timebase>
                                        <ntsc>TRUE</ntsc>
                                    </rate>
                                    <duration>54922</duration>
                                    <timecode>
                                        <rate>
                                            <timebase>30</timebase>
                                            <ntsc>TRUE</ntsc>
                                        </rate>
                                        <string>00:00:00:00</string>
                                        <frame>0</frame>
                                        <displayformat>NDF</displayformat>
                                        <media>
                                            <video/>
                                            <audio/>
                                        </media>
                                    </timecode>
                                </file>
                                <name>/home/davidk/code/python/JC-render/JC-examples/yoga.mp4</name>
                                <rate>
                                    <timebase>30</timebase>
                                    <ntsc>TRUE</ntsc>
                                </rate>
                                <start>31428</start>
                                <end>31454</end>
                            </clipitem>
                            <clipitem frameBlend="FALSE" id="clipitem-646">
                                <media>
                                    <video>
                                        <samplecharacteristics>
                                            <height>720</height>
                                            <width>1270</width>
                                        </samplecharacteristics>
                                    </video>
                                </media>
                                <file id="file-1">
                                    <pathurl>/home/davidk/code/python/JC-render/JC-examples/yoga.mp4</pathurl>
                                    <name>yoga.mp4</name>
                                    <rate>
                                        <timebase>30</timebase>
                                        <ntsc>TRUE</ntsc>
                                    </rate>
                                    <duration>54922</duration>
                                    <timecode>
                                        <rate>
                                            <timebase>30</timebase>
                                            <ntsc>TRUE</ntsc>
                                        </rate>
                                        <string>00:00:00:00</string>
                                        <frame>0</frame>
                                        <displayformat>NDF</displayformat>
                                        <media>
                                            <video/>
                                            <audio/>
                                        </media>
                                    </timecode>
                                </file>
                                <name>/home/davidk/code/python/JC-render/JC-examples/yoga.mp4</name>
                                <rate>
                                    <timebase>30</timebase>
                                    <ntsc>TRUE</ntsc>
                                </rate>
                                <start>31454</start>
                                <end>31543</end>
                            </clipitem>
                            <clipitem frameBlend="FALSE" id="clipitem-647">
                                <media>
                                    <video>
                                        <samplecharacteristics>
                                            <height>720</height>
                                            <width>1270</width>
                                        </samplecharacteristics>
                                    </video>
                                </media>
                                <file id="file-1">
                                    <pathurl>/home/davidk/code/python/JC-render/JC-examples/yoga.mp4</pathurl>
                                    <name>yoga.mp4</name>
                                    <rate>
                                        <timebase>30</timebase>
                                        <ntsc>TRUE</ntsc>
                                    </rate>
                                    <duration>54922</duration>
                                    <timecode>
                                        <rate>
                                            <timebase>30</timebase>
                                            <ntsc>TRUE</ntsc>
                                        </rate>
                                        <string>00:00:00:00</string>
                                        <frame>0</frame>
                                        <displayformat>NDF</displayformat>
                                        <media>
                                            <video/>
                                            <audio/>
                                        </media>
                                    </timecode>
                                </file>
                                <name>/home/davidk/code/python/JC-render/JC-examples/yoga.mp4</name>
                                <rate>
                                    <timebase>30</timebase>
                                    <ntsc>TRUE</ntsc>
                                </rate>
                                <start>31543</start>
                                <end>31684</end>
                            </clipitem>
                            <clipitem frameBlend="FALSE" id="clipitem-648">
                                <media>
                                    <video>
                                        <samplecharacteristics>
                                            <height>720</height>
                                            <width>1270</width>
                                        </samplecharacteristics>
                                    </video>
                                </media>
                                <file id="file-1">
                                    <pathurl>/home/davidk/code/python/JC-render/JC-examples/yoga.mp4</pathurl>
                                    <name>yoga.mp4</name>
                                    <rate>
                                        <timebase>30</timebase>
                                        <ntsc>TRUE</ntsc>
                                    </rate>
                                    <duration>54922</duration>
                                    <timecode>
                                        <rate>
                                            <timebase>30</timebase>
                                            <ntsc>TRUE</ntsc>
                                        </rate>
                                        <string>00:00:00:00</string>
                                        <frame>0</frame>
                                        <displayformat>NDF</displayformat>
                                        <media>
                                            <video/>
                                            <audio/>
                                        </media>
                                    </timecode>
                                </file>
                                <name>/home/davidk/code/python/JC-render/JC-examples/yoga.mp4</name>
                                <rate>
                                    <timebase>30</timebase>
                                    <ntsc>TRUE</ntsc>
                                </rate>
                                <start>31684</start>
                                <end>31689</end>
                            </clipitem>
                            <clipitem frameBlend="FALSE" id="clipitem-649">
                                <media>
                                    <video>
                                        <samplecharacteristics>
                                            <height>720</height>
                                            <width>1270</width>
                                        </samplecharacteristics>
                                    </video>
                                </media>
                                <file id="file-1">
                                    <pathurl>/home/davidk/code/python/JC-render/JC-examples/yoga.mp4</pathurl>
                                    <name>yoga.mp4</name>
                                    <rate>
                                        <timebase>30</timebase>
                                        <ntsc>TRUE</ntsc>
                                    </rate>
                                    <duration>54922</duration>
                                    <timecode>
                                        <rate>
                                            <timebase>30</timebase>
                                            <ntsc>TRUE</ntsc>
                                        </rate>
                                        <string>00:00:00:00</string>
                                        <frame>0</frame>
                                        <displayformat>NDF</displayformat>
                                        <media>
                                            <video/>
                                            <audio/>
                                        </media>
                                    </timecode>
                                </file>
                                <name>/home/davidk/code/python/JC-render/JC-examples/yoga.mp4</name>
                                <rate>
                                    <timebase>30</timebase>
                                    <ntsc>TRUE</ntsc>
                                </rate>
                                <start>31689</start>
                                <end>31743</end>
                            </clipitem>
                            <clipitem frameBlend="FALSE" id="clipitem-650">
                                <media>
                                    <video>
                                        <samplecharacteristics>
                                            <height>720</height>
                                            <width>1270</width>
                                        </samplecharacteristics>
                                    </video>
                                </media>
                                <file id="file-1">
                                    <pathurl>/home/davidk/code/python/JC-render/JC-examples/yoga.mp4</pathurl>
                                    <name>yoga.mp4</name>
                                    <rate>
                                        <timebase>30</timebase>
                                        <ntsc>TRUE</ntsc>
                                    </rate>
                                    <duration>54922</duration>
                                    <timecode>
                                        <rate>
                                            <timebase>30</timebase>
                                            <ntsc>TRUE</ntsc>
                                        </rate>
                                        <string>00:00:00:00</string>
                                        <frame>0</frame>
                                        <displayformat>NDF</displayformat>
                                        <media>
                                            <video/>
                                            <audio/>
                                        </media>
                                    </timecode>
                                </file>
                                <name>/home/davidk/code/python/JC-render/JC-examples/yoga.mp4</name>
                                <rate>
                                    <timebase>30</timebase>
                                    <ntsc>TRUE</ntsc>
                                </rate>
                                <start>31743</start>
                                <end>31762</end>
                            </clipitem>
                            <clipitem frameBlend="FALSE" id="clipitem-651">
                                <media>
                                    <video>
                                        <samplecharacteristics>
                                            <height>720</height>
                                            <width>1270</width>
                                        </samplecharacteristics>
                                    </video>
                                </media>
                                <file id="file-1">
                                    <pathurl>/home/davidk/code/python/JC-render/JC-examples/yoga.mp4</pathurl>
                                    <name>yoga.mp4</name>
                                    <rate>
                                        <timebase>30</timebase>
                                        <ntsc>TRUE</ntsc>
                                    </rate>
                                    <duration>54922</duration>
                                    <timecode>
                                        <rate>
                                            <timebase>30</timebase>
                                            <ntsc>TRUE</ntsc>
                                        </rate>
                                        <string>00:00:00:00</string>
                                        <frame>0</frame>
                                        <displayformat>NDF</displayformat>
                                        <media>
                                            <video/>
                                            <audio/>
                                        </media>
                                    </timecode>
                                </file>
                                <name>/home/davidk/code/python/JC-render/JC-examples/yoga.mp4</name>
                                <rate>
                                    <timebase>30</timebase>
                                    <ntsc>TRUE</ntsc>
                                </rate>
                                <start>31762</start>
                                <end>31799</end>
                            </clipitem>
                            <clipitem frameBlend="FALSE" id="clipitem-652">
                                <media>
                                    <video>
                                        <samplecharacteristics>
                                            <height>720</height>
                                            <width>1270</width>
                                        </samplecharacteristics>
                                    </video>
                                </media>
                                <file id="file-1">
                                    <pathurl>/home/davidk/code/python/JC-render/JC-examples/yoga.mp4</pathurl>
                                    <name>yoga.mp4</name>
                                    <rate>
                                        <timebase>30</timebase>
                                        <ntsc>TRUE</ntsc>
                                    </rate>
                                    <duration>54922</duration>
                                    <timecode>
                                        <rate>
                                            <timebase>30</timebase>
                                            <ntsc>TRUE</ntsc>
                                        </rate>
                                        <string>00:00:00:00</string>
                                        <frame>0</frame>
                                        <displayformat>NDF</displayformat>
                                        <media>
                                            <video/>
                                            <audio/>
                                        </media>
                                    </timecode>
                                </file>
                                <name>/home/davidk/code/python/JC-render/JC-examples/yoga.mp4</name>
                                <rate>
                                    <timebase>30</timebase>
                                    <ntsc>TRUE</ntsc>
                                </rate>
                                <start>31799</start>
                                <end>31801</end>
                            </clipitem>
                            <clipitem frameBlend="FALSE" id="clipitem-653">
                                <media>
                                    <video>
                                        <samplecharacteristics>
                                            <height>720</height>
                                            <width>1270</width>
                                        </samplecharacteristics>
                                    </video>
                                </media>
                                <file id="file-1">
                                    <pathurl>/home/davidk/code/python/JC-render/JC-examples/yoga.mp4</pathurl>
                                    <name>yoga.mp4</name>
                                    <rate>
                                        <timebase>30</timebase>
                                        <ntsc>TRUE</ntsc>
                                    </rate>
                                    <duration>54922</duration>
                                    <timecode>
                                        <rate>
                                            <timebase>30</timebase>
                                            <ntsc>TRUE</ntsc>
                                        </rate>
                                        <string>00:00:00:00</string>
                                        <frame>0</frame>
                                        <displayformat>NDF</displayformat>
                                        <media>
                                            <video/>
                                            <audio/>
                                        </media>
                                    </timecode>
                                </file>
                                <name>/home/davidk/code/python/JC-render/JC-examples/yoga.mp4</name>
                                <rate>
                                    <timebase>30</timebase>
                                    <ntsc>TRUE</ntsc>
                                </rate>
                                <start>31801</start>
                                <end>31848</end>
                            </clipitem>
                            <clipitem frameBlend="FALSE" id="clipitem-654">
                                <media>
                                    <video>
                                        <samplecharacteristics>
                                            <height>720</height>
                                            <width>1270</width>
                                        </samplecharacteristics>
                                    </video>
                                </media>
                                <file id="file-1">
                                    <pathurl>/home/davidk/code/python/JC-render/JC-examples/yoga.mp4</pathurl>
                                    <name>yoga.mp4</name>
                                    <rate>
                                        <timebase>30</timebase>
                                        <ntsc>TRUE</ntsc>
                                    </rate>
                                    <duration>54922</duration>
                                    <timecode>
                                        <rate>
                                            <timebase>30</timebase>
                                            <ntsc>TRUE</ntsc>
                                        </rate>
                                        <string>00:00:00:00</string>
                                        <frame>0</frame>
                                        <displayformat>NDF</displayformat>
                                        <media>
                                            <video/>
                                            <audio/>
                                        </media>
                                    </timecode>
                                </file>
                                <name>/home/davidk/code/python/JC-render/JC-examples/yoga.mp4</name>
                                <rate>
                                    <timebase>30</timebase>
                                    <ntsc>TRUE</ntsc>
                                </rate>
                                <start>31848</start>
                                <end>31863</end>
                            </clipitem>
                            <clipitem frameBlend="FALSE" id="clipitem-655">
                                <media>
                                    <video>
                                        <samplecharacteristics>
                                            <height>720</height>
                                            <width>1270</width>
                                        </samplecharacteristics>
                                    </video>
                                </media>
                                <file id="file-1">
                                    <pathurl>/home/davidk/code/python/JC-render/JC-examples/yoga.mp4</pathurl>
                                    <name>yoga.mp4</name>
                                    <rate>
                                        <timebase>30</timebase>
                                        <ntsc>TRUE</ntsc>
                                    </rate>
                                    <duration>54922</duration>
                                    <timecode>
                                        <rate>
                                            <timebase>30</timebase>
                                            <ntsc>TRUE</ntsc>
                                        </rate>
                                        <string>00:00:00:00</string>
                                        <frame>0</frame>
                                        <displayformat>NDF</displayformat>
                                        <media>
                                            <video/>
                                            <audio/>
                                        </media>
                                    </timecode>
                                </file>
                                <name>/home/davidk/code/python/JC-render/JC-examples/yoga.mp4</name>
                                <rate>
                                    <timebase>30</timebase>
                                    <ntsc>TRUE</ntsc>
                                </rate>
                                <start>31863</start>
                                <end>31896</end>
                            </clipitem>
                            <clipitem frameBlend="FALSE" id="clipitem-656">
                                <media>
                                    <video>
                                        <samplecharacteristics>
                                            <height>720</height>
                                            <width>1270</width>
                                        </samplecharacteristics>
                                    </video>
                                </media>
                                <file id="file-1">
                                    <pathurl>/home/davidk/code/python/JC-render/JC-examples/yoga.mp4</pathurl>
                                    <name>yoga.mp4</name>
                                    <rate>
                                        <timebase>30</timebase>
                                        <ntsc>TRUE</ntsc>
                                    </rate>
                                    <duration>54922</duration>
                                    <timecode>
                                        <rate>
                                            <timebase>30</timebase>
                                            <ntsc>TRUE</ntsc>
                                        </rate>
                                        <string>00:00:00:00</string>
                                        <frame>0</frame>
                                        <displayformat>NDF</displayformat>
                                        <media>
                                            <video/>
                                            <audio/>
                                        </media>
                                    </timecode>
                                </file>
                                <name>/home/davidk/code/python/JC-render/JC-examples/yoga.mp4</name>
                                <rate>
                                    <timebase>30</timebase>
                                    <ntsc>TRUE</ntsc>
                                </rate>
                                <start>31896</start>
                                <end>31919</end>
                            </clipitem>
                            <clipitem frameBlend="FALSE" id="clipitem-657">
                                <media>
                                    <video>
                                        <samplecharacteristics>
                                            <height>720</height>
                                            <width>1270</width>
                                        </samplecharacteristics>
                                    </video>
                                </media>
                                <file id="file-1">
                                    <pathurl>/home/davidk/code/python/JC-render/JC-examples/yoga.mp4</pathurl>
                                    <name>yoga.mp4</name>
                                    <rate>
                                        <timebase>30</timebase>
                                        <ntsc>TRUE</ntsc>
                                    </rate>
                                    <duration>54922</duration>
                                    <timecode>
                                        <rate>
                                            <timebase>30</timebase>
                                            <ntsc>TRUE</ntsc>
                                        </rate>
                                        <string>00:00:00:00</string>
                                        <frame>0</frame>
                                        <displayformat>NDF</displayformat>
                                        <media>
                                            <video/>
                                            <audio/>
                                        </media>
                                    </timecode>
                                </file>
                                <name>/home/davidk/code/python/JC-render/JC-examples/yoga.mp4</name>
                                <rate>
                                    <timebase>30</timebase>
                                    <ntsc>TRUE</ntsc>
                                </rate>
                                <start>31919</start>
                                <end>31952</end>
                            </clipitem>
                            <clipitem frameBlend="FALSE" id="clipitem-658">
                                <media>
                                    <video>
                                        <samplecharacteristics>
                                            <height>720</height>
                                            <width>1270</width>
                                        </samplecharacteristics>
                                    </video>
                                </media>
                                <file id="file-1">
                                    <pathurl>/home/davidk/code/python/JC-render/JC-examples/yoga.mp4</pathurl>
                                    <name>yoga.mp4</name>
                                    <rate>
                                        <timebase>30</timebase>
                                        <ntsc>TRUE</ntsc>
                                    </rate>
                                    <duration>54922</duration>
                                    <timecode>
                                        <rate>
                                            <timebase>30</timebase>
                                            <ntsc>TRUE</ntsc>
                                        </rate>
                                        <string>00:00:00:00</string>
                                        <frame>0</frame>
                                        <displayformat>NDF</displayformat>
                                        <media>
                                            <video/>
                                            <audio/>
                                        </media>
                                    </timecode>
                                </file>
                                <name>/home/davidk/code/python/JC-render/JC-examples/yoga.mp4</name>
                                <rate>
                                    <timebase>30</timebase>
                                    <ntsc>TRUE</ntsc>
                                </rate>
                                <start>31952</start>
                                <end>31961</end>
                            </clipitem>
                            <clipitem frameBlend="FALSE" id="clipitem-659">
                                <media>
                                    <video>
                                        <samplecharacteristics>
                                            <height>720</height>
                                            <width>1270</width>
                                        </samplecharacteristics>
                                    </video>
                                </media>
                                <file id="file-1">
                                    <pathurl>/home/davidk/code/python/JC-render/JC-examples/yoga.mp4</pathurl>
                                    <name>yoga.mp4</name>
                                    <rate>
                                        <timebase>30</timebase>
                                        <ntsc>TRUE</ntsc>
                                    </rate>
                                    <duration>54922</duration>
                                    <timecode>
                                        <rate>
                                            <timebase>30</timebase>
                                            <ntsc>TRUE</ntsc>
                                        </rate>
                                        <string>00:00:00:00</string>
                                        <frame>0</frame>
                                        <displayformat>NDF</displayformat>
                                        <media>
                                            <video/>
                                            <audio/>
                                        </media>
                                    </timecode>
                                </file>
                                <name>/home/davidk/code/python/JC-render/JC-examples/yoga.mp4</name>
                                <rate>
                                    <timebase>30</timebase>
                                    <ntsc>TRUE</ntsc>
                                </rate>
                                <start>31961</start>
                                <end>32053</end>
                            </clipitem>
                            <clipitem frameBlend="FALSE" id="clipitem-660">
                                <media>
                                    <video>
                                        <samplecharacteristics>
                                            <height>720</height>
                                            <width>1270</width>
                                        </samplecharacteristics>
                                    </video>
                                </media>
                                <file id="file-1">
                                    <pathurl>/home/davidk/code/python/JC-render/JC-examples/yoga.mp4</pathurl>
                                    <name>yoga.mp4</name>
                                    <rate>
                                        <timebase>30</timebase>
                                        <ntsc>TRUE</ntsc>
                                    </rate>
                                    <duration>54922</duration>
                                    <timecode>
                                        <rate>
                                            <timebase>30</timebase>
                                            <ntsc>TRUE</ntsc>
                                        </rate>
                                        <string>00:00:00:00</string>
                                        <frame>0</frame>
                                        <displayformat>NDF</displayformat>
                                        <media>
                                            <video/>
                                            <audio/>
                                        </media>
                                    </timecode>
                                </file>
                                <name>/home/davidk/code/python/JC-render/JC-examples/yoga.mp4</name>
                                <rate>
                                    <timebase>30</timebase>
                                    <ntsc>TRUE</ntsc>
                                </rate>
                                <start>32053</start>
                                <end>32079</end>
                            </clipitem>
                            <clipitem frameBlend="FALSE" id="clipitem-661">
                                <media>
                                    <video>
                                        <samplecharacteristics>
                                            <height>720</height>
                                            <width>1270</width>
                                        </samplecharacteristics>
                                    </video>
                                </media>
                                <file id="file-1">
                                    <pathurl>/home/davidk/code/python/JC-render/JC-examples/yoga.mp4</pathurl>
                                    <name>yoga.mp4</name>
                                    <rate>
                                        <timebase>30</timebase>
                                        <ntsc>TRUE</ntsc>
                                    </rate>
                                    <duration>54922</duration>
                                    <timecode>
                                        <rate>
                                            <timebase>30</timebase>
                                            <ntsc>TRUE</ntsc>
                                        </rate>
                                        <string>00:00:00:00</string>
                                        <frame>0</frame>
                                        <displayformat>NDF</displayformat>
                                        <media>
                                            <video/>
                                            <audio/>
                                        </media>
                                    </timecode>
                                </file>
                                <name>/home/davidk/code/python/JC-render/JC-examples/yoga.mp4</name>
                                <rate>
                                    <timebase>30</timebase>
                                    <ntsc>TRUE</ntsc>
                                </rate>
                                <start>32079</start>
                                <end>32112</end>
                            </clipitem>
                            <clipitem frameBlend="FALSE" id="clipitem-662">
                                <media>
                                    <video>
                                        <samplecharacteristics>
                                            <height>720</height>
                                            <width>1270</width>
                                        </samplecharacteristics>
                                    </video>
                                </media>
                                <file id="file-1">
                                    <pathurl>/home/davidk/code/python/JC-render/JC-examples/yoga.mp4</pathurl>
                                    <name>yoga.mp4</name>
                                    <rate>
                                        <timebase>30</timebase>
                                        <ntsc>TRUE</ntsc>
                                    </rate>
                                    <duration>54922</duration>
                                    <timecode>
                                        <rate>
                                            <timebase>30</timebase>
                                            <ntsc>TRUE</ntsc>
                                        </rate>
                                        <string>00:00:00:00</string>
                                        <frame>0</frame>
                                        <displayformat>NDF</displayformat>
                                        <media>
                                            <video/>
                                            <audio/>
                                        </media>
                                    </timecode>
                                </file>
                                <name>/home/davidk/code/python/JC-render/JC-examples/yoga.mp4</name>
                                <rate>
                                    <timebase>30</timebase>
                                    <ntsc>TRUE</ntsc>
                                </rate>
                                <start>32112</start>
                                <end>32159</end>
                            </clipitem>
                            <clipitem frameBlend="FALSE" id="clipitem-663">
                                <media>
                                    <video>
                                        <samplecharacteristics>
                                            <height>720</height>
                                            <width>1270</width>
                                        </samplecharacteristics>
                                    </video>
                                </media>
                                <file id="file-1">
                                    <pathurl>/home/davidk/code/python/JC-render/JC-examples/yoga.mp4</pathurl>
                                    <name>yoga.mp4</name>
                                    <rate>
                                        <timebase>30</timebase>
                                        <ntsc>TRUE</ntsc>
                                    </rate>
                                    <duration>54922</duration>
                                    <timecode>
                                        <rate>
                                            <timebase>30</timebase>
                                            <ntsc>TRUE</ntsc>
                                        </rate>
                                        <string>00:00:00:00</string>
                                        <frame>0</frame>
                                        <displayformat>NDF</displayformat>
                                        <media>
                                            <video/>
                                            <audio/>
                                        </media>
                                    </timecode>
                                </file>
                                <name>/home/davidk/code/python/JC-render/JC-examples/yoga.mp4</name>
                                <rate>
                                    <timebase>30</timebase>
                                    <ntsc>TRUE</ntsc>
                                </rate>
                                <start>32159</start>
                                <end>32262</end>
                            </clipitem>
                            <clipitem frameBlend="FALSE" id="clipitem-664">
                                <media>
                                    <video>
                                        <samplecharacteristics>
                                            <height>720</height>
                                            <width>1270</width>
                                        </samplecharacteristics>
                                    </video>
                                </media>
                                <file id="file-1">
                                    <pathurl>/home/davidk/code/python/JC-render/JC-examples/yoga.mp4</pathurl>
                                    <name>yoga.mp4</name>
                                    <rate>
                                        <timebase>30</timebase>
                                        <ntsc>TRUE</ntsc>
                                    </rate>
                                    <duration>54922</duration>
                                    <timecode>
                                        <rate>
                                            <timebase>30</timebase>
                                            <ntsc>TRUE</ntsc>
                                        </rate>
                                        <string>00:00:00:00</string>
                                        <frame>0</frame>
                                        <displayformat>NDF</displayformat>
                                        <media>
                                            <video/>
                                            <audio/>
                                        </media>
                                    </timecode>
                                </file>
                                <name>/home/davidk/code/python/JC-render/JC-examples/yoga.mp4</name>
                                <rate>
                                    <timebase>30</timebase>
                                    <ntsc>TRUE</ntsc>
                                </rate>
                                <start>32262</start>
                                <end>32271</end>
                            </clipitem>
                            <clipitem frameBlend="FALSE" id="clipitem-665">
                                <media>
                                    <video>
                                        <samplecharacteristics>
                                            <height>720</height>
                                            <width>1270</width>
                                        </samplecharacteristics>
                                    </video>
                                </media>
                                <file id="file-1">
                                    <pathurl>/home/davidk/code/python/JC-render/JC-examples/yoga.mp4</pathurl>
                                    <name>yoga.mp4</name>
                                    <rate>
                                        <timebase>30</timebase>
                                        <ntsc>TRUE</ntsc>
                                    </rate>
                                    <duration>54922</duration>
                                    <timecode>
                                        <rate>
                                            <timebase>30</timebase>
                                            <ntsc>TRUE</ntsc>
                                        </rate>
                                        <string>00:00:00:00</string>
                                        <frame>0</frame>
                                        <displayformat>NDF</displayformat>
                                        <media>
                                            <video/>
                                            <audio/>
                                        </media>
                                    </timecode>
                                </file>
                                <name>/home/davidk/code/python/JC-render/JC-examples/yoga.mp4</name>
                                <rate>
                                    <timebase>30</timebase>
                                    <ntsc>TRUE</ntsc>
                                </rate>
                                <start>32271</start>
                                <end>32293</end>
                            </clipitem>
                            <clipitem frameBlend="FALSE" id="clipitem-666">
                                <media>
                                    <video>
                                        <samplecharacteristics>
                                            <height>720</height>
                                            <width>1270</width>
                                        </samplecharacteristics>
                                    </video>
                                </media>
                                <file id="file-1">
                                    <pathurl>/home/davidk/code/python/JC-render/JC-examples/yoga.mp4</pathurl>
                                    <name>yoga.mp4</name>
                                    <rate>
                                        <timebase>30</timebase>
                                        <ntsc>TRUE</ntsc>
                                    </rate>
                                    <duration>54922</duration>
                                    <timecode>
                                        <rate>
                                            <timebase>30</timebase>
                                            <ntsc>TRUE</ntsc>
                                        </rate>
                                        <string>00:00:00:00</string>
                                        <frame>0</frame>
                                        <displayformat>NDF</displayformat>
                                        <media>
                                            <video/>
                                            <audio/>
                                        </media>
                                    </timecode>
                                </file>
                                <name>/home/davidk/code/python/JC-render/JC-examples/yoga.mp4</name>
                                <rate>
                                    <timebase>30</timebase>
                                    <ntsc>TRUE</ntsc>
                                </rate>
                                <start>32293</start>
                                <end>32351</end>
                            </clipitem>
                            <clipitem frameBlend="FALSE" id="clipitem-667">
                                <media>
                                    <video>
                                        <samplecharacteristics>
                                            <height>720</height>
                                            <width>1270</width>
                                        </samplecharacteristics>
                                    </video>
                                </media>
                                <file id="file-1">
                                    <pathurl>/home/davidk/code/python/JC-render/JC-examples/yoga.mp4</pathurl>
                                    <name>yoga.mp4</name>
                                    <rate>
                                        <timebase>30</timebase>
                                        <ntsc>TRUE</ntsc>
                                    </rate>
                                    <duration>54922</duration>
                                    <timecode>
                                        <rate>
                                            <timebase>30</timebase>
                                            <ntsc>TRUE</ntsc>
                                        </rate>
                                        <string>00:00:00:00</string>
                                        <frame>0</frame>
                                        <displayformat>NDF</displayformat>
                                        <media>
                                            <video/>
                                            <audio/>
                                        </media>
                                    </timecode>
                                </file>
                                <name>/home/davidk/code/python/JC-render/JC-examples/yoga.mp4</name>
                                <rate>
                                    <timebase>30</timebase>
                                    <ntsc>TRUE</ntsc>
                                </rate>
                                <start>32351</start>
                                <end>32366</end>
                            </clipitem>
                            <clipitem frameBlend="FALSE" id="clipitem-668">
                                <media>
                                    <video>
                                        <samplecharacteristics>
                                            <height>720</height>
                                            <width>1270</width>
                                        </samplecharacteristics>
                                    </video>
                                </media>
                                <file id="file-1">
                                    <pathurl>/home/davidk/code/python/JC-render/JC-examples/yoga.mp4</pathurl>
                                    <name>yoga.mp4</name>
                                    <rate>
                                        <timebase>30</timebase>
                                        <ntsc>TRUE</ntsc>
                                    </rate>
                                    <duration>54922</duration>
                                    <timecode>
                                        <rate>
                                            <timebase>30</timebase>
                                            <ntsc>TRUE</ntsc>
                                        </rate>
                                        <string>00:00:00:00</string>
                                        <frame>0</frame>
                                        <displayformat>NDF</displayformat>
                                        <media>
                                            <video/>
                                            <audio/>
                                        </media>
                                    </timecode>
                                </file>
                                <name>/home/davidk/code/python/JC-render/JC-examples/yoga.mp4</name>
                                <rate>
                                    <timebase>30</timebase>
                                    <ntsc>TRUE</ntsc>
                                </rate>
                                <start>32366</start>
                                <end>32368</end>
                            </clipitem>
                            <clipitem frameBlend="FALSE" id="clipitem-669">
                                <media>
                                    <video>
                                        <samplecharacteristics>
                                            <height>720</height>
                                            <width>1270</width>
                                        </samplecharacteristics>
                                    </video>
                                </media>
                                <file id="file-1">
                                    <pathurl>/home/davidk/code/python/JC-render/JC-examples/yoga.mp4</pathurl>
                                    <name>yoga.mp4</name>
                                    <rate>
                                        <timebase>30</timebase>
                                        <ntsc>TRUE</ntsc>
                                    </rate>
                                    <duration>54922</duration>
                                    <timecode>
                                        <rate>
                                            <timebase>30</timebase>
                                            <ntsc>TRUE</ntsc>
                                        </rate>
                                        <string>00:00:00:00</string>
                                        <frame>0</frame>
                                        <displayformat>NDF</displayformat>
                                        <media>
                                            <video/>
                                            <audio/>
                                        </media>
                                    </timecode>
                                </file>
                                <name>/home/davidk/code/python/JC-render/JC-examples/yoga.mp4</name>
                                <rate>
                                    <timebase>30</timebase>
                                    <ntsc>TRUE</ntsc>
                                </rate>
                                <start>32368</start>
                                <end>32384</end>
                            </clipitem>
                            <clipitem frameBlend="FALSE" id="clipitem-670">
                                <media>
                                    <video>
                                        <samplecharacteristics>
                                            <height>720</height>
                                            <width>1270</width>
                                        </samplecharacteristics>
                                    </video>
                                </media>
                                <file id="file-1">
                                    <pathurl>/home/davidk/code/python/JC-render/JC-examples/yoga.mp4</pathurl>
                                    <name>yoga.mp4</name>
                                    <rate>
                                        <timebase>30</timebase>
                                        <ntsc>TRUE</ntsc>
                                    </rate>
                                    <duration>54922</duration>
                                    <timecode>
                                        <rate>
                                            <timebase>30</timebase>
                                            <ntsc>TRUE</ntsc>
                                        </rate>
                                        <string>00:00:00:00</string>
                                        <frame>0</frame>
                                        <displayformat>NDF</displayformat>
                                        <media>
                                            <video/>
                                            <audio/>
                                        </media>
                                    </timecode>
                                </file>
                                <name>/home/davidk/code/python/JC-render/JC-examples/yoga.mp4</name>
                                <rate>
                                    <timebase>30</timebase>
                                    <ntsc>TRUE</ntsc>
                                </rate>
                                <start>32384</start>
                                <end>32466</end>
                            </clipitem>
                            <clipitem frameBlend="FALSE" id="clipitem-671">
                                <media>
                                    <video>
                                        <samplecharacteristics>
                                            <height>720</height>
                                            <width>1270</width>
                                        </samplecharacteristics>
                                    </video>
                                </media>
                                <file id="file-1">
                                    <pathurl>/home/davidk/code/python/JC-render/JC-examples/yoga.mp4</pathurl>
                                    <name>yoga.mp4</name>
                                    <rate>
                                        <timebase>30</timebase>
                                        <ntsc>TRUE</ntsc>
                                    </rate>
                                    <duration>54922</duration>
                                    <timecode>
                                        <rate>
                                            <timebase>30</timebase>
                                            <ntsc>TRUE</ntsc>
                                        </rate>
                                        <string>00:00:00:00</string>
                                        <frame>0</frame>
                                        <displayformat>NDF</displayformat>
                                        <media>
                                            <video/>
                                            <audio/>
                                        </media>
                                    </timecode>
                                </file>
                                <name>/home/davidk/code/python/JC-render/JC-examples/yoga.mp4</name>
                                <rate>
                                    <timebase>30</timebase>
                                    <ntsc>TRUE</ntsc>
                                </rate>
                                <start>32466</start>
                                <end>32488</end>
                            </clipitem>
                            <clipitem frameBlend="FALSE" id="clipitem-672">
                                <media>
                                    <video>
                                        <samplecharacteristics>
                                            <height>720</height>
                                            <width>1270</width>
                                        </samplecharacteristics>
                                    </video>
                                </media>
                                <file id="file-1">
                                    <pathurl>/home/davidk/code/python/JC-render/JC-examples/yoga.mp4</pathurl>
                                    <name>yoga.mp4</name>
                                    <rate>
                                        <timebase>30</timebase>
                                        <ntsc>TRUE</ntsc>
                                    </rate>
                                    <duration>54922</duration>
                                    <timecode>
                                        <rate>
                                            <timebase>30</timebase>
                                            <ntsc>TRUE</ntsc>
                                        </rate>
                                        <string>00:00:00:00</string>
                                        <frame>0</frame>
                                        <displayformat>NDF</displayformat>
                                        <media>
                                            <video/>
                                            <audio/>
                                        </media>
                                    </timecode>
                                </file>
                                <name>/home/davidk/code/python/JC-render/JC-examples/yoga.mp4</name>
                                <rate>
                                    <timebase>30</timebase>
                                    <ntsc>TRUE</ntsc>
                                </rate>
                                <start>32488</start>
                                <end>32501</end>
                            </clipitem>
                            <clipitem frameBlend="FALSE" id="clipitem-673">
                                <media>
                                    <video>
                                        <samplecharacteristics>
                                            <height>720</height>
                                            <width>1270</width>
                                        </samplecharacteristics>
                                    </video>
                                </media>
                                <file id="file-1">
                                    <pathurl>/home/davidk/code/python/JC-render/JC-examples/yoga.mp4</pathurl>
                                    <name>yoga.mp4</name>
                                    <rate>
                                        <timebase>30</timebase>
                                        <ntsc>TRUE</ntsc>
                                    </rate>
                                    <duration>54922</duration>
                                    <timecode>
                                        <rate>
                                            <timebase>30</timebase>
                                            <ntsc>TRUE</ntsc>
                                        </rate>
                                        <string>00:00:00:00</string>
                                        <frame>0</frame>
                                        <displayformat>NDF</displayformat>
                                        <media>
                                            <video/>
                                            <audio/>
                                        </media>
                                    </timecode>
                                </file>
                                <name>/home/davidk/code/python/JC-render/JC-examples/yoga.mp4</name>
                                <rate>
                                    <timebase>30</timebase>
                                    <ntsc>TRUE</ntsc>
                                </rate>
                                <start>32501</start>
                                <end>32541</end>
                            </clipitem>
                            <clipitem frameBlend="FALSE" id="clipitem-674">
                                <media>
                                    <video>
                                        <samplecharacteristics>
                                            <height>720</height>
                                            <width>1270</width>
                                        </samplecharacteristics>
                                    </video>
                                </media>
                                <file id="file-1">
                                    <pathurl>/home/davidk/code/python/JC-render/JC-examples/yoga.mp4</pathurl>
                                    <name>yoga.mp4</name>
                                    <rate>
                                        <timebase>30</timebase>
                                        <ntsc>TRUE</ntsc>
                                    </rate>
                                    <duration>54922</duration>
                                    <timecode>
                                        <rate>
                                            <timebase>30</timebase>
                                            <ntsc>TRUE</ntsc>
                                        </rate>
                                        <string>00:00:00:00</string>
                                        <frame>0</frame>
                                        <displayformat>NDF</displayformat>
                                        <media>
                                            <video/>
                                            <audio/>
                                        </media>
                                    </timecode>
                                </file>
                                <name>/home/davidk/code/python/JC-render/JC-examples/yoga.mp4</name>
                                <rate>
                                    <timebase>30</timebase>
                                    <ntsc>TRUE</ntsc>
                                </rate>
                                <start>32541</start>
                                <end>32581</end>
                            </clipitem>
                            <clipitem frameBlend="FALSE" id="clipitem-675">
                                <media>
                                    <video>
                                        <samplecharacteristics>
                                            <height>720</height>
                                            <width>1270</width>
                                        </samplecharacteristics>
                                    </video>
                                </media>
                                <file id="file-1">
                                    <pathurl>/home/davidk/code/python/JC-render/JC-examples/yoga.mp4</pathurl>
                                    <name>yoga.mp4</name>
                                    <rate>
                                        <timebase>30</timebase>
                                        <ntsc>TRUE</ntsc>
                                    </rate>
                                    <duration>54922</duration>
                                    <timecode>
                                        <rate>
                                            <timebase>30</timebase>
                                            <ntsc>TRUE</ntsc>
                                        </rate>
                                        <string>00:00:00:00</string>
                                        <frame>0</frame>
                                        <displayformat>NDF</displayformat>
                                        <media>
                                            <video/>
                                            <audio/>
                                        </media>
                                    </timecode>
                                </file>
                                <name>/home/davidk/code/python/JC-render/JC-examples/yoga.mp4</name>
                                <rate>
                                    <timebase>30</timebase>
                                    <ntsc>TRUE</ntsc>
                                </rate>
                                <start>32581</start>
                                <end>32596</end>
                            </clipitem>
                            <clipitem frameBlend="FALSE" id="clipitem-676">
                                <media>
                                    <video>
                                        <samplecharacteristics>
                                            <height>720</height>
                                            <width>1270</width>
                                        </samplecharacteristics>
                                    </video>
                                </media>
                                <file id="file-1">
                                    <pathurl>/home/davidk/code/python/JC-render/JC-examples/yoga.mp4</pathurl>
                                    <name>yoga.mp4</name>
                                    <rate>
                                        <timebase>30</timebase>
                                        <ntsc>TRUE</ntsc>
                                    </rate>
                                    <duration>54922</duration>
                                    <timecode>
                                        <rate>
                                            <timebase>30</timebase>
                                            <ntsc>TRUE</ntsc>
                                        </rate>
                                        <string>00:00:00:00</string>
                                        <frame>0</frame>
                                        <displayformat>NDF</displayformat>
                                        <media>
                                            <video/>
                                            <audio/>
                                        </media>
                                    </timecode>
                                </file>
                                <name>/home/davidk/code/python/JC-render/JC-examples/yoga.mp4</name>
                                <rate>
                                    <timebase>30</timebase>
                                    <ntsc>TRUE</ntsc>
                                </rate>
                                <start>32596</start>
                                <end>32602</end>
                            </clipitem>
                            <clipitem frameBlend="FALSE" id="clipitem-677">
                                <media>
                                    <video>
                                        <samplecharacteristics>
                                            <height>720</height>
                                            <width>1270</width>
                                        </samplecharacteristics>
                                    </video>
                                </media>
                                <file id="file-1">
                                    <pathurl>/home/davidk/code/python/JC-render/JC-examples/yoga.mp4</pathurl>
                                    <name>yoga.mp4</name>
                                    <rate>
                                        <timebase>30</timebase>
                                        <ntsc>TRUE</ntsc>
                                    </rate>
                                    <duration>54922</duration>
                                    <timecode>
                                        <rate>
                                            <timebase>30</timebase>
                                            <ntsc>TRUE</ntsc>
                                        </rate>
                                        <string>00:00:00:00</string>
                                        <frame>0</frame>
                                        <displayformat>NDF</displayformat>
                                        <media>
                                            <video/>
                                            <audio/>
                                        </media>
                                    </timecode>
                                </file>
                                <name>/home/davidk/code/python/JC-render/JC-examples/yoga.mp4</name>
                                <rate>
                                    <timebase>30</timebase>
                                    <ntsc>TRUE</ntsc>
                                </rate>
                                <start>32602</start>
                                <end>32649</end>
                            </clipitem>
                            <clipitem frameBlend="FALSE" id="clipitem-678">
                                <media>
                                    <video>
                                        <samplecharacteristics>
                                            <height>720</height>
                                            <width>1270</width>
                                        </samplecharacteristics>
                                    </video>
                                </media>
                                <file id="file-1">
                                    <pathurl>/home/davidk/code/python/JC-render/JC-examples/yoga.mp4</pathurl>
                                    <name>yoga.mp4</name>
                                    <rate>
                                        <timebase>30</timebase>
                                        <ntsc>TRUE</ntsc>
                                    </rate>
                                    <duration>54922</duration>
                                    <timecode>
                                        <rate>
                                            <timebase>30</timebase>
                                            <ntsc>TRUE</ntsc>
                                        </rate>
                                        <string>00:00:00:00</string>
                                        <frame>0</frame>
                                        <displayformat>NDF</displayformat>
                                        <media>
                                            <video/>
                                            <audio/>
                                        </media>
                                    </timecode>
                                </file>
                                <name>/home/davidk/code/python/JC-render/JC-examples/yoga.mp4</name>
                                <rate>
                                    <timebase>30</timebase>
                                    <ntsc>TRUE</ntsc>
                                </rate>
                                <start>32649</start>
                                <end>32692</end>
                            </clipitem>
                            <clipitem frameBlend="FALSE" id="clipitem-679">
                                <media>
                                    <video>
                                        <samplecharacteristics>
                                            <height>720</height>
                                            <width>1270</width>
                                        </samplecharacteristics>
                                    </video>
                                </media>
                                <file id="file-1">
                                    <pathurl>/home/davidk/code/python/JC-render/JC-examples/yoga.mp4</pathurl>
                                    <name>yoga.mp4</name>
                                    <rate>
                                        <timebase>30</timebase>
                                        <ntsc>TRUE</ntsc>
                                    </rate>
                                    <duration>54922</duration>
                                    <timecode>
                                        <rate>
                                            <timebase>30</timebase>
                                            <ntsc>TRUE</ntsc>
                                        </rate>
                                        <string>00:00:00:00</string>
                                        <frame>0</frame>
                                        <displayformat>NDF</displayformat>
                                        <media>
                                            <video/>
                                            <audio/>
                                        </media>
                                    </timecode>
                                </file>
                                <name>/home/davidk/code/python/JC-render/JC-examples/yoga.mp4</name>
                                <rate>
                                    <timebase>30</timebase>
                                    <ntsc>TRUE</ntsc>
                                </rate>
                                <start>32692</start>
                                <end>32757</end>
                            </clipitem>
                            <clipitem frameBlend="FALSE" id="clipitem-680">
                                <media>
                                    <video>
                                        <samplecharacteristics>
                                            <height>720</height>
                                            <width>1270</width>
                                        </samplecharacteristics>
                                    </video>
                                </media>
                                <file id="file-1">
                                    <pathurl>/home/davidk/code/python/JC-render/JC-examples/yoga.mp4</pathurl>
                                    <name>yoga.mp4</name>
                                    <rate>
                                        <timebase>30</timebase>
                                        <ntsc>TRUE</ntsc>
                                    </rate>
                                    <duration>54922</duration>
                                    <timecode>
                                        <rate>
                                            <timebase>30</timebase>
                                            <ntsc>TRUE</ntsc>
                                        </rate>
                                        <string>00:00:00:00</string>
                                        <frame>0</frame>
                                        <displayformat>NDF</displayformat>
                                        <media>
                                            <video/>
                                            <audio/>
                                        </media>
                                    </timecode>
                                </file>
                                <name>/home/davidk/code/python/JC-render/JC-examples/yoga.mp4</name>
                                <rate>
                                    <timebase>30</timebase>
                                    <ntsc>TRUE</ntsc>
                                </rate>
                                <start>32757</start>
                                <end>32821</end>
                            </clipitem>
                            <clipitem frameBlend="FALSE" id="clipitem-681">
                                <media>
                                    <video>
                                        <samplecharacteristics>
                                            <height>720</height>
                                            <width>1270</width>
                                        </samplecharacteristics>
                                    </video>
                                </media>
                                <file id="file-1">
                                    <pathurl>/home/davidk/code/python/JC-render/JC-examples/yoga.mp4</pathurl>
                                    <name>yoga.mp4</name>
                                    <rate>
                                        <timebase>30</timebase>
                                        <ntsc>TRUE</ntsc>
                                    </rate>
                                    <duration>54922</duration>
                                    <timecode>
                                        <rate>
                                            <timebase>30</timebase>
                                            <ntsc>TRUE</ntsc>
                                        </rate>
                                        <string>00:00:00:00</string>
                                        <frame>0</frame>
                                        <displayformat>NDF</displayformat>
                                        <media>
                                            <video/>
                                            <audio/>
                                        </media>
                                    </timecode>
                                </file>
                                <name>/home/davidk/code/python/JC-render/JC-examples/yoga.mp4</name>
                                <rate>
                                    <timebase>30</timebase>
                                    <ntsc>TRUE</ntsc>
                                </rate>
                                <start>32821</start>
                                <end>32924</end>
                            </clipitem>
                            <clipitem frameBlend="FALSE" id="clipitem-682">
                                <media>
                                    <video>
                                        <samplecharacteristics>
                                            <height>720</height>
                                            <width>1270</width>
                                        </samplecharacteristics>
                                    </video>
                                </media>
                                <file id="file-1">
                                    <pathurl>/home/davidk/code/python/JC-render/JC-examples/yoga.mp4</pathurl>
                                    <name>yoga.mp4</name>
                                    <rate>
                                        <timebase>30</timebase>
                                        <ntsc>TRUE</ntsc>
                                    </rate>
                                    <duration>54922</duration>
                                    <timecode>
                                        <rate>
                                            <timebase>30</timebase>
                                            <ntsc>TRUE</ntsc>
                                        </rate>
                                        <string>00:00:00:00</string>
                                        <frame>0</frame>
                                        <displayformat>NDF</displayformat>
                                        <media>
                                            <video/>
                                            <audio/>
                                        </media>
                                    </timecode>
                                </file>
                                <name>/home/davidk/code/python/JC-render/JC-examples/yoga.mp4</name>
                                <rate>
                                    <timebase>30</timebase>
                                    <ntsc>TRUE</ntsc>
                                </rate>
                                <start>32924</start>
                                <end>32992</end>
                            </clipitem>
                            <clipitem frameBlend="FALSE" id="clipitem-683">
                                <media>
                                    <video>
                                        <samplecharacteristics>
                                            <height>720</height>
                                            <width>1270</width>
                                        </samplecharacteristics>
                                    </video>
                                </media>
                                <file id="file-1">
                                    <pathurl>/home/davidk/code/python/JC-render/JC-examples/yoga.mp4</pathurl>
                                    <name>yoga.mp4</name>
                                    <rate>
                                        <timebase>30</timebase>
                                        <ntsc>TRUE</ntsc>
                                    </rate>
                                    <duration>54922</duration>
                                    <timecode>
                                        <rate>
                                            <timebase>30</timebase>
                                            <ntsc>TRUE</ntsc>
                                        </rate>
                                        <string>00:00:00:00</string>
                                        <frame>0</frame>
                                        <displayformat>NDF</displayformat>
                                        <media>
                                            <video/>
                                            <audio/>
                                        </media>
                                    </timecode>
                                </file>
                                <name>/home/davidk/code/python/JC-render/JC-examples/yoga.mp4</name>
                                <rate>
                                    <timebase>30</timebase>
                                    <ntsc>TRUE</ntsc>
                                </rate>
                                <start>32992</start>
                                <end>33018</end>
                            </clipitem>
                            <clipitem frameBlend="FALSE" id="clipitem-684">
                                <media>
                                    <video>
                                        <samplecharacteristics>
                                            <height>720</height>
                                            <width>1270</width>
                                        </samplecharacteristics>
                                    </video>
                                </media>
                                <file id="file-1">
                                    <pathurl>/home/davidk/code/python/JC-render/JC-examples/yoga.mp4</pathurl>
                                    <name>yoga.mp4</name>
                                    <rate>
                                        <timebase>30</timebase>
                                        <ntsc>TRUE</ntsc>
                                    </rate>
                                    <duration>54922</duration>
                                    <timecode>
                                        <rate>
                                            <timebase>30</timebase>
                                            <ntsc>TRUE</ntsc>
                                        </rate>
                                        <string>00:00:00:00</string>
                                        <frame>0</frame>
                                        <displayformat>NDF</displayformat>
                                        <media>
                                            <video/>
                                            <audio/>
                                        </media>
                                    </timecode>
                                </file>
                                <name>/home/davidk/code/python/JC-render/JC-examples/yoga.mp4</name>
                                <rate>
                                    <timebase>30</timebase>
                                    <ntsc>TRUE</ntsc>
                                </rate>
                                <start>33018</start>
                                <end>33100</end>
                            </clipitem>
                            <clipitem frameBlend="FALSE" id="clipitem-685">
                                <media>
                                    <video>
                                        <samplecharacteristics>
                                            <height>720</height>
                                            <width>1270</width>
                                        </samplecharacteristics>
                                    </video>
                                </media>
                                <file id="file-1">
                                    <pathurl>/home/davidk/code/python/JC-render/JC-examples/yoga.mp4</pathurl>
                                    <name>yoga.mp4</name>
                                    <rate>
                                        <timebase>30</timebase>
                                        <ntsc>TRUE</ntsc>
                                    </rate>
                                    <duration>54922</duration>
                                    <timecode>
                                        <rate>
                                            <timebase>30</timebase>
                                            <ntsc>TRUE</ntsc>
                                        </rate>
                                        <string>00:00:00:00</string>
                                        <frame>0</frame>
                                        <displayformat>NDF</displayformat>
                                        <media>
                                            <video/>
                                            <audio/>
                                        </media>
                                    </timecode>
                                </file>
                                <name>/home/davidk/code/python/JC-render/JC-examples/yoga.mp4</name>
                                <rate>
                                    <timebase>30</timebase>
                                    <ntsc>TRUE</ntsc>
                                </rate>
                                <start>33100</start>
                                <end>33115</end>
                            </clipitem>
                            <clipitem frameBlend="FALSE" id="clipitem-686">
                                <media>
                                    <video>
                                        <samplecharacteristics>
                                            <height>720</height>
                                            <width>1270</width>
                                        </samplecharacteristics>
                                    </video>
                                </media>
                                <file id="file-1">
                                    <pathurl>/home/davidk/code/python/JC-render/JC-examples/yoga.mp4</pathurl>
                                    <name>yoga.mp4</name>
                                    <rate>
                                        <timebase>30</timebase>
                                        <ntsc>TRUE</ntsc>
                                    </rate>
                                    <duration>54922</duration>
                                    <timecode>
                                        <rate>
                                            <timebase>30</timebase>
                                            <ntsc>TRUE</ntsc>
                                        </rate>
                                        <string>00:00:00:00</string>
                                        <frame>0</frame>
                                        <displayformat>NDF</displayformat>
                                        <media>
                                            <video/>
                                            <audio/>
                                        </media>
                                    </timecode>
                                </file>
                                <name>/home/davidk/code/python/JC-render/JC-examples/yoga.mp4</name>
                                <rate>
                                    <timebase>30</timebase>
                                    <ntsc>TRUE</ntsc>
                                </rate>
                                <start>33115</start>
                                <end>33159</end>
                            </clipitem>
                            <clipitem frameBlend="FALSE" id="clipitem-687">
                                <media>
                                    <video>
                                        <samplecharacteristics>
                                            <height>720</height>
                                            <width>1270</width>
                                        </samplecharacteristics>
                                    </video>
                                </media>
                                <file id="file-1">
                                    <pathurl>/home/davidk/code/python/JC-render/JC-examples/yoga.mp4</pathurl>
                                    <name>yoga.mp4</name>
                                    <rate>
                                        <timebase>30</timebase>
                                        <ntsc>TRUE</ntsc>
                                    </rate>
                                    <duration>54922</duration>
                                    <timecode>
                                        <rate>
                                            <timebase>30</timebase>
                                            <ntsc>TRUE</ntsc>
                                        </rate>
                                        <string>00:00:00:00</string>
                                        <frame>0</frame>
                                        <displayformat>NDF</displayformat>
                                        <media>
                                            <video/>
                                            <audio/>
                                        </media>
                                    </timecode>
                                </file>
                                <name>/home/davidk/code/python/JC-render/JC-examples/yoga.mp4</name>
                                <rate>
                                    <timebase>30</timebase>
                                    <ntsc>TRUE</ntsc>
                                </rate>
                                <start>33159</start>
                                <end>33175</end>
                            </clipitem>
                            <clipitem frameBlend="FALSE" id="clipitem-688">
                                <media>
                                    <video>
                                        <samplecharacteristics>
                                            <height>720</height>
                                            <width>1270</width>
                                        </samplecharacteristics>
                                    </video>
                                </media>
                                <file id="file-1">
                                    <pathurl>/home/davidk/code/python/JC-render/JC-examples/yoga.mp4</pathurl>
                                    <name>yoga.mp4</name>
                                    <rate>
                                        <timebase>30</timebase>
                                        <ntsc>TRUE</ntsc>
                                    </rate>
                                    <duration>54922</duration>
                                    <timecode>
                                        <rate>
                                            <timebase>30</timebase>
                                            <ntsc>TRUE</ntsc>
                                        </rate>
                                        <string>00:00:00:00</string>
                                        <frame>0</frame>
                                        <displayformat>NDF</displayformat>
                                        <media>
                                            <video/>
                                            <audio/>
                                        </media>
                                    </timecode>
                                </file>
                                <name>/home/davidk/code/python/JC-render/JC-examples/yoga.mp4</name>
                                <rate>
                                    <timebase>30</timebase>
                                    <ntsc>TRUE</ntsc>
                                </rate>
                                <start>33175</start>
                                <end>33208</end>
                            </clipitem>
                            <clipitem frameBlend="FALSE" id="clipitem-689">
                                <media>
                                    <video>
                                        <samplecharacteristics>
                                            <height>720</height>
                                            <width>1270</width>
                                        </samplecharacteristics>
                                    </video>
                                </media>
                                <file id="file-1">
                                    <pathurl>/home/davidk/code/python/JC-render/JC-examples/yoga.mp4</pathurl>
                                    <name>yoga.mp4</name>
                                    <rate>
                                        <timebase>30</timebase>
                                        <ntsc>TRUE</ntsc>
                                    </rate>
                                    <duration>54922</duration>
                                    <timecode>
                                        <rate>
                                            <timebase>30</timebase>
                                            <ntsc>TRUE</ntsc>
                                        </rate>
                                        <string>00:00:00:00</string>
                                        <frame>0</frame>
                                        <displayformat>NDF</displayformat>
                                        <media>
                                            <video/>
                                            <audio/>
                                        </media>
                                    </timecode>
                                </file>
                                <name>/home/davidk/code/python/JC-render/JC-examples/yoga.mp4</name>
                                <rate>
                                    <timebase>30</timebase>
                                    <ntsc>TRUE</ntsc>
                                </rate>
                                <start>33208</start>
                                <end>33223</end>
                            </clipitem>
                            <clipitem frameBlend="FALSE" id="clipitem-690">
                                <media>
                                    <video>
                                        <samplecharacteristics>
                                            <height>720</height>
                                            <width>1270</width>
                                        </samplecharacteristics>
                                    </video>
                                </media>
                                <file id="file-1">
                                    <pathurl>/home/davidk/code/python/JC-render/JC-examples/yoga.mp4</pathurl>
                                    <name>yoga.mp4</name>
                                    <rate>
                                        <timebase>30</timebase>
                                        <ntsc>TRUE</ntsc>
                                    </rate>
                                    <duration>54922</duration>
                                    <timecode>
                                        <rate>
                                            <timebase>30</timebase>
                                            <ntsc>TRUE</ntsc>
                                        </rate>
                                        <string>00:00:00:00</string>
                                        <frame>0</frame>
                                        <displayformat>NDF</displayformat>
                                        <media>
                                            <video/>
                                            <audio/>
                                        </media>
                                    </timecode>
                                </file>
                                <name>/home/davidk/code/python/JC-render/JC-examples/yoga.mp4</name>
                                <rate>
                                    <timebase>30</timebase>
                                    <ntsc>TRUE</ntsc>
                                </rate>
                                <start>33223</start>
                                <end>33305</end>
                            </clipitem>
                            <clipitem frameBlend="FALSE" id="clipitem-691">
                                <media>
                                    <video>
                                        <samplecharacteristics>
                                            <height>720</height>
                                            <width>1270</width>
                                        </samplecharacteristics>
                                    </video>
                                </media>
                                <file id="file-1">
                                    <pathurl>/home/davidk/code/python/JC-render/JC-examples/yoga.mp4</pathurl>
                                    <name>yoga.mp4</name>
                                    <rate>
                                        <timebase>30</timebase>
                                        <ntsc>TRUE</ntsc>
                                    </rate>
                                    <duration>54922</duration>
                                    <timecode>
                                        <rate>
                                            <timebase>30</timebase>
                                            <ntsc>TRUE</ntsc>
                                        </rate>
                                        <string>00:00:00:00</string>
                                        <frame>0</frame>
                                        <displayformat>NDF</displayformat>
                                        <media>
                                            <video/>
                                            <audio/>
                                        </media>
                                    </timecode>
                                </file>
                                <name>/home/davidk/code/python/JC-render/JC-examples/yoga.mp4</name>
                                <rate>
                                    <timebase>30</timebase>
                                    <ntsc>TRUE</ntsc>
                                </rate>
                                <start>33305</start>
                                <end>33359</end>
                            </clipitem>
                            <clipitem frameBlend="FALSE" id="clipitem-692">
                                <media>
                                    <video>
                                        <samplecharacteristics>
                                            <height>720</height>
                                            <width>1270</width>
                                        </samplecharacteristics>
                                    </video>
                                </media>
                                <file id="file-1">
                                    <pathurl>/home/davidk/code/python/JC-render/JC-examples/yoga.mp4</pathurl>
                                    <name>yoga.mp4</name>
                                    <rate>
                                        <timebase>30</timebase>
                                        <ntsc>TRUE</ntsc>
                                    </rate>
                                    <duration>54922</duration>
                                    <timecode>
                                        <rate>
                                            <timebase>30</timebase>
                                            <ntsc>TRUE</ntsc>
                                        </rate>
                                        <string>00:00:00:00</string>
                                        <frame>0</frame>
                                        <displayformat>NDF</displayformat>
                                        <media>
                                            <video/>
                                            <audio/>
                                        </media>
                                    </timecode>
                                </file>
                                <name>/home/davidk/code/python/JC-render/JC-examples/yoga.mp4</name>
                                <rate>
                                    <timebase>30</timebase>
                                    <ntsc>TRUE</ntsc>
                                </rate>
                                <start>33359</start>
                                <end>33365</end>
                            </clipitem>
                            <clipitem frameBlend="FALSE" id="clipitem-693">
                                <media>
                                    <video>
                                        <samplecharacteristics>
                                            <height>720</height>
                                            <width>1270</width>
                                        </samplecharacteristics>
                                    </video>
                                </media>
                                <file id="file-1">
                                    <pathurl>/home/davidk/code/python/JC-render/JC-examples/yoga.mp4</pathurl>
                                    <name>yoga.mp4</name>
                                    <rate>
                                        <timebase>30</timebase>
                                        <ntsc>TRUE</ntsc>
                                    </rate>
                                    <duration>54922</duration>
                                    <timecode>
                                        <rate>
                                            <timebase>30</timebase>
                                            <ntsc>TRUE</ntsc>
                                        </rate>
                                        <string>00:00:00:00</string>
                                        <frame>0</frame>
                                        <displayformat>NDF</displayformat>
                                        <media>
                                            <video/>
                                            <audio/>
                                        </media>
                                    </timecode>
                                </file>
                                <name>/home/davidk/code/python/JC-render/JC-examples/yoga.mp4</name>
                                <rate>
                                    <timebase>30</timebase>
                                    <ntsc>TRUE</ntsc>
                                </rate>
                                <start>33365</start>
                                <end>33394</end>
                            </clipitem>
                            <clipitem frameBlend="FALSE" id="clipitem-694">
                                <media>
                                    <video>
                                        <samplecharacteristics>
                                            <height>720</height>
                                            <width>1270</width>
                                        </samplecharacteristics>
                                    </video>
                                </media>
                                <file id="file-1">
                                    <pathurl>/home/davidk/code/python/JC-render/JC-examples/yoga.mp4</pathurl>
                                    <name>yoga.mp4</name>
                                    <rate>
                                        <timebase>30</timebase>
                                        <ntsc>TRUE</ntsc>
                                    </rate>
                                    <duration>54922</duration>
                                    <timecode>
                                        <rate>
                                            <timebase>30</timebase>
                                            <ntsc>TRUE</ntsc>
                                        </rate>
                                        <string>00:00:00:00</string>
                                        <frame>0</frame>
                                        <displayformat>NDF</displayformat>
                                        <media>
                                            <video/>
                                            <audio/>
                                        </media>
                                    </timecode>
                                </file>
                                <name>/home/davidk/code/python/JC-render/JC-examples/yoga.mp4</name>
                                <rate>
                                    <timebase>30</timebase>
                                    <ntsc>TRUE</ntsc>
                                </rate>
                                <start>33394</start>
                                <end>33438</end>
                            </clipitem>
                            <clipitem frameBlend="FALSE" id="clipitem-695">
                                <media>
                                    <video>
                                        <samplecharacteristics>
                                            <height>720</height>
                                            <width>1270</width>
                                        </samplecharacteristics>
                                    </video>
                                </media>
                                <file id="file-1">
                                    <pathurl>/home/davidk/code/python/JC-render/JC-examples/yoga.mp4</pathurl>
                                    <name>yoga.mp4</name>
                                    <rate>
                                        <timebase>30</timebase>
                                        <ntsc>TRUE</ntsc>
                                    </rate>
                                    <duration>54922</duration>
                                    <timecode>
                                        <rate>
                                            <timebase>30</timebase>
                                            <ntsc>TRUE</ntsc>
                                        </rate>
                                        <string>00:00:00:00</string>
                                        <frame>0</frame>
                                        <displayformat>NDF</displayformat>
                                        <media>
                                            <video/>
                                            <audio/>
                                        </media>
                                    </timecode>
                                </file>
                                <name>/home/davidk/code/python/JC-render/JC-examples/yoga.mp4</name>
                                <rate>
                                    <timebase>30</timebase>
                                    <ntsc>TRUE</ntsc>
                                </rate>
                                <start>33438</start>
                                <end>33453</end>
                            </clipitem>
                            <clipitem frameBlend="FALSE" id="clipitem-696">
                                <media>
                                    <video>
                                        <samplecharacteristics>
                                            <height>720</height>
                                            <width>1270</width>
                                        </samplecharacteristics>
                                    </video>
                                </media>
                                <file id="file-1">
                                    <pathurl>/home/davidk/code/python/JC-render/JC-examples/yoga.mp4</pathurl>
                                    <name>yoga.mp4</name>
                                    <rate>
                                        <timebase>30</timebase>
                                        <ntsc>TRUE</ntsc>
                                    </rate>
                                    <duration>54922</duration>
                                    <timecode>
                                        <rate>
                                            <timebase>30</timebase>
                                            <ntsc>TRUE</ntsc>
                                        </rate>
                                        <string>00:00:00:00</string>
                                        <frame>0</frame>
                                        <displayformat>NDF</displayformat>
                                        <media>
                                            <video/>
                                            <audio/>
                                        </media>
                                    </timecode>
                                </file>
                                <name>/home/davidk/code/python/JC-render/JC-examples/yoga.mp4</name>
                                <rate>
                                    <timebase>30</timebase>
                                    <ntsc>TRUE</ntsc>
                                </rate>
                                <start>33453</start>
                                <end>33633</end>
                            </clipitem>
                            <clipitem frameBlend="FALSE" id="clipitem-697">
                                <media>
                                    <video>
                                        <samplecharacteristics>
                                            <height>720</height>
                                            <width>1270</width>
                                        </samplecharacteristics>
                                    </video>
                                </media>
                                <file id="file-1">
                                    <pathurl>/home/davidk/code/python/JC-render/JC-examples/yoga.mp4</pathurl>
                                    <name>yoga.mp4</name>
                                    <rate>
                                        <timebase>30</timebase>
                                        <ntsc>TRUE</ntsc>
                                    </rate>
                                    <duration>54922</duration>
                                    <timecode>
                                        <rate>
                                            <timebase>30</timebase>
                                            <ntsc>TRUE</ntsc>
                                        </rate>
                                        <string>00:00:00:00</string>
                                        <frame>0</frame>
                                        <displayformat>NDF</displayformat>
                                        <media>
                                            <video/>
                                            <audio/>
                                        </media>
                                    </timecode>
                                </file>
                                <name>/home/davidk/code/python/JC-render/JC-examples/yoga.mp4</name>
                                <rate>
                                    <timebase>30</timebase>
                                    <ntsc>TRUE</ntsc>
                                </rate>
                                <start>33633</start>
                                <end>33648</end>
                            </clipitem>
                            <clipitem frameBlend="FALSE" id="clipitem-698">
                                <media>
                                    <video>
                                        <samplecharacteristics>
                                            <height>720</height>
                                            <width>1270</width>
                                        </samplecharacteristics>
                                    </video>
                                </media>
                                <file id="file-1">
                                    <pathurl>/home/davidk/code/python/JC-render/JC-examples/yoga.mp4</pathurl>
                                    <name>yoga.mp4</name>
                                    <rate>
                                        <timebase>30</timebase>
                                        <ntsc>TRUE</ntsc>
                                    </rate>
                                    <duration>54922</duration>
                                    <timecode>
                                        <rate>
                                            <timebase>30</timebase>
                                            <ntsc>TRUE</ntsc>
                                        </rate>
                                        <string>00:00:00:00</string>
                                        <frame>0</frame>
                                        <displayformat>NDF</displayformat>
                                        <media>
                                            <video/>
                                            <audio/>
                                        </media>
                                    </timecode>
                                </file>
                                <name>/home/davidk/code/python/JC-render/JC-examples/yoga.mp4</name>
                                <rate>
                                    <timebase>30</timebase>
                                    <ntsc>TRUE</ntsc>
                                </rate>
                                <start>33648</start>
                                <end>33856</end>
                            </clipitem>
                            <clipitem frameBlend="FALSE" id="clipitem-699">
                                <media>
                                    <video>
                                        <samplecharacteristics>
                                            <height>720</height>
                                            <width>1270</width>
                                        </samplecharacteristics>
                                    </video>
                                </media>
                                <file id="file-1">
                                    <pathurl>/home/davidk/code/python/JC-render/JC-examples/yoga.mp4</pathurl>
                                    <name>yoga.mp4</name>
                                    <rate>
                                        <timebase>30</timebase>
                                        <ntsc>TRUE</ntsc>
                                    </rate>
                                    <duration>54922</duration>
                                    <timecode>
                                        <rate>
                                            <timebase>30</timebase>
                                            <ntsc>TRUE</ntsc>
                                        </rate>
                                        <string>00:00:00:00</string>
                                        <frame>0</frame>
                                        <displayformat>NDF</displayformat>
                                        <media>
                                            <video/>
                                            <audio/>
                                        </media>
                                    </timecode>
                                </file>
                                <name>/home/davidk/code/python/JC-render/JC-examples/yoga.mp4</name>
                                <rate>
                                    <timebase>30</timebase>
                                    <ntsc>TRUE</ntsc>
                                </rate>
                                <start>33856</start>
                                <end>33913</end>
                            </clipitem>
                            <clipitem frameBlend="FALSE" id="clipitem-700">
                                <media>
                                    <video>
                                        <samplecharacteristics>
                                            <height>720</height>
                                            <width>1270</width>
                                        </samplecharacteristics>
                                    </video>
                                </media>
                                <file id="file-1">
                                    <pathurl>/home/davidk/code/python/JC-render/JC-examples/yoga.mp4</pathurl>
                                    <name>yoga.mp4</name>
                                    <rate>
                                        <timebase>30</timebase>
                                        <ntsc>TRUE</ntsc>
                                    </rate>
                                    <duration>54922</duration>
                                    <timecode>
                                        <rate>
                                            <timebase>30</timebase>
                                            <ntsc>TRUE</ntsc>
                                        </rate>
                                        <string>00:00:00:00</string>
                                        <frame>0</frame>
                                        <displayformat>NDF</displayformat>
                                        <media>
                                            <video/>
                                            <audio/>
                                        </media>
                                    </timecode>
                                </file>
                                <name>/home/davidk/code/python/JC-render/JC-examples/yoga.mp4</name>
                                <rate>
                                    <timebase>30</timebase>
                                    <ntsc>TRUE</ntsc>
                                </rate>
                                <start>33913</start>
                                <end>33929</end>
                            </clipitem>
                            <clipitem frameBlend="FALSE" id="clipitem-701">
                                <media>
                                    <video>
                                        <samplecharacteristics>
                                            <height>720</height>
                                            <width>1270</width>
                                        </samplecharacteristics>
                                    </video>
                                </media>
                                <file id="file-1">
                                    <pathurl>/home/davidk/code/python/JC-render/JC-examples/yoga.mp4</pathurl>
                                    <name>yoga.mp4</name>
                                    <rate>
                                        <timebase>30</timebase>
                                        <ntsc>TRUE</ntsc>
                                    </rate>
                                    <duration>54922</duration>
                                    <timecode>
                                        <rate>
                                            <timebase>30</timebase>
                                            <ntsc>TRUE</ntsc>
                                        </rate>
                                        <string>00:00:00:00</string>
                                        <frame>0</frame>
                                        <displayformat>NDF</displayformat>
                                        <media>
                                            <video/>
                                            <audio/>
                                        </media>
                                    </timecode>
                                </file>
                                <name>/home/davidk/code/python/JC-render/JC-examples/yoga.mp4</name>
                                <rate>
                                    <timebase>30</timebase>
                                    <ntsc>TRUE</ntsc>
                                </rate>
                                <start>33929</start>
                                <end>33944</end>
                            </clipitem>
                            <clipitem frameBlend="FALSE" id="clipitem-702">
                                <media>
                                    <video>
                                        <samplecharacteristics>
                                            <height>720</height>
                                            <width>1270</width>
                                        </samplecharacteristics>
                                    </video>
                                </media>
                                <file id="file-1">
                                    <pathurl>/home/davidk/code/python/JC-render/JC-examples/yoga.mp4</pathurl>
                                    <name>yoga.mp4</name>
                                    <rate>
                                        <timebase>30</timebase>
                                        <ntsc>TRUE</ntsc>
                                    </rate>
                                    <duration>54922</duration>
                                    <timecode>
                                        <rate>
                                            <timebase>30</timebase>
                                            <ntsc>TRUE</ntsc>
                                        </rate>
                                        <string>00:00:00:00</string>
                                        <frame>0</frame>
                                        <displayformat>NDF</displayformat>
                                        <media>
                                            <video/>
                                            <audio/>
                                        </media>
                                    </timecode>
                                </file>
                                <name>/home/davidk/code/python/JC-render/JC-examples/yoga.mp4</name>
                                <rate>
                                    <timebase>30</timebase>
                                    <ntsc>TRUE</ntsc>
                                </rate>
                                <start>33944</start>
                                <end>33998</end>
                            </clipitem>
                            <clipitem frameBlend="FALSE" id="clipitem-703">
                                <media>
                                    <video>
                                        <samplecharacteristics>
                                            <height>720</height>
                                            <width>1270</width>
                                        </samplecharacteristics>
                                    </video>
                                </media>
                                <file id="file-1">
                                    <pathurl>/home/davidk/code/python/JC-render/JC-examples/yoga.mp4</pathurl>
                                    <name>yoga.mp4</name>
                                    <rate>
                                        <timebase>30</timebase>
                                        <ntsc>TRUE</ntsc>
                                    </rate>
                                    <duration>54922</duration>
                                    <timecode>
                                        <rate>
                                            <timebase>30</timebase>
                                            <ntsc>TRUE</ntsc>
                                        </rate>
                                        <string>00:00:00:00</string>
                                        <frame>0</frame>
                                        <displayformat>NDF</displayformat>
                                        <media>
                                            <video/>
                                            <audio/>
                                        </media>
                                    </timecode>
                                </file>
                                <name>/home/davidk/code/python/JC-render/JC-examples/yoga.mp4</name>
                                <rate>
                                    <timebase>30</timebase>
                                    <ntsc>TRUE</ntsc>
                                </rate>
                                <start>33998</start>
                                <end>34035</end>
                            </clipitem>
                            <clipitem frameBlend="FALSE" id="clipitem-704">
                                <media>
                                    <video>
                                        <samplecharacteristics>
                                            <height>720</height>
                                            <width>1270</width>
                                        </samplecharacteristics>
                                    </video>
                                </media>
                                <file id="file-1">
                                    <pathurl>/home/davidk/code/python/JC-render/JC-examples/yoga.mp4</pathurl>
                                    <name>yoga.mp4</name>
                                    <rate>
                                        <timebase>30</timebase>
                                        <ntsc>TRUE</ntsc>
                                    </rate>
                                    <duration>54922</duration>
                                    <timecode>
                                        <rate>
                                            <timebase>30</timebase>
                                            <ntsc>TRUE</ntsc>
                                        </rate>
                                        <string>00:00:00:00</string>
                                        <frame>0</frame>
                                        <displayformat>NDF</displayformat>
                                        <media>
                                            <video/>
                                            <audio/>
                                        </media>
                                    </timecode>
                                </file>
                                <name>/home/davidk/code/python/JC-render/JC-examples/yoga.mp4</name>
                                <rate>
                                    <timebase>30</timebase>
                                    <ntsc>TRUE</ntsc>
                                </rate>
                                <start>34035</start>
                                <end>34037</end>
                            </clipitem>
                            <clipitem frameBlend="FALSE" id="clipitem-705">
                                <media>
                                    <video>
                                        <samplecharacteristics>
                                            <height>720</height>
                                            <width>1270</width>
                                        </samplecharacteristics>
                                    </video>
                                </media>
                                <file id="file-1">
                                    <pathurl>/home/davidk/code/python/JC-render/JC-examples/yoga.mp4</pathurl>
                                    <name>yoga.mp4</name>
                                    <rate>
                                        <timebase>30</timebase>
                                        <ntsc>TRUE</ntsc>
                                    </rate>
                                    <duration>54922</duration>
                                    <timecode>
                                        <rate>
                                            <timebase>30</timebase>
                                            <ntsc>TRUE</ntsc>
                                        </rate>
                                        <string>00:00:00:00</string>
                                        <frame>0</frame>
                                        <displayformat>NDF</displayformat>
                                        <media>
                                            <video/>
                                            <audio/>
                                        </media>
                                    </timecode>
                                </file>
                                <name>/home/davidk/code/python/JC-render/JC-examples/yoga.mp4</name>
                                <rate>
                                    <timebase>30</timebase>
                                    <ntsc>TRUE</ntsc>
                                </rate>
                                <start>34037</start>
                                <end>34052</end>
                            </clipitem>
                            <clipitem frameBlend="FALSE" id="clipitem-706">
                                <media>
                                    <video>
                                        <samplecharacteristics>
                                            <height>720</height>
                                            <width>1270</width>
                                        </samplecharacteristics>
                                    </video>
                                </media>
                                <file id="file-1">
                                    <pathurl>/home/davidk/code/python/JC-render/JC-examples/yoga.mp4</pathurl>
                                    <name>yoga.mp4</name>
                                    <rate>
                                        <timebase>30</timebase>
                                        <ntsc>TRUE</ntsc>
                                    </rate>
                                    <duration>54922</duration>
                                    <timecode>
                                        <rate>
                                            <timebase>30</timebase>
                                            <ntsc>TRUE</ntsc>
                                        </rate>
                                        <string>00:00:00:00</string>
                                        <frame>0</frame>
                                        <displayformat>NDF</displayformat>
                                        <media>
                                            <video/>
                                            <audio/>
                                        </media>
                                    </timecode>
                                </file>
                                <name>/home/davidk/code/python/JC-render/JC-examples/yoga.mp4</name>
                                <rate>
                                    <timebase>30</timebase>
                                    <ntsc>TRUE</ntsc>
                                </rate>
                                <start>34052</start>
                                <end>34110</end>
                            </clipitem>
                            <clipitem frameBlend="FALSE" id="clipitem-707">
                                <media>
                                    <video>
                                        <samplecharacteristics>
                                            <height>720</height>
                                            <width>1270</width>
                                        </samplecharacteristics>
                                    </video>
                                </media>
                                <file id="file-1">
                                    <pathurl>/home/davidk/code/python/JC-render/JC-examples/yoga.mp4</pathurl>
                                    <name>yoga.mp4</name>
                                    <rate>
                                        <timebase>30</timebase>
                                        <ntsc>TRUE</ntsc>
                                    </rate>
                                    <duration>54922</duration>
                                    <timecode>
                                        <rate>
                                            <timebase>30</timebase>
                                            <ntsc>TRUE</ntsc>
                                        </rate>
                                        <string>00:00:00:00</string>
                                        <frame>0</frame>
                                        <displayformat>NDF</displayformat>
                                        <media>
                                            <video/>
                                            <audio/>
                                        </media>
                                    </timecode>
                                </file>
                                <name>/home/davidk/code/python/JC-render/JC-examples/yoga.mp4</name>
                                <rate>
                                    <timebase>30</timebase>
                                    <ntsc>TRUE</ntsc>
                                </rate>
                                <start>34110</start>
                                <end>34178</end>
                            </clipitem>
                            <clipitem frameBlend="FALSE" id="clipitem-708">
                                <media>
                                    <video>
                                        <samplecharacteristics>
                                            <height>720</height>
                                            <width>1270</width>
                                        </samplecharacteristics>
                                    </video>
                                </media>
                                <file id="file-1">
                                    <pathurl>/home/davidk/code/python/JC-render/JC-examples/yoga.mp4</pathurl>
                                    <name>yoga.mp4</name>
                                    <rate>
                                        <timebase>30</timebase>
                                        <ntsc>TRUE</ntsc>
                                    </rate>
                                    <duration>54922</duration>
                                    <timecode>
                                        <rate>
                                            <timebase>30</timebase>
                                            <ntsc>TRUE</ntsc>
                                        </rate>
                                        <string>00:00:00:00</string>
                                        <frame>0</frame>
                                        <displayformat>NDF</displayformat>
                                        <media>
                                            <video/>
                                            <audio/>
                                        </media>
                                    </timecode>
                                </file>
                                <name>/home/davidk/code/python/JC-render/JC-examples/yoga.mp4</name>
                                <rate>
                                    <timebase>30</timebase>
                                    <ntsc>TRUE</ntsc>
                                </rate>
                                <start>34178</start>
                                <end>34204</end>
                            </clipitem>
                            <clipitem frameBlend="FALSE" id="clipitem-709">
                                <media>
                                    <video>
                                        <samplecharacteristics>
                                            <height>720</height>
                                            <width>1270</width>
                                        </samplecharacteristics>
                                    </video>
                                </media>
                                <file id="file-1">
                                    <pathurl>/home/davidk/code/python/JC-render/JC-examples/yoga.mp4</pathurl>
                                    <name>yoga.mp4</name>
                                    <rate>
                                        <timebase>30</timebase>
                                        <ntsc>TRUE</ntsc>
                                    </rate>
                                    <duration>54922</duration>
                                    <timecode>
                                        <rate>
                                            <timebase>30</timebase>
                                            <ntsc>TRUE</ntsc>
                                        </rate>
                                        <string>00:00:00:00</string>
                                        <frame>0</frame>
                                        <displayformat>NDF</displayformat>
                                        <media>
                                            <video/>
                                            <audio/>
                                        </media>
                                    </timecode>
                                </file>
                                <name>/home/davidk/code/python/JC-render/JC-examples/yoga.mp4</name>
                                <rate>
                                    <timebase>30</timebase>
                                    <ntsc>TRUE</ntsc>
                                </rate>
                                <start>34204</start>
                                <end>34317</end>
                            </clipitem>
                            <clipitem frameBlend="FALSE" id="clipitem-710">
                                <media>
                                    <video>
                                        <samplecharacteristics>
                                            <height>720</height>
                                            <width>1270</width>
                                        </samplecharacteristics>
                                    </video>
                                </media>
                                <file id="file-1">
                                    <pathurl>/home/davidk/code/python/JC-render/JC-examples/yoga.mp4</pathurl>
                                    <name>yoga.mp4</name>
                                    <rate>
                                        <timebase>30</timebase>
                                        <ntsc>TRUE</ntsc>
                                    </rate>
                                    <duration>54922</duration>
                                    <timecode>
                                        <rate>
                                            <timebase>30</timebase>
                                            <ntsc>TRUE</ntsc>
                                        </rate>
                                        <string>00:00:00:00</string>
                                        <frame>0</frame>
                                        <displayformat>NDF</displayformat>
                                        <media>
                                            <video/>
                                            <audio/>
                                        </media>
                                    </timecode>
                                </file>
                                <name>/home/davidk/code/python/JC-render/JC-examples/yoga.mp4</name>
                                <rate>
                                    <timebase>30</timebase>
                                    <ntsc>TRUE</ntsc>
                                </rate>
                                <start>34317</start>
                                <end>34333</end>
                            </clipitem>
                            <clipitem frameBlend="FALSE" id="clipitem-711">
                                <media>
                                    <video>
                                        <samplecharacteristics>
                                            <height>720</height>
                                            <width>1270</width>
                                        </samplecharacteristics>
                                    </video>
                                </media>
                                <file id="file-1">
                                    <pathurl>/home/davidk/code/python/JC-render/JC-examples/yoga.mp4</pathurl>
                                    <name>yoga.mp4</name>
                                    <rate>
                                        <timebase>30</timebase>
                                        <ntsc>TRUE</ntsc>
                                    </rate>
                                    <duration>54922</duration>
                                    <timecode>
                                        <rate>
                                            <timebase>30</timebase>
                                            <ntsc>TRUE</ntsc>
                                        </rate>
                                        <string>00:00:00:00</string>
                                        <frame>0</frame>
                                        <displayformat>NDF</displayformat>
                                        <media>
                                            <video/>
                                            <audio/>
                                        </media>
                                    </timecode>
                                </file>
                                <name>/home/davidk/code/python/JC-render/JC-examples/yoga.mp4</name>
                                <rate>
                                    <timebase>30</timebase>
                                    <ntsc>TRUE</ntsc>
                                </rate>
                                <start>34333</start>
                                <end>34366</end>
                            </clipitem>
                            <clipitem frameBlend="FALSE" id="clipitem-712">
                                <media>
                                    <video>
                                        <samplecharacteristics>
                                            <height>720</height>
                                            <width>1270</width>
                                        </samplecharacteristics>
                                    </video>
                                </media>
                                <file id="file-1">
                                    <pathurl>/home/davidk/code/python/JC-render/JC-examples/yoga.mp4</pathurl>
                                    <name>yoga.mp4</name>
                                    <rate>
                                        <timebase>30</timebase>
                                        <ntsc>TRUE</ntsc>
                                    </rate>
                                    <duration>54922</duration>
                                    <timecode>
                                        <rate>
                                            <timebase>30</timebase>
                                            <ntsc>TRUE</ntsc>
                                        </rate>
                                        <string>00:00:00:00</string>
                                        <frame>0</frame>
                                        <displayformat>NDF</displayformat>
                                        <media>
                                            <video/>
                                            <audio/>
                                        </media>
                                    </timecode>
                                </file>
                                <name>/home/davidk/code/python/JC-render/JC-examples/yoga.mp4</name>
                                <rate>
                                    <timebase>30</timebase>
                                    <ntsc>TRUE</ntsc>
                                </rate>
                                <start>34366</start>
                                <end>34375</end>
                            </clipitem>
                            <clipitem frameBlend="FALSE" id="clipitem-713">
                                <media>
                                    <video>
                                        <samplecharacteristics>
                                            <height>720</height>
                                            <width>1270</width>
                                        </samplecharacteristics>
                                    </video>
                                </media>
                                <file id="file-1">
                                    <pathurl>/home/davidk/code/python/JC-render/JC-examples/yoga.mp4</pathurl>
                                    <name>yoga.mp4</name>
                                    <rate>
                                        <timebase>30</timebase>
                                        <ntsc>TRUE</ntsc>
                                    </rate>
                                    <duration>54922</duration>
                                    <timecode>
                                        <rate>
                                            <timebase>30</timebase>
                                            <ntsc>TRUE</ntsc>
                                        </rate>
                                        <string>00:00:00:00</string>
                                        <frame>0</frame>
                                        <displayformat>NDF</displayformat>
                                        <media>
                                            <video/>
                                            <audio/>
                                        </media>
                                    </timecode>
                                </file>
                                <name>/home/davidk/code/python/JC-render/JC-examples/yoga.mp4</name>
                                <rate>
                                    <timebase>30</timebase>
                                    <ntsc>TRUE</ntsc>
                                </rate>
                                <start>34375</start>
                                <end>34460</end>
                            </clipitem>
                            <clipitem frameBlend="FALSE" id="clipitem-714">
                                <media>
                                    <video>
                                        <samplecharacteristics>
                                            <height>720</height>
                                            <width>1270</width>
                                        </samplecharacteristics>
                                    </video>
                                </media>
                                <file id="file-1">
                                    <pathurl>/home/davidk/code/python/JC-render/JC-examples/yoga.mp4</pathurl>
                                    <name>yoga.mp4</name>
                                    <rate>
                                        <timebase>30</timebase>
                                        <ntsc>TRUE</ntsc>
                                    </rate>
                                    <duration>54922</duration>
                                    <timecode>
                                        <rate>
                                            <timebase>30</timebase>
                                            <ntsc>TRUE</ntsc>
                                        </rate>
                                        <string>00:00:00:00</string>
                                        <frame>0</frame>
                                        <displayformat>NDF</displayformat>
                                        <media>
                                            <video/>
                                            <audio/>
                                        </media>
                                    </timecode>
                                </file>
                                <name>/home/davidk/code/python/JC-render/JC-examples/yoga.mp4</name>
                                <rate>
                                    <timebase>30</timebase>
                                    <ntsc>TRUE</ntsc>
                                </rate>
                                <start>34460</start>
                                <end>34465</end>
                            </clipitem>
                            <clipitem frameBlend="FALSE" id="clipitem-715">
                                <media>
                                    <video>
                                        <samplecharacteristics>
                                            <height>720</height>
                                            <width>1270</width>
                                        </samplecharacteristics>
                                    </video>
                                </media>
                                <file id="file-1">
                                    <pathurl>/home/davidk/code/python/JC-render/JC-examples/yoga.mp4</pathurl>
                                    <name>yoga.mp4</name>
                                    <rate>
                                        <timebase>30</timebase>
                                        <ntsc>TRUE</ntsc>
                                    </rate>
                                    <duration>54922</duration>
                                    <timecode>
                                        <rate>
                                            <timebase>30</timebase>
                                            <ntsc>TRUE</ntsc>
                                        </rate>
                                        <string>00:00:00:00</string>
                                        <frame>0</frame>
                                        <displayformat>NDF</displayformat>
                                        <media>
                                            <video/>
                                            <audio/>
                                        </media>
                                    </timecode>
                                </file>
                                <name>/home/davidk/code/python/JC-render/JC-examples/yoga.mp4</name>
                                <rate>
                                    <timebase>30</timebase>
                                    <ntsc>TRUE</ntsc>
                                </rate>
                                <start>34465</start>
                                <end>34596</end>
                            </clipitem>
                            <clipitem frameBlend="FALSE" id="clipitem-716">
                                <media>
                                    <video>
                                        <samplecharacteristics>
                                            <height>720</height>
                                            <width>1270</width>
                                        </samplecharacteristics>
                                    </video>
                                </media>
                                <file id="file-1">
                                    <pathurl>/home/davidk/code/python/JC-render/JC-examples/yoga.mp4</pathurl>
                                    <name>yoga.mp4</name>
                                    <rate>
                                        <timebase>30</timebase>
                                        <ntsc>TRUE</ntsc>
                                    </rate>
                                    <duration>54922</duration>
                                    <timecode>
                                        <rate>
                                            <timebase>30</timebase>
                                            <ntsc>TRUE</ntsc>
                                        </rate>
                                        <string>00:00:00:00</string>
                                        <frame>0</frame>
                                        <displayformat>NDF</displayformat>
                                        <media>
                                            <video/>
                                            <audio/>
                                        </media>
                                    </timecode>
                                </file>
                                <name>/home/davidk/code/python/JC-render/JC-examples/yoga.mp4</name>
                                <rate>
                                    <timebase>30</timebase>
                                    <ntsc>TRUE</ntsc>
                                </rate>
                                <start>34596</start>
                                <end>34674</end>
                            </clipitem>
                            <clipitem frameBlend="FALSE" id="clipitem-717">
                                <media>
                                    <video>
                                        <samplecharacteristics>
                                            <height>720</height>
                                            <width>1270</width>
                                        </samplecharacteristics>
                                    </video>
                                </media>
                                <file id="file-1">
                                    <pathurl>/home/davidk/code/python/JC-render/JC-examples/yoga.mp4</pathurl>
                                    <name>yoga.mp4</name>
                                    <rate>
                                        <timebase>30</timebase>
                                        <ntsc>TRUE</ntsc>
                                    </rate>
                                    <duration>54922</duration>
                                    <timecode>
                                        <rate>
                                            <timebase>30</timebase>
                                            <ntsc>TRUE</ntsc>
                                        </rate>
                                        <string>00:00:00:00</string>
                                        <frame>0</frame>
                                        <displayformat>NDF</displayformat>
                                        <media>
                                            <video/>
                                            <audio/>
                                        </media>
                                    </timecode>
                                </file>
                                <name>/home/davidk/code/python/JC-render/JC-examples/yoga.mp4</name>
                                <rate>
                                    <timebase>30</timebase>
                                    <ntsc>TRUE</ntsc>
                                </rate>
                                <start>34674</start>
                                <end>34690</end>
                            </clipitem>
                            <clipitem frameBlend="FALSE" id="clipitem-718">
                                <media>
                                    <video>
                                        <samplecharacteristics>
                                            <height>720</height>
                                            <width>1270</width>
                                        </samplecharacteristics>
                                    </video>
                                </media>
                                <file id="file-1">
                                    <pathurl>/home/davidk/code/python/JC-render/JC-examples/yoga.mp4</pathurl>
                                    <name>yoga.mp4</name>
                                    <rate>
                                        <timebase>30</timebase>
                                        <ntsc>TRUE</ntsc>
                                    </rate>
                                    <duration>54922</duration>
                                    <timecode>
                                        <rate>
                                            <timebase>30</timebase>
                                            <ntsc>TRUE</ntsc>
                                        </rate>
                                        <string>00:00:00:00</string>
                                        <frame>0</frame>
                                        <displayformat>NDF</displayformat>
                                        <media>
                                            <video/>
                                            <audio/>
                                        </media>
                                    </timecode>
                                </file>
                                <name>/home/davidk/code/python/JC-render/JC-examples/yoga.mp4</name>
                                <rate>
                                    <timebase>30</timebase>
                                    <ntsc>TRUE</ntsc>
                                </rate>
                                <start>34690</start>
                                <end>34838</end>
                            </clipitem>
                            <clipitem frameBlend="FALSE" id="clipitem-719">
                                <media>
                                    <video>
                                        <samplecharacteristics>
                                            <height>720</height>
                                            <width>1270</width>
                                        </samplecharacteristics>
                                    </video>
                                </media>
                                <file id="file-1">
                                    <pathurl>/home/davidk/code/python/JC-render/JC-examples/yoga.mp4</pathurl>
                                    <name>yoga.mp4</name>
                                    <rate>
                                        <timebase>30</timebase>
                                        <ntsc>TRUE</ntsc>
                                    </rate>
                                    <duration>54922</duration>
                                    <timecode>
                                        <rate>
                                            <timebase>30</timebase>
                                            <ntsc>TRUE</ntsc>
                                        </rate>
                                        <string>00:00:00:00</string>
                                        <frame>0</frame>
                                        <displayformat>NDF</displayformat>
                                        <media>
                                            <video/>
                                            <audio/>
                                        </media>
                                    </timecode>
                                </file>
                                <name>/home/davidk/code/python/JC-render/JC-examples/yoga.mp4</name>
                                <rate>
                                    <timebase>30</timebase>
                                    <ntsc>TRUE</ntsc>
                                </rate>
                                <start>34838</start>
                                <end>34937</end>
                            </clipitem>
                            <clipitem frameBlend="FALSE" id="clipitem-720">
                                <media>
                                    <video>
                                        <samplecharacteristics>
                                            <height>720</height>
                                            <width>1270</width>
                                        </samplecharacteristics>
                                    </video>
                                </media>
                                <file id="file-1">
                                    <pathurl>/home/davidk/code/python/JC-render/JC-examples/yoga.mp4</pathurl>
                                    <name>yoga.mp4</name>
                                    <rate>
                                        <timebase>30</timebase>
                                        <ntsc>TRUE</ntsc>
                                    </rate>
                                    <duration>54922</duration>
                                    <timecode>
                                        <rate>
                                            <timebase>30</timebase>
                                            <ntsc>TRUE</ntsc>
                                        </rate>
                                        <string>00:00:00:00</string>
                                        <frame>0</frame>
                                        <displayformat>NDF</displayformat>
                                        <media>
                                            <video/>
                                            <audio/>
                                        </media>
                                    </timecode>
                                </file>
                                <name>/home/davidk/code/python/JC-render/JC-examples/yoga.mp4</name>
                                <rate>
                                    <timebase>30</timebase>
                                    <ntsc>TRUE</ntsc>
                                </rate>
                                <start>34937</start>
                                <end>34970</end>
                            </clipitem>
                            <clipitem frameBlend="FALSE" id="clipitem-721">
                                <media>
                                    <video>
                                        <samplecharacteristics>
                                            <height>720</height>
                                            <width>1270</width>
                                        </samplecharacteristics>
                                    </video>
                                </media>
                                <file id="file-1">
                                    <pathurl>/home/davidk/code/python/JC-render/JC-examples/yoga.mp4</pathurl>
                                    <name>yoga.mp4</name>
                                    <rate>
                                        <timebase>30</timebase>
                                        <ntsc>TRUE</ntsc>
                                    </rate>
                                    <duration>54922</duration>
                                    <timecode>
                                        <rate>
                                            <timebase>30</timebase>
                                            <ntsc>TRUE</ntsc>
                                        </rate>
                                        <string>00:00:00:00</string>
                                        <frame>0</frame>
                                        <displayformat>NDF</displayformat>
                                        <media>
                                            <video/>
                                            <audio/>
                                        </media>
                                    </timecode>
                                </file>
                                <name>/home/davidk/code/python/JC-render/JC-examples/yoga.mp4</name>
                                <rate>
                                    <timebase>30</timebase>
                                    <ntsc>TRUE</ntsc>
                                </rate>
                                <start>34970</start>
                                <end>34996</end>
                            </clipitem>
                            <clipitem frameBlend="FALSE" id="clipitem-722">
                                <media>
                                    <video>
                                        <samplecharacteristics>
                                            <height>720</height>
                                            <width>1270</width>
                                        </samplecharacteristics>
                                    </video>
                                </media>
                                <file id="file-1">
                                    <pathurl>/home/davidk/code/python/JC-render/JC-examples/yoga.mp4</pathurl>
                                    <name>yoga.mp4</name>
                                    <rate>
                                        <timebase>30</timebase>
                                        <ntsc>TRUE</ntsc>
                                    </rate>
                                    <duration>54922</duration>
                                    <timecode>
                                        <rate>
                                            <timebase>30</timebase>
                                            <ntsc>TRUE</ntsc>
                                        </rate>
                                        <string>00:00:00:00</string>
                                        <frame>0</frame>
                                        <displayformat>NDF</displayformat>
                                        <media>
                                            <video/>
                                            <audio/>
                                        </media>
                                    </timecode>
                                </file>
                                <name>/home/davidk/code/python/JC-render/JC-examples/yoga.mp4</name>
                                <rate>
                                    <timebase>30</timebase>
                                    <ntsc>TRUE</ntsc>
                                </rate>
                                <start>34996</start>
                                <end>35047</end>
                            </clipitem>
                            <clipitem frameBlend="FALSE" id="clipitem-723">
                                <media>
                                    <video>
                                        <samplecharacteristics>
                                            <height>720</height>
                                            <width>1270</width>
                                        </samplecharacteristics>
                                    </video>
                                </media>
                                <file id="file-1">
                                    <pathurl>/home/davidk/code/python/JC-render/JC-examples/yoga.mp4</pathurl>
                                    <name>yoga.mp4</name>
                                    <rate>
                                        <timebase>30</timebase>
                                        <ntsc>TRUE</ntsc>
                                    </rate>
                                    <duration>54922</duration>
                                    <timecode>
                                        <rate>
                                            <timebase>30</timebase>
                                            <ntsc>TRUE</ntsc>
                                        </rate>
                                        <string>00:00:00:00</string>
                                        <frame>0</frame>
                                        <displayformat>NDF</displayformat>
                                        <media>
                                            <video/>
                                            <audio/>
                                        </media>
                                    </timecode>
                                </file>
                                <name>/home/davidk/code/python/JC-render/JC-examples/yoga.mp4</name>
                                <rate>
                                    <timebase>30</timebase>
                                    <ntsc>TRUE</ntsc>
                                </rate>
                                <start>35047</start>
                                <end>35160</end>
                            </clipitem>
                            <clipitem frameBlend="FALSE" id="clipitem-724">
                                <media>
                                    <video>
                                        <samplecharacteristics>
                                            <height>720</height>
                                            <width>1270</width>
                                        </samplecharacteristics>
                                    </video>
                                </media>
                                <file id="file-1">
                                    <pathurl>/home/davidk/code/python/JC-render/JC-examples/yoga.mp4</pathurl>
                                    <name>yoga.mp4</name>
                                    <rate>
                                        <timebase>30</timebase>
                                        <ntsc>TRUE</ntsc>
                                    </rate>
                                    <duration>54922</duration>
                                    <timecode>
                                        <rate>
                                            <timebase>30</timebase>
                                            <ntsc>TRUE</ntsc>
                                        </rate>
                                        <string>00:00:00:00</string>
                                        <frame>0</frame>
                                        <displayformat>NDF</displayformat>
                                        <media>
                                            <video/>
                                            <audio/>
                                        </media>
                                    </timecode>
                                </file>
                                <name>/home/davidk/code/python/JC-render/JC-examples/yoga.mp4</name>
                                <rate>
                                    <timebase>30</timebase>
                                    <ntsc>TRUE</ntsc>
                                </rate>
                                <start>35160</start>
                                <end>35200</end>
                            </clipitem>
                            <clipitem frameBlend="FALSE" id="clipitem-725">
                                <media>
                                    <video>
                                        <samplecharacteristics>
                                            <height>720</height>
                                            <width>1270</width>
                                        </samplecharacteristics>
                                    </video>
                                </media>
                                <file id="file-1">
                                    <pathurl>/home/davidk/code/python/JC-render/JC-examples/yoga.mp4</pathurl>
                                    <name>yoga.mp4</name>
                                    <rate>
                                        <timebase>30</timebase>
                                        <ntsc>TRUE</ntsc>
                                    </rate>
                                    <duration>54922</duration>
                                    <timecode>
                                        <rate>
                                            <timebase>30</timebase>
                                            <ntsc>TRUE</ntsc>
                                        </rate>
                                        <string>00:00:00:00</string>
                                        <frame>0</frame>
                                        <displayformat>NDF</displayformat>
                                        <media>
                                            <video/>
                                            <audio/>
                                        </media>
                                    </timecode>
                                </file>
                                <name>/home/davidk/code/python/JC-render/JC-examples/yoga.mp4</name>
                                <rate>
                                    <timebase>30</timebase>
                                    <ntsc>TRUE</ntsc>
                                </rate>
                                <start>35200</start>
                                <end>35243</end>
                            </clipitem>
                            <clipitem frameBlend="FALSE" id="clipitem-726">
                                <media>
                                    <video>
                                        <samplecharacteristics>
                                            <height>720</height>
                                            <width>1270</width>
                                        </samplecharacteristics>
                                    </video>
                                </media>
                                <file id="file-1">
                                    <pathurl>/home/davidk/code/python/JC-render/JC-examples/yoga.mp4</pathurl>
                                    <name>yoga.mp4</name>
                                    <rate>
                                        <timebase>30</timebase>
                                        <ntsc>TRUE</ntsc>
                                    </rate>
                                    <duration>54922</duration>
                                    <timecode>
                                        <rate>
                                            <timebase>30</timebase>
                                            <ntsc>TRUE</ntsc>
                                        </rate>
                                        <string>00:00:00:00</string>
                                        <frame>0</frame>
                                        <displayformat>NDF</displayformat>
                                        <media>
                                            <video/>
                                            <audio/>
                                        </media>
                                    </timecode>
                                </file>
                                <name>/home/davidk/code/python/JC-render/JC-examples/yoga.mp4</name>
                                <rate>
                                    <timebase>30</timebase>
                                    <ntsc>TRUE</ntsc>
                                </rate>
                                <start>35243</start>
                                <end>35252</end>
                            </clipitem>
                            <clipitem frameBlend="FALSE" id="clipitem-727">
                                <media>
                                    <video>
                                        <samplecharacteristics>
                                            <height>720</height>
                                            <width>1270</width>
                                        </samplecharacteristics>
                                    </video>
                                </media>
                                <file id="file-1">
                                    <pathurl>/home/davidk/code/python/JC-render/JC-examples/yoga.mp4</pathurl>
                                    <name>yoga.mp4</name>
                                    <rate>
                                        <timebase>30</timebase>
                                        <ntsc>TRUE</ntsc>
                                    </rate>
                                    <duration>54922</duration>
                                    <timecode>
                                        <rate>
                                            <timebase>30</timebase>
                                            <ntsc>TRUE</ntsc>
                                        </rate>
                                        <string>00:00:00:00</string>
                                        <frame>0</frame>
                                        <displayformat>NDF</displayformat>
                                        <media>
                                            <video/>
                                            <audio/>
                                        </media>
                                    </timecode>
                                </file>
                                <name>/home/davidk/code/python/JC-render/JC-examples/yoga.mp4</name>
                                <rate>
                                    <timebase>30</timebase>
                                    <ntsc>TRUE</ntsc>
                                </rate>
                                <start>35252</start>
                                <end>35331</end>
                            </clipitem>
                            <clipitem frameBlend="FALSE" id="clipitem-728">
                                <media>
                                    <video>
                                        <samplecharacteristics>
                                            <height>720</height>
                                            <width>1270</width>
                                        </samplecharacteristics>
                                    </video>
                                </media>
                                <file id="file-1">
                                    <pathurl>/home/davidk/code/python/JC-render/JC-examples/yoga.mp4</pathurl>
                                    <name>yoga.mp4</name>
                                    <rate>
                                        <timebase>30</timebase>
                                        <ntsc>TRUE</ntsc>
                                    </rate>
                                    <duration>54922</duration>
                                    <timecode>
                                        <rate>
                                            <timebase>30</timebase>
                                            <ntsc>TRUE</ntsc>
                                        </rate>
                                        <string>00:00:00:00</string>
                                        <frame>0</frame>
                                        <displayformat>NDF</displayformat>
                                        <media>
                                            <video/>
                                            <audio/>
                                        </media>
                                    </timecode>
                                </file>
                                <name>/home/davidk/code/python/JC-render/JC-examples/yoga.mp4</name>
                                <rate>
                                    <timebase>30</timebase>
                                    <ntsc>TRUE</ntsc>
                                </rate>
                                <start>35331</start>
                                <end>35399</end>
                            </clipitem>
                            <clipitem frameBlend="FALSE" id="clipitem-729">
                                <media>
                                    <video>
                                        <samplecharacteristics>
                                            <height>720</height>
                                            <width>1270</width>
                                        </samplecharacteristics>
                                    </video>
                                </media>
                                <file id="file-1">
                                    <pathurl>/home/davidk/code/python/JC-render/JC-examples/yoga.mp4</pathurl>
                                    <name>yoga.mp4</name>
                                    <rate>
                                        <timebase>30</timebase>
                                        <ntsc>TRUE</ntsc>
                                    </rate>
                                    <duration>54922</duration>
                                    <timecode>
                                        <rate>
                                            <timebase>30</timebase>
                                            <ntsc>TRUE</ntsc>
                                        </rate>
                                        <string>00:00:00:00</string>
                                        <frame>0</frame>
                                        <displayformat>NDF</displayformat>
                                        <media>
                                            <video/>
                                            <audio/>
                                        </media>
                                    </timecode>
                                </file>
                                <name>/home/davidk/code/python/JC-render/JC-examples/yoga.mp4</name>
                                <rate>
                                    <timebase>30</timebase>
                                    <ntsc>TRUE</ntsc>
                                </rate>
                                <start>35399</start>
                                <end>35449</end>
                            </clipitem>
                            <clipitem frameBlend="FALSE" id="clipitem-730">
                                <media>
                                    <video>
                                        <samplecharacteristics>
                                            <height>720</height>
                                            <width>1270</width>
                                        </samplecharacteristics>
                                    </video>
                                </media>
                                <file id="file-1">
                                    <pathurl>/home/davidk/code/python/JC-render/JC-examples/yoga.mp4</pathurl>
                                    <name>yoga.mp4</name>
                                    <rate>
                                        <timebase>30</timebase>
                                        <ntsc>TRUE</ntsc>
                                    </rate>
                                    <duration>54922</duration>
                                    <timecode>
                                        <rate>
                                            <timebase>30</timebase>
                                            <ntsc>TRUE</ntsc>
                                        </rate>
                                        <string>00:00:00:00</string>
                                        <frame>0</frame>
                                        <displayformat>NDF</displayformat>
                                        <media>
                                            <video/>
                                            <audio/>
                                        </media>
                                    </timecode>
                                </file>
                                <name>/home/davidk/code/python/JC-render/JC-examples/yoga.mp4</name>
                                <rate>
                                    <timebase>30</timebase>
                                    <ntsc>TRUE</ntsc>
                                </rate>
                                <start>35449</start>
                                <end>35468</end>
                            </clipitem>
                            <clipitem frameBlend="FALSE" id="clipitem-731">
                                <media>
                                    <video>
                                        <samplecharacteristics>
                                            <height>720</height>
                                            <width>1270</width>
                                        </samplecharacteristics>
                                    </video>
                                </media>
                                <file id="file-1">
                                    <pathurl>/home/davidk/code/python/JC-render/JC-examples/yoga.mp4</pathurl>
                                    <name>yoga.mp4</name>
                                    <rate>
                                        <timebase>30</timebase>
                                        <ntsc>TRUE</ntsc>
                                    </rate>
                                    <duration>54922</duration>
                                    <timecode>
                                        <rate>
                                            <timebase>30</timebase>
                                            <ntsc>TRUE</ntsc>
                                        </rate>
                                        <string>00:00:00:00</string>
                                        <frame>0</frame>
                                        <displayformat>NDF</displayformat>
                                        <media>
                                            <video/>
                                            <audio/>
                                        </media>
                                    </timecode>
                                </file>
                                <name>/home/davidk/code/python/JC-render/JC-examples/yoga.mp4</name>
                                <rate>
                                    <timebase>30</timebase>
                                    <ntsc>TRUE</ntsc>
                                </rate>
                                <start>35468</start>
                                <end>35641</end>
                            </clipitem>
                            <clipitem frameBlend="FALSE" id="clipitem-732">
                                <media>
                                    <video>
                                        <samplecharacteristics>
                                            <height>720</height>
                                            <width>1270</width>
                                        </samplecharacteristics>
                                    </video>
                                </media>
                                <file id="file-1">
                                    <pathurl>/home/davidk/code/python/JC-render/JC-examples/yoga.mp4</pathurl>
                                    <name>yoga.mp4</name>
                                    <rate>
                                        <timebase>30</timebase>
                                        <ntsc>TRUE</ntsc>
                                    </rate>
                                    <duration>54922</duration>
                                    <timecode>
                                        <rate>
                                            <timebase>30</timebase>
                                            <ntsc>TRUE</ntsc>
                                        </rate>
                                        <string>00:00:00:00</string>
                                        <frame>0</frame>
                                        <displayformat>NDF</displayformat>
                                        <media>
                                            <video/>
                                            <audio/>
                                        </media>
                                    </timecode>
                                </file>
                                <name>/home/davidk/code/python/JC-render/JC-examples/yoga.mp4</name>
                                <rate>
                                    <timebase>30</timebase>
                                    <ntsc>TRUE</ntsc>
                                </rate>
                                <start>35641</start>
                                <end>35642</end>
                            </clipitem>
                            <clipitem frameBlend="FALSE" id="clipitem-733">
                                <media>
                                    <video>
                                        <samplecharacteristics>
                                            <height>720</height>
                                            <width>1270</width>
                                        </samplecharacteristics>
                                    </video>
                                </media>
                                <file id="file-1">
                                    <pathurl>/home/davidk/code/python/JC-render/JC-examples/yoga.mp4</pathurl>
                                    <name>yoga.mp4</name>
                                    <rate>
                                        <timebase>30</timebase>
                                        <ntsc>TRUE</ntsc>
                                    </rate>
                                    <duration>54922</duration>
                                    <timecode>
                                        <rate>
                                            <timebase>30</timebase>
                                            <ntsc>TRUE</ntsc>
                                        </rate>
                                        <string>00:00:00:00</string>
                                        <frame>0</frame>
                                        <displayformat>NDF</displayformat>
                                        <media>
                                            <video/>
                                            <audio/>
                                        </media>
                                    </timecode>
                                </file>
                                <name>/home/davidk/code/python/JC-render/JC-examples/yoga.mp4</name>
                                <rate>
                                    <timebase>30</timebase>
                                    <ntsc>TRUE</ntsc>
                                </rate>
                                <start>35642</start>
                                <end>35658</end>
                            </clipitem>
                            <clipitem frameBlend="FALSE" id="clipitem-734">
                                <media>
                                    <video>
                                        <samplecharacteristics>
                                            <height>720</height>
                                            <width>1270</width>
                                        </samplecharacteristics>
                                    </video>
                                </media>
                                <file id="file-1">
                                    <pathurl>/home/davidk/code/python/JC-render/JC-examples/yoga.mp4</pathurl>
                                    <name>yoga.mp4</name>
                                    <rate>
                                        <timebase>30</timebase>
                                        <ntsc>TRUE</ntsc>
                                    </rate>
                                    <duration>54922</duration>
                                    <timecode>
                                        <rate>
                                            <timebase>30</timebase>
                                            <ntsc>TRUE</ntsc>
                                        </rate>
                                        <string>00:00:00:00</string>
                                        <frame>0</frame>
                                        <displayformat>NDF</displayformat>
                                        <media>
                                            <video/>
                                            <audio/>
                                        </media>
                                    </timecode>
                                </file>
                                <name>/home/davidk/code/python/JC-render/JC-examples/yoga.mp4</name>
                                <rate>
                                    <timebase>30</timebase>
                                    <ntsc>TRUE</ntsc>
                                </rate>
                                <start>35658</start>
                                <end>35688</end>
                            </clipitem>
                            <clipitem frameBlend="FALSE" id="clipitem-735">
                                <media>
                                    <video>
                                        <samplecharacteristics>
                                            <height>720</height>
                                            <width>1270</width>
                                        </samplecharacteristics>
                                    </video>
                                </media>
                                <file id="file-1">
                                    <pathurl>/home/davidk/code/python/JC-render/JC-examples/yoga.mp4</pathurl>
                                    <name>yoga.mp4</name>
                                    <rate>
                                        <timebase>30</timebase>
                                        <ntsc>TRUE</ntsc>
                                    </rate>
                                    <duration>54922</duration>
                                    <timecode>
                                        <rate>
                                            <timebase>30</timebase>
                                            <ntsc>TRUE</ntsc>
                                        </rate>
                                        <string>00:00:00:00</string>
                                        <frame>0</frame>
                                        <displayformat>NDF</displayformat>
                                        <media>
                                            <video/>
                                            <audio/>
                                        </media>
                                    </timecode>
                                </file>
                                <name>/home/davidk/code/python/JC-render/JC-examples/yoga.mp4</name>
                                <rate>
                                    <timebase>30</timebase>
                                    <ntsc>TRUE</ntsc>
                                </rate>
                                <start>35688</start>
                                <end>35836</end>
                            </clipitem>
                            <clipitem frameBlend="FALSE" id="clipitem-736">
                                <media>
                                    <video>
                                        <samplecharacteristics>
                                            <height>720</height>
                                            <width>1270</width>
                                        </samplecharacteristics>
                                    </video>
                                </media>
                                <file id="file-1">
                                    <pathurl>/home/davidk/code/python/JC-render/JC-examples/yoga.mp4</pathurl>
                                    <name>yoga.mp4</name>
                                    <rate>
                                        <timebase>30</timebase>
                                        <ntsc>TRUE</ntsc>
                                    </rate>
                                    <duration>54922</duration>
                                    <timecode>
                                        <rate>
                                            <timebase>30</timebase>
                                            <ntsc>TRUE</ntsc>
                                        </rate>
                                        <string>00:00:00:00</string>
                                        <frame>0</frame>
                                        <displayformat>NDF</displayformat>
                                        <media>
                                            <video/>
                                            <audio/>
                                        </media>
                                    </timecode>
                                </file>
                                <name>/home/davidk/code/python/JC-render/JC-examples/yoga.mp4</name>
                                <rate>
                                    <timebase>30</timebase>
                                    <ntsc>TRUE</ntsc>
                                </rate>
                                <start>35836</start>
                                <end>35869</end>
                            </clipitem>
                            <clipitem frameBlend="FALSE" id="clipitem-737">
                                <media>
                                    <video>
                                        <samplecharacteristics>
                                            <height>720</height>
                                            <width>1270</width>
                                        </samplecharacteristics>
                                    </video>
                                </media>
                                <file id="file-1">
                                    <pathurl>/home/davidk/code/python/JC-render/JC-examples/yoga.mp4</pathurl>
                                    <name>yoga.mp4</name>
                                    <rate>
                                        <timebase>30</timebase>
                                        <ntsc>TRUE</ntsc>
                                    </rate>
                                    <duration>54922</duration>
                                    <timecode>
                                        <rate>
                                            <timebase>30</timebase>
                                            <ntsc>TRUE</ntsc>
                                        </rate>
                                        <string>00:00:00:00</string>
                                        <frame>0</frame>
                                        <displayformat>NDF</displayformat>
                                        <media>
                                            <video/>
                                            <audio/>
                                        </media>
                                    </timecode>
                                </file>
                                <name>/home/davidk/code/python/JC-render/JC-examples/yoga.mp4</name>
                                <rate>
                                    <timebase>30</timebase>
                                    <ntsc>TRUE</ntsc>
                                </rate>
                                <start>35869</start>
                                <end>35954</end>
                            </clipitem>
                            <clipitem frameBlend="FALSE" id="clipitem-738">
                                <media>
                                    <video>
                                        <samplecharacteristics>
                                            <height>720</height>
                                            <width>1270</width>
                                        </samplecharacteristics>
                                    </video>
                                </media>
                                <file id="file-1">
                                    <pathurl>/home/davidk/code/python/JC-render/JC-examples/yoga.mp4</pathurl>
                                    <name>yoga.mp4</name>
                                    <rate>
                                        <timebase>30</timebase>
                                        <ntsc>TRUE</ntsc>
                                    </rate>
                                    <duration>54922</duration>
                                    <timecode>
                                        <rate>
                                            <timebase>30</timebase>
                                            <ntsc>TRUE</ntsc>
                                        </rate>
                                        <string>00:00:00:00</string>
                                        <frame>0</frame>
                                        <displayformat>NDF</displayformat>
                                        <media>
                                            <video/>
                                            <audio/>
                                        </media>
                                    </timecode>
                                </file>
                                <name>/home/davidk/code/python/JC-render/JC-examples/yoga.mp4</name>
                                <rate>
                                    <timebase>30</timebase>
                                    <ntsc>TRUE</ntsc>
                                </rate>
                                <start>35954</start>
                                <end>35956</end>
                            </clipitem>
                            <clipitem frameBlend="FALSE" id="clipitem-739">
                                <media>
                                    <video>
                                        <samplecharacteristics>
                                            <height>720</height>
                                            <width>1270</width>
                                        </samplecharacteristics>
                                    </video>
                                </media>
                                <file id="file-1">
                                    <pathurl>/home/davidk/code/python/JC-render/JC-examples/yoga.mp4</pathurl>
                                    <name>yoga.mp4</name>
                                    <rate>
                                        <timebase>30</timebase>
                                        <ntsc>TRUE</ntsc>
                                    </rate>
                                    <duration>54922</duration>
                                    <timecode>
                                        <rate>
                                            <timebase>30</timebase>
                                            <ntsc>TRUE</ntsc>
                                        </rate>
                                        <string>00:00:00:00</string>
                                        <frame>0</frame>
                                        <displayformat>NDF</displayformat>
                                        <media>
                                            <video/>
                                            <audio/>
                                        </media>
                                    </timecode>
                                </file>
                                <name>/home/davidk/code/python/JC-render/JC-examples/yoga.mp4</name>
                                <rate>
                                    <timebase>30</timebase>
                                    <ntsc>TRUE</ntsc>
                                </rate>
                                <start>35956</start>
                                <end>36010</end>
                            </clipitem>
                            <clipitem frameBlend="FALSE" id="clipitem-740">
                                <media>
                                    <video>
                                        <samplecharacteristics>
                                            <height>720</height>
                                            <width>1270</width>
                                        </samplecharacteristics>
                                    </video>
                                </media>
                                <file id="file-1">
                                    <pathurl>/home/davidk/code/python/JC-render/JC-examples/yoga.mp4</pathurl>
                                    <name>yoga.mp4</name>
                                    <rate>
                                        <timebase>30</timebase>
                                        <ntsc>TRUE</ntsc>
                                    </rate>
                                    <duration>54922</duration>
                                    <timecode>
                                        <rate>
                                            <timebase>30</timebase>
                                            <ntsc>TRUE</ntsc>
                                        </rate>
                                        <string>00:00:00:00</string>
                                        <frame>0</frame>
                                        <displayformat>NDF</displayformat>
                                        <media>
                                            <video/>
                                            <audio/>
                                        </media>
                                    </timecode>
                                </file>
                                <name>/home/davidk/code/python/JC-render/JC-examples/yoga.mp4</name>
                                <rate>
                                    <timebase>30</timebase>
                                    <ntsc>TRUE</ntsc>
                                </rate>
                                <start>36010</start>
                                <end>36095</end>
                            </clipitem>
                            <clipitem frameBlend="FALSE" id="clipitem-741">
                                <media>
                                    <video>
                                        <samplecharacteristics>
                                            <height>720</height>
                                            <width>1270</width>
                                        </samplecharacteristics>
                                    </video>
                                </media>
                                <file id="file-1">
                                    <pathurl>/home/davidk/code/python/JC-render/JC-examples/yoga.mp4</pathurl>
                                    <name>yoga.mp4</name>
                                    <rate>
                                        <timebase>30</timebase>
                                        <ntsc>TRUE</ntsc>
                                    </rate>
                                    <duration>54922</duration>
                                    <timecode>
                                        <rate>
                                            <timebase>30</timebase>
                                            <ntsc>TRUE</ntsc>
                                        </rate>
                                        <string>00:00:00:00</string>
                                        <frame>0</frame>
                                        <displayformat>NDF</displayformat>
                                        <media>
                                            <video/>
                                            <audio/>
                                        </media>
                                    </timecode>
                                </file>
                                <name>/home/davidk/code/python/JC-render/JC-examples/yoga.mp4</name>
                                <rate>
                                    <timebase>30</timebase>
                                    <ntsc>TRUE</ntsc>
                                </rate>
                                <start>36095</start>
                                <end>36149</end>
                            </clipitem>
                            <clipitem frameBlend="FALSE" id="clipitem-742">
                                <media>
                                    <video>
                                        <samplecharacteristics>
                                            <height>720</height>
                                            <width>1270</width>
                                        </samplecharacteristics>
                                    </video>
                                </media>
                                <file id="file-1">
                                    <pathurl>/home/davidk/code/python/JC-render/JC-examples/yoga.mp4</pathurl>
                                    <name>yoga.mp4</name>
                                    <rate>
                                        <timebase>30</timebase>
                                        <ntsc>TRUE</ntsc>
                                    </rate>
                                    <duration>54922</duration>
                                    <timecode>
                                        <rate>
                                            <timebase>30</timebase>
                                            <ntsc>TRUE</ntsc>
                                        </rate>
                                        <string>00:00:00:00</string>
                                        <frame>0</frame>
                                        <displayformat>NDF</displayformat>
                                        <media>
                                            <video/>
                                            <audio/>
                                        </media>
                                    </timecode>
                                </file>
                                <name>/home/davidk/code/python/JC-render/JC-examples/yoga.mp4</name>
                                <rate>
                                    <timebase>30</timebase>
                                    <ntsc>TRUE</ntsc>
                                </rate>
                                <start>36149</start>
                                <end>36151</end>
                            </clipitem>
                            <clipitem frameBlend="FALSE" id="clipitem-743">
                                <media>
                                    <video>
                                        <samplecharacteristics>
                                            <height>720</height>
                                            <width>1270</width>
                                        </samplecharacteristics>
                                    </video>
                                </media>
                                <file id="file-1">
                                    <pathurl>/home/davidk/code/python/JC-render/JC-examples/yoga.mp4</pathurl>
                                    <name>yoga.mp4</name>
                                    <rate>
                                        <timebase>30</timebase>
                                        <ntsc>TRUE</ntsc>
                                    </rate>
                                    <duration>54922</duration>
                                    <timecode>
                                        <rate>
                                            <timebase>30</timebase>
                                            <ntsc>TRUE</ntsc>
                                        </rate>
                                        <string>00:00:00:00</string>
                                        <frame>0</frame>
                                        <displayformat>NDF</displayformat>
                                        <media>
                                            <video/>
                                            <audio/>
                                        </media>
                                    </timecode>
                                </file>
                                <name>/home/davidk/code/python/JC-render/JC-examples/yoga.mp4</name>
                                <rate>
                                    <timebase>30</timebase>
                                    <ntsc>TRUE</ntsc>
                                </rate>
                                <start>36151</start>
                                <end>36187</end>
                            </clipitem>
                            <clipitem frameBlend="FALSE" id="clipitem-744">
                                <media>
                                    <video>
                                        <samplecharacteristics>
                                            <height>720</height>
                                            <width>1270</width>
                                        </samplecharacteristics>
                                    </video>
                                </media>
                                <file id="file-1">
                                    <pathurl>/home/davidk/code/python/JC-render/JC-examples/yoga.mp4</pathurl>
                                    <name>yoga.mp4</name>
                                    <rate>
                                        <timebase>30</timebase>
                                        <ntsc>TRUE</ntsc>
                                    </rate>
                                    <duration>54922</duration>
                                    <timecode>
                                        <rate>
                                            <timebase>30</timebase>
                                            <ntsc>TRUE</ntsc>
                                        </rate>
                                        <string>00:00:00:00</string>
                                        <frame>0</frame>
                                        <displayformat>NDF</displayformat>
                                        <media>
                                            <video/>
                                            <audio/>
                                        </media>
                                    </timecode>
                                </file>
                                <name>/home/davidk/code/python/JC-render/JC-examples/yoga.mp4</name>
                                <rate>
                                    <timebase>30</timebase>
                                    <ntsc>TRUE</ntsc>
                                </rate>
                                <start>36187</start>
                                <end>36203</end>
                            </clipitem>
                            <clipitem frameBlend="FALSE" id="clipitem-745">
                                <media>
                                    <video>
                                        <samplecharacteristics>
                                            <height>720</height>
                                            <width>1270</width>
                                        </samplecharacteristics>
                                    </video>
                                </media>
                                <file id="file-1">
                                    <pathurl>/home/davidk/code/python/JC-render/JC-examples/yoga.mp4</pathurl>
                                    <name>yoga.mp4</name>
                                    <rate>
                                        <timebase>30</timebase>
                                        <ntsc>TRUE</ntsc>
                                    </rate>
                                    <duration>54922</duration>
                                    <timecode>
                                        <rate>
                                            <timebase>30</timebase>
                                            <ntsc>TRUE</ntsc>
                                        </rate>
                                        <string>00:00:00:00</string>
                                        <frame>0</frame>
                                        <displayformat>NDF</displayformat>
                                        <media>
                                            <video/>
                                            <audio/>
                                        </media>
                                    </timecode>
                                </file>
                                <name>/home/davidk/code/python/JC-render/JC-examples/yoga.mp4</name>
                                <rate>
                                    <timebase>30</timebase>
                                    <ntsc>TRUE</ntsc>
                                </rate>
                                <start>36203</start>
                                <end>36278</end>
                            </clipitem>
                            <clipitem frameBlend="FALSE" id="clipitem-746">
                                <media>
                                    <video>
                                        <samplecharacteristics>
                                            <height>720</height>
                                            <width>1270</width>
                                        </samplecharacteristics>
                                    </video>
                                </media>
                                <file id="file-1">
                                    <pathurl>/home/davidk/code/python/JC-render/JC-examples/yoga.mp4</pathurl>
                                    <name>yoga.mp4</name>
                                    <rate>
                                        <timebase>30</timebase>
                                        <ntsc>TRUE</ntsc>
                                    </rate>
                                    <duration>54922</duration>
                                    <timecode>
                                        <rate>
                                            <timebase>30</timebase>
                                            <ntsc>TRUE</ntsc>
                                        </rate>
                                        <string>00:00:00:00</string>
                                        <frame>0</frame>
                                        <displayformat>NDF</displayformat>
                                        <media>
                                            <video/>
                                            <audio/>
                                        </media>
                                    </timecode>
                                </file>
                                <name>/home/davidk/code/python/JC-render/JC-examples/yoga.mp4</name>
                                <rate>
                                    <timebase>30</timebase>
                                    <ntsc>TRUE</ntsc>
                                </rate>
                                <start>36278</start>
                                <end>36283</end>
                            </clipitem>
                            <clipitem frameBlend="FALSE" id="clipitem-747">
                                <media>
                                    <video>
                                        <samplecharacteristics>
                                            <height>720</height>
                                            <width>1270</width>
                                        </samplecharacteristics>
                                    </video>
                                </media>
                                <file id="file-1">
                                    <pathurl>/home/davidk/code/python/JC-render/JC-examples/yoga.mp4</pathurl>
                                    <name>yoga.mp4</name>
                                    <rate>
                                        <timebase>30</timebase>
                                        <ntsc>TRUE</ntsc>
                                    </rate>
                                    <duration>54922</duration>
                                    <timecode>
                                        <rate>
                                            <timebase>30</timebase>
                                            <ntsc>TRUE</ntsc>
                                        </rate>
                                        <string>00:00:00:00</string>
                                        <frame>0</frame>
                                        <displayformat>NDF</displayformat>
                                        <media>
                                            <video/>
                                            <audio/>
                                        </media>
                                    </timecode>
                                </file>
                                <name>/home/davidk/code/python/JC-render/JC-examples/yoga.mp4</name>
                                <rate>
                                    <timebase>30</timebase>
                                    <ntsc>TRUE</ntsc>
                                </rate>
                                <start>36283</start>
                                <end>36344</end>
                            </clipitem>
                            <clipitem frameBlend="FALSE" id="clipitem-748">
                                <media>
                                    <video>
                                        <samplecharacteristics>
                                            <height>720</height>
                                            <width>1270</width>
                                        </samplecharacteristics>
                                    </video>
                                </media>
                                <file id="file-1">
                                    <pathurl>/home/davidk/code/python/JC-render/JC-examples/yoga.mp4</pathurl>
                                    <name>yoga.mp4</name>
                                    <rate>
                                        <timebase>30</timebase>
                                        <ntsc>TRUE</ntsc>
                                    </rate>
                                    <duration>54922</duration>
                                    <timecode>
                                        <rate>
                                            <timebase>30</timebase>
                                            <ntsc>TRUE</ntsc>
                                        </rate>
                                        <string>00:00:00:00</string>
                                        <frame>0</frame>
                                        <displayformat>NDF</displayformat>
                                        <media>
                                            <video/>
                                            <audio/>
                                        </media>
                                    </timecode>
                                </file>
                                <name>/home/davidk/code/python/JC-render/JC-examples/yoga.mp4</name>
                                <rate>
                                    <timebase>30</timebase>
                                    <ntsc>TRUE</ntsc>
                                </rate>
                                <start>36344</start>
                                <end>36349</end>
                            </clipitem>
                            <clipitem frameBlend="FALSE" id="clipitem-749">
                                <media>
                                    <video>
                                        <samplecharacteristics>
                                            <height>720</height>
                                            <width>1270</width>
                                        </samplecharacteristics>
                                    </video>
                                </media>
                                <file id="file-1">
                                    <pathurl>/home/davidk/code/python/JC-render/JC-examples/yoga.mp4</pathurl>
                                    <name>yoga.mp4</name>
                                    <rate>
                                        <timebase>30</timebase>
                                        <ntsc>TRUE</ntsc>
                                    </rate>
                                    <duration>54922</duration>
                                    <timecode>
                                        <rate>
                                            <timebase>30</timebase>
                                            <ntsc>TRUE</ntsc>
                                        </rate>
                                        <string>00:00:00:00</string>
                                        <frame>0</frame>
                                        <displayformat>NDF</displayformat>
                                        <media>
                                            <video/>
                                            <audio/>
                                        </media>
                                    </timecode>
                                </file>
                                <name>/home/davidk/code/python/JC-render/JC-examples/yoga.mp4</name>
                                <rate>
                                    <timebase>30</timebase>
                                    <ntsc>TRUE</ntsc>
                                </rate>
                                <start>36349</start>
                                <end>36449</end>
                            </clipitem>
                            <clipitem frameBlend="FALSE" id="clipitem-750">
                                <media>
                                    <video>
                                        <samplecharacteristics>
                                            <height>720</height>
                                            <width>1270</width>
                                        </samplecharacteristics>
                                    </video>
                                </media>
                                <file id="file-1">
                                    <pathurl>/home/davidk/code/python/JC-render/JC-examples/yoga.mp4</pathurl>
                                    <name>yoga.mp4</name>
                                    <rate>
                                        <timebase>30</timebase>
                                        <ntsc>TRUE</ntsc>
                                    </rate>
                                    <duration>54922</duration>
                                    <timecode>
                                        <rate>
                                            <timebase>30</timebase>
                                            <ntsc>TRUE</ntsc>
                                        </rate>
                                        <string>00:00:00:00</string>
                                        <frame>0</frame>
                                        <displayformat>NDF</displayformat>
                                        <media>
                                            <video/>
                                            <audio/>
                                        </media>
                                    </timecode>
                                </file>
                                <name>/home/davidk/code/python/JC-render/JC-examples/yoga.mp4</name>
                                <rate>
                                    <timebase>30</timebase>
                                    <ntsc>TRUE</ntsc>
                                </rate>
                                <start>36449</start>
                                <end>36461</end>
                            </clipitem>
                            <clipitem frameBlend="FALSE" id="clipitem-751">
                                <media>
                                    <video>
                                        <samplecharacteristics>
                                            <height>720</height>
                                            <width>1270</width>
                                        </samplecharacteristics>
                                    </video>
                                </media>
                                <file id="file-1">
                                    <pathurl>/home/davidk/code/python/JC-render/JC-examples/yoga.mp4</pathurl>
                                    <name>yoga.mp4</name>
                                    <rate>
                                        <timebase>30</timebase>
                                        <ntsc>TRUE</ntsc>
                                    </rate>
                                    <duration>54922</duration>
                                    <timecode>
                                        <rate>
                                            <timebase>30</timebase>
                                            <ntsc>TRUE</ntsc>
                                        </rate>
                                        <string>00:00:00:00</string>
                                        <frame>0</frame>
                                        <displayformat>NDF</displayformat>
                                        <media>
                                            <video/>
                                            <audio/>
                                        </media>
                                    </timecode>
                                </file>
                                <name>/home/davidk/code/python/JC-render/JC-examples/yoga.mp4</name>
                                <rate>
                                    <timebase>30</timebase>
                                    <ntsc>TRUE</ntsc>
                                </rate>
                                <start>36461</start>
                                <end>36536</end>
                            </clipitem>
                            <clipitem frameBlend="FALSE" id="clipitem-752">
                                <media>
                                    <video>
                                        <samplecharacteristics>
                                            <height>720</height>
                                            <width>1270</width>
                                        </samplecharacteristics>
                                    </video>
                                </media>
                                <file id="file-1">
                                    <pathurl>/home/davidk/code/python/JC-render/JC-examples/yoga.mp4</pathurl>
                                    <name>yoga.mp4</name>
                                    <rate>
                                        <timebase>30</timebase>
                                        <ntsc>TRUE</ntsc>
                                    </rate>
                                    <duration>54922</duration>
                                    <timecode>
                                        <rate>
                                            <timebase>30</timebase>
                                            <ntsc>TRUE</ntsc>
                                        </rate>
                                        <string>00:00:00:00</string>
                                        <frame>0</frame>
                                        <displayformat>NDF</displayformat>
                                        <media>
                                            <video/>
                                            <audio/>
                                        </media>
                                    </timecode>
                                </file>
                                <name>/home/davidk/code/python/JC-render/JC-examples/yoga.mp4</name>
                                <rate>
                                    <timebase>30</timebase>
                                    <ntsc>TRUE</ntsc>
                                </rate>
                                <start>36536</start>
                                <end>36569</end>
                            </clipitem>
                            <clipitem frameBlend="FALSE" id="clipitem-753">
                                <media>
                                    <video>
                                        <samplecharacteristics>
                                            <height>720</height>
                                            <width>1270</width>
                                        </samplecharacteristics>
                                    </video>
                                </media>
                                <file id="file-1">
                                    <pathurl>/home/davidk/code/python/JC-render/JC-examples/yoga.mp4</pathurl>
                                    <name>yoga.mp4</name>
                                    <rate>
                                        <timebase>30</timebase>
                                        <ntsc>TRUE</ntsc>
                                    </rate>
                                    <duration>54922</duration>
                                    <timecode>
                                        <rate>
                                            <timebase>30</timebase>
                                            <ntsc>TRUE</ntsc>
                                        </rate>
                                        <string>00:00:00:00</string>
                                        <frame>0</frame>
                                        <displayformat>NDF</displayformat>
                                        <media>
                                            <video/>
                                            <audio/>
                                        </media>
                                    </timecode>
                                </file>
                                <name>/home/davidk/code/python/JC-render/JC-examples/yoga.mp4</name>
                                <rate>
                                    <timebase>30</timebase>
                                    <ntsc>TRUE</ntsc>
                                </rate>
                                <start>36569</start>
                                <end>36658</end>
                            </clipitem>
                            <clipitem frameBlend="FALSE" id="clipitem-754">
                                <media>
                                    <video>
                                        <samplecharacteristics>
                                            <height>720</height>
                                            <width>1270</width>
                                        </samplecharacteristics>
                                    </video>
                                </media>
                                <file id="file-1">
                                    <pathurl>/home/davidk/code/python/JC-render/JC-examples/yoga.mp4</pathurl>
                                    <name>yoga.mp4</name>
                                    <rate>
                                        <timebase>30</timebase>
                                        <ntsc>TRUE</ntsc>
                                    </rate>
                                    <duration>54922</duration>
                                    <timecode>
                                        <rate>
                                            <timebase>30</timebase>
                                            <ntsc>TRUE</ntsc>
                                        </rate>
                                        <string>00:00:00:00</string>
                                        <frame>0</frame>
                                        <displayformat>NDF</displayformat>
                                        <media>
                                            <video/>
                                            <audio/>
                                        </media>
                                    </timecode>
                                </file>
                                <name>/home/davidk/code/python/JC-render/JC-examples/yoga.mp4</name>
                                <rate>
                                    <timebase>30</timebase>
                                    <ntsc>TRUE</ntsc>
                                </rate>
                                <start>36658</start>
                                <end>36663</end>
                            </clipitem>
                            <clipitem frameBlend="FALSE" id="clipitem-755">
                                <media>
                                    <video>
                                        <samplecharacteristics>
                                            <height>720</height>
                                            <width>1270</width>
                                        </samplecharacteristics>
                                    </video>
                                </media>
                                <file id="file-1">
                                    <pathurl>/home/davidk/code/python/JC-render/JC-examples/yoga.mp4</pathurl>
                                    <name>yoga.mp4</name>
                                    <rate>
                                        <timebase>30</timebase>
                                        <ntsc>TRUE</ntsc>
                                    </rate>
                                    <duration>54922</duration>
                                    <timecode>
                                        <rate>
                                            <timebase>30</timebase>
                                            <ntsc>TRUE</ntsc>
                                        </rate>
                                        <string>00:00:00:00</string>
                                        <frame>0</frame>
                                        <displayformat>NDF</displayformat>
                                        <media>
                                            <video/>
                                            <audio/>
                                        </media>
                                    </timecode>
                                </file>
                                <name>/home/davidk/code/python/JC-render/JC-examples/yoga.mp4</name>
                                <rate>
                                    <timebase>30</timebase>
                                    <ntsc>TRUE</ntsc>
                                </rate>
                                <start>36663</start>
                                <end>36710</end>
                            </clipitem>
                            <clipitem frameBlend="FALSE" id="clipitem-756">
                                <media>
                                    <video>
                                        <samplecharacteristics>
                                            <height>720</height>
                                            <width>1270</width>
                                        </samplecharacteristics>
                                    </video>
                                </media>
                                <file id="file-1">
                                    <pathurl>/home/davidk/code/python/JC-render/JC-examples/yoga.mp4</pathurl>
                                    <name>yoga.mp4</name>
                                    <rate>
                                        <timebase>30</timebase>
                                        <ntsc>TRUE</ntsc>
                                    </rate>
                                    <duration>54922</duration>
                                    <timecode>
                                        <rate>
                                            <timebase>30</timebase>
                                            <ntsc>TRUE</ntsc>
                                        </rate>
                                        <string>00:00:00:00</string>
                                        <frame>0</frame>
                                        <displayformat>NDF</displayformat>
                                        <media>
                                            <video/>
                                            <audio/>
                                        </media>
                                    </timecode>
                                </file>
                                <name>/home/davidk/code/python/JC-render/JC-examples/yoga.mp4</name>
                                <rate>
                                    <timebase>30</timebase>
                                    <ntsc>TRUE</ntsc>
                                </rate>
                                <start>36710</start>
                                <end>36719</end>
                            </clipitem>
                            <clipitem frameBlend="FALSE" id="clipitem-757">
                                <media>
                                    <video>
                                        <samplecharacteristics>
                                            <height>720</height>
                                            <width>1270</width>
                                        </samplecharacteristics>
                                    </video>
                                </media>
                                <file id="file-1">
                                    <pathurl>/home/davidk/code/python/JC-render/JC-examples/yoga.mp4</pathurl>
                                    <name>yoga.mp4</name>
                                    <rate>
                                        <timebase>30</timebase>
                                        <ntsc>TRUE</ntsc>
                                    </rate>
                                    <duration>54922</duration>
                                    <timecode>
                                        <rate>
                                            <timebase>30</timebase>
                                            <ntsc>TRUE</ntsc>
                                        </rate>
                                        <string>00:00:00:00</string>
                                        <frame>0</frame>
                                        <displayformat>NDF</displayformat>
                                        <media>
                                            <video/>
                                            <audio/>
                                        </media>
                                    </timecode>
                                </file>
                                <name>/home/davidk/code/python/JC-render/JC-examples/yoga.mp4</name>
                                <rate>
                                    <timebase>30</timebase>
                                    <ntsc>TRUE</ntsc>
                                </rate>
                                <start>36719</start>
                                <end>36734</end>
                            </clipitem>
                            <clipitem frameBlend="FALSE" id="clipitem-758">
                                <media>
                                    <video>
                                        <samplecharacteristics>
                                            <height>720</height>
                                            <width>1270</width>
                                        </samplecharacteristics>
                                    </video>
                                </media>
                                <file id="file-1">
                                    <pathurl>/home/davidk/code/python/JC-render/JC-examples/yoga.mp4</pathurl>
                                    <name>yoga.mp4</name>
                                    <rate>
                                        <timebase>30</timebase>
                                        <ntsc>TRUE</ntsc>
                                    </rate>
                                    <duration>54922</duration>
                                    <timecode>
                                        <rate>
                                            <timebase>30</timebase>
                                            <ntsc>TRUE</ntsc>
                                        </rate>
                                        <string>00:00:00:00</string>
                                        <frame>0</frame>
                                        <displayformat>NDF</displayformat>
                                        <media>
                                            <video/>
                                            <audio/>
                                        </media>
                                    </timecode>
                                </file>
                                <name>/home/davidk/code/python/JC-render/JC-examples/yoga.mp4</name>
                                <rate>
                                    <timebase>30</timebase>
                                    <ntsc>TRUE</ntsc>
                                </rate>
                                <start>36734</start>
                                <end>36743</end>
                            </clipitem>
                            <clipitem frameBlend="FALSE" id="clipitem-759">
                                <media>
                                    <video>
                                        <samplecharacteristics>
                                            <height>720</height>
                                            <width>1270</width>
                                        </samplecharacteristics>
                                    </video>
                                </media>
                                <file id="file-1">
                                    <pathurl>/home/davidk/code/python/JC-render/JC-examples/yoga.mp4</pathurl>
                                    <name>yoga.mp4</name>
                                    <rate>
                                        <timebase>30</timebase>
                                        <ntsc>TRUE</ntsc>
                                    </rate>
                                    <duration>54922</duration>
                                    <timecode>
                                        <rate>
                                            <timebase>30</timebase>
                                            <ntsc>TRUE</ntsc>
                                        </rate>
                                        <string>00:00:00:00</string>
                                        <frame>0</frame>
                                        <displayformat>NDF</displayformat>
                                        <media>
                                            <video/>
                                            <audio/>
                                        </media>
                                    </timecode>
                                </file>
                                <name>/home/davidk/code/python/JC-render/JC-examples/yoga.mp4</name>
                                <rate>
                                    <timebase>30</timebase>
                                    <ntsc>TRUE</ntsc>
                                </rate>
                                <start>36743</start>
                                <end>36790</end>
                            </clipitem>
                            <clipitem frameBlend="FALSE" id="clipitem-760">
                                <media>
                                    <video>
                                        <samplecharacteristics>
                                            <height>720</height>
                                            <width>1270</width>
                                        </samplecharacteristics>
                                    </video>
                                </media>
                                <file id="file-1">
                                    <pathurl>/home/davidk/code/python/JC-render/JC-examples/yoga.mp4</pathurl>
                                    <name>yoga.mp4</name>
                                    <rate>
                                        <timebase>30</timebase>
                                        <ntsc>TRUE</ntsc>
                                    </rate>
                                    <duration>54922</duration>
                                    <timecode>
                                        <rate>
                                            <timebase>30</timebase>
                                            <ntsc>TRUE</ntsc>
                                        </rate>
                                        <string>00:00:00:00</string>
                                        <frame>0</frame>
                                        <displayformat>NDF</displayformat>
                                        <media>
                                            <video/>
                                            <audio/>
                                        </media>
                                    </timecode>
                                </file>
                                <name>/home/davidk/code/python/JC-render/JC-examples/yoga.mp4</name>
                                <rate>
                                    <timebase>30</timebase>
                                    <ntsc>TRUE</ntsc>
                                </rate>
                                <start>36790</start>
                                <end>36799</end>
                            </clipitem>
                            <clipitem frameBlend="FALSE" id="clipitem-761">
                                <media>
                                    <video>
                                        <samplecharacteristics>
                                            <height>720</height>
                                            <width>1270</width>
                                        </samplecharacteristics>
                                    </video>
                                </media>
                                <file id="file-1">
                                    <pathurl>/home/davidk/code/python/JC-render/JC-examples/yoga.mp4</pathurl>
                                    <name>yoga.mp4</name>
                                    <rate>
                                        <timebase>30</timebase>
                                        <ntsc>TRUE</ntsc>
                                    </rate>
                                    <duration>54922</duration>
                                    <timecode>
                                        <rate>
                                            <timebase>30</timebase>
                                            <ntsc>TRUE</ntsc>
                                        </rate>
                                        <string>00:00:00:00</string>
                                        <frame>0</frame>
                                        <displayformat>NDF</displayformat>
                                        <media>
                                            <video/>
                                            <audio/>
                                        </media>
                                    </timecode>
                                </file>
                                <name>/home/davidk/code/python/JC-render/JC-examples/yoga.mp4</name>
                                <rate>
                                    <timebase>30</timebase>
                                    <ntsc>TRUE</ntsc>
                                </rate>
                                <start>36799</start>
                                <end>36818</end>
                            </clipitem>
                            <clipitem frameBlend="FALSE" id="clipitem-762">
                                <media>
                                    <video>
                                        <samplecharacteristics>
                                            <height>720</height>
                                            <width>1270</width>
                                        </samplecharacteristics>
                                    </video>
                                </media>
                                <file id="file-1">
                                    <pathurl>/home/davidk/code/python/JC-render/JC-examples/yoga.mp4</pathurl>
                                    <name>yoga.mp4</name>
                                    <rate>
                                        <timebase>30</timebase>
                                        <ntsc>TRUE</ntsc>
                                    </rate>
                                    <duration>54922</duration>
                                    <timecode>
                                        <rate>
                                            <timebase>30</timebase>
                                            <ntsc>TRUE</ntsc>
                                        </rate>
                                        <string>00:00:00:00</string>
                                        <frame>0</frame>
                                        <displayformat>NDF</displayformat>
                                        <media>
                                            <video/>
                                            <audio/>
                                        </media>
                                    </timecode>
                                </file>
                                <name>/home/davidk/code/python/JC-render/JC-examples/yoga.mp4</name>
                                <rate>
                                    <timebase>30</timebase>
                                    <ntsc>TRUE</ntsc>
                                </rate>
                                <start>36818</start>
                                <end>36834</end>
                            </clipitem>
                            <clipitem frameBlend="FALSE" id="clipitem-763">
                                <media>
                                    <video>
                                        <samplecharacteristics>
                                            <height>720</height>
                                            <width>1270</width>
                                        </samplecharacteristics>
                                    </video>
                                </media>
                                <file id="file-1">
                                    <pathurl>/home/davidk/code/python/JC-render/JC-examples/yoga.mp4</pathurl>
                                    <name>yoga.mp4</name>
                                    <rate>
                                        <timebase>30</timebase>
                                        <ntsc>TRUE</ntsc>
                                    </rate>
                                    <duration>54922</duration>
                                    <timecode>
                                        <rate>
                                            <timebase>30</timebase>
                                            <ntsc>TRUE</ntsc>
                                        </rate>
                                        <string>00:00:00:00</string>
                                        <frame>0</frame>
                                        <displayformat>NDF</displayformat>
                                        <media>
                                            <video/>
                                            <audio/>
                                        </media>
                                    </timecode>
                                </file>
                                <name>/home/davidk/code/python/JC-render/JC-examples/yoga.mp4</name>
                                <rate>
                                    <timebase>30</timebase>
                                    <ntsc>TRUE</ntsc>
                                </rate>
                                <start>36834</start>
                                <end>36853</end>
                            </clipitem>
                            <clipitem frameBlend="FALSE" id="clipitem-764">
                                <media>
                                    <video>
                                        <samplecharacteristics>
                                            <height>720</height>
                                            <width>1270</width>
                                        </samplecharacteristics>
                                    </video>
                                </media>
                                <file id="file-1">
                                    <pathurl>/home/davidk/code/python/JC-render/JC-examples/yoga.mp4</pathurl>
                                    <name>yoga.mp4</name>
                                    <rate>
                                        <timebase>30</timebase>
                                        <ntsc>TRUE</ntsc>
                                    </rate>
                                    <duration>54922</duration>
                                    <timecode>
                                        <rate>
                                            <timebase>30</timebase>
                                            <ntsc>TRUE</ntsc>
                                        </rate>
                                        <string>00:00:00:00</string>
                                        <frame>0</frame>
                                        <displayformat>NDF</displayformat>
                                        <media>
                                            <video/>
                                            <audio/>
                                        </media>
                                    </timecode>
                                </file>
                                <name>/home/davidk/code/python/JC-render/JC-examples/yoga.mp4</name>
                                <rate>
                                    <timebase>30</timebase>
                                    <ntsc>TRUE</ntsc>
                                </rate>
                                <start>36853</start>
                                <end>36882</end>
                            </clipitem>
                            <clipitem frameBlend="FALSE" id="clipitem-765">
                                <media>
                                    <video>
                                        <samplecharacteristics>
                                            <height>720</height>
                                            <width>1270</width>
                                        </samplecharacteristics>
                                    </video>
                                </media>
                                <file id="file-1">
                                    <pathurl>/home/davidk/code/python/JC-render/JC-examples/yoga.mp4</pathurl>
                                    <name>yoga.mp4</name>
                                    <rate>
                                        <timebase>30</timebase>
                                        <ntsc>TRUE</ntsc>
                                    </rate>
                                    <duration>54922</duration>
                                    <timecode>
                                        <rate>
                                            <timebase>30</timebase>
                                            <ntsc>TRUE</ntsc>
                                        </rate>
                                        <string>00:00:00:00</string>
                                        <frame>0</frame>
                                        <displayformat>NDF</displayformat>
                                        <media>
                                            <video/>
                                            <audio/>
                                        </media>
                                    </timecode>
                                </file>
                                <name>/home/davidk/code/python/JC-render/JC-examples/yoga.mp4</name>
                                <rate>
                                    <timebase>30</timebase>
                                    <ntsc>TRUE</ntsc>
                                </rate>
                                <start>36882</start>
                                <end>36898</end>
                            </clipitem>
                            <clipitem frameBlend="FALSE" id="clipitem-766">
                                <media>
                                    <video>
                                        <samplecharacteristics>
                                            <height>720</height>
                                            <width>1270</width>
                                        </samplecharacteristics>
                                    </video>
                                </media>
                                <file id="file-1">
                                    <pathurl>/home/davidk/code/python/JC-render/JC-examples/yoga.mp4</pathurl>
                                    <name>yoga.mp4</name>
                                    <rate>
                                        <timebase>30</timebase>
                                        <ntsc>TRUE</ntsc>
                                    </rate>
                                    <duration>54922</duration>
                                    <timecode>
                                        <rate>
                                            <timebase>30</timebase>
                                            <ntsc>TRUE</ntsc>
                                        </rate>
                                        <string>00:00:00:00</string>
                                        <frame>0</frame>
                                        <displayformat>NDF</displayformat>
                                        <media>
                                            <video/>
                                            <audio/>
                                        </media>
                                    </timecode>
                                </file>
                                <name>/home/davidk/code/python/JC-render/JC-examples/yoga.mp4</name>
                                <rate>
                                    <timebase>30</timebase>
                                    <ntsc>TRUE</ntsc>
                                </rate>
                                <start>36898</start>
                                <end>36907</end>
                            </clipitem>
                            <clipitem frameBlend="FALSE" id="clipitem-767">
                                <media>
                                    <video>
                                        <samplecharacteristics>
                                            <height>720</height>
                                            <width>1270</width>
                                        </samplecharacteristics>
                                    </video>
                                </media>
                                <file id="file-1">
                                    <pathurl>/home/davidk/code/python/JC-render/JC-examples/yoga.mp4</pathurl>
                                    <name>yoga.mp4</name>
                                    <rate>
                                        <timebase>30</timebase>
                                        <ntsc>TRUE</ntsc>
                                    </rate>
                                    <duration>54922</duration>
                                    <timecode>
                                        <rate>
                                            <timebase>30</timebase>
                                            <ntsc>TRUE</ntsc>
                                        </rate>
                                        <string>00:00:00:00</string>
                                        <frame>0</frame>
                                        <displayformat>NDF</displayformat>
                                        <media>
                                            <video/>
                                            <audio/>
                                        </media>
                                    </timecode>
                                </file>
                                <name>/home/davidk/code/python/JC-render/JC-examples/yoga.mp4</name>
                                <rate>
                                    <timebase>30</timebase>
                                    <ntsc>TRUE</ntsc>
                                </rate>
                                <start>36907</start>
                                <end>36922</end>
                            </clipitem>
                            <clipitem frameBlend="FALSE" id="clipitem-768">
                                <media>
                                    <video>
                                        <samplecharacteristics>
                                            <height>720</height>
                                            <width>1270</width>
                                        </samplecharacteristics>
                                    </video>
                                </media>
                                <file id="file-1">
                                    <pathurl>/home/davidk/code/python/JC-render/JC-examples/yoga.mp4</pathurl>
                                    <name>yoga.mp4</name>
                                    <rate>
                                        <timebase>30</timebase>
                                        <ntsc>TRUE</ntsc>
                                    </rate>
                                    <duration>54922</duration>
                                    <timecode>
                                        <rate>
                                            <timebase>30</timebase>
                                            <ntsc>TRUE</ntsc>
                                        </rate>
                                        <string>00:00:00:00</string>
                                        <frame>0</frame>
                                        <displayformat>NDF</displayformat>
                                        <media>
                                            <video/>
                                            <audio/>
                                        </media>
                                    </timecode>
                                </file>
                                <name>/home/davidk/code/python/JC-render/JC-examples/yoga.mp4</name>
                                <rate>
                                    <timebase>30</timebase>
                                    <ntsc>TRUE</ntsc>
                                </rate>
                                <start>36922</start>
                                <end>36990</end>
                            </clipitem>
                            <clipitem frameBlend="FALSE" id="clipitem-769">
                                <media>
                                    <video>
                                        <samplecharacteristics>
                                            <height>720</height>
                                            <width>1270</width>
                                        </samplecharacteristics>
                                    </video>
                                </media>
                                <file id="file-1">
                                    <pathurl>/home/davidk/code/python/JC-render/JC-examples/yoga.mp4</pathurl>
                                    <name>yoga.mp4</name>
                                    <rate>
                                        <timebase>30</timebase>
                                        <ntsc>TRUE</ntsc>
                                    </rate>
                                    <duration>54922</duration>
                                    <timecode>
                                        <rate>
                                            <timebase>30</timebase>
                                            <ntsc>TRUE</ntsc>
                                        </rate>
                                        <string>00:00:00:00</string>
                                        <frame>0</frame>
                                        <displayformat>NDF</displayformat>
                                        <media>
                                            <video/>
                                            <audio/>
                                        </media>
                                    </timecode>
                                </file>
                                <name>/home/davidk/code/python/JC-render/JC-examples/yoga.mp4</name>
                                <rate>
                                    <timebase>30</timebase>
                                    <ntsc>TRUE</ntsc>
                                </rate>
                                <start>36990</start>
                                <end>37006</end>
                            </clipitem>
                            <clipitem frameBlend="FALSE" id="clipitem-770">
                                <media>
                                    <video>
                                        <samplecharacteristics>
                                            <height>720</height>
                                            <width>1270</width>
                                        </samplecharacteristics>
                                    </video>
                                </media>
                                <file id="file-1">
                                    <pathurl>/home/davidk/code/python/JC-render/JC-examples/yoga.mp4</pathurl>
                                    <name>yoga.mp4</name>
                                    <rate>
                                        <timebase>30</timebase>
                                        <ntsc>TRUE</ntsc>
                                    </rate>
                                    <duration>54922</duration>
                                    <timecode>
                                        <rate>
                                            <timebase>30</timebase>
                                            <ntsc>TRUE</ntsc>
                                        </rate>
                                        <string>00:00:00:00</string>
                                        <frame>0</frame>
                                        <displayformat>NDF</displayformat>
                                        <media>
                                            <video/>
                                            <audio/>
                                        </media>
                                    </timecode>
                                </file>
                                <name>/home/davidk/code/python/JC-render/JC-examples/yoga.mp4</name>
                                <rate>
                                    <timebase>30</timebase>
                                    <ntsc>TRUE</ntsc>
                                </rate>
                                <start>37006</start>
                                <end>37276</end>
                            </clipitem>
                            <clipitem frameBlend="FALSE" id="clipitem-771">
                                <media>
                                    <video>
                                        <samplecharacteristics>
                                            <height>720</height>
                                            <width>1270</width>
                                        </samplecharacteristics>
                                    </video>
                                </media>
                                <file id="file-1">
                                    <pathurl>/home/davidk/code/python/JC-render/JC-examples/yoga.mp4</pathurl>
                                    <name>yoga.mp4</name>
                                    <rate>
                                        <timebase>30</timebase>
                                        <ntsc>TRUE</ntsc>
                                    </rate>
                                    <duration>54922</duration>
                                    <timecode>
                                        <rate>
                                            <timebase>30</timebase>
                                            <ntsc>TRUE</ntsc>
                                        </rate>
                                        <string>00:00:00:00</string>
                                        <frame>0</frame>
                                        <displayformat>NDF</displayformat>
                                        <media>
                                            <video/>
                                            <audio/>
                                        </media>
                                    </timecode>
                                </file>
                                <name>/home/davidk/code/python/JC-render/JC-examples/yoga.mp4</name>
                                <rate>
                                    <timebase>30</timebase>
                                    <ntsc>TRUE</ntsc>
                                </rate>
                                <start>37276</start>
                                <end>37368</end>
                            </clipitem>
                            <clipitem frameBlend="FALSE" id="clipitem-772">
                                <media>
                                    <video>
                                        <samplecharacteristics>
                                            <height>720</height>
                                            <width>1270</width>
                                        </samplecharacteristics>
                                    </video>
                                </media>
                                <file id="file-1">
                                    <pathurl>/home/davidk/code/python/JC-render/JC-examples/yoga.mp4</pathurl>
                                    <name>yoga.mp4</name>
                                    <rate>
                                        <timebase>30</timebase>
                                        <ntsc>TRUE</ntsc>
                                    </rate>
                                    <duration>54922</duration>
                                    <timecode>
                                        <rate>
                                            <timebase>30</timebase>
                                            <ntsc>TRUE</ntsc>
                                        </rate>
                                        <string>00:00:00:00</string>
                                        <frame>0</frame>
                                        <displayformat>NDF</displayformat>
                                        <media>
                                            <video/>
                                            <audio/>
                                        </media>
                                    </timecode>
                                </file>
                                <name>/home/davidk/code/python/JC-render/JC-examples/yoga.mp4</name>
                                <rate>
                                    <timebase>30</timebase>
                                    <ntsc>TRUE</ntsc>
                                </rate>
                                <start>37368</start>
                                <end>37377</end>
                            </clipitem>
                            <clipitem frameBlend="FALSE" id="clipitem-773">
                                <media>
                                    <video>
                                        <samplecharacteristics>
                                            <height>720</height>
                                            <width>1270</width>
                                        </samplecharacteristics>
                                    </video>
                                </media>
                                <file id="file-1">
                                    <pathurl>/home/davidk/code/python/JC-render/JC-examples/yoga.mp4</pathurl>
                                    <name>yoga.mp4</name>
                                    <rate>
                                        <timebase>30</timebase>
                                        <ntsc>TRUE</ntsc>
                                    </rate>
                                    <duration>54922</duration>
                                    <timecode>
                                        <rate>
                                            <timebase>30</timebase>
                                            <ntsc>TRUE</ntsc>
                                        </rate>
                                        <string>00:00:00:00</string>
                                        <frame>0</frame>
                                        <displayformat>NDF</displayformat>
                                        <media>
                                            <video/>
                                            <audio/>
                                        </media>
                                    </timecode>
                                </file>
                                <name>/home/davidk/code/python/JC-render/JC-examples/yoga.mp4</name>
                                <rate>
                                    <timebase>30</timebase>
                                    <ntsc>TRUE</ntsc>
                                </rate>
                                <start>37377</start>
                                <end>37445</end>
                            </clipitem>
                            <clipitem frameBlend="FALSE" id="clipitem-774">
                                <media>
                                    <video>
                                        <samplecharacteristics>
                                            <height>720</height>
                                            <width>1270</width>
                                        </samplecharacteristics>
                                    </video>
                                </media>
                                <file id="file-1">
                                    <pathurl>/home/davidk/code/python/JC-render/JC-examples/yoga.mp4</pathurl>
                                    <name>yoga.mp4</name>
                                    <rate>
                                        <timebase>30</timebase>
                                        <ntsc>TRUE</ntsc>
                                    </rate>
                                    <duration>54922</duration>
                                    <timecode>
                                        <rate>
                                            <timebase>30</timebase>
                                            <ntsc>TRUE</ntsc>
                                        </rate>
                                        <string>00:00:00:00</string>
                                        <frame>0</frame>
                                        <displayformat>NDF</displayformat>
                                        <media>
                                            <video/>
                                            <audio/>
                                        </media>
                                    </timecode>
                                </file>
                                <name>/home/davidk/code/python/JC-render/JC-examples/yoga.mp4</name>
                                <rate>
                                    <timebase>30</timebase>
                                    <ntsc>TRUE</ntsc>
                                </rate>
                                <start>37445</start>
                                <end>37457</end>
                            </clipitem>
                            <clipitem frameBlend="FALSE" id="clipitem-775">
                                <media>
                                    <video>
                                        <samplecharacteristics>
                                            <height>720</height>
                                            <width>1270</width>
                                        </samplecharacteristics>
                                    </video>
                                </media>
                                <file id="file-1">
                                    <pathurl>/home/davidk/code/python/JC-render/JC-examples/yoga.mp4</pathurl>
                                    <name>yoga.mp4</name>
                                    <rate>
                                        <timebase>30</timebase>
                                        <ntsc>TRUE</ntsc>
                                    </rate>
                                    <duration>54922</duration>
                                    <timecode>
                                        <rate>
                                            <timebase>30</timebase>
                                            <ntsc>TRUE</ntsc>
                                        </rate>
                                        <string>00:00:00:00</string>
                                        <frame>0</frame>
                                        <displayformat>NDF</displayformat>
                                        <media>
                                            <video/>
                                            <audio/>
                                        </media>
                                    </timecode>
                                </file>
                                <name>/home/davidk/code/python/JC-render/JC-examples/yoga.mp4</name>
                                <rate>
                                    <timebase>30</timebase>
                                    <ntsc>TRUE</ntsc>
                                </rate>
                                <start>37457</start>
                                <end>37473</end>
                            </clipitem>
                            <clipitem frameBlend="FALSE" id="clipitem-776">
                                <media>
                                    <video>
                                        <samplecharacteristics>
                                            <height>720</height>
                                            <width>1270</width>
                                        </samplecharacteristics>
                                    </video>
                                </media>
                                <file id="file-1">
                                    <pathurl>/home/davidk/code/python/JC-render/JC-examples/yoga.mp4</pathurl>
                                    <name>yoga.mp4</name>
                                    <rate>
                                        <timebase>30</timebase>
                                        <ntsc>TRUE</ntsc>
                                    </rate>
                                    <duration>54922</duration>
                                    <timecode>
                                        <rate>
                                            <timebase>30</timebase>
                                            <ntsc>TRUE</ntsc>
                                        </rate>
                                        <string>00:00:00:00</string>
                                        <frame>0</frame>
                                        <displayformat>NDF</displayformat>
                                        <media>
                                            <video/>
                                            <audio/>
                                        </media>
                                    </timecode>
                                </file>
                                <name>/home/davidk/code/python/JC-render/JC-examples/yoga.mp4</name>
                                <rate>
                                    <timebase>30</timebase>
                                    <ntsc>TRUE</ntsc>
                                </rate>
                                <start>37473</start>
                                <end>37506</end>
                            </clipitem>
                            <clipitem frameBlend="FALSE" id="clipitem-777">
                                <media>
                                    <video>
                                        <samplecharacteristics>
                                            <height>720</height>
                                            <width>1270</width>
                                        </samplecharacteristics>
                                    </video>
                                </media>
                                <file id="file-1">
                                    <pathurl>/home/davidk/code/python/JC-render/JC-examples/yoga.mp4</pathurl>
                                    <name>yoga.mp4</name>
                                    <rate>
                                        <timebase>30</timebase>
                                        <ntsc>TRUE</ntsc>
                                    </rate>
                                    <duration>54922</duration>
                                    <timecode>
                                        <rate>
                                            <timebase>30</timebase>
                                            <ntsc>TRUE</ntsc>
                                        </rate>
                                        <string>00:00:00:00</string>
                                        <frame>0</frame>
                                        <displayformat>NDF</displayformat>
                                        <media>
                                            <video/>
                                            <audio/>
                                        </media>
                                    </timecode>
                                </file>
                                <name>/home/davidk/code/python/JC-render/JC-examples/yoga.mp4</name>
                                <rate>
                                    <timebase>30</timebase>
                                    <ntsc>TRUE</ntsc>
                                </rate>
                                <start>37506</start>
                                <end>37560</end>
                            </clipitem>
                            <clipitem frameBlend="FALSE" id="clipitem-778">
                                <media>
                                    <video>
                                        <samplecharacteristics>
                                            <height>720</height>
                                            <width>1270</width>
                                        </samplecharacteristics>
                                    </video>
                                </media>
                                <file id="file-1">
                                    <pathurl>/home/davidk/code/python/JC-render/JC-examples/yoga.mp4</pathurl>
                                    <name>yoga.mp4</name>
                                    <rate>
                                        <timebase>30</timebase>
                                        <ntsc>TRUE</ntsc>
                                    </rate>
                                    <duration>54922</duration>
                                    <timecode>
                                        <rate>
                                            <timebase>30</timebase>
                                            <ntsc>TRUE</ntsc>
                                        </rate>
                                        <string>00:00:00:00</string>
                                        <frame>0</frame>
                                        <displayformat>NDF</displayformat>
                                        <media>
                                            <video/>
                                            <audio/>
                                        </media>
                                    </timecode>
                                </file>
                                <name>/home/davidk/code/python/JC-render/JC-examples/yoga.mp4</name>
                                <rate>
                                    <timebase>30</timebase>
                                    <ntsc>TRUE</ntsc>
                                </rate>
                                <start>37560</start>
                                <end>37565</end>
                            </clipitem>
                            <clipitem frameBlend="FALSE" id="clipitem-779">
                                <media>
                                    <video>
                                        <samplecharacteristics>
                                            <height>720</height>
                                            <width>1270</width>
                                        </samplecharacteristics>
                                    </video>
                                </media>
                                <file id="file-1">
                                    <pathurl>/home/davidk/code/python/JC-render/JC-examples/yoga.mp4</pathurl>
                                    <name>yoga.mp4</name>
                                    <rate>
                                        <timebase>30</timebase>
                                        <ntsc>TRUE</ntsc>
                                    </rate>
                                    <duration>54922</duration>
                                    <timecode>
                                        <rate>
                                            <timebase>30</timebase>
                                            <ntsc>TRUE</ntsc>
                                        </rate>
                                        <string>00:00:00:00</string>
                                        <frame>0</frame>
                                        <displayformat>NDF</displayformat>
                                        <media>
                                            <video/>
                                            <audio/>
                                        </media>
                                    </timecode>
                                </file>
                                <name>/home/davidk/code/python/JC-render/JC-examples/yoga.mp4</name>
                                <rate>
                                    <timebase>30</timebase>
                                    <ntsc>TRUE</ntsc>
                                </rate>
                                <start>37565</start>
                                <end>37629</end>
                            </clipitem>
                            <clipitem frameBlend="FALSE" id="clipitem-780">
                                <media>
                                    <video>
                                        <samplecharacteristics>
                                            <height>720</height>
                                            <width>1270</width>
                                        </samplecharacteristics>
                                    </video>
                                </media>
                                <file id="file-1">
                                    <pathurl>/home/davidk/code/python/JC-render/JC-examples/yoga.mp4</pathurl>
                                    <name>yoga.mp4</name>
                                    <rate>
                                        <timebase>30</timebase>
                                        <ntsc>TRUE</ntsc>
                                    </rate>
                                    <duration>54922</duration>
                                    <timecode>
                                        <rate>
                                            <timebase>30</timebase>
                                            <ntsc>TRUE</ntsc>
                                        </rate>
                                        <string>00:00:00:00</string>
                                        <frame>0</frame>
                                        <displayformat>NDF</displayformat>
                                        <media>
                                            <video/>
                                            <audio/>
                                        </media>
                                    </timecode>
                                </file>
                                <name>/home/davidk/code/python/JC-render/JC-examples/yoga.mp4</name>
                                <rate>
                                    <timebase>30</timebase>
                                    <ntsc>TRUE</ntsc>
                                </rate>
                                <start>37629</start>
                                <end>37677</end>
                            </clipitem>
                            <clipitem frameBlend="FALSE" id="clipitem-781">
                                <media>
                                    <video>
                                        <samplecharacteristics>
                                            <height>720</height>
                                            <width>1270</width>
                                        </samplecharacteristics>
                                    </video>
                                </media>
                                <file id="file-1">
                                    <pathurl>/home/davidk/code/python/JC-render/JC-examples/yoga.mp4</pathurl>
                                    <name>yoga.mp4</name>
                                    <rate>
                                        <timebase>30</timebase>
                                        <ntsc>TRUE</ntsc>
                                    </rate>
                                    <duration>54922</duration>
                                    <timecode>
                                        <rate>
                                            <timebase>30</timebase>
                                            <ntsc>TRUE</ntsc>
                                        </rate>
                                        <string>00:00:00:00</string>
                                        <frame>0</frame>
                                        <displayformat>NDF</displayformat>
                                        <media>
                                            <video/>
                                            <audio/>
                                        </media>
                                    </timecode>
                                </file>
                                <name>/home/davidk/code/python/JC-render/JC-examples/yoga.mp4</name>
                                <rate>
                                    <timebase>30</timebase>
                                    <ntsc>TRUE</ntsc>
                                </rate>
                                <start>37677</start>
                                <end>37692</end>
                            </clipitem>
                            <clipitem frameBlend="FALSE" id="clipitem-782">
                                <media>
                                    <video>
                                        <samplecharacteristics>
                                            <height>720</height>
                                            <width>1270</width>
                                        </samplecharacteristics>
                                    </video>
                                </media>
                                <file id="file-1">
                                    <pathurl>/home/davidk/code/python/JC-render/JC-examples/yoga.mp4</pathurl>
                                    <name>yoga.mp4</name>
                                    <rate>
                                        <timebase>30</timebase>
                                        <ntsc>TRUE</ntsc>
                                    </rate>
                                    <duration>54922</duration>
                                    <timecode>
                                        <rate>
                                            <timebase>30</timebase>
                                            <ntsc>TRUE</ntsc>
                                        </rate>
                                        <string>00:00:00:00</string>
                                        <frame>0</frame>
                                        <displayformat>NDF</displayformat>
                                        <media>
                                            <video/>
                                            <audio/>
                                        </media>
                                    </timecode>
                                </file>
                                <name>/home/davidk/code/python/JC-render/JC-examples/yoga.mp4</name>
                                <rate>
                                    <timebase>30</timebase>
                                    <ntsc>TRUE</ntsc>
                                </rate>
                                <start>37692</start>
                                <end>37697</end>
                            </clipitem>
                            <clipitem frameBlend="FALSE" id="clipitem-783">
                                <media>
                                    <video>
                                        <samplecharacteristics>
                                            <height>720</height>
                                            <width>1270</width>
                                        </samplecharacteristics>
                                    </video>
                                </media>
                                <file id="file-1">
                                    <pathurl>/home/davidk/code/python/JC-render/JC-examples/yoga.mp4</pathurl>
                                    <name>yoga.mp4</name>
                                    <rate>
                                        <timebase>30</timebase>
                                        <ntsc>TRUE</ntsc>
                                    </rate>
                                    <duration>54922</duration>
                                    <timecode>
                                        <rate>
                                            <timebase>30</timebase>
                                            <ntsc>TRUE</ntsc>
                                        </rate>
                                        <string>00:00:00:00</string>
                                        <frame>0</frame>
                                        <displayformat>NDF</displayformat>
                                        <media>
                                            <video/>
                                            <audio/>
                                        </media>
                                    </timecode>
                                </file>
                                <name>/home/davidk/code/python/JC-render/JC-examples/yoga.mp4</name>
                                <rate>
                                    <timebase>30</timebase>
                                    <ntsc>TRUE</ntsc>
                                </rate>
                                <start>37697</start>
                                <end>37713</end>
                            </clipitem>
                            <clipitem frameBlend="FALSE" id="clipitem-784">
                                <media>
                                    <video>
                                        <samplecharacteristics>
                                            <height>720</height>
                                            <width>1270</width>
                                        </samplecharacteristics>
                                    </video>
                                </media>
                                <file id="file-1">
                                    <pathurl>/home/davidk/code/python/JC-render/JC-examples/yoga.mp4</pathurl>
                                    <name>yoga.mp4</name>
                                    <rate>
                                        <timebase>30</timebase>
                                        <ntsc>TRUE</ntsc>
                                    </rate>
                                    <duration>54922</duration>
                                    <timecode>
                                        <rate>
                                            <timebase>30</timebase>
                                            <ntsc>TRUE</ntsc>
                                        </rate>
                                        <string>00:00:00:00</string>
                                        <frame>0</frame>
                                        <displayformat>NDF</displayformat>
                                        <media>
                                            <video/>
                                            <audio/>
                                        </media>
                                    </timecode>
                                </file>
                                <name>/home/davidk/code/python/JC-render/JC-examples/yoga.mp4</name>
                                <rate>
                                    <timebase>30</timebase>
                                    <ntsc>TRUE</ntsc>
                                </rate>
                                <start>37713</start>
                                <end>37805</end>
                            </clipitem>
                            <clipitem frameBlend="FALSE" id="clipitem-785">
                                <media>
                                    <video>
                                        <samplecharacteristics>
                                            <height>720</height>
                                            <width>1270</width>
                                        </samplecharacteristics>
                                    </video>
                                </media>
                                <file id="file-1">
                                    <pathurl>/home/davidk/code/python/JC-render/JC-examples/yoga.mp4</pathurl>
                                    <name>yoga.mp4</name>
                                    <rate>
                                        <timebase>30</timebase>
                                        <ntsc>TRUE</ntsc>
                                    </rate>
                                    <duration>54922</duration>
                                    <timecode>
                                        <rate>
                                            <timebase>30</timebase>
                                            <ntsc>TRUE</ntsc>
                                        </rate>
                                        <string>00:00:00:00</string>
                                        <frame>0</frame>
                                        <displayformat>NDF</displayformat>
                                        <media>
                                            <video/>
                                            <audio/>
                                        </media>
                                    </timecode>
                                </file>
                                <name>/home/davidk/code/python/JC-render/JC-examples/yoga.mp4</name>
                                <rate>
                                    <timebase>30</timebase>
                                    <ntsc>TRUE</ntsc>
                                </rate>
                                <start>37805</start>
                                <end>37821</end>
                            </clipitem>
                            <clipitem frameBlend="FALSE" id="clipitem-786">
                                <media>
                                    <video>
                                        <samplecharacteristics>
                                            <height>720</height>
                                            <width>1270</width>
                                        </samplecharacteristics>
                                    </video>
                                </media>
                                <file id="file-1">
                                    <pathurl>/home/davidk/code/python/JC-render/JC-examples/yoga.mp4</pathurl>
                                    <name>yoga.mp4</name>
                                    <rate>
                                        <timebase>30</timebase>
                                        <ntsc>TRUE</ntsc>
                                    </rate>
                                    <duration>54922</duration>
                                    <timecode>
                                        <rate>
                                            <timebase>30</timebase>
                                            <ntsc>TRUE</ntsc>
                                        </rate>
                                        <string>00:00:00:00</string>
                                        <frame>0</frame>
                                        <displayformat>NDF</displayformat>
                                        <media>
                                            <video/>
                                            <audio/>
                                        </media>
                                    </timecode>
                                </file>
                                <name>/home/davidk/code/python/JC-render/JC-examples/yoga.mp4</name>
                                <rate>
                                    <timebase>30</timebase>
                                    <ntsc>TRUE</ntsc>
                                </rate>
                                <start>37821</start>
                                <end>37826</end>
                            </clipitem>
                            <clipitem frameBlend="FALSE" id="clipitem-787">
                                <media>
                                    <video>
                                        <samplecharacteristics>
                                            <height>720</height>
                                            <width>1270</width>
                                        </samplecharacteristics>
                                    </video>
                                </media>
                                <file id="file-1">
                                    <pathurl>/home/davidk/code/python/JC-render/JC-examples/yoga.mp4</pathurl>
                                    <name>yoga.mp4</name>
                                    <rate>
                                        <timebase>30</timebase>
                                        <ntsc>TRUE</ntsc>
                                    </rate>
                                    <duration>54922</duration>
                                    <timecode>
                                        <rate>
                                            <timebase>30</timebase>
                                            <ntsc>TRUE</ntsc>
                                        </rate>
                                        <string>00:00:00:00</string>
                                        <frame>0</frame>
                                        <displayformat>NDF</displayformat>
                                        <media>
                                            <video/>
                                            <audio/>
                                        </media>
                                    </timecode>
                                </file>
                                <name>/home/davidk/code/python/JC-render/JC-examples/yoga.mp4</name>
                                <rate>
                                    <timebase>30</timebase>
                                    <ntsc>TRUE</ntsc>
                                </rate>
                                <start>37826</start>
                                <end>37877</end>
                            </clipitem>
                            <clipitem frameBlend="FALSE" id="clipitem-788">
                                <media>
                                    <video>
                                        <samplecharacteristics>
                                            <height>720</height>
                                            <width>1270</width>
                                        </samplecharacteristics>
                                    </video>
                                </media>
                                <file id="file-1">
                                    <pathurl>/home/davidk/code/python/JC-render/JC-examples/yoga.mp4</pathurl>
                                    <name>yoga.mp4</name>
                                    <rate>
                                        <timebase>30</timebase>
                                        <ntsc>TRUE</ntsc>
                                    </rate>
                                    <duration>54922</duration>
                                    <timecode>
                                        <rate>
                                            <timebase>30</timebase>
                                            <ntsc>TRUE</ntsc>
                                        </rate>
                                        <string>00:00:00:00</string>
                                        <frame>0</frame>
                                        <displayformat>NDF</displayformat>
                                        <media>
                                            <video/>
                                            <audio/>
                                        </media>
                                    </timecode>
                                </file>
                                <name>/home/davidk/code/python/JC-render/JC-examples/yoga.mp4</name>
                                <rate>
                                    <timebase>30</timebase>
                                    <ntsc>TRUE</ntsc>
                                </rate>
                                <start>37877</start>
                                <end>37903</end>
                            </clipitem>
                            <clipitem frameBlend="FALSE" id="clipitem-789">
                                <media>
                                    <video>
                                        <samplecharacteristics>
                                            <height>720</height>
                                            <width>1270</width>
                                        </samplecharacteristics>
                                    </video>
                                </media>
                                <file id="file-1">
                                    <pathurl>/home/davidk/code/python/JC-render/JC-examples/yoga.mp4</pathurl>
                                    <name>yoga.mp4</name>
                                    <rate>
                                        <timebase>30</timebase>
                                        <ntsc>TRUE</ntsc>
                                    </rate>
                                    <duration>54922</duration>
                                    <timecode>
                                        <rate>
                                            <timebase>30</timebase>
                                            <ntsc>TRUE</ntsc>
                                        </rate>
                                        <string>00:00:00:00</string>
                                        <frame>0</frame>
                                        <displayformat>NDF</displayformat>
                                        <media>
                                            <video/>
                                            <audio/>
                                        </media>
                                    </timecode>
                                </file>
                                <name>/home/davidk/code/python/JC-render/JC-examples/yoga.mp4</name>
                                <rate>
                                    <timebase>30</timebase>
                                    <ntsc>TRUE</ntsc>
                                </rate>
                                <start>37903</start>
                                <end>38047</end>
                            </clipitem>
                            <clipitem frameBlend="FALSE" id="clipitem-790">
                                <media>
                                    <video>
                                        <samplecharacteristics>
                                            <height>720</height>
                                            <width>1270</width>
                                        </samplecharacteristics>
                                    </video>
                                </media>
                                <file id="file-1">
                                    <pathurl>/home/davidk/code/python/JC-render/JC-examples/yoga.mp4</pathurl>
                                    <name>yoga.mp4</name>
                                    <rate>
                                        <timebase>30</timebase>
                                        <ntsc>TRUE</ntsc>
                                    </rate>
                                    <duration>54922</duration>
                                    <timecode>
                                        <rate>
                                            <timebase>30</timebase>
                                            <ntsc>TRUE</ntsc>
                                        </rate>
                                        <string>00:00:00:00</string>
                                        <frame>0</frame>
                                        <displayformat>NDF</displayformat>
                                        <media>
                                            <video/>
                                            <audio/>
                                        </media>
                                    </timecode>
                                </file>
                                <name>/home/davidk/code/python/JC-render/JC-examples/yoga.mp4</name>
                                <rate>
                                    <timebase>30</timebase>
                                    <ntsc>TRUE</ntsc>
                                </rate>
                                <start>38047</start>
                                <end>38063</end>
                            </clipitem>
                            <clipitem frameBlend="FALSE" id="clipitem-791">
                                <media>
                                    <video>
                                        <samplecharacteristics>
                                            <height>720</height>
                                            <width>1270</width>
                                        </samplecharacteristics>
                                    </video>
                                </media>
                                <file id="file-1">
                                    <pathurl>/home/davidk/code/python/JC-render/JC-examples/yoga.mp4</pathurl>
                                    <name>yoga.mp4</name>
                                    <rate>
                                        <timebase>30</timebase>
                                        <ntsc>TRUE</ntsc>
                                    </rate>
                                    <duration>54922</duration>
                                    <timecode>
                                        <rate>
                                            <timebase>30</timebase>
                                            <ntsc>TRUE</ntsc>
                                        </rate>
                                        <string>00:00:00:00</string>
                                        <frame>0</frame>
                                        <displayformat>NDF</displayformat>
                                        <media>
                                            <video/>
                                            <audio/>
                                        </media>
                                    </timecode>
                                </file>
                                <name>/home/davidk/code/python/JC-render/JC-examples/yoga.mp4</name>
                                <rate>
                                    <timebase>30</timebase>
                                    <ntsc>TRUE</ntsc>
                                </rate>
                                <start>38063</start>
                                <end>38201</end>
                            </clipitem>
                            <clipitem frameBlend="FALSE" id="clipitem-792">
                                <media>
                                    <video>
                                        <samplecharacteristics>
                                            <height>720</height>
                                            <width>1270</width>
                                        </samplecharacteristics>
                                    </video>
                                </media>
                                <file id="file-1">
                                    <pathurl>/home/davidk/code/python/JC-render/JC-examples/yoga.mp4</pathurl>
                                    <name>yoga.mp4</name>
                                    <rate>
                                        <timebase>30</timebase>
                                        <ntsc>TRUE</ntsc>
                                    </rate>
                                    <duration>54922</duration>
                                    <timecode>
                                        <rate>
                                            <timebase>30</timebase>
                                            <ntsc>TRUE</ntsc>
                                        </rate>
                                        <string>00:00:00:00</string>
                                        <frame>0</frame>
                                        <displayformat>NDF</displayformat>
                                        <media>
                                            <video/>
                                            <audio/>
                                        </media>
                                    </timecode>
                                </file>
                                <name>/home/davidk/code/python/JC-render/JC-examples/yoga.mp4</name>
                                <rate>
                                    <timebase>30</timebase>
                                    <ntsc>TRUE</ntsc>
                                </rate>
                                <start>38201</start>
                                <end>38293</end>
                            </clipitem>
                            <clipitem frameBlend="FALSE" id="clipitem-793">
                                <media>
                                    <video>
                                        <samplecharacteristics>
                                            <height>720</height>
                                            <width>1270</width>
                                        </samplecharacteristics>
                                    </video>
                                </media>
                                <file id="file-1">
                                    <pathurl>/home/davidk/code/python/JC-render/JC-examples/yoga.mp4</pathurl>
                                    <name>yoga.mp4</name>
                                    <rate>
                                        <timebase>30</timebase>
                                        <ntsc>TRUE</ntsc>
                                    </rate>
                                    <duration>54922</duration>
                                    <timecode>
                                        <rate>
                                            <timebase>30</timebase>
                                            <ntsc>TRUE</ntsc>
                                        </rate>
                                        <string>00:00:00:00</string>
                                        <frame>0</frame>
                                        <displayformat>NDF</displayformat>
                                        <media>
                                            <video/>
                                            <audio/>
                                        </media>
                                    </timecode>
                                </file>
                                <name>/home/davidk/code/python/JC-render/JC-examples/yoga.mp4</name>
                                <rate>
                                    <timebase>30</timebase>
                                    <ntsc>TRUE</ntsc>
                                </rate>
                                <start>38293</start>
                                <end>38308</end>
                            </clipitem>
                            <clipitem frameBlend="FALSE" id="clipitem-794">
                                <media>
                                    <video>
                                        <samplecharacteristics>
                                            <height>720</height>
                                            <width>1270</width>
                                        </samplecharacteristics>
                                    </video>
                                </media>
                                <file id="file-1">
                                    <pathurl>/home/davidk/code/python/JC-render/JC-examples/yoga.mp4</pathurl>
                                    <name>yoga.mp4</name>
                                    <rate>
                                        <timebase>30</timebase>
                                        <ntsc>TRUE</ntsc>
                                    </rate>
                                    <duration>54922</duration>
                                    <timecode>
                                        <rate>
                                            <timebase>30</timebase>
                                            <ntsc>TRUE</ntsc>
                                        </rate>
                                        <string>00:00:00:00</string>
                                        <frame>0</frame>
                                        <displayformat>NDF</displayformat>
                                        <media>
                                            <video/>
                                            <audio/>
                                        </media>
                                    </timecode>
                                </file>
                                <name>/home/davidk/code/python/JC-render/JC-examples/yoga.mp4</name>
                                <rate>
                                    <timebase>30</timebase>
                                    <ntsc>TRUE</ntsc>
                                </rate>
                                <start>38308</start>
                                <end>38415</end>
                            </clipitem>
                            <clipitem frameBlend="FALSE" id="clipitem-795">
                                <media>
                                    <video>
                                        <samplecharacteristics>
                                            <height>720</height>
                                            <width>1270</width>
                                        </samplecharacteristics>
                                    </video>
                                </media>
                                <file id="file-1">
                                    <pathurl>/home/davidk/code/python/JC-render/JC-examples/yoga.mp4</pathurl>
                                    <name>yoga.mp4</name>
                                    <rate>
                                        <timebase>30</timebase>
                                        <ntsc>TRUE</ntsc>
                                    </rate>
                                    <duration>54922</duration>
                                    <timecode>
                                        <rate>
                                            <timebase>30</timebase>
                                            <ntsc>TRUE</ntsc>
                                        </rate>
                                        <string>00:00:00:00</string>
                                        <frame>0</frame>
                                        <displayformat>NDF</displayformat>
                                        <media>
                                            <video/>
                                            <audio/>
                                        </media>
                                    </timecode>
                                </file>
                                <name>/home/davidk/code/python/JC-render/JC-examples/yoga.mp4</name>
                                <rate>
                                    <timebase>30</timebase>
                                    <ntsc>TRUE</ntsc>
                                </rate>
                                <start>38415</start>
                                <end>38584</end>
                            </clipitem>
                            <clipitem frameBlend="FALSE" id="clipitem-796">
                                <media>
                                    <video>
                                        <samplecharacteristics>
                                            <height>720</height>
                                            <width>1270</width>
                                        </samplecharacteristics>
                                    </video>
                                </media>
                                <file id="file-1">
                                    <pathurl>/home/davidk/code/python/JC-render/JC-examples/yoga.mp4</pathurl>
                                    <name>yoga.mp4</name>
                                    <rate>
                                        <timebase>30</timebase>
                                        <ntsc>TRUE</ntsc>
                                    </rate>
                                    <duration>54922</duration>
                                    <timecode>
                                        <rate>
                                            <timebase>30</timebase>
                                            <ntsc>TRUE</ntsc>
                                        </rate>
                                        <string>00:00:00:00</string>
                                        <frame>0</frame>
                                        <displayformat>NDF</displayformat>
                                        <media>
                                            <video/>
                                            <audio/>
                                        </media>
                                    </timecode>
                                </file>
                                <name>/home/davidk/code/python/JC-render/JC-examples/yoga.mp4</name>
                                <rate>
                                    <timebase>30</timebase>
                                    <ntsc>TRUE</ntsc>
                                </rate>
                                <start>38584</start>
                                <end>38648</end>
                            </clipitem>
                            <clipitem frameBlend="FALSE" id="clipitem-797">
                                <media>
                                    <video>
                                        <samplecharacteristics>
                                            <height>720</height>
                                            <width>1270</width>
                                        </samplecharacteristics>
                                    </video>
                                </media>
                                <file id="file-1">
                                    <pathurl>/home/davidk/code/python/JC-render/JC-examples/yoga.mp4</pathurl>
                                    <name>yoga.mp4</name>
                                    <rate>
                                        <timebase>30</timebase>
                                        <ntsc>TRUE</ntsc>
                                    </rate>
                                    <duration>54922</duration>
                                    <timecode>
                                        <rate>
                                            <timebase>30</timebase>
                                            <ntsc>TRUE</ntsc>
                                        </rate>
                                        <string>00:00:00:00</string>
                                        <frame>0</frame>
                                        <displayformat>NDF</displayformat>
                                        <media>
                                            <video/>
                                            <audio/>
                                        </media>
                                    </timecode>
                                </file>
                                <name>/home/davidk/code/python/JC-render/JC-examples/yoga.mp4</name>
                                <rate>
                                    <timebase>30</timebase>
                                    <ntsc>TRUE</ntsc>
                                </rate>
                                <start>38648</start>
                                <end>38956</end>
                            </clipitem>
                            <clipitem frameBlend="FALSE" id="clipitem-798">
                                <media>
                                    <video>
                                        <samplecharacteristics>
                                            <height>720</height>
                                            <width>1270</width>
                                        </samplecharacteristics>
                                    </video>
                                </media>
                                <file id="file-1">
                                    <pathurl>/home/davidk/code/python/JC-render/JC-examples/yoga.mp4</pathurl>
                                    <name>yoga.mp4</name>
                                    <rate>
                                        <timebase>30</timebase>
                                        <ntsc>TRUE</ntsc>
                                    </rate>
                                    <duration>54922</duration>
                                    <timecode>
                                        <rate>
                                            <timebase>30</timebase>
                                            <ntsc>TRUE</ntsc>
                                        </rate>
                                        <string>00:00:00:00</string>
                                        <frame>0</frame>
                                        <displayformat>NDF</displayformat>
                                        <media>
                                            <video/>
                                            <audio/>
                                        </media>
                                    </timecode>
                                </file>
                                <name>/home/davidk/code/python/JC-render/JC-examples/yoga.mp4</name>
                                <rate>
                                    <timebase>30</timebase>
                                    <ntsc>TRUE</ntsc>
                                </rate>
                                <start>38956</start>
                                <end>38958</end>
                            </clipitem>
                            <clipitem frameBlend="FALSE" id="clipitem-799">
                                <media>
                                    <video>
                                        <samplecharacteristics>
                                            <height>720</height>
                                            <width>1270</width>
                                        </samplecharacteristics>
                                    </video>
                                </media>
                                <file id="file-1">
                                    <pathurl>/home/davidk/code/python/JC-render/JC-examples/yoga.mp4</pathurl>
                                    <name>yoga.mp4</name>
                                    <rate>
                                        <timebase>30</timebase>
                                        <ntsc>TRUE</ntsc>
                                    </rate>
                                    <duration>54922</duration>
                                    <timecode>
                                        <rate>
                                            <timebase>30</timebase>
                                            <ntsc>TRUE</ntsc>
                                        </rate>
                                        <string>00:00:00:00</string>
                                        <frame>0</frame>
                                        <displayformat>NDF</displayformat>
                                        <media>
                                            <video/>
                                            <audio/>
                                        </media>
                                    </timecode>
                                </file>
                                <name>/home/davidk/code/python/JC-render/JC-examples/yoga.mp4</name>
                                <rate>
                                    <timebase>30</timebase>
                                    <ntsc>TRUE</ntsc>
                                </rate>
                                <start>38958</start>
                                <end>39193</end>
                            </clipitem>
                            <clipitem frameBlend="FALSE" id="clipitem-800">
                                <media>
                                    <video>
                                        <samplecharacteristics>
                                            <height>720</height>
                                            <width>1270</width>
                                        </samplecharacteristics>
                                    </video>
                                </media>
                                <file id="file-1">
                                    <pathurl>/home/davidk/code/python/JC-render/JC-examples/yoga.mp4</pathurl>
                                    <name>yoga.mp4</name>
                                    <rate>
                                        <timebase>30</timebase>
                                        <ntsc>TRUE</ntsc>
                                    </rate>
                                    <duration>54922</duration>
                                    <timecode>
                                        <rate>
                                            <timebase>30</timebase>
                                            <ntsc>TRUE</ntsc>
                                        </rate>
                                        <string>00:00:00:00</string>
                                        <frame>0</frame>
                                        <displayformat>NDF</displayformat>
                                        <media>
                                            <video/>
                                            <audio/>
                                        </media>
                                    </timecode>
                                </file>
                                <name>/home/davidk/code/python/JC-render/JC-examples/yoga.mp4</name>
                                <rate>
                                    <timebase>30</timebase>
                                    <ntsc>TRUE</ntsc>
                                </rate>
                                <start>39193</start>
                                <end>39195</end>
                            </clipitem>
                            <clipitem frameBlend="FALSE" id="clipitem-801">
                                <media>
                                    <video>
                                        <samplecharacteristics>
                                            <height>720</height>
                                            <width>1270</width>
                                        </samplecharacteristics>
                                    </video>
                                </media>
                                <file id="file-1">
                                    <pathurl>/home/davidk/code/python/JC-render/JC-examples/yoga.mp4</pathurl>
                                    <name>yoga.mp4</name>
                                    <rate>
                                        <timebase>30</timebase>
                                        <ntsc>TRUE</ntsc>
                                    </rate>
                                    <duration>54922</duration>
                                    <timecode>
                                        <rate>
                                            <timebase>30</timebase>
                                            <ntsc>TRUE</ntsc>
                                        </rate>
                                        <string>00:00:00:00</string>
                                        <frame>0</frame>
                                        <displayformat>NDF</displayformat>
                                        <media>
                                            <video/>
                                            <audio/>
                                        </media>
                                    </timecode>
                                </file>
                                <name>/home/davidk/code/python/JC-render/JC-examples/yoga.mp4</name>
                                <rate>
                                    <timebase>30</timebase>
                                    <ntsc>TRUE</ntsc>
                                </rate>
                                <start>39195</start>
                                <end>39378</end>
                            </clipitem>
                            <clipitem frameBlend="FALSE" id="clipitem-802">
                                <media>
                                    <video>
                                        <samplecharacteristics>
                                            <height>720</height>
                                            <width>1270</width>
                                        </samplecharacteristics>
                                    </video>
                                </media>
                                <file id="file-1">
                                    <pathurl>/home/davidk/code/python/JC-render/JC-examples/yoga.mp4</pathurl>
                                    <name>yoga.mp4</name>
                                    <rate>
                                        <timebase>30</timebase>
                                        <ntsc>TRUE</ntsc>
                                    </rate>
                                    <duration>54922</duration>
                                    <timecode>
                                        <rate>
                                            <timebase>30</timebase>
                                            <ntsc>TRUE</ntsc>
                                        </rate>
                                        <string>00:00:00:00</string>
                                        <frame>0</frame>
                                        <displayformat>NDF</displayformat>
                                        <media>
                                            <video/>
                                            <audio/>
                                        </media>
                                    </timecode>
                                </file>
                                <name>/home/davidk/code/python/JC-render/JC-examples/yoga.mp4</name>
                                <rate>
                                    <timebase>30</timebase>
                                    <ntsc>TRUE</ntsc>
                                </rate>
                                <start>39378</start>
                                <end>39380</end>
                            </clipitem>
                            <clipitem frameBlend="FALSE" id="clipitem-803">
                                <media>
                                    <video>
                                        <samplecharacteristics>
                                            <height>720</height>
                                            <width>1270</width>
                                        </samplecharacteristics>
                                    </video>
                                </media>
                                <file id="file-1">
                                    <pathurl>/home/davidk/code/python/JC-render/JC-examples/yoga.mp4</pathurl>
                                    <name>yoga.mp4</name>
                                    <rate>
                                        <timebase>30</timebase>
                                        <ntsc>TRUE</ntsc>
                                    </rate>
                                    <duration>54922</duration>
                                    <timecode>
                                        <rate>
                                            <timebase>30</timebase>
                                            <ntsc>TRUE</ntsc>
                                        </rate>
                                        <string>00:00:00:00</string>
                                        <frame>0</frame>
                                        <displayformat>NDF</displayformat>
                                        <media>
                                            <video/>
                                            <audio/>
                                        </media>
                                    </timecode>
                                </file>
                                <name>/home/davidk/code/python/JC-render/JC-examples/yoga.mp4</name>
                                <rate>
                                    <timebase>30</timebase>
                                    <ntsc>TRUE</ntsc>
                                </rate>
                                <start>39380</start>
                                <end>39531</end>
                            </clipitem>
                            <clipitem frameBlend="FALSE" id="clipitem-804">
                                <media>
                                    <video>
                                        <samplecharacteristics>
                                            <height>720</height>
                                            <width>1270</width>
                                        </samplecharacteristics>
                                    </video>
                                </media>
                                <file id="file-1">
                                    <pathurl>/home/davidk/code/python/JC-render/JC-examples/yoga.mp4</pathurl>
                                    <name>yoga.mp4</name>
                                    <rate>
                                        <timebase>30</timebase>
                                        <ntsc>TRUE</ntsc>
                                    </rate>
                                    <duration>54922</duration>
                                    <timecode>
                                        <rate>
                                            <timebase>30</timebase>
                                            <ntsc>TRUE</ntsc>
                                        </rate>
                                        <string>00:00:00:00</string>
                                        <frame>0</frame>
                                        <displayformat>NDF</displayformat>
                                        <media>
                                            <video/>
                                            <audio/>
                                        </media>
                                    </timecode>
                                </file>
                                <name>/home/davidk/code/python/JC-render/JC-examples/yoga.mp4</name>
                                <rate>
                                    <timebase>30</timebase>
                                    <ntsc>TRUE</ntsc>
                                </rate>
                                <start>39531</start>
                                <end>39697</end>
                            </clipitem>
                            <clipitem frameBlend="FALSE" id="clipitem-805">
                                <media>
                                    <video>
                                        <samplecharacteristics>
                                            <height>720</height>
                                            <width>1270</width>
                                        </samplecharacteristics>
                                    </video>
                                </media>
                                <file id="file-1">
                                    <pathurl>/home/davidk/code/python/JC-render/JC-examples/yoga.mp4</pathurl>
                                    <name>yoga.mp4</name>
                                    <rate>
                                        <timebase>30</timebase>
                                        <ntsc>TRUE</ntsc>
                                    </rate>
                                    <duration>54922</duration>
                                    <timecode>
                                        <rate>
                                            <timebase>30</timebase>
                                            <ntsc>TRUE</ntsc>
                                        </rate>
                                        <string>00:00:00:00</string>
                                        <frame>0</frame>
                                        <displayformat>NDF</displayformat>
                                        <media>
                                            <video/>
                                            <audio/>
                                        </media>
                                    </timecode>
                                </file>
                                <name>/home/davidk/code/python/JC-render/JC-examples/yoga.mp4</name>
                                <rate>
                                    <timebase>30</timebase>
                                    <ntsc>TRUE</ntsc>
                                </rate>
                                <start>39697</start>
                                <end>39712</end>
                            </clipitem>
                            <clipitem frameBlend="FALSE" id="clipitem-806">
                                <media>
                                    <video>
                                        <samplecharacteristics>
                                            <height>720</height>
                                            <width>1270</width>
                                        </samplecharacteristics>
                                    </video>
                                </media>
                                <file id="file-1">
                                    <pathurl>/home/davidk/code/python/JC-render/JC-examples/yoga.mp4</pathurl>
                                    <name>yoga.mp4</name>
                                    <rate>
                                        <timebase>30</timebase>
                                        <ntsc>TRUE</ntsc>
                                    </rate>
                                    <duration>54922</duration>
                                    <timecode>
                                        <rate>
                                            <timebase>30</timebase>
                                            <ntsc>TRUE</ntsc>
                                        </rate>
                                        <string>00:00:00:00</string>
                                        <frame>0</frame>
                                        <displayformat>NDF</displayformat>
                                        <media>
                                            <video/>
                                            <audio/>
                                        </media>
                                    </timecode>
                                </file>
                                <name>/home/davidk/code/python/JC-render/JC-examples/yoga.mp4</name>
                                <rate>
                                    <timebase>30</timebase>
                                    <ntsc>TRUE</ntsc>
                                </rate>
                                <start>39712</start>
                                <end>39714</end>
                            </clipitem>
                            <clipitem frameBlend="FALSE" id="clipitem-807">
                                <media>
                                    <video>
                                        <samplecharacteristics>
                                            <height>720</height>
                                            <width>1270</width>
                                        </samplecharacteristics>
                                    </video>
                                </media>
                                <file id="file-1">
                                    <pathurl>/home/davidk/code/python/JC-render/JC-examples/yoga.mp4</pathurl>
                                    <name>yoga.mp4</name>
                                    <rate>
                                        <timebase>30</timebase>
                                        <ntsc>TRUE</ntsc>
                                    </rate>
                                    <duration>54922</duration>
                                    <timecode>
                                        <rate>
                                            <timebase>30</timebase>
                                            <ntsc>TRUE</ntsc>
                                        </rate>
                                        <string>00:00:00:00</string>
                                        <frame>0</frame>
                                        <displayformat>NDF</displayformat>
                                        <media>
                                            <video/>
                                            <audio/>
                                        </media>
                                    </timecode>
                                </file>
                                <name>/home/davidk/code/python/JC-render/JC-examples/yoga.mp4</name>
                                <rate>
                                    <timebase>30</timebase>
                                    <ntsc>TRUE</ntsc>
                                </rate>
                                <start>39714</start>
                                <end>39820</end>
                            </clipitem>
                            <clipitem frameBlend="FALSE" id="clipitem-808">
                                <media>
                                    <video>
                                        <samplecharacteristics>
                                            <height>720</height>
                                            <width>1270</width>
                                        </samplecharacteristics>
                                    </video>
                                </media>
                                <file id="file-1">
                                    <pathurl>/home/davidk/code/python/JC-render/JC-examples/yoga.mp4</pathurl>
                                    <name>yoga.mp4</name>
                                    <rate>
                                        <timebase>30</timebase>
                                        <ntsc>TRUE</ntsc>
                                    </rate>
                                    <duration>54922</duration>
                                    <timecode>
                                        <rate>
                                            <timebase>30</timebase>
                                            <ntsc>TRUE</ntsc>
                                        </rate>
                                        <string>00:00:00:00</string>
                                        <frame>0</frame>
                                        <displayformat>NDF</displayformat>
                                        <media>
                                            <video/>
                                            <audio/>
                                        </media>
                                    </timecode>
                                </file>
                                <name>/home/davidk/code/python/JC-render/JC-examples/yoga.mp4</name>
                                <rate>
                                    <timebase>30</timebase>
                                    <ntsc>TRUE</ntsc>
                                </rate>
                                <start>39820</start>
                                <end>39923</end>
                            </clipitem>
                            <clipitem frameBlend="FALSE" id="clipitem-809">
                                <media>
                                    <video>
                                        <samplecharacteristics>
                                            <height>720</height>
                                            <width>1270</width>
                                        </samplecharacteristics>
                                    </video>
                                </media>
                                <file id="file-1">
                                    <pathurl>/home/davidk/code/python/JC-render/JC-examples/yoga.mp4</pathurl>
                                    <name>yoga.mp4</name>
                                    <rate>
                                        <timebase>30</timebase>
                                        <ntsc>TRUE</ntsc>
                                    </rate>
                                    <duration>54922</duration>
                                    <timecode>
                                        <rate>
                                            <timebase>30</timebase>
                                            <ntsc>TRUE</ntsc>
                                        </rate>
                                        <string>00:00:00:00</string>
                                        <frame>0</frame>
                                        <displayformat>NDF</displayformat>
                                        <media>
                                            <video/>
                                            <audio/>
                                        </media>
                                    </timecode>
                                </file>
                                <name>/home/davidk/code/python/JC-render/JC-examples/yoga.mp4</name>
                                <rate>
                                    <timebase>30</timebase>
                                    <ntsc>TRUE</ntsc>
                                </rate>
                                <start>39923</start>
                                <end>40019</end>
                            </clipitem>
                            <clipitem frameBlend="FALSE" id="clipitem-810">
                                <media>
                                    <video>
                                        <samplecharacteristics>
                                            <height>720</height>
                                            <width>1270</width>
                                        </samplecharacteristics>
                                    </video>
                                </media>
                                <file id="file-1">
                                    <pathurl>/home/davidk/code/python/JC-render/JC-examples/yoga.mp4</pathurl>
                                    <name>yoga.mp4</name>
                                    <rate>
                                        <timebase>30</timebase>
                                        <ntsc>TRUE</ntsc>
                                    </rate>
                                    <duration>54922</duration>
                                    <timecode>
                                        <rate>
                                            <timebase>30</timebase>
                                            <ntsc>TRUE</ntsc>
                                        </rate>
                                        <string>00:00:00:00</string>
                                        <frame>0</frame>
                                        <displayformat>NDF</displayformat>
                                        <media>
                                            <video/>
                                            <audio/>
                                        </media>
                                    </timecode>
                                </file>
                                <name>/home/davidk/code/python/JC-render/JC-examples/yoga.mp4</name>
                                <rate>
                                    <timebase>30</timebase>
                                    <ntsc>TRUE</ntsc>
                                </rate>
                                <start>40019</start>
                                <end>40024</end>
                            </clipitem>
                            <clipitem frameBlend="FALSE" id="clipitem-811">
                                <media>
                                    <video>
                                        <samplecharacteristics>
                                            <height>720</height>
                                            <width>1270</width>
                                        </samplecharacteristics>
                                    </video>
                                </media>
                                <file id="file-1">
                                    <pathurl>/home/davidk/code/python/JC-render/JC-examples/yoga.mp4</pathurl>
                                    <name>yoga.mp4</name>
                                    <rate>
                                        <timebase>30</timebase>
                                        <ntsc>TRUE</ntsc>
                                    </rate>
                                    <duration>54922</duration>
                                    <timecode>
                                        <rate>
                                            <timebase>30</timebase>
                                            <ntsc>TRUE</ntsc>
                                        </rate>
                                        <string>00:00:00:00</string>
                                        <frame>0</frame>
                                        <displayformat>NDF</displayformat>
                                        <media>
                                            <video/>
                                            <audio/>
                                        </media>
                                    </timecode>
                                </file>
                                <name>/home/davidk/code/python/JC-render/JC-examples/yoga.mp4</name>
                                <rate>
                                    <timebase>30</timebase>
                                    <ntsc>TRUE</ntsc>
                                </rate>
                                <start>40024</start>
                                <end>40196</end>
                            </clipitem>
                            <clipitem frameBlend="FALSE" id="clipitem-812">
                                <media>
                                    <video>
                                        <samplecharacteristics>
                                            <height>720</height>
                                            <width>1270</width>
                                        </samplecharacteristics>
                                    </video>
                                </media>
                                <file id="file-1">
                                    <pathurl>/home/davidk/code/python/JC-render/JC-examples/yoga.mp4</pathurl>
                                    <name>yoga.mp4</name>
                                    <rate>
                                        <timebase>30</timebase>
                                        <ntsc>TRUE</ntsc>
                                    </rate>
                                    <duration>54922</duration>
                                    <timecode>
                                        <rate>
                                            <timebase>30</timebase>
                                            <ntsc>TRUE</ntsc>
                                        </rate>
                                        <string>00:00:00:00</string>
                                        <frame>0</frame>
                                        <displayformat>NDF</displayformat>
                                        <media>
                                            <video/>
                                            <audio/>
                                        </media>
                                    </timecode>
                                </file>
                                <name>/home/davidk/code/python/JC-render/JC-examples/yoga.mp4</name>
                                <rate>
                                    <timebase>30</timebase>
                                    <ntsc>TRUE</ntsc>
                                </rate>
                                <start>40196</start>
                                <end>40205</end>
                            </clipitem>
                            <clipitem frameBlend="FALSE" id="clipitem-813">
                                <media>
                                    <video>
                                        <samplecharacteristics>
                                            <height>720</height>
                                            <width>1270</width>
                                        </samplecharacteristics>
                                    </video>
                                </media>
                                <file id="file-1">
                                    <pathurl>/home/davidk/code/python/JC-render/JC-examples/yoga.mp4</pathurl>
                                    <name>yoga.mp4</name>
                                    <rate>
                                        <timebase>30</timebase>
                                        <ntsc>TRUE</ntsc>
                                    </rate>
                                    <duration>54922</duration>
                                    <timecode>
                                        <rate>
                                            <timebase>30</timebase>
                                            <ntsc>TRUE</ntsc>
                                        </rate>
                                        <string>00:00:00:00</string>
                                        <frame>0</frame>
                                        <displayformat>NDF</displayformat>
                                        <media>
                                            <video/>
                                            <audio/>
                                        </media>
                                    </timecode>
                                </file>
                                <name>/home/davidk/code/python/JC-render/JC-examples/yoga.mp4</name>
                                <rate>
                                    <timebase>30</timebase>
                                    <ntsc>TRUE</ntsc>
                                </rate>
                                <start>40205</start>
                                <end>40395</end>
                            </clipitem>
                            <clipitem frameBlend="FALSE" id="clipitem-814">
                                <media>
                                    <video>
                                        <samplecharacteristics>
                                            <height>720</height>
                                            <width>1270</width>
                                        </samplecharacteristics>
                                    </video>
                                </media>
                                <file id="file-1">
                                    <pathurl>/home/davidk/code/python/JC-render/JC-examples/yoga.mp4</pathurl>
                                    <name>yoga.mp4</name>
                                    <rate>
                                        <timebase>30</timebase>
                                        <ntsc>TRUE</ntsc>
                                    </rate>
                                    <duration>54922</duration>
                                    <timecode>
                                        <rate>
                                            <timebase>30</timebase>
                                            <ntsc>TRUE</ntsc>
                                        </rate>
                                        <string>00:00:00:00</string>
                                        <frame>0</frame>
                                        <displayformat>NDF</displayformat>
                                        <media>
                                            <video/>
                                            <audio/>
                                        </media>
                                    </timecode>
                                </file>
                                <name>/home/davidk/code/python/JC-render/JC-examples/yoga.mp4</name>
                                <rate>
                                    <timebase>30</timebase>
                                    <ntsc>TRUE</ntsc>
                                </rate>
                                <start>40395</start>
                                <end>40397</end>
                            </clipitem>
                            <clipitem frameBlend="FALSE" id="clipitem-815">
                                <media>
                                    <video>
                                        <samplecharacteristics>
                                            <height>720</height>
                                            <width>1270</width>
                                        </samplecharacteristics>
                                    </video>
                                </media>
                                <file id="file-1">
                                    <pathurl>/home/davidk/code/python/JC-render/JC-examples/yoga.mp4</pathurl>
                                    <name>yoga.mp4</name>
                                    <rate>
                                        <timebase>30</timebase>
                                        <ntsc>TRUE</ntsc>
                                    </rate>
                                    <duration>54922</duration>
                                    <timecode>
                                        <rate>
                                            <timebase>30</timebase>
                                            <ntsc>TRUE</ntsc>
                                        </rate>
                                        <string>00:00:00:00</string>
                                        <frame>0</frame>
                                        <displayformat>NDF</displayformat>
                                        <media>
                                            <video/>
                                            <audio/>
                                        </media>
                                    </timecode>
                                </file>
                                <name>/home/davidk/code/python/JC-render/JC-examples/yoga.mp4</name>
                                <rate>
                                    <timebase>30</timebase>
                                    <ntsc>TRUE</ntsc>
                                </rate>
                                <start>40397</start>
                                <end>40412</end>
                            </clipitem>
                            <clipitem frameBlend="FALSE" id="clipitem-816">
                                <media>
                                    <video>
                                        <samplecharacteristics>
                                            <height>720</height>
                                            <width>1270</width>
                                        </samplecharacteristics>
                                    </video>
                                </media>
                                <file id="file-1">
                                    <pathurl>/home/davidk/code/python/JC-render/JC-examples/yoga.mp4</pathurl>
                                    <name>yoga.mp4</name>
                                    <rate>
                                        <timebase>30</timebase>
                                        <ntsc>TRUE</ntsc>
                                    </rate>
                                    <duration>54922</duration>
                                    <timecode>
                                        <rate>
                                            <timebase>30</timebase>
                                            <ntsc>TRUE</ntsc>
                                        </rate>
                                        <string>00:00:00:00</string>
                                        <frame>0</frame>
                                        <displayformat>NDF</displayformat>
                                        <media>
                                            <video/>
                                            <audio/>
                                        </media>
                                    </timecode>
                                </file>
                                <name>/home/davidk/code/python/JC-render/JC-examples/yoga.mp4</name>
                                <rate>
                                    <timebase>30</timebase>
                                    <ntsc>TRUE</ntsc>
                                </rate>
                                <start>40412</start>
                                <end>40452</end>
                            </clipitem>
                            <clipitem frameBlend="FALSE" id="clipitem-817">
                                <media>
                                    <video>
                                        <samplecharacteristics>
                                            <height>720</height>
                                            <width>1270</width>
                                        </samplecharacteristics>
                                    </video>
                                </media>
                                <file id="file-1">
                                    <pathurl>/home/davidk/code/python/JC-render/JC-examples/yoga.mp4</pathurl>
                                    <name>yoga.mp4</name>
                                    <rate>
                                        <timebase>30</timebase>
                                        <ntsc>TRUE</ntsc>
                                    </rate>
                                    <duration>54922</duration>
                                    <timecode>
                                        <rate>
                                            <timebase>30</timebase>
                                            <ntsc>TRUE</ntsc>
                                        </rate>
                                        <string>00:00:00:00</string>
                                        <frame>0</frame>
                                        <displayformat>NDF</displayformat>
                                        <media>
                                            <video/>
                                            <audio/>
                                        </media>
                                    </timecode>
                                </file>
                                <name>/home/davidk/code/python/JC-render/JC-examples/yoga.mp4</name>
                                <rate>
                                    <timebase>30</timebase>
                                    <ntsc>TRUE</ntsc>
                                </rate>
                                <start>40452</start>
                                <end>40468</end>
                            </clipitem>
                            <clipitem frameBlend="FALSE" id="clipitem-818">
                                <media>
                                    <video>
                                        <samplecharacteristics>
                                            <height>720</height>
                                            <width>1270</width>
                                        </samplecharacteristics>
                                    </video>
                                </media>
                                <file id="file-1">
                                    <pathurl>/home/davidk/code/python/JC-render/JC-examples/yoga.mp4</pathurl>
                                    <name>yoga.mp4</name>
                                    <rate>
                                        <timebase>30</timebase>
                                        <ntsc>TRUE</ntsc>
                                    </rate>
                                    <duration>54922</duration>
                                    <timecode>
                                        <rate>
                                            <timebase>30</timebase>
                                            <ntsc>TRUE</ntsc>
                                        </rate>
                                        <string>00:00:00:00</string>
                                        <frame>0</frame>
                                        <displayformat>NDF</displayformat>
                                        <media>
                                            <video/>
                                            <audio/>
                                        </media>
                                    </timecode>
                                </file>
                                <name>/home/davidk/code/python/JC-render/JC-examples/yoga.mp4</name>
                                <rate>
                                    <timebase>30</timebase>
                                    <ntsc>TRUE</ntsc>
                                </rate>
                                <start>40468</start>
                                <end>40505</end>
                            </clipitem>
                            <clipitem frameBlend="FALSE" id="clipitem-819">
                                <media>
                                    <video>
                                        <samplecharacteristics>
                                            <height>720</height>
                                            <width>1270</width>
                                        </samplecharacteristics>
                                    </video>
                                </media>
                                <file id="file-1">
                                    <pathurl>/home/davidk/code/python/JC-render/JC-examples/yoga.mp4</pathurl>
                                    <name>yoga.mp4</name>
                                    <rate>
                                        <timebase>30</timebase>
                                        <ntsc>TRUE</ntsc>
                                    </rate>
                                    <duration>54922</duration>
                                    <timecode>
                                        <rate>
                                            <timebase>30</timebase>
                                            <ntsc>TRUE</ntsc>
                                        </rate>
                                        <string>00:00:00:00</string>
                                        <frame>0</frame>
                                        <displayformat>NDF</displayformat>
                                        <media>
                                            <video/>
                                            <audio/>
                                        </media>
                                    </timecode>
                                </file>
                                <name>/home/davidk/code/python/JC-render/JC-examples/yoga.mp4</name>
                                <rate>
                                    <timebase>30</timebase>
                                    <ntsc>TRUE</ntsc>
                                </rate>
                                <start>40505</start>
                                <end>40520</end>
                            </clipitem>
                            <clipitem frameBlend="FALSE" id="clipitem-820">
                                <media>
                                    <video>
                                        <samplecharacteristics>
                                            <height>720</height>
                                            <width>1270</width>
                                        </samplecharacteristics>
                                    </video>
                                </media>
                                <file id="file-1">
                                    <pathurl>/home/davidk/code/python/JC-render/JC-examples/yoga.mp4</pathurl>
                                    <name>yoga.mp4</name>
                                    <rate>
                                        <timebase>30</timebase>
                                        <ntsc>TRUE</ntsc>
                                    </rate>
                                    <duration>54922</duration>
                                    <timecode>
                                        <rate>
                                            <timebase>30</timebase>
                                            <ntsc>TRUE</ntsc>
                                        </rate>
                                        <string>00:00:00:00</string>
                                        <frame>0</frame>
                                        <displayformat>NDF</displayformat>
                                        <media>
                                            <video/>
                                            <audio/>
                                        </media>
                                    </timecode>
                                </file>
                                <name>/home/davidk/code/python/JC-render/JC-examples/yoga.mp4</name>
                                <rate>
                                    <timebase>30</timebase>
                                    <ntsc>TRUE</ntsc>
                                </rate>
                                <start>40520</start>
                                <end>40585</end>
                            </clipitem>
                            <clipitem frameBlend="FALSE" id="clipitem-821">
                                <media>
                                    <video>
                                        <samplecharacteristics>
                                            <height>720</height>
                                            <width>1270</width>
                                        </samplecharacteristics>
                                    </video>
                                </media>
                                <file id="file-1">
                                    <pathurl>/home/davidk/code/python/JC-render/JC-examples/yoga.mp4</pathurl>
                                    <name>yoga.mp4</name>
                                    <rate>
                                        <timebase>30</timebase>
                                        <ntsc>TRUE</ntsc>
                                    </rate>
                                    <duration>54922</duration>
                                    <timecode>
                                        <rate>
                                            <timebase>30</timebase>
                                            <ntsc>TRUE</ntsc>
                                        </rate>
                                        <string>00:00:00:00</string>
                                        <frame>0</frame>
                                        <displayformat>NDF</displayformat>
                                        <media>
                                            <video/>
                                            <audio/>
                                        </media>
                                    </timecode>
                                </file>
                                <name>/home/davidk/code/python/JC-render/JC-examples/yoga.mp4</name>
                                <rate>
                                    <timebase>30</timebase>
                                    <ntsc>TRUE</ntsc>
                                </rate>
                                <start>40585</start>
                                <end>40600</end>
                            </clipitem>
                            <clipitem frameBlend="FALSE" id="clipitem-822">
                                <media>
                                    <video>
                                        <samplecharacteristics>
                                            <height>720</height>
                                            <width>1270</width>
                                        </samplecharacteristics>
                                    </video>
                                </media>
                                <file id="file-1">
                                    <pathurl>/home/davidk/code/python/JC-render/JC-examples/yoga.mp4</pathurl>
                                    <name>yoga.mp4</name>
                                    <rate>
                                        <timebase>30</timebase>
                                        <ntsc>TRUE</ntsc>
                                    </rate>
                                    <duration>54922</duration>
                                    <timecode>
                                        <rate>
                                            <timebase>30</timebase>
                                            <ntsc>TRUE</ntsc>
                                        </rate>
                                        <string>00:00:00:00</string>
                                        <frame>0</frame>
                                        <displayformat>NDF</displayformat>
                                        <media>
                                            <video/>
                                            <audio/>
                                        </media>
                                    </timecode>
                                </file>
                                <name>/home/davidk/code/python/JC-render/JC-examples/yoga.mp4</name>
                                <rate>
                                    <timebase>30</timebase>
                                    <ntsc>TRUE</ntsc>
                                </rate>
                                <start>40600</start>
                                <end>40658</end>
                            </clipitem>
                            <clipitem frameBlend="FALSE" id="clipitem-823">
                                <media>
                                    <video>
                                        <samplecharacteristics>
                                            <height>720</height>
                                            <width>1270</width>
                                        </samplecharacteristics>
                                    </video>
                                </media>
                                <file id="file-1">
                                    <pathurl>/home/davidk/code/python/JC-render/JC-examples/yoga.mp4</pathurl>
                                    <name>yoga.mp4</name>
                                    <rate>
                                        <timebase>30</timebase>
                                        <ntsc>TRUE</ntsc>
                                    </rate>
                                    <duration>54922</duration>
                                    <timecode>
                                        <rate>
                                            <timebase>30</timebase>
                                            <ntsc>TRUE</ntsc>
                                        </rate>
                                        <string>00:00:00:00</string>
                                        <frame>0</frame>
                                        <displayformat>NDF</displayformat>
                                        <media>
                                            <video/>
                                            <audio/>
                                        </media>
                                    </timecode>
                                </file>
                                <name>/home/davidk/code/python/JC-render/JC-examples/yoga.mp4</name>
                                <rate>
                                    <timebase>30</timebase>
                                    <ntsc>TRUE</ntsc>
                                </rate>
                                <start>40658</start>
                                <end>40705</end>
                            </clipitem>
                            <clipitem frameBlend="FALSE" id="clipitem-824">
                                <media>
                                    <video>
                                        <samplecharacteristics>
                                            <height>720</height>
                                            <width>1270</width>
                                        </samplecharacteristics>
                                    </video>
                                </media>
                                <file id="file-1">
                                    <pathurl>/home/davidk/code/python/JC-render/JC-examples/yoga.mp4</pathurl>
                                    <name>yoga.mp4</name>
                                    <rate>
                                        <timebase>30</timebase>
                                        <ntsc>TRUE</ntsc>
                                    </rate>
                                    <duration>54922</duration>
                                    <timecode>
                                        <rate>
                                            <timebase>30</timebase>
                                            <ntsc>TRUE</ntsc>
                                        </rate>
                                        <string>00:00:00:00</string>
                                        <frame>0</frame>
                                        <displayformat>NDF</displayformat>
                                        <media>
                                            <video/>
                                            <audio/>
                                        </media>
                                    </timecode>
                                </file>
                                <name>/home/davidk/code/python/JC-render/JC-examples/yoga.mp4</name>
                                <rate>
                                    <timebase>30</timebase>
                                    <ntsc>TRUE</ntsc>
                                </rate>
                                <start>40705</start>
                                <end>40724</end>
                            </clipitem>
                            <clipitem frameBlend="FALSE" id="clipitem-825">
                                <media>
                                    <video>
                                        <samplecharacteristics>
                                            <height>720</height>
                                            <width>1270</width>
                                        </samplecharacteristics>
                                    </video>
                                </media>
                                <file id="file-1">
                                    <pathurl>/home/davidk/code/python/JC-render/JC-examples/yoga.mp4</pathurl>
                                    <name>yoga.mp4</name>
                                    <rate>
                                        <timebase>30</timebase>
                                        <ntsc>TRUE</ntsc>
                                    </rate>
                                    <duration>54922</duration>
                                    <timecode>
                                        <rate>
                                            <timebase>30</timebase>
                                            <ntsc>TRUE</ntsc>
                                        </rate>
                                        <string>00:00:00:00</string>
                                        <frame>0</frame>
                                        <displayformat>NDF</displayformat>
                                        <media>
                                            <video/>
                                            <audio/>
                                        </media>
                                    </timecode>
                                </file>
                                <name>/home/davidk/code/python/JC-render/JC-examples/yoga.mp4</name>
                                <rate>
                                    <timebase>30</timebase>
                                    <ntsc>TRUE</ntsc>
                                </rate>
                                <start>40724</start>
                                <end>40795</end>
                            </clipitem>
                            <clipitem frameBlend="FALSE" id="clipitem-826">
                                <media>
                                    <video>
                                        <samplecharacteristics>
                                            <height>720</height>
                                            <width>1270</width>
                                        </samplecharacteristics>
                                    </video>
                                </media>
                                <file id="file-1">
                                    <pathurl>/home/davidk/code/python/JC-render/JC-examples/yoga.mp4</pathurl>
                                    <name>yoga.mp4</name>
                                    <rate>
                                        <timebase>30</timebase>
                                        <ntsc>TRUE</ntsc>
                                    </rate>
                                    <duration>54922</duration>
                                    <timecode>
                                        <rate>
                                            <timebase>30</timebase>
                                            <ntsc>TRUE</ntsc>
                                        </rate>
                                        <string>00:00:00:00</string>
                                        <frame>0</frame>
                                        <displayformat>NDF</displayformat>
                                        <media>
                                            <video/>
                                            <audio/>
                                        </media>
                                    </timecode>
                                </file>
                                <name>/home/davidk/code/python/JC-render/JC-examples/yoga.mp4</name>
                                <rate>
                                    <timebase>30</timebase>
                                    <ntsc>TRUE</ntsc>
                                </rate>
                                <start>40795</start>
                                <end>40884</end>
                            </clipitem>
                            <clipitem frameBlend="FALSE" id="clipitem-827">
                                <media>
                                    <video>
                                        <samplecharacteristics>
                                            <height>720</height>
                                            <width>1270</width>
                                        </samplecharacteristics>
                                    </video>
                                </media>
                                <file id="file-1">
                                    <pathurl>/home/davidk/code/python/JC-render/JC-examples/yoga.mp4</pathurl>
                                    <name>yoga.mp4</name>
                                    <rate>
                                        <timebase>30</timebase>
                                        <ntsc>TRUE</ntsc>
                                    </rate>
                                    <duration>54922</duration>
                                    <timecode>
                                        <rate>
                                            <timebase>30</timebase>
                                            <ntsc>TRUE</ntsc>
                                        </rate>
                                        <string>00:00:00:00</string>
                                        <frame>0</frame>
                                        <displayformat>NDF</displayformat>
                                        <media>
                                            <video/>
                                            <audio/>
                                        </media>
                                    </timecode>
                                </file>
                                <name>/home/davidk/code/python/JC-render/JC-examples/yoga.mp4</name>
                                <rate>
                                    <timebase>30</timebase>
                                    <ntsc>TRUE</ntsc>
                                </rate>
                                <start>40884</start>
                                <end>41018</end>
                            </clipitem>
                            <clipitem frameBlend="FALSE" id="clipitem-828">
                                <media>
                                    <video>
                                        <samplecharacteristics>
                                            <height>720</height>
                                            <width>1270</width>
                                        </samplecharacteristics>
                                    </video>
                                </media>
                                <file id="file-1">
                                    <pathurl>/home/davidk/code/python/JC-render/JC-examples/yoga.mp4</pathurl>
                                    <name>yoga.mp4</name>
                                    <rate>
                                        <timebase>30</timebase>
                                        <ntsc>TRUE</ntsc>
                                    </rate>
                                    <duration>54922</duration>
                                    <timecode>
                                        <rate>
                                            <timebase>30</timebase>
                                            <ntsc>TRUE</ntsc>
                                        </rate>
                                        <string>00:00:00:00</string>
                                        <frame>0</frame>
                                        <displayformat>NDF</displayformat>
                                        <media>
                                            <video/>
                                            <audio/>
                                        </media>
                                    </timecode>
                                </file>
                                <name>/home/davidk/code/python/JC-render/JC-examples/yoga.mp4</name>
                                <rate>
                                    <timebase>30</timebase>
                                    <ntsc>TRUE</ntsc>
                                </rate>
                                <start>41018</start>
                                <end>41027</end>
                            </clipitem>
                            <clipitem frameBlend="FALSE" id="clipitem-829">
                                <media>
                                    <video>
                                        <samplecharacteristics>
                                            <height>720</height>
                                            <width>1270</width>
                                        </samplecharacteristics>
                                    </video>
                                </media>
                                <file id="file-1">
                                    <pathurl>/home/davidk/code/python/JC-render/JC-examples/yoga.mp4</pathurl>
                                    <name>yoga.mp4</name>
                                    <rate>
                                        <timebase>30</timebase>
                                        <ntsc>TRUE</ntsc>
                                    </rate>
                                    <duration>54922</duration>
                                    <timecode>
                                        <rate>
                                            <timebase>30</timebase>
                                            <ntsc>TRUE</ntsc>
                                        </rate>
                                        <string>00:00:00:00</string>
                                        <frame>0</frame>
                                        <displayformat>NDF</displayformat>
                                        <media>
                                            <video/>
                                            <audio/>
                                        </media>
                                    </timecode>
                                </file>
                                <name>/home/davidk/code/python/JC-render/JC-examples/yoga.mp4</name>
                                <rate>
                                    <timebase>30</timebase>
                                    <ntsc>TRUE</ntsc>
                                </rate>
                                <start>41027</start>
                                <end>41095</end>
                            </clipitem>
                            <clipitem frameBlend="FALSE" id="clipitem-830">
                                <media>
                                    <video>
                                        <samplecharacteristics>
                                            <height>720</height>
                                            <width>1270</width>
                                        </samplecharacteristics>
                                    </video>
                                </media>
                                <file id="file-1">
                                    <pathurl>/home/davidk/code/python/JC-render/JC-examples/yoga.mp4</pathurl>
                                    <name>yoga.mp4</name>
                                    <rate>
                                        <timebase>30</timebase>
                                        <ntsc>TRUE</ntsc>
                                    </rate>
                                    <duration>54922</duration>
                                    <timecode>
                                        <rate>
                                            <timebase>30</timebase>
                                            <ntsc>TRUE</ntsc>
                                        </rate>
                                        <string>00:00:00:00</string>
                                        <frame>0</frame>
                                        <displayformat>NDF</displayformat>
                                        <media>
                                            <video/>
                                            <audio/>
                                        </media>
                                    </timecode>
                                </file>
                                <name>/home/davidk/code/python/JC-render/JC-examples/yoga.mp4</name>
                                <rate>
                                    <timebase>30</timebase>
                                    <ntsc>TRUE</ntsc>
                                </rate>
                                <start>41095</start>
                                <end>41132</end>
                            </clipitem>
                            <clipitem frameBlend="FALSE" id="clipitem-831">
                                <media>
                                    <video>
                                        <samplecharacteristics>
                                            <height>720</height>
                                            <width>1270</width>
                                        </samplecharacteristics>
                                    </video>
                                </media>
                                <file id="file-1">
                                    <pathurl>/home/davidk/code/python/JC-render/JC-examples/yoga.mp4</pathurl>
                                    <name>yoga.mp4</name>
                                    <rate>
                                        <timebase>30</timebase>
                                        <ntsc>TRUE</ntsc>
                                    </rate>
                                    <duration>54922</duration>
                                    <timecode>
                                        <rate>
                                            <timebase>30</timebase>
                                            <ntsc>TRUE</ntsc>
                                        </rate>
                                        <string>00:00:00:00</string>
                                        <frame>0</frame>
                                        <displayformat>NDF</displayformat>
                                        <media>
                                            <video/>
                                            <audio/>
                                        </media>
                                    </timecode>
                                </file>
                                <name>/home/davidk/code/python/JC-render/JC-examples/yoga.mp4</name>
                                <rate>
                                    <timebase>30</timebase>
                                    <ntsc>TRUE</ntsc>
                                </rate>
                                <start>41132</start>
                                <end>41196</end>
                            </clipitem>
                            <clipitem frameBlend="FALSE" id="clipitem-832">
                                <media>
                                    <video>
                                        <samplecharacteristics>
                                            <height>720</height>
                                            <width>1270</width>
                                        </samplecharacteristics>
                                    </video>
                                </media>
                                <file id="file-1">
                                    <pathurl>/home/davidk/code/python/JC-render/JC-examples/yoga.mp4</pathurl>
                                    <name>yoga.mp4</name>
                                    <rate>
                                        <timebase>30</timebase>
                                        <ntsc>TRUE</ntsc>
                                    </rate>
                                    <duration>54922</duration>
                                    <timecode>
                                        <rate>
                                            <timebase>30</timebase>
                                            <ntsc>TRUE</ntsc>
                                        </rate>
                                        <string>00:00:00:00</string>
                                        <frame>0</frame>
                                        <displayformat>NDF</displayformat>
                                        <media>
                                            <video/>
                                            <audio/>
                                        </media>
                                    </timecode>
                                </file>
                                <name>/home/davidk/code/python/JC-render/JC-examples/yoga.mp4</name>
                                <rate>
                                    <timebase>30</timebase>
                                    <ntsc>TRUE</ntsc>
                                </rate>
                                <start>41196</start>
                                <end>41212</end>
                            </clipitem>
                            <clipitem frameBlend="FALSE" id="clipitem-833">
                                <media>
                                    <video>
                                        <samplecharacteristics>
                                            <height>720</height>
                                            <width>1270</width>
                                        </samplecharacteristics>
                                    </video>
                                </media>
                                <file id="file-1">
                                    <pathurl>/home/davidk/code/python/JC-render/JC-examples/yoga.mp4</pathurl>
                                    <name>yoga.mp4</name>
                                    <rate>
                                        <timebase>30</timebase>
                                        <ntsc>TRUE</ntsc>
                                    </rate>
                                    <duration>54922</duration>
                                    <timecode>
                                        <rate>
                                            <timebase>30</timebase>
                                            <ntsc>TRUE</ntsc>
                                        </rate>
                                        <string>00:00:00:00</string>
                                        <frame>0</frame>
                                        <displayformat>NDF</displayformat>
                                        <media>
                                            <video/>
                                            <audio/>
                                        </media>
                                    </timecode>
                                </file>
                                <name>/home/davidk/code/python/JC-render/JC-examples/yoga.mp4</name>
                                <rate>
                                    <timebase>30</timebase>
                                    <ntsc>TRUE</ntsc>
                                </rate>
                                <start>41212</start>
                                <end>41328</end>
                            </clipitem>
                            <clipitem frameBlend="FALSE" id="clipitem-834">
                                <media>
                                    <video>
                                        <samplecharacteristics>
                                            <height>720</height>
                                            <width>1270</width>
                                        </samplecharacteristics>
                                    </video>
                                </media>
                                <file id="file-1">
                                    <pathurl>/home/davidk/code/python/JC-render/JC-examples/yoga.mp4</pathurl>
                                    <name>yoga.mp4</name>
                                    <rate>
                                        <timebase>30</timebase>
                                        <ntsc>TRUE</ntsc>
                                    </rate>
                                    <duration>54922</duration>
                                    <timecode>
                                        <rate>
                                            <timebase>30</timebase>
                                            <ntsc>TRUE</ntsc>
                                        </rate>
                                        <string>00:00:00:00</string>
                                        <frame>0</frame>
                                        <displayformat>NDF</displayformat>
                                        <media>
                                            <video/>
                                            <audio/>
                                        </media>
                                    </timecode>
                                </file>
                                <name>/home/davidk/code/python/JC-render/JC-examples/yoga.mp4</name>
                                <rate>
                                    <timebase>30</timebase>
                                    <ntsc>TRUE</ntsc>
                                </rate>
                                <start>41328</start>
                                <end>41348</end>
                            </clipitem>
                            <clipitem frameBlend="FALSE" id="clipitem-835">
                                <media>
                                    <video>
                                        <samplecharacteristics>
                                            <height>720</height>
                                            <width>1270</width>
                                        </samplecharacteristics>
                                    </video>
                                </media>
                                <file id="file-1">
                                    <pathurl>/home/davidk/code/python/JC-render/JC-examples/yoga.mp4</pathurl>
                                    <name>yoga.mp4</name>
                                    <rate>
                                        <timebase>30</timebase>
                                        <ntsc>TRUE</ntsc>
                                    </rate>
                                    <duration>54922</duration>
                                    <timecode>
                                        <rate>
                                            <timebase>30</timebase>
                                            <ntsc>TRUE</ntsc>
                                        </rate>
                                        <string>00:00:00:00</string>
                                        <frame>0</frame>
                                        <displayformat>NDF</displayformat>
                                        <media>
                                            <video/>
                                            <audio/>
                                        </media>
                                    </timecode>
                                </file>
                                <name>/home/davidk/code/python/JC-render/JC-examples/yoga.mp4</name>
                                <rate>
                                    <timebase>30</timebase>
                                    <ntsc>TRUE</ntsc>
                                </rate>
                                <start>41348</start>
                                <end>41387</end>
                            </clipitem>
                            <clipitem frameBlend="FALSE" id="clipitem-836">
                                <media>
                                    <video>
                                        <samplecharacteristics>
                                            <height>720</height>
                                            <width>1270</width>
                                        </samplecharacteristics>
                                    </video>
                                </media>
                                <file id="file-1">
                                    <pathurl>/home/davidk/code/python/JC-render/JC-examples/yoga.mp4</pathurl>
                                    <name>yoga.mp4</name>
                                    <rate>
                                        <timebase>30</timebase>
                                        <ntsc>TRUE</ntsc>
                                    </rate>
                                    <duration>54922</duration>
                                    <timecode>
                                        <rate>
                                            <timebase>30</timebase>
                                            <ntsc>TRUE</ntsc>
                                        </rate>
                                        <string>00:00:00:00</string>
                                        <frame>0</frame>
                                        <displayformat>NDF</displayformat>
                                        <media>
                                            <video/>
                                            <audio/>
                                        </media>
                                    </timecode>
                                </file>
                                <name>/home/davidk/code/python/JC-render/JC-examples/yoga.mp4</name>
                                <rate>
                                    <timebase>30</timebase>
                                    <ntsc>TRUE</ntsc>
                                </rate>
                                <start>41387</start>
                                <end>41407</end>
                            </clipitem>
                            <clipitem frameBlend="FALSE" id="clipitem-837">
                                <media>
                                    <video>
                                        <samplecharacteristics>
                                            <height>720</height>
                                            <width>1270</width>
                                        </samplecharacteristics>
                                    </video>
                                </media>
                                <file id="file-1">
                                    <pathurl>/home/davidk/code/python/JC-render/JC-examples/yoga.mp4</pathurl>
                                    <name>yoga.mp4</name>
                                    <rate>
                                        <timebase>30</timebase>
                                        <ntsc>TRUE</ntsc>
                                    </rate>
                                    <duration>54922</duration>
                                    <timecode>
                                        <rate>
                                            <timebase>30</timebase>
                                            <ntsc>TRUE</ntsc>
                                        </rate>
                                        <string>00:00:00:00</string>
                                        <frame>0</frame>
                                        <displayformat>NDF</displayformat>
                                        <media>
                                            <video/>
                                            <audio/>
                                        </media>
                                    </timecode>
                                </file>
                                <name>/home/davidk/code/python/JC-render/JC-examples/yoga.mp4</name>
                                <rate>
                                    <timebase>30</timebase>
                                    <ntsc>TRUE</ntsc>
                                </rate>
                                <start>41407</start>
                                <end>41429</end>
                            </clipitem>
                            <clipitem frameBlend="FALSE" id="clipitem-838">
                                <media>
                                    <video>
                                        <samplecharacteristics>
                                            <height>720</height>
                                            <width>1270</width>
                                        </samplecharacteristics>
                                    </video>
                                </media>
                                <file id="file-1">
                                    <pathurl>/home/davidk/code/python/JC-render/JC-examples/yoga.mp4</pathurl>
                                    <name>yoga.mp4</name>
                                    <rate>
                                        <timebase>30</timebase>
                                        <ntsc>TRUE</ntsc>
                                    </rate>
                                    <duration>54922</duration>
                                    <timecode>
                                        <rate>
                                            <timebase>30</timebase>
                                            <ntsc>TRUE</ntsc>
                                        </rate>
                                        <string>00:00:00:00</string>
                                        <frame>0</frame>
                                        <displayformat>NDF</displayformat>
                                        <media>
                                            <video/>
                                            <audio/>
                                        </media>
                                    </timecode>
                                </file>
                                <name>/home/davidk/code/python/JC-render/JC-examples/yoga.mp4</name>
                                <rate>
                                    <timebase>30</timebase>
                                    <ntsc>TRUE</ntsc>
                                </rate>
                                <start>41429</start>
                                <end>41431</end>
                            </clipitem>
                            <clipitem frameBlend="FALSE" id="clipitem-839">
                                <media>
                                    <video>
                                        <samplecharacteristics>
                                            <height>720</height>
                                            <width>1270</width>
                                        </samplecharacteristics>
                                    </video>
                                </media>
                                <file id="file-1">
                                    <pathurl>/home/davidk/code/python/JC-render/JC-examples/yoga.mp4</pathurl>
                                    <name>yoga.mp4</name>
                                    <rate>
                                        <timebase>30</timebase>
                                        <ntsc>TRUE</ntsc>
                                    </rate>
                                    <duration>54922</duration>
                                    <timecode>
                                        <rate>
                                            <timebase>30</timebase>
                                            <ntsc>TRUE</ntsc>
                                        </rate>
                                        <string>00:00:00:00</string>
                                        <frame>0</frame>
                                        <displayformat>NDF</displayformat>
                                        <media>
                                            <video/>
                                            <audio/>
                                        </media>
                                    </timecode>
                                </file>
                                <name>/home/davidk/code/python/JC-render/JC-examples/yoga.mp4</name>
                                <rate>
                                    <timebase>30</timebase>
                                    <ntsc>TRUE</ntsc>
                                </rate>
                                <start>41431</start>
                                <end>41450</end>
                            </clipitem>
                            <clipitem frameBlend="FALSE" id="clipitem-840">
                                <media>
                                    <video>
                                        <samplecharacteristics>
                                            <height>720</height>
                                            <width>1270</width>
                                        </samplecharacteristics>
                                    </video>
                                </media>
                                <file id="file-1">
                                    <pathurl>/home/davidk/code/python/JC-render/JC-examples/yoga.mp4</pathurl>
                                    <name>yoga.mp4</name>
                                    <rate>
                                        <timebase>30</timebase>
                                        <ntsc>TRUE</ntsc>
                                    </rate>
                                    <duration>54922</duration>
                                    <timecode>
                                        <rate>
                                            <timebase>30</timebase>
                                            <ntsc>TRUE</ntsc>
                                        </rate>
                                        <string>00:00:00:00</string>
                                        <frame>0</frame>
                                        <displayformat>NDF</displayformat>
                                        <media>
                                            <video/>
                                            <audio/>
                                        </media>
                                    </timecode>
                                </file>
                                <name>/home/davidk/code/python/JC-render/JC-examples/yoga.mp4</name>
                                <rate>
                                    <timebase>30</timebase>
                                    <ntsc>TRUE</ntsc>
                                </rate>
                                <start>41450</start>
                                <end>41975</end>
                            </clipitem>
                            <clipitem frameBlend="FALSE" id="clipitem-841">
                                <media>
                                    <video>
                                        <samplecharacteristics>
                                            <height>720</height>
                                            <width>1270</width>
                                        </samplecharacteristics>
                                    </video>
                                </media>
                                <file id="file-1">
                                    <pathurl>/home/davidk/code/python/JC-render/JC-examples/yoga.mp4</pathurl>
                                    <name>yoga.mp4</name>
                                    <rate>
                                        <timebase>30</timebase>
                                        <ntsc>TRUE</ntsc>
                                    </rate>
                                    <duration>54922</duration>
                                    <timecode>
                                        <rate>
                                            <timebase>30</timebase>
                                            <ntsc>TRUE</ntsc>
                                        </rate>
                                        <string>00:00:00:00</string>
                                        <frame>0</frame>
                                        <displayformat>NDF</displayformat>
                                        <media>
                                            <video/>
                                            <audio/>
                                        </media>
                                    </timecode>
                                </file>
                                <name>/home/davidk/code/python/JC-render/JC-examples/yoga.mp4</name>
                                <rate>
                                    <timebase>30</timebase>
                                    <ntsc>TRUE</ntsc>
                                </rate>
                                <start>41975</start>
                                <end>42018</end>
                            </clipitem>
                            <clipitem frameBlend="FALSE" id="clipitem-842">
                                <media>
                                    <video>
                                        <samplecharacteristics>
                                            <height>720</height>
                                            <width>1270</width>
                                        </samplecharacteristics>
                                    </video>
                                </media>
                                <file id="file-1">
                                    <pathurl>/home/davidk/code/python/JC-render/JC-examples/yoga.mp4</pathurl>
                                    <name>yoga.mp4</name>
                                    <rate>
                                        <timebase>30</timebase>
                                        <ntsc>TRUE</ntsc>
                                    </rate>
                                    <duration>54922</duration>
                                    <timecode>
                                        <rate>
                                            <timebase>30</timebase>
                                            <ntsc>TRUE</ntsc>
                                        </rate>
                                        <string>00:00:00:00</string>
                                        <frame>0</frame>
                                        <displayformat>NDF</displayformat>
                                        <media>
                                            <video/>
                                            <audio/>
                                        </media>
                                    </timecode>
                                </file>
                                <name>/home/davidk/code/python/JC-render/JC-examples/yoga.mp4</name>
                                <rate>
                                    <timebase>30</timebase>
                                    <ntsc>TRUE</ntsc>
                                </rate>
                                <start>42018</start>
                                <end>42034</end>
                            </clipitem>
                            <clipitem frameBlend="FALSE" id="clipitem-843">
                                <media>
                                    <video>
                                        <samplecharacteristics>
                                            <height>720</height>
                                            <width>1270</width>
                                        </samplecharacteristics>
                                    </video>
                                </media>
                                <file id="file-1">
                                    <pathurl>/home/davidk/code/python/JC-render/JC-examples/yoga.mp4</pathurl>
                                    <name>yoga.mp4</name>
                                    <rate>
                                        <timebase>30</timebase>
                                        <ntsc>TRUE</ntsc>
                                    </rate>
                                    <duration>54922</duration>
                                    <timecode>
                                        <rate>
                                            <timebase>30</timebase>
                                            <ntsc>TRUE</ntsc>
                                        </rate>
                                        <string>00:00:00:00</string>
                                        <frame>0</frame>
                                        <displayformat>NDF</displayformat>
                                        <media>
                                            <video/>
                                            <audio/>
                                        </media>
                                    </timecode>
                                </file>
                                <name>/home/davidk/code/python/JC-render/JC-examples/yoga.mp4</name>
                                <rate>
                                    <timebase>30</timebase>
                                    <ntsc>TRUE</ntsc>
                                </rate>
                                <start>42034</start>
                                <end>42115</end>
                            </clipitem>
                            <clipitem frameBlend="FALSE" id="clipitem-844">
                                <media>
                                    <video>
                                        <samplecharacteristics>
                                            <height>720</height>
                                            <width>1270</width>
                                        </samplecharacteristics>
                                    </video>
                                </media>
                                <file id="file-1">
                                    <pathurl>/home/davidk/code/python/JC-render/JC-examples/yoga.mp4</pathurl>
                                    <name>yoga.mp4</name>
                                    <rate>
                                        <timebase>30</timebase>
                                        <ntsc>TRUE</ntsc>
                                    </rate>
                                    <duration>54922</duration>
                                    <timecode>
                                        <rate>
                                            <timebase>30</timebase>
                                            <ntsc>TRUE</ntsc>
                                        </rate>
                                        <string>00:00:00:00</string>
                                        <frame>0</frame>
                                        <displayformat>NDF</displayformat>
                                        <media>
                                            <video/>
                                            <audio/>
                                        </media>
                                    </timecode>
                                </file>
                                <name>/home/davidk/code/python/JC-render/JC-examples/yoga.mp4</name>
                                <rate>
                                    <timebase>30</timebase>
                                    <ntsc>TRUE</ntsc>
                                </rate>
                                <start>42115</start>
                                <end>42121</end>
                            </clipitem>
                            <clipitem frameBlend="FALSE" id="clipitem-845">
                                <media>
                                    <video>
                                        <samplecharacteristics>
                                            <height>720</height>
                                            <width>1270</width>
                                        </samplecharacteristics>
                                    </video>
                                </media>
                                <file id="file-1">
                                    <pathurl>/home/davidk/code/python/JC-render/JC-examples/yoga.mp4</pathurl>
                                    <name>yoga.mp4</name>
                                    <rate>
                                        <timebase>30</timebase>
                                        <ntsc>TRUE</ntsc>
                                    </rate>
                                    <duration>54922</duration>
                                    <timecode>
                                        <rate>
                                            <timebase>30</timebase>
                                            <ntsc>TRUE</ntsc>
                                        </rate>
                                        <string>00:00:00:00</string>
                                        <frame>0</frame>
                                        <displayformat>NDF</displayformat>
                                        <media>
                                            <video/>
                                            <audio/>
                                        </media>
                                    </timecode>
                                </file>
                                <name>/home/davidk/code/python/JC-render/JC-examples/yoga.mp4</name>
                                <rate>
                                    <timebase>30</timebase>
                                    <ntsc>TRUE</ntsc>
                                </rate>
                                <start>42121</start>
                                <end>42136</end>
                            </clipitem>
                            <clipitem frameBlend="FALSE" id="clipitem-846">
                                <media>
                                    <video>
                                        <samplecharacteristics>
                                            <height>720</height>
                                            <width>1270</width>
                                        </samplecharacteristics>
                                    </video>
                                </media>
                                <file id="file-1">
                                    <pathurl>/home/davidk/code/python/JC-render/JC-examples/yoga.mp4</pathurl>
                                    <name>yoga.mp4</name>
                                    <rate>
                                        <timebase>30</timebase>
                                        <ntsc>TRUE</ntsc>
                                    </rate>
                                    <duration>54922</duration>
                                    <timecode>
                                        <rate>
                                            <timebase>30</timebase>
                                            <ntsc>TRUE</ntsc>
                                        </rate>
                                        <string>00:00:00:00</string>
                                        <frame>0</frame>
                                        <displayformat>NDF</displayformat>
                                        <media>
                                            <video/>
                                            <audio/>
                                        </media>
                                    </timecode>
                                </file>
                                <name>/home/davidk/code/python/JC-render/JC-examples/yoga.mp4</name>
                                <rate>
                                    <timebase>30</timebase>
                                    <ntsc>TRUE</ntsc>
                                </rate>
                                <start>42136</start>
                                <end>42152</end>
                            </clipitem>
                            <clipitem frameBlend="FALSE" id="clipitem-847">
                                <media>
                                    <video>
                                        <samplecharacteristics>
                                            <height>720</height>
                                            <width>1270</width>
                                        </samplecharacteristics>
                                    </video>
                                </media>
                                <file id="file-1">
                                    <pathurl>/home/davidk/code/python/JC-render/JC-examples/yoga.mp4</pathurl>
                                    <name>yoga.mp4</name>
                                    <rate>
                                        <timebase>30</timebase>
                                        <ntsc>TRUE</ntsc>
                                    </rate>
                                    <duration>54922</duration>
                                    <timecode>
                                        <rate>
                                            <timebase>30</timebase>
                                            <ntsc>TRUE</ntsc>
                                        </rate>
                                        <string>00:00:00:00</string>
                                        <frame>0</frame>
                                        <displayformat>NDF</displayformat>
                                        <media>
                                            <video/>
                                            <audio/>
                                        </media>
                                    </timecode>
                                </file>
                                <name>/home/davidk/code/python/JC-render/JC-examples/yoga.mp4</name>
                                <rate>
                                    <timebase>30</timebase>
                                    <ntsc>TRUE</ntsc>
                                </rate>
                                <start>42152</start>
                                <end>42209</end>
                            </clipitem>
                            <clipitem frameBlend="FALSE" id="clipitem-848">
                                <media>
                                    <video>
                                        <samplecharacteristics>
                                            <height>720</height>
                                            <width>1270</width>
                                        </samplecharacteristics>
                                    </video>
                                </media>
                                <file id="file-1">
                                    <pathurl>/home/davidk/code/python/JC-render/JC-examples/yoga.mp4</pathurl>
                                    <name>yoga.mp4</name>
                                    <rate>
                                        <timebase>30</timebase>
                                        <ntsc>TRUE</ntsc>
                                    </rate>
                                    <duration>54922</duration>
                                    <timecode>
                                        <rate>
                                            <timebase>30</timebase>
                                            <ntsc>TRUE</ntsc>
                                        </rate>
                                        <string>00:00:00:00</string>
                                        <frame>0</frame>
                                        <displayformat>NDF</displayformat>
                                        <media>
                                            <video/>
                                            <audio/>
                                        </media>
                                    </timecode>
                                </file>
                                <name>/home/davidk/code/python/JC-render/JC-examples/yoga.mp4</name>
                                <rate>
                                    <timebase>30</timebase>
                                    <ntsc>TRUE</ntsc>
                                </rate>
                                <start>42209</start>
                                <end>42218</end>
                            </clipitem>
                            <clipitem frameBlend="FALSE" id="clipitem-849">
                                <media>
                                    <video>
                                        <samplecharacteristics>
                                            <height>720</height>
                                            <width>1270</width>
                                        </samplecharacteristics>
                                    </video>
                                </media>
                                <file id="file-1">
                                    <pathurl>/home/davidk/code/python/JC-render/JC-examples/yoga.mp4</pathurl>
                                    <name>yoga.mp4</name>
                                    <rate>
                                        <timebase>30</timebase>
                                        <ntsc>TRUE</ntsc>
                                    </rate>
                                    <duration>54922</duration>
                                    <timecode>
                                        <rate>
                                            <timebase>30</timebase>
                                            <ntsc>TRUE</ntsc>
                                        </rate>
                                        <string>00:00:00:00</string>
                                        <frame>0</frame>
                                        <displayformat>NDF</displayformat>
                                        <media>
                                            <video/>
                                            <audio/>
                                        </media>
                                    </timecode>
                                </file>
                                <name>/home/davidk/code/python/JC-render/JC-examples/yoga.mp4</name>
                                <rate>
                                    <timebase>30</timebase>
                                    <ntsc>TRUE</ntsc>
                                </rate>
                                <start>42218</start>
                                <end>42272</end>
                            </clipitem>
                            <clipitem frameBlend="FALSE" id="clipitem-850">
                                <media>
                                    <video>
                                        <samplecharacteristics>
                                            <height>720</height>
                                            <width>1270</width>
                                        </samplecharacteristics>
                                    </video>
                                </media>
                                <file id="file-1">
                                    <pathurl>/home/davidk/code/python/JC-render/JC-examples/yoga.mp4</pathurl>
                                    <name>yoga.mp4</name>
                                    <rate>
                                        <timebase>30</timebase>
                                        <ntsc>TRUE</ntsc>
                                    </rate>
                                    <duration>54922</duration>
                                    <timecode>
                                        <rate>
                                            <timebase>30</timebase>
                                            <ntsc>TRUE</ntsc>
                                        </rate>
                                        <string>00:00:00:00</string>
                                        <frame>0</frame>
                                        <displayformat>NDF</displayformat>
                                        <media>
                                            <video/>
                                            <audio/>
                                        </media>
                                    </timecode>
                                </file>
                                <name>/home/davidk/code/python/JC-render/JC-examples/yoga.mp4</name>
                                <rate>
                                    <timebase>30</timebase>
                                    <ntsc>TRUE</ntsc>
                                </rate>
                                <start>42272</start>
                                <end>42347</end>
                            </clipitem>
                            <clipitem frameBlend="FALSE" id="clipitem-851">
                                <media>
                                    <video>
                                        <samplecharacteristics>
                                            <height>720</height>
                                            <width>1270</width>
                                        </samplecharacteristics>
                                    </video>
                                </media>
                                <file id="file-1">
                                    <pathurl>/home/davidk/code/python/JC-render/JC-examples/yoga.mp4</pathurl>
                                    <name>yoga.mp4</name>
                                    <rate>
                                        <timebase>30</timebase>
                                        <ntsc>TRUE</ntsc>
                                    </rate>
                                    <duration>54922</duration>
                                    <timecode>
                                        <rate>
                                            <timebase>30</timebase>
                                            <ntsc>TRUE</ntsc>
                                        </rate>
                                        <string>00:00:00:00</string>
                                        <frame>0</frame>
                                        <displayformat>NDF</displayformat>
                                        <media>
                                            <video/>
                                            <audio/>
                                        </media>
                                    </timecode>
                                </file>
                                <name>/home/davidk/code/python/JC-render/JC-examples/yoga.mp4</name>
                                <rate>
                                    <timebase>30</timebase>
                                    <ntsc>TRUE</ntsc>
                                </rate>
                                <start>42347</start>
                                <end>42377</end>
                            </clipitem>
                            <clipitem frameBlend="FALSE" id="clipitem-852">
                                <media>
                                    <video>
                                        <samplecharacteristics>
                                            <height>720</height>
                                            <width>1270</width>
                                        </samplecharacteristics>
                                    </video>
                                </media>
                                <file id="file-1">
                                    <pathurl>/home/davidk/code/python/JC-render/JC-examples/yoga.mp4</pathurl>
                                    <name>yoga.mp4</name>
                                    <rate>
                                        <timebase>30</timebase>
                                        <ntsc>TRUE</ntsc>
                                    </rate>
                                    <duration>54922</duration>
                                    <timecode>
                                        <rate>
                                            <timebase>30</timebase>
                                            <ntsc>TRUE</ntsc>
                                        </rate>
                                        <string>00:00:00:00</string>
                                        <frame>0</frame>
                                        <displayformat>NDF</displayformat>
                                        <media>
                                            <video/>
                                            <audio/>
                                        </media>
                                    </timecode>
                                </file>
                                <name>/home/davidk/code/python/JC-render/JC-examples/yoga.mp4</name>
                                <rate>
                                    <timebase>30</timebase>
                                    <ntsc>TRUE</ntsc>
                                </rate>
                                <start>42377</start>
                                <end>42410</end>
                            </clipitem>
                            <clipitem frameBlend="FALSE" id="clipitem-853">
                                <media>
                                    <video>
                                        <samplecharacteristics>
                                            <height>720</height>
                                            <width>1270</width>
                                        </samplecharacteristics>
                                    </video>
                                </media>
                                <file id="file-1">
                                    <pathurl>/home/davidk/code/python/JC-render/JC-examples/yoga.mp4</pathurl>
                                    <name>yoga.mp4</name>
                                    <rate>
                                        <timebase>30</timebase>
                                        <ntsc>TRUE</ntsc>
                                    </rate>
                                    <duration>54922</duration>
                                    <timecode>
                                        <rate>
                                            <timebase>30</timebase>
                                            <ntsc>TRUE</ntsc>
                                        </rate>
                                        <string>00:00:00:00</string>
                                        <frame>0</frame>
                                        <displayformat>NDF</displayformat>
                                        <media>
                                            <video/>
                                            <audio/>
                                        </media>
                                    </timecode>
                                </file>
                                <name>/home/davidk/code/python/JC-render/JC-examples/yoga.mp4</name>
                                <rate>
                                    <timebase>30</timebase>
                                    <ntsc>TRUE</ntsc>
                                </rate>
                                <start>42410</start>
                                <end>42457</end>
                            </clipitem>
                            <clipitem frameBlend="FALSE" id="clipitem-854">
                                <media>
                                    <video>
                                        <samplecharacteristics>
                                            <height>720</height>
                                            <width>1270</width>
                                        </samplecharacteristics>
                                    </video>
                                </media>
                                <file id="file-1">
                                    <pathurl>/home/davidk/code/python/JC-render/JC-examples/yoga.mp4</pathurl>
                                    <name>yoga.mp4</name>
                                    <rate>
                                        <timebase>30</timebase>
                                        <ntsc>TRUE</ntsc>
                                    </rate>
                                    <duration>54922</duration>
                                    <timecode>
                                        <rate>
                                            <timebase>30</timebase>
                                            <ntsc>TRUE</ntsc>
                                        </rate>
                                        <string>00:00:00:00</string>
                                        <frame>0</frame>
                                        <displayformat>NDF</displayformat>
                                        <media>
                                            <video/>
                                            <audio/>
                                        </media>
                                    </timecode>
                                </file>
                                <name>/home/davidk/code/python/JC-render/JC-examples/yoga.mp4</name>
                                <rate>
                                    <timebase>30</timebase>
                                    <ntsc>TRUE</ntsc>
                                </rate>
                                <start>42457</start>
                                <end>43113</end>
                            </clipitem>
                            <clipitem frameBlend="FALSE" id="clipitem-855">
                                <media>
                                    <video>
                                        <samplecharacteristics>
                                            <height>720</height>
                                            <width>1270</width>
                                        </samplecharacteristics>
                                    </video>
                                </media>
                                <file id="file-1">
                                    <pathurl>/home/davidk/code/python/JC-render/JC-examples/yoga.mp4</pathurl>
                                    <name>yoga.mp4</name>
                                    <rate>
                                        <timebase>30</timebase>
                                        <ntsc>TRUE</ntsc>
                                    </rate>
                                    <duration>54922</duration>
                                    <timecode>
                                        <rate>
                                            <timebase>30</timebase>
                                            <ntsc>TRUE</ntsc>
                                        </rate>
                                        <string>00:00:00:00</string>
                                        <frame>0</frame>
                                        <displayformat>NDF</displayformat>
                                        <media>
                                            <video/>
                                            <audio/>
                                        </media>
                                    </timecode>
                                </file>
                                <name>/home/davidk/code/python/JC-render/JC-examples/yoga.mp4</name>
                                <rate>
                                    <timebase>30</timebase>
                                    <ntsc>TRUE</ntsc>
                                </rate>
                                <start>43113</start>
                                <end>43153</end>
                            </clipitem>
                            <clipitem frameBlend="FALSE" id="clipitem-856">
                                <media>
                                    <video>
                                        <samplecharacteristics>
                                            <height>720</height>
                                            <width>1270</width>
                                        </samplecharacteristics>
                                    </video>
                                </media>
                                <file id="file-1">
                                    <pathurl>/home/davidk/code/python/JC-render/JC-examples/yoga.mp4</pathurl>
                                    <name>yoga.mp4</name>
                                    <rate>
                                        <timebase>30</timebase>
                                        <ntsc>TRUE</ntsc>
                                    </rate>
                                    <duration>54922</duration>
                                    <timecode>
                                        <rate>
                                            <timebase>30</timebase>
                                            <ntsc>TRUE</ntsc>
                                        </rate>
                                        <string>00:00:00:00</string>
                                        <frame>0</frame>
                                        <displayformat>NDF</displayformat>
                                        <media>
                                            <video/>
                                            <audio/>
                                        </media>
                                    </timecode>
                                </file>
                                <name>/home/davidk/code/python/JC-render/JC-examples/yoga.mp4</name>
                                <rate>
                                    <timebase>30</timebase>
                                    <ntsc>TRUE</ntsc>
                                </rate>
                                <start>43153</start>
                                <end>43169</end>
                            </clipitem>
                            <clipitem frameBlend="FALSE" id="clipitem-857">
                                <media>
                                    <video>
                                        <samplecharacteristics>
                                            <height>720</height>
                                            <width>1270</width>
                                        </samplecharacteristics>
                                    </video>
                                </media>
                                <file id="file-1">
                                    <pathurl>/home/davidk/code/python/JC-render/JC-examples/yoga.mp4</pathurl>
                                    <name>yoga.mp4</name>
                                    <rate>
                                        <timebase>30</timebase>
                                        <ntsc>TRUE</ntsc>
                                    </rate>
                                    <duration>54922</duration>
                                    <timecode>
                                        <rate>
                                            <timebase>30</timebase>
                                            <ntsc>TRUE</ntsc>
                                        </rate>
                                        <string>00:00:00:00</string>
                                        <frame>0</frame>
                                        <displayformat>NDF</displayformat>
                                        <media>
                                            <video/>
                                            <audio/>
                                        </media>
                                    </timecode>
                                </file>
                                <name>/home/davidk/code/python/JC-render/JC-examples/yoga.mp4</name>
                                <rate>
                                    <timebase>30</timebase>
                                    <ntsc>TRUE</ntsc>
                                </rate>
                                <start>43169</start>
                                <end>43202</end>
                            </clipitem>
                            <clipitem frameBlend="FALSE" id="clipitem-858">
                                <media>
                                    <video>
                                        <samplecharacteristics>
                                            <height>720</height>
                                            <width>1270</width>
                                        </samplecharacteristics>
                                    </video>
                                </media>
                                <file id="file-1">
                                    <pathurl>/home/davidk/code/python/JC-render/JC-examples/yoga.mp4</pathurl>
                                    <name>yoga.mp4</name>
                                    <rate>
                                        <timebase>30</timebase>
                                        <ntsc>TRUE</ntsc>
                                    </rate>
                                    <duration>54922</duration>
                                    <timecode>
                                        <rate>
                                            <timebase>30</timebase>
                                            <ntsc>TRUE</ntsc>
                                        </rate>
                                        <string>00:00:00:00</string>
                                        <frame>0</frame>
                                        <displayformat>NDF</displayformat>
                                        <media>
                                            <video/>
                                            <audio/>
                                        </media>
                                    </timecode>
                                </file>
                                <name>/home/davidk/code/python/JC-render/JC-examples/yoga.mp4</name>
                                <rate>
                                    <timebase>30</timebase>
                                    <ntsc>TRUE</ntsc>
                                </rate>
                                <start>43202</start>
                                <end>43225</end>
                            </clipitem>
                            <clipitem frameBlend="FALSE" id="clipitem-859">
                                <media>
                                    <video>
                                        <samplecharacteristics>
                                            <height>720</height>
                                            <width>1270</width>
                                        </samplecharacteristics>
                                    </video>
                                </media>
                                <file id="file-1">
                                    <pathurl>/home/davidk/code/python/JC-render/JC-examples/yoga.mp4</pathurl>
                                    <name>yoga.mp4</name>
                                    <rate>
                                        <timebase>30</timebase>
                                        <ntsc>TRUE</ntsc>
                                    </rate>
                                    <duration>54922</duration>
                                    <timecode>
                                        <rate>
                                            <timebase>30</timebase>
                                            <ntsc>TRUE</ntsc>
                                        </rate>
                                        <string>00:00:00:00</string>
                                        <frame>0</frame>
                                        <displayformat>NDF</displayformat>
                                        <media>
                                            <video/>
                                            <audio/>
                                        </media>
                                    </timecode>
                                </file>
                                <name>/home/davidk/code/python/JC-render/JC-examples/yoga.mp4</name>
                                <rate>
                                    <timebase>30</timebase>
                                    <ntsc>TRUE</ntsc>
                                </rate>
                                <start>43225</start>
                                <end>43334</end>
                            </clipitem>
                            <clipitem frameBlend="FALSE" id="clipitem-860">
                                <media>
                                    <video>
                                        <samplecharacteristics>
                                            <height>720</height>
                                            <width>1270</width>
                                        </samplecharacteristics>
                                    </video>
                                </media>
                                <file id="file-1">
                                    <pathurl>/home/davidk/code/python/JC-render/JC-examples/yoga.mp4</pathurl>
                                    <name>yoga.mp4</name>
                                    <rate>
                                        <timebase>30</timebase>
                                        <ntsc>TRUE</ntsc>
                                    </rate>
                                    <duration>54922</duration>
                                    <timecode>
                                        <rate>
                                            <timebase>30</timebase>
                                            <ntsc>TRUE</ntsc>
                                        </rate>
                                        <string>00:00:00:00</string>
                                        <frame>0</frame>
                                        <displayformat>NDF</displayformat>
                                        <media>
                                            <video/>
                                            <audio/>
                                        </media>
                                    </timecode>
                                </file>
                                <name>/home/davidk/code/python/JC-render/JC-examples/yoga.mp4</name>
                                <rate>
                                    <timebase>30</timebase>
                                    <ntsc>TRUE</ntsc>
                                </rate>
                                <start>43334</start>
                                <end>43361</end>
                            </clipitem>
                            <clipitem frameBlend="FALSE" id="clipitem-861">
                                <media>
                                    <video>
                                        <samplecharacteristics>
                                            <height>720</height>
                                            <width>1270</width>
                                        </samplecharacteristics>
                                    </video>
                                </media>
                                <file id="file-1">
                                    <pathurl>/home/davidk/code/python/JC-render/JC-examples/yoga.mp4</pathurl>
                                    <name>yoga.mp4</name>
                                    <rate>
                                        <timebase>30</timebase>
                                        <ntsc>TRUE</ntsc>
                                    </rate>
                                    <duration>54922</duration>
                                    <timecode>
                                        <rate>
                                            <timebase>30</timebase>
                                            <ntsc>TRUE</ntsc>
                                        </rate>
                                        <string>00:00:00:00</string>
                                        <frame>0</frame>
                                        <displayformat>NDF</displayformat>
                                        <media>
                                            <video/>
                                            <audio/>
                                        </media>
                                    </timecode>
                                </file>
                                <name>/home/davidk/code/python/JC-render/JC-examples/yoga.mp4</name>
                                <rate>
                                    <timebase>30</timebase>
                                    <ntsc>TRUE</ntsc>
                                </rate>
                                <start>43361</start>
                                <end>43453</end>
                            </clipitem>
                            <clipitem frameBlend="FALSE" id="clipitem-862">
                                <media>
                                    <video>
                                        <samplecharacteristics>
                                            <height>720</height>
                                            <width>1270</width>
                                        </samplecharacteristics>
                                    </video>
                                </media>
                                <file id="file-1">
                                    <pathurl>/home/davidk/code/python/JC-render/JC-examples/yoga.mp4</pathurl>
                                    <name>yoga.mp4</name>
                                    <rate>
                                        <timebase>30</timebase>
                                        <ntsc>TRUE</ntsc>
                                    </rate>
                                    <duration>54922</duration>
                                    <timecode>
                                        <rate>
                                            <timebase>30</timebase>
                                            <ntsc>TRUE</ntsc>
                                        </rate>
                                        <string>00:00:00:00</string>
                                        <frame>0</frame>
                                        <displayformat>NDF</displayformat>
                                        <media>
                                            <video/>
                                            <audio/>
                                        </media>
                                    </timecode>
                                </file>
                                <name>/home/davidk/code/python/JC-render/JC-examples/yoga.mp4</name>
                                <rate>
                                    <timebase>30</timebase>
                                    <ntsc>TRUE</ntsc>
                                </rate>
                                <start>43453</start>
                                <end>43469</end>
                            </clipitem>
                            <clipitem frameBlend="FALSE" id="clipitem-863">
                                <media>
                                    <video>
                                        <samplecharacteristics>
                                            <height>720</height>
                                            <width>1270</width>
                                        </samplecharacteristics>
                                    </video>
                                </media>
                                <file id="file-1">
                                    <pathurl>/home/davidk/code/python/JC-render/JC-examples/yoga.mp4</pathurl>
                                    <name>yoga.mp4</name>
                                    <rate>
                                        <timebase>30</timebase>
                                        <ntsc>TRUE</ntsc>
                                    </rate>
                                    <duration>54922</duration>
                                    <timecode>
                                        <rate>
                                            <timebase>30</timebase>
                                            <ntsc>TRUE</ntsc>
                                        </rate>
                                        <string>00:00:00:00</string>
                                        <frame>0</frame>
                                        <displayformat>NDF</displayformat>
                                        <media>
                                            <video/>
                                            <audio/>
                                        </media>
                                    </timecode>
                                </file>
                                <name>/home/davidk/code/python/JC-render/JC-examples/yoga.mp4</name>
                                <rate>
                                    <timebase>30</timebase>
                                    <ntsc>TRUE</ntsc>
                                </rate>
                                <start>43469</start>
                                <end>43509</end>
                            </clipitem>
                            <clipitem frameBlend="FALSE" id="clipitem-864">
                                <media>
                                    <video>
                                        <samplecharacteristics>
                                            <height>720</height>
                                            <width>1270</width>
                                        </samplecharacteristics>
                                    </video>
                                </media>
                                <file id="file-1">
                                    <pathurl>/home/davidk/code/python/JC-render/JC-examples/yoga.mp4</pathurl>
                                    <name>yoga.mp4</name>
                                    <rate>
                                        <timebase>30</timebase>
                                        <ntsc>TRUE</ntsc>
                                    </rate>
                                    <duration>54922</duration>
                                    <timecode>
                                        <rate>
                                            <timebase>30</timebase>
                                            <ntsc>TRUE</ntsc>
                                        </rate>
                                        <string>00:00:00:00</string>
                                        <frame>0</frame>
                                        <displayformat>NDF</displayformat>
                                        <media>
                                            <video/>
                                            <audio/>
                                        </media>
                                    </timecode>
                                </file>
                                <name>/home/davidk/code/python/JC-render/JC-examples/yoga.mp4</name>
                                <rate>
                                    <timebase>30</timebase>
                                    <ntsc>TRUE</ntsc>
                                </rate>
                                <start>43509</start>
                                <end>43559</end>
                            </clipitem>
                            <clipitem frameBlend="FALSE" id="clipitem-865">
                                <media>
                                    <video>
                                        <samplecharacteristics>
                                            <height>720</height>
                                            <width>1270</width>
                                        </samplecharacteristics>
                                    </video>
                                </media>
                                <file id="file-1">
                                    <pathurl>/home/davidk/code/python/JC-render/JC-examples/yoga.mp4</pathurl>
                                    <name>yoga.mp4</name>
                                    <rate>
                                        <timebase>30</timebase>
                                        <ntsc>TRUE</ntsc>
                                    </rate>
                                    <duration>54922</duration>
                                    <timecode>
                                        <rate>
                                            <timebase>30</timebase>
                                            <ntsc>TRUE</ntsc>
                                        </rate>
                                        <string>00:00:00:00</string>
                                        <frame>0</frame>
                                        <displayformat>NDF</displayformat>
                                        <media>
                                            <video/>
                                            <audio/>
                                        </media>
                                    </timecode>
                                </file>
                                <name>/home/davidk/code/python/JC-render/JC-examples/yoga.mp4</name>
                                <rate>
                                    <timebase>30</timebase>
                                    <ntsc>TRUE</ntsc>
                                </rate>
                                <start>43559</start>
                                <end>43610</end>
                            </clipitem>
                            <clipitem frameBlend="FALSE" id="clipitem-866">
                                <media>
                                    <video>
                                        <samplecharacteristics>
                                            <height>720</height>
                                            <width>1270</width>
                                        </samplecharacteristics>
                                    </video>
                                </media>
                                <file id="file-1">
                                    <pathurl>/home/davidk/code/python/JC-render/JC-examples/yoga.mp4</pathurl>
                                    <name>yoga.mp4</name>
                                    <rate>
                                        <timebase>30</timebase>
                                        <ntsc>TRUE</ntsc>
                                    </rate>
                                    <duration>54922</duration>
                                    <timecode>
                                        <rate>
                                            <timebase>30</timebase>
                                            <ntsc>TRUE</ntsc>
                                        </rate>
                                        <string>00:00:00:00</string>
                                        <frame>0</frame>
                                        <displayformat>NDF</displayformat>
                                        <media>
                                            <video/>
                                            <audio/>
                                        </media>
                                    </timecode>
                                </file>
                                <name>/home/davidk/code/python/JC-render/JC-examples/yoga.mp4</name>
                                <rate>
                                    <timebase>30</timebase>
                                    <ntsc>TRUE</ntsc>
                                </rate>
                                <start>43610</start>
                                <end>43632</end>
                            </clipitem>
                            <clipitem frameBlend="FALSE" id="clipitem-867">
                                <media>
                                    <video>
                                        <samplecharacteristics>
                                            <height>720</height>
                                            <width>1270</width>
                                        </samplecharacteristics>
                                    </video>
                                </media>
                                <file id="file-1">
                                    <pathurl>/home/davidk/code/python/JC-render/JC-examples/yoga.mp4</pathurl>
                                    <name>yoga.mp4</name>
                                    <rate>
                                        <timebase>30</timebase>
                                        <ntsc>TRUE</ntsc>
                                    </rate>
                                    <duration>54922</duration>
                                    <timecode>
                                        <rate>
                                            <timebase>30</timebase>
                                            <ntsc>TRUE</ntsc>
                                        </rate>
                                        <string>00:00:00:00</string>
                                        <frame>0</frame>
                                        <displayformat>NDF</displayformat>
                                        <media>
                                            <video/>
                                            <audio/>
                                        </media>
                                    </timecode>
                                </file>
                                <name>/home/davidk/code/python/JC-render/JC-examples/yoga.mp4</name>
                                <rate>
                                    <timebase>30</timebase>
                                    <ntsc>TRUE</ntsc>
                                </rate>
                                <start>43632</start>
                                <end>43690</end>
                            </clipitem>
                            <clipitem frameBlend="FALSE" id="clipitem-868">
                                <media>
                                    <video>
                                        <samplecharacteristics>
                                            <height>720</height>
                                            <width>1270</width>
                                        </samplecharacteristics>
                                    </video>
                                </media>
                                <file id="file-1">
                                    <pathurl>/home/davidk/code/python/JC-render/JC-examples/yoga.mp4</pathurl>
                                    <name>yoga.mp4</name>
                                    <rate>
                                        <timebase>30</timebase>
                                        <ntsc>TRUE</ntsc>
                                    </rate>
                                    <duration>54922</duration>
                                    <timecode>
                                        <rate>
                                            <timebase>30</timebase>
                                            <ntsc>TRUE</ntsc>
                                        </rate>
                                        <string>00:00:00:00</string>
                                        <frame>0</frame>
                                        <displayformat>NDF</displayformat>
                                        <media>
                                            <video/>
                                            <audio/>
                                        </media>
                                    </timecode>
                                </file>
                                <name>/home/davidk/code/python/JC-render/JC-examples/yoga.mp4</name>
                                <rate>
                                    <timebase>30</timebase>
                                    <ntsc>TRUE</ntsc>
                                </rate>
                                <start>43690</start>
                                <end>43692</end>
                            </clipitem>
                            <clipitem frameBlend="FALSE" id="clipitem-869">
                                <media>
                                    <video>
                                        <samplecharacteristics>
                                            <height>720</height>
                                            <width>1270</width>
                                        </samplecharacteristics>
                                    </video>
                                </media>
                                <file id="file-1">
                                    <pathurl>/home/davidk/code/python/JC-render/JC-examples/yoga.mp4</pathurl>
                                    <name>yoga.mp4</name>
                                    <rate>
                                        <timebase>30</timebase>
                                        <ntsc>TRUE</ntsc>
                                    </rate>
                                    <duration>54922</duration>
                                    <timecode>
                                        <rate>
                                            <timebase>30</timebase>
                                            <ntsc>TRUE</ntsc>
                                        </rate>
                                        <string>00:00:00:00</string>
                                        <frame>0</frame>
                                        <displayformat>NDF</displayformat>
                                        <media>
                                            <video/>
                                            <audio/>
                                        </media>
                                    </timecode>
                                </file>
                                <name>/home/davidk/code/python/JC-render/JC-examples/yoga.mp4</name>
                                <rate>
                                    <timebase>30</timebase>
                                    <ntsc>TRUE</ntsc>
                                </rate>
                                <start>43692</start>
                                <end>43749</end>
                            </clipitem>
                            <clipitem frameBlend="FALSE" id="clipitem-870">
                                <media>
                                    <video>
                                        <samplecharacteristics>
                                            <height>720</height>
                                            <width>1270</width>
                                        </samplecharacteristics>
                                    </video>
                                </media>
                                <file id="file-1">
                                    <pathurl>/home/davidk/code/python/JC-render/JC-examples/yoga.mp4</pathurl>
                                    <name>yoga.mp4</name>
                                    <rate>
                                        <timebase>30</timebase>
                                        <ntsc>TRUE</ntsc>
                                    </rate>
                                    <duration>54922</duration>
                                    <timecode>
                                        <rate>
                                            <timebase>30</timebase>
                                            <ntsc>TRUE</ntsc>
                                        </rate>
                                        <string>00:00:00:00</string>
                                        <frame>0</frame>
                                        <displayformat>NDF</displayformat>
                                        <media>
                                            <video/>
                                            <audio/>
                                        </media>
                                    </timecode>
                                </file>
                                <name>/home/davidk/code/python/JC-render/JC-examples/yoga.mp4</name>
                                <rate>
                                    <timebase>30</timebase>
                                    <ntsc>TRUE</ntsc>
                                </rate>
                                <start>43749</start>
                                <end>43758</end>
                            </clipitem>
                            <clipitem frameBlend="FALSE" id="clipitem-871">
                                <media>
                                    <video>
                                        <samplecharacteristics>
                                            <height>720</height>
                                            <width>1270</width>
                                        </samplecharacteristics>
                                    </video>
                                </media>
                                <file id="file-1">
                                    <pathurl>/home/davidk/code/python/JC-render/JC-examples/yoga.mp4</pathurl>
                                    <name>yoga.mp4</name>
                                    <rate>
                                        <timebase>30</timebase>
                                        <ntsc>TRUE</ntsc>
                                    </rate>
                                    <duration>54922</duration>
                                    <timecode>
                                        <rate>
                                            <timebase>30</timebase>
                                            <ntsc>TRUE</ntsc>
                                        </rate>
                                        <string>00:00:00:00</string>
                                        <frame>0</frame>
                                        <displayformat>NDF</displayformat>
                                        <media>
                                            <video/>
                                            <audio/>
                                        </media>
                                    </timecode>
                                </file>
                                <name>/home/davidk/code/python/JC-render/JC-examples/yoga.mp4</name>
                                <rate>
                                    <timebase>30</timebase>
                                    <ntsc>TRUE</ntsc>
                                </rate>
                                <start>43758</start>
                                <end>43798</end>
                            </clipitem>
                            <clipitem frameBlend="FALSE" id="clipitem-872">
                                <media>
                                    <video>
                                        <samplecharacteristics>
                                            <height>720</height>
                                            <width>1270</width>
                                        </samplecharacteristics>
                                    </video>
                                </media>
                                <file id="file-1">
                                    <pathurl>/home/davidk/code/python/JC-render/JC-examples/yoga.mp4</pathurl>
                                    <name>yoga.mp4</name>
                                    <rate>
                                        <timebase>30</timebase>
                                        <ntsc>TRUE</ntsc>
                                    </rate>
                                    <duration>54922</duration>
                                    <timecode>
                                        <rate>
                                            <timebase>30</timebase>
                                            <ntsc>TRUE</ntsc>
                                        </rate>
                                        <string>00:00:00:00</string>
                                        <frame>0</frame>
                                        <displayformat>NDF</displayformat>
                                        <media>
                                            <video/>
                                            <audio/>
                                        </media>
                                    </timecode>
                                </file>
                                <name>/home/davidk/code/python/JC-render/JC-examples/yoga.mp4</name>
                                <rate>
                                    <timebase>30</timebase>
                                    <ntsc>TRUE</ntsc>
                                </rate>
                                <start>43798</start>
                                <end>43803</end>
                            </clipitem>
                            <clipitem frameBlend="FALSE" id="clipitem-873">
                                <media>
                                    <video>
                                        <samplecharacteristics>
                                            <height>720</height>
                                            <width>1270</width>
                                        </samplecharacteristics>
                                    </video>
                                </media>
                                <file id="file-1">
                                    <pathurl>/home/davidk/code/python/JC-render/JC-examples/yoga.mp4</pathurl>
                                    <name>yoga.mp4</name>
                                    <rate>
                                        <timebase>30</timebase>
                                        <ntsc>TRUE</ntsc>
                                    </rate>
                                    <duration>54922</duration>
                                    <timecode>
                                        <rate>
                                            <timebase>30</timebase>
                                            <ntsc>TRUE</ntsc>
                                        </rate>
                                        <string>00:00:00:00</string>
                                        <frame>0</frame>
                                        <displayformat>NDF</displayformat>
                                        <media>
                                            <video/>
                                            <audio/>
                                        </media>
                                    </timecode>
                                </file>
                                <name>/home/davidk/code/python/JC-render/JC-examples/yoga.mp4</name>
                                <rate>
                                    <timebase>30</timebase>
                                    <ntsc>TRUE</ntsc>
                                </rate>
                                <start>43803</start>
                                <end>43843</end>
                            </clipitem>
                            <clipitem frameBlend="FALSE" id="clipitem-874">
                                <media>
                                    <video>
                                        <samplecharacteristics>
                                            <height>720</height>
                                            <width>1270</width>
                                        </samplecharacteristics>
                                    </video>
                                </media>
                                <file id="file-1">
                                    <pathurl>/home/davidk/code/python/JC-render/JC-examples/yoga.mp4</pathurl>
                                    <name>yoga.mp4</name>
                                    <rate>
                                        <timebase>30</timebase>
                                        <ntsc>TRUE</ntsc>
                                    </rate>
                                    <duration>54922</duration>
                                    <timecode>
                                        <rate>
                                            <timebase>30</timebase>
                                            <ntsc>TRUE</ntsc>
                                        </rate>
                                        <string>00:00:00:00</string>
                                        <frame>0</frame>
                                        <displayformat>NDF</displayformat>
                                        <media>
                                            <video/>
                                            <audio/>
                                        </media>
                                    </timecode>
                                </file>
                                <name>/home/davidk/code/python/JC-render/JC-examples/yoga.mp4</name>
                                <rate>
                                    <timebase>30</timebase>
                                    <ntsc>TRUE</ntsc>
                                </rate>
                                <start>43843</start>
                                <end>44343</end>
                            </clipitem>
                            <clipitem frameBlend="FALSE" id="clipitem-875">
                                <media>
                                    <video>
                                        <samplecharacteristics>
                                            <height>720</height>
                                            <width>1270</width>
                                        </samplecharacteristics>
                                    </video>
                                </media>
                                <file id="file-1">
                                    <pathurl>/home/davidk/code/python/JC-render/JC-examples/yoga.mp4</pathurl>
                                    <name>yoga.mp4</name>
                                    <rate>
                                        <timebase>30</timebase>
                                        <ntsc>TRUE</ntsc>
                                    </rate>
                                    <duration>54922</duration>
                                    <timecode>
                                        <rate>
                                            <timebase>30</timebase>
                                            <ntsc>TRUE</ntsc>
                                        </rate>
                                        <string>00:00:00:00</string>
                                        <frame>0</frame>
                                        <displayformat>NDF</displayformat>
                                        <media>
                                            <video/>
                                            <audio/>
                                        </media>
                                    </timecode>
                                </file>
                                <name>/home/davidk/code/python/JC-render/JC-examples/yoga.mp4</name>
                                <rate>
                                    <timebase>30</timebase>
                                    <ntsc>TRUE</ntsc>
                                </rate>
                                <start>44343</start>
                                <end>44407</end>
                            </clipitem>
                            <clipitem frameBlend="FALSE" id="clipitem-876">
                                <media>
                                    <video>
                                        <samplecharacteristics>
                                            <height>720</height>
                                            <width>1270</width>
                                        </samplecharacteristics>
                                    </video>
                                </media>
                                <file id="file-1">
                                    <pathurl>/home/davidk/code/python/JC-render/JC-examples/yoga.mp4</pathurl>
                                    <name>yoga.mp4</name>
                                    <rate>
                                        <timebase>30</timebase>
                                        <ntsc>TRUE</ntsc>
                                    </rate>
                                    <duration>54922</duration>
                                    <timecode>
                                        <rate>
                                            <timebase>30</timebase>
                                            <ntsc>TRUE</ntsc>
                                        </rate>
                                        <string>00:00:00:00</string>
                                        <frame>0</frame>
                                        <displayformat>NDF</displayformat>
                                        <media>
                                            <video/>
                                            <audio/>
                                        </media>
                                    </timecode>
                                </file>
                                <name>/home/davidk/code/python/JC-render/JC-examples/yoga.mp4</name>
                                <rate>
                                    <timebase>30</timebase>
                                    <ntsc>TRUE</ntsc>
                                </rate>
                                <start>44407</start>
                                <end>44423</end>
                            </clipitem>
                            <clipitem frameBlend="FALSE" id="clipitem-877">
                                <media>
                                    <video>
                                        <samplecharacteristics>
                                            <height>720</height>
                                            <width>1270</width>
                                        </samplecharacteristics>
                                    </video>
                                </media>
                                <file id="file-1">
                                    <pathurl>/home/davidk/code/python/JC-render/JC-examples/yoga.mp4</pathurl>
                                    <name>yoga.mp4</name>
                                    <rate>
                                        <timebase>30</timebase>
                                        <ntsc>TRUE</ntsc>
                                    </rate>
                                    <duration>54922</duration>
                                    <timecode>
                                        <rate>
                                            <timebase>30</timebase>
                                            <ntsc>TRUE</ntsc>
                                        </rate>
                                        <string>00:00:00:00</string>
                                        <frame>0</frame>
                                        <displayformat>NDF</displayformat>
                                        <media>
                                            <video/>
                                            <audio/>
                                        </media>
                                    </timecode>
                                </file>
                                <name>/home/davidk/code/python/JC-render/JC-examples/yoga.mp4</name>
                                <rate>
                                    <timebase>30</timebase>
                                    <ntsc>TRUE</ntsc>
                                </rate>
                                <start>44423</start>
                                <end>44456</end>
                            </clipitem>
                            <clipitem frameBlend="FALSE" id="clipitem-878">
                                <media>
                                    <video>
                                        <samplecharacteristics>
                                            <height>720</height>
                                            <width>1270</width>
                                        </samplecharacteristics>
                                    </video>
                                </media>
                                <file id="file-1">
                                    <pathurl>/home/davidk/code/python/JC-render/JC-examples/yoga.mp4</pathurl>
                                    <name>yoga.mp4</name>
                                    <rate>
                                        <timebase>30</timebase>
                                        <ntsc>TRUE</ntsc>
                                    </rate>
                                    <duration>54922</duration>
                                    <timecode>
                                        <rate>
                                            <timebase>30</timebase>
                                            <ntsc>TRUE</ntsc>
                                        </rate>
                                        <string>00:00:00:00</string>
                                        <frame>0</frame>
                                        <displayformat>NDF</displayformat>
                                        <media>
                                            <video/>
                                            <audio/>
                                        </media>
                                    </timecode>
                                </file>
                                <name>/home/davidk/code/python/JC-render/JC-examples/yoga.mp4</name>
                                <rate>
                                    <timebase>30</timebase>
                                    <ntsc>TRUE</ntsc>
                                </rate>
                                <start>44456</start>
                                <end>44458</end>
                            </clipitem>
                            <clipitem frameBlend="FALSE" id="clipitem-879">
                                <media>
                                    <video>
                                        <samplecharacteristics>
                                            <height>720</height>
                                            <width>1270</width>
                                        </samplecharacteristics>
                                    </video>
                                </media>
                                <file id="file-1">
                                    <pathurl>/home/davidk/code/python/JC-render/JC-examples/yoga.mp4</pathurl>
                                    <name>yoga.mp4</name>
                                    <rate>
                                        <timebase>30</timebase>
                                        <ntsc>TRUE</ntsc>
                                    </rate>
                                    <duration>54922</duration>
                                    <timecode>
                                        <rate>
                                            <timebase>30</timebase>
                                            <ntsc>TRUE</ntsc>
                                        </rate>
                                        <string>00:00:00:00</string>
                                        <frame>0</frame>
                                        <displayformat>NDF</displayformat>
                                        <media>
                                            <video/>
                                            <audio/>
                                        </media>
                                    </timecode>
                                </file>
                                <name>/home/davidk/code/python/JC-render/JC-examples/yoga.mp4</name>
                                <rate>
                                    <timebase>30</timebase>
                                    <ntsc>TRUE</ntsc>
                                </rate>
                                <start>44458</start>
                                <end>44508</end>
                            </clipitem>
                            <clipitem frameBlend="FALSE" id="clipitem-880">
                                <media>
                                    <video>
                                        <samplecharacteristics>
                                            <height>720</height>
                                            <width>1270</width>
                                        </samplecharacteristics>
                                    </video>
                                </media>
                                <file id="file-1">
                                    <pathurl>/home/davidk/code/python/JC-render/JC-examples/yoga.mp4</pathurl>
                                    <name>yoga.mp4</name>
                                    <rate>
                                        <timebase>30</timebase>
                                        <ntsc>TRUE</ntsc>
                                    </rate>
                                    <duration>54922</duration>
                                    <timecode>
                                        <rate>
                                            <timebase>30</timebase>
                                            <ntsc>TRUE</ntsc>
                                        </rate>
                                        <string>00:00:00:00</string>
                                        <frame>0</frame>
                                        <displayformat>NDF</displayformat>
                                        <media>
                                            <video/>
                                            <audio/>
                                        </media>
                                    </timecode>
                                </file>
                                <name>/home/davidk/code/python/JC-render/JC-examples/yoga.mp4</name>
                                <rate>
                                    <timebase>30</timebase>
                                    <ntsc>TRUE</ntsc>
                                </rate>
                                <start>44508</start>
                                <end>44535</end>
                            </clipitem>
                            <clipitem frameBlend="FALSE" id="clipitem-881">
                                <media>
                                    <video>
                                        <samplecharacteristics>
                                            <height>720</height>
                                            <width>1270</width>
                                        </samplecharacteristics>
                                    </video>
                                </media>
                                <file id="file-1">
                                    <pathurl>/home/davidk/code/python/JC-render/JC-examples/yoga.mp4</pathurl>
                                    <name>yoga.mp4</name>
                                    <rate>
                                        <timebase>30</timebase>
                                        <ntsc>TRUE</ntsc>
                                    </rate>
                                    <duration>54922</duration>
                                    <timecode>
                                        <rate>
                                            <timebase>30</timebase>
                                            <ntsc>TRUE</ntsc>
                                        </rate>
                                        <string>00:00:00:00</string>
                                        <frame>0</frame>
                                        <displayformat>NDF</displayformat>
                                        <media>
                                            <video/>
                                            <audio/>
                                        </media>
                                    </timecode>
                                </file>
                                <name>/home/davidk/code/python/JC-render/JC-examples/yoga.mp4</name>
                                <rate>
                                    <timebase>30</timebase>
                                    <ntsc>TRUE</ntsc>
                                </rate>
                                <start>44535</start>
                                <end>44574</end>
                            </clipitem>
                            <clipitem frameBlend="FALSE" id="clipitem-882">
                                <media>
                                    <video>
                                        <samplecharacteristics>
                                            <height>720</height>
                                            <width>1270</width>
                                        </samplecharacteristics>
                                    </video>
                                </media>
                                <file id="file-1">
                                    <pathurl>/home/davidk/code/python/JC-render/JC-examples/yoga.mp4</pathurl>
                                    <name>yoga.mp4</name>
                                    <rate>
                                        <timebase>30</timebase>
                                        <ntsc>TRUE</ntsc>
                                    </rate>
                                    <duration>54922</duration>
                                    <timecode>
                                        <rate>
                                            <timebase>30</timebase>
                                            <ntsc>TRUE</ntsc>
                                        </rate>
                                        <string>00:00:00:00</string>
                                        <frame>0</frame>
                                        <displayformat>NDF</displayformat>
                                        <media>
                                            <video/>
                                            <audio/>
                                        </media>
                                    </timecode>
                                </file>
                                <name>/home/davidk/code/python/JC-render/JC-examples/yoga.mp4</name>
                                <rate>
                                    <timebase>30</timebase>
                                    <ntsc>TRUE</ntsc>
                                </rate>
                                <start>44574</start>
                                <end>44629</end>
                            </clipitem>
                            <clipitem frameBlend="FALSE" id="clipitem-883">
                                <media>
                                    <video>
                                        <samplecharacteristics>
                                            <height>720</height>
                                            <width>1270</width>
                                        </samplecharacteristics>
                                    </video>
                                </media>
                                <file id="file-1">
                                    <pathurl>/home/davidk/code/python/JC-render/JC-examples/yoga.mp4</pathurl>
                                    <name>yoga.mp4</name>
                                    <rate>
                                        <timebase>30</timebase>
                                        <ntsc>TRUE</ntsc>
                                    </rate>
                                    <duration>54922</duration>
                                    <timecode>
                                        <rate>
                                            <timebase>30</timebase>
                                            <ntsc>TRUE</ntsc>
                                        </rate>
                                        <string>00:00:00:00</string>
                                        <frame>0</frame>
                                        <displayformat>NDF</displayformat>
                                        <media>
                                            <video/>
                                            <audio/>
                                        </media>
                                    </timecode>
                                </file>
                                <name>/home/davidk/code/python/JC-render/JC-examples/yoga.mp4</name>
                                <rate>
                                    <timebase>30</timebase>
                                    <ntsc>TRUE</ntsc>
                                </rate>
                                <start>44629</start>
                                <end>44658</end>
                            </clipitem>
                            <clipitem frameBlend="FALSE" id="clipitem-884">
                                <media>
                                    <video>
                                        <samplecharacteristics>
                                            <height>720</height>
                                            <width>1270</width>
                                        </samplecharacteristics>
                                    </video>
                                </media>
                                <file id="file-1">
                                    <pathurl>/home/davidk/code/python/JC-render/JC-examples/yoga.mp4</pathurl>
                                    <name>yoga.mp4</name>
                                    <rate>
                                        <timebase>30</timebase>
                                        <ntsc>TRUE</ntsc>
                                    </rate>
                                    <duration>54922</duration>
                                    <timecode>
                                        <rate>
                                            <timebase>30</timebase>
                                            <ntsc>TRUE</ntsc>
                                        </rate>
                                        <string>00:00:00:00</string>
                                        <frame>0</frame>
                                        <displayformat>NDF</displayformat>
                                        <media>
                                            <video/>
                                            <audio/>
                                        </media>
                                    </timecode>
                                </file>
                                <name>/home/davidk/code/python/JC-render/JC-examples/yoga.mp4</name>
                                <rate>
                                    <timebase>30</timebase>
                                    <ntsc>TRUE</ntsc>
                                </rate>
                                <start>44658</start>
                                <end>44702</end>
                            </clipitem>
                            <clipitem frameBlend="FALSE" id="clipitem-885">
                                <media>
                                    <video>
                                        <samplecharacteristics>
                                            <height>720</height>
                                            <width>1270</width>
                                        </samplecharacteristics>
                                    </video>
                                </media>
                                <file id="file-1">
                                    <pathurl>/home/davidk/code/python/JC-render/JC-examples/yoga.mp4</pathurl>
                                    <name>yoga.mp4</name>
                                    <rate>
                                        <timebase>30</timebase>
                                        <ntsc>TRUE</ntsc>
                                    </rate>
                                    <duration>54922</duration>
                                    <timecode>
                                        <rate>
                                            <timebase>30</timebase>
                                            <ntsc>TRUE</ntsc>
                                        </rate>
                                        <string>00:00:00:00</string>
                                        <frame>0</frame>
                                        <displayformat>NDF</displayformat>
                                        <media>
                                            <video/>
                                            <audio/>
                                        </media>
                                    </timecode>
                                </file>
                                <name>/home/davidk/code/python/JC-render/JC-examples/yoga.mp4</name>
                                <rate>
                                    <timebase>30</timebase>
                                    <ntsc>TRUE</ntsc>
                                </rate>
                                <start>44702</start>
                                <end>44731</end>
                            </clipitem>
                            <clipitem frameBlend="FALSE" id="clipitem-886">
                                <media>
                                    <video>
                                        <samplecharacteristics>
                                            <height>720</height>
                                            <width>1270</width>
                                        </samplecharacteristics>
                                    </video>
                                </media>
                                <file id="file-1">
                                    <pathurl>/home/davidk/code/python/JC-render/JC-examples/yoga.mp4</pathurl>
                                    <name>yoga.mp4</name>
                                    <rate>
                                        <timebase>30</timebase>
                                        <ntsc>TRUE</ntsc>
                                    </rate>
                                    <duration>54922</duration>
                                    <timecode>
                                        <rate>
                                            <timebase>30</timebase>
                                            <ntsc>TRUE</ntsc>
                                        </rate>
                                        <string>00:00:00:00</string>
                                        <frame>0</frame>
                                        <displayformat>NDF</displayformat>
                                        <media>
                                            <video/>
                                            <audio/>
                                        </media>
                                    </timecode>
                                </file>
                                <name>/home/davidk/code/python/JC-render/JC-examples/yoga.mp4</name>
                                <rate>
                                    <timebase>30</timebase>
                                    <ntsc>TRUE</ntsc>
                                </rate>
                                <start>44731</start>
                                <end>44771</end>
                            </clipitem>
                            <clipitem frameBlend="FALSE" id="clipitem-887">
                                <media>
                                    <video>
                                        <samplecharacteristics>
                                            <height>720</height>
                                            <width>1270</width>
                                        </samplecharacteristics>
                                    </video>
                                </media>
                                <file id="file-1">
                                    <pathurl>/home/davidk/code/python/JC-render/JC-examples/yoga.mp4</pathurl>
                                    <name>yoga.mp4</name>
                                    <rate>
                                        <timebase>30</timebase>
                                        <ntsc>TRUE</ntsc>
                                    </rate>
                                    <duration>54922</duration>
                                    <timecode>
                                        <rate>
                                            <timebase>30</timebase>
                                            <ntsc>TRUE</ntsc>
                                        </rate>
                                        <string>00:00:00:00</string>
                                        <frame>0</frame>
                                        <displayformat>NDF</displayformat>
                                        <media>
                                            <video/>
                                            <audio/>
                                        </media>
                                    </timecode>
                                </file>
                                <name>/home/davidk/code/python/JC-render/JC-examples/yoga.mp4</name>
                                <rate>
                                    <timebase>30</timebase>
                                    <ntsc>TRUE</ntsc>
                                </rate>
                                <start>44771</start>
                                <end>44822</end>
                            </clipitem>
                            <clipitem frameBlend="FALSE" id="clipitem-888">
                                <media>
                                    <video>
                                        <samplecharacteristics>
                                            <height>720</height>
                                            <width>1270</width>
                                        </samplecharacteristics>
                                    </video>
                                </media>
                                <file id="file-1">
                                    <pathurl>/home/davidk/code/python/JC-render/JC-examples/yoga.mp4</pathurl>
                                    <name>yoga.mp4</name>
                                    <rate>
                                        <timebase>30</timebase>
                                        <ntsc>TRUE</ntsc>
                                    </rate>
                                    <duration>54922</duration>
                                    <timecode>
                                        <rate>
                                            <timebase>30</timebase>
                                            <ntsc>TRUE</ntsc>
                                        </rate>
                                        <string>00:00:00:00</string>
                                        <frame>0</frame>
                                        <displayformat>NDF</displayformat>
                                        <media>
                                            <video/>
                                            <audio/>
                                        </media>
                                    </timecode>
                                </file>
                                <name>/home/davidk/code/python/JC-render/JC-examples/yoga.mp4</name>
                                <rate>
                                    <timebase>30</timebase>
                                    <ntsc>TRUE</ntsc>
                                </rate>
                                <start>44822</start>
                                <end>44914</end>
                            </clipitem>
                            <clipitem frameBlend="FALSE" id="clipitem-889">
                                <media>
                                    <video>
                                        <samplecharacteristics>
                                            <height>720</height>
                                            <width>1270</width>
                                        </samplecharacteristics>
                                    </video>
                                </media>
                                <file id="file-1">
                                    <pathurl>/home/davidk/code/python/JC-render/JC-examples/yoga.mp4</pathurl>
                                    <name>yoga.mp4</name>
                                    <rate>
                                        <timebase>30</timebase>
                                        <ntsc>TRUE</ntsc>
                                    </rate>
                                    <duration>54922</duration>
                                    <timecode>
                                        <rate>
                                            <timebase>30</timebase>
                                            <ntsc>TRUE</ntsc>
                                        </rate>
                                        <string>00:00:00:00</string>
                                        <frame>0</frame>
                                        <displayformat>NDF</displayformat>
                                        <media>
                                            <video/>
                                            <audio/>
                                        </media>
                                    </timecode>
                                </file>
                                <name>/home/davidk/code/python/JC-render/JC-examples/yoga.mp4</name>
                                <rate>
                                    <timebase>30</timebase>
                                    <ntsc>TRUE</ntsc>
                                </rate>
                                <start>44914</start>
                                <end>44964</end>
                            </clipitem>
                            <clipitem frameBlend="FALSE" id="clipitem-890">
                                <media>
                                    <video>
                                        <samplecharacteristics>
                                            <height>720</height>
                                            <width>1270</width>
                                        </samplecharacteristics>
                                    </video>
                                </media>
                                <file id="file-1">
                                    <pathurl>/home/davidk/code/python/JC-render/JC-examples/yoga.mp4</pathurl>
                                    <name>yoga.mp4</name>
                                    <rate>
                                        <timebase>30</timebase>
                                        <ntsc>TRUE</ntsc>
                                    </rate>
                                    <duration>54922</duration>
                                    <timecode>
                                        <rate>
                                            <timebase>30</timebase>
                                            <ntsc>TRUE</ntsc>
                                        </rate>
                                        <string>00:00:00:00</string>
                                        <frame>0</frame>
                                        <displayformat>NDF</displayformat>
                                        <media>
                                            <video/>
                                            <audio/>
                                        </media>
                                    </timecode>
                                </file>
                                <name>/home/davidk/code/python/JC-render/JC-examples/yoga.mp4</name>
                                <rate>
                                    <timebase>30</timebase>
                                    <ntsc>TRUE</ntsc>
                                </rate>
                                <start>44964</start>
                                <end>44980</end>
                            </clipitem>
                            <clipitem frameBlend="FALSE" id="clipitem-891">
                                <media>
                                    <video>
                                        <samplecharacteristics>
                                            <height>720</height>
                                            <width>1270</width>
                                        </samplecharacteristics>
                                    </video>
                                </media>
                                <file id="file-1">
                                    <pathurl>/home/davidk/code/python/JC-render/JC-examples/yoga.mp4</pathurl>
                                    <name>yoga.mp4</name>
                                    <rate>
                                        <timebase>30</timebase>
                                        <ntsc>TRUE</ntsc>
                                    </rate>
                                    <duration>54922</duration>
                                    <timecode>
                                        <rate>
                                            <timebase>30</timebase>
                                            <ntsc>TRUE</ntsc>
                                        </rate>
                                        <string>00:00:00:00</string>
                                        <frame>0</frame>
                                        <displayformat>NDF</displayformat>
                                        <media>
                                            <video/>
                                            <audio/>
                                        </media>
                                    </timecode>
                                </file>
                                <name>/home/davidk/code/python/JC-render/JC-examples/yoga.mp4</name>
                                <rate>
                                    <timebase>30</timebase>
                                    <ntsc>TRUE</ntsc>
                                </rate>
                                <start>44980</start>
                                <end>45031</end>
                            </clipitem>
                            <clipitem frameBlend="FALSE" id="clipitem-892">
                                <media>
                                    <video>
                                        <samplecharacteristics>
                                            <height>720</height>
                                            <width>1270</width>
                                        </samplecharacteristics>
                                    </video>
                                </media>
                                <file id="file-1">
                                    <pathurl>/home/davidk/code/python/JC-render/JC-examples/yoga.mp4</pathurl>
                                    <name>yoga.mp4</name>
                                    <rate>
                                        <timebase>30</timebase>
                                        <ntsc>TRUE</ntsc>
                                    </rate>
                                    <duration>54922</duration>
                                    <timecode>
                                        <rate>
                                            <timebase>30</timebase>
                                            <ntsc>TRUE</ntsc>
                                        </rate>
                                        <string>00:00:00:00</string>
                                        <frame>0</frame>
                                        <displayformat>NDF</displayformat>
                                        <media>
                                            <video/>
                                            <audio/>
                                        </media>
                                    </timecode>
                                </file>
                                <name>/home/davidk/code/python/JC-render/JC-examples/yoga.mp4</name>
                                <rate>
                                    <timebase>30</timebase>
                                    <ntsc>TRUE</ntsc>
                                </rate>
                                <start>45031</start>
                                <end>45053</end>
                            </clipitem>
                            <clipitem frameBlend="FALSE" id="clipitem-893">
                                <media>
                                    <video>
                                        <samplecharacteristics>
                                            <height>720</height>
                                            <width>1270</width>
                                        </samplecharacteristics>
                                    </video>
                                </media>
                                <file id="file-1">
                                    <pathurl>/home/davidk/code/python/JC-render/JC-examples/yoga.mp4</pathurl>
                                    <name>yoga.mp4</name>
                                    <rate>
                                        <timebase>30</timebase>
                                        <ntsc>TRUE</ntsc>
                                    </rate>
                                    <duration>54922</duration>
                                    <timecode>
                                        <rate>
                                            <timebase>30</timebase>
                                            <ntsc>TRUE</ntsc>
                                        </rate>
                                        <string>00:00:00:00</string>
                                        <frame>0</frame>
                                        <displayformat>NDF</displayformat>
                                        <media>
                                            <video/>
                                            <audio/>
                                        </media>
                                    </timecode>
                                </file>
                                <name>/home/davidk/code/python/JC-render/JC-examples/yoga.mp4</name>
                                <rate>
                                    <timebase>30</timebase>
                                    <ntsc>TRUE</ntsc>
                                </rate>
                                <start>45053</start>
                                <end>45111</end>
                            </clipitem>
                            <clipitem frameBlend="FALSE" id="clipitem-894">
                                <media>
                                    <video>
                                        <samplecharacteristics>
                                            <height>720</height>
                                            <width>1270</width>
                                        </samplecharacteristics>
                                    </video>
                                </media>
                                <file id="file-1">
                                    <pathurl>/home/davidk/code/python/JC-render/JC-examples/yoga.mp4</pathurl>
                                    <name>yoga.mp4</name>
                                    <rate>
                                        <timebase>30</timebase>
                                        <ntsc>TRUE</ntsc>
                                    </rate>
                                    <duration>54922</duration>
                                    <timecode>
                                        <rate>
                                            <timebase>30</timebase>
                                            <ntsc>TRUE</ntsc>
                                        </rate>
                                        <string>00:00:00:00</string>
                                        <frame>0</frame>
                                        <displayformat>NDF</displayformat>
                                        <media>
                                            <video/>
                                            <audio/>
                                        </media>
                                    </timecode>
                                </file>
                                <name>/home/davidk/code/python/JC-render/JC-examples/yoga.mp4</name>
                                <rate>
                                    <timebase>30</timebase>
                                    <ntsc>TRUE</ntsc>
                                </rate>
                                <start>45111</start>
                                <end>45137</end>
                            </clipitem>
                            <clipitem frameBlend="FALSE" id="clipitem-895">
                                <media>
                                    <video>
                                        <samplecharacteristics>
                                            <height>720</height>
                                            <width>1270</width>
                                        </samplecharacteristics>
                                    </video>
                                </media>
                                <file id="file-1">
                                    <pathurl>/home/davidk/code/python/JC-render/JC-examples/yoga.mp4</pathurl>
                                    <name>yoga.mp4</name>
                                    <rate>
                                        <timebase>30</timebase>
                                        <ntsc>TRUE</ntsc>
                                    </rate>
                                    <duration>54922</duration>
                                    <timecode>
                                        <rate>
                                            <timebase>30</timebase>
                                            <ntsc>TRUE</ntsc>
                                        </rate>
                                        <string>00:00:00:00</string>
                                        <frame>0</frame>
                                        <displayformat>NDF</displayformat>
                                        <media>
                                            <video/>
                                            <audio/>
                                        </media>
                                    </timecode>
                                </file>
                                <name>/home/davidk/code/python/JC-render/JC-examples/yoga.mp4</name>
                                <rate>
                                    <timebase>30</timebase>
                                    <ntsc>TRUE</ntsc>
                                </rate>
                                <start>45137</start>
                                <end>45170</end>
                            </clipitem>
                            <clipitem frameBlend="FALSE" id="clipitem-896">
                                <media>
                                    <video>
                                        <samplecharacteristics>
                                            <height>720</height>
                                            <width>1270</width>
                                        </samplecharacteristics>
                                    </video>
                                </media>
                                <file id="file-1">
                                    <pathurl>/home/davidk/code/python/JC-render/JC-examples/yoga.mp4</pathurl>
                                    <name>yoga.mp4</name>
                                    <rate>
                                        <timebase>30</timebase>
                                        <ntsc>TRUE</ntsc>
                                    </rate>
                                    <duration>54922</duration>
                                    <timecode>
                                        <rate>
                                            <timebase>30</timebase>
                                            <ntsc>TRUE</ntsc>
                                        </rate>
                                        <string>00:00:00:00</string>
                                        <frame>0</frame>
                                        <displayformat>NDF</displayformat>
                                        <media>
                                            <video/>
                                            <audio/>
                                        </media>
                                    </timecode>
                                </file>
                                <name>/home/davidk/code/python/JC-render/JC-examples/yoga.mp4</name>
                                <rate>
                                    <timebase>30</timebase>
                                    <ntsc>TRUE</ntsc>
                                </rate>
                                <start>45170</start>
                                <end>45179</end>
                            </clipitem>
                            <clipitem frameBlend="FALSE" id="clipitem-897">
                                <media>
                                    <video>
                                        <samplecharacteristics>
                                            <height>720</height>
                                            <width>1270</width>
                                        </samplecharacteristics>
                                    </video>
                                </media>
                                <file id="file-1">
                                    <pathurl>/home/davidk/code/python/JC-render/JC-examples/yoga.mp4</pathurl>
                                    <name>yoga.mp4</name>
                                    <rate>
                                        <timebase>30</timebase>
                                        <ntsc>TRUE</ntsc>
                                    </rate>
                                    <duration>54922</duration>
                                    <timecode>
                                        <rate>
                                            <timebase>30</timebase>
                                            <ntsc>TRUE</ntsc>
                                        </rate>
                                        <string>00:00:00:00</string>
                                        <frame>0</frame>
                                        <displayformat>NDF</displayformat>
                                        <media>
                                            <video/>
                                            <audio/>
                                        </media>
                                    </timecode>
                                </file>
                                <name>/home/davidk/code/python/JC-render/JC-examples/yoga.mp4</name>
                                <rate>
                                    <timebase>30</timebase>
                                    <ntsc>TRUE</ntsc>
                                </rate>
                                <start>45179</start>
                                <end>45243</end>
                            </clipitem>
                            <clipitem frameBlend="FALSE" id="clipitem-898">
                                <media>
                                    <video>
                                        <samplecharacteristics>
                                            <height>720</height>
                                            <width>1270</width>
                                        </samplecharacteristics>
                                    </video>
                                </media>
                                <file id="file-1">
                                    <pathurl>/home/davidk/code/python/JC-render/JC-examples/yoga.mp4</pathurl>
                                    <name>yoga.mp4</name>
                                    <rate>
                                        <timebase>30</timebase>
                                        <ntsc>TRUE</ntsc>
                                    </rate>
                                    <duration>54922</duration>
                                    <timecode>
                                        <rate>
                                            <timebase>30</timebase>
                                            <ntsc>TRUE</ntsc>
                                        </rate>
                                        <string>00:00:00:00</string>
                                        <frame>0</frame>
                                        <displayformat>NDF</displayformat>
                                        <media>
                                            <video/>
                                            <audio/>
                                        </media>
                                    </timecode>
                                </file>
                                <name>/home/davidk/code/python/JC-render/JC-examples/yoga.mp4</name>
                                <rate>
                                    <timebase>30</timebase>
                                    <ntsc>TRUE</ntsc>
                                </rate>
                                <start>45243</start>
                                <end>45273</end>
                            </clipitem>
                            <clipitem frameBlend="FALSE" id="clipitem-899">
                                <media>
                                    <video>
                                        <samplecharacteristics>
                                            <height>720</height>
                                            <width>1270</width>
                                        </samplecharacteristics>
                                    </video>
                                </media>
                                <file id="file-1">
                                    <pathurl>/home/davidk/code/python/JC-render/JC-examples/yoga.mp4</pathurl>
                                    <name>yoga.mp4</name>
                                    <rate>
                                        <timebase>30</timebase>
                                        <ntsc>TRUE</ntsc>
                                    </rate>
                                    <duration>54922</duration>
                                    <timecode>
                                        <rate>
                                            <timebase>30</timebase>
                                            <ntsc>TRUE</ntsc>
                                        </rate>
                                        <string>00:00:00:00</string>
                                        <frame>0</frame>
                                        <displayformat>NDF</displayformat>
                                        <media>
                                            <video/>
                                            <audio/>
                                        </media>
                                    </timecode>
                                </file>
                                <name>/home/davidk/code/python/JC-render/JC-examples/yoga.mp4</name>
                                <rate>
                                    <timebase>30</timebase>
                                    <ntsc>TRUE</ntsc>
                                </rate>
                                <start>45273</start>
                                <end>45365</end>
                            </clipitem>
                            <clipitem frameBlend="FALSE" id="clipitem-900">
                                <media>
                                    <video>
                                        <samplecharacteristics>
                                            <height>720</height>
                                            <width>1270</width>
                                        </samplecharacteristics>
                                    </video>
                                </media>
                                <file id="file-1">
                                    <pathurl>/home/davidk/code/python/JC-render/JC-examples/yoga.mp4</pathurl>
                                    <name>yoga.mp4</name>
                                    <rate>
                                        <timebase>30</timebase>
                                        <ntsc>TRUE</ntsc>
                                    </rate>
                                    <duration>54922</duration>
                                    <timecode>
                                        <rate>
                                            <timebase>30</timebase>
                                            <ntsc>TRUE</ntsc>
                                        </rate>
                                        <string>00:00:00:00</string>
                                        <frame>0</frame>
                                        <displayformat>NDF</displayformat>
                                        <media>
                                            <video/>
                                            <audio/>
                                        </media>
                                    </timecode>
                                </file>
                                <name>/home/davidk/code/python/JC-render/JC-examples/yoga.mp4</name>
                                <rate>
                                    <timebase>30</timebase>
                                    <ntsc>TRUE</ntsc>
                                </rate>
                                <start>45365</start>
                                <end>45370</end>
                            </clipitem>
                            <clipitem frameBlend="FALSE" id="clipitem-901">
                                <media>
                                    <video>
                                        <samplecharacteristics>
                                            <height>720</height>
                                            <width>1270</width>
                                        </samplecharacteristics>
                                    </video>
                                </media>
                                <file id="file-1">
                                    <pathurl>/home/davidk/code/python/JC-render/JC-examples/yoga.mp4</pathurl>
                                    <name>yoga.mp4</name>
                                    <rate>
                                        <timebase>30</timebase>
                                        <ntsc>TRUE</ntsc>
                                    </rate>
                                    <duration>54922</duration>
                                    <timecode>
                                        <rate>
                                            <timebase>30</timebase>
                                            <ntsc>TRUE</ntsc>
                                        </rate>
                                        <string>00:00:00:00</string>
                                        <frame>0</frame>
                                        <displayformat>NDF</displayformat>
                                        <media>
                                            <video/>
                                            <audio/>
                                        </media>
                                    </timecode>
                                </file>
                                <name>/home/davidk/code/python/JC-render/JC-examples/yoga.mp4</name>
                                <rate>
                                    <timebase>30</timebase>
                                    <ntsc>TRUE</ntsc>
                                </rate>
                                <start>45370</start>
                                <end>45393</end>
                            </clipitem>
                            <clipitem frameBlend="FALSE" id="clipitem-902">
                                <media>
                                    <video>
                                        <samplecharacteristics>
                                            <height>720</height>
                                            <width>1270</width>
                                        </samplecharacteristics>
                                    </video>
                                </media>
                                <file id="file-1">
                                    <pathurl>/home/davidk/code/python/JC-render/JC-examples/yoga.mp4</pathurl>
                                    <name>yoga.mp4</name>
                                    <rate>
                                        <timebase>30</timebase>
                                        <ntsc>TRUE</ntsc>
                                    </rate>
                                    <duration>54922</duration>
                                    <timecode>
                                        <rate>
                                            <timebase>30</timebase>
                                            <ntsc>TRUE</ntsc>
                                        </rate>
                                        <string>00:00:00:00</string>
                                        <frame>0</frame>
                                        <displayformat>NDF</displayformat>
                                        <media>
                                            <video/>
                                            <audio/>
                                        </media>
                                    </timecode>
                                </file>
                                <name>/home/davidk/code/python/JC-render/JC-examples/yoga.mp4</name>
                                <rate>
                                    <timebase>30</timebase>
                                    <ntsc>TRUE</ntsc>
                                </rate>
                                <start>45393</start>
                                <end>45409</end>
                            </clipitem>
                            <clipitem frameBlend="FALSE" id="clipitem-903">
                                <media>
                                    <video>
                                        <samplecharacteristics>
                                            <height>720</height>
                                            <width>1270</width>
                                        </samplecharacteristics>
                                    </video>
                                </media>
                                <file id="file-1">
                                    <pathurl>/home/davidk/code/python/JC-render/JC-examples/yoga.mp4</pathurl>
                                    <name>yoga.mp4</name>
                                    <rate>
                                        <timebase>30</timebase>
                                        <ntsc>TRUE</ntsc>
                                    </rate>
                                    <duration>54922</duration>
                                    <timecode>
                                        <rate>
                                            <timebase>30</timebase>
                                            <ntsc>TRUE</ntsc>
                                        </rate>
                                        <string>00:00:00:00</string>
                                        <frame>0</frame>
                                        <displayformat>NDF</displayformat>
                                        <media>
                                            <video/>
                                            <audio/>
                                        </media>
                                    </timecode>
                                </file>
                                <name>/home/davidk/code/python/JC-render/JC-examples/yoga.mp4</name>
                                <rate>
                                    <timebase>30</timebase>
                                    <ntsc>TRUE</ntsc>
                                </rate>
                                <start>45409</start>
                                <end>45445</end>
                            </clipitem>
                            <clipitem frameBlend="FALSE" id="clipitem-904">
                                <media>
                                    <video>
                                        <samplecharacteristics>
                                            <height>720</height>
                                            <width>1270</width>
                                        </samplecharacteristics>
                                    </video>
                                </media>
                                <file id="file-1">
                                    <pathurl>/home/davidk/code/python/JC-render/JC-examples/yoga.mp4</pathurl>
                                    <name>yoga.mp4</name>
                                    <rate>
                                        <timebase>30</timebase>
                                        <ntsc>TRUE</ntsc>
                                    </rate>
                                    <duration>54922</duration>
                                    <timecode>
                                        <rate>
                                            <timebase>30</timebase>
                                            <ntsc>TRUE</ntsc>
                                        </rate>
                                        <string>00:00:00:00</string>
                                        <frame>0</frame>
                                        <displayformat>NDF</displayformat>
                                        <media>
                                            <video/>
                                            <audio/>
                                        </media>
                                    </timecode>
                                </file>
                                <name>/home/davidk/code/python/JC-render/JC-examples/yoga.mp4</name>
                                <rate>
                                    <timebase>30</timebase>
                                    <ntsc>TRUE</ntsc>
                                </rate>
                                <start>45445</start>
                                <end>45534</end>
                            </clipitem>
                            <clipitem frameBlend="FALSE" id="clipitem-905">
                                <media>
                                    <video>
                                        <samplecharacteristics>
                                            <height>720</height>
                                            <width>1270</width>
                                        </samplecharacteristics>
                                    </video>
                                </media>
                                <file id="file-1">
                                    <pathurl>/home/davidk/code/python/JC-render/JC-examples/yoga.mp4</pathurl>
                                    <name>yoga.mp4</name>
                                    <rate>
                                        <timebase>30</timebase>
                                        <ntsc>TRUE</ntsc>
                                    </rate>
                                    <duration>54922</duration>
                                    <timecode>
                                        <rate>
                                            <timebase>30</timebase>
                                            <ntsc>TRUE</ntsc>
                                        </rate>
                                        <string>00:00:00:00</string>
                                        <frame>0</frame>
                                        <displayformat>NDF</displayformat>
                                        <media>
                                            <video/>
                                            <audio/>
                                        </media>
                                    </timecode>
                                </file>
                                <name>/home/davidk/code/python/JC-render/JC-examples/yoga.mp4</name>
                                <rate>
                                    <timebase>30</timebase>
                                    <ntsc>TRUE</ntsc>
                                </rate>
                                <start>45534</start>
                                <end>45577</end>
                            </clipitem>
                            <clipitem frameBlend="FALSE" id="clipitem-906">
                                <media>
                                    <video>
                                        <samplecharacteristics>
                                            <height>720</height>
                                            <width>1270</width>
                                        </samplecharacteristics>
                                    </video>
                                </media>
                                <file id="file-1">
                                    <pathurl>/home/davidk/code/python/JC-render/JC-examples/yoga.mp4</pathurl>
                                    <name>yoga.mp4</name>
                                    <rate>
                                        <timebase>30</timebase>
                                        <ntsc>TRUE</ntsc>
                                    </rate>
                                    <duration>54922</duration>
                                    <timecode>
                                        <rate>
                                            <timebase>30</timebase>
                                            <ntsc>TRUE</ntsc>
                                        </rate>
                                        <string>00:00:00:00</string>
                                        <frame>0</frame>
                                        <displayformat>NDF</displayformat>
                                        <media>
                                            <video/>
                                            <audio/>
                                        </media>
                                    </timecode>
                                </file>
                                <name>/home/davidk/code/python/JC-render/JC-examples/yoga.mp4</name>
                                <rate>
                                    <timebase>30</timebase>
                                    <ntsc>TRUE</ntsc>
                                </rate>
                                <start>45577</start>
                                <end>45687</end>
                            </clipitem>
                            <clipitem frameBlend="FALSE" id="clipitem-907">
                                <media>
                                    <video>
                                        <samplecharacteristics>
                                            <height>720</height>
                                            <width>1270</width>
                                        </samplecharacteristics>
                                    </video>
                                </media>
                                <file id="file-1">
                                    <pathurl>/home/davidk/code/python/JC-render/JC-examples/yoga.mp4</pathurl>
                                    <name>yoga.mp4</name>
                                    <rate>
                                        <timebase>30</timebase>
                                        <ntsc>TRUE</ntsc>
                                    </rate>
                                    <duration>54922</duration>
                                    <timecode>
                                        <rate>
                                            <timebase>30</timebase>
                                            <ntsc>TRUE</ntsc>
                                        </rate>
                                        <string>00:00:00:00</string>
                                        <frame>0</frame>
                                        <displayformat>NDF</displayformat>
                                        <media>
                                            <video/>
                                            <audio/>
                                        </media>
                                    </timecode>
                                </file>
                                <name>/home/davidk/code/python/JC-render/JC-examples/yoga.mp4</name>
                                <rate>
                                    <timebase>30</timebase>
                                    <ntsc>TRUE</ntsc>
                                </rate>
                                <start>45687</start>
                                <end>45738</end>
                            </clipitem>
                            <clipitem frameBlend="FALSE" id="clipitem-908">
                                <media>
                                    <video>
                                        <samplecharacteristics>
                                            <height>720</height>
                                            <width>1270</width>
                                        </samplecharacteristics>
                                    </video>
                                </media>
                                <file id="file-1">
                                    <pathurl>/home/davidk/code/python/JC-render/JC-examples/yoga.mp4</pathurl>
                                    <name>yoga.mp4</name>
                                    <rate>
                                        <timebase>30</timebase>
                                        <ntsc>TRUE</ntsc>
                                    </rate>
                                    <duration>54922</duration>
                                    <timecode>
                                        <rate>
                                            <timebase>30</timebase>
                                            <ntsc>TRUE</ntsc>
                                        </rate>
                                        <string>00:00:00:00</string>
                                        <frame>0</frame>
                                        <displayformat>NDF</displayformat>
                                        <media>
                                            <video/>
                                            <audio/>
                                        </media>
                                    </timecode>
                                </file>
                                <name>/home/davidk/code/python/JC-render/JC-examples/yoga.mp4</name>
                                <rate>
                                    <timebase>30</timebase>
                                    <ntsc>TRUE</ntsc>
                                </rate>
                                <start>45738</start>
                                <end>45990</end>
                            </clipitem>
                            <clipitem frameBlend="FALSE" id="clipitem-909">
                                <media>
                                    <video>
                                        <samplecharacteristics>
                                            <height>720</height>
                                            <width>1270</width>
                                        </samplecharacteristics>
                                    </video>
                                </media>
                                <file id="file-1">
                                    <pathurl>/home/davidk/code/python/JC-render/JC-examples/yoga.mp4</pathurl>
                                    <name>yoga.mp4</name>
                                    <rate>
                                        <timebase>30</timebase>
                                        <ntsc>TRUE</ntsc>
                                    </rate>
                                    <duration>54922</duration>
                                    <timecode>
                                        <rate>
                                            <timebase>30</timebase>
                                            <ntsc>TRUE</ntsc>
                                        </rate>
                                        <string>00:00:00:00</string>
                                        <frame>0</frame>
                                        <displayformat>NDF</displayformat>
                                        <media>
                                            <video/>
                                            <audio/>
                                        </media>
                                    </timecode>
                                </file>
                                <name>/home/davidk/code/python/JC-render/JC-examples/yoga.mp4</name>
                                <rate>
                                    <timebase>30</timebase>
                                    <ntsc>TRUE</ntsc>
                                </rate>
                                <start>45990</start>
                                <end>46065</end>
                            </clipitem>
                            <clipitem frameBlend="FALSE" id="clipitem-910">
                                <media>
                                    <video>
                                        <samplecharacteristics>
                                            <height>720</height>
                                            <width>1270</width>
                                        </samplecharacteristics>
                                    </video>
                                </media>
                                <file id="file-1">
                                    <pathurl>/home/davidk/code/python/JC-render/JC-examples/yoga.mp4</pathurl>
                                    <name>yoga.mp4</name>
                                    <rate>
                                        <timebase>30</timebase>
                                        <ntsc>TRUE</ntsc>
                                    </rate>
                                    <duration>54922</duration>
                                    <timecode>
                                        <rate>
                                            <timebase>30</timebase>
                                            <ntsc>TRUE</ntsc>
                                        </rate>
                                        <string>00:00:00:00</string>
                                        <frame>0</frame>
                                        <displayformat>NDF</displayformat>
                                        <media>
                                            <video/>
                                            <audio/>
                                        </media>
                                    </timecode>
                                </file>
                                <name>/home/davidk/code/python/JC-render/JC-examples/yoga.mp4</name>
                                <rate>
                                    <timebase>30</timebase>
                                    <ntsc>TRUE</ntsc>
                                </rate>
                                <start>46065</start>
                                <end>46088</end>
                            </clipitem>
                            <clipitem frameBlend="FALSE" id="clipitem-911">
                                <media>
                                    <video>
                                        <samplecharacteristics>
                                            <height>720</height>
                                            <width>1270</width>
                                        </samplecharacteristics>
                                    </video>
                                </media>
                                <file id="file-1">
                                    <pathurl>/home/davidk/code/python/JC-render/JC-examples/yoga.mp4</pathurl>
                                    <name>yoga.mp4</name>
                                    <rate>
                                        <timebase>30</timebase>
                                        <ntsc>TRUE</ntsc>
                                    </rate>
                                    <duration>54922</duration>
                                    <timecode>
                                        <rate>
                                            <timebase>30</timebase>
                                            <ntsc>TRUE</ntsc>
                                        </rate>
                                        <string>00:00:00:00</string>
                                        <frame>0</frame>
                                        <displayformat>NDF</displayformat>
                                        <media>
                                            <video/>
                                            <audio/>
                                        </media>
                                    </timecode>
                                </file>
                                <name>/home/davidk/code/python/JC-render/JC-examples/yoga.mp4</name>
                                <rate>
                                    <timebase>30</timebase>
                                    <ntsc>TRUE</ntsc>
                                </rate>
                                <start>46088</start>
                                <end>46114</end>
                            </clipitem>
                            <clipitem frameBlend="FALSE" id="clipitem-912">
                                <media>
                                    <video>
                                        <samplecharacteristics>
                                            <height>720</height>
                                            <width>1270</width>
                                        </samplecharacteristics>
                                    </video>
                                </media>
                                <file id="file-1">
                                    <pathurl>/home/davidk/code/python/JC-render/JC-examples/yoga.mp4</pathurl>
                                    <name>yoga.mp4</name>
                                    <rate>
                                        <timebase>30</timebase>
                                        <ntsc>TRUE</ntsc>
                                    </rate>
                                    <duration>54922</duration>
                                    <timecode>
                                        <rate>
                                            <timebase>30</timebase>
                                            <ntsc>TRUE</ntsc>
                                        </rate>
                                        <string>00:00:00:00</string>
                                        <frame>0</frame>
                                        <displayformat>NDF</displayformat>
                                        <media>
                                            <video/>
                                            <audio/>
                                        </media>
                                    </timecode>
                                </file>
                                <name>/home/davidk/code/python/JC-render/JC-examples/yoga.mp4</name>
                                <rate>
                                    <timebase>30</timebase>
                                    <ntsc>TRUE</ntsc>
                                </rate>
                                <start>46114</start>
                                <end>46429</end>
                            </clipitem>
                            <clipitem frameBlend="FALSE" id="clipitem-913">
                                <media>
                                    <video>
                                        <samplecharacteristics>
                                            <height>720</height>
                                            <width>1270</width>
                                        </samplecharacteristics>
                                    </video>
                                </media>
                                <file id="file-1">
                                    <pathurl>/home/davidk/code/python/JC-render/JC-examples/yoga.mp4</pathurl>
                                    <name>yoga.mp4</name>
                                    <rate>
                                        <timebase>30</timebase>
                                        <ntsc>TRUE</ntsc>
                                    </rate>
                                    <duration>54922</duration>
                                    <timecode>
                                        <rate>
                                            <timebase>30</timebase>
                                            <ntsc>TRUE</ntsc>
                                        </rate>
                                        <string>00:00:00:00</string>
                                        <frame>0</frame>
                                        <displayformat>NDF</displayformat>
                                        <media>
                                            <video/>
                                            <audio/>
                                        </media>
                                    </timecode>
                                </file>
                                <name>/home/davidk/code/python/JC-render/JC-examples/yoga.mp4</name>
                                <rate>
                                    <timebase>30</timebase>
                                    <ntsc>TRUE</ntsc>
                                </rate>
                                <start>46429</start>
                                <end>46476</end>
                            </clipitem>
                            <clipitem frameBlend="FALSE" id="clipitem-914">
                                <media>
                                    <video>
                                        <samplecharacteristics>
                                            <height>720</height>
                                            <width>1270</width>
                                        </samplecharacteristics>
                                    </video>
                                </media>
                                <file id="file-1">
                                    <pathurl>/home/davidk/code/python/JC-render/JC-examples/yoga.mp4</pathurl>
                                    <name>yoga.mp4</name>
                                    <rate>
                                        <timebase>30</timebase>
                                        <ntsc>TRUE</ntsc>
                                    </rate>
                                    <duration>54922</duration>
                                    <timecode>
                                        <rate>
                                            <timebase>30</timebase>
                                            <ntsc>TRUE</ntsc>
                                        </rate>
                                        <string>00:00:00:00</string>
                                        <frame>0</frame>
                                        <displayformat>NDF</displayformat>
                                        <media>
                                            <video/>
                                            <audio/>
                                        </media>
                                    </timecode>
                                </file>
                                <name>/home/davidk/code/python/JC-render/JC-examples/yoga.mp4</name>
                                <rate>
                                    <timebase>30</timebase>
                                    <ntsc>TRUE</ntsc>
                                </rate>
                                <start>46476</start>
                                <end>46673</end>
                            </clipitem>
                            <clipitem frameBlend="FALSE" id="clipitem-915">
                                <media>
                                    <video>
                                        <samplecharacteristics>
                                            <height>720</height>
                                            <width>1270</width>
                                        </samplecharacteristics>
                                    </video>
                                </media>
                                <file id="file-1">
                                    <pathurl>/home/davidk/code/python/JC-render/JC-examples/yoga.mp4</pathurl>
                                    <name>yoga.mp4</name>
                                    <rate>
                                        <timebase>30</timebase>
                                        <ntsc>TRUE</ntsc>
                                    </rate>
                                    <duration>54922</duration>
                                    <timecode>
                                        <rate>
                                            <timebase>30</timebase>
                                            <ntsc>TRUE</ntsc>
                                        </rate>
                                        <string>00:00:00:00</string>
                                        <frame>0</frame>
                                        <displayformat>NDF</displayformat>
                                        <media>
                                            <video/>
                                            <audio/>
                                        </media>
                                    </timecode>
                                </file>
                                <name>/home/davidk/code/python/JC-render/JC-examples/yoga.mp4</name>
                                <rate>
                                    <timebase>30</timebase>
                                    <ntsc>TRUE</ntsc>
                                </rate>
                                <start>46673</start>
                                <end>46741</end>
                            </clipitem>
                            <clipitem frameBlend="FALSE" id="clipitem-916">
                                <media>
                                    <video>
                                        <samplecharacteristics>
                                            <height>720</height>
                                            <width>1270</width>
                                        </samplecharacteristics>
                                    </video>
                                </media>
                                <file id="file-1">
                                    <pathurl>/home/davidk/code/python/JC-render/JC-examples/yoga.mp4</pathurl>
                                    <name>yoga.mp4</name>
                                    <rate>
                                        <timebase>30</timebase>
                                        <ntsc>TRUE</ntsc>
                                    </rate>
                                    <duration>54922</duration>
                                    <timecode>
                                        <rate>
                                            <timebase>30</timebase>
                                            <ntsc>TRUE</ntsc>
                                        </rate>
                                        <string>00:00:00:00</string>
                                        <frame>0</frame>
                                        <displayformat>NDF</displayformat>
                                        <media>
                                            <video/>
                                            <audio/>
                                        </media>
                                    </timecode>
                                </file>
                                <name>/home/davidk/code/python/JC-render/JC-examples/yoga.mp4</name>
                                <rate>
                                    <timebase>30</timebase>
                                    <ntsc>TRUE</ntsc>
                                </rate>
                                <start>46741</start>
                                <end>46886</end>
                            </clipitem>
                            <clipitem frameBlend="FALSE" id="clipitem-917">
                                <media>
                                    <video>
                                        <samplecharacteristics>
                                            <height>720</height>
                                            <width>1270</width>
                                        </samplecharacteristics>
                                    </video>
                                </media>
                                <file id="file-1">
                                    <pathurl>/home/davidk/code/python/JC-render/JC-examples/yoga.mp4</pathurl>
                                    <name>yoga.mp4</name>
                                    <rate>
                                        <timebase>30</timebase>
                                        <ntsc>TRUE</ntsc>
                                    </rate>
                                    <duration>54922</duration>
                                    <timecode>
                                        <rate>
                                            <timebase>30</timebase>
                                            <ntsc>TRUE</ntsc>
                                        </rate>
                                        <string>00:00:00:00</string>
                                        <frame>0</frame>
                                        <displayformat>NDF</displayformat>
                                        <media>
                                            <video/>
                                            <audio/>
                                        </media>
                                    </timecode>
                                </file>
                                <name>/home/davidk/code/python/JC-render/JC-examples/yoga.mp4</name>
                                <rate>
                                    <timebase>30</timebase>
                                    <ntsc>TRUE</ntsc>
                                </rate>
                                <start>46886</start>
                                <end>46950</end>
                            </clipitem>
                            <clipitem frameBlend="FALSE" id="clipitem-918">
                                <media>
                                    <video>
                                        <samplecharacteristics>
                                            <height>720</height>
                                            <width>1270</width>
                                        </samplecharacteristics>
                                    </video>
                                </media>
                                <file id="file-1">
                                    <pathurl>/home/davidk/code/python/JC-render/JC-examples/yoga.mp4</pathurl>
                                    <name>yoga.mp4</name>
                                    <rate>
                                        <timebase>30</timebase>
                                        <ntsc>TRUE</ntsc>
                                    </rate>
                                    <duration>54922</duration>
                                    <timecode>
                                        <rate>
                                            <timebase>30</timebase>
                                            <ntsc>TRUE</ntsc>
                                        </rate>
                                        <string>00:00:00:00</string>
                                        <frame>0</frame>
                                        <displayformat>NDF</displayformat>
                                        <media>
                                            <video/>
                                            <audio/>
                                        </media>
                                    </timecode>
                                </file>
                                <name>/home/davidk/code/python/JC-render/JC-examples/yoga.mp4</name>
                                <rate>
                                    <timebase>30</timebase>
                                    <ntsc>TRUE</ntsc>
                                </rate>
                                <start>46950</start>
                                <end>46955</end>
                            </clipitem>
                            <clipitem frameBlend="FALSE" id="clipitem-919">
                                <media>
                                    <video>
                                        <samplecharacteristics>
                                            <height>720</height>
                                            <width>1270</width>
                                        </samplecharacteristics>
                                    </video>
                                </media>
                                <file id="file-1">
                                    <pathurl>/home/davidk/code/python/JC-render/JC-examples/yoga.mp4</pathurl>
                                    <name>yoga.mp4</name>
                                    <rate>
                                        <timebase>30</timebase>
                                        <ntsc>TRUE</ntsc>
                                    </rate>
                                    <duration>54922</duration>
                                    <timecode>
                                        <rate>
                                            <timebase>30</timebase>
                                            <ntsc>TRUE</ntsc>
                                        </rate>
                                        <string>00:00:00:00</string>
                                        <frame>0</frame>
                                        <displayformat>NDF</displayformat>
                                        <media>
                                            <video/>
                                            <audio/>
                                        </media>
                                    </timecode>
                                </file>
                                <name>/home/davidk/code/python/JC-render/JC-examples/yoga.mp4</name>
                                <rate>
                                    <timebase>30</timebase>
                                    <ntsc>TRUE</ntsc>
                                </rate>
                                <start>46955</start>
                                <end>46988</end>
                            </clipitem>
                            <clipitem frameBlend="FALSE" id="clipitem-920">
                                <media>
                                    <video>
                                        <samplecharacteristics>
                                            <height>720</height>
                                            <width>1270</width>
                                        </samplecharacteristics>
                                    </video>
                                </media>
                                <file id="file-1">
                                    <pathurl>/home/davidk/code/python/JC-render/JC-examples/yoga.mp4</pathurl>
                                    <name>yoga.mp4</name>
                                    <rate>
                                        <timebase>30</timebase>
                                        <ntsc>TRUE</ntsc>
                                    </rate>
                                    <duration>54922</duration>
                                    <timecode>
                                        <rate>
                                            <timebase>30</timebase>
                                            <ntsc>TRUE</ntsc>
                                        </rate>
                                        <string>00:00:00:00</string>
                                        <frame>0</frame>
                                        <displayformat>NDF</displayformat>
                                        <media>
                                            <video/>
                                            <audio/>
                                        </media>
                                    </timecode>
                                </file>
                                <name>/home/davidk/code/python/JC-render/JC-examples/yoga.mp4</name>
                                <rate>
                                    <timebase>30</timebase>
                                    <ntsc>TRUE</ntsc>
                                </rate>
                                <start>46988</start>
                                <end>47018</end>
                            </clipitem>
                            <clipitem frameBlend="FALSE" id="clipitem-921">
                                <media>
                                    <video>
                                        <samplecharacteristics>
                                            <height>720</height>
                                            <width>1270</width>
                                        </samplecharacteristics>
                                    </video>
                                </media>
                                <file id="file-1">
                                    <pathurl>/home/davidk/code/python/JC-render/JC-examples/yoga.mp4</pathurl>
                                    <name>yoga.mp4</name>
                                    <rate>
                                        <timebase>30</timebase>
                                        <ntsc>TRUE</ntsc>
                                    </rate>
                                    <duration>54922</duration>
                                    <timecode>
                                        <rate>
                                            <timebase>30</timebase>
                                            <ntsc>TRUE</ntsc>
                                        </rate>
                                        <string>00:00:00:00</string>
                                        <frame>0</frame>
                                        <displayformat>NDF</displayformat>
                                        <media>
                                            <video/>
                                            <audio/>
                                        </media>
                                    </timecode>
                                </file>
                                <name>/home/davidk/code/python/JC-render/JC-examples/yoga.mp4</name>
                                <rate>
                                    <timebase>30</timebase>
                                    <ntsc>TRUE</ntsc>
                                </rate>
                                <start>47018</start>
                                <end>47047</end>
                            </clipitem>
                            <clipitem frameBlend="FALSE" id="clipitem-922">
                                <media>
                                    <video>
                                        <samplecharacteristics>
                                            <height>720</height>
                                            <width>1270</width>
                                        </samplecharacteristics>
                                    </video>
                                </media>
                                <file id="file-1">
                                    <pathurl>/home/davidk/code/python/JC-render/JC-examples/yoga.mp4</pathurl>
                                    <name>yoga.mp4</name>
                                    <rate>
                                        <timebase>30</timebase>
                                        <ntsc>TRUE</ntsc>
                                    </rate>
                                    <duration>54922</duration>
                                    <timecode>
                                        <rate>
                                            <timebase>30</timebase>
                                            <ntsc>TRUE</ntsc>
                                        </rate>
                                        <string>00:00:00:00</string>
                                        <frame>0</frame>
                                        <displayformat>NDF</displayformat>
                                        <media>
                                            <video/>
                                            <audio/>
                                        </media>
                                    </timecode>
                                </file>
                                <name>/home/davidk/code/python/JC-render/JC-examples/yoga.mp4</name>
                                <rate>
                                    <timebase>30</timebase>
                                    <ntsc>TRUE</ntsc>
                                </rate>
                                <start>47047</start>
                                <end>47133</end>
                            </clipitem>
                            <clipitem frameBlend="FALSE" id="clipitem-923">
                                <media>
                                    <video>
                                        <samplecharacteristics>
                                            <height>720</height>
                                            <width>1270</width>
                                        </samplecharacteristics>
                                    </video>
                                </media>
                                <file id="file-1">
                                    <pathurl>/home/davidk/code/python/JC-render/JC-examples/yoga.mp4</pathurl>
                                    <name>yoga.mp4</name>
                                    <rate>
                                        <timebase>30</timebase>
                                        <ntsc>TRUE</ntsc>
                                    </rate>
                                    <duration>54922</duration>
                                    <timecode>
                                        <rate>
                                            <timebase>30</timebase>
                                            <ntsc>TRUE</ntsc>
                                        </rate>
                                        <string>00:00:00:00</string>
                                        <frame>0</frame>
                                        <displayformat>NDF</displayformat>
                                        <media>
                                            <video/>
                                            <audio/>
                                        </media>
                                    </timecode>
                                </file>
                                <name>/home/davidk/code/python/JC-render/JC-examples/yoga.mp4</name>
                                <rate>
                                    <timebase>30</timebase>
                                    <ntsc>TRUE</ntsc>
                                </rate>
                                <start>47133</start>
                                <end>47155</end>
                            </clipitem>
                            <clipitem frameBlend="FALSE" id="clipitem-924">
                                <media>
                                    <video>
                                        <samplecharacteristics>
                                            <height>720</height>
                                            <width>1270</width>
                                        </samplecharacteristics>
                                    </video>
                                </media>
                                <file id="file-1">
                                    <pathurl>/home/davidk/code/python/JC-render/JC-examples/yoga.mp4</pathurl>
                                    <name>yoga.mp4</name>
                                    <rate>
                                        <timebase>30</timebase>
                                        <ntsc>TRUE</ntsc>
                                    </rate>
                                    <duration>54922</duration>
                                    <timecode>
                                        <rate>
                                            <timebase>30</timebase>
                                            <ntsc>TRUE</ntsc>
                                        </rate>
                                        <string>00:00:00:00</string>
                                        <frame>0</frame>
                                        <displayformat>NDF</displayformat>
                                        <media>
                                            <video/>
                                            <audio/>
                                        </media>
                                    </timecode>
                                </file>
                                <name>/home/davidk/code/python/JC-render/JC-examples/yoga.mp4</name>
                                <rate>
                                    <timebase>30</timebase>
                                    <ntsc>TRUE</ntsc>
                                </rate>
                                <start>47155</start>
                                <end>47164</end>
                            </clipitem>
                            <clipitem frameBlend="FALSE" id="clipitem-925">
                                <media>
                                    <video>
                                        <samplecharacteristics>
                                            <height>720</height>
                                            <width>1270</width>
                                        </samplecharacteristics>
                                    </video>
                                </media>
                                <file id="file-1">
                                    <pathurl>/home/davidk/code/python/JC-render/JC-examples/yoga.mp4</pathurl>
                                    <name>yoga.mp4</name>
                                    <rate>
                                        <timebase>30</timebase>
                                        <ntsc>TRUE</ntsc>
                                    </rate>
                                    <duration>54922</duration>
                                    <timecode>
                                        <rate>
                                            <timebase>30</timebase>
                                            <ntsc>TRUE</ntsc>
                                        </rate>
                                        <string>00:00:00:00</string>
                                        <frame>0</frame>
                                        <displayformat>NDF</displayformat>
                                        <media>
                                            <video/>
                                            <audio/>
                                        </media>
                                    </timecode>
                                </file>
                                <name>/home/davidk/code/python/JC-render/JC-examples/yoga.mp4</name>
                                <rate>
                                    <timebase>30</timebase>
                                    <ntsc>TRUE</ntsc>
                                </rate>
                                <start>47164</start>
                                <end>47190</end>
                            </clipitem>
                            <clipitem frameBlend="FALSE" id="clipitem-926">
                                <media>
                                    <video>
                                        <samplecharacteristics>
                                            <height>720</height>
                                            <width>1270</width>
                                        </samplecharacteristics>
                                    </video>
                                </media>
                                <file id="file-1">
                                    <pathurl>/home/davidk/code/python/JC-render/JC-examples/yoga.mp4</pathurl>
                                    <name>yoga.mp4</name>
                                    <rate>
                                        <timebase>30</timebase>
                                        <ntsc>TRUE</ntsc>
                                    </rate>
                                    <duration>54922</duration>
                                    <timecode>
                                        <rate>
                                            <timebase>30</timebase>
                                            <ntsc>TRUE</ntsc>
                                        </rate>
                                        <string>00:00:00:00</string>
                                        <frame>0</frame>
                                        <displayformat>NDF</displayformat>
                                        <media>
                                            <video/>
                                            <audio/>
                                        </media>
                                    </timecode>
                                </file>
                                <name>/home/davidk/code/python/JC-render/JC-examples/yoga.mp4</name>
                                <rate>
                                    <timebase>30</timebase>
                                    <ntsc>TRUE</ntsc>
                                </rate>
                                <start>47190</start>
                                <end>47230</end>
                            </clipitem>
                            <clipitem frameBlend="FALSE" id="clipitem-927">
                                <media>
                                    <video>
                                        <samplecharacteristics>
                                            <height>720</height>
                                            <width>1270</width>
                                        </samplecharacteristics>
                                    </video>
                                </media>
                                <file id="file-1">
                                    <pathurl>/home/davidk/code/python/JC-render/JC-examples/yoga.mp4</pathurl>
                                    <name>yoga.mp4</name>
                                    <rate>
                                        <timebase>30</timebase>
                                        <ntsc>TRUE</ntsc>
                                    </rate>
                                    <duration>54922</duration>
                                    <timecode>
                                        <rate>
                                            <timebase>30</timebase>
                                            <ntsc>TRUE</ntsc>
                                        </rate>
                                        <string>00:00:00:00</string>
                                        <frame>0</frame>
                                        <displayformat>NDF</displayformat>
                                        <media>
                                            <video/>
                                            <audio/>
                                        </media>
                                    </timecode>
                                </file>
                                <name>/home/davidk/code/python/JC-render/JC-examples/yoga.mp4</name>
                                <rate>
                                    <timebase>30</timebase>
                                    <ntsc>TRUE</ntsc>
                                </rate>
                                <start>47230</start>
                                <end>47253</end>
                            </clipitem>
                            <clipitem frameBlend="FALSE" id="clipitem-928">
                                <media>
                                    <video>
                                        <samplecharacteristics>
                                            <height>720</height>
                                            <width>1270</width>
                                        </samplecharacteristics>
                                    </video>
                                </media>
                                <file id="file-1">
                                    <pathurl>/home/davidk/code/python/JC-render/JC-examples/yoga.mp4</pathurl>
                                    <name>yoga.mp4</name>
                                    <rate>
                                        <timebase>30</timebase>
                                        <ntsc>TRUE</ntsc>
                                    </rate>
                                    <duration>54922</duration>
                                    <timecode>
                                        <rate>
                                            <timebase>30</timebase>
                                            <ntsc>TRUE</ntsc>
                                        </rate>
                                        <string>00:00:00:00</string>
                                        <frame>0</frame>
                                        <displayformat>NDF</displayformat>
                                        <media>
                                            <video/>
                                            <audio/>
                                        </media>
                                    </timecode>
                                </file>
                                <name>/home/davidk/code/python/JC-render/JC-examples/yoga.mp4</name>
                                <rate>
                                    <timebase>30</timebase>
                                    <ntsc>TRUE</ntsc>
                                </rate>
                                <start>47253</start>
                                <end>47349</end>
                            </clipitem>
                            <clipitem frameBlend="FALSE" id="clipitem-929">
                                <media>
                                    <video>
                                        <samplecharacteristics>
                                            <height>720</height>
                                            <width>1270</width>
                                        </samplecharacteristics>
                                    </video>
                                </media>
                                <file id="file-1">
                                    <pathurl>/home/davidk/code/python/JC-render/JC-examples/yoga.mp4</pathurl>
                                    <name>yoga.mp4</name>
                                    <rate>
                                        <timebase>30</timebase>
                                        <ntsc>TRUE</ntsc>
                                    </rate>
                                    <duration>54922</duration>
                                    <timecode>
                                        <rate>
                                            <timebase>30</timebase>
                                            <ntsc>TRUE</ntsc>
                                        </rate>
                                        <string>00:00:00:00</string>
                                        <frame>0</frame>
                                        <displayformat>NDF</displayformat>
                                        <media>
                                            <video/>
                                            <audio/>
                                        </media>
                                    </timecode>
                                </file>
                                <name>/home/davidk/code/python/JC-render/JC-examples/yoga.mp4</name>
                                <rate>
                                    <timebase>30</timebase>
                                    <ntsc>TRUE</ntsc>
                                </rate>
                                <start>47349</start>
                                <end>47378</end>
                            </clipitem>
                            <clipitem frameBlend="FALSE" id="clipitem-930">
                                <media>
                                    <video>
                                        <samplecharacteristics>
                                            <height>720</height>
                                            <width>1270</width>
                                        </samplecharacteristics>
                                    </video>
                                </media>
                                <file id="file-1">
                                    <pathurl>/home/davidk/code/python/JC-render/JC-examples/yoga.mp4</pathurl>
                                    <name>yoga.mp4</name>
                                    <rate>
                                        <timebase>30</timebase>
                                        <ntsc>TRUE</ntsc>
                                    </rate>
                                    <duration>54922</duration>
                                    <timecode>
                                        <rate>
                                            <timebase>30</timebase>
                                            <ntsc>TRUE</ntsc>
                                        </rate>
                                        <string>00:00:00:00</string>
                                        <frame>0</frame>
                                        <displayformat>NDF</displayformat>
                                        <media>
                                            <video/>
                                            <audio/>
                                        </media>
                                    </timecode>
                                </file>
                                <name>/home/davidk/code/python/JC-render/JC-examples/yoga.mp4</name>
                                <rate>
                                    <timebase>30</timebase>
                                    <ntsc>TRUE</ntsc>
                                </rate>
                                <start>47378</start>
                                <end>47380</end>
                            </clipitem>
                            <clipitem frameBlend="FALSE" id="clipitem-931">
                                <media>
                                    <video>
                                        <samplecharacteristics>
                                            <height>720</height>
                                            <width>1270</width>
                                        </samplecharacteristics>
                                    </video>
                                </media>
                                <file id="file-1">
                                    <pathurl>/home/davidk/code/python/JC-render/JC-examples/yoga.mp4</pathurl>
                                    <name>yoga.mp4</name>
                                    <rate>
                                        <timebase>30</timebase>
                                        <ntsc>TRUE</ntsc>
                                    </rate>
                                    <duration>54922</duration>
                                    <timecode>
                                        <rate>
                                            <timebase>30</timebase>
                                            <ntsc>TRUE</ntsc>
                                        </rate>
                                        <string>00:00:00:00</string>
                                        <frame>0</frame>
                                        <displayformat>NDF</displayformat>
                                        <media>
                                            <video/>
                                            <audio/>
                                        </media>
                                    </timecode>
                                </file>
                                <name>/home/davidk/code/python/JC-render/JC-examples/yoga.mp4</name>
                                <rate>
                                    <timebase>30</timebase>
                                    <ntsc>TRUE</ntsc>
                                </rate>
                                <start>47380</start>
                                <end>47413</end>
                            </clipitem>
                            <clipitem frameBlend="FALSE" id="clipitem-932">
                                <media>
                                    <video>
                                        <samplecharacteristics>
                                            <height>720</height>
                                            <width>1270</width>
                                        </samplecharacteristics>
                                    </video>
                                </media>
                                <file id="file-1">
                                    <pathurl>/home/davidk/code/python/JC-render/JC-examples/yoga.mp4</pathurl>
                                    <name>yoga.mp4</name>
                                    <rate>
                                        <timebase>30</timebase>
                                        <ntsc>TRUE</ntsc>
                                    </rate>
                                    <duration>54922</duration>
                                    <timecode>
                                        <rate>
                                            <timebase>30</timebase>
                                            <ntsc>TRUE</ntsc>
                                        </rate>
                                        <string>00:00:00:00</string>
                                        <frame>0</frame>
                                        <displayformat>NDF</displayformat>
                                        <media>
                                            <video/>
                                            <audio/>
                                        </media>
                                    </timecode>
                                </file>
                                <name>/home/davidk/code/python/JC-render/JC-examples/yoga.mp4</name>
                                <rate>
                                    <timebase>30</timebase>
                                    <ntsc>TRUE</ntsc>
                                </rate>
                                <start>47413</start>
                                <end>47432</end>
                            </clipitem>
                            <clipitem frameBlend="FALSE" id="clipitem-933">
                                <media>
                                    <video>
                                        <samplecharacteristics>
                                            <height>720</height>
                                            <width>1270</width>
                                        </samplecharacteristics>
                                    </video>
                                </media>
                                <file id="file-1">
                                    <pathurl>/home/davidk/code/python/JC-render/JC-examples/yoga.mp4</pathurl>
                                    <name>yoga.mp4</name>
                                    <rate>
                                        <timebase>30</timebase>
                                        <ntsc>TRUE</ntsc>
                                    </rate>
                                    <duration>54922</duration>
                                    <timecode>
                                        <rate>
                                            <timebase>30</timebase>
                                            <ntsc>TRUE</ntsc>
                                        </rate>
                                        <string>00:00:00:00</string>
                                        <frame>0</frame>
                                        <displayformat>NDF</displayformat>
                                        <media>
                                            <video/>
                                            <audio/>
                                        </media>
                                    </timecode>
                                </file>
                                <name>/home/davidk/code/python/JC-render/JC-examples/yoga.mp4</name>
                                <rate>
                                    <timebase>30</timebase>
                                    <ntsc>TRUE</ntsc>
                                </rate>
                                <start>47432</start>
                                <end>47451</end>
                            </clipitem>
                            <clipitem frameBlend="FALSE" id="clipitem-934">
                                <media>
                                    <video>
                                        <samplecharacteristics>
                                            <height>720</height>
                                            <width>1270</width>
                                        </samplecharacteristics>
                                    </video>
                                </media>
                                <file id="file-1">
                                    <pathurl>/home/davidk/code/python/JC-render/JC-examples/yoga.mp4</pathurl>
                                    <name>yoga.mp4</name>
                                    <rate>
                                        <timebase>30</timebase>
                                        <ntsc>TRUE</ntsc>
                                    </rate>
                                    <duration>54922</duration>
                                    <timecode>
                                        <rate>
                                            <timebase>30</timebase>
                                            <ntsc>TRUE</ntsc>
                                        </rate>
                                        <string>00:00:00:00</string>
                                        <frame>0</frame>
                                        <displayformat>NDF</displayformat>
                                        <media>
                                            <video/>
                                            <audio/>
                                        </media>
                                    </timecode>
                                </file>
                                <name>/home/davidk/code/python/JC-render/JC-examples/yoga.mp4</name>
                                <rate>
                                    <timebase>30</timebase>
                                    <ntsc>TRUE</ntsc>
                                </rate>
                                <start>47451</start>
                                <end>47474</end>
                            </clipitem>
                            <clipitem frameBlend="FALSE" id="clipitem-935">
                                <media>
                                    <video>
                                        <samplecharacteristics>
                                            <height>720</height>
                                            <width>1270</width>
                                        </samplecharacteristics>
                                    </video>
                                </media>
                                <file id="file-1">
                                    <pathurl>/home/davidk/code/python/JC-render/JC-examples/yoga.mp4</pathurl>
                                    <name>yoga.mp4</name>
                                    <rate>
                                        <timebase>30</timebase>
                                        <ntsc>TRUE</ntsc>
                                    </rate>
                                    <duration>54922</duration>
                                    <timecode>
                                        <rate>
                                            <timebase>30</timebase>
                                            <ntsc>TRUE</ntsc>
                                        </rate>
                                        <string>00:00:00:00</string>
                                        <frame>0</frame>
                                        <displayformat>NDF</displayformat>
                                        <media>
                                            <video/>
                                            <audio/>
                                        </media>
                                    </timecode>
                                </file>
                                <name>/home/davidk/code/python/JC-render/JC-examples/yoga.mp4</name>
                                <rate>
                                    <timebase>30</timebase>
                                    <ntsc>TRUE</ntsc>
                                </rate>
                                <start>47474</start>
                                <end>47500</end>
                            </clipitem>
                            <clipitem frameBlend="FALSE" id="clipitem-936">
                                <media>
                                    <video>
                                        <samplecharacteristics>
                                            <height>720</height>
                                            <width>1270</width>
                                        </samplecharacteristics>
                                    </video>
                                </media>
                                <file id="file-1">
                                    <pathurl>/home/davidk/code/python/JC-render/JC-examples/yoga.mp4</pathurl>
                                    <name>yoga.mp4</name>
                                    <rate>
                                        <timebase>30</timebase>
                                        <ntsc>TRUE</ntsc>
                                    </rate>
                                    <duration>54922</duration>
                                    <timecode>
                                        <rate>
                                            <timebase>30</timebase>
                                            <ntsc>TRUE</ntsc>
                                        </rate>
                                        <string>00:00:00:00</string>
                                        <frame>0</frame>
                                        <displayformat>NDF</displayformat>
                                        <media>
                                            <video/>
                                            <audio/>
                                        </media>
                                    </timecode>
                                </file>
                                <name>/home/davidk/code/python/JC-render/JC-examples/yoga.mp4</name>
                                <rate>
                                    <timebase>30</timebase>
                                    <ntsc>TRUE</ntsc>
                                </rate>
                                <start>47500</start>
                                <end>47530</end>
                            </clipitem>
                            <clipitem frameBlend="FALSE" id="clipitem-937">
                                <media>
                                    <video>
                                        <samplecharacteristics>
                                            <height>720</height>
                                            <width>1270</width>
                                        </samplecharacteristics>
                                    </video>
                                </media>
                                <file id="file-1">
                                    <pathurl>/home/davidk/code/python/JC-render/JC-examples/yoga.mp4</pathurl>
                                    <name>yoga.mp4</name>
                                    <rate>
                                        <timebase>30</timebase>
                                        <ntsc>TRUE</ntsc>
                                    </rate>
                                    <duration>54922</duration>
                                    <timecode>
                                        <rate>
                                            <timebase>30</timebase>
                                            <ntsc>TRUE</ntsc>
                                        </rate>
                                        <string>00:00:00:00</string>
                                        <frame>0</frame>
                                        <displayformat>NDF</displayformat>
                                        <media>
                                            <video/>
                                            <audio/>
                                        </media>
                                    </timecode>
                                </file>
                                <name>/home/davidk/code/python/JC-render/JC-examples/yoga.mp4</name>
                                <rate>
                                    <timebase>30</timebase>
                                    <ntsc>TRUE</ntsc>
                                </rate>
                                <start>47530</start>
                                <end>47584</end>
                            </clipitem>
                            <clipitem frameBlend="FALSE" id="clipitem-938">
                                <media>
                                    <video>
                                        <samplecharacteristics>
                                            <height>720</height>
                                            <width>1270</width>
                                        </samplecharacteristics>
                                    </video>
                                </media>
                                <file id="file-1">
                                    <pathurl>/home/davidk/code/python/JC-render/JC-examples/yoga.mp4</pathurl>
                                    <name>yoga.mp4</name>
                                    <rate>
                                        <timebase>30</timebase>
                                        <ntsc>TRUE</ntsc>
                                    </rate>
                                    <duration>54922</duration>
                                    <timecode>
                                        <rate>
                                            <timebase>30</timebase>
                                            <ntsc>TRUE</ntsc>
                                        </rate>
                                        <string>00:00:00:00</string>
                                        <frame>0</frame>
                                        <displayformat>NDF</displayformat>
                                        <media>
                                            <video/>
                                            <audio/>
                                        </media>
                                    </timecode>
                                </file>
                                <name>/home/davidk/code/python/JC-render/JC-examples/yoga.mp4</name>
                                <rate>
                                    <timebase>30</timebase>
                                    <ntsc>TRUE</ntsc>
                                </rate>
                                <start>47584</start>
                                <end>47659</end>
                            </clipitem>
                            <clipitem frameBlend="FALSE" id="clipitem-939">
                                <media>
                                    <video>
                                        <samplecharacteristics>
                                            <height>720</height>
                                            <width>1270</width>
                                        </samplecharacteristics>
                                    </video>
                                </media>
                                <file id="file-1">
                                    <pathurl>/home/davidk/code/python/JC-render/JC-examples/yoga.mp4</pathurl>
                                    <name>yoga.mp4</name>
                                    <rate>
                                        <timebase>30</timebase>
                                        <ntsc>TRUE</ntsc>
                                    </rate>
                                    <duration>54922</duration>
                                    <timecode>
                                        <rate>
                                            <timebase>30</timebase>
                                            <ntsc>TRUE</ntsc>
                                        </rate>
                                        <string>00:00:00:00</string>
                                        <frame>0</frame>
                                        <displayformat>NDF</displayformat>
                                        <media>
                                            <video/>
                                            <audio/>
                                        </media>
                                    </timecode>
                                </file>
                                <name>/home/davidk/code/python/JC-render/JC-examples/yoga.mp4</name>
                                <rate>
                                    <timebase>30</timebase>
                                    <ntsc>TRUE</ntsc>
                                </rate>
                                <start>47659</start>
                                <end>47688</end>
                            </clipitem>
                            <clipitem frameBlend="FALSE" id="clipitem-940">
                                <media>
                                    <video>
                                        <samplecharacteristics>
                                            <height>720</height>
                                            <width>1270</width>
                                        </samplecharacteristics>
                                    </video>
                                </media>
                                <file id="file-1">
                                    <pathurl>/home/davidk/code/python/JC-render/JC-examples/yoga.mp4</pathurl>
                                    <name>yoga.mp4</name>
                                    <rate>
                                        <timebase>30</timebase>
                                        <ntsc>TRUE</ntsc>
                                    </rate>
                                    <duration>54922</duration>
                                    <timecode>
                                        <rate>
                                            <timebase>30</timebase>
                                            <ntsc>TRUE</ntsc>
                                        </rate>
                                        <string>00:00:00:00</string>
                                        <frame>0</frame>
                                        <displayformat>NDF</displayformat>
                                        <media>
                                            <video/>
                                            <audio/>
                                        </media>
                                    </timecode>
                                </file>
                                <name>/home/davidk/code/python/JC-render/JC-examples/yoga.mp4</name>
                                <rate>
                                    <timebase>30</timebase>
                                    <ntsc>TRUE</ntsc>
                                </rate>
                                <start>47688</start>
                                <end>47746</end>
                            </clipitem>
                            <clipitem frameBlend="FALSE" id="clipitem-941">
                                <media>
                                    <video>
                                        <samplecharacteristics>
                                            <height>720</height>
                                            <width>1270</width>
                                        </samplecharacteristics>
                                    </video>
                                </media>
                                <file id="file-1">
                                    <pathurl>/home/davidk/code/python/JC-render/JC-examples/yoga.mp4</pathurl>
                                    <name>yoga.mp4</name>
                                    <rate>
                                        <timebase>30</timebase>
                                        <ntsc>TRUE</ntsc>
                                    </rate>
                                    <duration>54922</duration>
                                    <timecode>
                                        <rate>
                                            <timebase>30</timebase>
                                            <ntsc>TRUE</ntsc>
                                        </rate>
                                        <string>00:00:00:00</string>
                                        <frame>0</frame>
                                        <displayformat>NDF</displayformat>
                                        <media>
                                            <video/>
                                            <audio/>
                                        </media>
                                    </timecode>
                                </file>
                                <name>/home/davidk/code/python/JC-render/JC-examples/yoga.mp4</name>
                                <rate>
                                    <timebase>30</timebase>
                                    <ntsc>TRUE</ntsc>
                                </rate>
                                <start>47746</start>
                                <end>47779</end>
                            </clipitem>
                            <clipitem frameBlend="FALSE" id="clipitem-942">
                                <media>
                                    <video>
                                        <samplecharacteristics>
                                            <height>720</height>
                                            <width>1270</width>
                                        </samplecharacteristics>
                                    </video>
                                </media>
                                <file id="file-1">
                                    <pathurl>/home/davidk/code/python/JC-render/JC-examples/yoga.mp4</pathurl>
                                    <name>yoga.mp4</name>
                                    <rate>
                                        <timebase>30</timebase>
                                        <ntsc>TRUE</ntsc>
                                    </rate>
                                    <duration>54922</duration>
                                    <timecode>
                                        <rate>
                                            <timebase>30</timebase>
                                            <ntsc>TRUE</ntsc>
                                        </rate>
                                        <string>00:00:00:00</string>
                                        <frame>0</frame>
                                        <displayformat>NDF</displayformat>
                                        <media>
                                            <video/>
                                            <audio/>
                                        </media>
                                    </timecode>
                                </file>
                                <name>/home/davidk/code/python/JC-render/JC-examples/yoga.mp4</name>
                                <rate>
                                    <timebase>30</timebase>
                                    <ntsc>TRUE</ntsc>
                                </rate>
                                <start>47779</start>
                                <end>47809</end>
                            </clipitem>
                            <clipitem frameBlend="FALSE" id="clipitem-943">
                                <media>
                                    <video>
                                        <samplecharacteristics>
                                            <height>720</height>
                                            <width>1270</width>
                                        </samplecharacteristics>
                                    </video>
                                </media>
                                <file id="file-1">
                                    <pathurl>/home/davidk/code/python/JC-render/JC-examples/yoga.mp4</pathurl>
                                    <name>yoga.mp4</name>
                                    <rate>
                                        <timebase>30</timebase>
                                        <ntsc>TRUE</ntsc>
                                    </rate>
                                    <duration>54922</duration>
                                    <timecode>
                                        <rate>
                                            <timebase>30</timebase>
                                            <ntsc>TRUE</ntsc>
                                        </rate>
                                        <string>00:00:00:00</string>
                                        <frame>0</frame>
                                        <displayformat>NDF</displayformat>
                                        <media>
                                            <video/>
                                            <audio/>
                                        </media>
                                    </timecode>
                                </file>
                                <name>/home/davidk/code/python/JC-render/JC-examples/yoga.mp4</name>
                                <rate>
                                    <timebase>30</timebase>
                                    <ntsc>TRUE</ntsc>
                                </rate>
                                <start>47809</start>
                                <end>47873</end>
                            </clipitem>
                            <clipitem frameBlend="FALSE" id="clipitem-944">
                                <media>
                                    <video>
                                        <samplecharacteristics>
                                            <height>720</height>
                                            <width>1270</width>
                                        </samplecharacteristics>
                                    </video>
                                </media>
                                <file id="file-1">
                                    <pathurl>/home/davidk/code/python/JC-render/JC-examples/yoga.mp4</pathurl>
                                    <name>yoga.mp4</name>
                                    <rate>
                                        <timebase>30</timebase>
                                        <ntsc>TRUE</ntsc>
                                    </rate>
                                    <duration>54922</duration>
                                    <timecode>
                                        <rate>
                                            <timebase>30</timebase>
                                            <ntsc>TRUE</ntsc>
                                        </rate>
                                        <string>00:00:00:00</string>
                                        <frame>0</frame>
                                        <displayformat>NDF</displayformat>
                                        <media>
                                            <video/>
                                            <audio/>
                                        </media>
                                    </timecode>
                                </file>
                                <name>/home/davidk/code/python/JC-render/JC-examples/yoga.mp4</name>
                                <rate>
                                    <timebase>30</timebase>
                                    <ntsc>TRUE</ntsc>
                                </rate>
                                <start>47873</start>
                                <end>47899</end>
                            </clipitem>
                            <clipitem frameBlend="FALSE" id="clipitem-945">
                                <media>
                                    <video>
                                        <samplecharacteristics>
                                            <height>720</height>
                                            <width>1270</width>
                                        </samplecharacteristics>
                                    </video>
                                </media>
                                <file id="file-1">
                                    <pathurl>/home/davidk/code/python/JC-render/JC-examples/yoga.mp4</pathurl>
                                    <name>yoga.mp4</name>
                                    <rate>
                                        <timebase>30</timebase>
                                        <ntsc>TRUE</ntsc>
                                    </rate>
                                    <duration>54922</duration>
                                    <timecode>
                                        <rate>
                                            <timebase>30</timebase>
                                            <ntsc>TRUE</ntsc>
                                        </rate>
                                        <string>00:00:00:00</string>
                                        <frame>0</frame>
                                        <displayformat>NDF</displayformat>
                                        <media>
                                            <video/>
                                            <audio/>
                                        </media>
                                    </timecode>
                                </file>
                                <name>/home/davidk/code/python/JC-render/JC-examples/yoga.mp4</name>
                                <rate>
                                    <timebase>30</timebase>
                                    <ntsc>TRUE</ntsc>
                                </rate>
                                <start>47899</start>
                                <end>47922</end>
                            </clipitem>
                            <clipitem frameBlend="FALSE" id="clipitem-946">
                                <media>
                                    <video>
                                        <samplecharacteristics>
                                            <height>720</height>
                                            <width>1270</width>
                                        </samplecharacteristics>
                                    </video>
                                </media>
                                <file id="file-1">
                                    <pathurl>/home/davidk/code/python/JC-render/JC-examples/yoga.mp4</pathurl>
                                    <name>yoga.mp4</name>
                                    <rate>
                                        <timebase>30</timebase>
                                        <ntsc>TRUE</ntsc>
                                    </rate>
                                    <duration>54922</duration>
                                    <timecode>
                                        <rate>
                                            <timebase>30</timebase>
                                            <ntsc>TRUE</ntsc>
                                        </rate>
                                        <string>00:00:00:00</string>
                                        <frame>0</frame>
                                        <displayformat>NDF</displayformat>
                                        <media>
                                            <video/>
                                            <audio/>
                                        </media>
                                    </timecode>
                                </file>
                                <name>/home/davidk/code/python/JC-render/JC-examples/yoga.mp4</name>
                                <rate>
                                    <timebase>30</timebase>
                                    <ntsc>TRUE</ntsc>
                                </rate>
                                <start>47922</start>
                                <end>47927</end>
                            </clipitem>
                            <clipitem frameBlend="FALSE" id="clipitem-947">
                                <media>
                                    <video>
                                        <samplecharacteristics>
                                            <height>720</height>
                                            <width>1270</width>
                                        </samplecharacteristics>
                                    </video>
                                </media>
                                <file id="file-1">
                                    <pathurl>/home/davidk/code/python/JC-render/JC-examples/yoga.mp4</pathurl>
                                    <name>yoga.mp4</name>
                                    <rate>
                                        <timebase>30</timebase>
                                        <ntsc>TRUE</ntsc>
                                    </rate>
                                    <duration>54922</duration>
                                    <timecode>
                                        <rate>
                                            <timebase>30</timebase>
                                            <ntsc>TRUE</ntsc>
                                        </rate>
                                        <string>00:00:00:00</string>
                                        <frame>0</frame>
                                        <displayformat>NDF</displayformat>
                                        <media>
                                            <video/>
                                            <audio/>
                                        </media>
                                    </timecode>
                                </file>
                                <name>/home/davidk/code/python/JC-render/JC-examples/yoga.mp4</name>
                                <rate>
                                    <timebase>30</timebase>
                                    <ntsc>TRUE</ntsc>
                                </rate>
                                <start>47927</start>
                                <end>47942</end>
                            </clipitem>
                            <clipitem frameBlend="FALSE" id="clipitem-948">
                                <media>
                                    <video>
                                        <samplecharacteristics>
                                            <height>720</height>
                                            <width>1270</width>
                                        </samplecharacteristics>
                                    </video>
                                </media>
                                <file id="file-1">
                                    <pathurl>/home/davidk/code/python/JC-render/JC-examples/yoga.mp4</pathurl>
                                    <name>yoga.mp4</name>
                                    <rate>
                                        <timebase>30</timebase>
                                        <ntsc>TRUE</ntsc>
                                    </rate>
                                    <duration>54922</duration>
                                    <timecode>
                                        <rate>
                                            <timebase>30</timebase>
                                            <ntsc>TRUE</ntsc>
                                        </rate>
                                        <string>00:00:00:00</string>
                                        <frame>0</frame>
                                        <displayformat>NDF</displayformat>
                                        <media>
                                            <video/>
                                            <audio/>
                                        </media>
                                    </timecode>
                                </file>
                                <name>/home/davidk/code/python/JC-render/JC-examples/yoga.mp4</name>
                                <rate>
                                    <timebase>30</timebase>
                                    <ntsc>TRUE</ntsc>
                                </rate>
                                <start>47942</start>
                                <end>50024</end>
                            </clipitem>
                            <clipitem frameBlend="FALSE" id="clipitem-949">
                                <media>
                                    <video>
                                        <samplecharacteristics>
                                            <height>720</height>
                                            <width>1270</width>
                                        </samplecharacteristics>
                                    </video>
                                </media>
                                <file id="file-1">
                                    <pathurl>/home/davidk/code/python/JC-render/JC-examples/yoga.mp4</pathurl>
                                    <name>yoga.mp4</name>
                                    <rate>
                                        <timebase>30</timebase>
                                        <ntsc>TRUE</ntsc>
                                    </rate>
                                    <duration>54922</duration>
                                    <timecode>
                                        <rate>
                                            <timebase>30</timebase>
                                            <ntsc>TRUE</ntsc>
                                        </rate>
                                        <string>00:00:00:00</string>
                                        <frame>0</frame>
                                        <displayformat>NDF</displayformat>
                                        <media>
                                            <video/>
                                            <audio/>
                                        </media>
                                    </timecode>
                                </file>
                                <name>/home/davidk/code/python/JC-render/JC-examples/yoga.mp4</name>
                                <rate>
                                    <timebase>30</timebase>
                                    <ntsc>TRUE</ntsc>
                                </rate>
                                <start>50024</start>
                                <end>50074</end>
                            </clipitem>
                            <clipitem frameBlend="FALSE" id="clipitem-950">
                                <media>
                                    <video>
                                        <samplecharacteristics>
                                            <height>720</height>
                                            <width>1270</width>
                                        </samplecharacteristics>
                                    </video>
                                </media>
                                <file id="file-1">
                                    <pathurl>/home/davidk/code/python/JC-render/JC-examples/yoga.mp4</pathurl>
                                    <name>yoga.mp4</name>
                                    <rate>
                                        <timebase>30</timebase>
                                        <ntsc>TRUE</ntsc>
                                    </rate>
                                    <duration>54922</duration>
                                    <timecode>
                                        <rate>
                                            <timebase>30</timebase>
                                            <ntsc>TRUE</ntsc>
                                        </rate>
                                        <string>00:00:00:00</string>
                                        <frame>0</frame>
                                        <displayformat>NDF</displayformat>
                                        <media>
                                            <video/>
                                            <audio/>
                                        </media>
                                    </timecode>
                                </file>
                                <name>/home/davidk/code/python/JC-render/JC-examples/yoga.mp4</name>
                                <rate>
                                    <timebase>30</timebase>
                                    <ntsc>TRUE</ntsc>
                                </rate>
                                <start>50074</start>
                                <end>50097</end>
                            </clipitem>
                            <clipitem frameBlend="FALSE" id="clipitem-951">
                                <media>
                                    <video>
                                        <samplecharacteristics>
                                            <height>720</height>
                                            <width>1270</width>
                                        </samplecharacteristics>
                                    </video>
                                </media>
                                <file id="file-1">
                                    <pathurl>/home/davidk/code/python/JC-render/JC-examples/yoga.mp4</pathurl>
                                    <name>yoga.mp4</name>
                                    <rate>
                                        <timebase>30</timebase>
                                        <ntsc>TRUE</ntsc>
                                    </rate>
                                    <duration>54922</duration>
                                    <timecode>
                                        <rate>
                                            <timebase>30</timebase>
                                            <ntsc>TRUE</ntsc>
                                        </rate>
                                        <string>00:00:00:00</string>
                                        <frame>0</frame>
                                        <displayformat>NDF</displayformat>
                                        <media>
                                            <video/>
                                            <audio/>
                                        </media>
                                    </timecode>
                                </file>
                                <name>/home/davidk/code/python/JC-render/JC-examples/yoga.mp4</name>
                                <rate>
                                    <timebase>30</timebase>
                                    <ntsc>TRUE</ntsc>
                                </rate>
                                <start>50097</start>
                                <end>50175</end>
                            </clipitem>
                            <clipitem frameBlend="FALSE" id="clipitem-952">
                                <media>
                                    <video>
                                        <samplecharacteristics>
                                            <height>720</height>
                                            <width>1270</width>
                                        </samplecharacteristics>
                                    </video>
                                </media>
                                <file id="file-1">
                                    <pathurl>/home/davidk/code/python/JC-render/JC-examples/yoga.mp4</pathurl>
                                    <name>yoga.mp4</name>
                                    <rate>
                                        <timebase>30</timebase>
                                        <ntsc>TRUE</ntsc>
                                    </rate>
                                    <duration>54922</duration>
                                    <timecode>
                                        <rate>
                                            <timebase>30</timebase>
                                            <ntsc>TRUE</ntsc>
                                        </rate>
                                        <string>00:00:00:00</string>
                                        <frame>0</frame>
                                        <displayformat>NDF</displayformat>
                                        <media>
                                            <video/>
                                            <audio/>
                                        </media>
                                    </timecode>
                                </file>
                                <name>/home/davidk/code/python/JC-render/JC-examples/yoga.mp4</name>
                                <rate>
                                    <timebase>30</timebase>
                                    <ntsc>TRUE</ntsc>
                                </rate>
                                <start>50175</start>
                                <end>50180</end>
                            </clipitem>
                            <clipitem frameBlend="FALSE" id="clipitem-953">
                                <media>
                                    <video>
                                        <samplecharacteristics>
                                            <height>720</height>
                                            <width>1270</width>
                                        </samplecharacteristics>
                                    </video>
                                </media>
                                <file id="file-1">
                                    <pathurl>/home/davidk/code/python/JC-render/JC-examples/yoga.mp4</pathurl>
                                    <name>yoga.mp4</name>
                                    <rate>
                                        <timebase>30</timebase>
                                        <ntsc>TRUE</ntsc>
                                    </rate>
                                    <duration>54922</duration>
                                    <timecode>
                                        <rate>
                                            <timebase>30</timebase>
                                            <ntsc>TRUE</ntsc>
                                        </rate>
                                        <string>00:00:00:00</string>
                                        <frame>0</frame>
                                        <displayformat>NDF</displayformat>
                                        <media>
                                            <video/>
                                            <audio/>
                                        </media>
                                    </timecode>
                                </file>
                                <name>/home/davidk/code/python/JC-render/JC-examples/yoga.mp4</name>
                                <rate>
                                    <timebase>30</timebase>
                                    <ntsc>TRUE</ntsc>
                                </rate>
                                <start>50180</start>
                                <end>50203</end>
                            </clipitem>
                            <clipitem frameBlend="FALSE" id="clipitem-954">
                                <media>
                                    <video>
                                        <samplecharacteristics>
                                            <height>720</height>
                                            <width>1270</width>
                                        </samplecharacteristics>
                                    </video>
                                </media>
                                <file id="file-1">
                                    <pathurl>/home/davidk/code/python/JC-render/JC-examples/yoga.mp4</pathurl>
                                    <name>yoga.mp4</name>
                                    <rate>
                                        <timebase>30</timebase>
                                        <ntsc>TRUE</ntsc>
                                    </rate>
                                    <duration>54922</duration>
                                    <timecode>
                                        <rate>
                                            <timebase>30</timebase>
                                            <ntsc>TRUE</ntsc>
                                        </rate>
                                        <string>00:00:00:00</string>
                                        <frame>0</frame>
                                        <displayformat>NDF</displayformat>
                                        <media>
                                            <video/>
                                            <audio/>
                                        </media>
                                    </timecode>
                                </file>
                                <name>/home/davidk/code/python/JC-render/JC-examples/yoga.mp4</name>
                                <rate>
                                    <timebase>30</timebase>
                                    <ntsc>TRUE</ntsc>
                                </rate>
                                <start>50203</start>
                                <end>50334</end>
                            </clipitem>
                            <clipitem frameBlend="FALSE" id="clipitem-955">
                                <media>
                                    <video>
                                        <samplecharacteristics>
                                            <height>720</height>
                                            <width>1270</width>
                                        </samplecharacteristics>
                                    </video>
                                </media>
                                <file id="file-1">
                                    <pathurl>/home/davidk/code/python/JC-render/JC-examples/yoga.mp4</pathurl>
                                    <name>yoga.mp4</name>
                                    <rate>
                                        <timebase>30</timebase>
                                        <ntsc>TRUE</ntsc>
                                    </rate>
                                    <duration>54922</duration>
                                    <timecode>
                                        <rate>
                                            <timebase>30</timebase>
                                            <ntsc>TRUE</ntsc>
                                        </rate>
                                        <string>00:00:00:00</string>
                                        <frame>0</frame>
                                        <displayformat>NDF</displayformat>
                                        <media>
                                            <video/>
                                            <audio/>
                                        </media>
                                    </timecode>
                                </file>
                                <name>/home/davidk/code/python/JC-render/JC-examples/yoga.mp4</name>
                                <rate>
                                    <timebase>30</timebase>
                                    <ntsc>TRUE</ntsc>
                                </rate>
                                <start>50334</start>
                                <end>50384</end>
                            </clipitem>
                            <clipitem frameBlend="FALSE" id="clipitem-956">
                                <media>
                                    <video>
                                        <samplecharacteristics>
                                            <height>720</height>
                                            <width>1270</width>
                                        </samplecharacteristics>
                                    </video>
                                </media>
                                <file id="file-1">
                                    <pathurl>/home/davidk/code/python/JC-render/JC-examples/yoga.mp4</pathurl>
                                    <name>yoga.mp4</name>
                                    <rate>
                                        <timebase>30</timebase>
                                        <ntsc>TRUE</ntsc>
                                    </rate>
                                    <duration>54922</duration>
                                    <timecode>
                                        <rate>
                                            <timebase>30</timebase>
                                            <ntsc>TRUE</ntsc>
                                        </rate>
                                        <string>00:00:00:00</string>
                                        <frame>0</frame>
                                        <displayformat>NDF</displayformat>
                                        <media>
                                            <video/>
                                            <audio/>
                                        </media>
                                    </timecode>
                                </file>
                                <name>/home/davidk/code/python/JC-render/JC-examples/yoga.mp4</name>
                                <rate>
                                    <timebase>30</timebase>
                                    <ntsc>TRUE</ntsc>
                                </rate>
                                <start>50384</start>
                                <end>50421</end>
                            </clipitem>
                            <clipitem frameBlend="FALSE" id="clipitem-957">
                                <media>
                                    <video>
                                        <samplecharacteristics>
                                            <height>720</height>
                                            <width>1270</width>
                                        </samplecharacteristics>
                                    </video>
                                </media>
                                <file id="file-1">
                                    <pathurl>/home/davidk/code/python/JC-render/JC-examples/yoga.mp4</pathurl>
                                    <name>yoga.mp4</name>
                                    <rate>
                                        <timebase>30</timebase>
                                        <ntsc>TRUE</ntsc>
                                    </rate>
                                    <duration>54922</duration>
                                    <timecode>
                                        <rate>
                                            <timebase>30</timebase>
                                            <ntsc>TRUE</ntsc>
                                        </rate>
                                        <string>00:00:00:00</string>
                                        <frame>0</frame>
                                        <displayformat>NDF</displayformat>
                                        <media>
                                            <video/>
                                            <audio/>
                                        </media>
                                    </timecode>
                                </file>
                                <name>/home/davidk/code/python/JC-render/JC-examples/yoga.mp4</name>
                                <rate>
                                    <timebase>30</timebase>
                                    <ntsc>TRUE</ntsc>
                                </rate>
                                <start>50421</start>
                                <end>50450</end>
                            </clipitem>
                            <clipitem frameBlend="FALSE" id="clipitem-958">
                                <media>
                                    <video>
                                        <samplecharacteristics>
                                            <height>720</height>
                                            <width>1270</width>
                                        </samplecharacteristics>
                                    </video>
                                </media>
                                <file id="file-1">
                                    <pathurl>/home/davidk/code/python/JC-render/JC-examples/yoga.mp4</pathurl>
                                    <name>yoga.mp4</name>
                                    <rate>
                                        <timebase>30</timebase>
                                        <ntsc>TRUE</ntsc>
                                    </rate>
                                    <duration>54922</duration>
                                    <timecode>
                                        <rate>
                                            <timebase>30</timebase>
                                            <ntsc>TRUE</ntsc>
                                        </rate>
                                        <string>00:00:00:00</string>
                                        <frame>0</frame>
                                        <displayformat>NDF</displayformat>
                                        <media>
                                            <video/>
                                            <audio/>
                                        </media>
                                    </timecode>
                                </file>
                                <name>/home/davidk/code/python/JC-render/JC-examples/yoga.mp4</name>
                                <rate>
                                    <timebase>30</timebase>
                                    <ntsc>TRUE</ntsc>
                                </rate>
                                <start>50450</start>
                                <end>50598</end>
                            </clipitem>
                            <clipitem frameBlend="FALSE" id="clipitem-959">
                                <media>
                                    <video>
                                        <samplecharacteristics>
                                            <height>720</height>
                                            <width>1270</width>
                                        </samplecharacteristics>
                                    </video>
                                </media>
                                <file id="file-1">
                                    <pathurl>/home/davidk/code/python/JC-render/JC-examples/yoga.mp4</pathurl>
                                    <name>yoga.mp4</name>
                                    <rate>
                                        <timebase>30</timebase>
                                        <ntsc>TRUE</ntsc>
                                    </rate>
                                    <duration>54922</duration>
                                    <timecode>
                                        <rate>
                                            <timebase>30</timebase>
                                            <ntsc>TRUE</ntsc>
                                        </rate>
                                        <string>00:00:00:00</string>
                                        <frame>0</frame>
                                        <displayformat>NDF</displayformat>
                                        <media>
                                            <video/>
                                            <audio/>
                                        </media>
                                    </timecode>
                                </file>
                                <name>/home/davidk/code/python/JC-render/JC-examples/yoga.mp4</name>
                                <rate>
                                    <timebase>30</timebase>
                                    <ntsc>TRUE</ntsc>
                                </rate>
                                <start>50598</start>
                                <end>50680</end>
                            </clipitem>
                            <clipitem frameBlend="FALSE" id="clipitem-960">
                                <media>
                                    <video>
                                        <samplecharacteristics>
                                            <height>720</height>
                                            <width>1270</width>
                                        </samplecharacteristics>
                                    </video>
                                </media>
                                <file id="file-1">
                                    <pathurl>/home/davidk/code/python/JC-render/JC-examples/yoga.mp4</pathurl>
                                    <name>yoga.mp4</name>
                                    <rate>
                                        <timebase>30</timebase>
                                        <ntsc>TRUE</ntsc>
                                    </rate>
                                    <duration>54922</duration>
                                    <timecode>
                                        <rate>
                                            <timebase>30</timebase>
                                            <ntsc>TRUE</ntsc>
                                        </rate>
                                        <string>00:00:00:00</string>
                                        <frame>0</frame>
                                        <displayformat>NDF</displayformat>
                                        <media>
                                            <video/>
                                            <audio/>
                                        </media>
                                    </timecode>
                                </file>
                                <name>/home/davidk/code/python/JC-render/JC-examples/yoga.mp4</name>
                                <rate>
                                    <timebase>30</timebase>
                                    <ntsc>TRUE</ntsc>
                                </rate>
                                <start>50680</start>
                                <end>50685</end>
                            </clipitem>
                            <clipitem frameBlend="FALSE" id="clipitem-961">
                                <media>
                                    <video>
                                        <samplecharacteristics>
                                            <height>720</height>
                                            <width>1270</width>
                                        </samplecharacteristics>
                                    </video>
                                </media>
                                <file id="file-1">
                                    <pathurl>/home/davidk/code/python/JC-render/JC-examples/yoga.mp4</pathurl>
                                    <name>yoga.mp4</name>
                                    <rate>
                                        <timebase>30</timebase>
                                        <ntsc>TRUE</ntsc>
                                    </rate>
                                    <duration>54922</duration>
                                    <timecode>
                                        <rate>
                                            <timebase>30</timebase>
                                            <ntsc>TRUE</ntsc>
                                        </rate>
                                        <string>00:00:00:00</string>
                                        <frame>0</frame>
                                        <displayformat>NDF</displayformat>
                                        <media>
                                            <video/>
                                            <audio/>
                                        </media>
                                    </timecode>
                                </file>
                                <name>/home/davidk/code/python/JC-render/JC-examples/yoga.mp4</name>
                                <rate>
                                    <timebase>30</timebase>
                                    <ntsc>TRUE</ntsc>
                                </rate>
                                <start>50685</start>
                                <end>50722</end>
                            </clipitem>
                            <clipitem frameBlend="FALSE" id="clipitem-962">
                                <media>
                                    <video>
                                        <samplecharacteristics>
                                            <height>720</height>
                                            <width>1270</width>
                                        </samplecharacteristics>
                                    </video>
                                </media>
                                <file id="file-1">
                                    <pathurl>/home/davidk/code/python/JC-render/JC-examples/yoga.mp4</pathurl>
                                    <name>yoga.mp4</name>
                                    <rate>
                                        <timebase>30</timebase>
                                        <ntsc>TRUE</ntsc>
                                    </rate>
                                    <duration>54922</duration>
                                    <timecode>
                                        <rate>
                                            <timebase>30</timebase>
                                            <ntsc>TRUE</ntsc>
                                        </rate>
                                        <string>00:00:00:00</string>
                                        <frame>0</frame>
                                        <displayformat>NDF</displayformat>
                                        <media>
                                            <video/>
                                            <audio/>
                                        </media>
                                    </timecode>
                                </file>
                                <name>/home/davidk/code/python/JC-render/JC-examples/yoga.mp4</name>
                                <rate>
                                    <timebase>30</timebase>
                                    <ntsc>TRUE</ntsc>
                                </rate>
                                <start>50722</start>
                                <end>50797</end>
                            </clipitem>
                            <clipitem frameBlend="FALSE" id="clipitem-963">
                                <media>
                                    <video>
                                        <samplecharacteristics>
                                            <height>720</height>
                                            <width>1270</width>
                                        </samplecharacteristics>
                                    </video>
                                </media>
                                <file id="file-1">
                                    <pathurl>/home/davidk/code/python/JC-render/JC-examples/yoga.mp4</pathurl>
                                    <name>yoga.mp4</name>
                                    <rate>
                                        <timebase>30</timebase>
                                        <ntsc>TRUE</ntsc>
                                    </rate>
                                    <duration>54922</duration>
                                    <timecode>
                                        <rate>
                                            <timebase>30</timebase>
                                            <ntsc>TRUE</ntsc>
                                        </rate>
                                        <string>00:00:00:00</string>
                                        <frame>0</frame>
                                        <displayformat>NDF</displayformat>
                                        <media>
                                            <video/>
                                            <audio/>
                                        </media>
                                    </timecode>
                                </file>
                                <name>/home/davidk/code/python/JC-render/JC-examples/yoga.mp4</name>
                                <rate>
                                    <timebase>30</timebase>
                                    <ntsc>TRUE</ntsc>
                                </rate>
                                <start>50797</start>
                                <end>50910</end>
                            </clipitem>
                            <clipitem frameBlend="FALSE" id="clipitem-964">
                                <media>
                                    <video>
                                        <samplecharacteristics>
                                            <height>720</height>
                                            <width>1270</width>
                                        </samplecharacteristics>
                                    </video>
                                </media>
                                <file id="file-1">
                                    <pathurl>/home/davidk/code/python/JC-render/JC-examples/yoga.mp4</pathurl>
                                    <name>yoga.mp4</name>
                                    <rate>
                                        <timebase>30</timebase>
                                        <ntsc>TRUE</ntsc>
                                    </rate>
                                    <duration>54922</duration>
                                    <timecode>
                                        <rate>
                                            <timebase>30</timebase>
                                            <ntsc>TRUE</ntsc>
                                        </rate>
                                        <string>00:00:00:00</string>
                                        <frame>0</frame>
                                        <displayformat>NDF</displayformat>
                                        <media>
                                            <video/>
                                            <audio/>
                                        </media>
                                    </timecode>
                                </file>
                                <name>/home/davidk/code/python/JC-render/JC-examples/yoga.mp4</name>
                                <rate>
                                    <timebase>30</timebase>
                                    <ntsc>TRUE</ntsc>
                                </rate>
                                <start>50910</start>
                                <end>50915</end>
                            </clipitem>
                            <clipitem frameBlend="FALSE" id="clipitem-965">
                                <media>
                                    <video>
                                        <samplecharacteristics>
                                            <height>720</height>
                                            <width>1270</width>
                                        </samplecharacteristics>
                                    </video>
                                </media>
                                <file id="file-1">
                                    <pathurl>/home/davidk/code/python/JC-render/JC-examples/yoga.mp4</pathurl>
                                    <name>yoga.mp4</name>
                                    <rate>
                                        <timebase>30</timebase>
                                        <ntsc>TRUE</ntsc>
                                    </rate>
                                    <duration>54922</duration>
                                    <timecode>
                                        <rate>
                                            <timebase>30</timebase>
                                            <ntsc>TRUE</ntsc>
                                        </rate>
                                        <string>00:00:00:00</string>
                                        <frame>0</frame>
                                        <displayformat>NDF</displayformat>
                                        <media>
                                            <video/>
                                            <audio/>
                                        </media>
                                    </timecode>
                                </file>
                                <name>/home/davidk/code/python/JC-render/JC-examples/yoga.mp4</name>
                                <rate>
                                    <timebase>30</timebase>
                                    <ntsc>TRUE</ntsc>
                                </rate>
                                <start>50915</start>
                                <end>50938</end>
                            </clipitem>
                            <clipitem frameBlend="FALSE" id="clipitem-966">
                                <media>
                                    <video>
                                        <samplecharacteristics>
                                            <height>720</height>
                                            <width>1270</width>
                                        </samplecharacteristics>
                                    </video>
                                </media>
                                <file id="file-1">
                                    <pathurl>/home/davidk/code/python/JC-render/JC-examples/yoga.mp4</pathurl>
                                    <name>yoga.mp4</name>
                                    <rate>
                                        <timebase>30</timebase>
                                        <ntsc>TRUE</ntsc>
                                    </rate>
                                    <duration>54922</duration>
                                    <timecode>
                                        <rate>
                                            <timebase>30</timebase>
                                            <ntsc>TRUE</ntsc>
                                        </rate>
                                        <string>00:00:00:00</string>
                                        <frame>0</frame>
                                        <displayformat>NDF</displayformat>
                                        <media>
                                            <video/>
                                            <audio/>
                                        </media>
                                    </timecode>
                                </file>
                                <name>/home/davidk/code/python/JC-render/JC-examples/yoga.mp4</name>
                                <rate>
                                    <timebase>30</timebase>
                                    <ntsc>TRUE</ntsc>
                                </rate>
                                <start>50938</start>
                                <end>51051</end>
                            </clipitem>
                            <clipitem frameBlend="FALSE" id="clipitem-967">
                                <media>
                                    <video>
                                        <samplecharacteristics>
                                            <height>720</height>
                                            <width>1270</width>
                                        </samplecharacteristics>
                                    </video>
                                </media>
                                <file id="file-1">
                                    <pathurl>/home/davidk/code/python/JC-render/JC-examples/yoga.mp4</pathurl>
                                    <name>yoga.mp4</name>
                                    <rate>
                                        <timebase>30</timebase>
                                        <ntsc>TRUE</ntsc>
                                    </rate>
                                    <duration>54922</duration>
                                    <timecode>
                                        <rate>
                                            <timebase>30</timebase>
                                            <ntsc>TRUE</ntsc>
                                        </rate>
                                        <string>00:00:00:00</string>
                                        <frame>0</frame>
                                        <displayformat>NDF</displayformat>
                                        <media>
                                            <video/>
                                            <audio/>
                                        </media>
                                    </timecode>
                                </file>
                                <name>/home/davidk/code/python/JC-render/JC-examples/yoga.mp4</name>
                                <rate>
                                    <timebase>30</timebase>
                                    <ntsc>TRUE</ntsc>
                                </rate>
                                <start>51051</start>
                                <end>51119</end>
                            </clipitem>
                            <clipitem frameBlend="FALSE" id="clipitem-968">
                                <media>
                                    <video>
                                        <samplecharacteristics>
                                            <height>720</height>
                                            <width>1270</width>
                                        </samplecharacteristics>
                                    </video>
                                </media>
                                <file id="file-1">
                                    <pathurl>/home/davidk/code/python/JC-render/JC-examples/yoga.mp4</pathurl>
                                    <name>yoga.mp4</name>
                                    <rate>
                                        <timebase>30</timebase>
                                        <ntsc>TRUE</ntsc>
                                    </rate>
                                    <duration>54922</duration>
                                    <timecode>
                                        <rate>
                                            <timebase>30</timebase>
                                            <ntsc>TRUE</ntsc>
                                        </rate>
                                        <string>00:00:00:00</string>
                                        <frame>0</frame>
                                        <displayformat>NDF</displayformat>
                                        <media>
                                            <video/>
                                            <audio/>
                                        </media>
                                    </timecode>
                                </file>
                                <name>/home/davidk/code/python/JC-render/JC-examples/yoga.mp4</name>
                                <rate>
                                    <timebase>30</timebase>
                                    <ntsc>TRUE</ntsc>
                                </rate>
                                <start>51119</start>
                                <end>51152</end>
                            </clipitem>
                            <clipitem frameBlend="FALSE" id="clipitem-969">
                                <media>
                                    <video>
                                        <samplecharacteristics>
                                            <height>720</height>
                                            <width>1270</width>
                                        </samplecharacteristics>
                                    </video>
                                </media>
                                <file id="file-1">
                                    <pathurl>/home/davidk/code/python/JC-render/JC-examples/yoga.mp4</pathurl>
                                    <name>yoga.mp4</name>
                                    <rate>
                                        <timebase>30</timebase>
                                        <ntsc>TRUE</ntsc>
                                    </rate>
                                    <duration>54922</duration>
                                    <timecode>
                                        <rate>
                                            <timebase>30</timebase>
                                            <ntsc>TRUE</ntsc>
                                        </rate>
                                        <string>00:00:00:00</string>
                                        <frame>0</frame>
                                        <displayformat>NDF</displayformat>
                                        <media>
                                            <video/>
                                            <audio/>
                                        </media>
                                    </timecode>
                                </file>
                                <name>/home/davidk/code/python/JC-render/JC-examples/yoga.mp4</name>
                                <rate>
                                    <timebase>30</timebase>
                                    <ntsc>TRUE</ntsc>
                                </rate>
                                <start>51152</start>
                                <end>51196</end>
                            </clipitem>
                            <clipitem frameBlend="FALSE" id="clipitem-970">
                                <media>
                                    <video>
                                        <samplecharacteristics>
                                            <height>720</height>
                                            <width>1270</width>
                                        </samplecharacteristics>
                                    </video>
                                </media>
                                <file id="file-1">
                                    <pathurl>/home/davidk/code/python/JC-render/JC-examples/yoga.mp4</pathurl>
                                    <name>yoga.mp4</name>
                                    <rate>
                                        <timebase>30</timebase>
                                        <ntsc>TRUE</ntsc>
                                    </rate>
                                    <duration>54922</duration>
                                    <timecode>
                                        <rate>
                                            <timebase>30</timebase>
                                            <ntsc>TRUE</ntsc>
                                        </rate>
                                        <string>00:00:00:00</string>
                                        <frame>0</frame>
                                        <displayformat>NDF</displayformat>
                                        <media>
                                            <video/>
                                            <audio/>
                                        </media>
                                    </timecode>
                                </file>
                                <name>/home/davidk/code/python/JC-render/JC-examples/yoga.mp4</name>
                                <rate>
                                    <timebase>30</timebase>
                                    <ntsc>TRUE</ntsc>
                                </rate>
                                <start>51196</start>
                                <end>51351</end>
                            </clipitem>
                            <clipitem frameBlend="FALSE" id="clipitem-971">
                                <media>
                                    <video>
                                        <samplecharacteristics>
                                            <height>720</height>
                                            <width>1270</width>
                                        </samplecharacteristics>
                                    </video>
                                </media>
                                <file id="file-1">
                                    <pathurl>/home/davidk/code/python/JC-render/JC-examples/yoga.mp4</pathurl>
                                    <name>yoga.mp4</name>
                                    <rate>
                                        <timebase>30</timebase>
                                        <ntsc>TRUE</ntsc>
                                    </rate>
                                    <duration>54922</duration>
                                    <timecode>
                                        <rate>
                                            <timebase>30</timebase>
                                            <ntsc>TRUE</ntsc>
                                        </rate>
                                        <string>00:00:00:00</string>
                                        <frame>0</frame>
                                        <displayformat>NDF</displayformat>
                                        <media>
                                            <video/>
                                            <audio/>
                                        </media>
                                    </timecode>
                                </file>
                                <name>/home/davidk/code/python/JC-render/JC-examples/yoga.mp4</name>
                                <rate>
                                    <timebase>30</timebase>
                                    <ntsc>TRUE</ntsc>
                                </rate>
                                <start>51351</start>
                                <end>51380</end>
                            </clipitem>
                            <clipitem frameBlend="FALSE" id="clipitem-972">
                                <media>
                                    <video>
                                        <samplecharacteristics>
                                            <height>720</height>
                                            <width>1270</width>
                                        </samplecharacteristics>
                                    </video>
                                </media>
                                <file id="file-1">
                                    <pathurl>/home/davidk/code/python/JC-render/JC-examples/yoga.mp4</pathurl>
                                    <name>yoga.mp4</name>
                                    <rate>
                                        <timebase>30</timebase>
                                        <ntsc>TRUE</ntsc>
                                    </rate>
                                    <duration>54922</duration>
                                    <timecode>
                                        <rate>
                                            <timebase>30</timebase>
                                            <ntsc>TRUE</ntsc>
                                        </rate>
                                        <string>00:00:00:00</string>
                                        <frame>0</frame>
                                        <displayformat>NDF</displayformat>
                                        <media>
                                            <video/>
                                            <audio/>
                                        </media>
                                    </timecode>
                                </file>
                                <name>/home/davidk/code/python/JC-render/JC-examples/yoga.mp4</name>
                                <rate>
                                    <timebase>30</timebase>
                                    <ntsc>TRUE</ntsc>
                                </rate>
                                <start>51380</start>
                                <end>51410</end>
                            </clipitem>
                            <clipitem frameBlend="FALSE" id="clipitem-973">
                                <media>
                                    <video>
                                        <samplecharacteristics>
                                            <height>720</height>
                                            <width>1270</width>
                                        </samplecharacteristics>
                                    </video>
                                </media>
                                <file id="file-1">
                                    <pathurl>/home/davidk/code/python/JC-render/JC-examples/yoga.mp4</pathurl>
                                    <name>yoga.mp4</name>
                                    <rate>
                                        <timebase>30</timebase>
                                        <ntsc>TRUE</ntsc>
                                    </rate>
                                    <duration>54922</duration>
                                    <timecode>
                                        <rate>
                                            <timebase>30</timebase>
                                            <ntsc>TRUE</ntsc>
                                        </rate>
                                        <string>00:00:00:00</string>
                                        <frame>0</frame>
                                        <displayformat>NDF</displayformat>
                                        <media>
                                            <video/>
                                            <audio/>
                                        </media>
                                    </timecode>
                                </file>
                                <name>/home/davidk/code/python/JC-render/JC-examples/yoga.mp4</name>
                                <rate>
                                    <timebase>30</timebase>
                                    <ntsc>TRUE</ntsc>
                                </rate>
                                <start>51410</start>
                                <end>51453</end>
                            </clipitem>
                            <clipitem frameBlend="FALSE" id="clipitem-974">
                                <media>
                                    <video>
                                        <samplecharacteristics>
                                            <height>720</height>
                                            <width>1270</width>
                                        </samplecharacteristics>
                                    </video>
                                </media>
                                <file id="file-1">
                                    <pathurl>/home/davidk/code/python/JC-render/JC-examples/yoga.mp4</pathurl>
                                    <name>yoga.mp4</name>
                                    <rate>
                                        <timebase>30</timebase>
                                        <ntsc>TRUE</ntsc>
                                    </rate>
                                    <duration>54922</duration>
                                    <timecode>
                                        <rate>
                                            <timebase>30</timebase>
                                            <ntsc>TRUE</ntsc>
                                        </rate>
                                        <string>00:00:00:00</string>
                                        <frame>0</frame>
                                        <displayformat>NDF</displayformat>
                                        <media>
                                            <video/>
                                            <audio/>
                                        </media>
                                    </timecode>
                                </file>
                                <name>/home/davidk/code/python/JC-render/JC-examples/yoga.mp4</name>
                                <rate>
                                    <timebase>30</timebase>
                                    <ntsc>TRUE</ntsc>
                                </rate>
                                <start>51453</start>
                                <end>51473</end>
                            </clipitem>
                            <clipitem frameBlend="FALSE" id="clipitem-975">
                                <media>
                                    <video>
                                        <samplecharacteristics>
                                            <height>720</height>
                                            <width>1270</width>
                                        </samplecharacteristics>
                                    </video>
                                </media>
                                <file id="file-1">
                                    <pathurl>/home/davidk/code/python/JC-render/JC-examples/yoga.mp4</pathurl>
                                    <name>yoga.mp4</name>
                                    <rate>
                                        <timebase>30</timebase>
                                        <ntsc>TRUE</ntsc>
                                    </rate>
                                    <duration>54922</duration>
                                    <timecode>
                                        <rate>
                                            <timebase>30</timebase>
                                            <ntsc>TRUE</ntsc>
                                        </rate>
                                        <string>00:00:00:00</string>
                                        <frame>0</frame>
                                        <displayformat>NDF</displayformat>
                                        <media>
                                            <video/>
                                            <audio/>
                                        </media>
                                    </timecode>
                                </file>
                                <name>/home/davidk/code/python/JC-render/JC-examples/yoga.mp4</name>
                                <rate>
                                    <timebase>30</timebase>
                                    <ntsc>TRUE</ntsc>
                                </rate>
                                <start>51473</start>
                                <end>51526</end>
                            </clipitem>
                            <clipitem frameBlend="FALSE" id="clipitem-976">
                                <media>
                                    <video>
                                        <samplecharacteristics>
                                            <height>720</height>
                                            <width>1270</width>
                                        </samplecharacteristics>
                                    </video>
                                </media>
                                <file id="file-1">
                                    <pathurl>/home/davidk/code/python/JC-render/JC-examples/yoga.mp4</pathurl>
                                    <name>yoga.mp4</name>
                                    <rate>
                                        <timebase>30</timebase>
                                        <ntsc>TRUE</ntsc>
                                    </rate>
                                    <duration>54922</duration>
                                    <timecode>
                                        <rate>
                                            <timebase>30</timebase>
                                            <ntsc>TRUE</ntsc>
                                        </rate>
                                        <string>00:00:00:00</string>
                                        <frame>0</frame>
                                        <displayformat>NDF</displayformat>
                                        <media>
                                            <video/>
                                            <audio/>
                                        </media>
                                    </timecode>
                                </file>
                                <name>/home/davidk/code/python/JC-render/JC-examples/yoga.mp4</name>
                                <rate>
                                    <timebase>30</timebase>
                                    <ntsc>TRUE</ntsc>
                                </rate>
                                <start>51526</start>
                                <end>51668</end>
                            </clipitem>
                            <clipitem frameBlend="FALSE" id="clipitem-977">
                                <media>
                                    <video>
                                        <samplecharacteristics>
                                            <height>720</height>
                                            <width>1270</width>
                                        </samplecharacteristics>
                                    </video>
                                </media>
                                <file id="file-1">
                                    <pathurl>/home/davidk/code/python/JC-render/JC-examples/yoga.mp4</pathurl>
                                    <name>yoga.mp4</name>
                                    <rate>
                                        <timebase>30</timebase>
                                        <ntsc>TRUE</ntsc>
                                    </rate>
                                    <duration>54922</duration>
                                    <timecode>
                                        <rate>
                                            <timebase>30</timebase>
                                            <ntsc>TRUE</ntsc>
                                        </rate>
                                        <string>00:00:00:00</string>
                                        <frame>0</frame>
                                        <displayformat>NDF</displayformat>
                                        <media>
                                            <video/>
                                            <audio/>
                                        </media>
                                    </timecode>
                                </file>
                                <name>/home/davidk/code/python/JC-render/JC-examples/yoga.mp4</name>
                                <rate>
                                    <timebase>30</timebase>
                                    <ntsc>TRUE</ntsc>
                                </rate>
                                <start>51668</start>
                                <end>51694</end>
                            </clipitem>
                            <clipitem frameBlend="FALSE" id="clipitem-978">
                                <media>
                                    <video>
                                        <samplecharacteristics>
                                            <height>720</height>
                                            <width>1270</width>
                                        </samplecharacteristics>
                                    </video>
                                </media>
                                <file id="file-1">
                                    <pathurl>/home/davidk/code/python/JC-render/JC-examples/yoga.mp4</pathurl>
                                    <name>yoga.mp4</name>
                                    <rate>
                                        <timebase>30</timebase>
                                        <ntsc>TRUE</ntsc>
                                    </rate>
                                    <duration>54922</duration>
                                    <timecode>
                                        <rate>
                                            <timebase>30</timebase>
                                            <ntsc>TRUE</ntsc>
                                        </rate>
                                        <string>00:00:00:00</string>
                                        <frame>0</frame>
                                        <displayformat>NDF</displayformat>
                                        <media>
                                            <video/>
                                            <audio/>
                                        </media>
                                    </timecode>
                                </file>
                                <name>/home/davidk/code/python/JC-render/JC-examples/yoga.mp4</name>
                                <rate>
                                    <timebase>30</timebase>
                                    <ntsc>TRUE</ntsc>
                                </rate>
                                <start>51694</start>
                                <end>51727</end>
                            </clipitem>
                            <clipitem frameBlend="FALSE" id="clipitem-979">
                                <media>
                                    <video>
                                        <samplecharacteristics>
                                            <height>720</height>
                                            <width>1270</width>
                                        </samplecharacteristics>
                                    </video>
                                </media>
                                <file id="file-1">
                                    <pathurl>/home/davidk/code/python/JC-render/JC-examples/yoga.mp4</pathurl>
                                    <name>yoga.mp4</name>
                                    <rate>
                                        <timebase>30</timebase>
                                        <ntsc>TRUE</ntsc>
                                    </rate>
                                    <duration>54922</duration>
                                    <timecode>
                                        <rate>
                                            <timebase>30</timebase>
                                            <ntsc>TRUE</ntsc>
                                        </rate>
                                        <string>00:00:00:00</string>
                                        <frame>0</frame>
                                        <displayformat>NDF</displayformat>
                                        <media>
                                            <video/>
                                            <audio/>
                                        </media>
                                    </timecode>
                                </file>
                                <name>/home/davidk/code/python/JC-render/JC-examples/yoga.mp4</name>
                                <rate>
                                    <timebase>30</timebase>
                                    <ntsc>TRUE</ntsc>
                                </rate>
                                <start>51727</start>
                                <end>51749</end>
                            </clipitem>
                            <clipitem frameBlend="FALSE" id="clipitem-980">
                                <media>
                                    <video>
                                        <samplecharacteristics>
                                            <height>720</height>
                                            <width>1270</width>
                                        </samplecharacteristics>
                                    </video>
                                </media>
                                <file id="file-1">
                                    <pathurl>/home/davidk/code/python/JC-render/JC-examples/yoga.mp4</pathurl>
                                    <name>yoga.mp4</name>
                                    <rate>
                                        <timebase>30</timebase>
                                        <ntsc>TRUE</ntsc>
                                    </rate>
                                    <duration>54922</duration>
                                    <timecode>
                                        <rate>
                                            <timebase>30</timebase>
                                            <ntsc>TRUE</ntsc>
                                        </rate>
                                        <string>00:00:00:00</string>
                                        <frame>0</frame>
                                        <displayformat>NDF</displayformat>
                                        <media>
                                            <video/>
                                            <audio/>
                                        </media>
                                    </timecode>
                                </file>
                                <name>/home/davidk/code/python/JC-render/JC-examples/yoga.mp4</name>
                                <rate>
                                    <timebase>30</timebase>
                                    <ntsc>TRUE</ntsc>
                                </rate>
                                <start>51749</start>
                                <end>51751</end>
                            </clipitem>
                            <clipitem frameBlend="FALSE" id="clipitem-981">
                                <media>
                                    <video>
                                        <samplecharacteristics>
                                            <height>720</height>
                                            <width>1270</width>
                                        </samplecharacteristics>
                                    </video>
                                </media>
                                <file id="file-1">
                                    <pathurl>/home/davidk/code/python/JC-render/JC-examples/yoga.mp4</pathurl>
                                    <name>yoga.mp4</name>
                                    <rate>
                                        <timebase>30</timebase>
                                        <ntsc>TRUE</ntsc>
                                    </rate>
                                    <duration>54922</duration>
                                    <timecode>
                                        <rate>
                                            <timebase>30</timebase>
                                            <ntsc>TRUE</ntsc>
                                        </rate>
                                        <string>00:00:00:00</string>
                                        <frame>0</frame>
                                        <displayformat>NDF</displayformat>
                                        <media>
                                            <video/>
                                            <audio/>
                                        </media>
                                    </timecode>
                                </file>
                                <name>/home/davidk/code/python/JC-render/JC-examples/yoga.mp4</name>
                                <rate>
                                    <timebase>30</timebase>
                                    <ntsc>TRUE</ntsc>
                                </rate>
                                <start>51751</start>
                                <end>51767</end>
                            </clipitem>
                            <clipitem frameBlend="FALSE" id="clipitem-982">
                                <media>
                                    <video>
                                        <samplecharacteristics>
                                            <height>720</height>
                                            <width>1270</width>
                                        </samplecharacteristics>
                                    </video>
                                </media>
                                <file id="file-1">
                                    <pathurl>/home/davidk/code/python/JC-render/JC-examples/yoga.mp4</pathurl>
                                    <name>yoga.mp4</name>
                                    <rate>
                                        <timebase>30</timebase>
                                        <ntsc>TRUE</ntsc>
                                    </rate>
                                    <duration>54922</duration>
                                    <timecode>
                                        <rate>
                                            <timebase>30</timebase>
                                            <ntsc>TRUE</ntsc>
                                        </rate>
                                        <string>00:00:00:00</string>
                                        <frame>0</frame>
                                        <displayformat>NDF</displayformat>
                                        <media>
                                            <video/>
                                            <audio/>
                                        </media>
                                    </timecode>
                                </file>
                                <name>/home/davidk/code/python/JC-render/JC-examples/yoga.mp4</name>
                                <rate>
                                    <timebase>30</timebase>
                                    <ntsc>TRUE</ntsc>
                                </rate>
                                <start>51767</start>
                                <end>51769</end>
                            </clipitem>
                            <clipitem frameBlend="FALSE" id="clipitem-983">
                                <media>
                                    <video>
                                        <samplecharacteristics>
                                            <height>720</height>
                                            <width>1270</width>
                                        </samplecharacteristics>
                                    </video>
                                </media>
                                <file id="file-1">
                                    <pathurl>/home/davidk/code/python/JC-render/JC-examples/yoga.mp4</pathurl>
                                    <name>yoga.mp4</name>
                                    <rate>
                                        <timebase>30</timebase>
                                        <ntsc>TRUE</ntsc>
                                    </rate>
                                    <duration>54922</duration>
                                    <timecode>
                                        <rate>
                                            <timebase>30</timebase>
                                            <ntsc>TRUE</ntsc>
                                        </rate>
                                        <string>00:00:00:00</string>
                                        <frame>0</frame>
                                        <displayformat>NDF</displayformat>
                                        <media>
                                            <video/>
                                            <audio/>
                                        </media>
                                    </timecode>
                                </file>
                                <name>/home/davidk/code/python/JC-render/JC-examples/yoga.mp4</name>
                                <rate>
                                    <timebase>30</timebase>
                                    <ntsc>TRUE</ntsc>
                                </rate>
                                <start>51769</start>
                                <end>51788</end>
                            </clipitem>
                            <clipitem frameBlend="FALSE" id="clipitem-984">
                                <media>
                                    <video>
                                        <samplecharacteristics>
                                            <height>720</height>
                                            <width>1270</width>
                                        </samplecharacteristics>
                                    </video>
                                </media>
                                <file id="file-1">
                                    <pathurl>/home/davidk/code/python/JC-render/JC-examples/yoga.mp4</pathurl>
                                    <name>yoga.mp4</name>
                                    <rate>
                                        <timebase>30</timebase>
                                        <ntsc>TRUE</ntsc>
                                    </rate>
                                    <duration>54922</duration>
                                    <timecode>
                                        <rate>
                                            <timebase>30</timebase>
                                            <ntsc>TRUE</ntsc>
                                        </rate>
                                        <string>00:00:00:00</string>
                                        <frame>0</frame>
                                        <displayformat>NDF</displayformat>
                                        <media>
                                            <video/>
                                            <audio/>
                                        </media>
                                    </timecode>
                                </file>
                                <name>/home/davidk/code/python/JC-render/JC-examples/yoga.mp4</name>
                                <rate>
                                    <timebase>30</timebase>
                                    <ntsc>TRUE</ntsc>
                                </rate>
                                <start>51788</start>
                                <end>51824</end>
                            </clipitem>
                            <clipitem frameBlend="FALSE" id="clipitem-985">
                                <media>
                                    <video>
                                        <samplecharacteristics>
                                            <height>720</height>
                                            <width>1270</width>
                                        </samplecharacteristics>
                                    </video>
                                </media>
                                <file id="file-1">
                                    <pathurl>/home/davidk/code/python/JC-render/JC-examples/yoga.mp4</pathurl>
                                    <name>yoga.mp4</name>
                                    <rate>
                                        <timebase>30</timebase>
                                        <ntsc>TRUE</ntsc>
                                    </rate>
                                    <duration>54922</duration>
                                    <timecode>
                                        <rate>
                                            <timebase>30</timebase>
                                            <ntsc>TRUE</ntsc>
                                        </rate>
                                        <string>00:00:00:00</string>
                                        <frame>0</frame>
                                        <displayformat>NDF</displayformat>
                                        <media>
                                            <video/>
                                            <audio/>
                                        </media>
                                    </timecode>
                                </file>
                                <name>/home/davidk/code/python/JC-render/JC-examples/yoga.mp4</name>
                                <rate>
                                    <timebase>30</timebase>
                                    <ntsc>TRUE</ntsc>
                                </rate>
                                <start>51824</start>
                                <end>51861</end>
                            </clipitem>
                            <clipitem frameBlend="FALSE" id="clipitem-986">
                                <media>
                                    <video>
                                        <samplecharacteristics>
                                            <height>720</height>
                                            <width>1270</width>
                                        </samplecharacteristics>
                                    </video>
                                </media>
                                <file id="file-1">
                                    <pathurl>/home/davidk/code/python/JC-render/JC-examples/yoga.mp4</pathurl>
                                    <name>yoga.mp4</name>
                                    <rate>
                                        <timebase>30</timebase>
                                        <ntsc>TRUE</ntsc>
                                    </rate>
                                    <duration>54922</duration>
                                    <timecode>
                                        <rate>
                                            <timebase>30</timebase>
                                            <ntsc>TRUE</ntsc>
                                        </rate>
                                        <string>00:00:00:00</string>
                                        <frame>0</frame>
                                        <displayformat>NDF</displayformat>
                                        <media>
                                            <video/>
                                            <audio/>
                                        </media>
                                    </timecode>
                                </file>
                                <name>/home/davidk/code/python/JC-render/JC-examples/yoga.mp4</name>
                                <rate>
                                    <timebase>30</timebase>
                                    <ntsc>TRUE</ntsc>
                                </rate>
                                <start>51861</start>
                                <end>51880</end>
                            </clipitem>
                            <clipitem frameBlend="FALSE" id="clipitem-987">
                                <media>
                                    <video>
                                        <samplecharacteristics>
                                            <height>720</height>
                                            <width>1270</width>
                                        </samplecharacteristics>
                                    </video>
                                </media>
                                <file id="file-1">
                                    <pathurl>/home/davidk/code/python/JC-render/JC-examples/yoga.mp4</pathurl>
                                    <name>yoga.mp4</name>
                                    <rate>
                                        <timebase>30</timebase>
                                        <ntsc>TRUE</ntsc>
                                    </rate>
                                    <duration>54922</duration>
                                    <timecode>
                                        <rate>
                                            <timebase>30</timebase>
                                            <ntsc>TRUE</ntsc>
                                        </rate>
                                        <string>00:00:00:00</string>
                                        <frame>0</frame>
                                        <displayformat>NDF</displayformat>
                                        <media>
                                            <video/>
                                            <audio/>
                                        </media>
                                    </timecode>
                                </file>
                                <name>/home/davidk/code/python/JC-render/JC-examples/yoga.mp4</name>
                                <rate>
                                    <timebase>30</timebase>
                                    <ntsc>TRUE</ntsc>
                                </rate>
                                <start>51880</start>
                                <end>51896</end>
                            </clipitem>
                            <clipitem frameBlend="FALSE" id="clipitem-988">
                                <media>
                                    <video>
                                        <samplecharacteristics>
                                            <height>720</height>
                                            <width>1270</width>
                                        </samplecharacteristics>
                                    </video>
                                </media>
                                <file id="file-1">
                                    <pathurl>/home/davidk/code/python/JC-render/JC-examples/yoga.mp4</pathurl>
                                    <name>yoga.mp4</name>
                                    <rate>
                                        <timebase>30</timebase>
                                        <ntsc>TRUE</ntsc>
                                    </rate>
                                    <duration>54922</duration>
                                    <timecode>
                                        <rate>
                                            <timebase>30</timebase>
                                            <ntsc>TRUE</ntsc>
                                        </rate>
                                        <string>00:00:00:00</string>
                                        <frame>0</frame>
                                        <displayformat>NDF</displayformat>
                                        <media>
                                            <video/>
                                            <audio/>
                                        </media>
                                    </timecode>
                                </file>
                                <name>/home/davidk/code/python/JC-render/JC-examples/yoga.mp4</name>
                                <rate>
                                    <timebase>30</timebase>
                                    <ntsc>TRUE</ntsc>
                                </rate>
                                <start>51896</start>
                                <end>51967</end>
                            </clipitem>
                            <clipitem frameBlend="FALSE" id="clipitem-989">
                                <media>
                                    <video>
                                        <samplecharacteristics>
                                            <height>720</height>
                                            <width>1270</width>
                                        </samplecharacteristics>
                                    </video>
                                </media>
                                <file id="file-1">
                                    <pathurl>/home/davidk/code/python/JC-render/JC-examples/yoga.mp4</pathurl>
                                    <name>yoga.mp4</name>
                                    <rate>
                                        <timebase>30</timebase>
                                        <ntsc>TRUE</ntsc>
                                    </rate>
                                    <duration>54922</duration>
                                    <timecode>
                                        <rate>
                                            <timebase>30</timebase>
                                            <ntsc>TRUE</ntsc>
                                        </rate>
                                        <string>00:00:00:00</string>
                                        <frame>0</frame>
                                        <displayformat>NDF</displayformat>
                                        <media>
                                            <video/>
                                            <audio/>
                                        </media>
                                    </timecode>
                                </file>
                                <name>/home/davidk/code/python/JC-render/JC-examples/yoga.mp4</name>
                                <rate>
                                    <timebase>30</timebase>
                                    <ntsc>TRUE</ntsc>
                                </rate>
                                <start>51967</start>
                                <end>51993</end>
                            </clipitem>
                            <clipitem frameBlend="FALSE" id="clipitem-990">
                                <media>
                                    <video>
                                        <samplecharacteristics>
                                            <height>720</height>
                                            <width>1270</width>
                                        </samplecharacteristics>
                                    </video>
                                </media>
                                <file id="file-1">
                                    <pathurl>/home/davidk/code/python/JC-render/JC-examples/yoga.mp4</pathurl>
                                    <name>yoga.mp4</name>
                                    <rate>
                                        <timebase>30</timebase>
                                        <ntsc>TRUE</ntsc>
                                    </rate>
                                    <duration>54922</duration>
                                    <timecode>
                                        <rate>
                                            <timebase>30</timebase>
                                            <ntsc>TRUE</ntsc>
                                        </rate>
                                        <string>00:00:00:00</string>
                                        <frame>0</frame>
                                        <displayformat>NDF</displayformat>
                                        <media>
                                            <video/>
                                            <audio/>
                                        </media>
                                    </timecode>
                                </file>
                                <name>/home/davidk/code/python/JC-render/JC-examples/yoga.mp4</name>
                                <rate>
                                    <timebase>30</timebase>
                                    <ntsc>TRUE</ntsc>
                                </rate>
                                <start>51993</start>
                                <end>52239</end>
                            </clipitem>
                            <clipitem frameBlend="FALSE" id="clipitem-991">
                                <media>
                                    <video>
                                        <samplecharacteristics>
                                            <height>720</height>
                                            <width>1270</width>
                                        </samplecharacteristics>
                                    </video>
                                </media>
                                <file id="file-1">
                                    <pathurl>/home/davidk/code/python/JC-render/JC-examples/yoga.mp4</pathurl>
                                    <name>yoga.mp4</name>
                                    <rate>
                                        <timebase>30</timebase>
                                        <ntsc>TRUE</ntsc>
                                    </rate>
                                    <duration>54922</duration>
                                    <timecode>
                                        <rate>
                                            <timebase>30</timebase>
                                            <ntsc>TRUE</ntsc>
                                        </rate>
                                        <string>00:00:00:00</string>
                                        <frame>0</frame>
                                        <displayformat>NDF</displayformat>
                                        <media>
                                            <video/>
                                            <audio/>
                                        </media>
                                    </timecode>
                                </file>
                                <name>/home/davidk/code/python/JC-render/JC-examples/yoga.mp4</name>
                                <rate>
                                    <timebase>30</timebase>
                                    <ntsc>TRUE</ntsc>
                                </rate>
                                <start>52239</start>
                                <end>52265</end>
                            </clipitem>
                            <clipitem frameBlend="FALSE" id="clipitem-992">
                                <media>
                                    <video>
                                        <samplecharacteristics>
                                            <height>720</height>
                                            <width>1270</width>
                                        </samplecharacteristics>
                                    </video>
                                </media>
                                <file id="file-1">
                                    <pathurl>/home/davidk/code/python/JC-render/JC-examples/yoga.mp4</pathurl>
                                    <name>yoga.mp4</name>
                                    <rate>
                                        <timebase>30</timebase>
                                        <ntsc>TRUE</ntsc>
                                    </rate>
                                    <duration>54922</duration>
                                    <timecode>
                                        <rate>
                                            <timebase>30</timebase>
                                            <ntsc>TRUE</ntsc>
                                        </rate>
                                        <string>00:00:00:00</string>
                                        <frame>0</frame>
                                        <displayformat>NDF</displayformat>
                                        <media>
                                            <video/>
                                            <audio/>
                                        </media>
                                    </timecode>
                                </file>
                                <name>/home/davidk/code/python/JC-render/JC-examples/yoga.mp4</name>
                                <rate>
                                    <timebase>30</timebase>
                                    <ntsc>TRUE</ntsc>
                                </rate>
                                <start>52265</start>
                                <end>52270</end>
                            </clipitem>
                            <clipitem frameBlend="FALSE" id="clipitem-993">
                                <media>
                                    <video>
                                        <samplecharacteristics>
                                            <height>720</height>
                                            <width>1270</width>
                                        </samplecharacteristics>
                                    </video>
                                </media>
                                <file id="file-1">
                                    <pathurl>/home/davidk/code/python/JC-render/JC-examples/yoga.mp4</pathurl>
                                    <name>yoga.mp4</name>
                                    <rate>
                                        <timebase>30</timebase>
                                        <ntsc>TRUE</ntsc>
                                    </rate>
                                    <duration>54922</duration>
                                    <timecode>
                                        <rate>
                                            <timebase>30</timebase>
                                            <ntsc>TRUE</ntsc>
                                        </rate>
                                        <string>00:00:00:00</string>
                                        <frame>0</frame>
                                        <displayformat>NDF</displayformat>
                                        <media>
                                            <video/>
                                            <audio/>
                                        </media>
                                    </timecode>
                                </file>
                                <name>/home/davidk/code/python/JC-render/JC-examples/yoga.mp4</name>
                                <rate>
                                    <timebase>30</timebase>
                                    <ntsc>TRUE</ntsc>
                                </rate>
                                <start>52270</start>
                                <end>52303</end>
                            </clipitem>
                            <clipitem frameBlend="FALSE" id="clipitem-994">
                                <media>
                                    <video>
                                        <samplecharacteristics>
                                            <height>720</height>
                                            <width>1270</width>
                                        </samplecharacteristics>
                                    </video>
                                </media>
                                <file id="file-1">
                                    <pathurl>/home/davidk/code/python/JC-render/JC-examples/yoga.mp4</pathurl>
                                    <name>yoga.mp4</name>
                                    <rate>
                                        <timebase>30</timebase>
                                        <ntsc>TRUE</ntsc>
                                    </rate>
                                    <duration>54922</duration>
                                    <timecode>
                                        <rate>
                                            <timebase>30</timebase>
                                            <ntsc>TRUE</ntsc>
                                        </rate>
                                        <string>00:00:00:00</string>
                                        <frame>0</frame>
                                        <displayformat>NDF</displayformat>
                                        <media>
                                            <video/>
                                            <audio/>
                                        </media>
                                    </timecode>
                                </file>
                                <name>/home/davidk/code/python/JC-render/JC-examples/yoga.mp4</name>
                                <rate>
                                    <timebase>30</timebase>
                                    <ntsc>TRUE</ntsc>
                                </rate>
                                <start>52303</start>
                                <end>52316</end>
                            </clipitem>
                            <clipitem frameBlend="FALSE" id="clipitem-995">
                                <media>
                                    <video>
                                        <samplecharacteristics>
                                            <height>720</height>
                                            <width>1270</width>
                                        </samplecharacteristics>
                                    </video>
                                </media>
                                <file id="file-1">
                                    <pathurl>/home/davidk/code/python/JC-render/JC-examples/yoga.mp4</pathurl>
                                    <name>yoga.mp4</name>
                                    <rate>
                                        <timebase>30</timebase>
                                        <ntsc>TRUE</ntsc>
                                    </rate>
                                    <duration>54922</duration>
                                    <timecode>
                                        <rate>
                                            <timebase>30</timebase>
                                            <ntsc>TRUE</ntsc>
                                        </rate>
                                        <string>00:00:00:00</string>
                                        <frame>0</frame>
                                        <displayformat>NDF</displayformat>
                                        <media>
                                            <video/>
                                            <audio/>
                                        </media>
                                    </timecode>
                                </file>
                                <name>/home/davidk/code/python/JC-render/JC-examples/yoga.mp4</name>
                                <rate>
                                    <timebase>30</timebase>
                                    <ntsc>TRUE</ntsc>
                                </rate>
                                <start>52316</start>
                                <end>52408</end>
                            </clipitem>
                            <clipitem frameBlend="FALSE" id="clipitem-996">
                                <media>
                                    <video>
                                        <samplecharacteristics>
                                            <height>720</height>
                                            <width>1270</width>
                                        </samplecharacteristics>
                                    </video>
                                </media>
                                <file id="file-1">
                                    <pathurl>/home/davidk/code/python/JC-render/JC-examples/yoga.mp4</pathurl>
                                    <name>yoga.mp4</name>
                                    <rate>
                                        <timebase>30</timebase>
                                        <ntsc>TRUE</ntsc>
                                    </rate>
                                    <duration>54922</duration>
                                    <timecode>
                                        <rate>
                                            <timebase>30</timebase>
                                            <ntsc>TRUE</ntsc>
                                        </rate>
                                        <string>00:00:00:00</string>
                                        <frame>0</frame>
                                        <displayformat>NDF</displayformat>
                                        <media>
                                            <video/>
                                            <audio/>
                                        </media>
                                    </timecode>
                                </file>
                                <name>/home/davidk/code/python/JC-render/JC-examples/yoga.mp4</name>
                                <rate>
                                    <timebase>30</timebase>
                                    <ntsc>TRUE</ntsc>
                                </rate>
                                <start>52408</start>
                                <end>52413</end>
                            </clipitem>
                            <clipitem frameBlend="FALSE" id="clipitem-997">
                                <media>
                                    <video>
                                        <samplecharacteristics>
                                            <height>720</height>
                                            <width>1270</width>
                                        </samplecharacteristics>
                                    </video>
                                </media>
                                <file id="file-1">
                                    <pathurl>/home/davidk/code/python/JC-render/JC-examples/yoga.mp4</pathurl>
                                    <name>yoga.mp4</name>
                                    <rate>
                                        <timebase>30</timebase>
                                        <ntsc>TRUE</ntsc>
                                    </rate>
                                    <duration>54922</duration>
                                    <timecode>
                                        <rate>
                                            <timebase>30</timebase>
                                            <ntsc>TRUE</ntsc>
                                        </rate>
                                        <string>00:00:00:00</string>
                                        <frame>0</frame>
                                        <displayformat>NDF</displayformat>
                                        <media>
                                            <video/>
                                            <audio/>
                                        </media>
                                    </timecode>
                                </file>
                                <name>/home/davidk/code/python/JC-render/JC-examples/yoga.mp4</name>
                                <rate>
                                    <timebase>30</timebase>
                                    <ntsc>TRUE</ntsc>
                                </rate>
                                <start>52413</start>
                                <end>52550</end>
                            </clipitem>
                            <clipitem frameBlend="FALSE" id="clipitem-998">
                                <media>
                                    <video>
                                        <samplecharacteristics>
                                            <height>720</height>
                                            <width>1270</width>
                                        </samplecharacteristics>
                                    </video>
                                </media>
                                <file id="file-1">
                                    <pathurl>/home/davidk/code/python/JC-render/JC-examples/yoga.mp4</pathurl>
                                    <name>yoga.mp4</name>
                                    <rate>
                                        <timebase>30</timebase>
                                        <ntsc>TRUE</ntsc>
                                    </rate>
                                    <duration>54922</duration>
                                    <timecode>
                                        <rate>
                                            <timebase>30</timebase>
                                            <ntsc>TRUE</ntsc>
                                        </rate>
                                        <string>00:00:00:00</string>
                                        <frame>0</frame>
                                        <displayformat>NDF</displayformat>
                                        <media>
                                            <video/>
                                            <audio/>
                                        </media>
                                    </timecode>
                                </file>
                                <name>/home/davidk/code/python/JC-render/JC-examples/yoga.mp4</name>
                                <rate>
                                    <timebase>30</timebase>
                                    <ntsc>TRUE</ntsc>
                                </rate>
                                <start>52550</start>
                                <end>52573</end>
                            </clipitem>
                            <clipitem frameBlend="FALSE" id="clipitem-999">
                                <media>
                                    <video>
                                        <samplecharacteristics>
                                            <height>720</height>
                                            <width>1270</width>
                                        </samplecharacteristics>
                                    </video>
                                </media>
                                <file id="file-1">
                                    <pathurl>/home/davidk/code/python/JC-render/JC-examples/yoga.mp4</pathurl>
                                    <name>yoga.mp4</name>
                                    <rate>
                                        <timebase>30</timebase>
                                        <ntsc>TRUE</ntsc>
                                    </rate>
                                    <duration>54922</duration>
                                    <timecode>
                                        <rate>
                                            <timebase>30</timebase>
                                            <ntsc>TRUE</ntsc>
                                        </rate>
                                        <string>00:00:00:00</string>
                                        <frame>0</frame>
                                        <displayformat>NDF</displayformat>
                                        <media>
                                            <video/>
                                            <audio/>
                                        </media>
                                    </timecode>
                                </file>
                                <name>/home/davidk/code/python/JC-render/JC-examples/yoga.mp4</name>
                                <rate>
                                    <timebase>30</timebase>
                                    <ntsc>TRUE</ntsc>
                                </rate>
                                <start>52573</start>
                                <end>52592</end>
                            </clipitem>
                            <clipitem frameBlend="FALSE" id="clipitem-1000">
                                <media>
                                    <video>
                                        <samplecharacteristics>
                                            <height>720</height>
                                            <width>1270</width>
                                        </samplecharacteristics>
                                    </video>
                                </media>
                                <file id="file-1">
                                    <pathurl>/home/davidk/code/python/JC-render/JC-examples/yoga.mp4</pathurl>
                                    <name>yoga.mp4</name>
                                    <rate>
                                        <timebase>30</timebase>
                                        <ntsc>TRUE</ntsc>
                                    </rate>
                                    <duration>54922</duration>
                                    <timecode>
                                        <rate>
                                            <timebase>30</timebase>
                                            <ntsc>TRUE</ntsc>
                                        </rate>
                                        <string>00:00:00:00</string>
                                        <frame>0</frame>
                                        <displayformat>NDF</displayformat>
                                        <media>
                                            <video/>
                                            <audio/>
                                        </media>
                                    </timecode>
                                </file>
                                <name>/home/davidk/code/python/JC-render/JC-examples/yoga.mp4</name>
                                <rate>
                                    <timebase>30</timebase>
                                    <ntsc>TRUE</ntsc>
                                </rate>
                                <start>52592</start>
                                <end>52608</end>
                            </clipitem>
                            <clipitem frameBlend="FALSE" id="clipitem-1001">
                                <media>
                                    <video>
                                        <samplecharacteristics>
                                            <height>720</height>
                                            <width>1270</width>
                                        </samplecharacteristics>
                                    </video>
                                </media>
                                <file id="file-1">
                                    <pathurl>/home/davidk/code/python/JC-render/JC-examples/yoga.mp4</pathurl>
                                    <name>yoga.mp4</name>
                                    <rate>
                                        <timebase>30</timebase>
                                        <ntsc>TRUE</ntsc>
                                    </rate>
                                    <duration>54922</duration>
                                    <timecode>
                                        <rate>
                                            <timebase>30</timebase>
                                            <ntsc>TRUE</ntsc>
                                        </rate>
                                        <string>00:00:00:00</string>
                                        <frame>0</frame>
                                        <displayformat>NDF</displayformat>
                                        <media>
                                            <video/>
                                            <audio/>
                                        </media>
                                    </timecode>
                                </file>
                                <name>/home/davidk/code/python/JC-render/JC-examples/yoga.mp4</name>
                                <rate>
                                    <timebase>30</timebase>
                                    <ntsc>TRUE</ntsc>
                                </rate>
                                <start>52608</start>
                                <end>52728</end>
                            </clipitem>
                            <clipitem frameBlend="FALSE" id="clipitem-1002">
                                <media>
                                    <video>
                                        <samplecharacteristics>
                                            <height>720</height>
                                            <width>1270</width>
                                        </samplecharacteristics>
                                    </video>
                                </media>
                                <file id="file-1">
                                    <pathurl>/home/davidk/code/python/JC-render/JC-examples/yoga.mp4</pathurl>
                                    <name>yoga.mp4</name>
                                    <rate>
                                        <timebase>30</timebase>
                                        <ntsc>TRUE</ntsc>
                                    </rate>
                                    <duration>54922</duration>
                                    <timecode>
                                        <rate>
                                            <timebase>30</timebase>
                                            <ntsc>TRUE</ntsc>
                                        </rate>
                                        <string>00:00:00:00</string>
                                        <frame>0</frame>
                                        <displayformat>NDF</displayformat>
                                        <media>
                                            <video/>
                                            <audio/>
                                        </media>
                                    </timecode>
                                </file>
                                <name>/home/davidk/code/python/JC-render/JC-examples/yoga.mp4</name>
                                <rate>
                                    <timebase>30</timebase>
                                    <ntsc>TRUE</ntsc>
                                </rate>
                                <start>52728</start>
                                <end>52730</end>
                            </clipitem>
                            <clipitem frameBlend="FALSE" id="clipitem-1003">
                                <media>
                                    <video>
                                        <samplecharacteristics>
                                            <height>720</height>
                                            <width>1270</width>
                                        </samplecharacteristics>
                                    </video>
                                </media>
                                <file id="file-1">
                                    <pathurl>/home/davidk/code/python/JC-render/JC-examples/yoga.mp4</pathurl>
                                    <name>yoga.mp4</name>
                                    <rate>
                                        <timebase>30</timebase>
                                        <ntsc>TRUE</ntsc>
                                    </rate>
                                    <duration>54922</duration>
                                    <timecode>
                                        <rate>
                                            <timebase>30</timebase>
                                            <ntsc>TRUE</ntsc>
                                        </rate>
                                        <string>00:00:00:00</string>
                                        <frame>0</frame>
                                        <displayformat>NDF</displayformat>
                                        <media>
                                            <video/>
                                            <audio/>
                                        </media>
                                    </timecode>
                                </file>
                                <name>/home/davidk/code/python/JC-render/JC-examples/yoga.mp4</name>
                                <rate>
                                    <timebase>30</timebase>
                                    <ntsc>TRUE</ntsc>
                                </rate>
                                <start>52730</start>
                                <end>52878</end>
                            </clipitem>
                            <clipitem frameBlend="FALSE" id="clipitem-1004">
                                <media>
                                    <video>
                                        <samplecharacteristics>
                                            <height>720</height>
                                            <width>1270</width>
                                        </samplecharacteristics>
                                    </video>
                                </media>
                                <file id="file-1">
                                    <pathurl>/home/davidk/code/python/JC-render/JC-examples/yoga.mp4</pathurl>
                                    <name>yoga.mp4</name>
                                    <rate>
                                        <timebase>30</timebase>
                                        <ntsc>TRUE</ntsc>
                                    </rate>
                                    <duration>54922</duration>
                                    <timecode>
                                        <rate>
                                            <timebase>30</timebase>
                                            <ntsc>TRUE</ntsc>
                                        </rate>
                                        <string>00:00:00:00</string>
                                        <frame>0</frame>
                                        <displayformat>NDF</displayformat>
                                        <media>
                                            <video/>
                                            <audio/>
                                        </media>
                                    </timecode>
                                </file>
                                <name>/home/davidk/code/python/JC-render/JC-examples/yoga.mp4</name>
                                <rate>
                                    <timebase>30</timebase>
                                    <ntsc>TRUE</ntsc>
                                </rate>
                                <start>52878</start>
                                <end>52880</end>
                            </clipitem>
                            <clipitem frameBlend="FALSE" id="clipitem-1005">
                                <media>
                                    <video>
                                        <samplecharacteristics>
                                            <height>720</height>
                                            <width>1270</width>
                                        </samplecharacteristics>
                                    </video>
                                </media>
                                <file id="file-1">
                                    <pathurl>/home/davidk/code/python/JC-render/JC-examples/yoga.mp4</pathurl>
                                    <name>yoga.mp4</name>
                                    <rate>
                                        <timebase>30</timebase>
                                        <ntsc>TRUE</ntsc>
                                    </rate>
                                    <duration>54922</duration>
                                    <timecode>
                                        <rate>
                                            <timebase>30</timebase>
                                            <ntsc>TRUE</ntsc>
                                        </rate>
                                        <string>00:00:00:00</string>
                                        <frame>0</frame>
                                        <displayformat>NDF</displayformat>
                                        <media>
                                            <video/>
                                            <audio/>
                                        </media>
                                    </timecode>
                                </file>
                                <name>/home/davidk/code/python/JC-render/JC-examples/yoga.mp4</name>
                                <rate>
                                    <timebase>30</timebase>
                                    <ntsc>TRUE</ntsc>
                                </rate>
                                <start>52880</start>
                                <end>53216</end>
                            </clipitem>
                            <clipitem frameBlend="FALSE" id="clipitem-1006">
                                <media>
                                    <video>
                                        <samplecharacteristics>
                                            <height>720</height>
                                            <width>1270</width>
                                        </samplecharacteristics>
                                    </video>
                                </media>
                                <file id="file-1">
                                    <pathurl>/home/davidk/code/python/JC-render/JC-examples/yoga.mp4</pathurl>
                                    <name>yoga.mp4</name>
                                    <rate>
                                        <timebase>30</timebase>
                                        <ntsc>TRUE</ntsc>
                                    </rate>
                                    <duration>54922</duration>
                                    <timecode>
                                        <rate>
                                            <timebase>30</timebase>
                                            <ntsc>TRUE</ntsc>
                                        </rate>
                                        <string>00:00:00:00</string>
                                        <frame>0</frame>
                                        <displayformat>NDF</displayformat>
                                        <media>
                                            <video/>
                                            <audio/>
                                        </media>
                                    </timecode>
                                </file>
                                <name>/home/davidk/code/python/JC-render/JC-examples/yoga.mp4</name>
                                <rate>
                                    <timebase>30</timebase>
                                    <ntsc>TRUE</ntsc>
                                </rate>
                                <start>53216</start>
                                <end>53239</end>
                            </clipitem>
                            <clipitem frameBlend="FALSE" id="clipitem-1007">
                                <media>
                                    <video>
                                        <samplecharacteristics>
                                            <height>720</height>
                                            <width>1270</width>
                                        </samplecharacteristics>
                                    </video>
                                </media>
                                <file id="file-1">
                                    <pathurl>/home/davidk/code/python/JC-render/JC-examples/yoga.mp4</pathurl>
                                    <name>yoga.mp4</name>
                                    <rate>
                                        <timebase>30</timebase>
                                        <ntsc>TRUE</ntsc>
                                    </rate>
                                    <duration>54922</duration>
                                    <timecode>
                                        <rate>
                                            <timebase>30</timebase>
                                            <ntsc>TRUE</ntsc>
                                        </rate>
                                        <string>00:00:00:00</string>
                                        <frame>0</frame>
                                        <displayformat>NDF</displayformat>
                                        <media>
                                            <video/>
                                            <audio/>
                                        </media>
                                    </timecode>
                                </file>
                                <name>/home/davidk/code/python/JC-render/JC-examples/yoga.mp4</name>
                                <rate>
                                    <timebase>30</timebase>
                                    <ntsc>TRUE</ntsc>
                                </rate>
                                <start>53239</start>
                                <end>53414</end>
                            </clipitem>
                            <clipitem frameBlend="FALSE" id="clipitem-1008">
                                <media>
                                    <video>
                                        <samplecharacteristics>
                                            <height>720</height>
                                            <width>1270</width>
                                        </samplecharacteristics>
                                    </video>
                                </media>
                                <file id="file-1">
                                    <pathurl>/home/davidk/code/python/JC-render/JC-examples/yoga.mp4</pathurl>
                                    <name>yoga.mp4</name>
                                    <rate>
                                        <timebase>30</timebase>
                                        <ntsc>TRUE</ntsc>
                                    </rate>
                                    <duration>54922</duration>
                                    <timecode>
                                        <rate>
                                            <timebase>30</timebase>
                                            <ntsc>TRUE</ntsc>
                                        </rate>
                                        <string>00:00:00:00</string>
                                        <frame>0</frame>
                                        <displayformat>NDF</displayformat>
                                        <media>
                                            <video/>
                                            <audio/>
                                        </media>
                                    </timecode>
                                </file>
                                <name>/home/davidk/code/python/JC-render/JC-examples/yoga.mp4</name>
                                <rate>
                                    <timebase>30</timebase>
                                    <ntsc>TRUE</ntsc>
                                </rate>
                                <start>53414</start>
                                <end>53420</end>
                            </clipitem>
                            <clipitem frameBlend="FALSE" id="clipitem-1009">
                                <media>
                                    <video>
                                        <samplecharacteristics>
                                            <height>720</height>
                                            <width>1270</width>
                                        </samplecharacteristics>
                                    </video>
                                </media>
                                <file id="file-1">
                                    <pathurl>/home/davidk/code/python/JC-render/JC-examples/yoga.mp4</pathurl>
                                    <name>yoga.mp4</name>
                                    <rate>
                                        <timebase>30</timebase>
                                        <ntsc>TRUE</ntsc>
                                    </rate>
                                    <duration>54922</duration>
                                    <timecode>
                                        <rate>
                                            <timebase>30</timebase>
                                            <ntsc>TRUE</ntsc>
                                        </rate>
                                        <string>00:00:00:00</string>
                                        <frame>0</frame>
                                        <displayformat>NDF</displayformat>
                                        <media>
                                            <video/>
                                            <audio/>
                                        </media>
                                    </timecode>
                                </file>
                                <name>/home/davidk/code/python/JC-render/JC-examples/yoga.mp4</name>
                                <rate>
                                    <timebase>30</timebase>
                                    <ntsc>TRUE</ntsc>
                                </rate>
                                <start>53420</start>
                                <end>53574</end>
                            </clipitem>
                            <clipitem frameBlend="FALSE" id="clipitem-1010">
                                <media>
                                    <video>
                                        <samplecharacteristics>
                                            <height>720</height>
                                            <width>1270</width>
                                        </samplecharacteristics>
                                    </video>
                                </media>
                                <file id="file-1">
                                    <pathurl>/home/davidk/code/python/JC-render/JC-examples/yoga.mp4</pathurl>
                                    <name>yoga.mp4</name>
                                    <rate>
                                        <timebase>30</timebase>
                                        <ntsc>TRUE</ntsc>
                                    </rate>
                                    <duration>54922</duration>
                                    <timecode>
                                        <rate>
                                            <timebase>30</timebase>
                                            <ntsc>TRUE</ntsc>
                                        </rate>
                                        <string>00:00:00:00</string>
                                        <frame>0</frame>
                                        <displayformat>NDF</displayformat>
                                        <media>
                                            <video/>
                                            <audio/>
                                        </media>
                                    </timecode>
                                </file>
                                <name>/home/davidk/code/python/JC-render/JC-examples/yoga.mp4</name>
                                <rate>
                                    <timebase>30</timebase>
                                    <ntsc>TRUE</ntsc>
                                </rate>
                                <start>53574</start>
                                <end>53608</end>
                            </clipitem>
                            <clipitem frameBlend="FALSE" id="clipitem-1011">
                                <media>
                                    <video>
                                        <samplecharacteristics>
                                            <height>720</height>
                                            <width>1270</width>
                                        </samplecharacteristics>
                                    </video>
                                </media>
                                <file id="file-1">
                                    <pathurl>/home/davidk/code/python/JC-render/JC-examples/yoga.mp4</pathurl>
                                    <name>yoga.mp4</name>
                                    <rate>
                                        <timebase>30</timebase>
                                        <ntsc>TRUE</ntsc>
                                    </rate>
                                    <duration>54922</duration>
                                    <timecode>
                                        <rate>
                                            <timebase>30</timebase>
                                            <ntsc>TRUE</ntsc>
                                        </rate>
                                        <string>00:00:00:00</string>
                                        <frame>0</frame>
                                        <displayformat>NDF</displayformat>
                                        <media>
                                            <video/>
                                            <audio/>
                                        </media>
                                    </timecode>
                                </file>
                                <name>/home/davidk/code/python/JC-render/JC-examples/yoga.mp4</name>
                                <rate>
                                    <timebase>30</timebase>
                                    <ntsc>TRUE</ntsc>
                                </rate>
                                <start>53608</start>
                                <end>53944</end>
                            </clipitem>
                            <clipitem frameBlend="FALSE" id="clipitem-1012">
                                <media>
                                    <video>
                                        <samplecharacteristics>
                                            <height>720</height>
                                            <width>1270</width>
                                        </samplecharacteristics>
                                    </video>
                                </media>
                                <file id="file-1">
                                    <pathurl>/home/davidk/code/python/JC-render/JC-examples/yoga.mp4</pathurl>
                                    <name>yoga.mp4</name>
                                    <rate>
                                        <timebase>30</timebase>
                                        <ntsc>TRUE</ntsc>
                                    </rate>
                                    <duration>54922</duration>
                                    <timecode>
                                        <rate>
                                            <timebase>30</timebase>
                                            <ntsc>TRUE</ntsc>
                                        </rate>
                                        <string>00:00:00:00</string>
                                        <frame>0</frame>
                                        <displayformat>NDF</displayformat>
                                        <media>
                                            <video/>
                                            <audio/>
                                        </media>
                                    </timecode>
                                </file>
                                <name>/home/davidk/code/python/JC-render/JC-examples/yoga.mp4</name>
                                <rate>
                                    <timebase>30</timebase>
                                    <ntsc>TRUE</ntsc>
                                </rate>
                                <start>53944</start>
                                <end>53946</end>
                            </clipitem>
                            <clipitem frameBlend="FALSE" id="clipitem-1013">
                                <media>
                                    <video>
                                        <samplecharacteristics>
                                            <height>720</height>
                                            <width>1270</width>
                                        </samplecharacteristics>
                                    </video>
                                </media>
                                <file id="file-1">
                                    <pathurl>/home/davidk/code/python/JC-render/JC-examples/yoga.mp4</pathurl>
                                    <name>yoga.mp4</name>
                                    <rate>
                                        <timebase>30</timebase>
                                        <ntsc>TRUE</ntsc>
                                    </rate>
                                    <duration>54922</duration>
                                    <timecode>
                                        <rate>
                                            <timebase>30</timebase>
                                            <ntsc>TRUE</ntsc>
                                        </rate>
                                        <string>00:00:00:00</string>
                                        <frame>0</frame>
                                        <displayformat>NDF</displayformat>
                                        <media>
                                            <video/>
                                            <audio/>
                                        </media>
                                    </timecode>
                                </file>
                                <name>/home/davidk/code/python/JC-render/JC-examples/yoga.mp4</name>
                                <rate>
                                    <timebase>30</timebase>
                                    <ntsc>TRUE</ntsc>
                                </rate>
                                <start>53946</start>
                                <end>54386</end>
                            </clipitem>
                            <clipitem frameBlend="FALSE" id="clipitem-1014">
                                <media>
                                    <video>
                                        <samplecharacteristics>
                                            <height>720</height>
                                            <width>1270</width>
                                        </samplecharacteristics>
                                    </video>
                                </media>
                                <file id="file-1">
                                    <pathurl>/home/davidk/code/python/JC-render/JC-examples/yoga.mp4</pathurl>
                                    <name>yoga.mp4</name>
                                    <rate>
                                        <timebase>30</timebase>
                                        <ntsc>TRUE</ntsc>
                                    </rate>
                                    <duration>54922</duration>
                                    <timecode>
                                        <rate>
                                            <timebase>30</timebase>
                                            <ntsc>TRUE</ntsc>
                                        </rate>
                                        <string>00:00:00:00</string>
                                        <frame>0</frame>
                                        <displayformat>NDF</displayformat>
                                        <media>
                                            <video/>
                                            <audio/>
                                        </media>
                                    </timecode>
                                </file>
                                <name>/home/davidk/code/python/JC-render/JC-examples/yoga.mp4</name>
                                <rate>
                                    <timebase>30</timebase>
                                    <ntsc>TRUE</ntsc>
                                </rate>
                                <start>54386</start>
                                <end>54388</end>
                            </clipitem>
                            <clipitem frameBlend="FALSE" id="clipitem-1015">
                                <media>
                                    <video>
                                        <samplecharacteristics>
                                            <height>720</height>
                                            <width>1270</width>
                                        </samplecharacteristics>
                                    </video>
                                </media>
                                <file id="file-1">
                                    <pathurl>/home/davidk/code/python/JC-render/JC-examples/yoga.mp4</pathurl>
                                    <name>yoga.mp4</name>
                                    <rate>
                                        <timebase>30</timebase>
                                        <ntsc>TRUE</ntsc>
                                    </rate>
                                    <duration>54922</duration>
                                    <timecode>
                                        <rate>
                                            <timebase>30</timebase>
                                            <ntsc>TRUE</ntsc>
                                        </rate>
                                        <string>00:00:00:00</string>
                                        <frame>0</frame>
                                        <displayformat>NDF</displayformat>
                                        <media>
                                            <video/>
                                            <audio/>
                                        </media>
                                    </timecode>
                                </file>
                                <name>/home/davidk/code/python/JC-render/JC-examples/yoga.mp4</name>
                                <rate>
                                    <timebase>30</timebase>
                                    <ntsc>TRUE</ntsc>
                                </rate>
                                <start>54388</start>
                                <end>54407</end>
                            </clipitem>
                            <clipitem frameBlend="FALSE" id="clipitem-1016">
                                <media>
                                    <video>
                                        <samplecharacteristics>
                                            <height>720</height>
                                            <width>1270</width>
                                        </samplecharacteristics>
                                    </video>
                                </media>
                                <file id="file-1">
                                    <pathurl>/home/davidk/code/python/JC-render/JC-examples/yoga.mp4</pathurl>
                                    <name>yoga.mp4</name>
                                    <rate>
                                        <timebase>30</timebase>
                                        <ntsc>TRUE</ntsc>
                                    </rate>
                                    <duration>54922</duration>
                                    <timecode>
                                        <rate>
                                            <timebase>30</timebase>
                                            <ntsc>TRUE</ntsc>
                                        </rate>
                                        <string>00:00:00:00</string>
                                        <frame>0</frame>
                                        <displayformat>NDF</displayformat>
                                        <media>
                                            <video/>
                                            <audio/>
                                        </media>
                                    </timecode>
                                </file>
                                <name>/home/davidk/code/python/JC-render/JC-examples/yoga.mp4</name>
                                <rate>
                                    <timebase>30</timebase>
                                    <ntsc>TRUE</ntsc>
                                </rate>
                                <start>54407</start>
                                <end>54412</end>
                            </clipitem>
                            <clipitem frameBlend="FALSE" id="clipitem-1017">
                                <media>
                                    <video>
                                        <samplecharacteristics>
                                            <height>720</height>
                                            <width>1270</width>
                                        </samplecharacteristics>
                                    </video>
                                </media>
                                <file id="file-1">
                                    <pathurl>/home/davidk/code/python/JC-render/JC-examples/yoga.mp4</pathurl>
                                    <name>yoga.mp4</name>
                                    <rate>
                                        <timebase>30</timebase>
                                        <ntsc>TRUE</ntsc>
                                    </rate>
                                    <duration>54922</duration>
                                    <timecode>
                                        <rate>
                                            <timebase>30</timebase>
                                            <ntsc>TRUE</ntsc>
                                        </rate>
                                        <string>00:00:00:00</string>
                                        <frame>0</frame>
                                        <displayformat>NDF</displayformat>
                                        <media>
                                            <video/>
                                            <audio/>
                                        </media>
                                    </timecode>
                                </file>
                                <name>/home/davidk/code/python/JC-render/JC-examples/yoga.mp4</name>
                                <rate>
                                    <timebase>30</timebase>
                                    <ntsc>TRUE</ntsc>
                                </rate>
                                <start>54412</start>
                                <end>54438</end>
                            </clipitem>
                            <clipitem frameBlend="FALSE" id="clipitem-1018">
                                <media>
                                    <video>
                                        <samplecharacteristics>
                                            <height>720</height>
                                            <width>1270</width>
                                        </samplecharacteristics>
                                    </video>
                                </media>
                                <file id="file-1">
                                    <pathurl>/home/davidk/code/python/JC-render/JC-examples/yoga.mp4</pathurl>
                                    <name>yoga.mp4</name>
                                    <rate>
                                        <timebase>30</timebase>
                                        <ntsc>TRUE</ntsc>
                                    </rate>
                                    <duration>54922</duration>
                                    <timecode>
                                        <rate>
                                            <timebase>30</timebase>
                                            <ntsc>TRUE</ntsc>
                                        </rate>
                                        <string>00:00:00:00</string>
                                        <frame>0</frame>
                                        <displayformat>NDF</displayformat>
                                        <media>
                                            <video/>
                                            <audio/>
                                        </media>
                                    </timecode>
                                </file>
                                <name>/home/davidk/code/python/JC-render/JC-examples/yoga.mp4</name>
                                <rate>
                                    <timebase>30</timebase>
                                    <ntsc>TRUE</ntsc>
                                </rate>
                                <start>54438</start>
                                <end>54444</end>
                            </clipitem>
                            <clipitem frameBlend="FALSE" id="clipitem-1019">
                                <media>
                                    <video>
                                        <samplecharacteristics>
                                            <height>720</height>
                                            <width>1270</width>
                                        </samplecharacteristics>
                                    </video>
                                </media>
                                <file id="file-1">
                                    <pathurl>/home/davidk/code/python/JC-render/JC-examples/yoga.mp4</pathurl>
                                    <name>yoga.mp4</name>
                                    <rate>
                                        <timebase>30</timebase>
                                        <ntsc>TRUE</ntsc>
                                    </rate>
                                    <duration>54922</duration>
                                    <timecode>
                                        <rate>
                                            <timebase>30</timebase>
                                            <ntsc>TRUE</ntsc>
                                        </rate>
                                        <string>00:00:00:00</string>
                                        <frame>0</frame>
                                        <displayformat>NDF</displayformat>
                                        <media>
                                            <video/>
                                            <audio/>
                                        </media>
                                    </timecode>
                                </file>
                                <name>/home/davidk/code/python/JC-render/JC-examples/yoga.mp4</name>
                                <rate>
                                    <timebase>30</timebase>
                                    <ntsc>TRUE</ntsc>
                                </rate>
                                <start>54444</start>
                                <end>54560</end>
                            </clipitem>
                            <clipitem frameBlend="FALSE" id="clipitem-1020">
                                <media>
                                    <video>
                                        <samplecharacteristics>
                                            <height>720</height>
                                            <width>1270</width>
                                        </samplecharacteristics>
                                    </video>
                                </media>
                                <file id="file-1">
                                    <pathurl>/home/davidk/code/python/JC-render/JC-examples/yoga.mp4</pathurl>
                                    <name>yoga.mp4</name>
                                    <rate>
                                        <timebase>30</timebase>
                                        <ntsc>TRUE</ntsc>
                                    </rate>
                                    <duration>54922</duration>
                                    <timecode>
                                        <rate>
                                            <timebase>30</timebase>
                                            <ntsc>TRUE</ntsc>
                                        </rate>
                                        <string>00:00:00:00</string>
                                        <frame>0</frame>
                                        <displayformat>NDF</displayformat>
                                        <media>
                                            <video/>
                                            <audio/>
                                        </media>
                                    </timecode>
                                </file>
                                <name>/home/davidk/code/python/JC-render/JC-examples/yoga.mp4</name>
                                <rate>
                                    <timebase>30</timebase>
                                    <ntsc>TRUE</ntsc>
                                </rate>
                                <start>54560</start>
                                <end>54586</end>
                            </clipitem>
                            <clipitem frameBlend="FALSE" id="clipitem-1021">
                                <media>
                                    <video>
                                        <samplecharacteristics>
                                            <height>720</height>
                                            <width>1270</width>
                                        </samplecharacteristics>
                                    </video>
                                </media>
                                <file id="file-1">
                                    <pathurl>/home/davidk/code/python/JC-render/JC-examples/yoga.mp4</pathurl>
                                    <name>yoga.mp4</name>
                                    <rate>
                                        <timebase>30</timebase>
                                        <ntsc>TRUE</ntsc>
                                    </rate>
                                    <duration>54922</duration>
                                    <timecode>
                                        <rate>
                                            <timebase>30</timebase>
                                            <ntsc>TRUE</ntsc>
                                        </rate>
                                        <string>00:00:00:00</string>
                                        <frame>0</frame>
                                        <displayformat>NDF</displayformat>
                                        <media>
                                            <video/>
                                            <audio/>
                                        </media>
                                    </timecode>
                                </file>
                                <name>/home/davidk/code/python/JC-render/JC-examples/yoga.mp4</name>
                                <rate>
                                    <timebase>30</timebase>
                                    <ntsc>TRUE</ntsc>
                                </rate>
                                <start>54586</start>
                                <end>54602</end>
                            </clipitem>
                            <clipitem frameBlend="FALSE" id="clipitem-1022">
                                <media>
                                    <video>
                                        <samplecharacteristics>
                                            <height>720</height>
                                            <width>1270</width>
                                        </samplecharacteristics>
                                    </video>
                                </media>
                                <file id="file-1">
                                    <pathurl>/home/davidk/code/python/JC-render/JC-examples/yoga.mp4</pathurl>
                                    <name>yoga.mp4</name>
                                    <rate>
                                        <timebase>30</timebase>
                                        <ntsc>TRUE</ntsc>
                                    </rate>
                                    <duration>54922</duration>
                                    <timecode>
                                        <rate>
                                            <timebase>30</timebase>
                                            <ntsc>TRUE</ntsc>
                                        </rate>
                                        <string>00:00:00:00</string>
                                        <frame>0</frame>
                                        <displayformat>NDF</displayformat>
                                        <media>
                                            <video/>
                                            <audio/>
                                        </media>
                                    </timecode>
                                </file>
                                <name>/home/davidk/code/python/JC-render/JC-examples/yoga.mp4</name>
                                <rate>
                                    <timebase>30</timebase>
                                    <ntsc>TRUE</ntsc>
                                </rate>
                                <start>54602</start>
                                <end>54607</end>
                            </clipitem>
                            <clipitem frameBlend="FALSE" id="clipitem-1023">
                                <media>
                                    <video>
                                        <samplecharacteristics>
                                            <height>720</height>
                                            <width>1270</width>
                                        </samplecharacteristics>
                                    </video>
                                </media>
                                <file id="file-1">
                                    <pathurl>/home/davidk/code/python/JC-render/JC-examples/yoga.mp4</pathurl>
                                    <name>yoga.mp4</name>
                                    <rate>
                                        <timebase>30</timebase>
                                        <ntsc>TRUE</ntsc>
                                    </rate>
                                    <duration>54922</duration>
                                    <timecode>
                                        <rate>
                                            <timebase>30</timebase>
                                            <ntsc>TRUE</ntsc>
                                        </rate>
                                        <string>00:00:00:00</string>
                                        <frame>0</frame>
                                        <displayformat>NDF</displayformat>
                                        <media>
                                            <video/>
                                            <audio/>
                                        </media>
                                    </timecode>
                                </file>
                                <name>/home/davidk/code/python/JC-render/JC-examples/yoga.mp4</name>
                                <rate>
                                    <timebase>30</timebase>
                                    <ntsc>TRUE</ntsc>
                                </rate>
                                <start>54607</start>
                                <end>54630</end>
                            </clipitem>
                            <clipitem frameBlend="FALSE" id="clipitem-1024">
                                <media>
                                    <video>
                                        <samplecharacteristics>
                                            <height>720</height>
                                            <width>1270</width>
                                        </samplecharacteristics>
                                    </video>
                                </media>
                                <file id="file-1">
                                    <pathurl>/home/davidk/code/python/JC-render/JC-examples/yoga.mp4</pathurl>
                                    <name>yoga.mp4</name>
                                    <rate>
                                        <timebase>30</timebase>
                                        <ntsc>TRUE</ntsc>
                                    </rate>
                                    <duration>54922</duration>
                                    <timecode>
                                        <rate>
                                            <timebase>30</timebase>
                                            <ntsc>TRUE</ntsc>
                                        </rate>
                                        <string>00:00:00:00</string>
                                        <frame>0</frame>
                                        <displayformat>NDF</displayformat>
                                        <media>
                                            <video/>
                                            <audio/>
                                        </media>
                                    </timecode>
                                </file>
                                <name>/home/davidk/code/python/JC-render/JC-examples/yoga.mp4</name>
                                <rate>
                                    <timebase>30</timebase>
                                    <ntsc>TRUE</ntsc>
                                </rate>
                                <start>54630</start>
                                <end>54747</end>
                            </clipitem>
                            <clipitem frameBlend="FALSE" id="clipitem-1025">
                                <media>
                                    <video>
                                        <samplecharacteristics>
                                            <height>720</height>
                                            <width>1270</width>
                                        </samplecharacteristics>
                                    </video>
                                </media>
                                <file id="file-1">
                                    <pathurl>/home/davidk/code/python/JC-render/JC-examples/yoga.mp4</pathurl>
                                    <name>yoga.mp4</name>
                                    <rate>
                                        <timebase>30</timebase>
                                        <ntsc>TRUE</ntsc>
                                    </rate>
                                    <duration>54922</duration>
                                    <timecode>
                                        <rate>
                                            <timebase>30</timebase>
                                            <ntsc>TRUE</ntsc>
                                        </rate>
                                        <string>00:00:00:00</string>
                                        <frame>0</frame>
                                        <displayformat>NDF</displayformat>
                                        <media>
                                            <video/>
                                            <audio/>
                                        </media>
                                    </timecode>
                                </file>
                                <name>/home/davidk/code/python/JC-render/JC-examples/yoga.mp4</name>
                                <rate>
                                    <timebase>30</timebase>
                                    <ntsc>TRUE</ntsc>
                                </rate>
                                <start>54747</start>
                                <end>54762</end>
                            </clipitem>
                            <clipitem frameBlend="FALSE" id="clipitem-1026">
                                <media>
                                    <video>
                                        <samplecharacteristics>
                                            <height>720</height>
                                            <width>1270</width>
                                        </samplecharacteristics>
                                    </video>
                                </media>
                                <file id="file-1">
                                    <pathurl>/home/davidk/code/python/JC-render/JC-examples/yoga.mp4</pathurl>
                                    <name>yoga.mp4</name>
                                    <rate>
                                        <timebase>30</timebase>
                                        <ntsc>TRUE</ntsc>
                                    </rate>
                                    <duration>54922</duration>
                                    <timecode>
                                        <rate>
                                            <timebase>30</timebase>
                                            <ntsc>TRUE</ntsc>
                                        </rate>
                                        <string>00:00:00:00</string>
                                        <frame>0</frame>
                                        <displayformat>NDF</displayformat>
                                        <media>
                                            <video/>
                                            <audio/>
                                        </media>
                                    </timecode>
                                </file>
                                <name>/home/davidk/code/python/JC-render/JC-examples/yoga.mp4</name>
                                <rate>
                                    <timebase>30</timebase>
                                    <ntsc>TRUE</ntsc>
                                </rate>
                                <start>54762</start>
                                <end>54768</end>
                            </clipitem>
                            <clipitem frameBlend="FALSE" id="clipitem-1027">
                                <media>
                                    <video>
                                        <samplecharacteristics>
                                            <height>720</height>
                                            <width>1270</width>
                                        </samplecharacteristics>
                                    </video>
                                </media>
                                <file id="file-1">
                                    <pathurl>/home/davidk/code/python/JC-render/JC-examples/yoga.mp4</pathurl>
                                    <name>yoga.mp4</name>
                                    <rate>
                                        <timebase>30</timebase>
                                        <ntsc>TRUE</ntsc>
                                    </rate>
                                    <duration>54922</duration>
                                    <timecode>
                                        <rate>
                                            <timebase>30</timebase>
                                            <ntsc>TRUE</ntsc>
                                        </rate>
                                        <string>00:00:00:00</string>
                                        <frame>0</frame>
                                        <displayformat>NDF</displayformat>
                                        <media>
                                            <video/>
                                            <audio/>
                                        </media>
                                    </timecode>
                                </file>
                                <name>/home/davidk/code/python/JC-render/JC-examples/yoga.mp4</name>
                                <rate>
                                    <timebase>30</timebase>
                                    <ntsc>TRUE</ntsc>
                                </rate>
                                <start>54768</start>
                                <end>54783</end>
                            </clipitem>
                            <clipitem frameBlend="FALSE" id="clipitem-1028">
                                <media>
                                    <video>
                                        <samplecharacteristics>
                                            <height>720</height>
                                            <width>1270</width>
                                        </samplecharacteristics>
                                    </video>
                                </media>
                                <file id="file-1">
                                    <pathurl>/home/davidk/code/python/JC-render/JC-examples/yoga.mp4</pathurl>
                                    <name>yoga.mp4</name>
                                    <rate>
                                        <timebase>30</timebase>
                                        <ntsc>TRUE</ntsc>
                                    </rate>
                                    <duration>54922</duration>
                                    <timecode>
                                        <rate>
                                            <timebase>30</timebase>
                                            <ntsc>TRUE</ntsc>
                                        </rate>
                                        <string>00:00:00:00</string>
                                        <frame>0</frame>
                                        <displayformat>NDF</displayformat>
                                        <media>
                                            <video/>
                                            <audio/>
                                        </media>
                                    </timecode>
                                </file>
                                <name>/home/davidk/code/python/JC-render/JC-examples/yoga.mp4</name>
                                <rate>
                                    <timebase>30</timebase>
                                    <ntsc>TRUE</ntsc>
                                </rate>
                                <start>54783</start>
                                <end>54907</end>
                            </clipitem>
                            <clipitem frameBlend="FALSE" id="clipitem-1029">
                                <media>
                                    <video>
                                        <samplecharacteristics>
                                            <height>720</height>
                                            <width>1270</width>
                                        </samplecharacteristics>
                                    </video>
                                </media>
                                <file id="file-1">
                                    <pathurl>/home/davidk/code/python/JC-render/JC-examples/yoga.mp4</pathurl>
                                    <name>yoga.mp4</name>
                                    <rate>
                                        <timebase>30</timebase>
                                        <ntsc>TRUE</ntsc>
                                    </rate>
                                    <duration>54922</duration>
                                    <timecode>
                                        <rate>
                                            <timebase>30</timebase>
                                            <ntsc>TRUE</ntsc>
                                        </rate>
                                        <string>00:00:00:00</string>
                                        <frame>0</frame>
                                        <displayformat>NDF</displayformat>
                                        <media>
                                            <video/>
                                            <audio/>
                                        </media>
                                    </timecode>
                                </file>
                                <name>/home/davidk/code/python/JC-render/JC-examples/yoga.mp4</name>
                                <rate>
                                    <timebase>30</timebase>
                                    <ntsc>TRUE</ntsc>
                                </rate>
                                <start>54907</start>
                                <end>54922</end>
                            </clipitem>
                        </track>
                    </video>
                    <audio>
                        <track>
                            <clipitem id="clipitem-1"/>
                            <clipitem id="clipitem-2"/>
                            <clipitem id="clipitem-3"/>
                            <clipitem id="clipitem-4"/>
                            <clipitem id="clipitem-5"/>
                            <clipitem id="clipitem-6"/>
                            <clipitem id="clipitem-7"/>
                            <clipitem id="clipitem-8"/>
                            <clipitem id="clipitem-9"/>
                            <clipitem id="clipitem-10"/>
                            <clipitem id="clipitem-11"/>
                            <clipitem id="clipitem-12"/>
                            <clipitem id="clipitem-13"/>
                            <clipitem id="clipitem-14"/>
                            <clipitem id="clipitem-15"/>
                            <clipitem id="clipitem-16"/>
                            <clipitem id="clipitem-17"/>
                            <clipitem id="clipitem-18"/>
                            <clipitem id="clipitem-19"/>
                            <clipitem id="clipitem-20"/>
                            <clipitem id="clipitem-21"/>
                            <clipitem id="clipitem-22"/>
                            <clipitem id="clipitem-23"/>
                            <clipitem id="clipitem-24"/>
                            <clipitem id="clipitem-25"/>
                            <clipitem id="clipitem-26"/>
                            <clipitem id="clipitem-27"/>
                            <clipitem id="clipitem-28"/>
                            <clipitem id="clipitem-29"/>
                            <clipitem id="clipitem-30"/>
                            <clipitem id="clipitem-31"/>
                            <clipitem id="clipitem-32"/>
                            <clipitem id="clipitem-33"/>
                            <clipitem id="clipitem-34"/>
                            <clipitem id="clipitem-35"/>
                            <clipitem id="clipitem-36"/>
                            <clipitem id="clipitem-37"/>
                            <clipitem id="clipitem-38"/>
                            <clipitem id="clipitem-39"/>
                            <clipitem id="clipitem-40"/>
                            <clipitem id="clipitem-41"/>
                            <clipitem id="clipitem-42"/>
                            <clipitem id="clipitem-43"/>
                            <clipitem id="clipitem-44"/>
                            <clipitem id="clipitem-45"/>
                            <clipitem id="clipitem-46"/>
                            <clipitem id="clipitem-47"/>
                            <clipitem id="clipitem-48"/>
                            <clipitem id="clipitem-49"/>
                            <clipitem id="clipitem-50"/>
                            <clipitem id="clipitem-51"/>
                            <clipitem id="clipitem-52"/>
                            <clipitem id="clipitem-53"/>
                            <clipitem id="clipitem-54"/>
                            <clipitem id="clipitem-55"/>
                            <clipitem id="clipitem-56"/>
                            <clipitem id="clipitem-57"/>
                            <clipitem id="clipitem-58"/>
                            <clipitem id="clipitem-59"/>
                            <clipitem id="clipitem-60"/>
                            <clipitem id="clipitem-61"/>
                            <clipitem id="clipitem-62"/>
                            <clipitem id="clipitem-63"/>
                            <clipitem id="clipitem-64"/>
                            <clipitem id="clipitem-65"/>
                            <clipitem id="clipitem-66"/>
                            <clipitem id="clipitem-67"/>
                            <clipitem id="clipitem-68"/>
                            <clipitem id="clipitem-69"/>
                            <clipitem id="clipitem-70"/>
                            <clipitem id="clipitem-71"/>
                            <clipitem id="clipitem-72"/>
                            <clipitem id="clipitem-73"/>
                            <clipitem id="clipitem-74"/>
                            <clipitem id="clipitem-75"/>
                            <clipitem id="clipitem-76"/>
                            <clipitem id="clipitem-77"/>
                            <clipitem id="clipitem-78"/>
                            <clipitem id="clipitem-79"/>
                            <clipitem id="clipitem-80"/>
                            <clipitem id="clipitem-81"/>
                            <clipitem id="clipitem-82"/>
                            <clipitem id="clipitem-83"/>
                            <clipitem id="clipitem-84"/>
                            <clipitem id="clipitem-85"/>
                            <clipitem id="clipitem-86"/>
                            <clipitem id="clipitem-87"/>
                            <clipitem id="clipitem-88"/>
                            <clipitem id="clipitem-89"/>
                            <clipitem id="clipitem-90"/>
                            <clipitem id="clipitem-91"/>
                            <clipitem id="clipitem-92"/>
                            <clipitem id="clipitem-93"/>
                            <clipitem id="clipitem-94"/>
                            <clipitem id="clipitem-95"/>
                            <clipitem id="clipitem-96"/>
                            <clipitem id="clipitem-97"/>
                            <clipitem id="clipitem-98"/>
                            <clipitem id="clipitem-99"/>
                            <clipitem id="clipitem-100"/>
                            <clipitem id="clipitem-101"/>
                            <clipitem id="clipitem-102"/>
                            <clipitem id="clipitem-103"/>
                            <clipitem id="clipitem-104"/>
                            <clipitem id="clipitem-105"/>
                            <clipitem id="clipitem-106"/>
                            <clipitem id="clipitem-107"/>
                            <clipitem id="clipitem-108"/>
                            <clipitem id="clipitem-109"/>
                            <clipitem id="clipitem-110"/>
                            <clipitem id="clipitem-111"/>
                            <clipitem id="clipitem-112"/>
                            <clipitem id="clipitem-113"/>
                            <clipitem id="clipitem-114"/>
                            <clipitem id="clipitem-115"/>
                            <clipitem id="clipitem-116"/>
                            <clipitem id="clipitem-117"/>
                            <clipitem id="clipitem-118"/>
                            <clipitem id="clipitem-119"/>
                            <clipitem id="clipitem-120"/>
                            <clipitem id="clipitem-121"/>
                            <clipitem id="clipitem-122"/>
                            <clipitem id="clipitem-123"/>
                            <clipitem id="clipitem-124"/>
                            <clipitem id="clipitem-125"/>
                            <clipitem id="clipitem-126"/>
                            <clipitem id="clipitem-127"/>
                            <clipitem id="clipitem-128"/>
                            <clipitem id="clipitem-129"/>
                            <clipitem id="clipitem-130"/>
                            <clipitem id="clipitem-131"/>
                            <clipitem id="clipitem-132"/>
                            <clipitem id="clipitem-133"/>
                            <clipitem id="clipitem-134"/>
                            <clipitem id="clipitem-135"/>
                            <clipitem id="clipitem-136"/>
                            <clipitem id="clipitem-137"/>
                            <clipitem id="clipitem-138"/>
                            <clipitem id="clipitem-139"/>
                            <clipitem id="clipitem-140"/>
                            <clipitem id="clipitem-141"/>
                            <clipitem id="clipitem-142"/>
                            <clipitem id="clipitem-143"/>
                            <clipitem id="clipitem-144"/>
                            <clipitem id="clipitem-145"/>
                            <clipitem id="clipitem-146"/>
                            <clipitem id="clipitem-147"/>
                            <clipitem id="clipitem-148"/>
                            <clipitem id="clipitem-149"/>
                            <clipitem id="clipitem-150"/>
                            <clipitem id="clipitem-151"/>
                            <clipitem id="clipitem-152"/>
                            <clipitem id="clipitem-153"/>
                            <clipitem id="clipitem-154"/>
                            <clipitem id="clipitem-155"/>
                            <clipitem id="clipitem-156"/>
                            <clipitem id="clipitem-157"/>
                            <clipitem id="clipitem-158"/>
                            <clipitem id="clipitem-159"/>
                            <clipitem id="clipitem-160"/>
                            <clipitem id="clipitem-161"/>
                            <clipitem id="clipitem-162"/>
                            <clipitem id="clipitem-163"/>
                            <clipitem id="clipitem-164"/>
                            <clipitem id="clipitem-165"/>
                            <clipitem id="clipitem-166"/>
                            <clipitem id="clipitem-167"/>
                            <clipitem id="clipitem-168"/>
                            <clipitem id="clipitem-169"/>
                            <clipitem id="clipitem-170"/>
                            <clipitem id="clipitem-171"/>
                            <clipitem id="clipitem-172"/>
                            <clipitem id="clipitem-173"/>
                            <clipitem id="clipitem-174"/>
                            <clipitem id="clipitem-175"/>
                            <clipitem id="clipitem-176"/>
                            <clipitem id="clipitem-177"/>
                            <clipitem id="clipitem-178"/>
                            <clipitem id="clipitem-179"/>
                            <clipitem id="clipitem-180"/>
                            <clipitem id="clipitem-181"/>
                            <clipitem id="clipitem-182"/>
                            <clipitem id="clipitem-183"/>
                            <clipitem id="clipitem-184"/>
                            <clipitem id="clipitem-185"/>
                            <clipitem id="clipitem-186"/>
                            <clipitem id="clipitem-187"/>
                            <clipitem id="clipitem-188"/>
                            <clipitem id="clipitem-189"/>
                            <clipitem id="clipitem-190"/>
                            <clipitem id="clipitem-191"/>
                            <clipitem id="clipitem-192"/>
                            <clipitem id="clipitem-193"/>
                            <clipitem id="clipitem-194"/>
                            <clipitem id="clipitem-195"/>
                            <clipitem id="clipitem-196"/>
                            <clipitem id="clipitem-197"/>
                            <clipitem id="clipitem-198"/>
                            <clipitem id="clipitem-199"/>
                            <clipitem id="clipitem-200"/>
                            <clipitem id="clipitem-201"/>
                            <clipitem id="clipitem-202"/>
                            <clipitem id="clipitem-203"/>
                            <clipitem id="clipitem-204"/>
                            <clipitem id="clipitem-205"/>
                            <clipitem id="clipitem-206"/>
                            <clipitem id="clipitem-207"/>
                            <clipitem id="clipitem-208"/>
                            <clipitem id="clipitem-209"/>
                            <clipitem id="clipitem-210"/>
                            <clipitem id="clipitem-211"/>
                            <clipitem id="clipitem-212"/>
                            <clipitem id="clipitem-213"/>
                            <clipitem id="clipitem-214"/>
                            <clipitem id="clipitem-215"/>
                            <clipitem id="clipitem-216"/>
                            <clipitem id="clipitem-217"/>
                            <clipitem id="clipitem-218"/>
                            <clipitem id="clipitem-219"/>
                            <clipitem id="clipitem-220"/>
                            <clipitem id="clipitem-221"/>
                            <clipitem id="clipitem-222"/>
                            <clipitem id="clipitem-223"/>
                            <clipitem id="clipitem-224"/>
                            <clipitem id="clipitem-225"/>
                            <clipitem id="clipitem-226"/>
                            <clipitem id="clipitem-227"/>
                            <clipitem id="clipitem-228"/>
                            <clipitem id="clipitem-229"/>
                            <clipitem id="clipitem-230"/>
                            <clipitem id="clipitem-231"/>
                            <clipitem id="clipitem-232"/>
                            <clipitem id="clipitem-233"/>
                            <clipitem id="clipitem-234"/>
                            <clipitem id="clipitem-235"/>
                            <clipitem id="clipitem-236"/>
                            <clipitem id="clipitem-237"/>
                            <clipitem id="clipitem-238"/>
                            <clipitem id="clipitem-239"/>
                            <clipitem id="clipitem-240"/>
                            <clipitem id="clipitem-241"/>
                            <clipitem id="clipitem-242"/>
                            <clipitem id="clipitem-243"/>
                            <clipitem id="clipitem-244"/>
                            <clipitem id="clipitem-245"/>
                            <clipitem id="clipitem-246"/>
                            <clipitem id="clipitem-247"/>
                            <clipitem id="clipitem-248"/>
                            <clipitem id="clipitem-249"/>
                            <clipitem id="clipitem-250"/>
                            <clipitem id="clipitem-251"/>
                            <clipitem id="clipitem-252"/>
                            <clipitem id="clipitem-253"/>
                            <clipitem id="clipitem-254"/>
                            <clipitem id="clipitem-255"/>
                            <clipitem id="clipitem-256"/>
                            <clipitem id="clipitem-257"/>
                            <clipitem id="clipitem-258"/>
                            <clipitem id="clipitem-259"/>
                            <clipitem id="clipitem-260"/>
                            <clipitem id="clipitem-261"/>
                            <clipitem id="clipitem-262"/>
                            <clipitem id="clipitem-263"/>
                            <clipitem id="clipitem-264"/>
                            <clipitem id="clipitem-265"/>
                            <clipitem id="clipitem-266"/>
                            <clipitem id="clipitem-267"/>
                            <clipitem id="clipitem-268"/>
                            <clipitem id="clipitem-269"/>
                            <clipitem id="clipitem-270"/>
                            <clipitem id="clipitem-271"/>
                            <clipitem id="clipitem-272"/>
                            <clipitem id="clipitem-273"/>
                            <clipitem id="clipitem-274"/>
                            <clipitem id="clipitem-275"/>
                            <clipitem id="clipitem-276"/>
                            <clipitem id="clipitem-277"/>
                            <clipitem id="clipitem-278"/>
                            <clipitem id="clipitem-279"/>
                            <clipitem id="clipitem-280"/>
                            <clipitem id="clipitem-281"/>
                            <clipitem id="clipitem-282"/>
                            <clipitem id="clipitem-283"/>
                            <clipitem id="clipitem-284"/>
                            <clipitem id="clipitem-285"/>
                            <clipitem id="clipitem-286"/>
                            <clipitem id="clipitem-287"/>
                            <clipitem id="clipitem-288"/>
                            <clipitem id="clipitem-289"/>
                            <clipitem id="clipitem-290"/>
                            <clipitem id="clipitem-291"/>
                            <clipitem id="clipitem-292"/>
                            <clipitem id="clipitem-293"/>
                            <clipitem id="clipitem-294"/>
                            <clipitem id="clipitem-295"/>
                            <clipitem id="clipitem-296"/>
                            <clipitem id="clipitem-297"/>
                            <clipitem id="clipitem-298"/>
                            <clipitem id="clipitem-299"/>
                            <clipitem id="clipitem-300"/>
                            <clipitem id="clipitem-301"/>
                            <clipitem id="clipitem-302"/>
                            <clipitem id="clipitem-303"/>
                            <clipitem id="clipitem-304"/>
                            <clipitem id="clipitem-305"/>
                            <clipitem id="clipitem-306"/>
                            <clipitem id="clipitem-307"/>
                            <clipitem id="clipitem-308"/>
                            <clipitem id="clipitem-309"/>
                            <clipitem id="clipitem-310"/>
                            <clipitem id="clipitem-311"/>
                            <clipitem id="clipitem-312"/>
                            <clipitem id="clipitem-313"/>
                            <clipitem id="clipitem-314"/>
                            <clipitem id="clipitem-315"/>
                            <clipitem id="clipitem-316"/>
                            <clipitem id="clipitem-317"/>
                            <clipitem id="clipitem-318"/>
                            <clipitem id="clipitem-319"/>
                            <clipitem id="clipitem-320"/>
                            <clipitem id="clipitem-321"/>
                            <clipitem id="clipitem-322"/>
                            <clipitem id="clipitem-323"/>
                            <clipitem id="clipitem-324"/>
                            <clipitem id="clipitem-325"/>
                            <clipitem id="clipitem-326"/>
                            <clipitem id="clipitem-327"/>
                            <clipitem id="clipitem-328"/>
                            <clipitem id="clipitem-329"/>
                            <clipitem id="clipitem-330"/>
                            <clipitem id="clipitem-331"/>
                            <clipitem id="clipitem-332"/>
                            <clipitem id="clipitem-333"/>
                            <clipitem id="clipitem-334"/>
                            <clipitem id="clipitem-335"/>
                            <clipitem id="clipitem-336"/>
                            <clipitem id="clipitem-337"/>
                            <clipitem id="clipitem-338"/>
                            <clipitem id="clipitem-339"/>
                            <clipitem id="clipitem-340"/>
                            <clipitem id="clipitem-341"/>
                            <clipitem id="clipitem-342"/>
                            <clipitem id="clipitem-343"/>
                            <clipitem id="clipitem-344"/>
                            <clipitem id="clipitem-345"/>
                            <clipitem id="clipitem-346"/>
                            <clipitem id="clipitem-347"/>
                            <clipitem id="clipitem-348"/>
                            <clipitem id="clipitem-349"/>
                            <clipitem id="clipitem-350"/>
                            <clipitem id="clipitem-351"/>
                            <clipitem id="clipitem-352"/>
                            <clipitem id="clipitem-353"/>
                            <clipitem id="clipitem-354"/>
                            <clipitem id="clipitem-355"/>
                            <clipitem id="clipitem-356"/>
                            <clipitem id="clipitem-357"/>
                            <clipitem id="clipitem-358"/>
                            <clipitem id="clipitem-359"/>
                            <clipitem id="clipitem-360"/>
                            <clipitem id="clipitem-361"/>
                            <clipitem id="clipitem-362"/>
                            <clipitem id="clipitem-363"/>
                            <clipitem id="clipitem-364"/>
                            <clipitem id="clipitem-365"/>
                            <clipitem id="clipitem-366"/>
                            <clipitem id="clipitem-367"/>
                            <clipitem id="clipitem-368"/>
                            <clipitem id="clipitem-369"/>
                            <clipitem id="clipitem-370"/>
                            <clipitem id="clipitem-371"/>
                            <clipitem id="clipitem-372"/>
                            <clipitem id="clipitem-373"/>
                            <clipitem id="clipitem-374"/>
                            <clipitem id="clipitem-375"/>
                            <clipitem id="clipitem-376"/>
                            <clipitem id="clipitem-377"/>
                            <clipitem id="clipitem-378"/>
                            <clipitem id="clipitem-379"/>
                            <clipitem id="clipitem-380"/>
                            <clipitem id="clipitem-381"/>
                            <clipitem id="clipitem-382"/>
                            <clipitem id="clipitem-383"/>
                            <clipitem id="clipitem-384"/>
                            <clipitem id="clipitem-385"/>
                            <clipitem id="clipitem-386"/>
                            <clipitem id="clipitem-387"/>
                            <clipitem id="clipitem-388"/>
                            <clipitem id="clipitem-389"/>
                            <clipitem id="clipitem-390"/>
                            <clipitem id="clipitem-391"/>
                            <clipitem id="clipitem-392"/>
                            <clipitem id="clipitem-393"/>
                            <clipitem id="clipitem-394"/>
                            <clipitem id="clipitem-395"/>
                            <clipitem id="clipitem-396"/>
                            <clipitem id="clipitem-397"/>
                            <clipitem id="clipitem-398"/>
                            <clipitem id="clipitem-399"/>
                            <clipitem id="clipitem-400"/>
                            <clipitem id="clipitem-401"/>
                            <clipitem id="clipitem-402"/>
                            <clipitem id="clipitem-403"/>
                            <clipitem id="clipitem-404"/>
                            <clipitem id="clipitem-405"/>
                            <clipitem id="clipitem-406"/>
                            <clipitem id="clipitem-407"/>
                            <clipitem id="clipitem-408"/>
                            <clipitem id="clipitem-409"/>
                            <clipitem id="clipitem-410"/>
                            <clipitem id="clipitem-411"/>
                            <clipitem id="clipitem-412"/>
                            <clipitem id="clipitem-413"/>
                            <clipitem id="clipitem-414"/>
                            <clipitem id="clipitem-415"/>
                            <clipitem id="clipitem-416"/>
                            <clipitem id="clipitem-417"/>
                            <clipitem id="clipitem-418"/>
                            <clipitem id="clipitem-419"/>
                            <clipitem id="clipitem-420"/>
                            <clipitem id="clipitem-421"/>
                            <clipitem id="clipitem-422"/>
                            <clipitem id="clipitem-423"/>
                            <clipitem id="clipitem-424"/>
                            <clipitem id="clipitem-425"/>
                            <clipitem id="clipitem-426"/>
                            <clipitem id="clipitem-427"/>
                            <clipitem id="clipitem-428"/>
                            <clipitem id="clipitem-429"/>
                            <clipitem id="clipitem-430"/>
                            <clipitem id="clipitem-431"/>
                            <clipitem id="clipitem-432"/>
                            <clipitem id="clipitem-433"/>
                            <clipitem id="clipitem-434"/>
                            <clipitem id="clipitem-435"/>
                            <clipitem id="clipitem-436"/>
                            <clipitem id="clipitem-437"/>
                            <clipitem id="clipitem-438"/>
                            <clipitem id="clipitem-439"/>
                            <clipitem id="clipitem-440"/>
                            <clipitem id="clipitem-441"/>
                            <clipitem id="clipitem-442"/>
                            <clipitem id="clipitem-443"/>
                            <clipitem id="clipitem-444"/>
                            <clipitem id="clipitem-445"/>
                            <clipitem id="clipitem-446"/>
                            <clipitem id="clipitem-447"/>
                            <clipitem id="clipitem-448"/>
                            <clipitem id="clipitem-449"/>
                            <clipitem id="clipitem-450"/>
                            <clipitem id="clipitem-451"/>
                            <clipitem id="clipitem-452"/>
                            <clipitem id="clipitem-453"/>
                            <clipitem id="clipitem-454"/>
                            <clipitem id="clipitem-455"/>
                            <clipitem id="clipitem-456"/>
                            <clipitem id="clipitem-457"/>
                            <clipitem id="clipitem-458"/>
                            <clipitem id="clipitem-459"/>
                            <clipitem id="clipitem-460"/>
                            <clipitem id="clipitem-461"/>
                            <clipitem id="clipitem-462"/>
                            <clipitem id="clipitem-463"/>
                            <clipitem id="clipitem-464"/>
                            <clipitem id="clipitem-465"/>
                            <clipitem id="clipitem-466"/>
                            <clipitem id="clipitem-467"/>
                            <clipitem id="clipitem-468"/>
                            <clipitem id="clipitem-469"/>
                            <clipitem id="clipitem-470"/>
                            <clipitem id="clipitem-471"/>
                            <clipitem id="clipitem-472"/>
                            <clipitem id="clipitem-473"/>
                            <clipitem id="clipitem-474"/>
                            <clipitem id="clipitem-475"/>
                            <clipitem id="clipitem-476"/>
                            <clipitem id="clipitem-477"/>
                            <clipitem id="clipitem-478"/>
                            <clipitem id="clipitem-479"/>
                            <clipitem id="clipitem-480"/>
                            <clipitem id="clipitem-481"/>
                            <clipitem id="clipitem-482"/>
                            <clipitem id="clipitem-483"/>
                            <clipitem id="clipitem-484"/>
                            <clipitem id="clipitem-485"/>
                            <clipitem id="clipitem-486"/>
                            <clipitem id="clipitem-487"/>
                            <clipitem id="clipitem-488"/>
                            <clipitem id="clipitem-489"/>
                            <clipitem id="clipitem-490"/>
                            <clipitem id="clipitem-491"/>
                            <clipitem id="clipitem-492"/>
                            <clipitem id="clipitem-493"/>
                            <clipitem id="clipitem-494"/>
                            <clipitem id="clipitem-495"/>
                            <clipitem id="clipitem-496"/>
                            <clipitem id="clipitem-497"/>
                            <clipitem id="clipitem-498"/>
                            <clipitem id="clipitem-499"/>
                            <clipitem id="clipitem-500"/>
                            <clipitem id="clipitem-501"/>
                            <clipitem id="clipitem-502"/>
                            <clipitem id="clipitem-503"/>
                            <clipitem id="clipitem-504"/>
                            <clipitem id="clipitem-505"/>
                            <clipitem id="clipitem-506"/>
                            <clipitem id="clipitem-507"/>
                            <clipitem id="clipitem-508"/>
                            <clipitem id="clipitem-509"/>
                            <clipitem id="clipitem-510"/>
                            <clipitem id="clipitem-511"/>
                            <clipitem id="clipitem-512"/>
                            <clipitem id="clipitem-513"/>
                            <clipitem id="clipitem-514"/>
                            <clipitem id="clipitem-515"/>
                            <clipitem id="clipitem-516"/>
                            <clipitem id="clipitem-517"/>
                            <clipitem id="clipitem-518"/>
                            <clipitem id="clipitem-519"/>
                            <clipitem id="clipitem-520"/>
                            <clipitem id="clipitem-521"/>
                            <clipitem id="clipitem-522"/>
                            <clipitem id="clipitem-523"/>
                            <clipitem id="clipitem-524"/>
                            <clipitem id="clipitem-525"/>
                            <clipitem id="clipitem-526"/>
                            <clipitem id="clipitem-527"/>
                            <clipitem id="clipitem-528"/>
                            <clipitem id="clipitem-529"/>
                            <clipitem id="clipitem-530"/>
                            <clipitem id="clipitem-531"/>
                            <clipitem id="clipitem-532"/>
                            <clipitem id="clipitem-533"/>
                            <clipitem id="clipitem-534"/>
                            <clipitem id="clipitem-535"/>
                            <clipitem id="clipitem-536"/>
                            <clipitem id="clipitem-537"/>
                            <clipitem id="clipitem-538"/>
                            <clipitem id="clipitem-539"/>
                            <clipitem id="clipitem-540"/>
                            <clipitem id="clipitem-541"/>
                            <clipitem id="clipitem-542"/>
                            <clipitem id="clipitem-543"/>
                            <clipitem id="clipitem-544"/>
                            <clipitem id="clipitem-545"/>
                            <clipitem id="clipitem-546"/>
                            <clipitem id="clipitem-547"/>
                            <clipitem id="clipitem-548"/>
                            <clipitem id="clipitem-549"/>
                            <clipitem id="clipitem-550"/>
                            <clipitem id="clipitem-551"/>
                            <clipitem id="clipitem-552"/>
                            <clipitem id="clipitem-553"/>
                            <clipitem id="clipitem-554"/>
                            <clipitem id="clipitem-555"/>
                            <clipitem id="clipitem-556"/>
                            <clipitem id="clipitem-557"/>
                            <clipitem id="clipitem-558"/>
                            <clipitem id="clipitem-559"/>
                            <clipitem id="clipitem-560"/>
                            <clipitem id="clipitem-561"/>
                            <clipitem id="clipitem-562"/>
                            <clipitem id="clipitem-563"/>
                            <clipitem id="clipitem-564"/>
                            <clipitem id="clipitem-565"/>
                            <clipitem id="clipitem-566"/>
                            <clipitem id="clipitem-567"/>
                            <clipitem id="clipitem-568"/>
                            <clipitem id="clipitem-569"/>
                            <clipitem id="clipitem-570"/>
                            <clipitem id="clipitem-571"/>
                            <clipitem id="clipitem-572"/>
                            <clipitem id="clipitem-573"/>
                            <clipitem id="clipitem-574"/>
                            <clipitem id="clipitem-575"/>
                            <clipitem id="clipitem-576"/>
                            <clipitem id="clipitem-577"/>
                            <clipitem id="clipitem-578"/>
                            <clipitem id="clipitem-579"/>
                            <clipitem id="clipitem-580"/>
                            <clipitem id="clipitem-581"/>
                            <clipitem id="clipitem-582"/>
                            <clipitem id="clipitem-583"/>
                            <clipitem id="clipitem-584"/>
                            <clipitem id="clipitem-585"/>
                            <clipitem id="clipitem-586"/>
                            <clipitem id="clipitem-587"/>
                            <clipitem id="clipitem-588"/>
                            <clipitem id="clipitem-589"/>
                            <clipitem id="clipitem-590"/>
                            <clipitem id="clipitem-591"/>
                            <clipitem id="clipitem-592"/>
                            <clipitem id="clipitem-593"/>
                            <clipitem id="clipitem-594"/>
                            <clipitem id="clipitem-595"/>
                            <clipitem id="clipitem-596"/>
                            <clipitem id="clipitem-597"/>
                            <clipitem id="clipitem-598"/>
                            <clipitem id="clipitem-599"/>
                            <clipitem id="clipitem-600"/>
                            <clipitem id="clipitem-601"/>
                            <clipitem id="clipitem-602"/>
                            <clipitem id="clipitem-603"/>
                            <clipitem id="clipitem-604"/>
                            <clipitem id="clipitem-605"/>
                            <clipitem id="clipitem-606"/>
                            <clipitem id="clipitem-607"/>
                            <clipitem id="clipitem-608"/>
                            <clipitem id="clipitem-609"/>
                            <clipitem id="clipitem-610"/>
                            <clipitem id="clipitem-611"/>
                            <clipitem id="clipitem-612"/>
                            <clipitem id="clipitem-613"/>
                            <clipitem id="clipitem-614"/>
                            <clipitem id="clipitem-615"/>
                            <clipitem id="clipitem-616"/>
                            <clipitem id="clipitem-617"/>
                            <clipitem id="clipitem-618"/>
                            <clipitem id="clipitem-619"/>
                            <clipitem id="clipitem-620"/>
                            <clipitem id="clipitem-621"/>
                            <clipitem id="clipitem-622"/>
                            <clipitem id="clipitem-623"/>
                            <clipitem id="clipitem-624"/>
                            <clipitem id="clipitem-625"/>
                            <clipitem id="clipitem-626"/>
                            <clipitem id="clipitem-627"/>
                            <clipitem id="clipitem-628"/>
                            <clipitem id="clipitem-629"/>
                            <clipitem id="clipitem-630"/>
                            <clipitem id="clipitem-631"/>
                            <clipitem id="clipitem-632"/>
                            <clipitem id="clipitem-633"/>
                            <clipitem id="clipitem-634"/>
                            <clipitem id="clipitem-635"/>
                            <clipitem id="clipitem-636"/>
                            <clipitem id="clipitem-637"/>
                            <clipitem id="clipitem-638"/>
                            <clipitem id="clipitem-639"/>
                            <clipitem id="clipitem-640"/>
                            <clipitem id="clipitem-641"/>
                            <clipitem id="clipitem-642"/>
                            <clipitem id="clipitem-643"/>
                            <clipitem id="clipitem-644"/>
                            <clipitem id="clipitem-645"/>
                            <clipitem id="clipitem-646"/>
                            <clipitem id="clipitem-647"/>
                            <clipitem id="clipitem-648"/>
                            <clipitem id="clipitem-649"/>
                            <clipitem id="clipitem-650"/>
                            <clipitem id="clipitem-651"/>
                            <clipitem id="clipitem-652"/>
                            <clipitem id="clipitem-653"/>
                            <clipitem id="clipitem-654"/>
                            <clipitem id="clipitem-655"/>
                            <clipitem id="clipitem-656"/>
                            <clipitem id="clipitem-657"/>
                            <clipitem id="clipitem-658"/>
                            <clipitem id="clipitem-659"/>
                            <clipitem id="clipitem-660"/>
                            <clipitem id="clipitem-661"/>
                            <clipitem id="clipitem-662"/>
                            <clipitem id="clipitem-663"/>
                            <clipitem id="clipitem-664"/>
                            <clipitem id="clipitem-665"/>
                            <clipitem id="clipitem-666"/>
                            <clipitem id="clipitem-667"/>
                            <clipitem id="clipitem-668"/>
                            <clipitem id="clipitem-669"/>
                            <clipitem id="clipitem-670"/>
                            <clipitem id="clipitem-671"/>
                            <clipitem id="clipitem-672"/>
                            <clipitem id="clipitem-673"/>
                            <clipitem id="clipitem-674"/>
                            <clipitem id="clipitem-675"/>
                            <clipitem id="clipitem-676"/>
                            <clipitem id="clipitem-677"/>
                            <clipitem id="clipitem-678"/>
                            <clipitem id="clipitem-679"/>
                            <clipitem id="clipitem-680"/>
                            <clipitem id="clipitem-681"/>
                            <clipitem id="clipitem-682"/>
                            <clipitem id="clipitem-683"/>
                            <clipitem id="clipitem-684"/>
                            <clipitem id="clipitem-685"/>
                            <clipitem id="clipitem-686"/>
                            <clipitem id="clipitem-687"/>
                            <clipitem id="clipitem-688"/>
                            <clipitem id="clipitem-689"/>
                            <clipitem id="clipitem-690"/>
                            <clipitem id="clipitem-691"/>
                            <clipitem id="clipitem-692"/>
                            <clipitem id="clipitem-693"/>
                            <clipitem id="clipitem-694"/>
                            <clipitem id="clipitem-695"/>
                            <clipitem id="clipitem-696"/>
                            <clipitem id="clipitem-697"/>
                            <clipitem id="clipitem-698"/>
                            <clipitem id="clipitem-699"/>
                            <clipitem id="clipitem-700"/>
                            <clipitem id="clipitem-701"/>
                            <clipitem id="clipitem-702"/>
                            <clipitem id="clipitem-703"/>
                            <clipitem id="clipitem-704"/>
                            <clipitem id="clipitem-705"/>
                            <clipitem id="clipitem-706"/>
                            <clipitem id="clipitem-707"/>
                            <clipitem id="clipitem-708"/>
                            <clipitem id="clipitem-709"/>
                            <clipitem id="clipitem-710"/>
                            <clipitem id="clipitem-711"/>
                            <clipitem id="clipitem-712"/>
                            <clipitem id="clipitem-713"/>
                            <clipitem id="clipitem-714"/>
                            <clipitem id="clipitem-715"/>
                            <clipitem id="clipitem-716"/>
                            <clipitem id="clipitem-717"/>
                            <clipitem id="clipitem-718"/>
                            <clipitem id="clipitem-719"/>
                            <clipitem id="clipitem-720"/>
                            <clipitem id="clipitem-721"/>
                            <clipitem id="clipitem-722"/>
                            <clipitem id="clipitem-723"/>
                            <clipitem id="clipitem-724"/>
                            <clipitem id="clipitem-725"/>
                            <clipitem id="clipitem-726"/>
                            <clipitem id="clipitem-727"/>
                            <clipitem id="clipitem-728"/>
                            <clipitem id="clipitem-729"/>
                            <clipitem id="clipitem-730"/>
                            <clipitem id="clipitem-731"/>
                            <clipitem id="clipitem-732"/>
                            <clipitem id="clipitem-733"/>
                            <clipitem id="clipitem-734"/>
                            <clipitem id="clipitem-735"/>
                            <clipitem id="clipitem-736"/>
                            <clipitem id="clipitem-737"/>
                            <clipitem id="clipitem-738"/>
                            <clipitem id="clipitem-739"/>
                            <clipitem id="clipitem-740"/>
                            <clipitem id="clipitem-741"/>
                            <clipitem id="clipitem-742"/>
                            <clipitem id="clipitem-743"/>
                            <clipitem id="clipitem-744"/>
                            <clipitem id="clipitem-745"/>
                            <clipitem id="clipitem-746"/>
                            <clipitem id="clipitem-747"/>
                            <clipitem id="clipitem-748"/>
                            <clipitem id="clipitem-749"/>
                            <clipitem id="clipitem-750"/>
                            <clipitem id="clipitem-751"/>
                            <clipitem id="clipitem-752"/>
                            <clipitem id="clipitem-753"/>
                            <clipitem id="clipitem-754"/>
                            <clipitem id="clipitem-755"/>
                            <clipitem id="clipitem-756"/>
                            <clipitem id="clipitem-757"/>
                            <clipitem id="clipitem-758"/>
                            <clipitem id="clipitem-759"/>
                            <clipitem id="clipitem-760"/>
                            <clipitem id="clipitem-761"/>
                            <clipitem id="clipitem-762"/>
                            <clipitem id="clipitem-763"/>
                            <clipitem id="clipitem-764"/>
                            <clipitem id="clipitem-765"/>
                            <clipitem id="clipitem-766"/>
                            <clipitem id="clipitem-767"/>
                            <clipitem id="clipitem-768"/>
                            <clipitem id="clipitem-769"/>
                            <clipitem id="clipitem-770"/>
                            <clipitem id="clipitem-771"/>
                            <clipitem id="clipitem-772"/>
                            <clipitem id="clipitem-773"/>
                            <clipitem id="clipitem-774"/>
                            <clipitem id="clipitem-775"/>
                            <clipitem id="clipitem-776"/>
                            <clipitem id="clipitem-777"/>
                            <clipitem id="clipitem-778"/>
                            <clipitem id="clipitem-779"/>
                            <clipitem id="clipitem-780"/>
                            <clipitem id="clipitem-781"/>
                            <clipitem id="clipitem-782"/>
                            <clipitem id="clipitem-783"/>
                            <clipitem id="clipitem-784"/>
                            <clipitem id="clipitem-785"/>
                            <clipitem id="clipitem-786"/>
                            <clipitem id="clipitem-787"/>
                            <clipitem id="clipitem-788"/>
                            <clipitem id="clipitem-789"/>
                            <clipitem id="clipitem-790"/>
                            <clipitem id="clipitem-791"/>
                            <clipitem id="clipitem-792"/>
                            <clipitem id="clipitem-793"/>
                            <clipitem id="clipitem-794"/>
                            <clipitem id="clipitem-795"/>
                            <clipitem id="clipitem-796"/>
                            <clipitem id="clipitem-797"/>
                            <clipitem id="clipitem-798"/>
                            <clipitem id="clipitem-799"/>
                            <clipitem id="clipitem-800"/>
                            <clipitem id="clipitem-801"/>
                            <clipitem id="clipitem-802"/>
                            <clipitem id="clipitem-803"/>
                            <clipitem id="clipitem-804"/>
                            <clipitem id="clipitem-805"/>
                            <clipitem id="clipitem-806"/>
                            <clipitem id="clipitem-807"/>
                            <clipitem id="clipitem-808"/>
                            <clipitem id="clipitem-809"/>
                            <clipitem id="clipitem-810"/>
                            <clipitem id="clipitem-811"/>
                            <clipitem id="clipitem-812"/>
                            <clipitem id="clipitem-813"/>
                            <clipitem id="clipitem-814"/>
                            <clipitem id="clipitem-815"/>
                            <clipitem id="clipitem-816"/>
                            <clipitem id="clipitem-817"/>
                            <clipitem id="clipitem-818"/>
                            <clipitem id="clipitem-819"/>
                            <clipitem id="clipitem-820"/>
                            <clipitem id="clipitem-821"/>
                            <clipitem id="clipitem-822"/>
                            <clipitem id="clipitem-823"/>
                            <clipitem id="clipitem-824"/>
                            <clipitem id="clipitem-825"/>
                            <clipitem id="clipitem-826"/>
                            <clipitem id="clipitem-827"/>
                            <clipitem id="clipitem-828"/>
                            <clipitem id="clipitem-829"/>
                            <clipitem id="clipitem-830"/>
                            <clipitem id="clipitem-831"/>
                            <clipitem id="clipitem-832"/>
                            <clipitem id="clipitem-833"/>
                            <clipitem id="clipitem-834"/>
                            <clipitem id="clipitem-835"/>
                            <clipitem id="clipitem-836"/>
                            <clipitem id="clipitem-837"/>
                            <clipitem id="clipitem-838"/>
                            <clipitem id="clipitem-839"/>
                            <clipitem id="clipitem-840"/>
                            <clipitem id="clipitem-841"/>
                            <clipitem id="clipitem-842"/>
                            <clipitem id="clipitem-843"/>
                            <clipitem id="clipitem-844"/>
                            <clipitem id="clipitem-845"/>
                            <clipitem id="clipitem-846"/>
                            <clipitem id="clipitem-847"/>
                            <clipitem id="clipitem-848"/>
                            <clipitem id="clipitem-849"/>
                            <clipitem id="clipitem-850"/>
                            <clipitem id="clipitem-851"/>
                            <clipitem id="clipitem-852"/>
                            <clipitem id="clipitem-853"/>
                            <clipitem id="clipitem-854"/>
                            <clipitem id="clipitem-855"/>
                            <clipitem id="clipitem-856"/>
                            <clipitem id="clipitem-857"/>
                            <clipitem id="clipitem-858"/>
                            <clipitem id="clipitem-859"/>
                            <clipitem id="clipitem-860"/>
                            <clipitem id="clipitem-861"/>
                            <clipitem id="clipitem-862"/>
                            <clipitem id="clipitem-863"/>
                            <clipitem id="clipitem-864"/>
                            <clipitem id="clipitem-865"/>
                            <clipitem id="clipitem-866"/>
                            <clipitem id="clipitem-867"/>
                            <clipitem id="clipitem-868"/>
                            <clipitem id="clipitem-869"/>
                            <clipitem id="clipitem-870"/>
                            <clipitem id="clipitem-871"/>
                            <clipitem id="clipitem-872"/>
                            <clipitem id="clipitem-873"/>
                            <clipitem id="clipitem-874"/>
                            <clipitem id="clipitem-875"/>
                            <clipitem id="clipitem-876"/>
                            <clipitem id="clipitem-877"/>
                            <clipitem id="clipitem-878"/>
                            <clipitem id="clipitem-879"/>
                            <clipitem id="clipitem-880"/>
                            <clipitem id="clipitem-881"/>
                            <clipitem id="clipitem-882"/>
                            <clipitem id="clipitem-883"/>
                            <clipitem id="clipitem-884"/>
                            <clipitem id="clipitem-885"/>
                            <clipitem id="clipitem-886"/>
                            <clipitem id="clipitem-887"/>
                            <clipitem id="clipitem-888"/>
                            <clipitem id="clipitem-889"/>
                            <clipitem id="clipitem-890"/>
                            <clipitem id="clipitem-891"/>
                            <clipitem id="clipitem-892"/>
                            <clipitem id="clipitem-893"/>
                            <clipitem id="clipitem-894"/>
                            <clipitem id="clipitem-895"/>
                            <clipitem id="clipitem-896"/>
                            <clipitem id="clipitem-897"/>
                            <clipitem id="clipitem-898"/>
                            <clipitem id="clipitem-899"/>
                            <clipitem id="clipitem-900"/>
                            <clipitem id="clipitem-901"/>
                            <clipitem id="clipitem-902"/>
                            <clipitem id="clipitem-903"/>
                            <clipitem id="clipitem-904"/>
                            <clipitem id="clipitem-905"/>
                            <clipitem id="clipitem-906"/>
                            <clipitem id="clipitem-907"/>
                            <clipitem id="clipitem-908"/>
                            <clipitem id="clipitem-909"/>
                            <clipitem id="clipitem-910"/>
                            <clipitem id="clipitem-911"/>
                            <clipitem id="clipitem-912"/>
                            <clipitem id="clipitem-913"/>
                            <clipitem id="clipitem-914"/>
                            <clipitem id="clipitem-915"/>
                            <clipitem id="clipitem-916"/>
                            <clipitem id="clipitem-917"/>
                            <clipitem id="clipitem-918"/>
                            <clipitem id="clipitem-919"/>
                            <clipitem id="clipitem-920"/>
                            <clipitem id="clipitem-921"/>
                            <clipitem id="clipitem-922"/>
                            <clipitem id="clipitem-923"/>
                            <clipitem id="clipitem-924"/>
                            <clipitem id="clipitem-925"/>
                            <clipitem id="clipitem-926"/>
                            <clipitem id="clipitem-927"/>
                            <clipitem id="clipitem-928"/>
                            <clipitem id="clipitem-929"/>
                            <clipitem id="clipitem-930"/>
                            <clipitem id="clipitem-931"/>
                            <clipitem id="clipitem-932"/>
                            <clipitem id="clipitem-933"/>
                            <clipitem id="clipitem-934"/>
                            <clipitem id="clipitem-935"/>
                            <clipitem id="clipitem-936"/>
                            <clipitem id="clipitem-937"/>
                            <clipitem id="clipitem-938"/>
                            <clipitem id="clipitem-939"/>
                            <clipitem id="clipitem-940"/>
                            <clipitem id="clipitem-941"/>
                            <clipitem id="clipitem-942"/>
                            <clipitem id="clipitem-943"/>
                            <clipitem id="clipitem-944"/>
                            <clipitem id="clipitem-945"/>
                            <clipitem id="clipitem-946"/>
                            <clipitem id="clipitem-947"/>
                            <clipitem id="clipitem-948"/>
                            <clipitem id="clipitem-949"/>
                            <clipitem id="clipitem-950"/>
                            <clipitem id="clipitem-951"/>
                            <clipitem id="clipitem-952"/>
                            <clipitem id="clipitem-953"/>
                            <clipitem id="clipitem-954"/>
                            <clipitem id="clipitem-955"/>
                            <clipitem id="clipitem-956"/>
                            <clipitem id="clipitem-957"/>
                            <clipitem id="clipitem-958"/>
                            <clipitem id="clipitem-959"/>
                            <clipitem id="clipitem-960"/>
                            <clipitem id="clipitem-961"/>
                            <clipitem id="clipitem-962"/>
                            <clipitem id="clipitem-963"/>
                            <clipitem id="clipitem-964"/>
                            <clipitem id="clipitem-965"/>
                            <clipitem id="clipitem-966"/>
                            <clipitem id="clipitem-967"/>
                            <clipitem id="clipitem-968"/>
                            <clipitem id="clipitem-969"/>
                            <clipitem id="clipitem-970"/>
                            <clipitem id="clipitem-971"/>
                            <clipitem id="clipitem-972"/>
                            <clipitem id="clipitem-973"/>
                            <clipitem id="clipitem-974"/>
                            <clipitem id="clipitem-975"/>
                            <clipitem id="clipitem-976"/>
                            <clipitem id="clipitem-977"/>
                            <clipitem id="clipitem-978"/>
                            <clipitem id="clipitem-979"/>
                            <clipitem id="clipitem-980"/>
                            <clipitem id="clipitem-981"/>
                            <clipitem id="clipitem-982"/>
                            <clipitem id="clipitem-983"/>
                            <clipitem id="clipitem-984"/>
                            <clipitem id="clipitem-985"/>
                            <clipitem id="clipitem-986"/>
                            <clipitem id="clipitem-987"/>
                            <clipitem id="clipitem-988"/>
                            <clipitem id="clipitem-989"/>
                            <clipitem id="clipitem-990"/>
                            <clipitem id="clipitem-991"/>
                            <clipitem id="clipitem-992"/>
                            <clipitem id="clipitem-993"/>
                            <clipitem id="clipitem-994"/>
                            <clipitem id="clipitem-995"/>
                            <clipitem id="clipitem-996"/>
                            <clipitem id="clipitem-997"/>
                            <clipitem id="clipitem-998"/>
                            <clipitem id="clipitem-999"/>
                            <clipitem id="clipitem-1000"/>
                            <clipitem id="clipitem-1001"/>
                            <clipitem id="clipitem-1002"/>
                            <clipitem id="clipitem-1003"/>
                            <clipitem id="clipitem-1004"/>
                            <clipitem id="clipitem-1005"/>
                            <clipitem id="clipitem-1006"/>
                            <clipitem id="clipitem-1007"/>
                            <clipitem id="clipitem-1008"/>
                            <clipitem id="clipitem-1009"/>
                            <clipitem id="clipitem-1010"/>
                            <clipitem id="clipitem-1011"/>
                            <clipitem id="clipitem-1012"/>
                            <clipitem id="clipitem-1013"/>
                            <clipitem id="clipitem-1014"/>
                            <clipitem id="clipitem-1015"/>
                            <clipitem id="clipitem-1016"/>
                            <clipitem id="clipitem-1017"/>
                            <clipitem id="clipitem-1018"/>
                            <clipitem id="clipitem-1019"/>
                            <clipitem id="clipitem-1020"/>
                            <clipitem id="clipitem-1021"/>
                            <clipitem id="clipitem-1022"/>
                            <clipitem id="clipitem-1023"/>
                            <clipitem id="clipitem-1024"/>
                            <clipitem id="clipitem-1025"/>
                            <clipitem id="clipitem-1026"/>
                            <clipitem id="clipitem-1027"/>
                            <clipitem id="clipitem-1028"/>
                            <clipitem id="clipitem-1029"/>
                        </track>
                    </audio>
                </media>
            </sequence>
        </children>
    </project>
</xmeml>
