TITLE: JumpCutterExport
FCM: NON-DROP FRAME

000   N/A  AA/V  C  00:00:00:28 00:00:01:28 00:00:00:00 00:00:00:29
* FROM CLIP NAME: /home/davidk/code/python/JC-render/JC-examples/yoga.mp4
FINAL CUT PRO REEL: N/A REPLACED BY: N/A

001   N/A  AA/V  C  00:00:01:28 00:00:02:21 00:00:00:29 00:00:01:22
* FROM CLIP NAME: /home/davidk/code/python/JC-render/JC-examples/yoga.mp4
FINAL CUT PRO REEL: N/A REPLACED BY: N/A

002   N/A  AA/V  C  00:00:02:21 00:00:04:04 00:00:01:22 00:00:03:05
* FROM CLIP NAME: /home/davidk/code/python/JC-render/JC-examples/yoga.mp4
FINAL CUT PRO REEL: N/A REPLACED BY: N/A

003   N/A  AA/V  C  00:00:04:04 00:00:04:06 00:00:03:05 00:00:03:07
* FROM CLIP NAME: /home/davidk/code/python/JC-render/JC-examples/yoga.mp4
FINAL CUT PRO REEL: N/A REPLACED BY: N/A

004   N/A  AA/V  C  00:00:04:06 00:00:04:21 00:00:03:07 00:00:03:23
* FROM CLIP NAME: /home/davidk/code/python/JC-render/JC-examples/yoga.mp4
FINAL CUT PRO REEL: N/A REPLACED BY: N/A

005   N/A  AA/V  C  00:00:04:21 00:00:05:07 00:00:03:23 00:00:04:08
* FROM CLIP NAME: /home/davidk/code/python/JC-render/JC-examples/yoga.mp4
FINAL CUT PRO REEL: N/A REPLACED BY: N/A

006   N/A  AA/V  C  00:00:05:07 00:00:06:28 00:00:04:08 00:00:05:29
* FROM CLIP NAME: /home/davidk/code/python/JC-render/JC-examples/yoga.mp4
FINAL CUT PRO REEL: N/A REPLACED BY: N/A

007   N/A  AA/V  C  00:00:06:28 00:00:07:10 00:00:05:29 00:00:06:11
* FROM CLIP NAME: /home/davidk/code/python/JC-render/JC-examples/yoga.mp4
FINAL CUT PRO REEL: N/A REPLACED BY: N/A

008   N/A  AA/V  C  00:00:07:10 00:00:08:27 00:00:06:11 00:00:07:28
* FROM CLIP NAME: /home/davidk/code/python/JC-render/JC-examples/yoga.mp4
FINAL CUT PRO REEL: N/A REPLACED BY: N/A

009   N/A  AA/V  C  00:00:08:27 00:00:09:16 00:00:07:28 00:00:08:17
* FROM CLIP NAME: /home/davidk/code/python/JC-render/JC-examples/yoga.mp4
FINAL CUT PRO REEL: N/A REPLACED BY: N/A

010   N/A  AA/V  C  00:00:09:16 00:00:13:06 00:00:08:17 00:00:12:07
* FROM CLIP NAME: /home/davidk/code/python/JC-render/JC-examples/yoga.mp4
FINAL CUT PRO REEL: N/A REPLACED BY: N/A

011   N/A  AA/V  C  00:00:13:06 00:00:13:11 00:00:12:07 00:00:12:12
* FROM CLIP NAME: /home/davidk/code/python/JC-render/JC-examples/yoga.mp4
FINAL CUT PRO REEL: N/A REPLACED BY: N/A

012   N/A  AA/V  C  00:00:13:11 00:00:14:21 00:00:12:12 00:00:13:22
* FROM CLIP NAME: /home/davidk/code/python/JC-render/JC-examples/yoga.mp4
FINAL CUT PRO REEL: N/A REPLACED BY: N/A

013   N/A  AA/V  C  00:00:14:21 00:00:14:26 00:00:13:22 00:00:13:27
* FROM CLIP NAME: /home/davidk/code/python/JC-render/JC-examples/yoga.mp4
FINAL CUT PRO REEL: N/A REPLACED BY: N/A

014   N/A  AA/V  C  00:00:14:26 00:00:15:29 00:00:13:27 00:00:15:00
* FROM CLIP NAME: /home/davidk/code/python/JC-render/JC-examples/yoga.mp4
FINAL CUT PRO REEL: N/A REPLACED BY: N/A

015   N/A  AA/V  C  00:00:15:29 00:00:20:00 00:00:15:00 00:00:19:01
* FROM CLIP NAME: /home/davidk/code/python/JC-render/JC-examples/yoga.mp4
FINAL CUT PRO REEL: N/A REPLACED BY: N/A

016   N/A  AA/V  C  00:00:20:00 00:00:22:21 00:00:19:01 00:00:21:22
* FROM CLIP NAME: /home/davidk/code/python/JC-render/JC-examples/yoga.mp4
FINAL CUT PRO REEL: N/A REPLACED BY: N/A

017   N/A  AA/V  C  00:00:22:21 00:00:23:18 00:00:21:22 00:00:22:19
* FROM CLIP NAME: /home/davidk/code/python/JC-render/JC-examples/yoga.mp4
FINAL CUT PRO REEL: N/A REPLACED BY: N/A

018   N/A  AA/V  C  00:00:23:18 00:00:27:24 00:00:22:19 00:00:26:26
* FROM CLIP NAME: /home/davidk/code/python/JC-render/JC-examples/yoga.mp4
FINAL CUT PRO REEL: N/A REPLACED BY: N/A

019   N/A  AA/V  C  00:00:27:24 00:00:28:17 00:00:26:26 00:00:27:18
* FROM CLIP NAME: /home/davidk/code/python/JC-render/JC-examples/yoga.mp4
FINAL CUT PRO REEL: N/A REPLACED BY: N/A

020   N/A  AA/V  C  00:00:28:17 00:00:31:05 00:00:27:18 00:00:30:07
* FROM CLIP NAME: /home/davidk/code/python/JC-render/JC-examples/yoga.mp4
FINAL CUT PRO REEL: N/A REPLACED BY: N/A

021   N/A  AA/V  C  00:00:31:05 00:00:31:25 00:00:30:07 00:00:30:26
* FROM CLIP NAME: /home/davidk/code/python/JC-render/JC-examples/yoga.mp4
FINAL CUT PRO REEL: N/A REPLACED BY: N/A

022   N/A  AA/V  C  00:00:31:25 00:00:35:00 00:00:30:26 00:00:34:02
* FROM CLIP NAME: /home/davidk/code/python/JC-render/JC-examples/yoga.mp4
FINAL CUT PRO REEL: N/A REPLACED BY: N/A

023   N/A  AA/V  C  00:00:35:00 00:00:36:00 00:00:34:02 00:00:35:01
* FROM CLIP NAME: /home/davidk/code/python/JC-render/JC-examples/yoga.mp4
FINAL CUT PRO REEL: N/A REPLACED BY: N/A

024   N/A  AA/V  C  00:00:36:00 00:00:37:00 00:00:35:01 00:00:36:01
* FROM CLIP NAME: /home/davidk/code/python/JC-render/JC-examples/yoga.mp4
FINAL CUT PRO REEL: N/A REPLACED BY: N/A

025   N/A  AA/V  C  00:00:37:00 00:00:37:19 00:00:36:01 00:00:36:20
* FROM CLIP NAME: /home/davidk/code/python/JC-render/JC-examples/yoga.mp4
FINAL CUT PRO REEL: N/A REPLACED BY: N/A

026   N/A  AA/V  C  00:00:37:19 00:00:38:15 00:00:36:20 00:00:37:16
* FROM CLIP NAME: /home/davidk/code/python/JC-render/JC-examples/yoga.mp4
FINAL CUT PRO REEL: N/A REPLACED BY: N/A

027   N/A  AA/V  C  00:00:38:15 00:00:40:06 00:00:37:16 00:00:39:07
* FROM CLIP NAME: /home/davidk/code/python/JC-render/JC-examples/yoga.mp4
FINAL CUT PRO REEL: N/A REPLACED BY: N/A

028   N/A  AA/V  C  00:00:40:06 00:00:42:10 00:00:39:07 00:00:41:11
* FROM CLIP NAME: /home/davidk/code/python/JC-render/JC-examples/yoga.mp4
FINAL CUT PRO REEL: N/A REPLACED BY: N/A

029   N/A  AA/V  C  00:00:42:10 00:00:44:18 00:00:41:11 00:00:43:19
* FROM CLIP NAME: /home/davidk/code/python/JC-render/JC-examples/yoga.mp4
FINAL CUT PRO REEL: N/A REPLACED BY: N/A

030   N/A  AA/V  C  00:00:44:18 00:00:45:21 00:00:43:19 00:00:44:22
* FROM CLIP NAME: /home/davidk/code/python/JC-render/JC-examples/yoga.mp4
FINAL CUT PRO REEL: N/A REPLACED BY: N/A

031   N/A  AA/V  C  00:00:45:21 00:00:46:03 00:00:44:22 00:00:45:04
* FROM CLIP NAME: /home/davidk/code/python/JC-render/JC-examples/yoga.mp4
FINAL CUT PRO REEL: N/A REPLACED BY: N/A

032   N/A  AA/V  C  00:00:46:03 00:00:48:04 00:00:45:04 00:00:47:05
* FROM CLIP NAME: /home/davidk/code/python/JC-render/JC-examples/yoga.mp4
FINAL CUT PRO REEL: N/A REPLACED BY: N/A

033   N/A  AA/V  C  00:00:48:04 00:00:49:18 00:00:47:05 00:00:48:19
* FROM CLIP NAME: /home/davidk/code/python/JC-render/JC-examples/yoga.mp4
FINAL CUT PRO REEL: N/A REPLACED BY: N/A

034   N/A  AA/V  C  00:00:49:18 00:00:52:02 00:00:48:19 00:00:51:04
* FROM CLIP NAME: /home/davidk/code/python/JC-render/JC-examples/yoga.mp4
FINAL CUT PRO REEL: N/A REPLACED BY: N/A

035   N/A  AA/V  C  00:00:52:02 00:00:52:18 00:00:51:04 00:00:51:19
* FROM CLIP NAME: /home/davidk/code/python/JC-render/JC-examples/yoga.mp4
FINAL CUT PRO REEL: N/A REPLACED BY: N/A

036   N/A  AA/V  C  00:00:52:18 00:00:55:13 00:00:51:19 00:00:54:15
* FROM CLIP NAME: /home/davidk/code/python/JC-render/JC-examples/yoga.mp4
FINAL CUT PRO REEL: N/A REPLACED BY: N/A

037   N/A  AA/V  C  00:00:55:13 00:00:57:18 00:00:54:15 00:00:56:19
* FROM CLIP NAME: /home/davidk/code/python/JC-render/JC-examples/yoga.mp4
FINAL CUT PRO REEL: N/A REPLACED BY: N/A

038   N/A  AA/V  C  00:00:57:18 00:00:58:04 00:00:56:19 00:00:57:05
* FROM CLIP NAME: /home/davidk/code/python/JC-render/JC-examples/yoga.mp4
FINAL CUT PRO REEL: N/A REPLACED BY: N/A

039   N/A  AA/V  C  00:00:58:04 00:00:59:03 00:00:57:05 00:00:58:04
* FROM CLIP NAME: /home/davidk/code/python/JC-render/JC-examples/yoga.mp4
FINAL CUT PRO REEL: N/A REPLACED BY: N/A

040   N/A  AA/V  C  00:00:59:03 00:00:59:19 00:00:58:04 00:00:58:20
* FROM CLIP NAME: /home/davidk/code/python/JC-render/JC-examples/yoga.mp4
FINAL CUT PRO REEL: N/A REPLACED BY: N/A

041   N/A  AA/V  C  00:00:59:19 00:01:00:01 00:00:58:20 00:00:59:02
* FROM CLIP NAME: /home/davidk/code/python/JC-render/JC-examples/yoga.mp4
FINAL CUT PRO REEL: N/A REPLACED BY: N/A

042   N/A  AA/V  C  00:01:00:01 00:01:01:08 00:00:59:02 00:01:00:09
* FROM CLIP NAME: /home/davidk/code/python/JC-render/JC-examples/yoga.mp4
FINAL CUT PRO REEL: N/A REPLACED BY: N/A

043   N/A  AA/V  C  00:01:01:08 00:01:01:23 00:01:00:09 00:01:00:25
* FROM CLIP NAME: /home/davidk/code/python/JC-render/JC-examples/yoga.mp4
FINAL CUT PRO REEL: N/A REPLACED BY: N/A

044   N/A  AA/V  C  00:01:01:23 00:01:03:21 00:01:00:25 00:01:02:22
* FROM CLIP NAME: /home/davidk/code/python/JC-render/JC-examples/yoga.mp4
FINAL CUT PRO REEL: N/A REPLACED BY: N/A

045   N/A  AA/V  C  00:01:03:21 00:01:04:03 00:01:02:22 00:01:03:04
* FROM CLIP NAME: /home/davidk/code/python/JC-render/JC-examples/yoga.mp4
FINAL CUT PRO REEL: N/A REPLACED BY: N/A

046   N/A  AA/V  C  00:01:04:03 00:01:12:01 00:01:03:04 00:01:11:03
* FROM CLIP NAME: /home/davidk/code/python/JC-render/JC-examples/yoga.mp4
FINAL CUT PRO REEL: N/A REPLACED BY: N/A

047   N/A  AA/V  C  00:01:12:01 00:01:12:03 00:01:11:03 00:01:11:05
* FROM CLIP NAME: /home/davidk/code/python/JC-render/JC-examples/yoga.mp4
FINAL CUT PRO REEL: N/A REPLACED BY: N/A

048   N/A  AA/V  C  00:01:12:03 00:01:12:19 00:01:11:05 00:01:11:20
* FROM CLIP NAME: /home/davidk/code/python/JC-render/JC-examples/yoga.mp4
FINAL CUT PRO REEL: N/A REPLACED BY: N/A

049   N/A  AA/V  C  00:01:12:19 00:01:13:05 00:01:11:20 00:01:12:06
* FROM CLIP NAME: /home/davidk/code/python/JC-render/JC-examples/yoga.mp4
FINAL CUT PRO REEL: N/A REPLACED BY: N/A

050   N/A  AA/V  C  00:01:13:05 00:01:14:04 00:01:12:06 00:01:13:05
* FROM CLIP NAME: /home/davidk/code/python/JC-render/JC-examples/yoga.mp4
FINAL CUT PRO REEL: N/A REPLACED BY: N/A

051   N/A  AA/V  C  00:01:14:04 00:01:15:04 00:01:13:05 00:01:14:05
* FROM CLIP NAME: /home/davidk/code/python/JC-render/JC-examples/yoga.mp4
FINAL CUT PRO REEL: N/A REPLACED BY: N/A

052   N/A  AA/V  C  00:01:15:04 00:01:15:19 00:01:14:05 00:01:14:21
* FROM CLIP NAME: /home/davidk/code/python/JC-render/JC-examples/yoga.mp4
FINAL CUT PRO REEL: N/A REPLACED BY: N/A

053   N/A  AA/V  C  00:01:15:19 00:01:16:05 00:01:14:21 00:01:15:06
* FROM CLIP NAME: /home/davidk/code/python/JC-render/JC-examples/yoga.mp4
FINAL CUT PRO REEL: N/A REPLACED BY: N/A

054   N/A  AA/V  C  00:01:16:05 00:01:17:19 00:01:15:06 00:01:16:20
* FROM CLIP NAME: /home/davidk/code/python/JC-render/JC-examples/yoga.mp4
FINAL CUT PRO REEL: N/A REPLACED BY: N/A

055   N/A  AA/V  C  00:01:17:19 00:01:18:05 00:01:16:20 00:01:17:06
* FROM CLIP NAME: /home/davidk/code/python/JC-render/JC-examples/yoga.mp4
FINAL CUT PRO REEL: N/A REPLACED BY: N/A

056   N/A  AA/V  C  00:01:18:05 00:01:22:18 00:01:17:06 00:01:21:20
* FROM CLIP NAME: /home/davidk/code/python/JC-render/JC-examples/yoga.mp4
FINAL CUT PRO REEL: N/A REPLACED BY: N/A

057   N/A  AA/V  C  00:01:22:18 00:01:23:04 00:01:21:20 00:01:22:05
* FROM CLIP NAME: /home/davidk/code/python/JC-render/JC-examples/yoga.mp4
FINAL CUT PRO REEL: N/A REPLACED BY: N/A

058   N/A  AA/V  C  00:01:23:04 00:01:26:10 00:01:22:05 00:01:25:11
* FROM CLIP NAME: /home/davidk/code/python/JC-render/JC-examples/yoga.mp4
FINAL CUT PRO REEL: N/A REPLACED BY: N/A

059   N/A  AA/V  C  00:01:26:10 00:01:27:10 00:01:25:11 00:01:26:11
* FROM CLIP NAME: /home/davidk/code/python/JC-render/JC-examples/yoga.mp4
FINAL CUT PRO REEL: N/A REPLACED BY: N/A

060   N/A  AA/V  C  00:01:27:10 00:01:30:19 00:01:26:11 00:01:29:20
* FROM CLIP NAME: /home/davidk/code/python/JC-render/JC-examples/yoga.mp4
FINAL CUT PRO REEL: N/A REPLACED BY: N/A

061   N/A  AA/V  C  00:01:30:19 00:01:31:05 00:01:29:20 00:01:30:06
* FROM CLIP NAME: /home/davidk/code/python/JC-render/JC-examples/yoga.mp4
FINAL CUT PRO REEL: N/A REPLACED BY: N/A

062   N/A  AA/V  C  00:01:31:05 00:01:33:23 00:01:30:06 00:01:32:24
* FROM CLIP NAME: /home/davidk/code/python/JC-render/JC-examples/yoga.mp4
FINAL CUT PRO REEL: N/A REPLACED BY: N/A

063   N/A  AA/V  C  00:01:33:23 00:01:34:05 00:01:32:24 00:01:33:06
* FROM CLIP NAME: /home/davidk/code/python/JC-render/JC-examples/yoga.mp4
FINAL CUT PRO REEL: N/A REPLACED BY: N/A

064   N/A  AA/V  C  00:01:34:05 00:01:37:04 00:01:33:06 00:01:36:05
* FROM CLIP NAME: /home/davidk/code/python/JC-render/JC-examples/yoga.mp4
FINAL CUT PRO REEL: N/A REPLACED BY: N/A

065   N/A  AA/V  C  00:01:37:04 00:01:37:20 00:01:36:05 00:01:36:21
* FROM CLIP NAME: /home/davidk/code/python/JC-render/JC-examples/yoga.mp4
FINAL CUT PRO REEL: N/A REPLACED BY: N/A

066   N/A  AA/V  C  00:01:37:20 00:01:40:18 00:01:36:21 00:01:39:19
* FROM CLIP NAME: /home/davidk/code/python/JC-render/JC-examples/yoga.mp4
FINAL CUT PRO REEL: N/A REPLACED BY: N/A

067   N/A  AA/V  C  00:01:40:18 00:01:40:20 00:01:39:19 00:01:39:21
* FROM CLIP NAME: /home/davidk/code/python/JC-render/JC-examples/yoga.mp4
FINAL CUT PRO REEL: N/A REPLACED BY: N/A

068   N/A  AA/V  C  00:01:40:20 00:01:42:04 00:01:39:21 00:01:41:05
* FROM CLIP NAME: /home/davidk/code/python/JC-render/JC-examples/yoga.mp4
FINAL CUT PRO REEL: N/A REPLACED BY: N/A

069   N/A  AA/V  C  00:01:42:04 00:01:42:19 00:01:41:05 00:01:41:21
* FROM CLIP NAME: /home/davidk/code/python/JC-render/JC-examples/yoga.mp4
FINAL CUT PRO REEL: N/A REPLACED BY: N/A

070   N/A  AA/V  C  00:01:42:19 00:01:43:19 00:01:41:21 00:01:42:20
* FROM CLIP NAME: /home/davidk/code/python/JC-render/JC-examples/yoga.mp4
FINAL CUT PRO REEL: N/A REPLACED BY: N/A

071   N/A  AA/V  C  00:01:43:19 00:01:53:06 00:01:42:20 00:01:52:08
* FROM CLIP NAME: /home/davidk/code/python/JC-render/JC-examples/yoga.mp4
FINAL CUT PRO REEL: N/A REPLACED BY: N/A

072   N/A  AA/V  C  00:01:53:06 00:01:54:20 00:01:52:08 00:01:53:21
* FROM CLIP NAME: /home/davidk/code/python/JC-render/JC-examples/yoga.mp4
FINAL CUT PRO REEL: N/A REPLACED BY: N/A

073   N/A  AA/V  C  00:01:54:20 00:01:54:29 00:01:53:21 00:01:54:00
* FROM CLIP NAME: /home/davidk/code/python/JC-render/JC-examples/yoga.mp4
FINAL CUT PRO REEL: N/A REPLACED BY: N/A

074   N/A  AA/V  C  00:01:54:29 00:01:56:26 00:01:54:00 00:01:55:27
* FROM CLIP NAME: /home/davidk/code/python/JC-render/JC-examples/yoga.mp4
FINAL CUT PRO REEL: N/A REPLACED BY: N/A

075   N/A  AA/V  C  00:01:56:26 00:01:57:12 00:01:55:27 00:01:56:13
* FROM CLIP NAME: /home/davidk/code/python/JC-render/JC-examples/yoga.mp4
FINAL CUT PRO REEL: N/A REPLACED BY: N/A

076   N/A  AA/V  C  00:01:57:12 00:01:59:20 00:01:56:13 00:01:58:21
* FROM CLIP NAME: /home/davidk/code/python/JC-render/JC-examples/yoga.mp4
FINAL CUT PRO REEL: N/A REPLACED BY: N/A

077   N/A  AA/V  C  00:01:59:20 00:01:59:28 00:01:58:21 00:01:59:00
* FROM CLIP NAME: /home/davidk/code/python/JC-render/JC-examples/yoga.mp4
FINAL CUT PRO REEL: N/A REPLACED BY: N/A

078   N/A  AA/V  C  00:01:59:28 00:02:02:17 00:01:59:00 00:02:01:18
* FROM CLIP NAME: /home/davidk/code/python/JC-render/JC-examples/yoga.mp4
FINAL CUT PRO REEL: N/A REPLACED BY: N/A

079   N/A  AA/V  C  00:02:02:17 00:02:06:10 00:02:01:18 00:02:05:11
* FROM CLIP NAME: /home/davidk/code/python/JC-render/JC-examples/yoga.mp4
FINAL CUT PRO REEL: N/A REPLACED BY: N/A

080   N/A  AA/V  C  00:02:06:10 00:02:07:20 00:02:05:11 00:02:06:21
* FROM CLIP NAME: /home/davidk/code/python/JC-render/JC-examples/yoga.mp4
FINAL CUT PRO REEL: N/A REPLACED BY: N/A

081   N/A  AA/V  C  00:02:07:20 00:02:09:07 00:02:06:21 00:02:08:08
* FROM CLIP NAME: /home/davidk/code/python/JC-render/JC-examples/yoga.mp4
FINAL CUT PRO REEL: N/A REPLACED BY: N/A

082   N/A  AA/V  C  00:02:09:07 00:02:10:24 00:02:08:08 00:02:09:25
* FROM CLIP NAME: /home/davidk/code/python/JC-render/JC-examples/yoga.mp4
FINAL CUT PRO REEL: N/A REPLACED BY: N/A

083   N/A  AA/V  C  00:02:10:24 00:02:11:27 00:02:09:25 00:02:10:28
* FROM CLIP NAME: /home/davidk/code/python/JC-render/JC-examples/yoga.mp4
FINAL CUT PRO REEL: N/A REPLACED BY: N/A

084   N/A  AA/V  C  00:02:11:27 00:02:14:08 00:02:10:28 00:02:13:10
* FROM CLIP NAME: /home/davidk/code/python/JC-render/JC-examples/yoga.mp4
FINAL CUT PRO REEL: N/A REPLACED BY: N/A

085   N/A  AA/V  C  00:02:14:08 00:02:14:24 00:02:13:10 00:02:13:25
* FROM CLIP NAME: /home/davidk/code/python/JC-render/JC-examples/yoga.mp4
FINAL CUT PRO REEL: N/A REPLACED BY: N/A

086   N/A  AA/V  C  00:02:14:24 00:02:16:18 00:02:13:25 00:02:15:19
* FROM CLIP NAME: /home/davidk/code/python/JC-render/JC-examples/yoga.mp4
FINAL CUT PRO REEL: N/A REPLACED BY: N/A

087   N/A  AA/V  C  00:02:16:18 00:02:18:05 00:02:15:19 00:02:17:06
* FROM CLIP NAME: /home/davidk/code/python/JC-render/JC-examples/yoga.mp4
FINAL CUT PRO REEL: N/A REPLACED BY: N/A

088   N/A  AA/V  C  00:02:18:05 00:02:20:27 00:02:17:06 00:02:19:28
* FROM CLIP NAME: /home/davidk/code/python/JC-render/JC-examples/yoga.mp4
FINAL CUT PRO REEL: N/A REPLACED BY: N/A

089   N/A  AA/V  C  00:02:20:27 00:02:23:29 00:02:19:28 00:02:23:01
* FROM CLIP NAME: /home/davidk/code/python/JC-render/JC-examples/yoga.mp4
FINAL CUT PRO REEL: N/A REPLACED BY: N/A

090   N/A  AA/V  C  00:02:23:29 00:02:27:15 00:02:23:01 00:02:26:17
* FROM CLIP NAME: /home/davidk/code/python/JC-render/JC-examples/yoga.mp4
FINAL CUT PRO REEL: N/A REPLACED BY: N/A

091   N/A  AA/V  C  00:02:27:15 00:02:28:01 00:02:26:17 00:02:27:02
* FROM CLIP NAME: /home/davidk/code/python/JC-render/JC-examples/yoga.mp4
FINAL CUT PRO REEL: N/A REPLACED BY: N/A

092   N/A  AA/V  C  00:02:28:01 00:02:29:18 00:02:27:02 00:02:28:19
* FROM CLIP NAME: /home/davidk/code/python/JC-render/JC-examples/yoga.mp4
FINAL CUT PRO REEL: N/A REPLACED BY: N/A

093   N/A  AA/V  C  00:02:29:18 00:02:29:20 00:02:28:19 00:02:28:21
* FROM CLIP NAME: /home/davidk/code/python/JC-render/JC-examples/yoga.mp4
FINAL CUT PRO REEL: N/A REPLACED BY: N/A

094   N/A  AA/V  C  00:02:29:20 00:02:31:00 00:02:28:21 00:02:30:01
* FROM CLIP NAME: /home/davidk/code/python/JC-render/JC-examples/yoga.mp4
FINAL CUT PRO REEL: N/A REPLACED BY: N/A

095   N/A  AA/V  C  00:02:31:00 00:02:31:09 00:02:30:01 00:02:30:10
* FROM CLIP NAME: /home/davidk/code/python/JC-render/JC-examples/yoga.mp4
FINAL CUT PRO REEL: N/A REPLACED BY: N/A

096   N/A  AA/V  C  00:02:31:09 00:02:32:19 00:02:30:10 00:02:31:20
* FROM CLIP NAME: /home/davidk/code/python/JC-render/JC-examples/yoga.mp4
FINAL CUT PRO REEL: N/A REPLACED BY: N/A

097   N/A  AA/V  C  00:02:32:19 00:02:36:12 00:02:31:20 00:02:35:13
* FROM CLIP NAME: /home/davidk/code/python/JC-render/JC-examples/yoga.mp4
FINAL CUT PRO REEL: N/A REPLACED BY: N/A

098   N/A  AA/V  C  00:02:36:12 00:02:39:18 00:02:35:13 00:02:38:19
* FROM CLIP NAME: /home/davidk/code/python/JC-render/JC-examples/yoga.mp4
FINAL CUT PRO REEL: N/A REPLACED BY: N/A

099   N/A  AA/V  C  00:02:39:18 00:02:42:03 00:02:38:19 00:02:41:04
* FROM CLIP NAME: /home/davidk/code/python/JC-render/JC-examples/yoga.mp4
FINAL CUT PRO REEL: N/A REPLACED BY: N/A

100   N/A  AA/V  C  00:02:42:03 00:02:44:07 00:02:41:04 00:02:43:08
* FROM CLIP NAME: /home/davidk/code/python/JC-render/JC-examples/yoga.mp4
FINAL CUT PRO REEL: N/A REPLACED BY: N/A

101   N/A  AA/V  C  00:02:44:07 00:02:44:12 00:02:43:08 00:02:43:14
* FROM CLIP NAME: /home/davidk/code/python/JC-render/JC-examples/yoga.mp4
FINAL CUT PRO REEL: N/A REPLACED BY: N/A

102   N/A  AA/V  C  00:02:44:12 00:02:45:15 00:02:43:14 00:02:44:16
* FROM CLIP NAME: /home/davidk/code/python/JC-render/JC-examples/yoga.mp4
FINAL CUT PRO REEL: N/A REPLACED BY: N/A

103   N/A  AA/V  C  00:02:45:15 00:02:46:15 00:02:44:16 00:02:45:16
* FROM CLIP NAME: /home/davidk/code/python/JC-render/JC-examples/yoga.mp4
FINAL CUT PRO REEL: N/A REPLACED BY: N/A

104   N/A  AA/V  C  00:02:46:15 00:02:48:16 00:02:45:16 00:02:47:17
* FROM CLIP NAME: /home/davidk/code/python/JC-render/JC-examples/yoga.mp4
FINAL CUT PRO REEL: N/A REPLACED BY: N/A

105   N/A  AA/V  C  00:02:48:16 00:02:51:18 00:02:47:17 00:02:50:20
* FROM CLIP NAME: /home/davidk/code/python/JC-render/JC-examples/yoga.mp4
FINAL CUT PRO REEL: N/A REPLACED BY: N/A

106   N/A  AA/V  C  00:02:51:18 00:02:52:25 00:02:50:20 00:02:51:26
* FROM CLIP NAME: /home/davidk/code/python/JC-render/JC-examples/yoga.mp4
FINAL CUT PRO REEL: N/A REPLACED BY: N/A

107   N/A  AA/V  C  00:02:52:25 00:02:53:25 00:02:51:26 00:02:52:26
* FROM CLIP NAME: /home/davidk/code/python/JC-render/JC-examples/yoga.mp4
FINAL CUT PRO REEL: N/A REPLACED BY: N/A

108   N/A  AA/V  C  00:02:53:25 00:02:55:11 00:02:52:26 00:02:54:13
* FROM CLIP NAME: /home/davidk/code/python/JC-render/JC-examples/yoga.mp4
FINAL CUT PRO REEL: N/A REPLACED BY: N/A

109   N/A  AA/V  C  00:02:55:11 00:02:55:13 00:02:54:13 00:02:54:14
* FROM CLIP NAME: /home/davidk/code/python/JC-render/JC-examples/yoga.mp4
FINAL CUT PRO REEL: N/A REPLACED BY: N/A

110   N/A  AA/V  C  00:02:55:13 00:02:57:00 00:02:54:14 00:02:56:01
* FROM CLIP NAME: /home/davidk/code/python/JC-render/JC-examples/yoga.mp4
FINAL CUT PRO REEL: N/A REPLACED BY: N/A

111   N/A  AA/V  C  00:02:57:00 00:02:57:16 00:02:56:01 00:02:56:17
* FROM CLIP NAME: /home/davidk/code/python/JC-render/JC-examples/yoga.mp4
FINAL CUT PRO REEL: N/A REPLACED BY: N/A

112   N/A  AA/V  C  00:02:57:16 00:02:58:15 00:02:56:17 00:02:57:17
* FROM CLIP NAME: /home/davidk/code/python/JC-render/JC-examples/yoga.mp4
FINAL CUT PRO REEL: N/A REPLACED BY: N/A

113   N/A  AA/V  C  00:02:58:15 00:02:59:01 00:02:57:17 00:02:58:02
* FROM CLIP NAME: /home/davidk/code/python/JC-render/JC-examples/yoga.mp4
FINAL CUT PRO REEL: N/A REPLACED BY: N/A

114   N/A  AA/V  C  00:02:59:01 00:03:00:01 00:02:58:02 00:02:59:02
* FROM CLIP NAME: /home/davidk/code/python/JC-render/JC-examples/yoga.mp4
FINAL CUT PRO REEL: N/A REPLACED BY: N/A

115   N/A  AA/V  C  00:03:00:01 00:03:00:13 00:02:59:02 00:02:59:14
* FROM CLIP NAME: /home/davidk/code/python/JC-render/JC-examples/yoga.mp4
FINAL CUT PRO REEL: N/A REPLACED BY: N/A

116   N/A  AA/V  C  00:03:00:13 00:03:05:00 00:02:59:14 00:03:04:02
* FROM CLIP NAME: /home/davidk/code/python/JC-render/JC-examples/yoga.mp4
FINAL CUT PRO REEL: N/A REPLACED BY: N/A

117   N/A  AA/V  C  00:03:05:00 00:03:05:13 00:03:04:02 00:03:04:14
* FROM CLIP NAME: /home/davidk/code/python/JC-render/JC-examples/yoga.mp4
FINAL CUT PRO REEL: N/A REPLACED BY: N/A

118   N/A  AA/V  C  00:03:05:13 00:03:08:01 00:03:04:14 00:03:07:02
* FROM CLIP NAME: /home/davidk/code/python/JC-render/JC-examples/yoga.mp4
FINAL CUT PRO REEL: N/A REPLACED BY: N/A

119   N/A  AA/V  C  00:03:08:01 00:03:08:17 00:03:07:02 00:03:07:18
* FROM CLIP NAME: /home/davidk/code/python/JC-render/JC-examples/yoga.mp4
FINAL CUT PRO REEL: N/A REPLACED BY: N/A

120   N/A  AA/V  C  00:03:08:17 00:03:13:22 00:03:07:18 00:03:12:23
* FROM CLIP NAME: /home/davidk/code/python/JC-render/JC-examples/yoga.mp4
FINAL CUT PRO REEL: N/A REPLACED BY: N/A

121   N/A  AA/V  C  00:03:13:22 00:03:14:01 00:03:12:23 00:03:13:02
* FROM CLIP NAME: /home/davidk/code/python/JC-render/JC-examples/yoga.mp4
FINAL CUT PRO REEL: N/A REPLACED BY: N/A

122   N/A  AA/V  C  00:03:14:01 00:03:20:10 00:03:13:02 00:03:19:11
* FROM CLIP NAME: /home/davidk/code/python/JC-render/JC-examples/yoga.mp4
FINAL CUT PRO REEL: N/A REPLACED BY: N/A

123   N/A  AA/V  C  00:03:20:10 00:03:20:16 00:03:19:11 00:03:19:17
* FROM CLIP NAME: /home/davidk/code/python/JC-render/JC-examples/yoga.mp4
FINAL CUT PRO REEL: N/A REPLACED BY: N/A

124   N/A  AA/V  C  00:03:20:16 00:03:21:15 00:03:19:17 00:03:20:16
* FROM CLIP NAME: /home/davidk/code/python/JC-render/JC-examples/yoga.mp4
FINAL CUT PRO REEL: N/A REPLACED BY: N/A

125   N/A  AA/V  C  00:03:21:15 00:03:22:01 00:03:20:16 00:03:21:02
* FROM CLIP NAME: /home/davidk/code/python/JC-render/JC-examples/yoga.mp4
FINAL CUT PRO REEL: N/A REPLACED BY: N/A

126   N/A  AA/V  C  00:03:22:01 00:03:26:01 00:03:21:02 00:03:25:02
* FROM CLIP NAME: /home/davidk/code/python/JC-render/JC-examples/yoga.mp4
FINAL CUT PRO REEL: N/A REPLACED BY: N/A

127   N/A  AA/V  C  00:03:26:01 00:03:27:25 00:03:25:02 00:03:26:26
* FROM CLIP NAME: /home/davidk/code/python/JC-render/JC-examples/yoga.mp4
FINAL CUT PRO REEL: N/A REPLACED BY: N/A

128   N/A  AA/V  C  00:03:27:25 00:03:30:17 00:03:26:26 00:03:29:18
* FROM CLIP NAME: /home/davidk/code/python/JC-render/JC-examples/yoga.mp4
FINAL CUT PRO REEL: N/A REPLACED BY: N/A

129   N/A  AA/V  C  00:03:30:17 00:03:31:03 00:03:29:18 00:03:30:04
* FROM CLIP NAME: /home/davidk/code/python/JC-render/JC-examples/yoga.mp4
FINAL CUT PRO REEL: N/A REPLACED BY: N/A

130   N/A  AA/V  C  00:03:31:03 00:03:32:23 00:03:30:04 00:03:31:24
* FROM CLIP NAME: /home/davidk/code/python/JC-render/JC-examples/yoga.mp4
FINAL CUT PRO REEL: N/A REPLACED BY: N/A

131   N/A  AA/V  C  00:03:32:23 00:03:35:01 00:03:31:24 00:03:34:02
* FROM CLIP NAME: /home/davidk/code/python/JC-render/JC-examples/yoga.mp4
FINAL CUT PRO REEL: N/A REPLACED BY: N/A

132   N/A  AA/V  C  00:03:35:01 00:03:38:10 00:03:34:02 00:03:37:11
* FROM CLIP NAME: /home/davidk/code/python/JC-render/JC-examples/yoga.mp4
FINAL CUT PRO REEL: N/A REPLACED BY: N/A

133   N/A  AA/V  C  00:03:38:10 00:03:38:22 00:03:37:11 00:03:37:24
* FROM CLIP NAME: /home/davidk/code/python/JC-render/JC-examples/yoga.mp4
FINAL CUT PRO REEL: N/A REPLACED BY: N/A

134   N/A  AA/V  C  00:03:38:22 00:03:43:13 00:03:37:24 00:03:42:14
* FROM CLIP NAME: /home/davidk/code/python/JC-render/JC-examples/yoga.mp4
FINAL CUT PRO REEL: N/A REPLACED BY: N/A

135   N/A  AA/V  C  00:03:43:13 00:03:43:29 00:03:42:14 00:03:43:00
* FROM CLIP NAME: /home/davidk/code/python/JC-render/JC-examples/yoga.mp4
FINAL CUT PRO REEL: N/A REPLACED BY: N/A

136   N/A  AA/V  C  00:03:43:29 00:03:51:07 00:03:43:00 00:03:50:08
* FROM CLIP NAME: /home/davidk/code/python/JC-render/JC-examples/yoga.mp4
FINAL CUT PRO REEL: N/A REPLACED BY: N/A

137   N/A  AA/V  C  00:03:51:07 00:03:51:12 00:03:50:08 00:03:50:13
* FROM CLIP NAME: /home/davidk/code/python/JC-render/JC-examples/yoga.mp4
FINAL CUT PRO REEL: N/A REPLACED BY: N/A

138   N/A  AA/V  C  00:03:51:12 00:03:55:09 00:03:50:13 00:03:54:10
* FROM CLIP NAME: /home/davidk/code/python/JC-render/JC-examples/yoga.mp4
FINAL CUT PRO REEL: N/A REPLACED BY: N/A

139   N/A  AA/V  C  00:03:55:09 00:03:55:11 00:03:54:10 00:03:54:12
* FROM CLIP NAME: /home/davidk/code/python/JC-render/JC-examples/yoga.mp4
FINAL CUT PRO REEL: N/A REPLACED BY: N/A

140   N/A  AA/V  C  00:03:55:11 00:04:01:13 00:03:54:12 00:04:00:14
* FROM CLIP NAME: /home/davidk/code/python/JC-render/JC-examples/yoga.mp4
FINAL CUT PRO REEL: N/A REPLACED BY: N/A

141   N/A  AA/V  C  00:04:01:13 00:04:01:19 00:04:00:14 00:04:00:20
* FROM CLIP NAME: /home/davidk/code/python/JC-render/JC-examples/yoga.mp4
FINAL CUT PRO REEL: N/A REPLACED BY: N/A

142   N/A  AA/V  C  00:04:01:19 00:04:03:12 00:04:00:20 00:04:02:14
* FROM CLIP NAME: /home/davidk/code/python/JC-render/JC-examples/yoga.mp4
FINAL CUT PRO REEL: N/A REPLACED BY: N/A

143   N/A  AA/V  C  00:04:03:12 00:04:03:18 00:04:02:14 00:04:02:19
* FROM CLIP NAME: /home/davidk/code/python/JC-render/JC-examples/yoga.mp4
FINAL CUT PRO REEL: N/A REPLACED BY: N/A

144   N/A  AA/V  C  00:04:03:18 00:04:04:28 00:04:02:19 00:04:03:29
* FROM CLIP NAME: /home/davidk/code/python/JC-render/JC-examples/yoga.mp4
FINAL CUT PRO REEL: N/A REPLACED BY: N/A

145   N/A  AA/V  C  00:04:04:28 00:04:05:10 00:04:03:29 00:04:04:11
* FROM CLIP NAME: /home/davidk/code/python/JC-render/JC-examples/yoga.mp4
FINAL CUT PRO REEL: N/A REPLACED BY: N/A

146   N/A  AA/V  C  00:04:05:10 00:04:07:25 00:04:04:11 00:04:06:26
* FROM CLIP NAME: /home/davidk/code/python/JC-render/JC-examples/yoga.mp4
FINAL CUT PRO REEL: N/A REPLACED BY: N/A

147   N/A  AA/V  C  00:04:07:25 00:04:08:11 00:04:06:26 00:04:07:12
* FROM CLIP NAME: /home/davidk/code/python/JC-render/JC-examples/yoga.mp4
FINAL CUT PRO REEL: N/A REPLACED BY: N/A

148   N/A  AA/V  C  00:04:08:11 00:04:08:26 00:04:07:12 00:04:07:27
* FROM CLIP NAME: /home/davidk/code/python/JC-render/JC-examples/yoga.mp4
FINAL CUT PRO REEL: N/A REPLACED BY: N/A

149   N/A  AA/V  C  00:04:08:26 00:04:09:12 00:04:07:27 00:04:08:13
* FROM CLIP NAME: /home/davidk/code/python/JC-render/JC-examples/yoga.mp4
FINAL CUT PRO REEL: N/A REPLACED BY: N/A

150   N/A  AA/V  C  00:04:09:12 00:04:11:09 00:04:08:13 00:04:10:10
* FROM CLIP NAME: /home/davidk/code/python/JC-render/JC-examples/yoga.mp4
FINAL CUT PRO REEL: N/A REPLACED BY: N/A

151   N/A  AA/V  C  00:04:11:09 00:04:11:11 00:04:10:10 00:04:10:12
* FROM CLIP NAME: /home/davidk/code/python/JC-render/JC-examples/yoga.mp4
FINAL CUT PRO REEL: N/A REPLACED BY: N/A

152   N/A  AA/V  C  00:04:11:11 00:04:13:05 00:04:10:12 00:04:12:06
* FROM CLIP NAME: /home/davidk/code/python/JC-render/JC-examples/yoga.mp4
FINAL CUT PRO REEL: N/A REPLACED BY: N/A

153   N/A  AA/V  C  00:04:13:05 00:04:13:24 00:04:12:06 00:04:12:25
* FROM CLIP NAME: /home/davidk/code/python/JC-render/JC-examples/yoga.mp4
FINAL CUT PRO REEL: N/A REPLACED BY: N/A

154   N/A  AA/V  C  00:04:13:24 00:04:14:17 00:04:12:25 00:04:13:18
* FROM CLIP NAME: /home/davidk/code/python/JC-render/JC-examples/yoga.mp4
FINAL CUT PRO REEL: N/A REPLACED BY: N/A

155   N/A  AA/V  C  00:04:14:17 00:04:15:06 00:04:13:18 00:04:14:07
* FROM CLIP NAME: /home/davidk/code/python/JC-render/JC-examples/yoga.mp4
FINAL CUT PRO REEL: N/A REPLACED BY: N/A

156   N/A  AA/V  C  00:04:15:06 00:04:17:21 00:04:14:07 00:04:16:22
* FROM CLIP NAME: /home/davidk/code/python/JC-render/JC-examples/yoga.mp4
FINAL CUT PRO REEL: N/A REPLACED BY: N/A

157   N/A  AA/V  C  00:04:17:21 00:04:17:23 00:04:16:22 00:04:16:24
* FROM CLIP NAME: /home/davidk/code/python/JC-render/JC-examples/yoga.mp4
FINAL CUT PRO REEL: N/A REPLACED BY: N/A

158   N/A  AA/V  C  00:04:17:23 00:04:20:00 00:04:16:24 00:04:19:02
* FROM CLIP NAME: /home/davidk/code/python/JC-render/JC-examples/yoga.mp4
FINAL CUT PRO REEL: N/A REPLACED BY: N/A

159   N/A  AA/V  C  00:04:20:00 00:04:20:09 00:04:19:02 00:04:19:11
* FROM CLIP NAME: /home/davidk/code/python/JC-render/JC-examples/yoga.mp4
FINAL CUT PRO REEL: N/A REPLACED BY: N/A

160   N/A  AA/V  C  00:04:20:09 00:04:26:05 00:04:19:11 00:04:25:06
* FROM CLIP NAME: /home/davidk/code/python/JC-render/JC-examples/yoga.mp4
FINAL CUT PRO REEL: N/A REPLACED BY: N/A

161   N/A  AA/V  C  00:04:26:05 00:04:26:07 00:04:25:06 00:04:25:08
* FROM CLIP NAME: /home/davidk/code/python/JC-render/JC-examples/yoga.mp4
FINAL CUT PRO REEL: N/A REPLACED BY: N/A

162   N/A  AA/V  C  00:04:26:07 00:04:30:07 00:04:25:08 00:04:29:08
* FROM CLIP NAME: /home/davidk/code/python/JC-render/JC-examples/yoga.mp4
FINAL CUT PRO REEL: N/A REPLACED BY: N/A

163   N/A  AA/V  C  00:04:30:07 00:04:30:19 00:04:29:08 00:04:29:20
* FROM CLIP NAME: /home/davidk/code/python/JC-render/JC-examples/yoga.mp4
FINAL CUT PRO REEL: N/A REPLACED BY: N/A

164   N/A  AA/V  C  00:04:30:19 00:04:36:12 00:04:29:20 00:04:35:13
* FROM CLIP NAME: /home/davidk/code/python/JC-render/JC-examples/yoga.mp4
FINAL CUT PRO REEL: N/A REPLACED BY: N/A

165   N/A  AA/V  C  00:04:36:12 00:04:36:13 00:04:35:13 00:04:35:15
* FROM CLIP NAME: /home/davidk/code/python/JC-render/JC-examples/yoga.mp4
FINAL CUT PRO REEL: N/A REPLACED BY: N/A

166   N/A  AA/V  C  00:04:36:13 00:04:38:25 00:04:35:15 00:04:37:26
* FROM CLIP NAME: /home/davidk/code/python/JC-render/JC-examples/yoga.mp4
FINAL CUT PRO REEL: N/A REPLACED BY: N/A

167   N/A  AA/V  C  00:04:38:25 00:04:39:07 00:04:37:26 00:04:38:08
* FROM CLIP NAME: /home/davidk/code/python/JC-render/JC-examples/yoga.mp4
FINAL CUT PRO REEL: N/A REPLACED BY: N/A

168   N/A  AA/V  C  00:04:39:07 00:04:39:23 00:04:38:08 00:04:38:24
* FROM CLIP NAME: /home/davidk/code/python/JC-render/JC-examples/yoga.mp4
FINAL CUT PRO REEL: N/A REPLACED BY: N/A

169   N/A  AA/V  C  00:04:39:23 00:04:40:05 00:04:38:24 00:04:39:06
* FROM CLIP NAME: /home/davidk/code/python/JC-render/JC-examples/yoga.mp4
FINAL CUT PRO REEL: N/A REPLACED BY: N/A

170   N/A  AA/V  C  00:04:40:05 00:04:42:23 00:04:39:06 00:04:41:24
* FROM CLIP NAME: /home/davidk/code/python/JC-render/JC-examples/yoga.mp4
FINAL CUT PRO REEL: N/A REPLACED BY: N/A

171   N/A  AA/V  C  00:04:42:23 00:04:43:26 00:04:41:24 00:04:42:28
* FROM CLIP NAME: /home/davidk/code/python/JC-render/JC-examples/yoga.mp4
FINAL CUT PRO REEL: N/A REPLACED BY: N/A

172   N/A  AA/V  C  00:04:43:26 00:04:45:27 00:04:42:28 00:04:44:28
* FROM CLIP NAME: /home/davidk/code/python/JC-render/JC-examples/yoga.mp4
FINAL CUT PRO REEL: N/A REPLACED BY: N/A

173   N/A  AA/V  C  00:04:45:27 00:04:46:03 00:04:44:28 00:04:45:04
* FROM CLIP NAME: /home/davidk/code/python/JC-render/JC-examples/yoga.mp4
FINAL CUT PRO REEL: N/A REPLACED BY: N/A

174   N/A  AA/V  C  00:04:46:03 00:04:47:05 00:04:45:04 00:04:46:07
* FROM CLIP NAME: /home/davidk/code/python/JC-render/JC-examples/yoga.mp4
FINAL CUT PRO REEL: N/A REPLACED BY: N/A

175   N/A  AA/V  C  00:04:47:05 00:04:47:14 00:04:46:07 00:04:46:16
* FROM CLIP NAME: /home/davidk/code/python/JC-render/JC-examples/yoga.mp4
FINAL CUT PRO REEL: N/A REPLACED BY: N/A

176   N/A  AA/V  C  00:04:47:14 00:04:48:28 00:04:46:16 00:04:47:29
* FROM CLIP NAME: /home/davidk/code/python/JC-render/JC-examples/yoga.mp4
FINAL CUT PRO REEL: N/A REPLACED BY: N/A

177   N/A  AA/V  C  00:04:48:28 00:04:49:14 00:04:47:29 00:04:48:15
* FROM CLIP NAME: /home/davidk/code/python/JC-render/JC-examples/yoga.mp4
FINAL CUT PRO REEL: N/A REPLACED BY: N/A

178   N/A  AA/V  C  00:04:49:14 00:04:50:06 00:04:48:15 00:04:49:07
* FROM CLIP NAME: /home/davidk/code/python/JC-render/JC-examples/yoga.mp4
FINAL CUT PRO REEL: N/A REPLACED BY: N/A

179   N/A  AA/V  C  00:04:50:06 00:04:50:29 00:04:49:07 00:04:50:00
* FROM CLIP NAME: /home/davidk/code/python/JC-render/JC-examples/yoga.mp4
FINAL CUT PRO REEL: N/A REPLACED BY: N/A

180   N/A  AA/V  C  00:04:50:29 00:04:53:07 00:04:50:00 00:04:52:08
* FROM CLIP NAME: /home/davidk/code/python/JC-render/JC-examples/yoga.mp4
FINAL CUT PRO REEL: N/A REPLACED BY: N/A

181   N/A  AA/V  C  00:04:53:07 00:04:53:15 00:04:52:08 00:04:52:17
* FROM CLIP NAME: /home/davidk/code/python/JC-render/JC-examples/yoga.mp4
FINAL CUT PRO REEL: N/A REPLACED BY: N/A

182   N/A  AA/V  C  00:04:53:15 00:04:54:01 00:04:52:17 00:04:53:02
* FROM CLIP NAME: /home/davidk/code/python/JC-render/JC-examples/yoga.mp4
FINAL CUT PRO REEL: N/A REPLACED BY: N/A

183   N/A  AA/V  C  00:04:54:01 00:04:54:06 00:04:53:02 00:04:53:08
* FROM CLIP NAME: /home/davidk/code/python/JC-render/JC-examples/yoga.mp4
FINAL CUT PRO REEL: N/A REPLACED BY: N/A

184   N/A  AA/V  C  00:04:54:06 00:04:57:08 00:04:53:08 00:04:56:10
* FROM CLIP NAME: /home/davidk/code/python/JC-render/JC-examples/yoga.mp4
FINAL CUT PRO REEL: N/A REPLACED BY: N/A

185   N/A  AA/V  C  00:04:57:08 00:04:57:14 00:04:56:10 00:04:56:15
* FROM CLIP NAME: /home/davidk/code/python/JC-render/JC-examples/yoga.mp4
FINAL CUT PRO REEL: N/A REPLACED BY: N/A

186   N/A  AA/V  C  00:04:57:14 00:05:00:09 00:04:56:15 00:04:59:10
* FROM CLIP NAME: /home/davidk/code/python/JC-render/JC-examples/yoga.mp4
FINAL CUT PRO REEL: N/A REPLACED BY: N/A

187   N/A  AA/V  C  00:05:00:09 00:05:00:25 00:04:59:10 00:04:59:26
* FROM CLIP NAME: /home/davidk/code/python/JC-render/JC-examples/yoga.mp4
FINAL CUT PRO REEL: N/A REPLACED BY: N/A

188   N/A  AA/V  C  00:05:00:25 00:05:05:23 00:04:59:26 00:05:04:24
* FROM CLIP NAME: /home/davidk/code/python/JC-render/JC-examples/yoga.mp4
FINAL CUT PRO REEL: N/A REPLACED BY: N/A

189   N/A  AA/V  C  00:05:05:23 00:05:06:12 00:05:04:24 00:05:05:13
* FROM CLIP NAME: /home/davidk/code/python/JC-render/JC-examples/yoga.mp4
FINAL CUT PRO REEL: N/A REPLACED BY: N/A

190   N/A  AA/V  C  00:05:06:12 00:05:06:28 00:05:05:13 00:05:05:29
* FROM CLIP NAME: /home/davidk/code/python/JC-render/JC-examples/yoga.mp4
FINAL CUT PRO REEL: N/A REPLACED BY: N/A

191   N/A  AA/V  C  00:05:06:28 00:05:07:00 00:05:05:29 00:05:06:01
* FROM CLIP NAME: /home/davidk/code/python/JC-render/JC-examples/yoga.mp4
FINAL CUT PRO REEL: N/A REPLACED BY: N/A

192   N/A  AA/V  C  00:05:07:00 00:05:09:07 00:05:06:01 00:05:08:08
* FROM CLIP NAME: /home/davidk/code/python/JC-render/JC-examples/yoga.mp4
FINAL CUT PRO REEL: N/A REPLACED BY: N/A

193   N/A  AA/V  C  00:05:09:07 00:05:09:27 00:05:08:08 00:05:08:28
* FROM CLIP NAME: /home/davidk/code/python/JC-render/JC-examples/yoga.mp4
FINAL CUT PRO REEL: N/A REPLACED BY: N/A

194   N/A  AA/V  C  00:05:09:27 00:05:10:12 00:05:08:28 00:05:09:13
* FROM CLIP NAME: /home/davidk/code/python/JC-render/JC-examples/yoga.mp4
FINAL CUT PRO REEL: N/A REPLACED BY: N/A

195   N/A  AA/V  C  00:05:10:12 00:05:10:17 00:05:09:13 00:05:09:19
* FROM CLIP NAME: /home/davidk/code/python/JC-render/JC-examples/yoga.mp4
FINAL CUT PRO REEL: N/A REPLACED BY: N/A

196   N/A  AA/V  C  00:05:10:17 00:05:13:06 00:05:09:19 00:05:12:07
* FROM CLIP NAME: /home/davidk/code/python/JC-render/JC-examples/yoga.mp4
FINAL CUT PRO REEL: N/A REPLACED BY: N/A

197   N/A  AA/V  C  00:05:13:06 00:05:15:00 00:05:12:07 00:05:14:01
* FROM CLIP NAME: /home/davidk/code/python/JC-render/JC-examples/yoga.mp4
FINAL CUT PRO REEL: N/A REPLACED BY: N/A

198   N/A  AA/V  C  00:05:15:00 00:05:18:12 00:05:14:01 00:05:17:14
* FROM CLIP NAME: /home/davidk/code/python/JC-render/JC-examples/yoga.mp4
FINAL CUT PRO REEL: N/A REPLACED BY: N/A

199   N/A  AA/V  C  00:05:18:12 00:05:19:02 00:05:17:14 00:05:18:03
* FROM CLIP NAME: /home/davidk/code/python/JC-render/JC-examples/yoga.mp4
FINAL CUT PRO REEL: N/A REPLACED BY: N/A

200   N/A  AA/V  C  00:05:19:02 00:05:21:23 00:05:18:03 00:05:20:25
* FROM CLIP NAME: /home/davidk/code/python/JC-render/JC-examples/yoga.mp4
FINAL CUT PRO REEL: N/A REPLACED BY: N/A

201   N/A  AA/V  C  00:05:21:23 00:05:23:04 00:05:20:25 00:05:22:05
* FROM CLIP NAME: /home/davidk/code/python/JC-render/JC-examples/yoga.mp4
FINAL CUT PRO REEL: N/A REPLACED BY: N/A

202   N/A  AA/V  C  00:05:23:04 00:05:30:11 00:05:22:05 00:05:29:12
* FROM CLIP NAME: /home/davidk/code/python/JC-render/JC-examples/yoga.mp4
FINAL CUT PRO REEL: N/A REPLACED BY: N/A

203   N/A  AA/V  C  00:05:30:11 00:05:30:13 00:05:29:12 00:05:29:14
* FROM CLIP NAME: /home/davidk/code/python/JC-render/JC-examples/yoga.mp4
FINAL CUT PRO REEL: N/A REPLACED BY: N/A

204   N/A  AA/V  C  00:05:30:13 00:05:34:10 00:05:29:14 00:05:33:11
* FROM CLIP NAME: /home/davidk/code/python/JC-render/JC-examples/yoga.mp4
FINAL CUT PRO REEL: N/A REPLACED BY: N/A

205   N/A  AA/V  C  00:05:34:10 00:05:35:13 00:05:33:11 00:05:34:14
* FROM CLIP NAME: /home/davidk/code/python/JC-render/JC-examples/yoga.mp4
FINAL CUT PRO REEL: N/A REPLACED BY: N/A

206   N/A  AA/V  C  00:05:35:13 00:05:38:05 00:05:34:14 00:05:37:06
* FROM CLIP NAME: /home/davidk/code/python/JC-render/JC-examples/yoga.mp4
FINAL CUT PRO REEL: N/A REPLACED BY: N/A

207   N/A  AA/V  C  00:05:38:05 00:05:40:02 00:05:37:06 00:05:39:03
* FROM CLIP NAME: /home/davidk/code/python/JC-render/JC-examples/yoga.mp4
FINAL CUT PRO REEL: N/A REPLACED BY: N/A

208   N/A  AA/V  C  00:05:40:02 00:05:41:02 00:05:39:03 00:05:40:03
* FROM CLIP NAME: /home/davidk/code/python/JC-render/JC-examples/yoga.mp4
FINAL CUT PRO REEL: N/A REPLACED BY: N/A

209   N/A  AA/V  C  00:05:41:02 00:05:41:10 00:05:40:03 00:05:40:12
* FROM CLIP NAME: /home/davidk/code/python/JC-render/JC-examples/yoga.mp4
FINAL CUT PRO REEL: N/A REPLACED BY: N/A

210   N/A  AA/V  C  00:05:41:10 00:05:42:17 00:05:40:12 00:05:41:18
* FROM CLIP NAME: /home/davidk/code/python/JC-render/JC-examples/yoga.mp4
FINAL CUT PRO REEL: N/A REPLACED BY: N/A

211   N/A  AA/V  C  00:05:42:17 00:05:42:26 00:05:41:18 00:05:41:27
* FROM CLIP NAME: /home/davidk/code/python/JC-render/JC-examples/yoga.mp4
FINAL CUT PRO REEL: N/A REPLACED BY: N/A

212   N/A  AA/V  C  00:05:42:26 00:05:43:11 00:05:41:27 00:05:42:12
* FROM CLIP NAME: /home/davidk/code/python/JC-render/JC-examples/yoga.mp4
FINAL CUT PRO REEL: N/A REPLACED BY: N/A

213   N/A  AA/V  C  00:05:43:11 00:05:43:27 00:05:42:12 00:05:42:28
* FROM CLIP NAME: /home/davidk/code/python/JC-render/JC-examples/yoga.mp4
FINAL CUT PRO REEL: N/A REPLACED BY: N/A

214   N/A  AA/V  C  00:05:43:27 00:05:44:13 00:05:42:28 00:05:43:14
* FROM CLIP NAME: /home/davidk/code/python/JC-render/JC-examples/yoga.mp4
FINAL CUT PRO REEL: N/A REPLACED BY: N/A

215   N/A  AA/V  C  00:05:44:13 00:05:44:15 00:05:43:14 00:05:43:16
* FROM CLIP NAME: /home/davidk/code/python/JC-render/JC-examples/yoga.mp4
FINAL CUT PRO REEL: N/A REPLACED BY: N/A

216   N/A  AA/V  C  00:05:44:15 00:05:46:26 00:05:43:16 00:05:45:27
* FROM CLIP NAME: /home/davidk/code/python/JC-render/JC-examples/yoga.mp4
FINAL CUT PRO REEL: N/A REPLACED BY: N/A

217   N/A  AA/V  C  00:05:46:26 00:05:48:20 00:05:45:27 00:05:47:21
* FROM CLIP NAME: /home/davidk/code/python/JC-render/JC-examples/yoga.mp4
FINAL CUT PRO REEL: N/A REPLACED BY: N/A

218   N/A  AA/V  C  00:05:48:20 00:05:50:07 00:05:47:21 00:05:49:08
* FROM CLIP NAME: /home/davidk/code/python/JC-render/JC-examples/yoga.mp4
FINAL CUT PRO REEL: N/A REPLACED BY: N/A

219   N/A  AA/V  C  00:05:50:07 00:05:50:09 00:05:49:08 00:05:49:10
* FROM CLIP NAME: /home/davidk/code/python/JC-render/JC-examples/yoga.mp4
FINAL CUT PRO REEL: N/A REPLACED BY: N/A

220   N/A  AA/V  C  00:05:50:09 00:05:51:25 00:05:49:10 00:05:50:27
* FROM CLIP NAME: /home/davidk/code/python/JC-render/JC-examples/yoga.mp4
FINAL CUT PRO REEL: N/A REPLACED BY: N/A

221   N/A  AA/V  C  00:05:51:25 00:05:52:01 00:05:50:27 00:05:51:02
* FROM CLIP NAME: /home/davidk/code/python/JC-render/JC-examples/yoga.mp4
FINAL CUT PRO REEL: N/A REPLACED BY: N/A

222   N/A  AA/V  C  00:05:52:01 00:05:52:16 00:05:51:02 00:05:51:18
* FROM CLIP NAME: /home/davidk/code/python/JC-render/JC-examples/yoga.mp4
FINAL CUT PRO REEL: N/A REPLACED BY: N/A

223   N/A  AA/V  C  00:05:52:16 00:05:53:02 00:05:51:18 00:05:52:03
* FROM CLIP NAME: /home/davidk/code/python/JC-render/JC-examples/yoga.mp4
FINAL CUT PRO REEL: N/A REPLACED BY: N/A

224   N/A  AA/V  C  00:05:53:02 00:05:53:21 00:05:52:03 00:05:52:22
* FROM CLIP NAME: /home/davidk/code/python/JC-render/JC-examples/yoga.mp4
FINAL CUT PRO REEL: N/A REPLACED BY: N/A

225   N/A  AA/V  C  00:05:53:21 00:05:54:04 00:05:52:22 00:05:53:05
* FROM CLIP NAME: /home/davidk/code/python/JC-render/JC-examples/yoga.mp4
FINAL CUT PRO REEL: N/A REPLACED BY: N/A

226   N/A  AA/V  C  00:05:54:04 00:05:54:23 00:05:53:05 00:05:53:24
* FROM CLIP NAME: /home/davidk/code/python/JC-render/JC-examples/yoga.mp4
FINAL CUT PRO REEL: N/A REPLACED BY: N/A

227   N/A  AA/V  C  00:05:54:23 00:05:55:05 00:05:53:24 00:05:54:06
* FROM CLIP NAME: /home/davidk/code/python/JC-render/JC-examples/yoga.mp4
FINAL CUT PRO REEL: N/A REPLACED BY: N/A

228   N/A  AA/V  C  00:05:55:05 00:05:55:20 00:05:54:06 00:05:54:22
* FROM CLIP NAME: /home/davidk/code/python/JC-render/JC-examples/yoga.mp4
FINAL CUT PRO REEL: N/A REPLACED BY: N/A

229   N/A  AA/V  C  00:05:55:20 00:05:55:29 00:05:54:22 00:05:55:00
* FROM CLIP NAME: /home/davidk/code/python/JC-render/JC-examples/yoga.mp4
FINAL CUT PRO REEL: N/A REPLACED BY: N/A

230   N/A  AA/V  C  00:05:55:29 00:05:59:15 00:05:55:00 00:05:58:17
* FROM CLIP NAME: /home/davidk/code/python/JC-render/JC-examples/yoga.mp4
FINAL CUT PRO REEL: N/A REPLACED BY: N/A

231   N/A  AA/V  C  00:05:59:15 00:06:00:12 00:05:58:17 00:05:59:13
* FROM CLIP NAME: /home/davidk/code/python/JC-render/JC-examples/yoga.mp4
FINAL CUT PRO REEL: N/A REPLACED BY: N/A

232   N/A  AA/V  C  00:06:00:12 00:06:16:07 00:05:59:13 00:06:15:08
* FROM CLIP NAME: /home/davidk/code/python/JC-render/JC-examples/yoga.mp4
FINAL CUT PRO REEL: N/A REPLACED BY: N/A

233   N/A  AA/V  C  00:06:16:07 00:06:16:19 00:06:15:08 00:06:15:20
* FROM CLIP NAME: /home/davidk/code/python/JC-render/JC-examples/yoga.mp4
FINAL CUT PRO REEL: N/A REPLACED BY: N/A

234   N/A  AA/V  C  00:06:16:19 00:06:21:03 00:06:15:20 00:06:20:04
* FROM CLIP NAME: /home/davidk/code/python/JC-render/JC-examples/yoga.mp4
FINAL CUT PRO REEL: N/A REPLACED BY: N/A

235   N/A  AA/V  C  00:06:21:03 00:06:21:05 00:06:20:04 00:06:20:06
* FROM CLIP NAME: /home/davidk/code/python/JC-render/JC-examples/yoga.mp4
FINAL CUT PRO REEL: N/A REPLACED BY: N/A

236   N/A  AA/V  C  00:06:21:05 00:06:26:03 00:06:20:06 00:06:25:04
* FROM CLIP NAME: /home/davidk/code/python/JC-render/JC-examples/yoga.mp4
FINAL CUT PRO REEL: N/A REPLACED BY: N/A

237   N/A  AA/V  C  00:06:26:03 00:06:26:05 00:06:25:04 00:06:25:06
* FROM CLIP NAME: /home/davidk/code/python/JC-render/JC-examples/yoga.mp4
FINAL CUT PRO REEL: N/A REPLACED BY: N/A

238   N/A  AA/V  C  00:06:26:05 00:06:36:06 00:06:25:06 00:06:35:07
* FROM CLIP NAME: /home/davidk/code/python/JC-render/JC-examples/yoga.mp4
FINAL CUT PRO REEL: N/A REPLACED BY: N/A

239   N/A  AA/V  C  00:06:36:06 00:06:36:08 00:06:35:07 00:06:35:09
* FROM CLIP NAME: /home/davidk/code/python/JC-render/JC-examples/yoga.mp4
FINAL CUT PRO REEL: N/A REPLACED BY: N/A

240   N/A  AA/V  C  00:06:36:08 00:06:38:19 00:06:35:09 00:06:37:20
* FROM CLIP NAME: /home/davidk/code/python/JC-render/JC-examples/yoga.mp4
FINAL CUT PRO REEL: N/A REPLACED BY: N/A

241   N/A  AA/V  C  00:06:38:19 00:06:39:02 00:06:37:20 00:06:38:03
* FROM CLIP NAME: /home/davidk/code/python/JC-render/JC-examples/yoga.mp4
FINAL CUT PRO REEL: N/A REPLACED BY: N/A

242   N/A  AA/V  C  00:06:39:02 00:06:39:24 00:06:38:03 00:06:38:25
* FROM CLIP NAME: /home/davidk/code/python/JC-render/JC-examples/yoga.mp4
FINAL CUT PRO REEL: N/A REPLACED BY: N/A

243   N/A  AA/V  C  00:06:39:24 00:06:40:17 00:06:38:25 00:06:39:18
* FROM CLIP NAME: /home/davidk/code/python/JC-render/JC-examples/yoga.mp4
FINAL CUT PRO REEL: N/A REPLACED BY: N/A

244   N/A  AA/V  C  00:06:40:17 00:06:41:13 00:06:39:18 00:06:40:14
* FROM CLIP NAME: /home/davidk/code/python/JC-render/JC-examples/yoga.mp4
FINAL CUT PRO REEL: N/A REPLACED BY: N/A

245   N/A  AA/V  C  00:06:41:13 00:06:42:16 00:06:40:14 00:06:41:17
* FROM CLIP NAME: /home/davidk/code/python/JC-render/JC-examples/yoga.mp4
FINAL CUT PRO REEL: N/A REPLACED BY: N/A

246   N/A  AA/V  C  00:06:42:16 00:06:43:05 00:06:41:17 00:06:42:06
* FROM CLIP NAME: /home/davidk/code/python/JC-render/JC-examples/yoga.mp4
FINAL CUT PRO REEL: N/A REPLACED BY: N/A

247   N/A  AA/V  C  00:06:43:05 00:06:43:10 00:06:42:06 00:06:42:12
* FROM CLIP NAME: /home/davidk/code/python/JC-render/JC-examples/yoga.mp4
FINAL CUT PRO REEL: N/A REPLACED BY: N/A

248   N/A  AA/V  C  00:06:43:10 00:06:44:20 00:06:42:12 00:06:43:21
* FROM CLIP NAME: /home/davidk/code/python/JC-render/JC-examples/yoga.mp4
FINAL CUT PRO REEL: N/A REPLACED BY: N/A

249   N/A  AA/V  C  00:06:44:20 00:06:44:22 00:06:43:21 00:06:43:23
* FROM CLIP NAME: /home/davidk/code/python/JC-render/JC-examples/yoga.mp4
FINAL CUT PRO REEL: N/A REPLACED BY: N/A

250   N/A  AA/V  C  00:06:44:22 00:06:46:16 00:06:43:23 00:06:45:17
* FROM CLIP NAME: /home/davidk/code/python/JC-render/JC-examples/yoga.mp4
FINAL CUT PRO REEL: N/A REPLACED BY: N/A

251   N/A  AA/V  C  00:06:46:16 00:06:46:18 00:06:45:17 00:06:45:19
* FROM CLIP NAME: /home/davidk/code/python/JC-render/JC-examples/yoga.mp4
FINAL CUT PRO REEL: N/A REPLACED BY: N/A

252   N/A  AA/V  C  00:06:46:18 00:06:52:17 00:06:45:19 00:06:51:18
* FROM CLIP NAME: /home/davidk/code/python/JC-render/JC-examples/yoga.mp4
FINAL CUT PRO REEL: N/A REPLACED BY: N/A

253   N/A  AA/V  C  00:06:52:17 00:06:54:15 00:06:51:18 00:06:53:16
* FROM CLIP NAME: /home/davidk/code/python/JC-render/JC-examples/yoga.mp4
FINAL CUT PRO REEL: N/A REPLACED BY: N/A

254   N/A  AA/V  C  00:06:54:15 00:06:57:10 00:06:53:16 00:06:56:11
* FROM CLIP NAME: /home/davidk/code/python/JC-render/JC-examples/yoga.mp4
FINAL CUT PRO REEL: N/A REPLACED BY: N/A

255   N/A  AA/V  C  00:06:57:10 00:06:58:24 00:06:56:11 00:06:57:25
* FROM CLIP NAME: /home/davidk/code/python/JC-render/JC-examples/yoga.mp4
FINAL CUT PRO REEL: N/A REPLACED BY: N/A

256   N/A  AA/V  C  00:06:58:24 00:07:01:19 00:06:57:25 00:07:00:20
* FROM CLIP NAME: /home/davidk/code/python/JC-render/JC-examples/yoga.mp4
FINAL CUT PRO REEL: N/A REPLACED BY: N/A

257   N/A  AA/V  C  00:07:01:19 00:07:01:24 00:07:00:20 00:07:00:25
* FROM CLIP NAME: /home/davidk/code/python/JC-render/JC-examples/yoga.mp4
FINAL CUT PRO REEL: N/A REPLACED BY: N/A

258   N/A  AA/V  C  00:07:01:24 00:07:06:08 00:07:00:25 00:07:05:09
* FROM CLIP NAME: /home/davidk/code/python/JC-render/JC-examples/yoga.mp4
FINAL CUT PRO REEL: N/A REPLACED BY: N/A

259   N/A  AA/V  C  00:07:06:08 00:07:06:14 00:07:05:09 00:07:05:15
* FROM CLIP NAME: /home/davidk/code/python/JC-render/JC-examples/yoga.mp4
FINAL CUT PRO REEL: N/A REPLACED BY: N/A

260   N/A  AA/V  C  00:07:06:14 00:07:10:03 00:07:05:15 00:07:09:04
* FROM CLIP NAME: /home/davidk/code/python/JC-render/JC-examples/yoga.mp4
FINAL CUT PRO REEL: N/A REPLACED BY: N/A

261   N/A  AA/V  C  00:07:10:03 00:07:10:08 00:07:09:04 00:07:09:10
* FROM CLIP NAME: /home/davidk/code/python/JC-render/JC-examples/yoga.mp4
FINAL CUT PRO REEL: N/A REPLACED BY: N/A

262   N/A  AA/V  C  00:07:10:08 00:07:10:24 00:07:09:10 00:07:09:25
* FROM CLIP NAME: /home/davidk/code/python/JC-render/JC-examples/yoga.mp4
FINAL CUT PRO REEL: N/A REPLACED BY: N/A

263   N/A  AA/V  C  00:07:10:24 00:07:10:26 00:07:09:25 00:07:09:27
* FROM CLIP NAME: /home/davidk/code/python/JC-render/JC-examples/yoga.mp4
FINAL CUT PRO REEL: N/A REPLACED BY: N/A

264   N/A  AA/V  C  00:07:10:26 00:07:11:25 00:07:09:27 00:07:10:26
* FROM CLIP NAME: /home/davidk/code/python/JC-render/JC-examples/yoga.mp4
FINAL CUT PRO REEL: N/A REPLACED BY: N/A

265   N/A  AA/V  C  00:07:11:25 00:07:12:01 00:07:10:26 00:07:11:02
* FROM CLIP NAME: /home/davidk/code/python/JC-render/JC-examples/yoga.mp4
FINAL CUT PRO REEL: N/A REPLACED BY: N/A

266   N/A  AA/V  C  00:07:12:01 00:07:12:16 00:07:11:02 00:07:11:17
* FROM CLIP NAME: /home/davidk/code/python/JC-render/JC-examples/yoga.mp4
FINAL CUT PRO REEL: N/A REPLACED BY: N/A

267   N/A  AA/V  C  00:07:12:16 00:07:13:02 00:07:11:17 00:07:12:03
* FROM CLIP NAME: /home/davidk/code/python/JC-render/JC-examples/yoga.mp4
FINAL CUT PRO REEL: N/A REPLACED BY: N/A

268   N/A  AA/V  C  00:07:13:02 00:07:14:19 00:07:12:03 00:07:13:20
* FROM CLIP NAME: /home/davidk/code/python/JC-render/JC-examples/yoga.mp4
FINAL CUT PRO REEL: N/A REPLACED BY: N/A

269   N/A  AA/V  C  00:07:14:19 00:07:14:28 00:07:13:20 00:07:13:29
* FROM CLIP NAME: /home/davidk/code/python/JC-render/JC-examples/yoga.mp4
FINAL CUT PRO REEL: N/A REPLACED BY: N/A

270   N/A  AA/V  C  00:07:14:28 00:07:15:13 00:07:13:29 00:07:14:14
* FROM CLIP NAME: /home/davidk/code/python/JC-render/JC-examples/yoga.mp4
FINAL CUT PRO REEL: N/A REPLACED BY: N/A

271   N/A  AA/V  C  00:07:15:13 00:07:15:29 00:07:14:14 00:07:15:00
* FROM CLIP NAME: /home/davidk/code/python/JC-render/JC-examples/yoga.mp4
FINAL CUT PRO REEL: N/A REPLACED BY: N/A

272   N/A  AA/V  C  00:07:15:29 00:07:16:29 00:07:15:00 00:07:16:00
* FROM CLIP NAME: /home/davidk/code/python/JC-render/JC-examples/yoga.mp4
FINAL CUT PRO REEL: N/A REPLACED BY: N/A

273   N/A  AA/V  C  00:07:16:29 00:07:17:00 00:07:16:00 00:07:16:02
* FROM CLIP NAME: /home/davidk/code/python/JC-render/JC-examples/yoga.mp4
FINAL CUT PRO REEL: N/A REPLACED BY: N/A

274   N/A  AA/V  C  00:07:17:00 00:07:18:07 00:07:16:02 00:07:17:08
* FROM CLIP NAME: /home/davidk/code/python/JC-render/JC-examples/yoga.mp4
FINAL CUT PRO REEL: N/A REPLACED BY: N/A

275   N/A  AA/V  C  00:07:18:07 00:07:19:00 00:07:17:08 00:07:18:01
* FROM CLIP NAME: /home/davidk/code/python/JC-render/JC-examples/yoga.mp4
FINAL CUT PRO REEL: N/A REPLACED BY: N/A

276   N/A  AA/V  C  00:07:19:00 00:07:22:09 00:07:18:01 00:07:21:10
* FROM CLIP NAME: /home/davidk/code/python/JC-render/JC-examples/yoga.mp4
FINAL CUT PRO REEL: N/A REPLACED BY: N/A

277   N/A  AA/V  C  00:07:22:09 00:07:22:11 00:07:21:10 00:07:21:12
* FROM CLIP NAME: /home/davidk/code/python/JC-render/JC-examples/yoga.mp4
FINAL CUT PRO REEL: N/A REPLACED BY: N/A

278   N/A  AA/V  C  00:07:22:11 00:07:27:12 00:07:21:12 00:07:26:13
* FROM CLIP NAME: /home/davidk/code/python/JC-render/JC-examples/yoga.mp4
FINAL CUT PRO REEL: N/A REPLACED BY: N/A

279   N/A  AA/V  C  00:07:27:12 00:07:27:21 00:07:26:13 00:07:26:22
* FROM CLIP NAME: /home/davidk/code/python/JC-render/JC-examples/yoga.mp4
FINAL CUT PRO REEL: N/A REPLACED BY: N/A

280   N/A  AA/V  C  00:07:27:21 00:07:31:07 00:07:26:22 00:07:30:08
* FROM CLIP NAME: /home/davidk/code/python/JC-render/JC-examples/yoga.mp4
FINAL CUT PRO REEL: N/A REPLACED BY: N/A

281   N/A  AA/V  C  00:07:31:07 00:07:32:24 00:07:30:08 00:07:31:25
* FROM CLIP NAME: /home/davidk/code/python/JC-render/JC-examples/yoga.mp4
FINAL CUT PRO REEL: N/A REPLACED BY: N/A

282   N/A  AA/V  C  00:07:32:24 00:07:33:13 00:07:31:25 00:07:32:14
* FROM CLIP NAME: /home/davidk/code/python/JC-render/JC-examples/yoga.mp4
FINAL CUT PRO REEL: N/A REPLACED BY: N/A

283   N/A  AA/V  C  00:07:33:13 00:07:36:02 00:07:32:14 00:07:35:03
* FROM CLIP NAME: /home/davidk/code/python/JC-render/JC-examples/yoga.mp4
FINAL CUT PRO REEL: N/A REPLACED BY: N/A

284   N/A  AA/V  C  00:07:36:02 00:07:36:21 00:07:35:03 00:07:35:22
* FROM CLIP NAME: /home/davidk/code/python/JC-render/JC-examples/yoga.mp4
FINAL CUT PRO REEL: N/A REPLACED BY: N/A

285   N/A  AA/V  C  00:07:36:21 00:07:37:20 00:07:35:22 00:07:36:22
* FROM CLIP NAME: /home/davidk/code/python/JC-render/JC-examples/yoga.mp4
FINAL CUT PRO REEL: N/A REPLACED BY: N/A

286   N/A  AA/V  C  00:07:37:20 00:07:38:09 00:07:36:22 00:07:37:11
* FROM CLIP NAME: /home/davidk/code/python/JC-render/JC-examples/yoga.mp4
FINAL CUT PRO REEL: N/A REPLACED BY: N/A

287   N/A  AA/V  C  00:07:38:09 00:07:39:20 00:07:37:11 00:07:38:21
* FROM CLIP NAME: /home/davidk/code/python/JC-render/JC-examples/yoga.mp4
FINAL CUT PRO REEL: N/A REPLACED BY: N/A

288   N/A  AA/V  C  00:07:39:20 00:07:42:22 00:07:38:21 00:07:41:23
* FROM CLIP NAME: /home/davidk/code/python/JC-render/JC-examples/yoga.mp4
FINAL CUT PRO REEL: N/A REPLACED BY: N/A

289   N/A  AA/V  C  00:07:42:22 00:07:43:04 00:07:41:23 00:07:42:05
* FROM CLIP NAME: /home/davidk/code/python/JC-render/JC-examples/yoga.mp4
FINAL CUT PRO REEL: N/A REPLACED BY: N/A

290   N/A  AA/V  C  00:07:43:04 00:07:46:06 00:07:42:05 00:07:45:07
* FROM CLIP NAME: /home/davidk/code/python/JC-render/JC-examples/yoga.mp4
FINAL CUT PRO REEL: N/A REPLACED BY: N/A

291   N/A  AA/V  C  00:07:46:06 00:07:46:19 00:07:45:07 00:07:45:20
* FROM CLIP NAME: /home/davidk/code/python/JC-render/JC-examples/yoga.mp4
FINAL CUT PRO REEL: N/A REPLACED BY: N/A

292   N/A  AA/V  C  00:07:46:19 00:07:49:03 00:07:45:20 00:07:48:04
* FROM CLIP NAME: /home/davidk/code/python/JC-render/JC-examples/yoga.mp4
FINAL CUT PRO REEL: N/A REPLACED BY: N/A

293   N/A  AA/V  C  00:07:49:03 00:07:50:00 00:07:48:04 00:07:49:01
* FROM CLIP NAME: /home/davidk/code/python/JC-render/JC-examples/yoga.mp4
FINAL CUT PRO REEL: N/A REPLACED BY: N/A

294   N/A  AA/V  C  00:07:50:00 00:07:53:26 00:07:49:01 00:07:52:27
* FROM CLIP NAME: /home/davidk/code/python/JC-render/JC-examples/yoga.mp4
FINAL CUT PRO REEL: N/A REPLACED BY: N/A

295   N/A  AA/V  C  00:07:53:26 00:07:58:28 00:07:52:27 00:07:57:29
* FROM CLIP NAME: /home/davidk/code/python/JC-render/JC-examples/yoga.mp4
FINAL CUT PRO REEL: N/A REPLACED BY: N/A

296   N/A  AA/V  C  00:07:58:28 00:08:00:01 00:07:57:29 00:07:59:02
* FROM CLIP NAME: /home/davidk/code/python/JC-render/JC-examples/yoga.mp4
FINAL CUT PRO REEL: N/A REPLACED BY: N/A

297   N/A  AA/V  C  00:08:00:01 00:08:01:07 00:07:59:02 00:08:00:09
* FROM CLIP NAME: /home/davidk/code/python/JC-render/JC-examples/yoga.mp4
FINAL CUT PRO REEL: N/A REPLACED BY: N/A

298   N/A  AA/V  C  00:08:01:07 00:08:03:01 00:08:00:09 00:08:02:02
* FROM CLIP NAME: /home/davidk/code/python/JC-render/JC-examples/yoga.mp4
FINAL CUT PRO REEL: N/A REPLACED BY: N/A

299   N/A  AA/V  C  00:08:03:01 00:08:04:25 00:08:02:02 00:08:03:27
* FROM CLIP NAME: /home/davidk/code/python/JC-render/JC-examples/yoga.mp4
FINAL CUT PRO REEL: N/A REPLACED BY: N/A

300   N/A  AA/V  C  00:08:04:25 00:08:09:16 00:08:03:27 00:08:08:17
* FROM CLIP NAME: /home/davidk/code/python/JC-render/JC-examples/yoga.mp4
FINAL CUT PRO REEL: N/A REPLACED BY: N/A

301   N/A  AA/V  C  00:08:09:16 00:08:13:27 00:08:08:17 00:08:12:28
* FROM CLIP NAME: /home/davidk/code/python/JC-render/JC-examples/yoga.mp4
FINAL CUT PRO REEL: N/A REPLACED BY: N/A

302   N/A  AA/V  C  00:08:13:27 00:08:19:26 00:08:12:28 00:08:18:27
* FROM CLIP NAME: /home/davidk/code/python/JC-render/JC-examples/yoga.mp4
FINAL CUT PRO REEL: N/A REPLACED BY: N/A

303   N/A  AA/V  C  00:08:19:26 00:08:20:05 00:08:18:27 00:08:19:06
* FROM CLIP NAME: /home/davidk/code/python/JC-render/JC-examples/yoga.mp4
FINAL CUT PRO REEL: N/A REPLACED BY: N/A

304   N/A  AA/V  C  00:08:20:05 00:08:21:12 00:08:19:06 00:08:20:13
* FROM CLIP NAME: /home/davidk/code/python/JC-render/JC-examples/yoga.mp4
FINAL CUT PRO REEL: N/A REPLACED BY: N/A

305   N/A  AA/V  C  00:08:21:12 00:08:22:11 00:08:20:13 00:08:21:13
* FROM CLIP NAME: /home/davidk/code/python/JC-render/JC-examples/yoga.mp4
FINAL CUT PRO REEL: N/A REPLACED BY: N/A

306   N/A  AA/V  C  00:08:22:11 00:08:26:15 00:08:21:13 00:08:25:16
* FROM CLIP NAME: /home/davidk/code/python/JC-render/JC-examples/yoga.mp4
FINAL CUT PRO REEL: N/A REPLACED BY: N/A

307   N/A  AA/V  C  00:08:26:15 00:08:28:16 00:08:25:16 00:08:27:17
* FROM CLIP NAME: /home/davidk/code/python/JC-render/JC-examples/yoga.mp4
FINAL CUT PRO REEL: N/A REPLACED BY: N/A

308   N/A  AA/V  C  00:08:28:16 00:08:29:12 00:08:27:17 00:08:28:13
* FROM CLIP NAME: /home/davidk/code/python/JC-render/JC-examples/yoga.mp4
FINAL CUT PRO REEL: N/A REPLACED BY: N/A

309   N/A  AA/V  C  00:08:29:12 00:08:31:10 00:08:28:13 00:08:30:11
* FROM CLIP NAME: /home/davidk/code/python/JC-render/JC-examples/yoga.mp4
FINAL CUT PRO REEL: N/A REPLACED BY: N/A

310   N/A  AA/V  C  00:08:31:10 00:08:31:25 00:08:30:11 00:08:30:26
* FROM CLIP NAME: /home/davidk/code/python/JC-render/JC-examples/yoga.mp4
FINAL CUT PRO REEL: N/A REPLACED BY: N/A

311   N/A  AA/V  C  00:08:31:25 00:08:31:27 00:08:30:26 00:08:30:28
* FROM CLIP NAME: /home/davidk/code/python/JC-render/JC-examples/yoga.mp4
FINAL CUT PRO REEL: N/A REPLACED BY: N/A

312   N/A  AA/V  C  00:08:31:27 00:08:33:10 00:08:30:28 00:08:32:12
* FROM CLIP NAME: /home/davidk/code/python/JC-render/JC-examples/yoga.mp4
FINAL CUT PRO REEL: N/A REPLACED BY: N/A

313   N/A  AA/V  C  00:08:33:10 00:08:34:00 00:08:32:12 00:08:33:01
* FROM CLIP NAME: /home/davidk/code/python/JC-render/JC-examples/yoga.mp4
FINAL CUT PRO REEL: N/A REPLACED BY: N/A

314   N/A  AA/V  C  00:08:34:00 00:08:34:15 00:08:33:01 00:08:33:16
* FROM CLIP NAME: /home/davidk/code/python/JC-render/JC-examples/yoga.mp4
FINAL CUT PRO REEL: N/A REPLACED BY: N/A

315   N/A  AA/V  C  00:08:34:15 00:08:36:02 00:08:33:16 00:08:35:04
* FROM CLIP NAME: /home/davidk/code/python/JC-render/JC-examples/yoga.mp4
FINAL CUT PRO REEL: N/A REPLACED BY: N/A

316   N/A  AA/V  C  00:08:36:02 00:08:37:12 00:08:35:04 00:08:36:13
* FROM CLIP NAME: /home/davidk/code/python/JC-render/JC-examples/yoga.mp4
FINAL CUT PRO REEL: N/A REPLACED BY: N/A

317   N/A  AA/V  C  00:08:37:12 00:08:39:03 00:08:36:13 00:08:38:04
* FROM CLIP NAME: /home/davidk/code/python/JC-render/JC-examples/yoga.mp4
FINAL CUT PRO REEL: N/A REPLACED BY: N/A

318   N/A  AA/V  C  00:08:39:03 00:08:43:03 00:08:38:04 00:08:42:04
* FROM CLIP NAME: /home/davidk/code/python/JC-render/JC-examples/yoga.mp4
FINAL CUT PRO REEL: N/A REPLACED BY: N/A

319   N/A  AA/V  C  00:08:43:03 00:08:44:20 00:08:42:04 00:08:43:21
* FROM CLIP NAME: /home/davidk/code/python/JC-render/JC-examples/yoga.mp4
FINAL CUT PRO REEL: N/A REPLACED BY: N/A

320   N/A  AA/V  C  00:08:44:20 00:08:50:16 00:08:43:21 00:08:49:17
* FROM CLIP NAME: /home/davidk/code/python/JC-render/JC-examples/yoga.mp4
FINAL CUT PRO REEL: N/A REPLACED BY: N/A

321   N/A  AA/V  C  00:08:50:16 00:08:54:09 00:08:49:17 00:08:53:10
* FROM CLIP NAME: /home/davidk/code/python/JC-render/JC-examples/yoga.mp4
FINAL CUT PRO REEL: N/A REPLACED BY: N/A

322   N/A  AA/V  C  00:08:54:09 00:08:55:23 00:08:53:10 00:08:54:24
* FROM CLIP NAME: /home/davidk/code/python/JC-render/JC-examples/yoga.mp4
FINAL CUT PRO REEL: N/A REPLACED BY: N/A

323   N/A  AA/V  C  00:08:55:23 00:08:55:24 00:08:54:24 00:08:54:26
* FROM CLIP NAME: /home/davidk/code/python/JC-render/JC-examples/yoga.mp4
FINAL CUT PRO REEL: N/A REPLACED BY: N/A

324   N/A  AA/V  C  00:08:55:24 00:09:02:04 00:08:54:26 00:09:01:05
* FROM CLIP NAME: /home/davidk/code/python/JC-render/JC-examples/yoga.mp4
FINAL CUT PRO REEL: N/A REPLACED BY: N/A

325   N/A  AA/V  C  00:09:02:04 00:09:02:06 00:09:01:05 00:09:01:07
* FROM CLIP NAME: /home/davidk/code/python/JC-render/JC-examples/yoga.mp4
FINAL CUT PRO REEL: N/A REPLACED BY: N/A

326   N/A  AA/V  C  00:09:02:06 00:09:03:05 00:09:01:07 00:09:02:07
* FROM CLIP NAME: /home/davidk/code/python/JC-render/JC-examples/yoga.mp4
FINAL CUT PRO REEL: N/A REPLACED BY: N/A

327   N/A  AA/V  C  00:09:03:05 00:09:05:00 00:09:02:07 00:09:04:01
* FROM CLIP NAME: /home/davidk/code/python/JC-render/JC-examples/yoga.mp4
FINAL CUT PRO REEL: N/A REPLACED BY: N/A

328   N/A  AA/V  C  00:09:05:00 00:09:09:27 00:09:04:01 00:09:08:29
* FROM CLIP NAME: /home/davidk/code/python/JC-render/JC-examples/yoga.mp4
FINAL CUT PRO REEL: N/A REPLACED BY: N/A

329   N/A  AA/V  C  00:09:09:27 00:09:10:10 00:09:08:29 00:09:09:11
* FROM CLIP NAME: /home/davidk/code/python/JC-render/JC-examples/yoga.mp4
FINAL CUT PRO REEL: N/A REPLACED BY: N/A

330   N/A  AA/V  C  00:09:10:10 00:09:16:06 00:09:09:11 00:09:15:07
* FROM CLIP NAME: /home/davidk/code/python/JC-render/JC-examples/yoga.mp4
FINAL CUT PRO REEL: N/A REPLACED BY: N/A

331   N/A  AA/V  C  00:09:16:06 00:09:17:19 00:09:15:07 00:09:16:20
* FROM CLIP NAME: /home/davidk/code/python/JC-render/JC-examples/yoga.mp4
FINAL CUT PRO REEL: N/A REPLACED BY: N/A

332   N/A  AA/V  C  00:09:17:19 00:09:19:17 00:09:16:20 00:09:18:18
* FROM CLIP NAME: /home/davidk/code/python/JC-render/JC-examples/yoga.mp4
FINAL CUT PRO REEL: N/A REPLACED BY: N/A

333   N/A  AA/V  C  00:09:19:17 00:09:19:18 00:09:18:18 00:09:18:20
* FROM CLIP NAME: /home/davidk/code/python/JC-render/JC-examples/yoga.mp4
FINAL CUT PRO REEL: N/A REPLACED BY: N/A

334   N/A  AA/V  C  00:09:19:18 00:09:20:25 00:09:18:20 00:09:19:26
* FROM CLIP NAME: /home/davidk/code/python/JC-render/JC-examples/yoga.mp4
FINAL CUT PRO REEL: N/A REPLACED BY: N/A

335   N/A  AA/V  C  00:09:20:25 00:09:23:27 00:09:19:26 00:09:22:29
* FROM CLIP NAME: /home/davidk/code/python/JC-render/JC-examples/yoga.mp4
FINAL CUT PRO REEL: N/A REPLACED BY: N/A

336   N/A  AA/V  C  00:09:23:27 00:09:24:23 00:09:22:29 00:09:23:24
* FROM CLIP NAME: /home/davidk/code/python/JC-render/JC-examples/yoga.mp4
FINAL CUT PRO REEL: N/A REPLACED BY: N/A

337   N/A  AA/V  C  00:09:24:23 00:09:24:29 00:09:23:24 00:09:24:00
* FROM CLIP NAME: /home/davidk/code/python/JC-render/JC-examples/yoga.mp4
FINAL CUT PRO REEL: N/A REPLACED BY: N/A

338   N/A  AA/V  C  00:09:24:29 00:09:26:05 00:09:24:00 00:09:25:06
* FROM CLIP NAME: /home/davidk/code/python/JC-render/JC-examples/yoga.mp4
FINAL CUT PRO REEL: N/A REPLACED BY: N/A

339   N/A  AA/V  C  00:09:26:05 00:09:26:21 00:09:25:06 00:09:25:22
* FROM CLIP NAME: /home/davidk/code/python/JC-render/JC-examples/yoga.mp4
FINAL CUT PRO REEL: N/A REPLACED BY: N/A

340   N/A  AA/V  C  00:09:26:21 00:09:31:05 00:09:25:22 00:09:30:06
* FROM CLIP NAME: /home/davidk/code/python/JC-render/JC-examples/yoga.mp4
FINAL CUT PRO REEL: N/A REPLACED BY: N/A

341   N/A  AA/V  C  00:09:31:05 00:09:31:07 00:09:30:06 00:09:30:08
* FROM CLIP NAME: /home/davidk/code/python/JC-render/JC-examples/yoga.mp4
FINAL CUT PRO REEL: N/A REPLACED BY: N/A

342   N/A  AA/V  C  00:09:31:07 00:09:33:21 00:09:30:08 00:09:32:23
* FROM CLIP NAME: /home/davidk/code/python/JC-render/JC-examples/yoga.mp4
FINAL CUT PRO REEL: N/A REPLACED BY: N/A

343   N/A  AA/V  C  00:09:33:21 00:09:34:04 00:09:32:23 00:09:33:05
* FROM CLIP NAME: /home/davidk/code/python/JC-render/JC-examples/yoga.mp4
FINAL CUT PRO REEL: N/A REPLACED BY: N/A

344   N/A  AA/V  C  00:09:34:04 00:09:35:03 00:09:33:05 00:09:34:04
* FROM CLIP NAME: /home/davidk/code/python/JC-render/JC-examples/yoga.mp4
FINAL CUT PRO REEL: N/A REPLACED BY: N/A

345   N/A  AA/V  C  00:09:35:03 00:09:36:17 00:09:34:04 00:09:35:18
* FROM CLIP NAME: /home/davidk/code/python/JC-render/JC-examples/yoga.mp4
FINAL CUT PRO REEL: N/A REPLACED BY: N/A

346   N/A  AA/V  C  00:09:36:17 00:09:40:14 00:09:35:18 00:09:39:15
* FROM CLIP NAME: /home/davidk/code/python/JC-render/JC-examples/yoga.mp4
FINAL CUT PRO REEL: N/A REPLACED BY: N/A

347   N/A  AA/V  C  00:09:40:14 00:09:40:19 00:09:39:15 00:09:39:20
* FROM CLIP NAME: /home/davidk/code/python/JC-render/JC-examples/yoga.mp4
FINAL CUT PRO REEL: N/A REPLACED BY: N/A

348   N/A  AA/V  C  00:09:40:19 00:09:42:13 00:09:39:20 00:09:41:14
* FROM CLIP NAME: /home/davidk/code/python/JC-render/JC-examples/yoga.mp4
FINAL CUT PRO REEL: N/A REPLACED BY: N/A

349   N/A  AA/V  C  00:09:42:13 00:09:42:18 00:09:41:14 00:09:41:19
* FROM CLIP NAME: /home/davidk/code/python/JC-render/JC-examples/yoga.mp4
FINAL CUT PRO REEL: N/A REPLACED BY: N/A

350   N/A  AA/V  C  00:09:42:18 00:09:46:18 00:09:41:19 00:09:45:19
* FROM CLIP NAME: /home/davidk/code/python/JC-render/JC-examples/yoga.mp4
FINAL CUT PRO REEL: N/A REPLACED BY: N/A

351   N/A  AA/V  C  00:09:46:18 00:09:46:20 00:09:45:19 00:09:45:21
* FROM CLIP NAME: /home/davidk/code/python/JC-render/JC-examples/yoga.mp4
FINAL CUT PRO REEL: N/A REPLACED BY: N/A

352   N/A  AA/V  C  00:09:46:20 00:09:47:19 00:09:45:21 00:09:46:21
* FROM CLIP NAME: /home/davidk/code/python/JC-render/JC-examples/yoga.mp4
FINAL CUT PRO REEL: N/A REPLACED BY: N/A

353   N/A  AA/V  C  00:09:47:19 00:09:47:28 00:09:46:21 00:09:47:00
* FROM CLIP NAME: /home/davidk/code/python/JC-render/JC-examples/yoga.mp4
FINAL CUT PRO REEL: N/A REPLACED BY: N/A

354   N/A  AA/V  C  00:09:47:28 00:09:50:03 00:09:47:00 00:09:49:04
* FROM CLIP NAME: /home/davidk/code/python/JC-render/JC-examples/yoga.mp4
FINAL CUT PRO REEL: N/A REPLACED BY: N/A

355   N/A  AA/V  C  00:09:50:03 00:09:51:09 00:09:49:04 00:09:50:11
* FROM CLIP NAME: /home/davidk/code/python/JC-render/JC-examples/yoga.mp4
FINAL CUT PRO REEL: N/A REPLACED BY: N/A

356   N/A  AA/V  C  00:09:51:09 00:09:53:21 00:09:50:11 00:09:52:22
* FROM CLIP NAME: /home/davidk/code/python/JC-render/JC-examples/yoga.mp4
FINAL CUT PRO REEL: N/A REPLACED BY: N/A

357   N/A  AA/V  C  00:09:53:21 00:09:53:29 00:09:52:22 00:09:53:01
* FROM CLIP NAME: /home/davidk/code/python/JC-render/JC-examples/yoga.mp4
FINAL CUT PRO REEL: N/A REPLACED BY: N/A

358   N/A  AA/V  C  00:09:53:29 00:09:57:05 00:09:53:01 00:09:56:06
* FROM CLIP NAME: /home/davidk/code/python/JC-render/JC-examples/yoga.mp4
FINAL CUT PRO REEL: N/A REPLACED BY: N/A

359   N/A  AA/V  C  00:09:57:05 00:09:57:24 00:09:56:06 00:09:56:26
* FROM CLIP NAME: /home/davidk/code/python/JC-render/JC-examples/yoga.mp4
FINAL CUT PRO REEL: N/A REPLACED BY: N/A

360   N/A  AA/V  C  00:09:57:24 00:09:59:25 00:09:56:26 00:09:58:26
* FROM CLIP NAME: /home/davidk/code/python/JC-render/JC-examples/yoga.mp4
FINAL CUT PRO REEL: N/A REPLACED BY: N/A

361   N/A  AA/V  C  00:09:59:25 00:10:02:00 00:09:58:26 00:10:01:01
* FROM CLIP NAME: /home/davidk/code/python/JC-render/JC-examples/yoga.mp4
FINAL CUT PRO REEL: N/A REPLACED BY: N/A

362   N/A  AA/V  C  00:10:02:00 00:10:02:15 00:10:01:01 00:10:01:16
* FROM CLIP NAME: /home/davidk/code/python/JC-render/JC-examples/yoga.mp4
FINAL CUT PRO REEL: N/A REPLACED BY: N/A

363   N/A  AA/V  C  00:10:02:15 00:10:04:20 00:10:01:16 00:10:03:21
* FROM CLIP NAME: /home/davidk/code/python/JC-render/JC-examples/yoga.mp4
FINAL CUT PRO REEL: N/A REPLACED BY: N/A

364   N/A  AA/V  C  00:10:04:20 00:10:05:16 00:10:03:21 00:10:04:17
* FROM CLIP NAME: /home/davidk/code/python/JC-render/JC-examples/yoga.mp4
FINAL CUT PRO REEL: N/A REPLACED BY: N/A

365   N/A  AA/V  C  00:10:05:16 00:10:05:25 00:10:04:17 00:10:04:26
* FROM CLIP NAME: /home/davidk/code/python/JC-render/JC-examples/yoga.mp4
FINAL CUT PRO REEL: N/A REPLACED BY: N/A

366   N/A  AA/V  C  00:10:05:25 00:10:08:27 00:10:04:26 00:10:07:28
* FROM CLIP NAME: /home/davidk/code/python/JC-render/JC-examples/yoga.mp4
FINAL CUT PRO REEL: N/A REPLACED BY: N/A

367   N/A  AA/V  C  00:10:08:27 00:10:10:00 00:10:07:28 00:10:09:01
* FROM CLIP NAME: /home/davidk/code/python/JC-render/JC-examples/yoga.mp4
FINAL CUT PRO REEL: N/A REPLACED BY: N/A

368   N/A  AA/V  C  00:10:10:00 00:10:10:16 00:10:09:01 00:10:09:17
* FROM CLIP NAME: /home/davidk/code/python/JC-render/JC-examples/yoga.mp4
FINAL CUT PRO REEL: N/A REPLACED BY: N/A

369   N/A  AA/V  C  00:10:10:16 00:10:10:24 00:10:09:17 00:10:09:26
* FROM CLIP NAME: /home/davidk/code/python/JC-render/JC-examples/yoga.mp4
FINAL CUT PRO REEL: N/A REPLACED BY: N/A

370   N/A  AA/V  C  00:10:10:24 00:10:17:04 00:10:09:26 00:10:16:05
* FROM CLIP NAME: /home/davidk/code/python/JC-render/JC-examples/yoga.mp4
FINAL CUT PRO REEL: N/A REPLACED BY: N/A

371   N/A  AA/V  C  00:10:17:04 00:10:19:23 00:10:16:05 00:10:18:24
* FROM CLIP NAME: /home/davidk/code/python/JC-render/JC-examples/yoga.mp4
FINAL CUT PRO REEL: N/A REPLACED BY: N/A

372   N/A  AA/V  C  00:10:19:23 00:10:23:16 00:10:18:24 00:10:22:17
* FROM CLIP NAME: /home/davidk/code/python/JC-render/JC-examples/yoga.mp4
FINAL CUT PRO REEL: N/A REPLACED BY: N/A

373   N/A  AA/V  C  00:10:23:16 00:10:23:18 00:10:22:17 00:10:22:19
* FROM CLIP NAME: /home/davidk/code/python/JC-render/JC-examples/yoga.mp4
FINAL CUT PRO REEL: N/A REPLACED BY: N/A

374   N/A  AA/V  C  00:10:23:18 00:10:25:01 00:10:22:19 00:10:24:02
* FROM CLIP NAME: /home/davidk/code/python/JC-render/JC-examples/yoga.mp4
FINAL CUT PRO REEL: N/A REPLACED BY: N/A

375   N/A  AA/V  C  00:10:25:01 00:10:25:06 00:10:24:02 00:10:24:08
* FROM CLIP NAME: /home/davidk/code/python/JC-render/JC-examples/yoga.mp4
FINAL CUT PRO REEL: N/A REPLACED BY: N/A

376   N/A  AA/V  C  00:10:25:06 00:10:25:22 00:10:24:08 00:10:24:23
* FROM CLIP NAME: /home/davidk/code/python/JC-render/JC-examples/yoga.mp4
FINAL CUT PRO REEL: N/A REPLACED BY: N/A

377   N/A  AA/V  C  00:10:25:22 00:10:27:13 00:10:24:23 00:10:26:14
* FROM CLIP NAME: /home/davidk/code/python/JC-render/JC-examples/yoga.mp4
FINAL CUT PRO REEL: N/A REPLACED BY: N/A

378   N/A  AA/V  C  00:10:27:13 00:10:29:10 00:10:26:14 00:10:28:11
* FROM CLIP NAME: /home/davidk/code/python/JC-render/JC-examples/yoga.mp4
FINAL CUT PRO REEL: N/A REPLACED BY: N/A

379   N/A  AA/V  C  00:10:29:10 00:10:30:17 00:10:28:11 00:10:29:18
* FROM CLIP NAME: /home/davidk/code/python/JC-render/JC-examples/yoga.mp4
FINAL CUT PRO REEL: N/A REPLACED BY: N/A

380   N/A  AA/V  C  00:10:30:17 00:10:32:28 00:10:29:18 00:10:31:29
* FROM CLIP NAME: /home/davidk/code/python/JC-render/JC-examples/yoga.mp4
FINAL CUT PRO REEL: N/A REPLACED BY: N/A

381   N/A  AA/V  C  00:10:32:28 00:10:33:10 00:10:31:29 00:10:32:11
* FROM CLIP NAME: /home/davidk/code/python/JC-render/JC-examples/yoga.mp4
FINAL CUT PRO REEL: N/A REPLACED BY: N/A

382   N/A  AA/V  C  00:10:33:10 00:10:33:26 00:10:32:11 00:10:32:27
* FROM CLIP NAME: /home/davidk/code/python/JC-render/JC-examples/yoga.mp4
FINAL CUT PRO REEL: N/A REPLACED BY: N/A

383   N/A  AA/V  C  00:10:33:26 00:10:35:09 00:10:32:27 00:10:34:11
* FROM CLIP NAME: /home/davidk/code/python/JC-render/JC-examples/yoga.mp4
FINAL CUT PRO REEL: N/A REPLACED BY: N/A

384   N/A  AA/V  C  00:10:35:09 00:10:35:25 00:10:34:11 00:10:34:26
* FROM CLIP NAME: /home/davidk/code/python/JC-render/JC-examples/yoga.mp4
FINAL CUT PRO REEL: N/A REPLACED BY: N/A

385   N/A  AA/V  C  00:10:35:25 00:10:36:00 00:10:34:26 00:10:35:01
* FROM CLIP NAME: /home/davidk/code/python/JC-render/JC-examples/yoga.mp4
FINAL CUT PRO REEL: N/A REPLACED BY: N/A

386   N/A  AA/V  C  00:10:36:00 00:10:36:16 00:10:35:01 00:10:35:17
* FROM CLIP NAME: /home/davidk/code/python/JC-render/JC-examples/yoga.mp4
FINAL CUT PRO REEL: N/A REPLACED BY: N/A

387   N/A  AA/V  C  00:10:36:16 00:10:37:26 00:10:35:17 00:10:36:27
* FROM CLIP NAME: /home/davidk/code/python/JC-render/JC-examples/yoga.mp4
FINAL CUT PRO REEL: N/A REPLACED BY: N/A

388   N/A  AA/V  C  00:10:37:26 00:10:38:25 00:10:36:27 00:10:37:27
* FROM CLIP NAME: /home/davidk/code/python/JC-render/JC-examples/yoga.mp4
FINAL CUT PRO REEL: N/A REPLACED BY: N/A

389   N/A  AA/V  C  00:10:38:25 00:10:38:27 00:10:37:27 00:10:37:29
* FROM CLIP NAME: /home/davidk/code/python/JC-render/JC-examples/yoga.mp4
FINAL CUT PRO REEL: N/A REPLACED BY: N/A

390   N/A  AA/V  C  00:10:38:27 00:10:41:05 00:10:37:29 00:10:40:06
* FROM CLIP NAME: /home/davidk/code/python/JC-render/JC-examples/yoga.mp4
FINAL CUT PRO REEL: N/A REPLACED BY: N/A

391   N/A  AA/V  C  00:10:41:05 00:10:41:11 00:10:40:06 00:10:40:12
* FROM CLIP NAME: /home/davidk/code/python/JC-render/JC-examples/yoga.mp4
FINAL CUT PRO REEL: N/A REPLACED BY: N/A

392   N/A  AA/V  C  00:10:41:11 00:10:41:26 00:10:40:12 00:10:40:27
* FROM CLIP NAME: /home/davidk/code/python/JC-render/JC-examples/yoga.mp4
FINAL CUT PRO REEL: N/A REPLACED BY: N/A

393   N/A  AA/V  C  00:10:41:26 00:10:43:13 00:10:40:27 00:10:42:14
* FROM CLIP NAME: /home/davidk/code/python/JC-render/JC-examples/yoga.mp4
FINAL CUT PRO REEL: N/A REPLACED BY: N/A

394   N/A  AA/V  C  00:10:43:13 00:10:45:17 00:10:42:14 00:10:44:19
* FROM CLIP NAME: /home/davidk/code/python/JC-render/JC-examples/yoga.mp4
FINAL CUT PRO REEL: N/A REPLACED BY: N/A

395   N/A  AA/V  C  00:10:45:17 00:10:46:03 00:10:44:19 00:10:45:05
* FROM CLIP NAME: /home/davidk/code/python/JC-render/JC-examples/yoga.mp4
FINAL CUT PRO REEL: N/A REPLACED BY: N/A

396   N/A  AA/V  C  00:10:46:03 00:10:46:19 00:10:45:05 00:10:45:20
* FROM CLIP NAME: /home/davidk/code/python/JC-render/JC-examples/yoga.mp4
FINAL CUT PRO REEL: N/A REPLACED BY: N/A

397   N/A  AA/V  C  00:10:46:19 00:10:46:24 00:10:45:20 00:10:45:25
* FROM CLIP NAME: /home/davidk/code/python/JC-render/JC-examples/yoga.mp4
FINAL CUT PRO REEL: N/A REPLACED BY: N/A

398   N/A  AA/V  C  00:10:46:24 00:10:47:10 00:10:45:25 00:10:46:11
* FROM CLIP NAME: /home/davidk/code/python/JC-render/JC-examples/yoga.mp4
FINAL CUT PRO REEL: N/A REPLACED BY: N/A

399   N/A  AA/V  C  00:10:47:10 00:10:47:12 00:10:46:11 00:10:46:13
* FROM CLIP NAME: /home/davidk/code/python/JC-render/JC-examples/yoga.mp4
FINAL CUT PRO REEL: N/A REPLACED BY: N/A

400   N/A  AA/V  C  00:10:47:12 00:10:49:19 00:10:46:13 00:10:48:21
* FROM CLIP NAME: /home/davidk/code/python/JC-render/JC-examples/yoga.mp4
FINAL CUT PRO REEL: N/A REPLACED BY: N/A

401   N/A  AA/V  C  00:10:49:19 00:10:51:24 00:10:48:21 00:10:50:25
* FROM CLIP NAME: /home/davidk/code/python/JC-render/JC-examples/yoga.mp4
FINAL CUT PRO REEL: N/A REPLACED BY: N/A

402   N/A  AA/V  C  00:10:51:24 00:10:53:14 00:10:50:25 00:10:52:15
* FROM CLIP NAME: /home/davidk/code/python/JC-render/JC-examples/yoga.mp4
FINAL CUT PRO REEL: N/A REPLACED BY: N/A

403   N/A  AA/V  C  00:10:53:14 00:10:53:16 00:10:52:15 00:10:52:17
* FROM CLIP NAME: /home/davidk/code/python/JC-render/JC-examples/yoga.mp4
FINAL CUT PRO REEL: N/A REPLACED BY: N/A

404   N/A  AA/V  C  00:10:53:16 00:10:55:00 00:10:52:17 00:10:54:01
* FROM CLIP NAME: /home/davidk/code/python/JC-render/JC-examples/yoga.mp4
FINAL CUT PRO REEL: N/A REPLACED BY: N/A

405   N/A  AA/V  C  00:10:55:00 00:10:56:17 00:10:54:01 00:10:55:18
* FROM CLIP NAME: /home/davidk/code/python/JC-render/JC-examples/yoga.mp4
FINAL CUT PRO REEL: N/A REPLACED BY: N/A

406   N/A  AA/V  C  00:10:56:17 00:10:59:26 00:10:55:18 00:10:58:27
* FROM CLIP NAME: /home/davidk/code/python/JC-render/JC-examples/yoga.mp4
FINAL CUT PRO REEL: N/A REPLACED BY: N/A

407   N/A  AA/V  C  00:10:59:26 00:11:01:20 00:10:58:27 00:11:00:21
* FROM CLIP NAME: /home/davidk/code/python/JC-render/JC-examples/yoga.mp4
FINAL CUT PRO REEL: N/A REPLACED BY: N/A

408   N/A  AA/V  C  00:11:01:20 00:11:03:03 00:11:00:21 00:11:02:05
* FROM CLIP NAME: /home/davidk/code/python/JC-render/JC-examples/yoga.mp4
FINAL CUT PRO REEL: N/A REPLACED BY: N/A

409   N/A  AA/V  C  00:11:03:03 00:11:03:12 00:11:02:05 00:11:02:13
* FROM CLIP NAME: /home/davidk/code/python/JC-render/JC-examples/yoga.mp4
FINAL CUT PRO REEL: N/A REPLACED BY: N/A

410   N/A  AA/V  C  00:11:03:12 00:11:08:14 00:11:02:13 00:11:07:15
* FROM CLIP NAME: /home/davidk/code/python/JC-render/JC-examples/yoga.mp4
FINAL CUT PRO REEL: N/A REPLACED BY: N/A

411   N/A  AA/V  C  00:11:08:14 00:11:08:16 00:11:07:15 00:11:07:17
* FROM CLIP NAME: /home/davidk/code/python/JC-render/JC-examples/yoga.mp4
FINAL CUT PRO REEL: N/A REPLACED BY: N/A

412   N/A  AA/V  C  00:11:08:16 00:11:09:22 00:11:07:17 00:11:08:23
* FROM CLIP NAME: /home/davidk/code/python/JC-render/JC-examples/yoga.mp4
FINAL CUT PRO REEL: N/A REPLACED BY: N/A

413   N/A  AA/V  C  00:11:09:22 00:11:10:15 00:11:08:23 00:11:09:16
* FROM CLIP NAME: /home/davidk/code/python/JC-render/JC-examples/yoga.mp4
FINAL CUT PRO REEL: N/A REPLACED BY: N/A

414   N/A  AA/V  C  00:11:10:15 00:11:14:01 00:11:09:16 00:11:13:02
* FROM CLIP NAME: /home/davidk/code/python/JC-render/JC-examples/yoga.mp4
FINAL CUT PRO REEL: N/A REPLACED BY: N/A

415   N/A  AA/V  C  00:11:14:01 00:11:14:27 00:11:13:02 00:11:13:28
* FROM CLIP NAME: /home/davidk/code/python/JC-render/JC-examples/yoga.mp4
FINAL CUT PRO REEL: N/A REPLACED BY: N/A

416   N/A  AA/V  C  00:11:14:27 00:11:15:23 00:11:13:28 00:11:14:24
* FROM CLIP NAME: /home/davidk/code/python/JC-render/JC-examples/yoga.mp4
FINAL CUT PRO REEL: N/A REPLACED BY: N/A

417   N/A  AA/V  C  00:11:15:23 00:11:17:07 00:11:14:24 00:11:16:08
* FROM CLIP NAME: /home/davidk/code/python/JC-render/JC-examples/yoga.mp4
FINAL CUT PRO REEL: N/A REPLACED BY: N/A

418   N/A  AA/V  C  00:11:17:07 00:11:17:26 00:11:16:08 00:11:16:27
* FROM CLIP NAME: /home/davidk/code/python/JC-render/JC-examples/yoga.mp4
FINAL CUT PRO REEL: N/A REPLACED BY: N/A

419   N/A  AA/V  C  00:11:17:26 00:11:18:22 00:11:16:27 00:11:17:23
* FROM CLIP NAME: /home/davidk/code/python/JC-render/JC-examples/yoga.mp4
FINAL CUT PRO REEL: N/A REPLACED BY: N/A

420   N/A  AA/V  C  00:11:18:22 00:11:19:08 00:11:17:23 00:11:18:09
* FROM CLIP NAME: /home/davidk/code/python/JC-render/JC-examples/yoga.mp4
FINAL CUT PRO REEL: N/A REPLACED BY: N/A

421   N/A  AA/V  C  00:11:19:08 00:11:19:16 00:11:18:09 00:11:18:18
* FROM CLIP NAME: /home/davidk/code/python/JC-render/JC-examples/yoga.mp4
FINAL CUT PRO REEL: N/A REPLACED BY: N/A

422   N/A  AA/V  C  00:11:19:16 00:11:20:05 00:11:18:18 00:11:19:07
* FROM CLIP NAME: /home/davidk/code/python/JC-render/JC-examples/yoga.mp4
FINAL CUT PRO REEL: N/A REPLACED BY: N/A

423   N/A  AA/V  C  00:11:20:05 00:11:20:21 00:11:19:07 00:11:19:22
* FROM CLIP NAME: /home/davidk/code/python/JC-render/JC-examples/yoga.mp4
FINAL CUT PRO REEL: N/A REPLACED BY: N/A

424   N/A  AA/V  C  00:11:20:21 00:11:23:13 00:11:19:22 00:11:22:14
* FROM CLIP NAME: /home/davidk/code/python/JC-render/JC-examples/yoga.mp4
FINAL CUT PRO REEL: N/A REPLACED BY: N/A

425   N/A  AA/V  C  00:11:23:13 00:11:23:15 00:11:22:14 00:11:22:16
* FROM CLIP NAME: /home/davidk/code/python/JC-render/JC-examples/yoga.mp4
FINAL CUT PRO REEL: N/A REPLACED BY: N/A

426   N/A  AA/V  C  00:11:23:15 00:11:24:18 00:11:22:16 00:11:23:19
* FROM CLIP NAME: /home/davidk/code/python/JC-render/JC-examples/yoga.mp4
FINAL CUT PRO REEL: N/A REPLACED BY: N/A

427   N/A  AA/V  C  00:11:24:18 00:11:26:22 00:11:23:19 00:11:25:24
* FROM CLIP NAME: /home/davidk/code/python/JC-render/JC-examples/yoga.mp4
FINAL CUT PRO REEL: N/A REPLACED BY: N/A

428   N/A  AA/V  C  00:11:26:22 00:11:30:15 00:11:25:24 00:11:29:17
* FROM CLIP NAME: /home/davidk/code/python/JC-render/JC-examples/yoga.mp4
FINAL CUT PRO REEL: N/A REPLACED BY: N/A

429   N/A  AA/V  C  00:11:30:15 00:11:31:26 00:11:29:17 00:11:30:27
* FROM CLIP NAME: /home/davidk/code/python/JC-render/JC-examples/yoga.mp4
FINAL CUT PRO REEL: N/A REPLACED BY: N/A

430   N/A  AA/V  C  00:11:31:26 00:11:34:00 00:11:30:27 00:11:33:01
* FROM CLIP NAME: /home/davidk/code/python/JC-render/JC-examples/yoga.mp4
FINAL CUT PRO REEL: N/A REPLACED BY: N/A

431   N/A  AA/V  C  00:11:34:00 00:11:34:09 00:11:33:01 00:11:33:10
* FROM CLIP NAME: /home/davidk/code/python/JC-render/JC-examples/yoga.mp4
FINAL CUT PRO REEL: N/A REPLACED BY: N/A

432   N/A  AA/V  C  00:11:34:09 00:11:36:10 00:11:33:10 00:11:35:11
* FROM CLIP NAME: /home/davidk/code/python/JC-render/JC-examples/yoga.mp4
FINAL CUT PRO REEL: N/A REPLACED BY: N/A

433   N/A  AA/V  C  00:11:36:10 00:11:36:22 00:11:35:11 00:11:35:23
* FROM CLIP NAME: /home/davidk/code/python/JC-render/JC-examples/yoga.mp4
FINAL CUT PRO REEL: N/A REPLACED BY: N/A

434   N/A  AA/V  C  00:11:36:22 00:11:40:18 00:11:35:23 00:11:39:20
* FROM CLIP NAME: /home/davidk/code/python/JC-render/JC-examples/yoga.mp4
FINAL CUT PRO REEL: N/A REPLACED BY: N/A

435   N/A  AA/V  C  00:11:40:18 00:11:40:24 00:11:39:20 00:11:39:25
* FROM CLIP NAME: /home/davidk/code/python/JC-render/JC-examples/yoga.mp4
FINAL CUT PRO REEL: N/A REPLACED BY: N/A

436   N/A  AA/V  C  00:11:40:24 00:11:41:27 00:11:39:25 00:11:40:28
* FROM CLIP NAME: /home/davidk/code/python/JC-render/JC-examples/yoga.mp4
FINAL CUT PRO REEL: N/A REPLACED BY: N/A

437   N/A  AA/V  C  00:11:41:27 00:11:42:23 00:11:40:28 00:11:41:24
* FROM CLIP NAME: /home/davidk/code/python/JC-render/JC-examples/yoga.mp4
FINAL CUT PRO REEL: N/A REPLACED BY: N/A

438   N/A  AA/V  C  00:11:42:23 00:11:43:15 00:11:41:24 00:11:42:17
* FROM CLIP NAME: /home/davidk/code/python/JC-render/JC-examples/yoga.mp4
FINAL CUT PRO REEL: N/A REPLACED BY: N/A

439   N/A  AA/V  C  00:11:43:15 00:11:43:17 00:11:42:17 00:11:42:19
* FROM CLIP NAME: /home/davidk/code/python/JC-render/JC-examples/yoga.mp4
FINAL CUT PRO REEL: N/A REPLACED BY: N/A

440   N/A  AA/V  C  00:11:43:17 00:11:47:24 00:11:42:19 00:11:46:26
* FROM CLIP NAME: /home/davidk/code/python/JC-render/JC-examples/yoga.mp4
FINAL CUT PRO REEL: N/A REPLACED BY: N/A

441   N/A  AA/V  C  00:11:47:24 00:11:50:20 00:11:46:26 00:11:49:21
* FROM CLIP NAME: /home/davidk/code/python/JC-render/JC-examples/yoga.mp4
FINAL CUT PRO REEL: N/A REPLACED BY: N/A

442   N/A  AA/V  C  00:11:50:20 00:11:51:05 00:11:49:21 00:11:50:07
* FROM CLIP NAME: /home/davidk/code/python/JC-render/JC-examples/yoga.mp4
FINAL CUT PRO REEL: N/A REPLACED BY: N/A

443   N/A  AA/V  C  00:11:51:05 00:11:51:14 00:11:50:07 00:11:50:15
* FROM CLIP NAME: /home/davidk/code/python/JC-render/JC-examples/yoga.mp4
FINAL CUT PRO REEL: N/A REPLACED BY: N/A

444   N/A  AA/V  C  00:11:51:14 00:11:53:08 00:11:50:15 00:11:52:09
* FROM CLIP NAME: /home/davidk/code/python/JC-render/JC-examples/yoga.mp4
FINAL CUT PRO REEL: N/A REPLACED BY: N/A

445   N/A  AA/V  C  00:11:53:08 00:11:53:27 00:11:52:09 00:11:52:29
* FROM CLIP NAME: /home/davidk/code/python/JC-render/JC-examples/yoga.mp4
FINAL CUT PRO REEL: N/A REPLACED BY: N/A

446   N/A  AA/V  C  00:11:53:27 00:11:58:11 00:11:52:29 00:11:57:12
* FROM CLIP NAME: /home/davidk/code/python/JC-render/JC-examples/yoga.mp4
FINAL CUT PRO REEL: N/A REPLACED BY: N/A

447   N/A  AA/V  C  00:11:58:11 00:11:58:13 00:11:57:12 00:11:57:14
* FROM CLIP NAME: /home/davidk/code/python/JC-render/JC-examples/yoga.mp4
FINAL CUT PRO REEL: N/A REPLACED BY: N/A

448   N/A  AA/V  C  00:11:58:13 00:12:01:05 00:11:57:14 00:12:00:06
* FROM CLIP NAME: /home/davidk/code/python/JC-render/JC-examples/yoga.mp4
FINAL CUT PRO REEL: N/A REPLACED BY: N/A

449   N/A  AA/V  C  00:12:01:05 00:12:02:08 00:12:00:06 00:12:01:09
* FROM CLIP NAME: /home/davidk/code/python/JC-render/JC-examples/yoga.mp4
FINAL CUT PRO REEL: N/A REPLACED BY: N/A

450   N/A  AA/V  C  00:12:02:08 00:12:03:18 00:12:01:09 00:12:02:19
* FROM CLIP NAME: /home/davidk/code/python/JC-render/JC-examples/yoga.mp4
FINAL CUT PRO REEL: N/A REPLACED BY: N/A

451   N/A  AA/V  C  00:12:03:18 00:12:03:23 00:12:02:19 00:12:02:25
* FROM CLIP NAME: /home/davidk/code/python/JC-render/JC-examples/yoga.mp4
FINAL CUT PRO REEL: N/A REPLACED BY: N/A

452   N/A  AA/V  C  00:12:03:23 00:12:04:16 00:12:02:25 00:12:03:17
* FROM CLIP NAME: /home/davidk/code/python/JC-render/JC-examples/yoga.mp4
FINAL CUT PRO REEL: N/A REPLACED BY: N/A

453   N/A  AA/V  C  00:12:04:16 00:12:04:25 00:12:03:17 00:12:03:26
* FROM CLIP NAME: /home/davidk/code/python/JC-render/JC-examples/yoga.mp4
FINAL CUT PRO REEL: N/A REPLACED BY: N/A

454   N/A  AA/V  C  00:12:04:25 00:12:05:24 00:12:03:26 00:12:04:25
* FROM CLIP NAME: /home/davidk/code/python/JC-render/JC-examples/yoga.mp4
FINAL CUT PRO REEL: N/A REPLACED BY: N/A

455   N/A  AA/V  C  00:12:05:24 00:12:06:17 00:12:04:25 00:12:05:18
* FROM CLIP NAME: /home/davidk/code/python/JC-render/JC-examples/yoga.mp4
FINAL CUT PRO REEL: N/A REPLACED BY: N/A

456   N/A  AA/V  C  00:12:06:17 00:12:07:03 00:12:05:18 00:12:06:04
* FROM CLIP NAME: /home/davidk/code/python/JC-render/JC-examples/yoga.mp4
FINAL CUT PRO REEL: N/A REPLACED BY: N/A

457   N/A  AA/V  C  00:12:07:03 00:12:11:20 00:12:06:04 00:12:10:21
* FROM CLIP NAME: /home/davidk/code/python/JC-render/JC-examples/yoga.mp4
FINAL CUT PRO REEL: N/A REPLACED BY: N/A

458   N/A  AA/V  C  00:12:11:20 00:12:12:06 00:12:10:21 00:12:11:07
* FROM CLIP NAME: /home/davidk/code/python/JC-render/JC-examples/yoga.mp4
FINAL CUT PRO REEL: N/A REPLACED BY: N/A

459   N/A  AA/V  C  00:12:12:06 00:12:14:14 00:12:11:07 00:12:13:15
* FROM CLIP NAME: /home/davidk/code/python/JC-render/JC-examples/yoga.mp4
FINAL CUT PRO REEL: N/A REPLACED BY: N/A

460   N/A  AA/V  C  00:12:14:14 00:12:15:13 00:12:13:15 00:12:14:14
* FROM CLIP NAME: /home/davidk/code/python/JC-render/JC-examples/yoga.mp4
FINAL CUT PRO REEL: N/A REPLACED BY: N/A

461   N/A  AA/V  C  00:12:15:13 00:12:18:02 00:12:14:14 00:12:17:03
* FROM CLIP NAME: /home/davidk/code/python/JC-render/JC-examples/yoga.mp4
FINAL CUT PRO REEL: N/A REPLACED BY: N/A

462   N/A  AA/V  C  00:12:18:02 00:12:18:17 00:12:17:03 00:12:17:19
* FROM CLIP NAME: /home/davidk/code/python/JC-render/JC-examples/yoga.mp4
FINAL CUT PRO REEL: N/A REPLACED BY: N/A

463   N/A  AA/V  C  00:12:18:17 00:12:22:14 00:12:17:19 00:12:21:15
* FROM CLIP NAME: /home/davidk/code/python/JC-render/JC-examples/yoga.mp4
FINAL CUT PRO REEL: N/A REPLACED BY: N/A

464   N/A  AA/V  C  00:12:22:14 00:12:23:00 00:12:21:15 00:12:22:01
* FROM CLIP NAME: /home/davidk/code/python/JC-render/JC-examples/yoga.mp4
FINAL CUT PRO REEL: N/A REPLACED BY: N/A

465   N/A  AA/V  C  00:12:23:00 00:12:23:09 00:12:22:01 00:12:22:10
* FROM CLIP NAME: /home/davidk/code/python/JC-render/JC-examples/yoga.mp4
FINAL CUT PRO REEL: N/A REPLACED BY: N/A

466   N/A  AA/V  C  00:12:23:09 00:12:23:24 00:12:22:10 00:12:22:25
* FROM CLIP NAME: /home/davidk/code/python/JC-render/JC-examples/yoga.mp4
FINAL CUT PRO REEL: N/A REPLACED BY: N/A

467   N/A  AA/V  C  00:12:23:24 00:12:25:15 00:12:22:25 00:12:24:16
* FROM CLIP NAME: /home/davidk/code/python/JC-render/JC-examples/yoga.mp4
FINAL CUT PRO REEL: N/A REPLACED BY: N/A

468   N/A  AA/V  C  00:12:25:15 00:12:28:17 00:12:24:16 00:12:27:18
* FROM CLIP NAME: /home/davidk/code/python/JC-render/JC-examples/yoga.mp4
FINAL CUT PRO REEL: N/A REPLACED BY: N/A

469   N/A  AA/V  C  00:12:28:17 00:12:29:10 00:12:27:18 00:12:28:11
* FROM CLIP NAME: /home/davidk/code/python/JC-render/JC-examples/yoga.mp4
FINAL CUT PRO REEL: N/A REPLACED BY: N/A

470   N/A  AA/V  C  00:12:29:10 00:12:30:13 00:12:28:11 00:12:29:14
* FROM CLIP NAME: /home/davidk/code/python/JC-render/JC-examples/yoga.mp4
FINAL CUT PRO REEL: N/A REPLACED BY: N/A

471   N/A  AA/V  C  00:12:30:13 00:12:30:28 00:12:29:14 00:12:30:00
* FROM CLIP NAME: /home/davidk/code/python/JC-render/JC-examples/yoga.mp4
FINAL CUT PRO REEL: N/A REPLACED BY: N/A

472   N/A  AA/V  C  00:12:30:28 00:12:32:19 00:12:30:00 00:12:31:20
* FROM CLIP NAME: /home/davidk/code/python/JC-render/JC-examples/yoga.mp4
FINAL CUT PRO REEL: N/A REPLACED BY: N/A

473   N/A  AA/V  C  00:12:32:19 00:12:33:22 00:12:31:20 00:12:32:23
* FROM CLIP NAME: /home/davidk/code/python/JC-render/JC-examples/yoga.mp4
FINAL CUT PRO REEL: N/A REPLACED BY: N/A

474   N/A  AA/V  C  00:12:33:22 00:12:35:19 00:12:32:23 00:12:34:21
* FROM CLIP NAME: /home/davidk/code/python/JC-render/JC-examples/yoga.mp4
FINAL CUT PRO REEL: N/A REPLACED BY: N/A

475   N/A  AA/V  C  00:12:35:19 00:12:38:22 00:12:34:21 00:12:37:23
* FROM CLIP NAME: /home/davidk/code/python/JC-render/JC-examples/yoga.mp4
FINAL CUT PRO REEL: N/A REPLACED BY: N/A

476   N/A  AA/V  C  00:12:38:22 00:12:42:29 00:12:37:23 00:12:42:00
* FROM CLIP NAME: /home/davidk/code/python/JC-render/JC-examples/yoga.mp4
FINAL CUT PRO REEL: N/A REPLACED BY: N/A

477   N/A  AA/V  C  00:12:42:29 00:12:43:01 00:12:42:00 00:12:42:02
* FROM CLIP NAME: /home/davidk/code/python/JC-render/JC-examples/yoga.mp4
FINAL CUT PRO REEL: N/A REPLACED BY: N/A

478   N/A  AA/V  C  00:12:43:01 00:12:44:24 00:12:42:02 00:12:43:26
* FROM CLIP NAME: /home/davidk/code/python/JC-render/JC-examples/yoga.mp4
FINAL CUT PRO REEL: N/A REPLACED BY: N/A

479   N/A  AA/V  C  00:12:44:24 00:12:45:14 00:12:43:26 00:12:44:15
* FROM CLIP NAME: /home/davidk/code/python/JC-render/JC-examples/yoga.mp4
FINAL CUT PRO REEL: N/A REPLACED BY: N/A

480   N/A  AA/V  C  00:12:45:14 00:12:46:27 00:12:44:15 00:12:45:28
* FROM CLIP NAME: /home/davidk/code/python/JC-render/JC-examples/yoga.mp4
FINAL CUT PRO REEL: N/A REPLACED BY: N/A

481   N/A  AA/V  C  00:12:46:27 00:12:47:13 00:12:45:28 00:12:46:14
* FROM CLIP NAME: /home/davidk/code/python/JC-render/JC-examples/yoga.mp4
FINAL CUT PRO REEL: N/A REPLACED BY: N/A

482   N/A  AA/V  C  00:12:47:13 00:12:49:17 00:12:46:14 00:12:48:18
* FROM CLIP NAME: /home/davidk/code/python/JC-render/JC-examples/yoga.mp4
FINAL CUT PRO REEL: N/A REPLACED BY: N/A

483   N/A  AA/V  C  00:12:49:17 00:12:49:23 00:12:48:18 00:12:48:24
* FROM CLIP NAME: /home/davidk/code/python/JC-render/JC-examples/yoga.mp4
FINAL CUT PRO REEL: N/A REPLACED BY: N/A

484   N/A  AA/V  C  00:12:49:23 00:12:52:00 00:12:48:24 00:12:51:02
* FROM CLIP NAME: /home/davidk/code/python/JC-render/JC-examples/yoga.mp4
FINAL CUT PRO REEL: N/A REPLACED BY: N/A

485   N/A  AA/V  C  00:12:52:00 00:12:52:09 00:12:51:02 00:12:51:11
* FROM CLIP NAME: /home/davidk/code/python/JC-render/JC-examples/yoga.mp4
FINAL CUT PRO REEL: N/A REPLACED BY: N/A

486   N/A  AA/V  C  00:12:52:09 00:12:54:03 00:12:51:11 00:12:53:04
* FROM CLIP NAME: /home/davidk/code/python/JC-render/JC-examples/yoga.mp4
FINAL CUT PRO REEL: N/A REPLACED BY: N/A

487   N/A  AA/V  C  00:12:54:03 00:12:54:09 00:12:53:04 00:12:53:10
* FROM CLIP NAME: /home/davidk/code/python/JC-render/JC-examples/yoga.mp4
FINAL CUT PRO REEL: N/A REPLACED BY: N/A

488   N/A  AA/V  C  00:12:54:09 00:12:56:20 00:12:53:10 00:12:55:21
* FROM CLIP NAME: /home/davidk/code/python/JC-render/JC-examples/yoga.mp4
FINAL CUT PRO REEL: N/A REPLACED BY: N/A

489   N/A  AA/V  C  00:12:56:20 00:12:58:07 00:12:55:21 00:12:57:08
* FROM CLIP NAME: /home/davidk/code/python/JC-render/JC-examples/yoga.mp4
FINAL CUT PRO REEL: N/A REPLACED BY: N/A

490   N/A  AA/V  C  00:12:58:07 00:13:00:04 00:12:57:08 00:12:59:05
* FROM CLIP NAME: /home/davidk/code/python/JC-render/JC-examples/yoga.mp4
FINAL CUT PRO REEL: N/A REPLACED BY: N/A

491   N/A  AA/V  C  00:13:00:04 00:13:00:10 00:12:59:05 00:12:59:11
* FROM CLIP NAME: /home/davidk/code/python/JC-render/JC-examples/yoga.mp4
FINAL CUT PRO REEL: N/A REPLACED BY: N/A

492   N/A  AA/V  C  00:13:00:10 00:13:01:26 00:12:59:11 00:13:00:28
* FROM CLIP NAME: /home/davidk/code/python/JC-render/JC-examples/yoga.mp4
FINAL CUT PRO REEL: N/A REPLACED BY: N/A

493   N/A  AA/V  C  00:13:01:26 00:13:03:14 00:13:00:28 00:13:02:15
* FROM CLIP NAME: /home/davidk/code/python/JC-render/JC-examples/yoga.mp4
FINAL CUT PRO REEL: N/A REPLACED BY: N/A

494   N/A  AA/V  C  00:13:03:14 00:13:04:17 00:13:02:15 00:13:03:18
* FROM CLIP NAME: /home/davidk/code/python/JC-render/JC-examples/yoga.mp4
FINAL CUT PRO REEL: N/A REPLACED BY: N/A

495   N/A  AA/V  C  00:13:04:17 00:13:04:19 00:13:03:18 00:13:03:20
* FROM CLIP NAME: /home/davidk/code/python/JC-render/JC-examples/yoga.mp4
FINAL CUT PRO REEL: N/A REPLACED BY: N/A

496   N/A  AA/V  C  00:13:04:19 00:13:06:09 00:13:03:20 00:13:05:10
* FROM CLIP NAME: /home/davidk/code/python/JC-render/JC-examples/yoga.mp4
FINAL CUT PRO REEL: N/A REPLACED BY: N/A

497   N/A  AA/V  C  00:13:06:09 00:13:07:05 00:13:05:10 00:13:06:06
* FROM CLIP NAME: /home/davidk/code/python/JC-render/JC-examples/yoga.mp4
FINAL CUT PRO REEL: N/A REPLACED BY: N/A

498   N/A  AA/V  C  00:13:07:05 00:13:08:01 00:13:06:06 00:13:07:02
* FROM CLIP NAME: /home/davidk/code/python/JC-render/JC-examples/yoga.mp4
FINAL CUT PRO REEL: N/A REPLACED BY: N/A

499   N/A  AA/V  C  00:13:08:01 00:13:09:22 00:13:07:02 00:13:08:23
* FROM CLIP NAME: /home/davidk/code/python/JC-render/JC-examples/yoga.mp4
FINAL CUT PRO REEL: N/A REPLACED BY: N/A

500   N/A  AA/V  C  00:13:09:22 00:13:10:14 00:13:08:23 00:13:09:15
* FROM CLIP NAME: /home/davidk/code/python/JC-render/JC-examples/yoga.mp4
FINAL CUT PRO REEL: N/A REPLACED BY: N/A

501   N/A  AA/V  C  00:13:10:14 00:13:12:15 00:13:09:15 00:13:11:17
* FROM CLIP NAME: /home/davidk/code/python/JC-render/JC-examples/yoga.mp4
FINAL CUT PRO REEL: N/A REPLACED BY: N/A

502   N/A  AA/V  C  00:13:12:15 00:13:13:04 00:13:11:17 00:13:12:06
* FROM CLIP NAME: /home/davidk/code/python/JC-render/JC-examples/yoga.mp4
FINAL CUT PRO REEL: N/A REPLACED BY: N/A

503   N/A  AA/V  C  00:13:13:04 00:13:13:06 00:13:12:06 00:13:12:07
* FROM CLIP NAME: /home/davidk/code/python/JC-render/JC-examples/yoga.mp4
FINAL CUT PRO REEL: N/A REPLACED BY: N/A

504   N/A  AA/V  C  00:13:13:06 00:13:15:14 00:13:12:07 00:13:14:15
* FROM CLIP NAME: /home/davidk/code/python/JC-render/JC-examples/yoga.mp4
FINAL CUT PRO REEL: N/A REPLACED BY: N/A

505   N/A  AA/V  C  00:13:15:14 00:13:15:19 00:13:14:15 00:13:14:21
* FROM CLIP NAME: /home/davidk/code/python/JC-render/JC-examples/yoga.mp4
FINAL CUT PRO REEL: N/A REPLACED BY: N/A

506   N/A  AA/V  C  00:13:15:19 00:13:17:06 00:13:14:21 00:13:16:07
* FROM CLIP NAME: /home/davidk/code/python/JC-render/JC-examples/yoga.mp4
FINAL CUT PRO REEL: N/A REPLACED BY: N/A

507   N/A  AA/V  C  00:13:17:06 00:13:17:22 00:13:16:07 00:13:16:23
* FROM CLIP NAME: /home/davidk/code/python/JC-render/JC-examples/yoga.mp4
FINAL CUT PRO REEL: N/A REPLACED BY: N/A

508   N/A  AA/V  C  00:13:17:22 00:13:19:19 00:13:16:23 00:13:18:21
* FROM CLIP NAME: /home/davidk/code/python/JC-render/JC-examples/yoga.mp4
FINAL CUT PRO REEL: N/A REPLACED BY: N/A

509   N/A  AA/V  C  00:13:19:19 00:13:20:02 00:13:18:21 00:13:19:03
* FROM CLIP NAME: /home/davidk/code/python/JC-render/JC-examples/yoga.mp4
FINAL CUT PRO REEL: N/A REPLACED BY: N/A

510   N/A  AA/V  C  00:13:20:02 00:13:21:19 00:13:19:03 00:13:20:20
* FROM CLIP NAME: /home/davidk/code/python/JC-render/JC-examples/yoga.mp4
FINAL CUT PRO REEL: N/A REPLACED BY: N/A

511   N/A  AA/V  C  00:13:21:19 00:13:21:24 00:13:20:20 00:13:20:25
* FROM CLIP NAME: /home/davidk/code/python/JC-render/JC-examples/yoga.mp4
FINAL CUT PRO REEL: N/A REPLACED BY: N/A

512   N/A  AA/V  C  00:13:21:24 00:13:22:20 00:13:20:25 00:13:21:21
* FROM CLIP NAME: /home/davidk/code/python/JC-render/JC-examples/yoga.mp4
FINAL CUT PRO REEL: N/A REPLACED BY: N/A

513   N/A  AA/V  C  00:13:22:20 00:13:24:25 00:13:21:21 00:13:23:26
* FROM CLIP NAME: /home/davidk/code/python/JC-render/JC-examples/yoga.mp4
FINAL CUT PRO REEL: N/A REPLACED BY: N/A

514   N/A  AA/V  C  00:13:24:25 00:13:25:27 00:13:23:26 00:13:24:29
* FROM CLIP NAME: /home/davidk/code/python/JC-render/JC-examples/yoga.mp4
FINAL CUT PRO REEL: N/A REPLACED BY: N/A

515   N/A  AA/V  C  00:13:25:27 00:13:26:03 00:13:24:29 00:13:25:04
* FROM CLIP NAME: /home/davidk/code/python/JC-render/JC-examples/yoga.mp4
FINAL CUT PRO REEL: N/A REPLACED BY: N/A

516   N/A  AA/V  C  00:13:26:03 00:13:27:06 00:13:25:04 00:13:26:07
* FROM CLIP NAME: /home/davidk/code/python/JC-render/JC-examples/yoga.mp4
FINAL CUT PRO REEL: N/A REPLACED BY: N/A

517   N/A  AA/V  C  00:13:27:06 00:13:28:02 00:13:26:07 00:13:27:03
* FROM CLIP NAME: /home/davidk/code/python/JC-render/JC-examples/yoga.mp4
FINAL CUT PRO REEL: N/A REPLACED BY: N/A

518   N/A  AA/V  C  00:13:28:02 00:13:29:02 00:13:27:03 00:13:28:03
* FROM CLIP NAME: /home/davidk/code/python/JC-render/JC-examples/yoga.mp4
FINAL CUT PRO REEL: N/A REPLACED BY: N/A

519   N/A  AA/V  C  00:13:29:02 00:13:30:01 00:13:28:03 00:13:29:02
* FROM CLIP NAME: /home/davidk/code/python/JC-render/JC-examples/yoga.mp4
FINAL CUT PRO REEL: N/A REPLACED BY: N/A

520   N/A  AA/V  C  00:13:30:01 00:13:31:04 00:13:29:02 00:13:30:05
* FROM CLIP NAME: /home/davidk/code/python/JC-render/JC-examples/yoga.mp4
FINAL CUT PRO REEL: N/A REPLACED BY: N/A

521   N/A  AA/V  C  00:13:31:04 00:13:32:28 00:13:30:05 00:13:32:00
* FROM CLIP NAME: /home/davidk/code/python/JC-render/JC-examples/yoga.mp4
FINAL CUT PRO REEL: N/A REPLACED BY: N/A

522   N/A  AA/V  C  00:13:32:28 00:13:34:12 00:13:32:00 00:13:33:13
* FROM CLIP NAME: /home/davidk/code/python/JC-render/JC-examples/yoga.mp4
FINAL CUT PRO REEL: N/A REPLACED BY: N/A

523   N/A  AA/V  C  00:13:34:12 00:13:34:14 00:13:33:13 00:13:33:15
* FROM CLIP NAME: /home/davidk/code/python/JC-render/JC-examples/yoga.mp4
FINAL CUT PRO REEL: N/A REPLACED BY: N/A

524   N/A  AA/V  C  00:13:34:14 00:13:35:03 00:13:33:15 00:13:34:04
* FROM CLIP NAME: /home/davidk/code/python/JC-render/JC-examples/yoga.mp4
FINAL CUT PRO REEL: N/A REPLACED BY: N/A

525   N/A  AA/V  C  00:13:35:03 00:13:37:14 00:13:34:04 00:13:36:15
* FROM CLIP NAME: /home/davidk/code/python/JC-render/JC-examples/yoga.mp4
FINAL CUT PRO REEL: N/A REPLACED BY: N/A

526   N/A  AA/V  C  00:13:37:14 00:13:39:25 00:13:36:15 00:13:38:27
* FROM CLIP NAME: /home/davidk/code/python/JC-render/JC-examples/yoga.mp4
FINAL CUT PRO REEL: N/A REPLACED BY: N/A

527   N/A  AA/V  C  00:13:39:25 00:13:40:01 00:13:38:27 00:13:39:02
* FROM CLIP NAME: /home/davidk/code/python/JC-render/JC-examples/yoga.mp4
FINAL CUT PRO REEL: N/A REPLACED BY: N/A

528   N/A  AA/V  C  00:13:40:01 00:13:41:25 00:13:39:02 00:13:40:26
* FROM CLIP NAME: /home/davidk/code/python/JC-render/JC-examples/yoga.mp4
FINAL CUT PRO REEL: N/A REPLACED BY: N/A

529   N/A  AA/V  C  00:13:41:25 00:13:45:18 00:13:40:26 00:13:44:19
* FROM CLIP NAME: /home/davidk/code/python/JC-render/JC-examples/yoga.mp4
FINAL CUT PRO REEL: N/A REPLACED BY: N/A

530   N/A  AA/V  C  00:13:45:18 00:13:47:22 00:13:44:19 00:13:46:23
* FROM CLIP NAME: /home/davidk/code/python/JC-render/JC-examples/yoga.mp4
FINAL CUT PRO REEL: N/A REPLACED BY: N/A

531   N/A  AA/V  C  00:13:47:22 00:13:48:08 00:13:46:23 00:13:47:09
* FROM CLIP NAME: /home/davidk/code/python/JC-render/JC-examples/yoga.mp4
FINAL CUT PRO REEL: N/A REPLACED BY: N/A

532   N/A  AA/V  C  00:13:48:08 00:13:49:08 00:13:47:09 00:13:48:09
* FROM CLIP NAME: /home/davidk/code/python/JC-render/JC-examples/yoga.mp4
FINAL CUT PRO REEL: N/A REPLACED BY: N/A

533   N/A  AA/V  C  00:13:49:08 00:13:49:23 00:13:48:09 00:13:48:25
* FROM CLIP NAME: /home/davidk/code/python/JC-render/JC-examples/yoga.mp4
FINAL CUT PRO REEL: N/A REPLACED BY: N/A

534   N/A  AA/V  C  00:13:49:23 00:13:51:03 00:13:48:25 00:13:50:04
* FROM CLIP NAME: /home/davidk/code/python/JC-render/JC-examples/yoga.mp4
FINAL CUT PRO REEL: N/A REPLACED BY: N/A

535   N/A  AA/V  C  00:13:51:03 00:14:02:06 00:13:50:04 00:14:01:07
* FROM CLIP NAME: /home/davidk/code/python/JC-render/JC-examples/yoga.mp4
FINAL CUT PRO REEL: N/A REPLACED BY: N/A

536   N/A  AA/V  C  00:14:02:06 00:14:03:12 00:14:01:07 00:14:02:14
* FROM CLIP NAME: /home/davidk/code/python/JC-render/JC-examples/yoga.mp4
FINAL CUT PRO REEL: N/A REPLACED BY: N/A

537   N/A  AA/V  C  00:14:03:12 00:14:06:22 00:14:02:14 00:14:05:23
* FROM CLIP NAME: /home/davidk/code/python/JC-render/JC-examples/yoga.mp4
FINAL CUT PRO REEL: N/A REPLACED BY: N/A

538   N/A  AA/V  C  00:14:06:22 00:14:08:23 00:14:05:23 00:14:07:24
* FROM CLIP NAME: /home/davidk/code/python/JC-render/JC-examples/yoga.mp4
FINAL CUT PRO REEL: N/A REPLACED BY: N/A

539   N/A  AA/V  C  00:14:08:23 00:14:11:18 00:14:07:24 00:14:10:19
* FROM CLIP NAME: /home/davidk/code/python/JC-render/JC-examples/yoga.mp4
FINAL CUT PRO REEL: N/A REPLACED BY: N/A

540   N/A  AA/V  C  00:14:11:18 00:14:12:21 00:14:10:19 00:14:11:22
* FROM CLIP NAME: /home/davidk/code/python/JC-render/JC-examples/yoga.mp4
FINAL CUT PRO REEL: N/A REPLACED BY: N/A

541   N/A  AA/V  C  00:14:12:21 00:14:13:14 00:14:11:22 00:14:12:15
* FROM CLIP NAME: /home/davidk/code/python/JC-render/JC-examples/yoga.mp4
FINAL CUT PRO REEL: N/A REPLACED BY: N/A

542   N/A  AA/V  C  00:14:13:14 00:14:14:03 00:14:12:15 00:14:13:04
* FROM CLIP NAME: /home/davidk/code/python/JC-render/JC-examples/yoga.mp4
FINAL CUT PRO REEL: N/A REPLACED BY: N/A

543   N/A  AA/V  C  00:14:14:03 00:14:15:27 00:14:13:04 00:14:14:28
* FROM CLIP NAME: /home/davidk/code/python/JC-render/JC-examples/yoga.mp4
FINAL CUT PRO REEL: N/A REPLACED BY: N/A

544   N/A  AA/V  C  00:14:15:27 00:14:16:16 00:14:14:28 00:14:15:17
* FROM CLIP NAME: /home/davidk/code/python/JC-render/JC-examples/yoga.mp4
FINAL CUT PRO REEL: N/A REPLACED BY: N/A

545   N/A  AA/V  C  00:14:16:16 00:14:18:24 00:14:15:17 00:14:17:25
* FROM CLIP NAME: /home/davidk/code/python/JC-render/JC-examples/yoga.mp4
FINAL CUT PRO REEL: N/A REPLACED BY: N/A

546   N/A  AA/V  C  00:14:18:24 00:14:19:13 00:14:17:25 00:14:18:14
* FROM CLIP NAME: /home/davidk/code/python/JC-render/JC-examples/yoga.mp4
FINAL CUT PRO REEL: N/A REPLACED BY: N/A

547   N/A  AA/V  C  00:14:19:13 00:14:20:02 00:14:18:14 00:14:19:04
* FROM CLIP NAME: /home/davidk/code/python/JC-render/JC-examples/yoga.mp4
FINAL CUT PRO REEL: N/A REPLACED BY: N/A

548   N/A  AA/V  C  00:14:20:02 00:14:21:05 00:14:19:04 00:14:20:07
* FROM CLIP NAME: /home/davidk/code/python/JC-render/JC-examples/yoga.mp4
FINAL CUT PRO REEL: N/A REPLACED BY: N/A

549   N/A  AA/V  C  00:14:21:05 00:14:21:11 00:14:20:07 00:14:20:12
* FROM CLIP NAME: /home/davidk/code/python/JC-render/JC-examples/yoga.mp4
FINAL CUT PRO REEL: N/A REPLACED BY: N/A

550   N/A  AA/V  C  00:14:21:11 00:14:23:22 00:14:20:12 00:14:22:23
* FROM CLIP NAME: /home/davidk/code/python/JC-render/JC-examples/yoga.mp4
FINAL CUT PRO REEL: N/A REPLACED BY: N/A

551   N/A  AA/V  C  00:14:23:22 00:14:26:07 00:14:22:23 00:14:25:08
* FROM CLIP NAME: /home/davidk/code/python/JC-render/JC-examples/yoga.mp4
FINAL CUT PRO REEL: N/A REPLACED BY: N/A

552   N/A  AA/V  C  00:14:26:07 00:14:27:20 00:14:25:08 00:14:26:22
* FROM CLIP NAME: /home/davidk/code/python/JC-render/JC-examples/yoga.mp4
FINAL CUT PRO REEL: N/A REPLACED BY: N/A

553   N/A  AA/V  C  00:14:27:20 00:14:27:29 00:14:26:22 00:14:27:01
* FROM CLIP NAME: /home/davidk/code/python/JC-render/JC-examples/yoga.mp4
FINAL CUT PRO REEL: N/A REPLACED BY: N/A

554   N/A  AA/V  C  00:14:27:29 00:14:30:00 00:14:27:01 00:14:29:01
* FROM CLIP NAME: /home/davidk/code/python/JC-render/JC-examples/yoga.mp4
FINAL CUT PRO REEL: N/A REPLACED BY: N/A

555   N/A  AA/V  C  00:14:30:00 00:14:30:06 00:14:29:01 00:14:29:07
* FROM CLIP NAME: /home/davidk/code/python/JC-render/JC-examples/yoga.mp4
FINAL CUT PRO REEL: N/A REPLACED BY: N/A

556   N/A  AA/V  C  00:14:30:06 00:14:32:10 00:14:29:07 00:14:31:11
* FROM CLIP NAME: /home/davidk/code/python/JC-render/JC-examples/yoga.mp4
FINAL CUT PRO REEL: N/A REPLACED BY: N/A

557   N/A  AA/V  C  00:14:32:10 00:14:32:15 00:14:31:11 00:14:31:16
* FROM CLIP NAME: /home/davidk/code/python/JC-render/JC-examples/yoga.mp4
FINAL CUT PRO REEL: N/A REPLACED BY: N/A

558   N/A  AA/V  C  00:14:32:15 00:14:38:18 00:14:31:16 00:14:37:19
* FROM CLIP NAME: /home/davidk/code/python/JC-render/JC-examples/yoga.mp4
FINAL CUT PRO REEL: N/A REPLACED BY: N/A

559   N/A  AA/V  C  00:14:38:18 00:14:39:07 00:14:37:19 00:14:38:08
* FROM CLIP NAME: /home/davidk/code/python/JC-render/JC-examples/yoga.mp4
FINAL CUT PRO REEL: N/A REPLACED BY: N/A

560   N/A  AA/V  C  00:14:39:07 00:14:42:20 00:14:38:08 00:14:41:21
* FROM CLIP NAME: /home/davidk/code/python/JC-render/JC-examples/yoga.mp4
FINAL CUT PRO REEL: N/A REPLACED BY: N/A

561   N/A  AA/V  C  00:14:42:20 00:14:42:22 00:14:41:21 00:14:41:23
* FROM CLIP NAME: /home/davidk/code/python/JC-render/JC-examples/yoga.mp4
FINAL CUT PRO REEL: N/A REPLACED BY: N/A

562   N/A  AA/V  C  00:14:42:22 00:14:43:21 00:14:41:23 00:14:42:22
* FROM CLIP NAME: /home/davidk/code/python/JC-render/JC-examples/yoga.mp4
FINAL CUT PRO REEL: N/A REPLACED BY: N/A

563   N/A  AA/V  C  00:14:43:21 00:14:44:28 00:14:42:22 00:14:43:29
* FROM CLIP NAME: /home/davidk/code/python/JC-render/JC-examples/yoga.mp4
FINAL CUT PRO REEL: N/A REPLACED BY: N/A

564   N/A  AA/V  C  00:14:44:28 00:14:48:07 00:14:43:29 00:14:47:08
* FROM CLIP NAME: /home/davidk/code/python/JC-render/JC-examples/yoga.mp4
FINAL CUT PRO REEL: N/A REPLACED BY: N/A

565   N/A  AA/V  C  00:14:48:07 00:14:48:16 00:14:47:08 00:14:47:17
* FROM CLIP NAME: /home/davidk/code/python/JC-render/JC-examples/yoga.mp4
FINAL CUT PRO REEL: N/A REPLACED BY: N/A

566   N/A  AA/V  C  00:14:48:16 00:14:49:26 00:14:47:17 00:14:48:27
* FROM CLIP NAME: /home/davidk/code/python/JC-render/JC-examples/yoga.mp4
FINAL CUT PRO REEL: N/A REPLACED BY: N/A

567   N/A  AA/V  C  00:14:49:26 00:14:49:28 00:14:48:27 00:14:48:29
* FROM CLIP NAME: /home/davidk/code/python/JC-render/JC-examples/yoga.mp4
FINAL CUT PRO REEL: N/A REPLACED BY: N/A

568   N/A  AA/V  C  00:14:49:28 00:14:51:14 00:14:48:29 00:14:50:16
* FROM CLIP NAME: /home/davidk/code/python/JC-render/JC-examples/yoga.mp4
FINAL CUT PRO REEL: N/A REPLACED BY: N/A

569   N/A  AA/V  C  00:14:51:14 00:14:52:00 00:14:50:16 00:14:51:01
* FROM CLIP NAME: /home/davidk/code/python/JC-render/JC-examples/yoga.mp4
FINAL CUT PRO REEL: N/A REPLACED BY: N/A

570   N/A  AA/V  C  00:14:52:00 00:14:53:17 00:14:51:01 00:14:52:18
* FROM CLIP NAME: /home/davidk/code/python/JC-render/JC-examples/yoga.mp4
FINAL CUT PRO REEL: N/A REPLACED BY: N/A

571   N/A  AA/V  C  00:14:53:17 00:15:04:16 00:14:52:18 00:15:03:18
* FROM CLIP NAME: /home/davidk/code/python/JC-render/JC-examples/yoga.mp4
FINAL CUT PRO REEL: N/A REPLACED BY: N/A

572   N/A  AA/V  C  00:15:04:16 00:15:05:23 00:15:03:18 00:15:04:24
* FROM CLIP NAME: /home/davidk/code/python/JC-render/JC-examples/yoga.mp4
FINAL CUT PRO REEL: N/A REPLACED BY: N/A

573   N/A  AA/V  C  00:15:05:23 00:15:06:26 00:15:04:24 00:15:05:27
* FROM CLIP NAME: /home/davidk/code/python/JC-render/JC-examples/yoga.mp4
FINAL CUT PRO REEL: N/A REPLACED BY: N/A

574   N/A  AA/V  C  00:15:06:26 00:15:09:00 00:15:05:27 00:15:08:02
* FROM CLIP NAME: /home/davidk/code/python/JC-render/JC-examples/yoga.mp4
FINAL CUT PRO REEL: N/A REPLACED BY: N/A

575   N/A  AA/V  C  00:15:09:00 00:15:09:02 00:15:08:02 00:15:08:03
* FROM CLIP NAME: /home/davidk/code/python/JC-render/JC-examples/yoga.mp4
FINAL CUT PRO REEL: N/A REPLACED BY: N/A

576   N/A  AA/V  C  00:15:09:02 00:15:10:05 00:15:08:03 00:15:09:06
* FROM CLIP NAME: /home/davidk/code/python/JC-render/JC-examples/yoga.mp4
FINAL CUT PRO REEL: N/A REPLACED BY: N/A

577   N/A  AA/V  C  00:15:10:05 00:15:10:18 00:15:09:06 00:15:09:19
* FROM CLIP NAME: /home/davidk/code/python/JC-render/JC-examples/yoga.mp4
FINAL CUT PRO REEL: N/A REPLACED BY: N/A

578   N/A  AA/V  C  00:15:10:18 00:15:12:15 00:15:09:19 00:15:11:16
* FROM CLIP NAME: /home/davidk/code/python/JC-render/JC-examples/yoga.mp4
FINAL CUT PRO REEL: N/A REPLACED BY: N/A

579   N/A  AA/V  C  00:15:12:15 00:15:16:19 00:15:11:16 00:15:15:20
* FROM CLIP NAME: /home/davidk/code/python/JC-render/JC-examples/yoga.mp4
FINAL CUT PRO REEL: N/A REPLACED BY: N/A

580   N/A  AA/V  C  00:15:16:19 00:15:18:13 00:15:15:20 00:15:17:14
* FROM CLIP NAME: /home/davidk/code/python/JC-render/JC-examples/yoga.mp4
FINAL CUT PRO REEL: N/A REPLACED BY: N/A

581   N/A  AA/V  C  00:15:18:13 00:15:19:19 00:15:17:14 00:15:18:20
* FROM CLIP NAME: /home/davidk/code/python/JC-render/JC-examples/yoga.mp4
FINAL CUT PRO REEL: N/A REPLACED BY: N/A

582   N/A  AA/V  C  00:15:19:19 00:15:22:00 00:15:18:20 00:15:21:02
* FROM CLIP NAME: /home/davidk/code/python/JC-render/JC-examples/yoga.mp4
FINAL CUT PRO REEL: N/A REPLACED BY: N/A

583   N/A  AA/V  C  00:15:22:00 00:15:22:27 00:15:21:02 00:15:21:28
* FROM CLIP NAME: /home/davidk/code/python/JC-render/JC-examples/yoga.mp4
FINAL CUT PRO REEL: N/A REPLACED BY: N/A

584   N/A  AA/V  C  00:15:22:27 00:15:23:26 00:15:21:28 00:15:22:27
* FROM CLIP NAME: /home/davidk/code/python/JC-render/JC-examples/yoga.mp4
FINAL CUT PRO REEL: N/A REPLACED BY: N/A

585   N/A  AA/V  C  00:15:23:26 00:15:24:19 00:15:22:27 00:15:23:20
* FROM CLIP NAME: /home/davidk/code/python/JC-render/JC-examples/yoga.mp4
FINAL CUT PRO REEL: N/A REPLACED BY: N/A

586   N/A  AA/V  C  00:15:24:19 00:15:25:22 00:15:23:20 00:15:24:23
* FROM CLIP NAME: /home/davidk/code/python/JC-render/JC-examples/yoga.mp4
FINAL CUT PRO REEL: N/A REPLACED BY: N/A

587   N/A  AA/V  C  00:15:25:22 00:15:26:11 00:15:24:23 00:15:25:12
* FROM CLIP NAME: /home/davidk/code/python/JC-render/JC-examples/yoga.mp4
FINAL CUT PRO REEL: N/A REPLACED BY: N/A

588   N/A  AA/V  C  00:15:26:11 00:15:28:12 00:15:25:12 00:15:27:13
* FROM CLIP NAME: /home/davidk/code/python/JC-render/JC-examples/yoga.mp4
FINAL CUT PRO REEL: N/A REPLACED BY: N/A

589   N/A  AA/V  C  00:15:28:12 00:15:30:06 00:15:27:13 00:15:29:07
* FROM CLIP NAME: /home/davidk/code/python/JC-render/JC-examples/yoga.mp4
FINAL CUT PRO REEL: N/A REPLACED BY: N/A

590   N/A  AA/V  C  00:15:30:06 00:15:31:06 00:15:29:07 00:15:30:07
* FROM CLIP NAME: /home/davidk/code/python/JC-render/JC-examples/yoga.mp4
FINAL CUT PRO REEL: N/A REPLACED BY: N/A

591   N/A  AA/V  C  00:15:31:06 00:15:33:00 00:15:30:07 00:15:32:01
* FROM CLIP NAME: /home/davidk/code/python/JC-render/JC-examples/yoga.mp4
FINAL CUT PRO REEL: N/A REPLACED BY: N/A

592   N/A  AA/V  C  00:15:33:00 00:15:33:22 00:15:32:01 00:15:32:23
* FROM CLIP NAME: /home/davidk/code/python/JC-render/JC-examples/yoga.mp4
FINAL CUT PRO REEL: N/A REPLACED BY: N/A

593   N/A  AA/V  C  00:15:33:22 00:15:34:01 00:15:32:23 00:15:33:02
* FROM CLIP NAME: /home/davidk/code/python/JC-render/JC-examples/yoga.mp4
FINAL CUT PRO REEL: N/A REPLACED BY: N/A

594   N/A  AA/V  C  00:15:34:01 00:15:34:17 00:15:33:02 00:15:33:18
* FROM CLIP NAME: /home/davidk/code/python/JC-render/JC-examples/yoga.mp4
FINAL CUT PRO REEL: N/A REPLACED BY: N/A

595   N/A  AA/V  C  00:15:34:17 00:15:34:22 00:15:33:18 00:15:33:23
* FROM CLIP NAME: /home/davidk/code/python/JC-render/JC-examples/yoga.mp4
FINAL CUT PRO REEL: N/A REPLACED BY: N/A

596   N/A  AA/V  C  00:15:34:22 00:15:35:25 00:15:33:23 00:15:34:26
* FROM CLIP NAME: /home/davidk/code/python/JC-render/JC-examples/yoga.mp4
FINAL CUT PRO REEL: N/A REPLACED BY: N/A

597   N/A  AA/V  C  00:15:35:25 00:15:38:00 00:15:34:26 00:15:37:01
* FROM CLIP NAME: /home/davidk/code/python/JC-render/JC-examples/yoga.mp4
FINAL CUT PRO REEL: N/A REPLACED BY: N/A

598   N/A  AA/V  C  00:15:38:00 00:15:38:15 00:15:37:01 00:15:37:16
* FROM CLIP NAME: /home/davidk/code/python/JC-render/JC-examples/yoga.mp4
FINAL CUT PRO REEL: N/A REPLACED BY: N/A

599   N/A  AA/V  C  00:15:38:15 00:15:38:20 00:15:37:16 00:15:37:22
* FROM CLIP NAME: /home/davidk/code/python/JC-render/JC-examples/yoga.mp4
FINAL CUT PRO REEL: N/A REPLACED BY: N/A

600   N/A  AA/V  C  00:15:38:20 00:15:40:21 00:15:37:22 00:15:39:22
* FROM CLIP NAME: /home/davidk/code/python/JC-render/JC-examples/yoga.mp4
FINAL CUT PRO REEL: N/A REPLACED BY: N/A

601   N/A  AA/V  C  00:15:40:21 00:15:42:12 00:15:39:22 00:15:41:13
* FROM CLIP NAME: /home/davidk/code/python/JC-render/JC-examples/yoga.mp4
FINAL CUT PRO REEL: N/A REPLACED BY: N/A

602   N/A  AA/V  C  00:15:42:12 00:15:44:02 00:15:41:13 00:15:43:03
* FROM CLIP NAME: /home/davidk/code/python/JC-render/JC-examples/yoga.mp4
FINAL CUT PRO REEL: N/A REPLACED BY: N/A

603   N/A  AA/V  C  00:15:44:02 00:15:47:26 00:15:43:03 00:15:46:27
* FROM CLIP NAME: /home/davidk/code/python/JC-render/JC-examples/yoga.mp4
FINAL CUT PRO REEL: N/A REPLACED BY: N/A

604   N/A  AA/V  C  00:15:47:26 00:15:48:22 00:15:46:27 00:15:47:23
* FROM CLIP NAME: /home/davidk/code/python/JC-render/JC-examples/yoga.mp4
FINAL CUT PRO REEL: N/A REPLACED BY: N/A

605   N/A  AA/V  C  00:15:48:22 00:15:51:14 00:15:47:23 00:15:50:15
* FROM CLIP NAME: /home/davidk/code/python/JC-render/JC-examples/yoga.mp4
FINAL CUT PRO REEL: N/A REPLACED BY: N/A

606   N/A  AA/V  C  00:15:51:14 00:15:51:29 00:15:50:15 00:15:51:00
* FROM CLIP NAME: /home/davidk/code/python/JC-render/JC-examples/yoga.mp4
FINAL CUT PRO REEL: N/A REPLACED BY: N/A

607   N/A  AA/V  C  00:15:51:29 00:15:53:13 00:15:51:00 00:15:52:14
* FROM CLIP NAME: /home/davidk/code/python/JC-render/JC-examples/yoga.mp4
FINAL CUT PRO REEL: N/A REPLACED BY: N/A

608   N/A  AA/V  C  00:15:53:13 00:15:53:28 00:15:52:14 00:15:52:29
* FROM CLIP NAME: /home/davidk/code/python/JC-render/JC-examples/yoga.mp4
FINAL CUT PRO REEL: N/A REPLACED BY: N/A

609   N/A  AA/V  C  00:15:53:28 00:15:55:02 00:15:52:29 00:15:54:03
* FROM CLIP NAME: /home/davidk/code/python/JC-render/JC-examples/yoga.mp4
FINAL CUT PRO REEL: N/A REPLACED BY: N/A

610   N/A  AA/V  C  00:15:55:02 00:15:55:17 00:15:54:03 00:15:54:18
* FROM CLIP NAME: /home/davidk/code/python/JC-render/JC-examples/yoga.mp4
FINAL CUT PRO REEL: N/A REPLACED BY: N/A

611   N/A  AA/V  C  00:15:55:17 00:16:14:10 00:15:54:18 00:16:13:11
* FROM CLIP NAME: /home/davidk/code/python/JC-render/JC-examples/yoga.mp4
FINAL CUT PRO REEL: N/A REPLACED BY: N/A

612   N/A  AA/V  C  00:16:14:10 00:16:15:27 00:16:13:11 00:16:14:28
* FROM CLIP NAME: /home/davidk/code/python/JC-render/JC-examples/yoga.mp4
FINAL CUT PRO REEL: N/A REPLACED BY: N/A

613   N/A  AA/V  C  00:16:15:27 00:16:18:29 00:16:14:28 00:16:18:00
* FROM CLIP NAME: /home/davidk/code/python/JC-render/JC-examples/yoga.mp4
FINAL CUT PRO REEL: N/A REPLACED BY: N/A

614   N/A  AA/V  C  00:16:18:29 00:16:19:25 00:16:18:00 00:16:18:26
* FROM CLIP NAME: /home/davidk/code/python/JC-render/JC-examples/yoga.mp4
FINAL CUT PRO REEL: N/A REPLACED BY: N/A

615   N/A  AA/V  C  00:16:19:25 00:16:25:18 00:16:18:26 00:16:24:19
* FROM CLIP NAME: /home/davidk/code/python/JC-render/JC-examples/yoga.mp4
FINAL CUT PRO REEL: N/A REPLACED BY: N/A

616   N/A  AA/V  C  00:16:25:18 00:16:27:18 00:16:24:19 00:16:26:20
* FROM CLIP NAME: /home/davidk/code/python/JC-render/JC-examples/yoga.mp4
FINAL CUT PRO REEL: N/A REPLACED BY: N/A

617   N/A  AA/V  C  00:16:27:18 00:16:29:06 00:16:26:20 00:16:28:07
* FROM CLIP NAME: /home/davidk/code/python/JC-render/JC-examples/yoga.mp4
FINAL CUT PRO REEL: N/A REPLACED BY: N/A

618   N/A  AA/V  C  00:16:29:06 00:16:31:24 00:16:28:07 00:16:30:25
* FROM CLIP NAME: /home/davidk/code/python/JC-render/JC-examples/yoga.mp4
FINAL CUT PRO REEL: N/A REPLACED BY: N/A

619   N/A  AA/V  C  00:16:31:24 00:16:32:06 00:16:30:25 00:16:31:07
* FROM CLIP NAME: /home/davidk/code/python/JC-render/JC-examples/yoga.mp4
FINAL CUT PRO REEL: N/A REPLACED BY: N/A

620   N/A  AA/V  C  00:16:32:06 00:16:38:02 00:16:31:07 00:16:37:03
* FROM CLIP NAME: /home/davidk/code/python/JC-render/JC-examples/yoga.mp4
FINAL CUT PRO REEL: N/A REPLACED BY: N/A

621   N/A  AA/V  C  00:16:38:02 00:16:38:04 00:16:37:03 00:16:37:05
* FROM CLIP NAME: /home/davidk/code/python/JC-render/JC-examples/yoga.mp4
FINAL CUT PRO REEL: N/A REPLACED BY: N/A

622   N/A  AA/V  C  00:16:38:04 00:16:42:25 00:16:37:05 00:16:41:26
* FROM CLIP NAME: /home/davidk/code/python/JC-render/JC-examples/yoga.mp4
FINAL CUT PRO REEL: N/A REPLACED BY: N/A

623   N/A  AA/V  C  00:16:42:25 00:16:43:00 00:16:41:26 00:16:42:01
* FROM CLIP NAME: /home/davidk/code/python/JC-render/JC-examples/yoga.mp4
FINAL CUT PRO REEL: N/A REPLACED BY: N/A

624   N/A  AA/V  C  00:16:43:00 00:16:44:03 00:16:42:01 00:16:43:04
* FROM CLIP NAME: /home/davidk/code/python/JC-render/JC-examples/yoga.mp4
FINAL CUT PRO REEL: N/A REPLACED BY: N/A

625   N/A  AA/V  C  00:16:44:03 00:16:54:18 00:16:43:04 00:16:53:20
* FROM CLIP NAME: /home/davidk/code/python/JC-render/JC-examples/yoga.mp4
FINAL CUT PRO REEL: N/A REPLACED BY: N/A

626   N/A  AA/V  C  00:16:54:18 00:16:57:07 00:16:53:20 00:16:56:08
* FROM CLIP NAME: /home/davidk/code/python/JC-render/JC-examples/yoga.mp4
FINAL CUT PRO REEL: N/A REPLACED BY: N/A

627   N/A  AA/V  C  00:16:57:07 00:17:00:13 00:16:56:08 00:16:59:14
* FROM CLIP NAME: /home/davidk/code/python/JC-render/JC-examples/yoga.mp4
FINAL CUT PRO REEL: N/A REPLACED BY: N/A

628   N/A  AA/V  C  00:17:00:13 00:17:01:05 00:16:59:14 00:17:00:06
* FROM CLIP NAME: /home/davidk/code/python/JC-render/JC-examples/yoga.mp4
FINAL CUT PRO REEL: N/A REPLACED BY: N/A

629   N/A  AA/V  C  00:17:01:05 00:17:01:21 00:17:00:06 00:17:00:22
* FROM CLIP NAME: /home/davidk/code/python/JC-render/JC-examples/yoga.mp4
FINAL CUT PRO REEL: N/A REPLACED BY: N/A

630   N/A  AA/V  C  00:17:01:21 00:17:03:22 00:17:00:22 00:17:02:23
* FROM CLIP NAME: /home/davidk/code/python/JC-render/JC-examples/yoga.mp4
FINAL CUT PRO REEL: N/A REPLACED BY: N/A

631   N/A  AA/V  C  00:17:03:22 00:17:04:28 00:17:02:23 00:17:04:00
* FROM CLIP NAME: /home/davidk/code/python/JC-render/JC-examples/yoga.mp4
FINAL CUT PRO REEL: N/A REPLACED BY: N/A

632   N/A  AA/V  C  00:17:04:28 00:17:07:10 00:17:04:00 00:17:06:11
* FROM CLIP NAME: /home/davidk/code/python/JC-render/JC-examples/yoga.mp4
FINAL CUT PRO REEL: N/A REPLACED BY: N/A

633   N/A  AA/V  C  00:17:07:10 00:17:07:15 00:17:06:11 00:17:06:16
* FROM CLIP NAME: /home/davidk/code/python/JC-render/JC-examples/yoga.mp4
FINAL CUT PRO REEL: N/A REPLACED BY: N/A

634   N/A  AA/V  C  00:17:07:15 00:17:10:28 00:17:06:16 00:17:09:29
* FROM CLIP NAME: /home/davidk/code/python/JC-render/JC-examples/yoga.mp4
FINAL CUT PRO REEL: N/A REPLACED BY: N/A

635   N/A  AA/V  C  00:17:10:28 00:17:12:18 00:17:09:29 00:17:11:19
* FROM CLIP NAME: /home/davidk/code/python/JC-render/JC-examples/yoga.mp4
FINAL CUT PRO REEL: N/A REPLACED BY: N/A

636   N/A  AA/V  C  00:17:12:18 00:17:17:02 00:17:11:19 00:17:16:03
* FROM CLIP NAME: /home/davidk/code/python/JC-render/JC-examples/yoga.mp4
FINAL CUT PRO REEL: N/A REPLACED BY: N/A

637   N/A  AA/V  C  00:17:17:02 00:17:17:21 00:17:16:03 00:17:16:23
* FROM CLIP NAME: /home/davidk/code/python/JC-render/JC-examples/yoga.mp4
FINAL CUT PRO REEL: N/A REPLACED BY: N/A

638   N/A  AA/V  C  00:17:17:21 00:17:20:06 00:17:16:23 00:17:19:07
* FROM CLIP NAME: /home/davidk/code/python/JC-render/JC-examples/yoga.mp4
FINAL CUT PRO REEL: N/A REPLACED BY: N/A

639   N/A  AA/V  C  00:17:20:06 00:17:20:22 00:17:19:07 00:17:19:23
* FROM CLIP NAME: /home/davidk/code/python/JC-render/JC-examples/yoga.mp4
FINAL CUT PRO REEL: N/A REPLACED BY: N/A

640   N/A  AA/V  C  00:17:20:22 00:17:23:03 00:17:19:23 00:17:22:04
* FROM CLIP NAME: /home/davidk/code/python/JC-render/JC-examples/yoga.mp4
FINAL CUT PRO REEL: N/A REPLACED BY: N/A

641   N/A  AA/V  C  00:17:23:03 00:17:23:16 00:17:22:04 00:17:22:17
* FROM CLIP NAME: /home/davidk/code/python/JC-render/JC-examples/yoga.mp4
FINAL CUT PRO REEL: N/A REPLACED BY: N/A

642   N/A  AA/V  C  00:17:23:16 00:17:25:06 00:17:22:17 00:17:24:07
* FROM CLIP NAME: /home/davidk/code/python/JC-render/JC-examples/yoga.mp4
FINAL CUT PRO REEL: N/A REPLACED BY: N/A

643   N/A  AA/V  C  00:17:25:06 00:17:27:18 00:17:24:07 00:17:26:19
* FROM CLIP NAME: /home/davidk/code/python/JC-render/JC-examples/yoga.mp4
FINAL CUT PRO REEL: N/A REPLACED BY: N/A

644   N/A  AA/V  C  00:17:27:18 00:17:28:13 00:17:26:19 00:17:27:15
* FROM CLIP NAME: /home/davidk/code/python/JC-render/JC-examples/yoga.mp4
FINAL CUT PRO REEL: N/A REPLACED BY: N/A

645   N/A  AA/V  C  00:17:28:13 00:17:31:12 00:17:27:15 00:17:30:14
* FROM CLIP NAME: /home/davidk/code/python/JC-render/JC-examples/yoga.mp4
FINAL CUT PRO REEL: N/A REPLACED BY: N/A

646   N/A  AA/V  C  00:17:31:12 00:17:36:03 00:17:30:14 00:17:35:05
* FROM CLIP NAME: /home/davidk/code/python/JC-render/JC-examples/yoga.mp4
FINAL CUT PRO REEL: N/A REPLACED BY: N/A

647   N/A  AA/V  C  00:17:36:03 00:17:36:09 00:17:35:05 00:17:35:10
* FROM CLIP NAME: /home/davidk/code/python/JC-render/JC-examples/yoga.mp4
FINAL CUT PRO REEL: N/A REPLACED BY: N/A

648   N/A  AA/V  C  00:17:36:09 00:17:38:03 00:17:35:10 00:17:37:04
* FROM CLIP NAME: /home/davidk/code/python/JC-render/JC-examples/yoga.mp4
FINAL CUT PRO REEL: N/A REPLACED BY: N/A

649   N/A  AA/V  C  00:17:38:03 00:17:38:22 00:17:37:04 00:17:37:23
* FROM CLIP NAME: /home/davidk/code/python/JC-render/JC-examples/yoga.mp4
FINAL CUT PRO REEL: N/A REPLACED BY: N/A

650   N/A  AA/V  C  00:17:38:22 00:17:39:28 00:17:37:23 00:17:38:29
* FROM CLIP NAME: /home/davidk/code/python/JC-render/JC-examples/yoga.mp4
FINAL CUT PRO REEL: N/A REPLACED BY: N/A

651   N/A  AA/V  C  00:17:39:28 00:17:40:00 00:17:38:29 00:17:39:01
* FROM CLIP NAME: /home/davidk/code/python/JC-render/JC-examples/yoga.mp4
FINAL CUT PRO REEL: N/A REPLACED BY: N/A

652   N/A  AA/V  C  00:17:40:00 00:17:41:17 00:17:39:01 00:17:40:18
* FROM CLIP NAME: /home/davidk/code/python/JC-render/JC-examples/yoga.mp4
FINAL CUT PRO REEL: N/A REPLACED BY: N/A

653   N/A  AA/V  C  00:17:41:17 00:17:42:03 00:17:40:18 00:17:41:04
* FROM CLIP NAME: /home/davidk/code/python/JC-render/JC-examples/yoga.mp4
FINAL CUT PRO REEL: N/A REPLACED BY: N/A

654   N/A  AA/V  C  00:17:42:03 00:17:43:06 00:17:41:04 00:17:42:07
* FROM CLIP NAME: /home/davidk/code/python/JC-render/JC-examples/yoga.mp4
FINAL CUT PRO REEL: N/A REPLACED BY: N/A

655   N/A  AA/V  C  00:17:43:06 00:17:43:29 00:17:42:07 00:17:43:00
* FROM CLIP NAME: /home/davidk/code/python/JC-render/JC-examples/yoga.mp4
FINAL CUT PRO REEL: N/A REPLACED BY: N/A

656   N/A  AA/V  C  00:17:43:29 00:17:45:02 00:17:43:00 00:17:44:03
* FROM CLIP NAME: /home/davidk/code/python/JC-render/JC-examples/yoga.mp4
FINAL CUT PRO REEL: N/A REPLACED BY: N/A

657   N/A  AA/V  C  00:17:45:02 00:17:45:10 00:17:44:03 00:17:44:12
* FROM CLIP NAME: /home/davidk/code/python/JC-render/JC-examples/yoga.mp4
FINAL CUT PRO REEL: N/A REPLACED BY: N/A

658   N/A  AA/V  C  00:17:45:10 00:17:48:13 00:17:44:12 00:17:47:14
* FROM CLIP NAME: /home/davidk/code/python/JC-render/JC-examples/yoga.mp4
FINAL CUT PRO REEL: N/A REPLACED BY: N/A

659   N/A  AA/V  C  00:17:48:13 00:17:49:09 00:17:47:14 00:17:48:10
* FROM CLIP NAME: /home/davidk/code/python/JC-render/JC-examples/yoga.mp4
FINAL CUT PRO REEL: N/A REPLACED BY: N/A

660   N/A  AA/V  C  00:17:49:09 00:17:50:12 00:17:48:10 00:17:49:13
* FROM CLIP NAME: /home/davidk/code/python/JC-render/JC-examples/yoga.mp4
FINAL CUT PRO REEL: N/A REPLACED BY: N/A

661   N/A  AA/V  C  00:17:50:12 00:17:51:29 00:17:49:13 00:17:51:00
* FROM CLIP NAME: /home/davidk/code/python/JC-render/JC-examples/yoga.mp4
FINAL CUT PRO REEL: N/A REPLACED BY: N/A

662   N/A  AA/V  C  00:17:51:29 00:17:55:12 00:17:51:00 00:17:54:13
* FROM CLIP NAME: /home/davidk/code/python/JC-render/JC-examples/yoga.mp4
FINAL CUT PRO REEL: N/A REPLACED BY: N/A

663   N/A  AA/V  C  00:17:55:12 00:17:55:20 00:17:54:13 00:17:54:22
* FROM CLIP NAME: /home/davidk/code/python/JC-render/JC-examples/yoga.mp4
FINAL CUT PRO REEL: N/A REPLACED BY: N/A

664   N/A  AA/V  C  00:17:55:20 00:17:56:13 00:17:54:22 00:17:55:14
* FROM CLIP NAME: /home/davidk/code/python/JC-render/JC-examples/yoga.mp4
FINAL CUT PRO REEL: N/A REPLACED BY: N/A

665   N/A  AA/V  C  00:17:56:13 00:17:58:11 00:17:55:14 00:17:57:12
* FROM CLIP NAME: /home/davidk/code/python/JC-render/JC-examples/yoga.mp4
FINAL CUT PRO REEL: N/A REPLACED BY: N/A

666   N/A  AA/V  C  00:17:58:11 00:17:58:26 00:17:57:12 00:17:57:27
* FROM CLIP NAME: /home/davidk/code/python/JC-render/JC-examples/yoga.mp4
FINAL CUT PRO REEL: N/A REPLACED BY: N/A

667   N/A  AA/V  C  00:17:58:26 00:17:58:28 00:17:57:27 00:17:57:29
* FROM CLIP NAME: /home/davidk/code/python/JC-render/JC-examples/yoga.mp4
FINAL CUT PRO REEL: N/A REPLACED BY: N/A

668   N/A  AA/V  C  00:17:58:28 00:17:59:13 00:17:57:29 00:17:58:15
* FROM CLIP NAME: /home/davidk/code/python/JC-render/JC-examples/yoga.mp4
FINAL CUT PRO REEL: N/A REPLACED BY: N/A

669   N/A  AA/V  C  00:17:59:13 00:18:02:05 00:17:58:15 00:18:01:07
* FROM CLIP NAME: /home/davidk/code/python/JC-render/JC-examples/yoga.mp4
FINAL CUT PRO REEL: N/A REPLACED BY: N/A

670   N/A  AA/V  C  00:18:02:05 00:18:02:28 00:18:01:07 00:18:01:29
* FROM CLIP NAME: /home/davidk/code/python/JC-render/JC-examples/yoga.mp4
FINAL CUT PRO REEL: N/A REPLACED BY: N/A

671   N/A  AA/V  C  00:18:02:28 00:18:03:10 00:18:01:29 00:18:02:11
* FROM CLIP NAME: /home/davidk/code/python/JC-render/JC-examples/yoga.mp4
FINAL CUT PRO REEL: N/A REPLACED BY: N/A

672   N/A  AA/V  C  00:18:03:10 00:18:04:20 00:18:02:11 00:18:03:21
* FROM CLIP NAME: /home/davidk/code/python/JC-render/JC-examples/yoga.mp4
FINAL CUT PRO REEL: N/A REPLACED BY: N/A

673   N/A  AA/V  C  00:18:04:20 00:18:06:00 00:18:03:21 00:18:05:02
* FROM CLIP NAME: /home/davidk/code/python/JC-render/JC-examples/yoga.mp4
FINAL CUT PRO REEL: N/A REPLACED BY: N/A

674   N/A  AA/V  C  00:18:06:00 00:18:06:16 00:18:05:02 00:18:05:17
* FROM CLIP NAME: /home/davidk/code/python/JC-render/JC-examples/yoga.mp4
FINAL CUT PRO REEL: N/A REPLACED BY: N/A

675   N/A  AA/V  C  00:18:06:16 00:18:06:21 00:18:05:17 00:18:05:22
* FROM CLIP NAME: /home/davidk/code/python/JC-render/JC-examples/yoga.mp4
FINAL CUT PRO REEL: N/A REPLACED BY: N/A

676   N/A  AA/V  C  00:18:06:21 00:18:08:08 00:18:05:22 00:18:07:09
* FROM CLIP NAME: /home/davidk/code/python/JC-render/JC-examples/yoga.mp4
FINAL CUT PRO REEL: N/A REPLACED BY: N/A

677   N/A  AA/V  C  00:18:08:08 00:18:09:22 00:18:07:09 00:18:08:23
* FROM CLIP NAME: /home/davidk/code/python/JC-render/JC-examples/yoga.mp4
FINAL CUT PRO REEL: N/A REPLACED BY: N/A

678   N/A  AA/V  C  00:18:09:22 00:18:11:26 00:18:08:23 00:18:10:27
* FROM CLIP NAME: /home/davidk/code/python/JC-render/JC-examples/yoga.mp4
FINAL CUT PRO REEL: N/A REPLACED BY: N/A

679   N/A  AA/V  C  00:18:11:26 00:18:14:01 00:18:10:27 00:18:13:02
* FROM CLIP NAME: /home/davidk/code/python/JC-render/JC-examples/yoga.mp4
FINAL CUT PRO REEL: N/A REPLACED BY: N/A

680   N/A  AA/V  C  00:18:14:01 00:18:17:13 00:18:13:02 00:18:16:14
* FROM CLIP NAME: /home/davidk/code/python/JC-render/JC-examples/yoga.mp4
FINAL CUT PRO REEL: N/A REPLACED BY: N/A

681   N/A  AA/V  C  00:18:17:13 00:18:19:21 00:18:16:14 00:18:18:23
* FROM CLIP NAME: /home/davidk/code/python/JC-render/JC-examples/yoga.mp4
FINAL CUT PRO REEL: N/A REPLACED BY: N/A

682   N/A  AA/V  C  00:18:19:21 00:18:20:17 00:18:18:23 00:18:19:18
* FROM CLIP NAME: /home/davidk/code/python/JC-render/JC-examples/yoga.mp4
FINAL CUT PRO REEL: N/A REPLACED BY: N/A

683   N/A  AA/V  C  00:18:20:17 00:18:23:09 00:18:19:18 00:18:22:11
* FROM CLIP NAME: /home/davidk/code/python/JC-render/JC-examples/yoga.mp4
FINAL CUT PRO REEL: N/A REPLACED BY: N/A

684   N/A  AA/V  C  00:18:23:09 00:18:23:25 00:18:22:11 00:18:22:26
* FROM CLIP NAME: /home/davidk/code/python/JC-render/JC-examples/yoga.mp4
FINAL CUT PRO REEL: N/A REPLACED BY: N/A

685   N/A  AA/V  C  00:18:23:25 00:18:25:09 00:18:22:26 00:18:24:10
* FROM CLIP NAME: /home/davidk/code/python/JC-render/JC-examples/yoga.mp4
FINAL CUT PRO REEL: N/A REPLACED BY: N/A

686   N/A  AA/V  C  00:18:25:09 00:18:25:24 00:18:24:10 00:18:24:25
* FROM CLIP NAME: /home/davidk/code/python/JC-render/JC-examples/yoga.mp4
FINAL CUT PRO REEL: N/A REPLACED BY: N/A

687   N/A  AA/V  C  00:18:25:24 00:18:26:27 00:18:24:25 00:18:25:29
* FROM CLIP NAME: /home/davidk/code/python/JC-render/JC-examples/yoga.mp4
FINAL CUT PRO REEL: N/A REPLACED BY: N/A

688   N/A  AA/V  C  00:18:26:27 00:18:27:13 00:18:25:29 00:18:26:14
* FROM CLIP NAME: /home/davidk/code/python/JC-render/JC-examples/yoga.mp4
FINAL CUT PRO REEL: N/A REPLACED BY: N/A

689   N/A  AA/V  C  00:18:27:13 00:18:30:05 00:18:26:14 00:18:29:06
* FROM CLIP NAME: /home/davidk/code/python/JC-render/JC-examples/yoga.mp4
FINAL CUT PRO REEL: N/A REPLACED BY: N/A

690   N/A  AA/V  C  00:18:30:05 00:18:31:29 00:18:29:06 00:18:31:00
* FROM CLIP NAME: /home/davidk/code/python/JC-render/JC-examples/yoga.mp4
FINAL CUT PRO REEL: N/A REPLACED BY: N/A

691   N/A  AA/V  C  00:18:31:29 00:18:32:04 00:18:31:00 00:18:31:05
* FROM CLIP NAME: /home/davidk/code/python/JC-render/JC-examples/yoga.mp4
FINAL CUT PRO REEL: N/A REPLACED BY: N/A

692   N/A  AA/V  C  00:18:32:04 00:18:33:03 00:18:31:05 00:18:32:05
* FROM CLIP NAME: /home/davidk/code/python/JC-render/JC-examples/yoga.mp4
FINAL CUT PRO REEL: N/A REPLACED BY: N/A

693   N/A  AA/V  C  00:18:33:03 00:18:34:17 00:18:32:05 00:18:33:18
* FROM CLIP NAME: /home/davidk/code/python/JC-render/JC-examples/yoga.mp4
FINAL CUT PRO REEL: N/A REPLACED BY: N/A

694   N/A  AA/V  C  00:18:34:17 00:18:35:03 00:18:33:18 00:18:34:04
* FROM CLIP NAME: /home/davidk/code/python/JC-render/JC-examples/yoga.mp4
FINAL CUT PRO REEL: N/A REPLACED BY: N/A

695   N/A  AA/V  C  00:18:35:03 00:18:41:02 00:18:34:04 00:18:40:03
* FROM CLIP NAME: /home/davidk/code/python/JC-render/JC-examples/yoga.mp4
FINAL CUT PRO REEL: N/A REPLACED BY: N/A

696   N/A  AA/V  C  00:18:41:02 00:18:41:18 00:18:40:03 00:18:40:19
* FROM CLIP NAME: /home/davidk/code/python/JC-render/JC-examples/yoga.mp4
FINAL CUT PRO REEL: N/A REPLACED BY: N/A

697   N/A  AA/V  C  00:18:41:18 00:18:48:15 00:18:40:19 00:18:47:16
* FROM CLIP NAME: /home/davidk/code/python/JC-render/JC-examples/yoga.mp4
FINAL CUT PRO REEL: N/A REPLACED BY: N/A

698   N/A  AA/V  C  00:18:48:15 00:18:50:12 00:18:47:16 00:18:49:14
* FROM CLIP NAME: /home/davidk/code/python/JC-render/JC-examples/yoga.mp4
FINAL CUT PRO REEL: N/A REPLACED BY: N/A

699   N/A  AA/V  C  00:18:50:12 00:18:50:28 00:18:49:14 00:18:49:29
* FROM CLIP NAME: /home/davidk/code/python/JC-render/JC-examples/yoga.mp4
FINAL CUT PRO REEL: N/A REPLACED BY: N/A

700   N/A  AA/V  C  00:18:50:28 00:18:51:14 00:18:49:29 00:18:50:15
* FROM CLIP NAME: /home/davidk/code/python/JC-render/JC-examples/yoga.mp4
FINAL CUT PRO REEL: N/A REPLACED BY: N/A

701   N/A  AA/V  C  00:18:51:14 00:18:53:08 00:18:50:15 00:18:52:09
* FROM CLIP NAME: /home/davidk/code/python/JC-render/JC-examples/yoga.mp4
FINAL CUT PRO REEL: N/A REPLACED BY: N/A

702   N/A  AA/V  C  00:18:53:08 00:18:54:14 00:18:52:09 00:18:53:16
* FROM CLIP NAME: /home/davidk/code/python/JC-render/JC-examples/yoga.mp4
FINAL CUT PRO REEL: N/A REPLACED BY: N/A

703   N/A  AA/V  C  00:18:54:14 00:18:54:16 00:18:53:16 00:18:53:17
* FROM CLIP NAME: /home/davidk/code/python/JC-render/JC-examples/yoga.mp4
FINAL CUT PRO REEL: N/A REPLACED BY: N/A

704   N/A  AA/V  C  00:18:54:16 00:18:55:02 00:18:53:17 00:18:54:03
* FROM CLIP NAME: /home/davidk/code/python/JC-render/JC-examples/yoga.mp4
FINAL CUT PRO REEL: N/A REPLACED BY: N/A

705   N/A  AA/V  C  00:18:55:02 00:18:56:29 00:18:54:03 00:18:56:01
* FROM CLIP NAME: /home/davidk/code/python/JC-render/JC-examples/yoga.mp4
FINAL CUT PRO REEL: N/A REPLACED BY: N/A

706   N/A  AA/V  C  00:18:56:29 00:18:59:07 00:18:56:01 00:18:58:08
* FROM CLIP NAME: /home/davidk/code/python/JC-render/JC-examples/yoga.mp4
FINAL CUT PRO REEL: N/A REPLACED BY: N/A

707   N/A  AA/V  C  00:18:59:07 00:19:00:03 00:18:58:08 00:18:59:05
* FROM CLIP NAME: /home/davidk/code/python/JC-render/JC-examples/yoga.mp4
FINAL CUT PRO REEL: N/A REPLACED BY: N/A

708   N/A  AA/V  C  00:19:00:03 00:19:03:26 00:18:59:05 00:19:02:28
* FROM CLIP NAME: /home/davidk/code/python/JC-render/JC-examples/yoga.mp4
FINAL CUT PRO REEL: N/A REPLACED BY: N/A

709   N/A  AA/V  C  00:19:03:26 00:19:04:12 00:19:02:28 00:19:03:14
* FROM CLIP NAME: /home/davidk/code/python/JC-render/JC-examples/yoga.mp4
FINAL CUT PRO REEL: N/A REPLACED BY: N/A

710   N/A  AA/V  C  00:19:04:12 00:19:05:15 00:19:03:14 00:19:04:16
* FROM CLIP NAME: /home/davidk/code/python/JC-render/JC-examples/yoga.mp4
FINAL CUT PRO REEL: N/A REPLACED BY: N/A

711   N/A  AA/V  C  00:19:05:15 00:19:05:24 00:19:04:16 00:19:04:25
* FROM CLIP NAME: /home/davidk/code/python/JC-render/JC-examples/yoga.mp4
FINAL CUT PRO REEL: N/A REPLACED BY: N/A

712   N/A  AA/V  C  00:19:05:24 00:19:08:19 00:19:04:25 00:19:07:20
* FROM CLIP NAME: /home/davidk/code/python/JC-render/JC-examples/yoga.mp4
FINAL CUT PRO REEL: N/A REPLACED BY: N/A

713   N/A  AA/V  C  00:19:08:19 00:19:08:25 00:19:07:20 00:19:07:26
* FROM CLIP NAME: /home/davidk/code/python/JC-render/JC-examples/yoga.mp4
FINAL CUT PRO REEL: N/A REPLACED BY: N/A

714   N/A  AA/V  C  00:19:08:25 00:19:13:05 00:19:07:26 00:19:12:06
* FROM CLIP NAME: /home/davidk/code/python/JC-render/JC-examples/yoga.mp4
FINAL CUT PRO REEL: N/A REPLACED BY: N/A

715   N/A  AA/V  C  00:19:13:05 00:19:15:24 00:19:12:06 00:19:14:25
* FROM CLIP NAME: /home/davidk/code/python/JC-render/JC-examples/yoga.mp4
FINAL CUT PRO REEL: N/A REPLACED BY: N/A

716   N/A  AA/V  C  00:19:15:24 00:19:16:09 00:19:14:25 00:19:15:10
* FROM CLIP NAME: /home/davidk/code/python/JC-render/JC-examples/yoga.mp4
FINAL CUT PRO REEL: N/A REPLACED BY: N/A

717   N/A  AA/V  C  00:19:16:09 00:19:21:07 00:19:15:10 00:19:20:09
* FROM CLIP NAME: /home/davidk/code/python/JC-render/JC-examples/yoga.mp4
FINAL CUT PRO REEL: N/A REPLACED BY: N/A

718   N/A  AA/V  C  00:19:21:07 00:19:24:16 00:19:20:09 00:19:23:18
* FROM CLIP NAME: /home/davidk/code/python/JC-render/JC-examples/yoga.mp4
FINAL CUT PRO REEL: N/A REPLACED BY: N/A

719   N/A  AA/V  C  00:19:24:16 00:19:25:20 00:19:23:18 00:19:24:21
* FROM CLIP NAME: /home/davidk/code/python/JC-render/JC-examples/yoga.mp4
FINAL CUT PRO REEL: N/A REPLACED BY: N/A

720   N/A  AA/V  C  00:19:25:20 00:19:26:16 00:19:24:21 00:19:25:17
* FROM CLIP NAME: /home/davidk/code/python/JC-render/JC-examples/yoga.mp4
FINAL CUT PRO REEL: N/A REPLACED BY: N/A

721   N/A  AA/V  C  00:19:26:16 00:19:28:06 00:19:25:17 00:19:27:08
* FROM CLIP NAME: /home/davidk/code/python/JC-render/JC-examples/yoga.mp4
FINAL CUT PRO REEL: N/A REPLACED BY: N/A

722   N/A  AA/V  C  00:19:28:06 00:19:31:29 00:19:27:08 00:19:31:01
* FROM CLIP NAME: /home/davidk/code/python/JC-render/JC-examples/yoga.mp4
FINAL CUT PRO REEL: N/A REPLACED BY: N/A

723   N/A  AA/V  C  00:19:31:29 00:19:33:10 00:19:31:01 00:19:32:11
* FROM CLIP NAME: /home/davidk/code/python/JC-render/JC-examples/yoga.mp4
FINAL CUT PRO REEL: N/A REPLACED BY: N/A

724   N/A  AA/V  C  00:19:33:10 00:19:34:23 00:19:32:11 00:19:33:24
* FROM CLIP NAME: /home/davidk/code/python/JC-render/JC-examples/yoga.mp4
FINAL CUT PRO REEL: N/A REPLACED BY: N/A

725   N/A  AA/V  C  00:19:34:23 00:19:35:02 00:19:33:24 00:19:34:03
* FROM CLIP NAME: /home/davidk/code/python/JC-render/JC-examples/yoga.mp4
FINAL CUT PRO REEL: N/A REPLACED BY: N/A

726   N/A  AA/V  C  00:19:35:02 00:19:37:20 00:19:34:03 00:19:36:21
* FROM CLIP NAME: /home/davidk/code/python/JC-render/JC-examples/yoga.mp4
FINAL CUT PRO REEL: N/A REPLACED BY: N/A

727   N/A  AA/V  C  00:19:37:20 00:19:39:28 00:19:36:21 00:19:38:29
* FROM CLIP NAME: /home/davidk/code/python/JC-render/JC-examples/yoga.mp4
FINAL CUT PRO REEL: N/A REPLACED BY: N/A

728   N/A  AA/V  C  00:19:39:28 00:19:41:18 00:19:38:29 00:19:40:20
* FROM CLIP NAME: /home/davidk/code/python/JC-render/JC-examples/yoga.mp4
FINAL CUT PRO REEL: N/A REPLACED BY: N/A

729   N/A  AA/V  C  00:19:41:18 00:19:42:08 00:19:40:20 00:19:41:09
* FROM CLIP NAME: /home/davidk/code/python/JC-render/JC-examples/yoga.mp4
FINAL CUT PRO REEL: N/A REPLACED BY: N/A

730   N/A  AA/V  C  00:19:42:08 00:19:48:00 00:19:41:09 00:19:47:01
* FROM CLIP NAME: /home/davidk/code/python/JC-render/JC-examples/yoga.mp4
FINAL CUT PRO REEL: N/A REPLACED BY: N/A

731   N/A  AA/V  C  00:19:48:00 00:19:48:02 00:19:47:01 00:19:47:03
* FROM CLIP NAME: /home/davidk/code/python/JC-render/JC-examples/yoga.mp4
FINAL CUT PRO REEL: N/A REPLACED BY: N/A

732   N/A  AA/V  C  00:19:48:02 00:19:48:17 00:19:47:03 00:19:47:19
* FROM CLIP NAME: /home/davidk/code/python/JC-render/JC-examples/yoga.mp4
FINAL CUT PRO REEL: N/A REPLACED BY: N/A

733   N/A  AA/V  C  00:19:48:17 00:19:49:17 00:19:47:19 00:19:48:18
* FROM CLIP NAME: /home/davidk/code/python/JC-render/JC-examples/yoga.mp4
FINAL CUT PRO REEL: N/A REPLACED BY: N/A

734   N/A  AA/V  C  00:19:49:17 00:19:54:15 00:19:48:18 00:19:53:16
* FROM CLIP NAME: /home/davidk/code/python/JC-render/JC-examples/yoga.mp4
FINAL CUT PRO REEL: N/A REPLACED BY: N/A

735   N/A  AA/V  C  00:19:54:15 00:19:55:18 00:19:53:16 00:19:54:20
* FROM CLIP NAME: /home/davidk/code/python/JC-render/JC-examples/yoga.mp4
FINAL CUT PRO REEL: N/A REPLACED BY: N/A

736   N/A  AA/V  C  00:19:55:18 00:19:58:13 00:19:54:20 00:19:57:15
* FROM CLIP NAME: /home/davidk/code/python/JC-render/JC-examples/yoga.mp4
FINAL CUT PRO REEL: N/A REPLACED BY: N/A

737   N/A  AA/V  C  00:19:58:13 00:19:58:15 00:19:57:15 00:19:57:17
* FROM CLIP NAME: /home/davidk/code/python/JC-render/JC-examples/yoga.mp4
FINAL CUT PRO REEL: N/A REPLACED BY: N/A

738   N/A  AA/V  C  00:19:58:15 00:20:00:09 00:19:57:17 00:19:59:10
* FROM CLIP NAME: /home/davidk/code/python/JC-render/JC-examples/yoga.mp4
FINAL CUT PRO REEL: N/A REPLACED BY: N/A

739   N/A  AA/V  C  00:20:00:09 00:20:03:05 00:19:59:10 00:20:02:06
* FROM CLIP NAME: /home/davidk/code/python/JC-render/JC-examples/yoga.mp4
FINAL CUT PRO REEL: N/A REPLACED BY: N/A

740   N/A  AA/V  C  00:20:03:05 00:20:04:29 00:20:02:06 00:20:04:00
* FROM CLIP NAME: /home/davidk/code/python/JC-render/JC-examples/yoga.mp4
FINAL CUT PRO REEL: N/A REPLACED BY: N/A

741   N/A  AA/V  C  00:20:04:29 00:20:05:00 00:20:04:00 00:20:04:02
* FROM CLIP NAME: /home/davidk/code/python/JC-render/JC-examples/yoga.mp4
FINAL CUT PRO REEL: N/A REPLACED BY: N/A

742   N/A  AA/V  C  00:20:05:00 00:20:06:07 00:20:04:02 00:20:05:08
* FROM CLIP NAME: /home/davidk/code/python/JC-render/JC-examples/yoga.mp4
FINAL CUT PRO REEL: N/A REPLACED BY: N/A

743   N/A  AA/V  C  00:20:06:07 00:20:06:23 00:20:05:08 00:20:05:24
* FROM CLIP NAME: /home/davidk/code/python/JC-render/JC-examples/yoga.mp4
FINAL CUT PRO REEL: N/A REPLACED BY: N/A

744   N/A  AA/V  C  00:20:06:23 00:20:09:07 00:20:05:24 00:20:08:09
* FROM CLIP NAME: /home/davidk/code/python/JC-render/JC-examples/yoga.mp4
FINAL CUT PRO REEL: N/A REPLACED BY: N/A

745   N/A  AA/V  C  00:20:09:07 00:20:09:13 00:20:08:09 00:20:08:14
* FROM CLIP NAME: /home/davidk/code/python/JC-render/JC-examples/yoga.mp4
FINAL CUT PRO REEL: N/A REPLACED BY: N/A

746   N/A  AA/V  C  00:20:09:13 00:20:11:14 00:20:08:14 00:20:10:15
* FROM CLIP NAME: /home/davidk/code/python/JC-render/JC-examples/yoga.mp4
FINAL CUT PRO REEL: N/A REPLACED BY: N/A

747   N/A  AA/V  C  00:20:11:14 00:20:11:19 00:20:10:15 00:20:10:20
* FROM CLIP NAME: /home/davidk/code/python/JC-render/JC-examples/yoga.mp4
FINAL CUT PRO REEL: N/A REPLACED BY: N/A

748   N/A  AA/V  C  00:20:11:19 00:20:14:28 00:20:10:20 00:20:13:29
* FROM CLIP NAME: /home/davidk/code/python/JC-render/JC-examples/yoga.mp4
FINAL CUT PRO REEL: N/A REPLACED BY: N/A

749   N/A  AA/V  C  00:20:14:28 00:20:15:10 00:20:13:29 00:20:14:12
* FROM CLIP NAME: /home/davidk/code/python/JC-render/JC-examples/yoga.mp4
FINAL CUT PRO REEL: N/A REPLACED BY: N/A

750   N/A  AA/V  C  00:20:15:10 00:20:17:25 00:20:14:12 00:20:16:26
* FROM CLIP NAME: /home/davidk/code/python/JC-render/JC-examples/yoga.mp4
FINAL CUT PRO REEL: N/A REPLACED BY: N/A

751   N/A  AA/V  C  00:20:17:25 00:20:18:28 00:20:16:26 00:20:18:00
* FROM CLIP NAME: /home/davidk/code/python/JC-render/JC-examples/yoga.mp4
FINAL CUT PRO REEL: N/A REPLACED BY: N/A

752   N/A  AA/V  C  00:20:18:28 00:20:21:27 00:20:18:00 00:20:20:28
* FROM CLIP NAME: /home/davidk/code/python/JC-render/JC-examples/yoga.mp4
FINAL CUT PRO REEL: N/A REPLACED BY: N/A

753   N/A  AA/V  C  00:20:21:27 00:20:22:02 00:20:20:28 00:20:21:04
* FROM CLIP NAME: /home/davidk/code/python/JC-render/JC-examples/yoga.mp4
FINAL CUT PRO REEL: N/A REPLACED BY: N/A

754   N/A  AA/V  C  00:20:22:02 00:20:23:19 00:20:21:04 00:20:22:20
* FROM CLIP NAME: /home/davidk/code/python/JC-render/JC-examples/yoga.mp4
FINAL CUT PRO REEL: N/A REPLACED BY: N/A

755   N/A  AA/V  C  00:20:23:19 00:20:23:28 00:20:22:20 00:20:22:29
* FROM CLIP NAME: /home/davidk/code/python/JC-render/JC-examples/yoga.mp4
FINAL CUT PRO REEL: N/A REPLACED BY: N/A

756   N/A  AA/V  C  00:20:23:28 00:20:24:14 00:20:22:29 00:20:23:15
* FROM CLIP NAME: /home/davidk/code/python/JC-render/JC-examples/yoga.mp4
FINAL CUT PRO REEL: N/A REPLACED BY: N/A

757   N/A  AA/V  C  00:20:24:14 00:20:24:23 00:20:23:15 00:20:23:24
* FROM CLIP NAME: /home/davidk/code/python/JC-render/JC-examples/yoga.mp4
FINAL CUT PRO REEL: N/A REPLACED BY: N/A

758   N/A  AA/V  C  00:20:24:23 00:20:26:09 00:20:23:24 00:20:25:11
* FROM CLIP NAME: /home/davidk/code/python/JC-render/JC-examples/yoga.mp4
FINAL CUT PRO REEL: N/A REPLACED BY: N/A

759   N/A  AA/V  C  00:20:26:09 00:20:26:18 00:20:25:11 00:20:25:19
* FROM CLIP NAME: /home/davidk/code/python/JC-render/JC-examples/yoga.mp4
FINAL CUT PRO REEL: N/A REPLACED BY: N/A

760   N/A  AA/V  C  00:20:26:18 00:20:27:07 00:20:25:19 00:20:26:08
* FROM CLIP NAME: /home/davidk/code/python/JC-render/JC-examples/yoga.mp4
FINAL CUT PRO REEL: N/A REPLACED BY: N/A

761   N/A  AA/V  C  00:20:27:07 00:20:27:23 00:20:26:08 00:20:26:24
* FROM CLIP NAME: /home/davidk/code/python/JC-render/JC-examples/yoga.mp4
FINAL CUT PRO REEL: N/A REPLACED BY: N/A

762   N/A  AA/V  C  00:20:27:23 00:20:28:12 00:20:26:24 00:20:27:13
* FROM CLIP NAME: /home/davidk/code/python/JC-render/JC-examples/yoga.mp4
FINAL CUT PRO REEL: N/A REPLACED BY: N/A

763   N/A  AA/V  C  00:20:28:12 00:20:29:12 00:20:27:13 00:20:28:13
* FROM CLIP NAME: /home/davidk/code/python/JC-render/JC-examples/yoga.mp4
FINAL CUT PRO REEL: N/A REPLACED BY: N/A

764   N/A  AA/V  C  00:20:29:12 00:20:29:27 00:20:28:13 00:20:28:29
* FROM CLIP NAME: /home/davidk/code/python/JC-render/JC-examples/yoga.mp4
FINAL CUT PRO REEL: N/A REPLACED BY: N/A

765   N/A  AA/V  C  00:20:29:27 00:20:30:06 00:20:28:29 00:20:29:07
* FROM CLIP NAME: /home/davidk/code/python/JC-render/JC-examples/yoga.mp4
FINAL CUT PRO REEL: N/A REPLACED BY: N/A

766   N/A  AA/V  C  00:20:30:06 00:20:30:22 00:20:29:07 00:20:29:23
* FROM CLIP NAME: /home/davidk/code/python/JC-render/JC-examples/yoga.mp4
FINAL CUT PRO REEL: N/A REPLACED BY: N/A

767   N/A  AA/V  C  00:20:30:22 00:20:33:00 00:20:29:23 00:20:32:01
* FROM CLIP NAME: /home/davidk/code/python/JC-render/JC-examples/yoga.mp4
FINAL CUT PRO REEL: N/A REPLACED BY: N/A

768   N/A  AA/V  C  00:20:33:00 00:20:33:15 00:20:32:01 00:20:32:17
* FROM CLIP NAME: /home/davidk/code/python/JC-render/JC-examples/yoga.mp4
FINAL CUT PRO REEL: N/A REPLACED BY: N/A

769   N/A  AA/V  C  00:20:33:15 00:20:42:15 00:20:32:17 00:20:41:17
* FROM CLIP NAME: /home/davidk/code/python/JC-render/JC-examples/yoga.mp4
FINAL CUT PRO REEL: N/A REPLACED BY: N/A

770   N/A  AA/V  C  00:20:42:15 00:20:45:18 00:20:41:17 00:20:44:19
* FROM CLIP NAME: /home/davidk/code/python/JC-render/JC-examples/yoga.mp4
FINAL CUT PRO REEL: N/A REPLACED BY: N/A

771   N/A  AA/V  C  00:20:45:18 00:20:45:26 00:20:44:19 00:20:44:28
* FROM CLIP NAME: /home/davidk/code/python/JC-render/JC-examples/yoga.mp4
FINAL CUT PRO REEL: N/A REPLACED BY: N/A

772   N/A  AA/V  C  00:20:45:26 00:20:48:04 00:20:44:28 00:20:47:05
* FROM CLIP NAME: /home/davidk/code/python/JC-render/JC-examples/yoga.mp4
FINAL CUT PRO REEL: N/A REPLACED BY: N/A

773   N/A  AA/V  C  00:20:48:04 00:20:48:17 00:20:47:05 00:20:47:18
* FROM CLIP NAME: /home/davidk/code/python/JC-render/JC-examples/yoga.mp4
FINAL CUT PRO REEL: N/A REPLACED BY: N/A

774   N/A  AA/V  C  00:20:48:17 00:20:49:02 00:20:47:18 00:20:48:03
* FROM CLIP NAME: /home/davidk/code/python/JC-render/JC-examples/yoga.mp4
FINAL CUT PRO REEL: N/A REPLACED BY: N/A

775   N/A  AA/V  C  00:20:49:02 00:20:50:05 00:20:48:03 00:20:49:07
* FROM CLIP NAME: /home/davidk/code/python/JC-render/JC-examples/yoga.mp4
FINAL CUT PRO REEL: N/A REPLACED BY: N/A

776   N/A  AA/V  C  00:20:50:05 00:20:51:29 00:20:49:07 00:20:51:00
* FROM CLIP NAME: /home/davidk/code/python/JC-render/JC-examples/yoga.mp4
FINAL CUT PRO REEL: N/A REPLACED BY: N/A

777   N/A  AA/V  C  00:20:51:29 00:20:52:05 00:20:51:00 00:20:51:06
* FROM CLIP NAME: /home/davidk/code/python/JC-render/JC-examples/yoga.mp4
FINAL CUT PRO REEL: N/A REPLACED BY: N/A

778   N/A  AA/V  C  00:20:52:05 00:20:54:09 00:20:51:06 00:20:53:10
* FROM CLIP NAME: /home/davidk/code/python/JC-render/JC-examples/yoga.mp4
FINAL CUT PRO REEL: N/A REPLACED BY: N/A

779   N/A  AA/V  C  00:20:54:09 00:20:55:26 00:20:53:10 00:20:54:27
* FROM CLIP NAME: /home/davidk/code/python/JC-render/JC-examples/yoga.mp4
FINAL CUT PRO REEL: N/A REPLACED BY: N/A

780   N/A  AA/V  C  00:20:55:26 00:20:56:11 00:20:54:27 00:20:55:13
* FROM CLIP NAME: /home/davidk/code/python/JC-render/JC-examples/yoga.mp4
FINAL CUT PRO REEL: N/A REPLACED BY: N/A

781   N/A  AA/V  C  00:20:56:11 00:20:56:17 00:20:55:13 00:20:55:18
* FROM CLIP NAME: /home/davidk/code/python/JC-render/JC-examples/yoga.mp4
FINAL CUT PRO REEL: N/A REPLACED BY: N/A

782   N/A  AA/V  C  00:20:56:17 00:20:57:02 00:20:55:18 00:20:56:04
* FROM CLIP NAME: /home/davidk/code/python/JC-render/JC-examples/yoga.mp4
FINAL CUT PRO REEL: N/A REPLACED BY: N/A

783   N/A  AA/V  C  00:20:57:02 00:21:00:05 00:20:56:04 00:20:59:06
* FROM CLIP NAME: /home/davidk/code/python/JC-render/JC-examples/yoga.mp4
FINAL CUT PRO REEL: N/A REPLACED BY: N/A

784   N/A  AA/V  C  00:21:00:05 00:21:00:20 00:20:59:06 00:20:59:22
* FROM CLIP NAME: /home/davidk/code/python/JC-render/JC-examples/yoga.mp4
FINAL CUT PRO REEL: N/A REPLACED BY: N/A

785   N/A  AA/V  C  00:21:00:20 00:21:00:26 00:20:59:22 00:20:59:27
* FROM CLIP NAME: /home/davidk/code/python/JC-render/JC-examples/yoga.mp4
FINAL CUT PRO REEL: N/A REPLACED BY: N/A

786   N/A  AA/V  C  00:21:00:26 00:21:02:16 00:20:59:27 00:21:01:17
* FROM CLIP NAME: /home/davidk/code/python/JC-render/JC-examples/yoga.mp4
FINAL CUT PRO REEL: N/A REPLACED BY: N/A

787   N/A  AA/V  C  00:21:02:16 00:21:03:12 00:21:01:17 00:21:02:14
* FROM CLIP NAME: /home/davidk/code/python/JC-render/JC-examples/yoga.mp4
FINAL CUT PRO REEL: N/A REPLACED BY: N/A

788   N/A  AA/V  C  00:21:03:12 00:21:08:07 00:21:02:14 00:21:07:08
* FROM CLIP NAME: /home/davidk/code/python/JC-render/JC-examples/yoga.mp4
FINAL CUT PRO REEL: N/A REPLACED BY: N/A

789   N/A  AA/V  C  00:21:08:07 00:21:08:23 00:21:07:08 00:21:07:24
* FROM CLIP NAME: /home/davidk/code/python/JC-render/JC-examples/yoga.mp4
FINAL CUT PRO REEL: N/A REPLACED BY: N/A

790   N/A  AA/V  C  00:21:08:23 00:21:13:10 00:21:07:24 00:21:12:11
* FROM CLIP NAME: /home/davidk/code/python/JC-render/JC-examples/yoga.mp4
FINAL CUT PRO REEL: N/A REPLACED BY: N/A

791   N/A  AA/V  C  00:21:13:10 00:21:16:13 00:21:12:11 00:21:15:14
* FROM CLIP NAME: /home/davidk/code/python/JC-render/JC-examples/yoga.mp4
FINAL CUT PRO REEL: N/A REPLACED BY: N/A

792   N/A  AA/V  C  00:21:16:13 00:21:16:28 00:21:15:14 00:21:15:29
* FROM CLIP NAME: /home/davidk/code/python/JC-render/JC-examples/yoga.mp4
FINAL CUT PRO REEL: N/A REPLACED BY: N/A

793   N/A  AA/V  C  00:21:16:28 00:21:20:14 00:21:15:29 00:21:19:16
* FROM CLIP NAME: /home/davidk/code/python/JC-render/JC-examples/yoga.mp4
FINAL CUT PRO REEL: N/A REPLACED BY: N/A

794   N/A  AA/V  C  00:21:20:14 00:21:26:03 00:21:19:16 00:21:25:04
* FROM CLIP NAME: /home/davidk/code/python/JC-render/JC-examples/yoga.mp4
FINAL CUT PRO REEL: N/A REPLACED BY: N/A

795   N/A  AA/V  C  00:21:26:03 00:21:28:08 00:21:25:04 00:21:27:09
* FROM CLIP NAME: /home/davidk/code/python/JC-render/JC-examples/yoga.mp4
FINAL CUT PRO REEL: N/A REPLACED BY: N/A

796   N/A  AA/V  C  00:21:28:08 00:21:38:16 00:21:27:09 00:21:37:17
* FROM CLIP NAME: /home/davidk/code/python/JC-render/JC-examples/yoga.mp4
FINAL CUT PRO REEL: N/A REPLACED BY: N/A

797   N/A  AA/V  C  00:21:38:16 00:21:38:18 00:21:37:17 00:21:37:19
* FROM CLIP NAME: /home/davidk/code/python/JC-render/JC-examples/yoga.mp4
FINAL CUT PRO REEL: N/A REPLACED BY: N/A

798   N/A  AA/V  C  00:21:38:18 00:21:46:13 00:21:37:19 00:21:45:14
* FROM CLIP NAME: /home/davidk/code/python/JC-render/JC-examples/yoga.mp4
FINAL CUT PRO REEL: N/A REPLACED BY: N/A

799   N/A  AA/V  C  00:21:46:13 00:21:46:15 00:21:45:14 00:21:45:16
* FROM CLIP NAME: /home/davidk/code/python/JC-render/JC-examples/yoga.mp4
FINAL CUT PRO REEL: N/A REPLACED BY: N/A

800   N/A  AA/V  C  00:21:46:15 00:21:52:17 00:21:45:16 00:21:51:18
* FROM CLIP NAME: /home/davidk/code/python/JC-render/JC-examples/yoga.mp4
FINAL CUT PRO REEL: N/A REPLACED BY: N/A

801   N/A  AA/V  C  00:21:52:17 00:21:52:19 00:21:51:18 00:21:51:20
* FROM CLIP NAME: /home/davidk/code/python/JC-render/JC-examples/yoga.mp4
FINAL CUT PRO REEL: N/A REPLACED BY: N/A

802   N/A  AA/V  C  00:21:52:19 00:21:57:21 00:21:51:20 00:21:56:22
* FROM CLIP NAME: /home/davidk/code/python/JC-render/JC-examples/yoga.mp4
FINAL CUT PRO REEL: N/A REPLACED BY: N/A

803   N/A  AA/V  C  00:21:57:21 00:22:03:06 00:21:56:22 00:22:02:07
* FROM CLIP NAME: /home/davidk/code/python/JC-render/JC-examples/yoga.mp4
FINAL CUT PRO REEL: N/A REPLACED BY: N/A

804   N/A  AA/V  C  00:22:03:06 00:22:03:22 00:22:02:07 00:22:02:23
* FROM CLIP NAME: /home/davidk/code/python/JC-render/JC-examples/yoga.mp4
FINAL CUT PRO REEL: N/A REPLACED BY: N/A

805   N/A  AA/V  C  00:22:03:22 00:22:03:24 00:22:02:23 00:22:02:25
* FROM CLIP NAME: /home/davidk/code/python/JC-render/JC-examples/yoga.mp4
FINAL CUT PRO REEL: N/A REPLACED BY: N/A

806   N/A  AA/V  C  00:22:03:24 00:22:07:10 00:22:02:25 00:22:06:11
* FROM CLIP NAME: /home/davidk/code/python/JC-render/JC-examples/yoga.mp4
FINAL CUT PRO REEL: N/A REPLACED BY: N/A

807   N/A  AA/V  C  00:22:07:10 00:22:10:23 00:22:06:11 00:22:09:24
* FROM CLIP NAME: /home/davidk/code/python/JC-render/JC-examples/yoga.mp4
FINAL CUT PRO REEL: N/A REPLACED BY: N/A

808   N/A  AA/V  C  00:22:10:23 00:22:13:28 00:22:09:24 00:22:12:29
* FROM CLIP NAME: /home/davidk/code/python/JC-render/JC-examples/yoga.mp4
FINAL CUT PRO REEL: N/A REPLACED BY: N/A

809   N/A  AA/V  C  00:22:13:28 00:22:14:04 00:22:12:29 00:22:13:05
* FROM CLIP NAME: /home/davidk/code/python/JC-render/JC-examples/yoga.mp4
FINAL CUT PRO REEL: N/A REPLACED BY: N/A

810   N/A  AA/V  C  00:22:14:04 00:22:19:26 00:22:13:05 00:22:18:27
* FROM CLIP NAME: /home/davidk/code/python/JC-render/JC-examples/yoga.mp4
FINAL CUT PRO REEL: N/A REPLACED BY: N/A

811   N/A  AA/V  C  00:22:19:26 00:22:20:05 00:22:18:27 00:22:19:06
* FROM CLIP NAME: /home/davidk/code/python/JC-render/JC-examples/yoga.mp4
FINAL CUT PRO REEL: N/A REPLACED BY: N/A

812   N/A  AA/V  C  00:22:20:05 00:22:26:14 00:22:19:06 00:22:25:15
* FROM CLIP NAME: /home/davidk/code/python/JC-render/JC-examples/yoga.mp4
FINAL CUT PRO REEL: N/A REPLACED BY: N/A

813   N/A  AA/V  C  00:22:26:14 00:22:26:16 00:22:25:15 00:22:25:17
* FROM CLIP NAME: /home/davidk/code/python/JC-render/JC-examples/yoga.mp4
FINAL CUT PRO REEL: N/A REPLACED BY: N/A

814   N/A  AA/V  C  00:22:26:16 00:22:27:02 00:22:25:17 00:22:26:03
* FROM CLIP NAME: /home/davidk/code/python/JC-render/JC-examples/yoga.mp4
FINAL CUT PRO REEL: N/A REPLACED BY: N/A

815   N/A  AA/V  C  00:22:27:02 00:22:28:12 00:22:26:03 00:22:27:13
* FROM CLIP NAME: /home/davidk/code/python/JC-render/JC-examples/yoga.mp4
FINAL CUT PRO REEL: N/A REPLACED BY: N/A

816   N/A  AA/V  C  00:22:28:12 00:22:28:27 00:22:27:13 00:22:27:29
* FROM CLIP NAME: /home/davidk/code/python/JC-render/JC-examples/yoga.mp4
FINAL CUT PRO REEL: N/A REPLACED BY: N/A

817   N/A  AA/V  C  00:22:28:27 00:22:30:04 00:22:27:29 00:22:29:05
* FROM CLIP NAME: /home/davidk/code/python/JC-render/JC-examples/yoga.mp4
FINAL CUT PRO REEL: N/A REPLACED BY: N/A

818   N/A  AA/V  C  00:22:30:04 00:22:30:20 00:22:29:05 00:22:29:21
* FROM CLIP NAME: /home/davidk/code/python/JC-render/JC-examples/yoga.mp4
FINAL CUT PRO REEL: N/A REPLACED BY: N/A

819   N/A  AA/V  C  00:22:30:20 00:22:32:24 00:22:29:21 00:22:31:25
* FROM CLIP NAME: /home/davidk/code/python/JC-render/JC-examples/yoga.mp4
FINAL CUT PRO REEL: N/A REPLACED BY: N/A

820   N/A  AA/V  C  00:22:32:24 00:22:33:10 00:22:31:25 00:22:32:11
* FROM CLIP NAME: /home/davidk/code/python/JC-render/JC-examples/yoga.mp4
FINAL CUT PRO REEL: N/A REPLACED BY: N/A

821   N/A  AA/V  C  00:22:33:10 00:22:35:07 00:22:32:11 00:22:34:09
* FROM CLIP NAME: /home/davidk/code/python/JC-render/JC-examples/yoga.mp4
FINAL CUT PRO REEL: N/A REPLACED BY: N/A

822   N/A  AA/V  C  00:22:35:07 00:22:36:24 00:22:34:09 00:22:35:25
* FROM CLIP NAME: /home/davidk/code/python/JC-render/JC-examples/yoga.mp4
FINAL CUT PRO REEL: N/A REPLACED BY: N/A

823   N/A  AA/V  C  00:22:36:24 00:22:37:14 00:22:35:25 00:22:36:15
* FROM CLIP NAME: /home/davidk/code/python/JC-render/JC-examples/yoga.mp4
FINAL CUT PRO REEL: N/A REPLACED BY: N/A

824   N/A  AA/V  C  00:22:37:14 00:22:39:25 00:22:36:15 00:22:38:26
* FROM CLIP NAME: /home/davidk/code/python/JC-render/JC-examples/yoga.mp4
FINAL CUT PRO REEL: N/A REPLACED BY: N/A

825   N/A  AA/V  C  00:22:39:25 00:22:42:24 00:22:38:26 00:22:41:25
* FROM CLIP NAME: /home/davidk/code/python/JC-render/JC-examples/yoga.mp4
FINAL CUT PRO REEL: N/A REPLACED BY: N/A

826   N/A  AA/V  C  00:22:42:24 00:22:47:08 00:22:41:25 00:22:46:09
* FROM CLIP NAME: /home/davidk/code/python/JC-render/JC-examples/yoga.mp4
FINAL CUT PRO REEL: N/A REPLACED BY: N/A

827   N/A  AA/V  C  00:22:47:08 00:22:47:17 00:22:46:09 00:22:46:18
* FROM CLIP NAME: /home/davidk/code/python/JC-render/JC-examples/yoga.mp4
FINAL CUT PRO REEL: N/A REPLACED BY: N/A

828   N/A  AA/V  C  00:22:47:17 00:22:49:24 00:22:46:18 00:22:48:26
* FROM CLIP NAME: /home/davidk/code/python/JC-render/JC-examples/yoga.mp4
FINAL CUT PRO REEL: N/A REPLACED BY: N/A

829   N/A  AA/V  C  00:22:49:24 00:22:51:01 00:22:48:26 00:22:50:02
* FROM CLIP NAME: /home/davidk/code/python/JC-render/JC-examples/yoga.mp4
FINAL CUT PRO REEL: N/A REPLACED BY: N/A

830   N/A  AA/V  C  00:22:51:01 00:22:53:05 00:22:50:02 00:22:52:07
* FROM CLIP NAME: /home/davidk/code/python/JC-render/JC-examples/yoga.mp4
FINAL CUT PRO REEL: N/A REPLACED BY: N/A

831   N/A  AA/V  C  00:22:53:05 00:22:53:21 00:22:52:07 00:22:52:22
* FROM CLIP NAME: /home/davidk/code/python/JC-render/JC-examples/yoga.mp4
FINAL CUT PRO REEL: N/A REPLACED BY: N/A

832   N/A  AA/V  C  00:22:53:21 00:22:57:18 00:22:52:22 00:22:56:19
* FROM CLIP NAME: /home/davidk/code/python/JC-render/JC-examples/yoga.mp4
FINAL CUT PRO REEL: N/A REPLACED BY: N/A

833   N/A  AA/V  C  00:22:57:18 00:22:58:07 00:22:56:19 00:22:57:08
* FROM CLIP NAME: /home/davidk/code/python/JC-render/JC-examples/yoga.mp4
FINAL CUT PRO REEL: N/A REPLACED BY: N/A

834   N/A  AA/V  C  00:22:58:07 00:22:59:17 00:22:57:08 00:22:58:18
* FROM CLIP NAME: /home/davidk/code/python/JC-render/JC-examples/yoga.mp4
FINAL CUT PRO REEL: N/A REPLACED BY: N/A

835   N/A  AA/V  C  00:22:59:17 00:23:00:06 00:22:58:18 00:22:59:07
* FROM CLIP NAME: /home/davidk/code/python/JC-render/JC-examples/yoga.mp4
FINAL CUT PRO REEL: N/A REPLACED BY: N/A

836   N/A  AA/V  C  00:23:00:06 00:23:00:29 00:22:59:07 00:23:00:00
* FROM CLIP NAME: /home/davidk/code/python/JC-render/JC-examples/yoga.mp4
FINAL CUT PRO REEL: N/A REPLACED BY: N/A

837   N/A  AA/V  C  00:23:00:29 00:23:01:01 00:23:00:00 00:23:00:02
* FROM CLIP NAME: /home/davidk/code/python/JC-render/JC-examples/yoga.mp4
FINAL CUT PRO REEL: N/A REPLACED BY: N/A

838   N/A  AA/V  C  00:23:01:01 00:23:01:20 00:23:00:02 00:23:00:21
* FROM CLIP NAME: /home/davidk/code/python/JC-render/JC-examples/yoga.mp4
FINAL CUT PRO REEL: N/A REPLACED BY: N/A

839   N/A  AA/V  C  00:23:01:20 00:23:19:04 00:23:00:21 00:23:18:05
* FROM CLIP NAME: /home/davidk/code/python/JC-render/JC-examples/yoga.mp4
FINAL CUT PRO REEL: N/A REPLACED BY: N/A

840   N/A  AA/V  C  00:23:19:04 00:23:20:17 00:23:18:05 00:23:19:19
* FROM CLIP NAME: /home/davidk/code/python/JC-render/JC-examples/yoga.mp4
FINAL CUT PRO REEL: N/A REPLACED BY: N/A

841   N/A  AA/V  C  00:23:20:17 00:23:21:03 00:23:19:19 00:23:20:04
* FROM CLIP NAME: /home/davidk/code/python/JC-render/JC-examples/yoga.mp4
FINAL CUT PRO REEL: N/A REPLACED BY: N/A

842   N/A  AA/V  C  00:23:21:03 00:23:23:25 00:23:20:04 00:23:22:26
* FROM CLIP NAME: /home/davidk/code/python/JC-render/JC-examples/yoga.mp4
FINAL CUT PRO REEL: N/A REPLACED BY: N/A

843   N/A  AA/V  C  00:23:23:25 00:23:24:00 00:23:22:26 00:23:23:01
* FROM CLIP NAME: /home/davidk/code/python/JC-render/JC-examples/yoga.mp4
FINAL CUT PRO REEL: N/A REPLACED BY: N/A

844   N/A  AA/V  C  00:23:24:00 00:23:24:16 00:23:23:01 00:23:23:17
* FROM CLIP NAME: /home/davidk/code/python/JC-render/JC-examples/yoga.mp4
FINAL CUT PRO REEL: N/A REPLACED BY: N/A

845   N/A  AA/V  C  00:23:24:16 00:23:25:02 00:23:23:17 00:23:24:03
* FROM CLIP NAME: /home/davidk/code/python/JC-render/JC-examples/yoga.mp4
FINAL CUT PRO REEL: N/A REPLACED BY: N/A

846   N/A  AA/V  C  00:23:25:02 00:23:26:29 00:23:24:03 00:23:26:00
* FROM CLIP NAME: /home/davidk/code/python/JC-render/JC-examples/yoga.mp4
FINAL CUT PRO REEL: N/A REPLACED BY: N/A

847   N/A  AA/V  C  00:23:26:29 00:23:27:08 00:23:26:00 00:23:26:09
* FROM CLIP NAME: /home/davidk/code/python/JC-render/JC-examples/yoga.mp4
FINAL CUT PRO REEL: N/A REPLACED BY: N/A

848   N/A  AA/V  C  00:23:27:08 00:23:29:02 00:23:26:09 00:23:28:03
* FROM CLIP NAME: /home/davidk/code/python/JC-render/JC-examples/yoga.mp4
FINAL CUT PRO REEL: N/A REPLACED BY: N/A

849   N/A  AA/V  C  00:23:29:02 00:23:31:17 00:23:28:03 00:23:30:18
* FROM CLIP NAME: /home/davidk/code/python/JC-render/JC-examples/yoga.mp4
FINAL CUT PRO REEL: N/A REPLACED BY: N/A

850   N/A  AA/V  C  00:23:31:17 00:23:32:16 00:23:30:18 00:23:31:17
* FROM CLIP NAME: /home/davidk/code/python/JC-render/JC-examples/yoga.mp4
FINAL CUT PRO REEL: N/A REPLACED BY: N/A

851   N/A  AA/V  C  00:23:32:16 00:23:33:19 00:23:31:17 00:23:32:21
* FROM CLIP NAME: /home/davidk/code/python/JC-render/JC-examples/yoga.mp4
FINAL CUT PRO REEL: N/A REPLACED BY: N/A

852   N/A  AA/V  C  00:23:33:19 00:23:35:06 00:23:32:21 00:23:34:07
* FROM CLIP NAME: /home/davidk/code/python/JC-render/JC-examples/yoga.mp4
FINAL CUT PRO REEL: N/A REPLACED BY: N/A

853   N/A  AA/V  C  00:23:35:06 00:23:57:03 00:23:34:07 00:23:56:04
* FROM CLIP NAME: /home/davidk/code/python/JC-render/JC-examples/yoga.mp4
FINAL CUT PRO REEL: N/A REPLACED BY: N/A

854   N/A  AA/V  C  00:23:57:03 00:23:58:13 00:23:56:04 00:23:57:14
* FROM CLIP NAME: /home/davidk/code/python/JC-render/JC-examples/yoga.mp4
FINAL CUT PRO REEL: N/A REPLACED BY: N/A

855   N/A  AA/V  C  00:23:58:13 00:23:58:29 00:23:57:14 00:23:58:00
* FROM CLIP NAME: /home/davidk/code/python/JC-render/JC-examples/yoga.mp4
FINAL CUT PRO REEL: N/A REPLACED BY: N/A

856   N/A  AA/V  C  00:23:58:29 00:24:00:02 00:23:58:00 00:23:59:03
* FROM CLIP NAME: /home/davidk/code/python/JC-render/JC-examples/yoga.mp4
FINAL CUT PRO REEL: N/A REPLACED BY: N/A

857   N/A  AA/V  C  00:24:00:02 00:24:00:24 00:23:59:03 00:23:59:26
* FROM CLIP NAME: /home/davidk/code/python/JC-render/JC-examples/yoga.mp4
FINAL CUT PRO REEL: N/A REPLACED BY: N/A

858   N/A  AA/V  C  00:24:00:24 00:24:04:14 00:23:59:26 00:24:03:15
* FROM CLIP NAME: /home/davidk/code/python/JC-render/JC-examples/yoga.mp4
FINAL CUT PRO REEL: N/A REPLACED BY: N/A

859   N/A  AA/V  C  00:24:04:14 00:24:05:10 00:24:03:15 00:24:04:11
* FROM CLIP NAME: /home/davidk/code/python/JC-render/JC-examples/yoga.mp4
FINAL CUT PRO REEL: N/A REPLACED BY: N/A

860   N/A  AA/V  C  00:24:05:10 00:24:08:12 00:24:04:11 00:24:07:14
* FROM CLIP NAME: /home/davidk/code/python/JC-render/JC-examples/yoga.mp4
FINAL CUT PRO REEL: N/A REPLACED BY: N/A

861   N/A  AA/V  C  00:24:08:12 00:24:08:28 00:24:07:14 00:24:07:29
* FROM CLIP NAME: /home/davidk/code/python/JC-render/JC-examples/yoga.mp4
FINAL CUT PRO REEL: N/A REPLACED BY: N/A

862   N/A  AA/V  C  00:24:08:28 00:24:10:08 00:24:07:29 00:24:09:09
* FROM CLIP NAME: /home/davidk/code/python/JC-render/JC-examples/yoga.mp4
FINAL CUT PRO REEL: N/A REPLACED BY: N/A

863   N/A  AA/V  C  00:24:10:08 00:24:11:29 00:24:09:09 00:24:11:00
* FROM CLIP NAME: /home/davidk/code/python/JC-render/JC-examples/yoga.mp4
FINAL CUT PRO REEL: N/A REPLACED BY: N/A

864   N/A  AA/V  C  00:24:11:29 00:24:13:19 00:24:11:00 00:24:12:20
* FROM CLIP NAME: /home/davidk/code/python/JC-render/JC-examples/yoga.mp4
FINAL CUT PRO REEL: N/A REPLACED BY: N/A

865   N/A  AA/V  C  00:24:13:19 00:24:14:12 00:24:12:20 00:24:13:13
* FROM CLIP NAME: /home/davidk/code/python/JC-render/JC-examples/yoga.mp4
FINAL CUT PRO REEL: N/A REPLACED BY: N/A

866   N/A  AA/V  C  00:24:14:12 00:24:16:09 00:24:13:13 00:24:15:10
* FROM CLIP NAME: /home/davidk/code/python/JC-render/JC-examples/yoga.mp4
FINAL CUT PRO REEL: N/A REPLACED BY: N/A

867   N/A  AA/V  C  00:24:16:09 00:24:16:11 00:24:15:10 00:24:15:12
* FROM CLIP NAME: /home/davidk/code/python/JC-render/JC-examples/yoga.mp4
FINAL CUT PRO REEL: N/A REPLACED BY: N/A

868   N/A  AA/V  C  00:24:16:11 00:24:18:08 00:24:15:12 00:24:17:10
* FROM CLIP NAME: /home/davidk/code/python/JC-render/JC-examples/yoga.mp4
FINAL CUT PRO REEL: N/A REPLACED BY: N/A

869   N/A  AA/V  C  00:24:18:08 00:24:18:17 00:24:17:10 00:24:17:18
* FROM CLIP NAME: /home/davidk/code/python/JC-render/JC-examples/yoga.mp4
FINAL CUT PRO REEL: N/A REPLACED BY: N/A

870   N/A  AA/V  C  00:24:18:17 00:24:19:27 00:24:17:18 00:24:18:28
* FROM CLIP NAME: /home/davidk/code/python/JC-render/JC-examples/yoga.mp4
FINAL CUT PRO REEL: N/A REPLACED BY: N/A

871   N/A  AA/V  C  00:24:19:27 00:24:20:03 00:24:18:28 00:24:19:04
* FROM CLIP NAME: /home/davidk/code/python/JC-render/JC-examples/yoga.mp4
FINAL CUT PRO REEL: N/A REPLACED BY: N/A

872   N/A  AA/V  C  00:24:20:03 00:24:21:12 00:24:19:04 00:24:20:14
* FROM CLIP NAME: /home/davidk/code/python/JC-render/JC-examples/yoga.mp4
FINAL CUT PRO REEL: N/A REPLACED BY: N/A

873   N/A  AA/V  C  00:24:21:12 00:24:38:02 00:24:20:14 00:24:37:04
* FROM CLIP NAME: /home/davidk/code/python/JC-render/JC-examples/yoga.mp4
FINAL CUT PRO REEL: N/A REPLACED BY: N/A

874   N/A  AA/V  C  00:24:38:02 00:24:40:07 00:24:37:04 00:24:39:08
* FROM CLIP NAME: /home/davidk/code/python/JC-render/JC-examples/yoga.mp4
FINAL CUT PRO REEL: N/A REPLACED BY: N/A

875   N/A  AA/V  C  00:24:40:07 00:24:40:23 00:24:39:08 00:24:39:24
* FROM CLIP NAME: /home/davidk/code/python/JC-render/JC-examples/yoga.mp4
FINAL CUT PRO REEL: N/A REPLACED BY: N/A

876   N/A  AA/V  C  00:24:40:23 00:24:41:25 00:24:39:24 00:24:40:27
* FROM CLIP NAME: /home/davidk/code/python/JC-render/JC-examples/yoga.mp4
FINAL CUT PRO REEL: N/A REPLACED BY: N/A

877   N/A  AA/V  C  00:24:41:25 00:24:41:27 00:24:40:27 00:24:40:29
* FROM CLIP NAME: /home/davidk/code/python/JC-render/JC-examples/yoga.mp4
FINAL CUT PRO REEL: N/A REPLACED BY: N/A

878   N/A  AA/V  C  00:24:41:27 00:24:43:18 00:24:40:29 00:24:42:19
* FROM CLIP NAME: /home/davidk/code/python/JC-render/JC-examples/yoga.mp4
FINAL CUT PRO REEL: N/A REPLACED BY: N/A

879   N/A  AA/V  C  00:24:43:18 00:24:44:14 00:24:42:19 00:24:43:15
* FROM CLIP NAME: /home/davidk/code/python/JC-render/JC-examples/yoga.mp4
FINAL CUT PRO REEL: N/A REPLACED BY: N/A

880   N/A  AA/V  C  00:24:44:14 00:24:45:24 00:24:43:15 00:24:44:25
* FROM CLIP NAME: /home/davidk/code/python/JC-render/JC-examples/yoga.mp4
FINAL CUT PRO REEL: N/A REPLACED BY: N/A

881   N/A  AA/V  C  00:24:45:24 00:24:47:18 00:24:44:25 00:24:46:19
* FROM CLIP NAME: /home/davidk/code/python/JC-render/JC-examples/yoga.mp4
FINAL CUT PRO REEL: N/A REPLACED BY: N/A

882   N/A  AA/V  C  00:24:47:18 00:24:48:17 00:24:46:19 00:24:47:19
* FROM CLIP NAME: /home/davidk/code/python/JC-render/JC-examples/yoga.mp4
FINAL CUT PRO REEL: N/A REPLACED BY: N/A

883   N/A  AA/V  C  00:24:48:17 00:24:50:01 00:24:47:19 00:24:49:02
* FROM CLIP NAME: /home/davidk/code/python/JC-render/JC-examples/yoga.mp4
FINAL CUT PRO REEL: N/A REPLACED BY: N/A

884   N/A  AA/V  C  00:24:50:01 00:24:51:01 00:24:49:02 00:24:50:02
* FROM CLIP NAME: /home/davidk/code/python/JC-render/JC-examples/yoga.mp4
FINAL CUT PRO REEL: N/A REPLACED BY: N/A

885   N/A  AA/V  C  00:24:51:01 00:24:52:11 00:24:50:02 00:24:51:12
* FROM CLIP NAME: /home/davidk/code/python/JC-render/JC-examples/yoga.mp4
FINAL CUT PRO REEL: N/A REPLACED BY: N/A

886   N/A  AA/V  C  00:24:52:11 00:24:54:01 00:24:51:12 00:24:53:02
* FROM CLIP NAME: /home/davidk/code/python/JC-render/JC-examples/yoga.mp4
FINAL CUT PRO REEL: N/A REPLACED BY: N/A

887   N/A  AA/V  C  00:24:54:01 00:24:57:04 00:24:53:02 00:24:56:05
* FROM CLIP NAME: /home/davidk/code/python/JC-render/JC-examples/yoga.mp4
FINAL CUT PRO REEL: N/A REPLACED BY: N/A

888   N/A  AA/V  C  00:24:57:04 00:24:58:24 00:24:56:05 00:24:57:25
* FROM CLIP NAME: /home/davidk/code/python/JC-render/JC-examples/yoga.mp4
FINAL CUT PRO REEL: N/A REPLACED BY: N/A

889   N/A  AA/V  C  00:24:58:24 00:24:59:10 00:24:57:25 00:24:58:11
* FROM CLIP NAME: /home/davidk/code/python/JC-render/JC-examples/yoga.mp4
FINAL CUT PRO REEL: N/A REPLACED BY: N/A

890   N/A  AA/V  C  00:24:59:10 00:25:01:00 00:24:58:11 00:25:00:01
* FROM CLIP NAME: /home/davidk/code/python/JC-render/JC-examples/yoga.mp4
FINAL CUT PRO REEL: N/A REPLACED BY: N/A

891   N/A  AA/V  C  00:25:01:00 00:25:01:23 00:25:00:01 00:25:00:24
* FROM CLIP NAME: /home/davidk/code/python/JC-render/JC-examples/yoga.mp4
FINAL CUT PRO REEL: N/A REPLACED BY: N/A

892   N/A  AA/V  C  00:25:01:23 00:25:03:20 00:25:00:24 00:25:02:21
* FROM CLIP NAME: /home/davidk/code/python/JC-render/JC-examples/yoga.mp4
FINAL CUT PRO REEL: N/A REPLACED BY: N/A

893   N/A  AA/V  C  00:25:03:20 00:25:04:17 00:25:02:21 00:25:03:18
* FROM CLIP NAME: /home/davidk/code/python/JC-render/JC-examples/yoga.mp4
FINAL CUT PRO REEL: N/A REPLACED BY: N/A

894   N/A  AA/V  C  00:25:04:17 00:25:05:19 00:25:03:18 00:25:04:21
* FROM CLIP NAME: /home/davidk/code/python/JC-render/JC-examples/yoga.mp4
FINAL CUT PRO REEL: N/A REPLACED BY: N/A

895   N/A  AA/V  C  00:25:05:19 00:25:05:28 00:25:04:21 00:25:05:00
* FROM CLIP NAME: /home/davidk/code/python/JC-render/JC-examples/yoga.mp4
FINAL CUT PRO REEL: N/A REPLACED BY: N/A

896   N/A  AA/V  C  00:25:05:28 00:25:08:03 00:25:05:00 00:25:07:04
* FROM CLIP NAME: /home/davidk/code/python/JC-render/JC-examples/yoga.mp4
FINAL CUT PRO REEL: N/A REPLACED BY: N/A

897   N/A  AA/V  C  00:25:08:03 00:25:09:02 00:25:07:04 00:25:08:04
* FROM CLIP NAME: /home/davidk/code/python/JC-render/JC-examples/yoga.mp4
FINAL CUT PRO REEL: N/A REPLACED BY: N/A

898   N/A  AA/V  C  00:25:09:02 00:25:12:05 00:25:08:04 00:25:11:06
* FROM CLIP NAME: /home/davidk/code/python/JC-render/JC-examples/yoga.mp4
FINAL CUT PRO REEL: N/A REPLACED BY: N/A

899   N/A  AA/V  C  00:25:12:05 00:25:12:10 00:25:11:06 00:25:11:11
* FROM CLIP NAME: /home/davidk/code/python/JC-render/JC-examples/yoga.mp4
FINAL CUT PRO REEL: N/A REPLACED BY: N/A

900   N/A  AA/V  C  00:25:12:10 00:25:13:02 00:25:11:11 00:25:12:04
* FROM CLIP NAME: /home/davidk/code/python/JC-render/JC-examples/yoga.mp4
FINAL CUT PRO REEL: N/A REPLACED BY: N/A

901   N/A  AA/V  C  00:25:13:02 00:25:13:18 00:25:12:04 00:25:12:19
* FROM CLIP NAME: /home/davidk/code/python/JC-render/JC-examples/yoga.mp4
FINAL CUT PRO REEL: N/A REPLACED BY: N/A

902   N/A  AA/V  C  00:25:13:18 00:25:14:25 00:25:12:19 00:25:13:26
* FROM CLIP NAME: /home/davidk/code/python/JC-render/JC-examples/yoga.mp4
FINAL CUT PRO REEL: N/A REPLACED BY: N/A

903   N/A  AA/V  C  00:25:14:25 00:25:17:24 00:25:13:26 00:25:16:25
* FROM CLIP NAME: /home/davidk/code/python/JC-render/JC-examples/yoga.mp4
FINAL CUT PRO REEL: N/A REPLACED BY: N/A

904   N/A  AA/V  C  00:25:17:24 00:25:19:07 00:25:16:25 00:25:18:08
* FROM CLIP NAME: /home/davidk/code/python/JC-render/JC-examples/yoga.mp4
FINAL CUT PRO REEL: N/A REPLACED BY: N/A

905   N/A  AA/V  C  00:25:19:07 00:25:22:27 00:25:18:08 00:25:21:28
* FROM CLIP NAME: /home/davidk/code/python/JC-render/JC-examples/yoga.mp4
FINAL CUT PRO REEL: N/A REPLACED BY: N/A

906   N/A  AA/V  C  00:25:22:27 00:25:24:17 00:25:21:28 00:25:23:18
* FROM CLIP NAME: /home/davidk/code/python/JC-render/JC-examples/yoga.mp4
FINAL CUT PRO REEL: N/A REPLACED BY: N/A

907   N/A  AA/V  C  00:25:24:17 00:25:33:00 00:25:23:18 00:25:32:01
* FROM CLIP NAME: /home/davidk/code/python/JC-render/JC-examples/yoga.mp4
FINAL CUT PRO REEL: N/A REPLACED BY: N/A

908   N/A  AA/V  C  00:25:33:00 00:25:35:15 00:25:32:01 00:25:34:16
* FROM CLIP NAME: /home/davidk/code/python/JC-render/JC-examples/yoga.mp4
FINAL CUT PRO REEL: N/A REPLACED BY: N/A

909   N/A  AA/V  C  00:25:35:15 00:25:36:07 00:25:34:16 00:25:35:09
* FROM CLIP NAME: /home/davidk/code/python/JC-render/JC-examples/yoga.mp4
FINAL CUT PRO REEL: N/A REPLACED BY: N/A

910   N/A  AA/V  C  00:25:36:07 00:25:37:03 00:25:35:09 00:25:36:05
* FROM CLIP NAME: /home/davidk/code/python/JC-render/JC-examples/yoga.mp4
FINAL CUT PRO REEL: N/A REPLACED BY: N/A

911   N/A  AA/V  C  00:25:37:03 00:25:47:19 00:25:36:05 00:25:46:20
* FROM CLIP NAME: /home/davidk/code/python/JC-render/JC-examples/yoga.mp4
FINAL CUT PRO REEL: N/A REPLACED BY: N/A

912   N/A  AA/V  C  00:25:47:19 00:25:49:06 00:25:46:20 00:25:48:07
* FROM CLIP NAME: /home/davidk/code/python/JC-render/JC-examples/yoga.mp4
FINAL CUT PRO REEL: N/A REPLACED BY: N/A

913   N/A  AA/V  C  00:25:49:06 00:25:55:23 00:25:48:07 00:25:54:24
* FROM CLIP NAME: /home/davidk/code/python/JC-render/JC-examples/yoga.mp4
FINAL CUT PRO REEL: N/A REPLACED BY: N/A

914   N/A  AA/V  C  00:25:55:23 00:25:58:00 00:25:54:24 00:25:57:01
* FROM CLIP NAME: /home/davidk/code/python/JC-render/JC-examples/yoga.mp4
FINAL CUT PRO REEL: N/A REPLACED BY: N/A

915   N/A  AA/V  C  00:25:58:00 00:26:02:25 00:25:57:01 00:26:01:26
* FROM CLIP NAME: /home/davidk/code/python/JC-render/JC-examples/yoga.mp4
FINAL CUT PRO REEL: N/A REPLACED BY: N/A

916   N/A  AA/V  C  00:26:02:25 00:26:04:29 00:26:01:26 00:26:04:00
* FROM CLIP NAME: /home/davidk/code/python/JC-render/JC-examples/yoga.mp4
FINAL CUT PRO REEL: N/A REPLACED BY: N/A

917   N/A  AA/V  C  00:26:04:29 00:26:05:05 00:26:04:00 00:26:04:06
* FROM CLIP NAME: /home/davidk/code/python/JC-render/JC-examples/yoga.mp4
FINAL CUT PRO REEL: N/A REPLACED BY: N/A

918   N/A  AA/V  C  00:26:05:05 00:26:06:08 00:26:04:06 00:26:05:09
* FROM CLIP NAME: /home/davidk/code/python/JC-render/JC-examples/yoga.mp4
FINAL CUT PRO REEL: N/A REPLACED BY: N/A

919   N/A  AA/V  C  00:26:06:08 00:26:07:07 00:26:05:09 00:26:06:09
* FROM CLIP NAME: /home/davidk/code/python/JC-render/JC-examples/yoga.mp4
FINAL CUT PRO REEL: N/A REPLACED BY: N/A

920   N/A  AA/V  C  00:26:07:07 00:26:08:07 00:26:06:09 00:26:07:08
* FROM CLIP NAME: /home/davidk/code/python/JC-render/JC-examples/yoga.mp4
FINAL CUT PRO REEL: N/A REPLACED BY: N/A

921   N/A  AA/V  C  00:26:08:07 00:26:11:02 00:26:07:08 00:26:10:04
* FROM CLIP NAME: /home/davidk/code/python/JC-render/JC-examples/yoga.mp4
FINAL CUT PRO REEL: N/A REPLACED BY: N/A

922   N/A  AA/V  C  00:26:11:02 00:26:11:25 00:26:10:04 00:26:10:26
* FROM CLIP NAME: /home/davidk/code/python/JC-render/JC-examples/yoga.mp4
FINAL CUT PRO REEL: N/A REPLACED BY: N/A

923   N/A  AA/V  C  00:26:11:25 00:26:12:04 00:26:10:26 00:26:11:05
* FROM CLIP NAME: /home/davidk/code/python/JC-render/JC-examples/yoga.mp4
FINAL CUT PRO REEL: N/A REPLACED BY: N/A

924   N/A  AA/V  C  00:26:12:04 00:26:13:00 00:26:11:05 00:26:12:01
* FROM CLIP NAME: /home/davidk/code/python/JC-render/JC-examples/yoga.mp4
FINAL CUT PRO REEL: N/A REPLACED BY: N/A

925   N/A  AA/V  C  00:26:13:00 00:26:14:10 00:26:12:01 00:26:13:11
* FROM CLIP NAME: /home/davidk/code/python/JC-render/JC-examples/yoga.mp4
FINAL CUT PRO REEL: N/A REPLACED BY: N/A

926   N/A  AA/V  C  00:26:14:10 00:26:15:02 00:26:13:11 00:26:14:03
* FROM CLIP NAME: /home/davidk/code/python/JC-render/JC-examples/yoga.mp4
FINAL CUT PRO REEL: N/A REPLACED BY: N/A

927   N/A  AA/V  C  00:26:15:02 00:26:18:08 00:26:14:03 00:26:17:09
* FROM CLIP NAME: /home/davidk/code/python/JC-render/JC-examples/yoga.mp4
FINAL CUT PRO REEL: N/A REPLACED BY: N/A

928   N/A  AA/V  C  00:26:18:08 00:26:19:08 00:26:17:09 00:26:18:09
* FROM CLIP NAME: /home/davidk/code/python/JC-render/JC-examples/yoga.mp4
FINAL CUT PRO REEL: N/A REPLACED BY: N/A

929   N/A  AA/V  C  00:26:19:08 00:26:19:10 00:26:18:09 00:26:18:11
* FROM CLIP NAME: /home/davidk/code/python/JC-render/JC-examples/yoga.mp4
FINAL CUT PRO REEL: N/A REPLACED BY: N/A

930   N/A  AA/V  C  00:26:19:10 00:26:20:13 00:26:18:11 00:26:19:14
* FROM CLIP NAME: /home/davidk/code/python/JC-render/JC-examples/yoga.mp4
FINAL CUT PRO REEL: N/A REPLACED BY: N/A

931   N/A  AA/V  C  00:26:20:13 00:26:21:02 00:26:19:14 00:26:20:03
* FROM CLIP NAME: /home/davidk/code/python/JC-render/JC-examples/yoga.mp4
FINAL CUT PRO REEL: N/A REPLACED BY: N/A

932   N/A  AA/V  C  00:26:21:02 00:26:21:21 00:26:20:03 00:26:20:22
* FROM CLIP NAME: /home/davidk/code/python/JC-render/JC-examples/yoga.mp4
FINAL CUT PRO REEL: N/A REPLACED BY: N/A

933   N/A  AA/V  C  00:26:21:21 00:26:22:14 00:26:20:22 00:26:21:15
* FROM CLIP NAME: /home/davidk/code/python/JC-render/JC-examples/yoga.mp4
FINAL CUT PRO REEL: N/A REPLACED BY: N/A

934   N/A  AA/V  C  00:26:22:14 00:26:23:10 00:26:21:15 00:26:22:11
* FROM CLIP NAME: /home/davidk/code/python/JC-render/JC-examples/yoga.mp4
FINAL CUT PRO REEL: N/A REPLACED BY: N/A

935   N/A  AA/V  C  00:26:23:10 00:26:24:09 00:26:22:11 00:26:23:11
* FROM CLIP NAME: /home/davidk/code/python/JC-render/JC-examples/yoga.mp4
FINAL CUT PRO REEL: N/A REPLACED BY: N/A

936   N/A  AA/V  C  00:26:24:09 00:26:26:03 00:26:23:11 00:26:25:04
* FROM CLIP NAME: /home/davidk/code/python/JC-render/JC-examples/yoga.mp4
FINAL CUT PRO REEL: N/A REPLACED BY: N/A

937   N/A  AA/V  C  00:26:26:03 00:26:28:18 00:26:25:04 00:26:27:19
* FROM CLIP NAME: /home/davidk/code/python/JC-render/JC-examples/yoga.mp4
FINAL CUT PRO REEL: N/A REPLACED BY: N/A

938   N/A  AA/V  C  00:26:28:18 00:26:29:18 00:26:27:19 00:26:28:19
* FROM CLIP NAME: /home/davidk/code/python/JC-render/JC-examples/yoga.mp4
FINAL CUT PRO REEL: N/A REPLACED BY: N/A

939   N/A  AA/V  C  00:26:29:18 00:26:31:15 00:26:28:19 00:26:30:17
* FROM CLIP NAME: /home/davidk/code/python/JC-render/JC-examples/yoga.mp4
FINAL CUT PRO REEL: N/A REPLACED BY: N/A

940   N/A  AA/V  C  00:26:31:15 00:26:32:18 00:26:30:17 00:26:31:19
* FROM CLIP NAME: /home/davidk/code/python/JC-render/JC-examples/yoga.mp4
FINAL CUT PRO REEL: N/A REPLACED BY: N/A

941   N/A  AA/V  C  00:26:32:18 00:26:33:18 00:26:31:19 00:26:32:19
* FROM CLIP NAME: /home/davidk/code/python/JC-render/JC-examples/yoga.mp4
FINAL CUT PRO REEL: N/A REPLACED BY: N/A

942   N/A  AA/V  C  00:26:33:18 00:26:35:22 00:26:32:19 00:26:34:23
* FROM CLIP NAME: /home/davidk/code/python/JC-render/JC-examples/yoga.mp4
FINAL CUT PRO REEL: N/A REPLACED BY: N/A

943   N/A  AA/V  C  00:26:35:22 00:26:36:19 00:26:34:23 00:26:35:20
* FROM CLIP NAME: /home/davidk/code/python/JC-render/JC-examples/yoga.mp4
FINAL CUT PRO REEL: N/A REPLACED BY: N/A

944   N/A  AA/V  C  00:26:36:19 00:26:37:11 00:26:35:20 00:26:36:12
* FROM CLIP NAME: /home/davidk/code/python/JC-render/JC-examples/yoga.mp4
FINAL CUT PRO REEL: N/A REPLACED BY: N/A

945   N/A  AA/V  C  00:26:37:11 00:26:37:16 00:26:36:12 00:26:36:18
* FROM CLIP NAME: /home/davidk/code/python/JC-render/JC-examples/yoga.mp4
FINAL CUT PRO REEL: N/A REPLACED BY: N/A

946   N/A  AA/V  C  00:26:37:16 00:26:38:02 00:26:36:18 00:26:37:03
* FROM CLIP NAME: /home/davidk/code/python/JC-render/JC-examples/yoga.mp4
FINAL CUT PRO REEL: N/A REPLACED BY: N/A

947   N/A  AA/V  C  00:26:38:02 00:27:47:13 00:26:37:03 00:27:46:14
* FROM CLIP NAME: /home/davidk/code/python/JC-render/JC-examples/yoga.mp4
FINAL CUT PRO REEL: N/A REPLACED BY: N/A

948   N/A  AA/V  C  00:27:47:13 00:27:49:04 00:27:46:14 00:27:48:05
* FROM CLIP NAME: /home/davidk/code/python/JC-render/JC-examples/yoga.mp4
FINAL CUT PRO REEL: N/A REPLACED BY: N/A

949   N/A  AA/V  C  00:27:49:04 00:27:49:26 00:27:48:05 00:27:48:28
* FROM CLIP NAME: /home/davidk/code/python/JC-render/JC-examples/yoga.mp4
FINAL CUT PRO REEL: N/A REPLACED BY: N/A

950   N/A  AA/V  C  00:27:49:26 00:27:52:15 00:27:48:28 00:27:51:16
* FROM CLIP NAME: /home/davidk/code/python/JC-render/JC-examples/yoga.mp4
FINAL CUT PRO REEL: N/A REPLACED BY: N/A

951   N/A  AA/V  C  00:27:52:15 00:27:52:20 00:27:51:16 00:27:51:21
* FROM CLIP NAME: /home/davidk/code/python/JC-render/JC-examples/yoga.mp4
FINAL CUT PRO REEL: N/A REPLACED BY: N/A

952   N/A  AA/V  C  00:27:52:20 00:27:53:12 00:27:51:21 00:27:52:14
* FROM CLIP NAME: /home/davidk/code/python/JC-render/JC-examples/yoga.mp4
FINAL CUT PRO REEL: N/A REPLACED BY: N/A

953   N/A  AA/V  C  00:27:53:12 00:27:57:23 00:27:52:14 00:27:56:24
* FROM CLIP NAME: /home/davidk/code/python/JC-render/JC-examples/yoga.mp4
FINAL CUT PRO REEL: N/A REPLACED BY: N/A

954   N/A  AA/V  C  00:27:57:23 00:27:59:14 00:27:56:24 00:27:58:15
* FROM CLIP NAME: /home/davidk/code/python/JC-render/JC-examples/yoga.mp4
FINAL CUT PRO REEL: N/A REPLACED BY: N/A

955   N/A  AA/V  C  00:27:59:14 00:28:00:20 00:27:58:15 00:27:59:21
* FROM CLIP NAME: /home/davidk/code/python/JC-render/JC-examples/yoga.mp4
FINAL CUT PRO REEL: N/A REPLACED BY: N/A

956   N/A  AA/V  C  00:28:00:20 00:28:01:20 00:27:59:21 00:28:00:21
* FROM CLIP NAME: /home/davidk/code/python/JC-render/JC-examples/yoga.mp4
FINAL CUT PRO REEL: N/A REPLACED BY: N/A

957   N/A  AA/V  C  00:28:01:20 00:28:06:18 00:28:00:21 00:28:05:19
* FROM CLIP NAME: /home/davidk/code/python/JC-render/JC-examples/yoga.mp4
FINAL CUT PRO REEL: N/A REPLACED BY: N/A

958   N/A  AA/V  C  00:28:06:18 00:28:09:10 00:28:05:19 00:28:08:11
* FROM CLIP NAME: /home/davidk/code/python/JC-render/JC-examples/yoga.mp4
FINAL CUT PRO REEL: N/A REPLACED BY: N/A

959   N/A  AA/V  C  00:28:09:10 00:28:09:15 00:28:08:11 00:28:08:16
* FROM CLIP NAME: /home/davidk/code/python/JC-render/JC-examples/yoga.mp4
FINAL CUT PRO REEL: N/A REPLACED BY: N/A

960   N/A  AA/V  C  00:28:09:15 00:28:10:21 00:28:08:16 00:28:09:23
* FROM CLIP NAME: /home/davidk/code/python/JC-render/JC-examples/yoga.mp4
FINAL CUT PRO REEL: N/A REPLACED BY: N/A

961   N/A  AA/V  C  00:28:10:21 00:28:13:06 00:28:09:23 00:28:12:08
* FROM CLIP NAME: /home/davidk/code/python/JC-render/JC-examples/yoga.mp4
FINAL CUT PRO REEL: N/A REPLACED BY: N/A

962   N/A  AA/V  C  00:28:13:06 00:28:16:29 00:28:12:08 00:28:16:01
* FROM CLIP NAME: /home/davidk/code/python/JC-render/JC-examples/yoga.mp4
FINAL CUT PRO REEL: N/A REPLACED BY: N/A

963   N/A  AA/V  C  00:28:16:29 00:28:17:05 00:28:16:01 00:28:16:06
* FROM CLIP NAME: /home/davidk/code/python/JC-render/JC-examples/yoga.mp4
FINAL CUT PRO REEL: N/A REPLACED BY: N/A

964   N/A  AA/V  C  00:28:17:05 00:28:17:27 00:28:16:06 00:28:16:28
* FROM CLIP NAME: /home/davidk/code/python/JC-render/JC-examples/yoga.mp4
FINAL CUT PRO REEL: N/A REPLACED BY: N/A

965   N/A  AA/V  C  00:28:17:27 00:28:21:21 00:28:16:28 00:28:20:22
* FROM CLIP NAME: /home/davidk/code/python/JC-render/JC-examples/yoga.mp4
FINAL CUT PRO REEL: N/A REPLACED BY: N/A

966   N/A  AA/V  C  00:28:21:21 00:28:23:28 00:28:20:22 00:28:23:00
* FROM CLIP NAME: /home/davidk/code/python/JC-render/JC-examples/yoga.mp4
FINAL CUT PRO REEL: N/A REPLACED BY: N/A

967   N/A  AA/V  C  00:28:23:28 00:28:25:02 00:28:23:00 00:28:24:03
* FROM CLIP NAME: /home/davidk/code/python/JC-render/JC-examples/yoga.mp4
FINAL CUT PRO REEL: N/A REPLACED BY: N/A

968   N/A  AA/V  C  00:28:25:02 00:28:26:15 00:28:24:03 00:28:25:16
* FROM CLIP NAME: /home/davidk/code/python/JC-render/JC-examples/yoga.mp4
FINAL CUT PRO REEL: N/A REPLACED BY: N/A

969   N/A  AA/V  C  00:28:26:15 00:28:31:20 00:28:25:16 00:28:30:21
* FROM CLIP NAME: /home/davidk/code/python/JC-render/JC-examples/yoga.mp4
FINAL CUT PRO REEL: N/A REPLACED BY: N/A

970   N/A  AA/V  C  00:28:31:20 00:28:32:20 00:28:30:21 00:28:31:21
* FROM CLIP NAME: /home/davidk/code/python/JC-render/JC-examples/yoga.mp4
FINAL CUT PRO REEL: N/A REPLACED BY: N/A

971   N/A  AA/V  C  00:28:32:20 00:28:33:19 00:28:31:21 00:28:32:21
* FROM CLIP NAME: /home/davidk/code/python/JC-render/JC-examples/yoga.mp4
FINAL CUT PRO REEL: N/A REPLACED BY: N/A

972   N/A  AA/V  C  00:28:33:19 00:28:35:03 00:28:32:21 00:28:34:04
* FROM CLIP NAME: /home/davidk/code/python/JC-render/JC-examples/yoga.mp4
FINAL CUT PRO REEL: N/A REPLACED BY: N/A

973   N/A  AA/V  C  00:28:35:03 00:28:35:22 00:28:34:04 00:28:34:23
* FROM CLIP NAME: /home/davidk/code/python/JC-render/JC-examples/yoga.mp4
FINAL CUT PRO REEL: N/A REPLACED BY: N/A

974   N/A  AA/V  C  00:28:35:22 00:28:37:16 00:28:34:23 00:28:36:17
* FROM CLIP NAME: /home/davidk/code/python/JC-render/JC-examples/yoga.mp4
FINAL CUT PRO REEL: N/A REPLACED BY: N/A

975   N/A  AA/V  C  00:28:37:16 00:28:42:07 00:28:36:17 00:28:41:08
* FROM CLIP NAME: /home/davidk/code/python/JC-render/JC-examples/yoga.mp4
FINAL CUT PRO REEL: N/A REPLACED BY: N/A

976   N/A  AA/V  C  00:28:42:07 00:28:43:03 00:28:41:08 00:28:42:04
* FROM CLIP NAME: /home/davidk/code/python/JC-render/JC-examples/yoga.mp4
FINAL CUT PRO REEL: N/A REPLACED BY: N/A

977   N/A  AA/V  C  00:28:43:03 00:28:44:06 00:28:42:04 00:28:43:08
* FROM CLIP NAME: /home/davidk/code/python/JC-render/JC-examples/yoga.mp4
FINAL CUT PRO REEL: N/A REPLACED BY: N/A

978   N/A  AA/V  C  00:28:44:06 00:28:44:29 00:28:43:08 00:28:44:00
* FROM CLIP NAME: /home/davidk/code/python/JC-render/JC-examples/yoga.mp4
FINAL CUT PRO REEL: N/A REPLACED BY: N/A

979   N/A  AA/V  C  00:28:44:29 00:28:45:01 00:28:44:00 00:28:44:02
* FROM CLIP NAME: /home/davidk/code/python/JC-render/JC-examples/yoga.mp4
FINAL CUT PRO REEL: N/A REPLACED BY: N/A

980   N/A  AA/V  C  00:28:45:01 00:28:45:16 00:28:44:02 00:28:44:17
* FROM CLIP NAME: /home/davidk/code/python/JC-render/JC-examples/yoga.mp4
FINAL CUT PRO REEL: N/A REPLACED BY: N/A

981   N/A  AA/V  C  00:28:45:16 00:28:45:18 00:28:44:17 00:28:44:19
* FROM CLIP NAME: /home/davidk/code/python/JC-render/JC-examples/yoga.mp4
FINAL CUT PRO REEL: N/A REPLACED BY: N/A

982   N/A  AA/V  C  00:28:45:18 00:28:46:07 00:28:44:19 00:28:45:08
* FROM CLIP NAME: /home/davidk/code/python/JC-render/JC-examples/yoga.mp4
FINAL CUT PRO REEL: N/A REPLACED BY: N/A

983   N/A  AA/V  C  00:28:46:07 00:28:47:14 00:28:45:08 00:28:46:15
* FROM CLIP NAME: /home/davidk/code/python/JC-render/JC-examples/yoga.mp4
FINAL CUT PRO REEL: N/A REPLACED BY: N/A

984   N/A  AA/V  C  00:28:47:14 00:28:48:20 00:28:46:15 00:28:47:21
* FROM CLIP NAME: /home/davidk/code/python/JC-render/JC-examples/yoga.mp4
FINAL CUT PRO REEL: N/A REPLACED BY: N/A

985   N/A  AA/V  C  00:28:48:20 00:28:49:10 00:28:47:21 00:28:48:11
* FROM CLIP NAME: /home/davidk/code/python/JC-render/JC-examples/yoga.mp4
FINAL CUT PRO REEL: N/A REPLACED BY: N/A

986   N/A  AA/V  C  00:28:49:10 00:28:49:25 00:28:48:11 00:28:48:26
* FROM CLIP NAME: /home/davidk/code/python/JC-render/JC-examples/yoga.mp4
FINAL CUT PRO REEL: N/A REPLACED BY: N/A

987   N/A  AA/V  C  00:28:49:25 00:28:52:07 00:28:48:26 00:28:51:08
* FROM CLIP NAME: /home/davidk/code/python/JC-render/JC-examples/yoga.mp4
FINAL CUT PRO REEL: N/A REPLACED BY: N/A

988   N/A  AA/V  C  00:28:52:07 00:28:53:03 00:28:51:08 00:28:52:04
* FROM CLIP NAME: /home/davidk/code/python/JC-render/JC-examples/yoga.mp4
FINAL CUT PRO REEL: N/A REPLACED BY: N/A

989   N/A  AA/V  C  00:28:53:03 00:29:01:08 00:28:52:04 00:29:00:10
* FROM CLIP NAME: /home/davidk/code/python/JC-render/JC-examples/yoga.mp4
FINAL CUT PRO REEL: N/A REPLACED BY: N/A

990   N/A  AA/V  C  00:29:01:08 00:29:02:04 00:29:00:10 00:29:01:06
* FROM CLIP NAME: /home/davidk/code/python/JC-render/JC-examples/yoga.mp4
FINAL CUT PRO REEL: N/A REPLACED BY: N/A

991   N/A  AA/V  C  00:29:02:04 00:29:02:10 00:29:01:06 00:29:01:11
* FROM CLIP NAME: /home/davidk/code/python/JC-render/JC-examples/yoga.mp4
FINAL CUT PRO REEL: N/A REPLACED BY: N/A

992   N/A  AA/V  C  00:29:02:10 00:29:03:13 00:29:01:11 00:29:02:14
* FROM CLIP NAME: /home/davidk/code/python/JC-render/JC-examples/yoga.mp4
FINAL CUT PRO REEL: N/A REPLACED BY: N/A

993   N/A  AA/V  C  00:29:03:13 00:29:03:25 00:29:02:14 00:29:02:26
* FROM CLIP NAME: /home/davidk/code/python/JC-render/JC-examples/yoga.mp4
FINAL CUT PRO REEL: N/A REPLACED BY: N/A

994   N/A  AA/V  C  00:29:03:25 00:29:06:27 00:29:02:26 00:29:05:28
* FROM CLIP NAME: /home/davidk/code/python/JC-render/JC-examples/yoga.mp4
FINAL CUT PRO REEL: N/A REPLACED BY: N/A

995   N/A  AA/V  C  00:29:06:27 00:29:07:03 00:29:05:28 00:29:06:04
* FROM CLIP NAME: /home/davidk/code/python/JC-render/JC-examples/yoga.mp4
FINAL CUT PRO REEL: N/A REPLACED BY: N/A

996   N/A  AA/V  C  00:29:07:03 00:29:11:20 00:29:06:04 00:29:10:21
* FROM CLIP NAME: /home/davidk/code/python/JC-render/JC-examples/yoga.mp4
FINAL CUT PRO REEL: N/A REPLACED BY: N/A

997   N/A  AA/V  C  00:29:11:20 00:29:12:13 00:29:10:21 00:29:11:14
* FROM CLIP NAME: /home/davidk/code/python/JC-render/JC-examples/yoga.mp4
FINAL CUT PRO REEL: N/A REPLACED BY: N/A

998   N/A  AA/V  C  00:29:12:13 00:29:13:02 00:29:11:14 00:29:12:03
* FROM CLIP NAME: /home/davidk/code/python/JC-render/JC-examples/yoga.mp4
FINAL CUT PRO REEL: N/A REPLACED BY: N/A

999   N/A  AA/V  C  00:29:13:02 00:29:13:18 00:29:12:03 00:29:12:19
* FROM CLIP NAME: /home/davidk/code/python/JC-render/JC-examples/yoga.mp4
FINAL CUT PRO REEL: N/A REPLACED BY: N/A

1000   N/A  AA/V  C  00:29:13:18 00:29:17:18 00:29:12:19 00:29:16:19
* FROM CLIP NAME: /home/davidk/code/python/JC-render/JC-examples/yoga.mp4
FINAL CUT PRO REEL: N/A REPLACED BY: N/A

1001   N/A  AA/V  C  00:29:17:18 00:29:17:20 00:29:16:19 00:29:16:21
* FROM CLIP NAME: /home/davidk/code/python/JC-render/JC-examples/yoga.mp4
FINAL CUT PRO REEL: N/A REPLACED BY: N/A

1002   N/A  AA/V  C  00:29:17:20 00:29:22:17 00:29:16:21 00:29:21:19
* FROM CLIP NAME: /home/davidk/code/python/JC-render/JC-examples/yoga.mp4
FINAL CUT PRO REEL: N/A REPLACED BY: N/A

1003   N/A  AA/V  C  00:29:22:17 00:29:22:19 00:29:21:19 00:29:21:20
* FROM CLIP NAME: /home/davidk/code/python/JC-render/JC-examples/yoga.mp4
FINAL CUT PRO REEL: N/A REPLACED BY: N/A

1004   N/A  AA/V  C  00:29:22:19 00:29:33:25 00:29:21:20 00:29:32:26
* FROM CLIP NAME: /home/davidk/code/python/JC-render/JC-examples/yoga.mp4
FINAL CUT PRO REEL: N/A REPLACED BY: N/A

1005   N/A  AA/V  C  00:29:33:25 00:29:34:18 00:29:32:26 00:29:33:19
* FROM CLIP NAME: /home/davidk/code/python/JC-render/JC-examples/yoga.mp4
FINAL CUT PRO REEL: N/A REPLACED BY: N/A

1006   N/A  AA/V  C  00:29:34:18 00:29:40:14 00:29:33:19 00:29:39:15
* FROM CLIP NAME: /home/davidk/code/python/JC-render/JC-examples/yoga.mp4
FINAL CUT PRO REEL: N/A REPLACED BY: N/A

1007   N/A  AA/V  C  00:29:40:14 00:29:40:19 00:29:39:15 00:29:39:20
* FROM CLIP NAME: /home/davidk/code/python/JC-render/JC-examples/yoga.mp4
FINAL CUT PRO REEL: N/A REPLACED BY: N/A

1008   N/A  AA/V  C  00:29:40:19 00:29:45:24 00:29:39:20 00:29:44:25
* FROM CLIP NAME: /home/davidk/code/python/JC-render/JC-examples/yoga.mp4
FINAL CUT PRO REEL: N/A REPLACED BY: N/A

1009   N/A  AA/V  C  00:29:45:24 00:29:46:27 00:29:44:25 00:29:45:28
* FROM CLIP NAME: /home/davidk/code/python/JC-render/JC-examples/yoga.mp4
FINAL CUT PRO REEL: N/A REPLACED BY: N/A

1010   N/A  AA/V  C  00:29:46:27 00:29:58:03 00:29:45:28 00:29:57:04
* FROM CLIP NAME: /home/davidk/code/python/JC-render/JC-examples/yoga.mp4
FINAL CUT PRO REEL: N/A REPLACED BY: N/A

1011   N/A  AA/V  C  00:29:58:03 00:29:58:05 00:29:57:04 00:29:57:06
* FROM CLIP NAME: /home/davidk/code/python/JC-render/JC-examples/yoga.mp4
FINAL CUT PRO REEL: N/A REPLACED BY: N/A

1012   N/A  AA/V  C  00:29:58:05 00:30:12:25 00:29:57:06 00:30:11:27
* FROM CLIP NAME: /home/davidk/code/python/JC-render/JC-examples/yoga.mp4
FINAL CUT PRO REEL: N/A REPLACED BY: N/A

1013   N/A  AA/V  C  00:30:12:25 00:30:12:27 00:30:11:27 00:30:11:29
* FROM CLIP NAME: /home/davidk/code/python/JC-render/JC-examples/yoga.mp4
FINAL CUT PRO REEL: N/A REPLACED BY: N/A

1014   N/A  AA/V  C  00:30:12:27 00:30:13:16 00:30:11:29 00:30:12:18
* FROM CLIP NAME: /home/davidk/code/python/JC-render/JC-examples/yoga.mp4
FINAL CUT PRO REEL: N/A REPLACED BY: N/A

1015   N/A  AA/V  C  00:30:13:16 00:30:13:22 00:30:12:18 00:30:12:23
* FROM CLIP NAME: /home/davidk/code/python/JC-render/JC-examples/yoga.mp4
FINAL CUT PRO REEL: N/A REPLACED BY: N/A

1016   N/A  AA/V  C  00:30:13:22 00:30:14:18 00:30:12:23 00:30:13:19
* FROM CLIP NAME: /home/davidk/code/python/JC-render/JC-examples/yoga.mp4
FINAL CUT PRO REEL: N/A REPLACED BY: N/A

1017   N/A  AA/V  C  00:30:14:18 00:30:14:23 00:30:13:19 00:30:13:24
* FROM CLIP NAME: /home/davidk/code/python/JC-render/JC-examples/yoga.mp4
FINAL CUT PRO REEL: N/A REPLACED BY: N/A

1018   N/A  AA/V  C  00:30:14:23 00:30:18:20 00:30:13:24 00:30:17:21
* FROM CLIP NAME: /home/davidk/code/python/JC-render/JC-examples/yoga.mp4
FINAL CUT PRO REEL: N/A REPLACED BY: N/A

1019   N/A  AA/V  C  00:30:18:20 00:30:19:16 00:30:17:21 00:30:18:17
* FROM CLIP NAME: /home/davidk/code/python/JC-render/JC-examples/yoga.mp4
FINAL CUT PRO REEL: N/A REPLACED BY: N/A

1020   N/A  AA/V  C  00:30:19:16 00:30:20:01 00:30:18:17 00:30:19:03
* FROM CLIP NAME: /home/davidk/code/python/JC-render/JC-examples/yoga.mp4
FINAL CUT PRO REEL: N/A REPLACED BY: N/A

1021   N/A  AA/V  C  00:30:20:01 00:30:20:07 00:30:19:03 00:30:19:08
* FROM CLIP NAME: /home/davidk/code/python/JC-render/JC-examples/yoga.mp4
FINAL CUT PRO REEL: N/A REPLACED BY: N/A

1022   N/A  AA/V  C  00:30:20:07 00:30:20:29 00:30:19:08 00:30:20:00
* FROM CLIP NAME: /home/davidk/code/python/JC-render/JC-examples/yoga.mp4
FINAL CUT PRO REEL: N/A REPLACED BY: N/A

1023   N/A  AA/V  C  00:30:20:29 00:30:24:26 00:30:20:00 00:30:23:27
* FROM CLIP NAME: /home/davidk/code/python/JC-render/JC-examples/yoga.mp4
FINAL CUT PRO REEL: N/A REPLACED BY: N/A

1024   N/A  AA/V  C  00:30:24:26 00:30:25:12 00:30:23:27 00:30:24:13
* FROM CLIP NAME: /home/davidk/code/python/JC-render/JC-examples/yoga.mp4
FINAL CUT PRO REEL: N/A REPLACED BY: N/A

1025   N/A  AA/V  C  00:30:25:12 00:30:25:17 00:30:24:13 00:30:24:18
* FROM CLIP NAME: /home/davidk/code/python/JC-render/JC-examples/yoga.mp4
FINAL CUT PRO REEL: N/A REPLACED BY: N/A

1026   N/A  AA/V  C  00:30:25:17 00:30:26:03 00:30:24:18 00:30:25:04
* FROM CLIP NAME: /home/davidk/code/python/JC-render/JC-examples/yoga.mp4
FINAL CUT PRO REEL: N/A REPLACED BY: N/A

1027   N/A  AA/V  C  00:30:26:03 00:30:30:06 00:30:25:04 00:30:29:08
* FROM CLIP NAME: /home/davidk/code/python/JC-render/JC-examples/yoga.mp4
FINAL CUT PRO REEL: N/A REPLACED BY: N/A

1028   N/A  AA/V  C  00:30:30:06 00:30:30:22 00:30:29:08 00:30:29:23
* FROM CLIP NAME: /home/davidk/code/python/JC-render/JC-examples/yoga.mp4
FINAL CUT PRO REEL: N/A REPLACED BY: N/A

