<?xml version="1.0"?>
<xmeml version="4">
    <project>
        <name>yoga.xml</name>
        <children>
            <sequence id="sequence-1">
                <name>yoga.xml</name>
                <duration>44105</duration>
                <rate>
                    <timebase>24</timebase>
                    <ntsc>TRUE</ntsc>
                </rate>
                <media>
                    <video>
                        <track>
                            <clipitem frameBlend="FALSE" id="clipitem-1">
                                <media>
                                    <video>
                                        <samplecharacteristics>
                                            <height>720</height>
                                            <width>1280</width>
                                        </samplecharacteristics>
                                    </video>
                                </media>
                                <file id="file-1">
                                    <pathurl>/home/davidk/code/python/JC-render/JC-examples/yoga.mp4</pathurl>
                                    <name>yoga.mp4</name>
                                    <rate>
                                        <timebase>24</timebase>
                                        <ntsc>TRUE</ntsc>
                                    </rate>
                                    <duration>44105</duration>
                                    <timecode>
                                        <rate>
                                            <timebase>24</timebase>
                                            <ntsc>TRUE</ntsc>
                                        </rate>
                                        <string>00:00:00:00</string>
                                        <frame>0</frame>
                                        <displayformat>NDF</displayformat>
                                    </timecode>
                                    <media>
                                        <video/>
                                        <audio/>
                                    </media>
                                </file>
                                <name>/home/davidk/code/python/JC-render/JC-examples/yoga.mp4</name>
                                <rate>
                                    <timebase>24</timebase>
                                    <ntsc>TRUE</ntsc>
                                </rate>
                                <rate>
                                    <timebase>24</timebase>
                                    <ntsc>TRUE</ntsc>
                                </rate>
                                <duration>46</duration>
                                <start>0</start>
                                <end>46</end>
                                <in>0</in>
                                <out>46</out>
                            </clipitem>
                            <clipitem frameBlend="FALSE" id="clipitem-2">
                                <media>
                                    <video>
                                        <samplecharacteristics>
                                            <height>720</height>
                                            <width>1280</width>
                                        </samplecharacteristics>
                                    </video>
                                </media>
                                <file id="file-1"/>
                                <name>/home/davidk/code/python/JC-render/JC-examples/yoga.mp4</name>
                                <rate>
                                    <timebase>24</timebase>
                                    <ntsc>TRUE</ntsc>
                                </rate>
                                <rate>
                                    <timebase>24</timebase>
                                    <ntsc>TRUE</ntsc>
                                </rate>
                                <duration>35</duration>
                                <start>46</start>
                                <end>81</end>
                                <in>64</in>
                                <out>99</out>
                            </clipitem>
                            <clipitem frameBlend="FALSE" id="clipitem-3">
                                <media>
                                    <video>
                                        <samplecharacteristics>
                                            <height>720</height>
                                            <width>1280</width>
                                        </samplecharacteristics>
                                    </video>
                                </media>
                                <file id="file-1"/>
                                <name>/home/davidk/code/python/JC-render/JC-examples/yoga.mp4</name>
                                <rate>
                                    <timebase>24</timebase>
                                    <ntsc>TRUE</ntsc>
                                </rate>
                                <rate>
                                    <timebase>24</timebase>
                                    <ntsc>TRUE</ntsc>
                                </rate>
                                <duration>13</duration>
                                <start>81</start>
                                <end>94</end>
                                <in>100</in>
                                <out>113</out>
                            </clipitem>
                            <clipitem frameBlend="FALSE" id="clipitem-4">
                                <media>
                                    <video>
                                        <samplecharacteristics>
                                            <height>720</height>
                                            <width>1280</width>
                                        </samplecharacteristics>
                                    </video>
                                </media>
                                <file id="file-1"/>
                                <name>/home/davidk/code/python/JC-render/JC-examples/yoga.mp4</name>
                                <rate>
                                    <timebase>24</timebase>
                                    <ntsc>TRUE</ntsc>
                                </rate>
                                <rate>
                                    <timebase>24</timebase>
                                    <ntsc>TRUE</ntsc>
                                </rate>
                                <duration>40</duration>
                                <start>94</start>
                                <end>134</end>
                                <in>126</in>
                                <out>166</out>
                            </clipitem>
                            <clipitem frameBlend="FALSE" id="clipitem-5">
                                <media>
                                    <video>
                                        <samplecharacteristics>
                                            <height>720</height>
                                            <width>1280</width>
                                        </samplecharacteristics>
                                    </video>
                                </media>
                                <file id="file-1"/>
                                <name>/home/davidk/code/python/JC-render/JC-examples/yoga.mp4</name>
                                <rate>
                                    <timebase>24</timebase>
                                    <ntsc>TRUE</ntsc>
                                </rate>
                                <rate>
                                    <timebase>24</timebase>
                                    <ntsc>TRUE</ntsc>
                                </rate>
                                <duration>37</duration>
                                <start>134</start>
                                <end>171</end>
                                <in>176</in>
                                <out>213</out>
                            </clipitem>
                            <clipitem frameBlend="FALSE" id="clipitem-6">
                                <media>
                                    <video>
                                        <samplecharacteristics>
                                            <height>720</height>
                                            <width>1280</width>
                                        </samplecharacteristics>
                                    </video>
                                </media>
                                <file id="file-1"/>
                                <name>/home/davidk/code/python/JC-render/JC-examples/yoga.mp4</name>
                                <rate>
                                    <timebase>24</timebase>
                                    <ntsc>TRUE</ntsc>
                                </rate>
                                <rate>
                                    <timebase>24</timebase>
                                    <ntsc>TRUE</ntsc>
                                </rate>
                                <duration>87</duration>
                                <start>171</start>
                                <end>258</end>
                                <in>229</in>
                                <out>316</out>
                            </clipitem>
                            <clipitem frameBlend="FALSE" id="clipitem-7">
                                <media>
                                    <video>
                                        <samplecharacteristics>
                                            <height>720</height>
                                            <width>1280</width>
                                        </samplecharacteristics>
                                    </video>
                                </media>
                                <file id="file-1"/>
                                <name>/home/davidk/code/python/JC-render/JC-examples/yoga.mp4</name>
                                <rate>
                                    <timebase>24</timebase>
                                    <ntsc>TRUE</ntsc>
                                </rate>
                                <rate>
                                    <timebase>24</timebase>
                                    <ntsc>TRUE</ntsc>
                                </rate>
                                <duration>32</duration>
                                <start>258</start>
                                <end>290</end>
                                <in>320</in>
                                <out>352</out>
                            </clipitem>
                            <clipitem frameBlend="FALSE" id="clipitem-8">
                                <media>
                                    <video>
                                        <samplecharacteristics>
                                            <height>720</height>
                                            <width>1280</width>
                                        </samplecharacteristics>
                                    </video>
                                </media>
                                <file id="file-1"/>
                                <name>/home/davidk/code/python/JC-render/JC-examples/yoga.mp4</name>
                                <rate>
                                    <timebase>24</timebase>
                                    <ntsc>TRUE</ntsc>
                                </rate>
                                <rate>
                                    <timebase>24</timebase>
                                    <ntsc>TRUE</ntsc>
                                </rate>
                                <duration>26</duration>
                                <start>290</start>
                                <end>316</end>
                                <in>357</in>
                                <out>383</out>
                            </clipitem>
                            <clipitem frameBlend="FALSE" id="clipitem-9">
                                <media>
                                    <video>
                                        <samplecharacteristics>
                                            <height>720</height>
                                            <width>1280</width>
                                        </samplecharacteristics>
                                    </video>
                                </media>
                                <file id="file-1"/>
                                <name>/home/davidk/code/python/JC-render/JC-examples/yoga.mp4</name>
                                <rate>
                                    <timebase>24</timebase>
                                    <ntsc>TRUE</ntsc>
                                </rate>
                                <rate>
                                    <timebase>24</timebase>
                                    <ntsc>TRUE</ntsc>
                                </rate>
                                <duration>65</duration>
                                <start>316</start>
                                <end>381</end>
                                <in>479</in>
                                <out>544</out>
                            </clipitem>
                            <clipitem frameBlend="FALSE" id="clipitem-10">
                                <media>
                                    <video>
                                        <samplecharacteristics>
                                            <height>720</height>
                                            <width>1280</width>
                                        </samplecharacteristics>
                                    </video>
                                </media>
                                <file id="file-1"/>
                                <name>/home/davidk/code/python/JC-render/JC-examples/yoga.mp4</name>
                                <rate>
                                    <timebase>24</timebase>
                                    <ntsc>TRUE</ntsc>
                                </rate>
                                <rate>
                                    <timebase>24</timebase>
                                    <ntsc>TRUE</ntsc>
                                </rate>
                                <duration>102</duration>
                                <start>381</start>
                                <end>483</end>
                                <in>565</in>
                                <out>667</out>
                            </clipitem>
                            <clipitem frameBlend="FALSE" id="clipitem-11">
                                <media>
                                    <video>
                                        <samplecharacteristics>
                                            <height>720</height>
                                            <width>1280</width>
                                        </samplecharacteristics>
                                    </video>
                                </media>
                                <file id="file-1"/>
                                <name>/home/davidk/code/python/JC-render/JC-examples/yoga.mp4</name>
                                <rate>
                                    <timebase>24</timebase>
                                    <ntsc>TRUE</ntsc>
                                </rate>
                                <rate>
                                    <timebase>24</timebase>
                                    <ntsc>TRUE</ntsc>
                                </rate>
                                <duration>63</duration>
                                <start>483</start>
                                <end>546</end>
                                <in>685</in>
                                <out>748</out>
                            </clipitem>
                            <clipitem frameBlend="FALSE" id="clipitem-12">
                                <media>
                                    <video>
                                        <samplecharacteristics>
                                            <height>720</height>
                                            <width>1280</width>
                                        </samplecharacteristics>
                                    </video>
                                </media>
                                <file id="file-1"/>
                                <name>/home/davidk/code/python/JC-render/JC-examples/yoga.mp4</name>
                                <rate>
                                    <timebase>24</timebase>
                                    <ntsc>TRUE</ntsc>
                                </rate>
                                <rate>
                                    <timebase>24</timebase>
                                    <ntsc>TRUE</ntsc>
                                </rate>
                                <duration>77</duration>
                                <start>546</start>
                                <end>623</end>
                                <in>763</in>
                                <out>840</out>
                            </clipitem>
                            <clipitem frameBlend="FALSE" id="clipitem-13">
                                <media>
                                    <video>
                                        <samplecharacteristics>
                                            <height>720</height>
                                            <width>1280</width>
                                        </samplecharacteristics>
                                    </video>
                                </media>
                                <file id="file-1"/>
                                <name>/home/davidk/code/python/JC-render/JC-examples/yoga.mp4</name>
                                <rate>
                                    <timebase>24</timebase>
                                    <ntsc>TRUE</ntsc>
                                </rate>
                                <rate>
                                    <timebase>24</timebase>
                                    <ntsc>TRUE</ntsc>
                                </rate>
                                <duration>24</duration>
                                <start>623</start>
                                <end>647</end>
                                <in>863</in>
                                <out>887</out>
                            </clipitem>
                            <clipitem frameBlend="FALSE" id="clipitem-14">
                                <media>
                                    <video>
                                        <samplecharacteristics>
                                            <height>720</height>
                                            <width>1280</width>
                                        </samplecharacteristics>
                                    </video>
                                </media>
                                <file id="file-1"/>
                                <name>/home/davidk/code/python/JC-render/JC-examples/yoga.mp4</name>
                                <rate>
                                    <timebase>24</timebase>
                                    <ntsc>TRUE</ntsc>
                                </rate>
                                <rate>
                                    <timebase>24</timebase>
                                    <ntsc>TRUE</ntsc>
                                </rate>
                                <duration>21</duration>
                                <start>647</start>
                                <end>668</end>
                                <in>902</in>
                                <out>923</out>
                            </clipitem>
                            <clipitem frameBlend="FALSE" id="clipitem-15">
                                <media>
                                    <video>
                                        <samplecharacteristics>
                                            <height>720</height>
                                            <width>1280</width>
                                        </samplecharacteristics>
                                    </video>
                                </media>
                                <file id="file-1"/>
                                <name>/home/davidk/code/python/JC-render/JC-examples/yoga.mp4</name>
                                <rate>
                                    <timebase>24</timebase>
                                    <ntsc>TRUE</ntsc>
                                </rate>
                                <rate>
                                    <timebase>24</timebase>
                                    <ntsc>TRUE</ntsc>
                                </rate>
                                <duration>51</duration>
                                <start>668</start>
                                <end>719</end>
                                <in>964</in>
                                <out>1015</out>
                            </clipitem>
                            <clipitem frameBlend="FALSE" id="clipitem-16">
                                <media>
                                    <video>
                                        <samplecharacteristics>
                                            <height>720</height>
                                            <width>1280</width>
                                        </samplecharacteristics>
                                    </video>
                                </media>
                                <file id="file-1"/>
                                <name>/home/davidk/code/python/JC-render/JC-examples/yoga.mp4</name>
                                <rate>
                                    <timebase>24</timebase>
                                    <ntsc>TRUE</ntsc>
                                </rate>
                                <rate>
                                    <timebase>24</timebase>
                                    <ntsc>TRUE</ntsc>
                                </rate>
                                <duration>27</duration>
                                <start>719</start>
                                <end>746</end>
                                <in>1069</in>
                                <out>1096</out>
                            </clipitem>
                            <clipitem frameBlend="FALSE" id="clipitem-17">
                                <media>
                                    <video>
                                        <samplecharacteristics>
                                            <height>720</height>
                                            <width>1280</width>
                                        </samplecharacteristics>
                                    </video>
                                </media>
                                <file id="file-1"/>
                                <name>/home/davidk/code/python/JC-render/JC-examples/yoga.mp4</name>
                                <rate>
                                    <timebase>24</timebase>
                                    <ntsc>TRUE</ntsc>
                                </rate>
                                <rate>
                                    <timebase>24</timebase>
                                    <ntsc>TRUE</ntsc>
                                </rate>
                                <duration>48</duration>
                                <start>746</start>
                                <end>794</end>
                                <in>1106</in>
                                <out>1154</out>
                            </clipitem>
                            <clipitem frameBlend="FALSE" id="clipitem-18">
                                <media>
                                    <video>
                                        <samplecharacteristics>
                                            <height>720</height>
                                            <width>1280</width>
                                        </samplecharacteristics>
                                    </video>
                                </media>
                                <file id="file-1"/>
                                <name>/home/davidk/code/python/JC-render/JC-examples/yoga.mp4</name>
                                <rate>
                                    <timebase>24</timebase>
                                    <ntsc>TRUE</ntsc>
                                </rate>
                                <rate>
                                    <timebase>24</timebase>
                                    <ntsc>TRUE</ntsc>
                                </rate>
                                <duration>60</duration>
                                <start>794</start>
                                <end>854</end>
                                <in>1189</in>
                                <out>1249</out>
                            </clipitem>
                            <clipitem frameBlend="FALSE" id="clipitem-19">
                                <media>
                                    <video>
                                        <samplecharacteristics>
                                            <height>720</height>
                                            <width>1280</width>
                                        </samplecharacteristics>
                                    </video>
                                </media>
                                <file id="file-1"/>
                                <name>/home/davidk/code/python/JC-render/JC-examples/yoga.mp4</name>
                                <rate>
                                    <timebase>24</timebase>
                                    <ntsc>TRUE</ntsc>
                                </rate>
                                <rate>
                                    <timebase>24</timebase>
                                    <ntsc>TRUE</ntsc>
                                </rate>
                                <duration>69</duration>
                                <start>854</start>
                                <end>923</end>
                                <in>1261</in>
                                <out>1330</out>
                            </clipitem>
                            <clipitem frameBlend="FALSE" id="clipitem-20">
                                <media>
                                    <video>
                                        <samplecharacteristics>
                                            <height>720</height>
                                            <width>1280</width>
                                        </samplecharacteristics>
                                    </video>
                                </media>
                                <file id="file-1"/>
                                <name>/home/davidk/code/python/JC-render/JC-examples/yoga.mp4</name>
                                <rate>
                                    <timebase>24</timebase>
                                    <ntsc>TRUE</ntsc>
                                </rate>
                                <rate>
                                    <timebase>24</timebase>
                                    <ntsc>TRUE</ntsc>
                                </rate>
                                <duration>13</duration>
                                <start>923</start>
                                <end>936</end>
                                <in>1381</in>
                                <out>1394</out>
                            </clipitem>
                            <clipitem frameBlend="FALSE" id="clipitem-21">
                                <media>
                                    <video>
                                        <samplecharacteristics>
                                            <height>720</height>
                                            <width>1280</width>
                                        </samplecharacteristics>
                                    </video>
                                </media>
                                <file id="file-1"/>
                                <name>/home/davidk/code/python/JC-render/JC-examples/yoga.mp4</name>
                                <rate>
                                    <timebase>24</timebase>
                                    <ntsc>TRUE</ntsc>
                                </rate>
                                <rate>
                                    <timebase>24</timebase>
                                    <ntsc>TRUE</ntsc>
                                </rate>
                                <duration>13</duration>
                                <start>936</start>
                                <end>949</end>
                                <in>1417</in>
                                <out>1430</out>
                            </clipitem>
                            <clipitem frameBlend="FALSE" id="clipitem-22">
                                <media>
                                    <video>
                                        <samplecharacteristics>
                                            <height>720</height>
                                            <width>1280</width>
                                        </samplecharacteristics>
                                    </video>
                                </media>
                                <file id="file-1"/>
                                <name>/home/davidk/code/python/JC-render/JC-examples/yoga.mp4</name>
                                <rate>
                                    <timebase>24</timebase>
                                    <ntsc>TRUE</ntsc>
                                </rate>
                                <rate>
                                    <timebase>24</timebase>
                                    <ntsc>TRUE</ntsc>
                                </rate>
                                <duration>29</duration>
                                <start>949</start>
                                <end>978</end>
                                <in>1440</in>
                                <out>1469</out>
                            </clipitem>
                            <clipitem frameBlend="FALSE" id="clipitem-23">
                                <media>
                                    <video>
                                        <samplecharacteristics>
                                            <height>720</height>
                                            <width>1280</width>
                                        </samplecharacteristics>
                                    </video>
                                </media>
                                <file id="file-1"/>
                                <name>/home/davidk/code/python/JC-render/JC-examples/yoga.mp4</name>
                                <rate>
                                    <timebase>24</timebase>
                                    <ntsc>TRUE</ntsc>
                                </rate>
                                <rate>
                                    <timebase>24</timebase>
                                    <ntsc>TRUE</ntsc>
                                </rate>
                                <duration>46</duration>
                                <start>978</start>
                                <end>1024</end>
                                <in>1481</in>
                                <out>1527</out>
                            </clipitem>
                            <clipitem frameBlend="FALSE" id="clipitem-24">
                                <media>
                                    <video>
                                        <samplecharacteristics>
                                            <height>720</height>
                                            <width>1280</width>
                                        </samplecharacteristics>
                                    </video>
                                </media>
                                <file id="file-1"/>
                                <name>/home/davidk/code/python/JC-render/JC-examples/yoga.mp4</name>
                                <rate>
                                    <timebase>24</timebase>
                                    <ntsc>TRUE</ntsc>
                                </rate>
                                <rate>
                                    <timebase>24</timebase>
                                    <ntsc>TRUE</ntsc>
                                </rate>
                                <duration>191</duration>
                                <start>1024</start>
                                <end>1215</end>
                                <in>1537</in>
                                <out>1728</out>
                            </clipitem>
                            <clipitem frameBlend="FALSE" id="clipitem-25">
                                <media>
                                    <video>
                                        <samplecharacteristics>
                                            <height>720</height>
                                            <width>1280</width>
                                        </samplecharacteristics>
                                    </video>
                                </media>
                                <file id="file-1"/>
                                <name>/home/davidk/code/python/JC-render/JC-examples/yoga.mp4</name>
                                <rate>
                                    <timebase>24</timebase>
                                    <ntsc>TRUE</ntsc>
                                </rate>
                                <rate>
                                    <timebase>24</timebase>
                                    <ntsc>TRUE</ntsc>
                                </rate>
                                <duration>13</duration>
                                <start>1215</start>
                                <end>1228</end>
                                <in>1729</in>
                                <out>1742</out>
                            </clipitem>
                            <clipitem frameBlend="FALSE" id="clipitem-26">
                                <media>
                                    <video>
                                        <samplecharacteristics>
                                            <height>720</height>
                                            <width>1280</width>
                                        </samplecharacteristics>
                                    </video>
                                </media>
                                <file id="file-1"/>
                                <name>/home/davidk/code/python/JC-render/JC-examples/yoga.mp4</name>
                                <rate>
                                    <timebase>24</timebase>
                                    <ntsc>TRUE</ntsc>
                                </rate>
                                <rate>
                                    <timebase>24</timebase>
                                    <ntsc>TRUE</ntsc>
                                </rate>
                                <duration>24</duration>
                                <start>1228</start>
                                <end>1252</end>
                                <in>1754</in>
                                <out>1778</out>
                            </clipitem>
                            <clipitem frameBlend="FALSE" id="clipitem-27">
                                <media>
                                    <video>
                                        <samplecharacteristics>
                                            <height>720</height>
                                            <width>1280</width>
                                        </samplecharacteristics>
                                    </video>
                                </media>
                                <file id="file-1"/>
                                <name>/home/davidk/code/python/JC-render/JC-examples/yoga.mp4</name>
                                <rate>
                                    <timebase>24</timebase>
                                    <ntsc>TRUE</ntsc>
                                </rate>
                                <rate>
                                    <timebase>24</timebase>
                                    <ntsc>TRUE</ntsc>
                                </rate>
                                <duration>12</duration>
                                <start>1252</start>
                                <end>1264</end>
                                <in>1802</in>
                                <out>1814</out>
                            </clipitem>
                            <clipitem frameBlend="FALSE" id="clipitem-28">
                                <media>
                                    <video>
                                        <samplecharacteristics>
                                            <height>720</height>
                                            <width>1280</width>
                                        </samplecharacteristics>
                                    </video>
                                </media>
                                <file id="file-1"/>
                                <name>/home/davidk/code/python/JC-render/JC-examples/yoga.mp4</name>
                                <rate>
                                    <timebase>24</timebase>
                                    <ntsc>TRUE</ntsc>
                                </rate>
                                <rate>
                                    <timebase>24</timebase>
                                    <ntsc>TRUE</ntsc>
                                </rate>
                                <duration>34</duration>
                                <start>1264</start>
                                <end>1298</end>
                                <in>1827</in>
                                <out>1861</out>
                            </clipitem>
                            <clipitem frameBlend="FALSE" id="clipitem-29">
                                <media>
                                    <video>
                                        <samplecharacteristics>
                                            <height>720</height>
                                            <width>1280</width>
                                        </samplecharacteristics>
                                    </video>
                                </media>
                                <file id="file-1"/>
                                <name>/home/davidk/code/python/JC-render/JC-examples/yoga.mp4</name>
                                <rate>
                                    <timebase>24</timebase>
                                    <ntsc>TRUE</ntsc>
                                </rate>
                                <rate>
                                    <timebase>24</timebase>
                                    <ntsc>TRUE</ntsc>
                                </rate>
                                <duration>107</duration>
                                <start>1298</start>
                                <end>1405</end>
                                <in>1874</in>
                                <out>1981</out>
                            </clipitem>
                            <clipitem frameBlend="FALSE" id="clipitem-30">
                                <media>
                                    <video>
                                        <samplecharacteristics>
                                            <height>720</height>
                                            <width>1280</width>
                                        </samplecharacteristics>
                                    </video>
                                </media>
                                <file id="file-1"/>
                                <name>/home/davidk/code/python/JC-render/JC-examples/yoga.mp4</name>
                                <rate>
                                    <timebase>24</timebase>
                                    <ntsc>TRUE</ntsc>
                                </rate>
                                <rate>
                                    <timebase>24</timebase>
                                    <ntsc>TRUE</ntsc>
                                </rate>
                                <duration>76</duration>
                                <start>1405</start>
                                <end>1481</end>
                                <in>1994</in>
                                <out>2070</out>
                            </clipitem>
                            <clipitem frameBlend="FALSE" id="clipitem-31">
                                <media>
                                    <video>
                                        <samplecharacteristics>
                                            <height>720</height>
                                            <width>1280</width>
                                        </samplecharacteristics>
                                    </video>
                                </media>
                                <file id="file-1"/>
                                <name>/home/davidk/code/python/JC-render/JC-examples/yoga.mp4</name>
                                <rate>
                                    <timebase>24</timebase>
                                    <ntsc>TRUE</ntsc>
                                </rate>
                                <rate>
                                    <timebase>24</timebase>
                                    <ntsc>TRUE</ntsc>
                                </rate>
                                <duration>79</duration>
                                <start>1481</start>
                                <end>1560</end>
                                <in>2094</in>
                                <out>2173</out>
                            </clipitem>
                            <clipitem frameBlend="FALSE" id="clipitem-32">
                                <media>
                                    <video>
                                        <samplecharacteristics>
                                            <height>720</height>
                                            <width>1280</width>
                                        </samplecharacteristics>
                                    </video>
                                </media>
                                <file id="file-1"/>
                                <name>/home/davidk/code/python/JC-render/JC-examples/yoga.mp4</name>
                                <rate>
                                    <timebase>24</timebase>
                                    <ntsc>TRUE</ntsc>
                                </rate>
                                <rate>
                                    <timebase>24</timebase>
                                    <ntsc>TRUE</ntsc>
                                </rate>
                                <duration>62</duration>
                                <start>1560</start>
                                <end>1622</end>
                                <in>2186</in>
                                <out>2248</out>
                            </clipitem>
                            <clipitem frameBlend="FALSE" id="clipitem-33">
                                <media>
                                    <video>
                                        <samplecharacteristics>
                                            <height>720</height>
                                            <width>1280</width>
                                        </samplecharacteristics>
                                    </video>
                                </media>
                                <file id="file-1"/>
                                <name>/home/davidk/code/python/JC-render/JC-examples/yoga.mp4</name>
                                <rate>
                                    <timebase>24</timebase>
                                    <ntsc>TRUE</ntsc>
                                </rate>
                                <rate>
                                    <timebase>24</timebase>
                                    <ntsc>TRUE</ntsc>
                                </rate>
                                <duration>71</duration>
                                <start>1622</start>
                                <end>1693</end>
                                <in>2258</in>
                                <out>2329</out>
                            </clipitem>
                            <clipitem frameBlend="FALSE" id="clipitem-34">
                                <media>
                                    <video>
                                        <samplecharacteristics>
                                            <height>720</height>
                                            <width>1280</width>
                                        </samplecharacteristics>
                                    </video>
                                </media>
                                <file id="file-1"/>
                                <name>/home/davidk/code/python/JC-render/JC-examples/yoga.mp4</name>
                                <rate>
                                    <timebase>24</timebase>
                                    <ntsc>TRUE</ntsc>
                                </rate>
                                <rate>
                                    <timebase>24</timebase>
                                    <ntsc>TRUE</ntsc>
                                </rate>
                                <duration>71</duration>
                                <start>1693</start>
                                <end>1764</end>
                                <in>2342</in>
                                <out>2413</out>
                            </clipitem>
                            <clipitem frameBlend="FALSE" id="clipitem-35">
                                <media>
                                    <video>
                                        <samplecharacteristics>
                                            <height>720</height>
                                            <width>1280</width>
                                        </samplecharacteristics>
                                    </video>
                                </media>
                                <file id="file-1"/>
                                <name>/home/davidk/code/python/JC-render/JC-examples/yoga.mp4</name>
                                <rate>
                                    <timebase>24</timebase>
                                    <ntsc>TRUE</ntsc>
                                </rate>
                                <rate>
                                    <timebase>24</timebase>
                                    <ntsc>TRUE</ntsc>
                                </rate>
                                <duration>35</duration>
                                <start>1764</start>
                                <end>1799</end>
                                <in>2414</in>
                                <out>2449</out>
                            </clipitem>
                            <clipitem frameBlend="FALSE" id="clipitem-36">
                                <media>
                                    <video>
                                        <samplecharacteristics>
                                            <height>720</height>
                                            <width>1280</width>
                                        </samplecharacteristics>
                                    </video>
                                </media>
                                <file id="file-1"/>
                                <name>/home/davidk/code/python/JC-render/JC-examples/yoga.mp4</name>
                                <rate>
                                    <timebase>24</timebase>
                                    <ntsc>TRUE</ntsc>
                                </rate>
                                <rate>
                                    <timebase>24</timebase>
                                    <ntsc>TRUE</ntsc>
                                </rate>
                                <duration>24</duration>
                                <start>1799</start>
                                <end>1823</end>
                                <in>2461</in>
                                <out>2485</out>
                            </clipitem>
                            <clipitem frameBlend="FALSE" id="clipitem-37">
                                <media>
                                    <video>
                                        <samplecharacteristics>
                                            <height>720</height>
                                            <width>1280</width>
                                        </samplecharacteristics>
                                    </video>
                                </media>
                                <file id="file-1"/>
                                <name>/home/davidk/code/python/JC-render/JC-examples/yoga.mp4</name>
                                <rate>
                                    <timebase>24</timebase>
                                    <ntsc>TRUE</ntsc>
                                </rate>
                                <rate>
                                    <timebase>24</timebase>
                                    <ntsc>TRUE</ntsc>
                                </rate>
                                <duration>34</duration>
                                <start>1823</start>
                                <end>1857</end>
                                <in>2715</in>
                                <out>2749</out>
                            </clipitem>
                            <clipitem frameBlend="FALSE" id="clipitem-38">
                                <media>
                                    <video>
                                        <samplecharacteristics>
                                            <height>720</height>
                                            <width>1280</width>
                                        </samplecharacteristics>
                                    </video>
                                </media>
                                <file id="file-1"/>
                                <name>/home/davidk/code/python/JC-render/JC-examples/yoga.mp4</name>
                                <rate>
                                    <timebase>24</timebase>
                                    <ntsc>TRUE</ntsc>
                                </rate>
                                <rate>
                                    <timebase>24</timebase>
                                    <ntsc>TRUE</ntsc>
                                </rate>
                                <duration>45</duration>
                                <start>1857</start>
                                <end>1902</end>
                                <in>2757</in>
                                <out>2802</out>
                            </clipitem>
                            <clipitem frameBlend="FALSE" id="clipitem-39">
                                <media>
                                    <video>
                                        <samplecharacteristics>
                                            <height>720</height>
                                            <width>1280</width>
                                        </samplecharacteristics>
                                    </video>
                                </media>
                                <file id="file-1"/>
                                <name>/home/davidk/code/python/JC-render/JC-examples/yoga.mp4</name>
                                <rate>
                                    <timebase>24</timebase>
                                    <ntsc>TRUE</ntsc>
                                </rate>
                                <rate>
                                    <timebase>24</timebase>
                                    <ntsc>TRUE</ntsc>
                                </rate>
                                <duration>54</duration>
                                <start>1902</start>
                                <end>1956</end>
                                <in>2815</in>
                                <out>2869</out>
                            </clipitem>
                            <clipitem frameBlend="FALSE" id="clipitem-40">
                                <media>
                                    <video>
                                        <samplecharacteristics>
                                            <height>720</height>
                                            <width>1280</width>
                                        </samplecharacteristics>
                                    </video>
                                </media>
                                <file id="file-1"/>
                                <name>/home/davidk/code/python/JC-render/JC-examples/yoga.mp4</name>
                                <rate>
                                    <timebase>24</timebase>
                                    <ntsc>TRUE</ntsc>
                                </rate>
                                <rate>
                                    <timebase>24</timebase>
                                    <ntsc>TRUE</ntsc>
                                </rate>
                                <duration>63</duration>
                                <start>1956</start>
                                <end>2019</end>
                                <in>2876</in>
                                <out>2939</out>
                            </clipitem>
                            <clipitem frameBlend="FALSE" id="clipitem-41">
                                <media>
                                    <video>
                                        <samplecharacteristics>
                                            <height>720</height>
                                            <width>1280</width>
                                        </samplecharacteristics>
                                    </video>
                                </media>
                                <file id="file-1"/>
                                <name>/home/davidk/code/python/JC-render/JC-examples/yoga.mp4</name>
                                <rate>
                                    <timebase>24</timebase>
                                    <ntsc>TRUE</ntsc>
                                </rate>
                                <rate>
                                    <timebase>24</timebase>
                                    <ntsc>TRUE</ntsc>
                                </rate>
                                <duration>32</duration>
                                <start>2019</start>
                                <end>2051</end>
                                <in>3029</in>
                                <out>3061</out>
                            </clipitem>
                            <clipitem frameBlend="FALSE" id="clipitem-42">
                                <media>
                                    <video>
                                        <samplecharacteristics>
                                            <height>720</height>
                                            <width>1280</width>
                                        </samplecharacteristics>
                                    </video>
                                </media>
                                <file id="file-1"/>
                                <name>/home/davidk/code/python/JC-render/JC-examples/yoga.mp4</name>
                                <rate>
                                    <timebase>24</timebase>
                                    <ntsc>TRUE</ntsc>
                                </rate>
                                <rate>
                                    <timebase>24</timebase>
                                    <ntsc>TRUE</ntsc>
                                </rate>
                                <duration>37</duration>
                                <start>2051</start>
                                <end>2088</end>
                                <in>3099</in>
                                <out>3136</out>
                            </clipitem>
                            <clipitem frameBlend="FALSE" id="clipitem-43">
                                <media>
                                    <video>
                                        <samplecharacteristics>
                                            <height>720</height>
                                            <width>1280</width>
                                        </samplecharacteristics>
                                    </video>
                                </media>
                                <file id="file-1"/>
                                <name>/home/davidk/code/python/JC-render/JC-examples/yoga.mp4</name>
                                <rate>
                                    <timebase>24</timebase>
                                    <ntsc>TRUE</ntsc>
                                </rate>
                                <rate>
                                    <timebase>24</timebase>
                                    <ntsc>TRUE</ntsc>
                                </rate>
                                <duration>57</duration>
                                <start>2088</start>
                                <end>2145</end>
                                <in>3163</in>
                                <out>3220</out>
                            </clipitem>
                            <clipitem frameBlend="FALSE" id="clipitem-44">
                                <media>
                                    <video>
                                        <samplecharacteristics>
                                            <height>720</height>
                                            <width>1280</width>
                                        </samplecharacteristics>
                                    </video>
                                </media>
                                <file id="file-1"/>
                                <name>/home/davidk/code/python/JC-render/JC-examples/yoga.mp4</name>
                                <rate>
                                    <timebase>24</timebase>
                                    <ntsc>TRUE</ntsc>
                                </rate>
                                <rate>
                                    <timebase>24</timebase>
                                    <ntsc>TRUE</ntsc>
                                </rate>
                                <duration>43</duration>
                                <start>2145</start>
                                <end>2188</end>
                                <in>3233</in>
                                <out>3276</out>
                            </clipitem>
                            <clipitem frameBlend="FALSE" id="clipitem-45">
                                <media>
                                    <video>
                                        <samplecharacteristics>
                                            <height>720</height>
                                            <width>1280</width>
                                        </samplecharacteristics>
                                    </video>
                                </media>
                                <file id="file-1"/>
                                <name>/home/davidk/code/python/JC-render/JC-examples/yoga.mp4</name>
                                <rate>
                                    <timebase>24</timebase>
                                    <ntsc>TRUE</ntsc>
                                </rate>
                                <rate>
                                    <timebase>24</timebase>
                                    <ntsc>TRUE</ntsc>
                                </rate>
                                <duration>66</duration>
                                <start>2188</start>
                                <end>2254</end>
                                <in>3313</in>
                                <out>3379</out>
                            </clipitem>
                            <clipitem frameBlend="FALSE" id="clipitem-46">
                                <media>
                                    <video>
                                        <samplecharacteristics>
                                            <height>720</height>
                                            <width>1280</width>
                                        </samplecharacteristics>
                                    </video>
                                </media>
                                <file id="file-1"/>
                                <name>/home/davidk/code/python/JC-render/JC-examples/yoga.mp4</name>
                                <rate>
                                    <timebase>24</timebase>
                                    <ntsc>TRUE</ntsc>
                                </rate>
                                <rate>
                                    <timebase>24</timebase>
                                    <ntsc>TRUE</ntsc>
                                </rate>
                                <duration>84</duration>
                                <start>2254</start>
                                <end>2338</end>
                                <in>3453</in>
                                <out>3537</out>
                            </clipitem>
                            <clipitem frameBlend="FALSE" id="clipitem-47">
                                <media>
                                    <video>
                                        <samplecharacteristics>
                                            <height>720</height>
                                            <width>1280</width>
                                        </samplecharacteristics>
                                    </video>
                                </media>
                                <file id="file-1"/>
                                <name>/home/davidk/code/python/JC-render/JC-examples/yoga.mp4</name>
                                <rate>
                                    <timebase>24</timebase>
                                    <ntsc>TRUE</ntsc>
                                </rate>
                                <rate>
                                    <timebase>24</timebase>
                                    <ntsc>TRUE</ntsc>
                                </rate>
                                <duration>37</duration>
                                <start>2338</start>
                                <end>2375</end>
                                <in>3550</in>
                                <out>3587</out>
                            </clipitem>
                            <clipitem frameBlend="FALSE" id="clipitem-48">
                                <media>
                                    <video>
                                        <samplecharacteristics>
                                            <height>720</height>
                                            <width>1280</width>
                                        </samplecharacteristics>
                                    </video>
                                </media>
                                <file id="file-1"/>
                                <name>/home/davidk/code/python/JC-render/JC-examples/yoga.mp4</name>
                                <rate>
                                    <timebase>24</timebase>
                                    <ntsc>TRUE</ntsc>
                                </rate>
                                <rate>
                                    <timebase>24</timebase>
                                    <ntsc>TRUE</ntsc>
                                </rate>
                                <duration>32</duration>
                                <start>2375</start>
                                <end>2407</end>
                                <in>3589</in>
                                <out>3621</out>
                            </clipitem>
                            <clipitem frameBlend="FALSE" id="clipitem-49">
                                <media>
                                    <video>
                                        <samplecharacteristics>
                                            <height>720</height>
                                            <width>1280</width>
                                        </samplecharacteristics>
                                    </video>
                                </media>
                                <file id="file-1"/>
                                <name>/home/davidk/code/python/JC-render/JC-examples/yoga.mp4</name>
                                <rate>
                                    <timebase>24</timebase>
                                    <ntsc>TRUE</ntsc>
                                </rate>
                                <rate>
                                    <timebase>24</timebase>
                                    <ntsc>TRUE</ntsc>
                                </rate>
                                <duration>32</duration>
                                <start>2407</start>
                                <end>2439</end>
                                <in>3628</in>
                                <out>3660</out>
                            </clipitem>
                            <clipitem frameBlend="FALSE" id="clipitem-50">
                                <media>
                                    <video>
                                        <samplecharacteristics>
                                            <height>720</height>
                                            <width>1280</width>
                                        </samplecharacteristics>
                                    </video>
                                </media>
                                <file id="file-1"/>
                                <name>/home/davidk/code/python/JC-render/JC-examples/yoga.mp4</name>
                                <rate>
                                    <timebase>24</timebase>
                                    <ntsc>TRUE</ntsc>
                                </rate>
                                <rate>
                                    <timebase>24</timebase>
                                    <ntsc>TRUE</ntsc>
                                </rate>
                                <duration>77</duration>
                                <start>2439</start>
                                <end>2516</end>
                                <in>3750</in>
                                <out>3827</out>
                            </clipitem>
                            <clipitem frameBlend="FALSE" id="clipitem-51">
                                <media>
                                    <video>
                                        <samplecharacteristics>
                                            <height>720</height>
                                            <width>1280</width>
                                        </samplecharacteristics>
                                    </video>
                                </media>
                                <file id="file-1"/>
                                <name>/home/davidk/code/python/JC-render/JC-examples/yoga.mp4</name>
                                <rate>
                                    <timebase>24</timebase>
                                    <ntsc>TRUE</ntsc>
                                </rate>
                                <rate>
                                    <timebase>24</timebase>
                                    <ntsc>TRUE</ntsc>
                                </rate>
                                <duration>51</duration>
                                <start>2516</start>
                                <end>2567</end>
                                <in>3887</in>
                                <out>3938</out>
                            </clipitem>
                            <clipitem frameBlend="FALSE" id="clipitem-52">
                                <media>
                                    <video>
                                        <samplecharacteristics>
                                            <height>720</height>
                                            <width>1280</width>
                                        </samplecharacteristics>
                                    </video>
                                </media>
                                <file id="file-1"/>
                                <name>/home/davidk/code/python/JC-render/JC-examples/yoga.mp4</name>
                                <rate>
                                    <timebase>24</timebase>
                                    <ntsc>TRUE</ntsc>
                                </rate>
                                <rate>
                                    <timebase>24</timebase>
                                    <ntsc>TRUE</ntsc>
                                </rate>
                                <duration>26</duration>
                                <start>2567</start>
                                <end>2593</end>
                                <in>3943</in>
                                <out>3969</out>
                            </clipitem>
                            <clipitem frameBlend="FALSE" id="clipitem-53">
                                <media>
                                    <video>
                                        <samplecharacteristics>
                                            <height>720</height>
                                            <width>1280</width>
                                        </samplecharacteristics>
                                    </video>
                                </media>
                                <file id="file-1"/>
                                <name>/home/davidk/code/python/JC-render/JC-examples/yoga.mp4</name>
                                <rate>
                                    <timebase>24</timebase>
                                    <ntsc>TRUE</ntsc>
                                </rate>
                                <rate>
                                    <timebase>24</timebase>
                                    <ntsc>TRUE</ntsc>
                                </rate>
                                <duration>48</duration>
                                <start>2593</start>
                                <end>2641</end>
                                <in>3993</in>
                                <out>4041</out>
                            </clipitem>
                            <clipitem frameBlend="FALSE" id="clipitem-54">
                                <media>
                                    <video>
                                        <samplecharacteristics>
                                            <height>720</height>
                                            <width>1280</width>
                                        </samplecharacteristics>
                                    </video>
                                </media>
                                <file id="file-1"/>
                                <name>/home/davidk/code/python/JC-render/JC-examples/yoga.mp4</name>
                                <rate>
                                    <timebase>24</timebase>
                                    <ntsc>TRUE</ntsc>
                                </rate>
                                <rate>
                                    <timebase>24</timebase>
                                    <ntsc>TRUE</ntsc>
                                </rate>
                                <duration>29</duration>
                                <start>2641</start>
                                <end>2670</end>
                                <in>4115</in>
                                <out>4144</out>
                            </clipitem>
                            <clipitem frameBlend="FALSE" id="clipitem-55">
                                <media>
                                    <video>
                                        <samplecharacteristics>
                                            <height>720</height>
                                            <width>1280</width>
                                        </samplecharacteristics>
                                    </video>
                                </media>
                                <file id="file-1"/>
                                <name>/home/davidk/code/python/JC-render/JC-examples/yoga.mp4</name>
                                <rate>
                                    <timebase>24</timebase>
                                    <ntsc>TRUE</ntsc>
                                </rate>
                                <rate>
                                    <timebase>24</timebase>
                                    <ntsc>TRUE</ntsc>
                                </rate>
                                <duration>37</duration>
                                <start>2670</start>
                                <end>2707</end>
                                <in>4168</in>
                                <out>4205</out>
                            </clipitem>
                            <clipitem frameBlend="FALSE" id="clipitem-56">
                                <media>
                                    <video>
                                        <samplecharacteristics>
                                            <height>720</height>
                                            <width>1280</width>
                                        </samplecharacteristics>
                                    </video>
                                </media>
                                <file id="file-1"/>
                                <name>/home/davidk/code/python/JC-render/JC-examples/yoga.mp4</name>
                                <rate>
                                    <timebase>24</timebase>
                                    <ntsc>TRUE</ntsc>
                                </rate>
                                <rate>
                                    <timebase>24</timebase>
                                    <ntsc>TRUE</ntsc>
                                </rate>
                                <duration>37</duration>
                                <start>2707</start>
                                <end>2744</end>
                                <in>4207</in>
                                <out>4244</out>
                            </clipitem>
                            <clipitem frameBlend="FALSE" id="clipitem-57">
                                <media>
                                    <video>
                                        <samplecharacteristics>
                                            <height>720</height>
                                            <width>1280</width>
                                        </samplecharacteristics>
                                    </video>
                                </media>
                                <file id="file-1"/>
                                <name>/home/davidk/code/python/JC-render/JC-examples/yoga.mp4</name>
                                <rate>
                                    <timebase>24</timebase>
                                    <ntsc>TRUE</ntsc>
                                </rate>
                                <rate>
                                    <timebase>24</timebase>
                                    <ntsc>TRUE</ntsc>
                                </rate>
                                <duration>24</duration>
                                <start>2744</start>
                                <end>2768</end>
                                <in>4257</in>
                                <out>4281</out>
                            </clipitem>
                            <clipitem frameBlend="FALSE" id="clipitem-58">
                                <media>
                                    <video>
                                        <samplecharacteristics>
                                            <height>720</height>
                                            <width>1280</width>
                                        </samplecharacteristics>
                                    </video>
                                </media>
                                <file id="file-1"/>
                                <name>/home/davidk/code/python/JC-render/JC-examples/yoga.mp4</name>
                                <rate>
                                    <timebase>24</timebase>
                                    <ntsc>TRUE</ntsc>
                                </rate>
                                <rate>
                                    <timebase>24</timebase>
                                    <ntsc>TRUE</ntsc>
                                </rate>
                                <duration>24</duration>
                                <start>2768</start>
                                <end>2792</end>
                                <in>4293</in>
                                <out>4317</out>
                            </clipitem>
                            <clipitem frameBlend="FALSE" id="clipitem-59">
                                <media>
                                    <video>
                                        <samplecharacteristics>
                                            <height>720</height>
                                            <width>1280</width>
                                        </samplecharacteristics>
                                    </video>
                                </media>
                                <file id="file-1"/>
                                <name>/home/davidk/code/python/JC-render/JC-examples/yoga.mp4</name>
                                <rate>
                                    <timebase>24</timebase>
                                    <ntsc>TRUE</ntsc>
                                </rate>
                                <rate>
                                    <timebase>24</timebase>
                                    <ntsc>TRUE</ntsc>
                                </rate>
                                <duration>110</duration>
                                <start>2792</start>
                                <end>2902</end>
                                <in>4327</in>
                                <out>4437</out>
                            </clipitem>
                            <clipitem frameBlend="FALSE" id="clipitem-60">
                                <media>
                                    <video>
                                        <samplecharacteristics>
                                            <height>720</height>
                                            <width>1280</width>
                                        </samplecharacteristics>
                                    </video>
                                </media>
                                <file id="file-1"/>
                                <name>/home/davidk/code/python/JC-render/JC-examples/yoga.mp4</name>
                                <rate>
                                    <timebase>24</timebase>
                                    <ntsc>TRUE</ntsc>
                                </rate>
                                <rate>
                                    <timebase>24</timebase>
                                    <ntsc>TRUE</ntsc>
                                </rate>
                                <duration>63</duration>
                                <start>2902</start>
                                <end>2965</end>
                                <in>4446</in>
                                <out>4509</out>
                            </clipitem>
                            <clipitem frameBlend="FALSE" id="clipitem-61">
                                <media>
                                    <video>
                                        <samplecharacteristics>
                                            <height>720</height>
                                            <width>1280</width>
                                        </samplecharacteristics>
                                    </video>
                                </media>
                                <file id="file-1"/>
                                <name>/home/davidk/code/python/JC-render/JC-examples/yoga.mp4</name>
                                <rate>
                                    <timebase>24</timebase>
                                    <ntsc>TRUE</ntsc>
                                </rate>
                                <rate>
                                    <timebase>24</timebase>
                                    <ntsc>TRUE</ntsc>
                                </rate>
                                <duration>123</duration>
                                <start>2965</start>
                                <end>3088</end>
                                <in>4522</in>
                                <out>4645</out>
                            </clipitem>
                            <clipitem frameBlend="FALSE" id="clipitem-62">
                                <media>
                                    <video>
                                        <samplecharacteristics>
                                            <height>720</height>
                                            <width>1280</width>
                                        </samplecharacteristics>
                                    </video>
                                </media>
                                <file id="file-1"/>
                                <name>/home/davidk/code/python/JC-render/JC-examples/yoga.mp4</name>
                                <rate>
                                    <timebase>24</timebase>
                                    <ntsc>TRUE</ntsc>
                                </rate>
                                <rate>
                                    <timebase>24</timebase>
                                    <ntsc>TRUE</ntsc>
                                </rate>
                                <duration>152</duration>
                                <start>3088</start>
                                <end>3240</end>
                                <in>4652</in>
                                <out>4804</out>
                            </clipitem>
                            <clipitem frameBlend="FALSE" id="clipitem-63">
                                <media>
                                    <video>
                                        <samplecharacteristics>
                                            <height>720</height>
                                            <width>1280</width>
                                        </samplecharacteristics>
                                    </video>
                                </media>
                                <file id="file-1"/>
                                <name>/home/davidk/code/python/JC-render/JC-examples/yoga.mp4</name>
                                <rate>
                                    <timebase>24</timebase>
                                    <ntsc>TRUE</ntsc>
                                </rate>
                                <rate>
                                    <timebase>24</timebase>
                                    <ntsc>TRUE</ntsc>
                                </rate>
                                <duration>24</duration>
                                <start>3240</start>
                                <end>3264</end>
                                <in>4808</in>
                                <out>4832</out>
                            </clipitem>
                            <clipitem frameBlend="FALSE" id="clipitem-64">
                                <media>
                                    <video>
                                        <samplecharacteristics>
                                            <height>720</height>
                                            <width>1280</width>
                                        </samplecharacteristics>
                                    </video>
                                </media>
                                <file id="file-1"/>
                                <name>/home/davidk/code/python/JC-render/JC-examples/yoga.mp4</name>
                                <rate>
                                    <timebase>24</timebase>
                                    <ntsc>TRUE</ntsc>
                                </rate>
                                <rate>
                                    <timebase>24</timebase>
                                    <ntsc>TRUE</ntsc>
                                </rate>
                                <duration>95</duration>
                                <start>3264</start>
                                <end>3359</end>
                                <in>4845</in>
                                <out>4940</out>
                            </clipitem>
                            <clipitem frameBlend="FALSE" id="clipitem-65">
                                <media>
                                    <video>
                                        <samplecharacteristics>
                                            <height>720</height>
                                            <width>1280</width>
                                        </samplecharacteristics>
                                    </video>
                                </media>
                                <file id="file-1"/>
                                <name>/home/davidk/code/python/JC-render/JC-examples/yoga.mp4</name>
                                <rate>
                                    <timebase>24</timebase>
                                    <ntsc>TRUE</ntsc>
                                </rate>
                                <rate>
                                    <timebase>24</timebase>
                                    <ntsc>TRUE</ntsc>
                                </rate>
                                <duration>65</duration>
                                <start>3359</start>
                                <end>3424</end>
                                <in>4984</in>
                                <out>5049</out>
                            </clipitem>
                            <clipitem frameBlend="FALSE" id="clipitem-66">
                                <media>
                                    <video>
                                        <samplecharacteristics>
                                            <height>720</height>
                                            <width>1280</width>
                                        </samplecharacteristics>
                                    </video>
                                </media>
                                <file id="file-1"/>
                                <name>/home/davidk/code/python/JC-render/JC-examples/yoga.mp4</name>
                                <rate>
                                    <timebase>24</timebase>
                                    <ntsc>TRUE</ntsc>
                                </rate>
                                <rate>
                                    <timebase>24</timebase>
                                    <ntsc>TRUE</ntsc>
                                </rate>
                                <duration>40</duration>
                                <start>3424</start>
                                <end>3464</end>
                                <in>5062</in>
                                <out>5102</out>
                            </clipitem>
                            <clipitem frameBlend="FALSE" id="clipitem-67">
                                <media>
                                    <video>
                                        <samplecharacteristics>
                                            <height>720</height>
                                            <width>1280</width>
                                        </samplecharacteristics>
                                    </video>
                                </media>
                                <file id="file-1"/>
                                <name>/home/davidk/code/python/JC-render/JC-examples/yoga.mp4</name>
                                <rate>
                                    <timebase>24</timebase>
                                    <ntsc>TRUE</ntsc>
                                </rate>
                                <rate>
                                    <timebase>24</timebase>
                                    <ntsc>TRUE</ntsc>
                                </rate>
                                <duration>80</duration>
                                <start>3464</start>
                                <end>3544</end>
                                <in>5156</in>
                                <out>5236</out>
                            </clipitem>
                            <clipitem frameBlend="FALSE" id="clipitem-68">
                                <media>
                                    <video>
                                        <samplecharacteristics>
                                            <height>720</height>
                                            <width>1280</width>
                                        </samplecharacteristics>
                                    </video>
                                </media>
                                <file id="file-1"/>
                                <name>/home/davidk/code/python/JC-render/JC-examples/yoga.mp4</name>
                                <rate>
                                    <timebase>24</timebase>
                                    <ntsc>TRUE</ntsc>
                                </rate>
                                <rate>
                                    <timebase>24</timebase>
                                    <ntsc>TRUE</ntsc>
                                </rate>
                                <duration>113</duration>
                                <start>3544</start>
                                <end>3657</end>
                                <in>5245</in>
                                <out>5358</out>
                            </clipitem>
                            <clipitem frameBlend="FALSE" id="clipitem-69">
                                <media>
                                    <video>
                                        <samplecharacteristics>
                                            <height>720</height>
                                            <width>1280</width>
                                        </samplecharacteristics>
                                    </video>
                                </media>
                                <file id="file-1"/>
                                <name>/home/davidk/code/python/JC-render/JC-examples/yoga.mp4</name>
                                <rate>
                                    <timebase>24</timebase>
                                    <ntsc>TRUE</ntsc>
                                </rate>
                                <rate>
                                    <timebase>24</timebase>
                                    <ntsc>TRUE</ntsc>
                                </rate>
                                <duration>174</duration>
                                <start>3657</start>
                                <end>3831</end>
                                <in>5371</in>
                                <out>5545</out>
                            </clipitem>
                            <clipitem frameBlend="FALSE" id="clipitem-70">
                                <media>
                                    <video>
                                        <samplecharacteristics>
                                            <height>720</height>
                                            <width>1280</width>
                                        </samplecharacteristics>
                                    </video>
                                </media>
                                <file id="file-1"/>
                                <name>/home/davidk/code/python/JC-render/JC-examples/yoga.mp4</name>
                                <rate>
                                    <timebase>24</timebase>
                                    <ntsc>TRUE</ntsc>
                                </rate>
                                <rate>
                                    <timebase>24</timebase>
                                    <ntsc>TRUE</ntsc>
                                </rate>
                                <duration>93</duration>
                                <start>3831</start>
                                <end>3924</end>
                                <in>5549</in>
                                <out>5642</out>
                            </clipitem>
                            <clipitem frameBlend="FALSE" id="clipitem-71">
                                <media>
                                    <video>
                                        <samplecharacteristics>
                                            <height>720</height>
                                            <width>1280</width>
                                        </samplecharacteristics>
                                    </video>
                                </media>
                                <file id="file-1"/>
                                <name>/home/davidk/code/python/JC-render/JC-examples/yoga.mp4</name>
                                <rate>
                                    <timebase>24</timebase>
                                    <ntsc>TRUE</ntsc>
                                </rate>
                                <rate>
                                    <timebase>24</timebase>
                                    <ntsc>TRUE</ntsc>
                                </rate>
                                <duration>146</duration>
                                <start>3924</start>
                                <end>4070</end>
                                <in>5644</in>
                                <out>5790</out>
                            </clipitem>
                            <clipitem frameBlend="FALSE" id="clipitem-72">
                                <media>
                                    <video>
                                        <samplecharacteristics>
                                            <height>720</height>
                                            <width>1280</width>
                                        </samplecharacteristics>
                                    </video>
                                </media>
                                <file id="file-1"/>
                                <name>/home/davidk/code/python/JC-render/JC-examples/yoga.mp4</name>
                                <rate>
                                    <timebase>24</timebase>
                                    <ntsc>TRUE</ntsc>
                                </rate>
                                <rate>
                                    <timebase>24</timebase>
                                    <ntsc>TRUE</ntsc>
                                </rate>
                                <duration>43</duration>
                                <start>4070</start>
                                <end>4113</end>
                                <in>5794</in>
                                <out>5837</out>
                            </clipitem>
                            <clipitem frameBlend="FALSE" id="clipitem-73">
                                <media>
                                    <video>
                                        <samplecharacteristics>
                                            <height>720</height>
                                            <width>1280</width>
                                        </samplecharacteristics>
                                    </video>
                                </media>
                                <file id="file-1"/>
                                <name>/home/davidk/code/python/JC-render/JC-examples/yoga.mp4</name>
                                <rate>
                                    <timebase>24</timebase>
                                    <ntsc>TRUE</ntsc>
                                </rate>
                                <rate>
                                    <timebase>24</timebase>
                                    <ntsc>TRUE</ntsc>
                                </rate>
                                <duration>32</duration>
                                <start>4113</start>
                                <end>4145</end>
                                <in>5841</in>
                                <out>5873</out>
                            </clipitem>
                            <clipitem frameBlend="FALSE" id="clipitem-74">
                                <media>
                                    <video>
                                        <samplecharacteristics>
                                            <height>720</height>
                                            <width>1280</width>
                                        </samplecharacteristics>
                                    </video>
                                </media>
                                <file id="file-1"/>
                                <name>/home/davidk/code/python/JC-render/JC-examples/yoga.mp4</name>
                                <rate>
                                    <timebase>24</timebase>
                                    <ntsc>TRUE</ntsc>
                                </rate>
                                <rate>
                                    <timebase>24</timebase>
                                    <ntsc>TRUE</ntsc>
                                </rate>
                                <duration>60</duration>
                                <start>4145</start>
                                <end>4205</end>
                                <in>5883</in>
                                <out>5943</out>
                            </clipitem>
                            <clipitem frameBlend="FALSE" id="clipitem-75">
                                <media>
                                    <video>
                                        <samplecharacteristics>
                                            <height>720</height>
                                            <width>1280</width>
                                        </samplecharacteristics>
                                    </video>
                                </media>
                                <file id="file-1"/>
                                <name>/home/davidk/code/python/JC-render/JC-examples/yoga.mp4</name>
                                <rate>
                                    <timebase>24</timebase>
                                    <ntsc>TRUE</ntsc>
                                </rate>
                                <rate>
                                    <timebase>24</timebase>
                                    <ntsc>TRUE</ntsc>
                                </rate>
                                <duration>13</duration>
                                <start>4205</start>
                                <end>4218</end>
                                <in>5955</in>
                                <out>5968</out>
                            </clipitem>
                            <clipitem frameBlend="FALSE" id="clipitem-76">
                                <media>
                                    <video>
                                        <samplecharacteristics>
                                            <height>720</height>
                                            <width>1280</width>
                                        </samplecharacteristics>
                                    </video>
                                </media>
                                <file id="file-1"/>
                                <name>/home/davidk/code/python/JC-render/JC-examples/yoga.mp4</name>
                                <rate>
                                    <timebase>24</timebase>
                                    <ntsc>TRUE</ntsc>
                                </rate>
                                <rate>
                                    <timebase>24</timebase>
                                    <ntsc>TRUE</ntsc>
                                </rate>
                                <duration>46</duration>
                                <start>4218</start>
                                <end>4264</end>
                                <in>5980</in>
                                <out>6026</out>
                            </clipitem>
                            <clipitem frameBlend="FALSE" id="clipitem-77">
                                <media>
                                    <video>
                                        <samplecharacteristics>
                                            <height>720</height>
                                            <width>1280</width>
                                        </samplecharacteristics>
                                    </video>
                                </media>
                                <file id="file-1"/>
                                <name>/home/davidk/code/python/JC-render/JC-examples/yoga.mp4</name>
                                <rate>
                                    <timebase>24</timebase>
                                    <ntsc>TRUE</ntsc>
                                </rate>
                                <rate>
                                    <timebase>24</timebase>
                                    <ntsc>TRUE</ntsc>
                                </rate>
                                <duration>43</duration>
                                <start>4264</start>
                                <end>4307</end>
                                <in>6028</in>
                                <out>6071</out>
                            </clipitem>
                            <clipitem frameBlend="FALSE" id="clipitem-78">
                                <media>
                                    <video>
                                        <samplecharacteristics>
                                            <height>720</height>
                                            <width>1280</width>
                                        </samplecharacteristics>
                                    </video>
                                </media>
                                <file id="file-1"/>
                                <name>/home/davidk/code/python/JC-render/JC-examples/yoga.mp4</name>
                                <rate>
                                    <timebase>24</timebase>
                                    <ntsc>TRUE</ntsc>
                                </rate>
                                <rate>
                                    <timebase>24</timebase>
                                    <ntsc>TRUE</ntsc>
                                </rate>
                                <duration>18</duration>
                                <start>4307</start>
                                <end>4325</end>
                                <in>6086</in>
                                <out>6104</out>
                            </clipitem>
                            <clipitem frameBlend="FALSE" id="clipitem-79">
                                <media>
                                    <video>
                                        <samplecharacteristics>
                                            <height>720</height>
                                            <width>1280</width>
                                        </samplecharacteristics>
                                    </video>
                                </media>
                                <file id="file-1"/>
                                <name>/home/davidk/code/python/JC-render/JC-examples/yoga.mp4</name>
                                <rate>
                                    <timebase>24</timebase>
                                    <ntsc>TRUE</ntsc>
                                </rate>
                                <rate>
                                    <timebase>24</timebase>
                                    <ntsc>TRUE</ntsc>
                                </rate>
                                <duration>59</duration>
                                <start>4325</start>
                                <end>4384</end>
                                <in>6120</in>
                                <out>6179</out>
                            </clipitem>
                            <clipitem frameBlend="FALSE" id="clipitem-80">
                                <media>
                                    <video>
                                        <samplecharacteristics>
                                            <height>720</height>
                                            <width>1280</width>
                                        </samplecharacteristics>
                                    </video>
                                </media>
                                <file id="file-1"/>
                                <name>/home/davidk/code/python/JC-render/JC-examples/yoga.mp4</name>
                                <rate>
                                    <timebase>24</timebase>
                                    <ntsc>TRUE</ntsc>
                                </rate>
                                <rate>
                                    <timebase>24</timebase>
                                    <ntsc>TRUE</ntsc>
                                </rate>
                                <duration>54</duration>
                                <start>4384</start>
                                <end>4438</end>
                                <in>6181</in>
                                <out>6235</out>
                            </clipitem>
                            <clipitem frameBlend="FALSE" id="clipitem-81">
                                <media>
                                    <video>
                                        <samplecharacteristics>
                                            <height>720</height>
                                            <width>1280</width>
                                        </samplecharacteristics>
                                    </video>
                                </media>
                                <file id="file-1"/>
                                <name>/home/davidk/code/python/JC-render/JC-examples/yoga.mp4</name>
                                <rate>
                                    <timebase>24</timebase>
                                    <ntsc>TRUE</ntsc>
                                </rate>
                                <rate>
                                    <timebase>24</timebase>
                                    <ntsc>TRUE</ntsc>
                                </rate>
                                <duration>141</duration>
                                <start>4438</start>
                                <end>4579</end>
                                <in>6242</in>
                                <out>6383</out>
                            </clipitem>
                            <clipitem frameBlend="FALSE" id="clipitem-82">
                                <media>
                                    <video>
                                        <samplecharacteristics>
                                            <height>720</height>
                                            <width>1280</width>
                                        </samplecharacteristics>
                                    </video>
                                </media>
                                <file id="file-1"/>
                                <name>/home/davidk/code/python/JC-render/JC-examples/yoga.mp4</name>
                                <rate>
                                    <timebase>24</timebase>
                                    <ntsc>TRUE</ntsc>
                                </rate>
                                <rate>
                                    <timebase>24</timebase>
                                    <ntsc>TRUE</ntsc>
                                </rate>
                                <duration>96</duration>
                                <start>4579</start>
                                <end>4675</end>
                                <in>6384</in>
                                <out>6480</out>
                            </clipitem>
                            <clipitem frameBlend="FALSE" id="clipitem-83">
                                <media>
                                    <video>
                                        <samplecharacteristics>
                                            <height>720</height>
                                            <width>1280</width>
                                        </samplecharacteristics>
                                    </video>
                                </media>
                                <file id="file-1"/>
                                <name>/home/davidk/code/python/JC-render/JC-examples/yoga.mp4</name>
                                <rate>
                                    <timebase>24</timebase>
                                    <ntsc>TRUE</ntsc>
                                </rate>
                                <rate>
                                    <timebase>24</timebase>
                                    <ntsc>TRUE</ntsc>
                                </rate>
                                <duration>138</duration>
                                <start>4675</start>
                                <end>4813</end>
                                <in>6490</in>
                                <out>6628</out>
                            </clipitem>
                            <clipitem frameBlend="FALSE" id="clipitem-84">
                                <media>
                                    <video>
                                        <samplecharacteristics>
                                            <height>720</height>
                                            <width>1280</width>
                                        </samplecharacteristics>
                                    </video>
                                </media>
                                <file id="file-1"/>
                                <name>/home/davidk/code/python/JC-render/JC-examples/yoga.mp4</name>
                                <rate>
                                    <timebase>24</timebase>
                                    <ntsc>TRUE</ntsc>
                                </rate>
                                <rate>
                                    <timebase>24</timebase>
                                    <ntsc>TRUE</ntsc>
                                </rate>
                                <duration>57</duration>
                                <start>4813</start>
                                <end>4870</end>
                                <in>6629</in>
                                <out>6686</out>
                            </clipitem>
                            <clipitem frameBlend="FALSE" id="clipitem-85">
                                <media>
                                    <video>
                                        <samplecharacteristics>
                                            <height>720</height>
                                            <width>1280</width>
                                        </samplecharacteristics>
                                    </video>
                                </media>
                                <file id="file-1"/>
                                <name>/home/davidk/code/python/JC-render/JC-examples/yoga.mp4</name>
                                <rate>
                                    <timebase>24</timebase>
                                    <ntsc>TRUE</ntsc>
                                </rate>
                                <rate>
                                    <timebase>24</timebase>
                                    <ntsc>TRUE</ntsc>
                                </rate>
                                <duration>12</duration>
                                <start>4870</start>
                                <end>4882</end>
                                <in>6696</in>
                                <out>6708</out>
                            </clipitem>
                            <clipitem frameBlend="FALSE" id="clipitem-86">
                                <media>
                                    <video>
                                        <samplecharacteristics>
                                            <height>720</height>
                                            <width>1280</width>
                                        </samplecharacteristics>
                                    </video>
                                </media>
                                <file id="file-1"/>
                                <name>/home/davidk/code/python/JC-render/JC-examples/yoga.mp4</name>
                                <rate>
                                    <timebase>24</timebase>
                                    <ntsc>TRUE</ntsc>
                                </rate>
                                <rate>
                                    <timebase>24</timebase>
                                    <ntsc>TRUE</ntsc>
                                </rate>
                                <duration>63</duration>
                                <start>4882</start>
                                <end>4945</end>
                                <in>6718</in>
                                <out>6781</out>
                            </clipitem>
                            <clipitem frameBlend="FALSE" id="clipitem-87">
                                <media>
                                    <video>
                                        <samplecharacteristics>
                                            <height>720</height>
                                            <width>1280</width>
                                        </samplecharacteristics>
                                    </video>
                                </media>
                                <file id="file-1"/>
                                <name>/home/davidk/code/python/JC-render/JC-examples/yoga.mp4</name>
                                <rate>
                                    <timebase>24</timebase>
                                    <ntsc>TRUE</ntsc>
                                </rate>
                                <rate>
                                    <timebase>24</timebase>
                                    <ntsc>TRUE</ntsc>
                                </rate>
                                <duration>49</duration>
                                <start>4945</start>
                                <end>4994</end>
                                <in>6807</in>
                                <out>6856</out>
                            </clipitem>
                            <clipitem frameBlend="FALSE" id="clipitem-88">
                                <media>
                                    <video>
                                        <samplecharacteristics>
                                            <height>720</height>
                                            <width>1280</width>
                                        </samplecharacteristics>
                                    </video>
                                </media>
                                <file id="file-1"/>
                                <name>/home/davidk/code/python/JC-render/JC-examples/yoga.mp4</name>
                                <rate>
                                    <timebase>24</timebase>
                                    <ntsc>TRUE</ntsc>
                                </rate>
                                <rate>
                                    <timebase>24</timebase>
                                    <ntsc>TRUE</ntsc>
                                </rate>
                                <duration>27</duration>
                                <start>4994</start>
                                <end>5021</end>
                                <in>6860</in>
                                <out>6887</out>
                            </clipitem>
                            <clipitem frameBlend="FALSE" id="clipitem-89">
                                <media>
                                    <video>
                                        <samplecharacteristics>
                                            <height>720</height>
                                            <width>1280</width>
                                        </samplecharacteristics>
                                    </video>
                                </media>
                                <file id="file-1"/>
                                <name>/home/davidk/code/python/JC-render/JC-examples/yoga.mp4</name>
                                <rate>
                                    <timebase>24</timebase>
                                    <ntsc>TRUE</ntsc>
                                </rate>
                                <rate>
                                    <timebase>24</timebase>
                                    <ntsc>TRUE</ntsc>
                                </rate>
                                <duration>34</duration>
                                <start>5021</start>
                                <end>5055</end>
                                <in>6894</in>
                                <out>6928</out>
                            </clipitem>
                            <clipitem frameBlend="FALSE" id="clipitem-90">
                                <media>
                                    <video>
                                        <samplecharacteristics>
                                            <height>720</height>
                                            <width>1280</width>
                                        </samplecharacteristics>
                                    </video>
                                </media>
                                <file id="file-1"/>
                                <name>/home/davidk/code/python/JC-render/JC-examples/yoga.mp4</name>
                                <rate>
                                    <timebase>24</timebase>
                                    <ntsc>TRUE</ntsc>
                                </rate>
                                <rate>
                                    <timebase>24</timebase>
                                    <ntsc>TRUE</ntsc>
                                </rate>
                                <duration>18</duration>
                                <start>5055</start>
                                <end>5073</end>
                                <in>6941</in>
                                <out>6959</out>
                            </clipitem>
                            <clipitem frameBlend="FALSE" id="clipitem-91">
                                <media>
                                    <video>
                                        <samplecharacteristics>
                                            <height>720</height>
                                            <width>1280</width>
                                        </samplecharacteristics>
                                    </video>
                                </media>
                                <file id="file-1"/>
                                <name>/home/davidk/code/python/JC-render/JC-examples/yoga.mp4</name>
                                <rate>
                                    <timebase>24</timebase>
                                    <ntsc>TRUE</ntsc>
                                </rate>
                                <rate>
                                    <timebase>24</timebase>
                                    <ntsc>TRUE</ntsc>
                                </rate>
                                <duration>54</duration>
                                <start>5073</start>
                                <end>5127</end>
                                <in>6977</in>
                                <out>7031</out>
                            </clipitem>
                            <clipitem frameBlend="FALSE" id="clipitem-92">
                                <media>
                                    <video>
                                        <samplecharacteristics>
                                            <height>720</height>
                                            <width>1280</width>
                                        </samplecharacteristics>
                                    </video>
                                </media>
                                <file id="file-1"/>
                                <name>/home/davidk/code/python/JC-render/JC-examples/yoga.mp4</name>
                                <rate>
                                    <timebase>24</timebase>
                                    <ntsc>TRUE</ntsc>
                                </rate>
                                <rate>
                                    <timebase>24</timebase>
                                    <ntsc>TRUE</ntsc>
                                </rate>
                                <duration>13</duration>
                                <start>5127</start>
                                <end>5140</end>
                                <in>7038</in>
                                <out>7051</out>
                            </clipitem>
                            <clipitem frameBlend="FALSE" id="clipitem-93">
                                <media>
                                    <video>
                                        <samplecharacteristics>
                                            <height>720</height>
                                            <width>1280</width>
                                        </samplecharacteristics>
                                    </video>
                                </media>
                                <file id="file-1"/>
                                <name>/home/davidk/code/python/JC-render/JC-examples/yoga.mp4</name>
                                <rate>
                                    <timebase>24</timebase>
                                    <ntsc>TRUE</ntsc>
                                </rate>
                                <rate>
                                    <timebase>24</timebase>
                                    <ntsc>TRUE</ntsc>
                                </rate>
                                <duration>74</duration>
                                <start>5140</start>
                                <end>5214</end>
                                <in>7055</in>
                                <out>7129</out>
                            </clipitem>
                            <clipitem frameBlend="FALSE" id="clipitem-94">
                                <media>
                                    <video>
                                        <samplecharacteristics>
                                            <height>720</height>
                                            <width>1280</width>
                                        </samplecharacteristics>
                                    </video>
                                </media>
                                <file id="file-1"/>
                                <name>/home/davidk/code/python/JC-render/JC-examples/yoga.mp4</name>
                                <rate>
                                    <timebase>24</timebase>
                                    <ntsc>TRUE</ntsc>
                                </rate>
                                <rate>
                                    <timebase>24</timebase>
                                    <ntsc>TRUE</ntsc>
                                </rate>
                                <duration>68</duration>
                                <start>5214</start>
                                <end>5282</end>
                                <in>7133</in>
                                <out>7201</out>
                            </clipitem>
                            <clipitem frameBlend="FALSE" id="clipitem-95">
                                <media>
                                    <video>
                                        <samplecharacteristics>
                                            <height>720</height>
                                            <width>1280</width>
                                        </samplecharacteristics>
                                    </video>
                                </media>
                                <file id="file-1"/>
                                <name>/home/davidk/code/python/JC-render/JC-examples/yoga.mp4</name>
                                <rate>
                                    <timebase>24</timebase>
                                    <ntsc>TRUE</ntsc>
                                </rate>
                                <rate>
                                    <timebase>24</timebase>
                                    <ntsc>TRUE</ntsc>
                                </rate>
                                <duration>118</duration>
                                <start>5282</start>
                                <end>5400</end>
                                <in>7214</in>
                                <out>7332</out>
                            </clipitem>
                            <clipitem frameBlend="FALSE" id="clipitem-96">
                                <media>
                                    <video>
                                        <samplecharacteristics>
                                            <height>720</height>
                                            <width>1280</width>
                                        </samplecharacteristics>
                                    </video>
                                </media>
                                <file id="file-1"/>
                                <name>/home/davidk/code/python/JC-render/JC-examples/yoga.mp4</name>
                                <rate>
                                    <timebase>24</timebase>
                                    <ntsc>TRUE</ntsc>
                                </rate>
                                <rate>
                                    <timebase>24</timebase>
                                    <ntsc>TRUE</ntsc>
                                </rate>
                                <duration>13</duration>
                                <start>5400</start>
                                <end>5413</end>
                                <in>7347</in>
                                <out>7360</out>
                            </clipitem>
                            <clipitem frameBlend="FALSE" id="clipitem-97">
                                <media>
                                    <video>
                                        <samplecharacteristics>
                                            <height>720</height>
                                            <width>1280</width>
                                        </samplecharacteristics>
                                    </video>
                                </media>
                                <file id="file-1"/>
                                <name>/home/davidk/code/python/JC-render/JC-examples/yoga.mp4</name>
                                <rate>
                                    <timebase>24</timebase>
                                    <ntsc>TRUE</ntsc>
                                </rate>
                                <rate>
                                    <timebase>24</timebase>
                                    <ntsc>TRUE</ntsc>
                                </rate>
                                <duration>54</duration>
                                <start>5413</start>
                                <end>5467</end>
                                <in>7361</in>
                                <out>7415</out>
                            </clipitem>
                            <clipitem frameBlend="FALSE" id="clipitem-98">
                                <media>
                                    <video>
                                        <samplecharacteristics>
                                            <height>720</height>
                                            <width>1280</width>
                                        </samplecharacteristics>
                                    </video>
                                </media>
                                <file id="file-1"/>
                                <name>/home/davidk/code/python/JC-render/JC-examples/yoga.mp4</name>
                                <rate>
                                    <timebase>24</timebase>
                                    <ntsc>TRUE</ntsc>
                                </rate>
                                <rate>
                                    <timebase>24</timebase>
                                    <ntsc>TRUE</ntsc>
                                </rate>
                                <duration>12</duration>
                                <start>5467</start>
                                <end>5479</end>
                                <in>7431</in>
                                <out>7443</out>
                            </clipitem>
                            <clipitem frameBlend="FALSE" id="clipitem-99">
                                <media>
                                    <video>
                                        <samplecharacteristics>
                                            <height>720</height>
                                            <width>1280</width>
                                        </samplecharacteristics>
                                    </video>
                                </media>
                                <file id="file-1"/>
                                <name>/home/davidk/code/python/JC-render/JC-examples/yoga.mp4</name>
                                <rate>
                                    <timebase>24</timebase>
                                    <ntsc>TRUE</ntsc>
                                </rate>
                                <rate>
                                    <timebase>24</timebase>
                                    <ntsc>TRUE</ntsc>
                                </rate>
                                <duration>62</duration>
                                <start>5479</start>
                                <end>5541</end>
                                <in>7448</in>
                                <out>7510</out>
                            </clipitem>
                            <clipitem frameBlend="FALSE" id="clipitem-100">
                                <media>
                                    <video>
                                        <samplecharacteristics>
                                            <height>720</height>
                                            <width>1280</width>
                                        </samplecharacteristics>
                                    </video>
                                </media>
                                <file id="file-1"/>
                                <name>/home/davidk/code/python/JC-render/JC-examples/yoga.mp4</name>
                                <rate>
                                    <timebase>24</timebase>
                                    <ntsc>TRUE</ntsc>
                                </rate>
                                <rate>
                                    <timebase>24</timebase>
                                    <ntsc>TRUE</ntsc>
                                </rate>
                                <duration>82</duration>
                                <start>5541</start>
                                <end>5623</end>
                                <in>7553</in>
                                <out>7635</out>
                            </clipitem>
                            <clipitem frameBlend="FALSE" id="clipitem-101">
                                <media>
                                    <video>
                                        <samplecharacteristics>
                                            <height>720</height>
                                            <width>1280</width>
                                        </samplecharacteristics>
                                    </video>
                                </media>
                                <file id="file-1"/>
                                <name>/home/davidk/code/python/JC-render/JC-examples/yoga.mp4</name>
                                <rate>
                                    <timebase>24</timebase>
                                    <ntsc>TRUE</ntsc>
                                </rate>
                                <rate>
                                    <timebase>24</timebase>
                                    <ntsc>TRUE</ntsc>
                                </rate>
                                <duration>65</duration>
                                <start>5623</start>
                                <end>5688</end>
                                <in>7651</in>
                                <out>7716</out>
                            </clipitem>
                            <clipitem frameBlend="FALSE" id="clipitem-102">
                                <media>
                                    <video>
                                        <samplecharacteristics>
                                            <height>720</height>
                                            <width>1280</width>
                                        </samplecharacteristics>
                                    </video>
                                </media>
                                <file id="file-1"/>
                                <name>/home/davidk/code/python/JC-render/JC-examples/yoga.mp4</name>
                                <rate>
                                    <timebase>24</timebase>
                                    <ntsc>TRUE</ntsc>
                                </rate>
                                <rate>
                                    <timebase>24</timebase>
                                    <ntsc>TRUE</ntsc>
                                </rate>
                                <duration>174</duration>
                                <start>5688</start>
                                <end>5862</end>
                                <in>7748</in>
                                <out>7922</out>
                            </clipitem>
                            <clipitem frameBlend="FALSE" id="clipitem-103">
                                <media>
                                    <video>
                                        <samplecharacteristics>
                                            <height>720</height>
                                            <width>1280</width>
                                        </samplecharacteristics>
                                    </video>
                                </media>
                                <file id="file-1"/>
                                <name>/home/davidk/code/python/JC-render/JC-examples/yoga.mp4</name>
                                <rate>
                                    <timebase>24</timebase>
                                    <ntsc>TRUE</ntsc>
                                </rate>
                                <rate>
                                    <timebase>24</timebase>
                                    <ntsc>TRUE</ntsc>
                                </rate>
                                <duration>93</duration>
                                <start>5862</start>
                                <end>5955</end>
                                <in>7924</in>
                                <out>8017</out>
                            </clipitem>
                            <clipitem frameBlend="FALSE" id="clipitem-104">
                                <media>
                                    <video>
                                        <samplecharacteristics>
                                            <height>720</height>
                                            <width>1280</width>
                                        </samplecharacteristics>
                                    </video>
                                </media>
                                <file id="file-1"/>
                                <name>/home/davidk/code/python/JC-render/JC-examples/yoga.mp4</name>
                                <rate>
                                    <timebase>24</timebase>
                                    <ntsc>TRUE</ntsc>
                                </rate>
                                <rate>
                                    <timebase>24</timebase>
                                    <ntsc>TRUE</ntsc>
                                </rate>
                                <duration>66</duration>
                                <start>5955</start>
                                <end>6021</end>
                                <in>8043</in>
                                <out>8109</out>
                            </clipitem>
                            <clipitem frameBlend="FALSE" id="clipitem-105">
                                <media>
                                    <video>
                                        <samplecharacteristics>
                                            <height>720</height>
                                            <width>1280</width>
                                        </samplecharacteristics>
                                    </video>
                                </media>
                                <file id="file-1"/>
                                <name>/home/davidk/code/python/JC-render/JC-examples/yoga.mp4</name>
                                <rate>
                                    <timebase>24</timebase>
                                    <ntsc>TRUE</ntsc>
                                </rate>
                                <rate>
                                    <timebase>24</timebase>
                                    <ntsc>TRUE</ntsc>
                                </rate>
                                <duration>23</duration>
                                <start>6021</start>
                                <end>6044</end>
                                <in>8155</in>
                                <out>8178</out>
                            </clipitem>
                            <clipitem frameBlend="FALSE" id="clipitem-106">
                                <media>
                                    <video>
                                        <samplecharacteristics>
                                            <height>720</height>
                                            <width>1280</width>
                                        </samplecharacteristics>
                                    </video>
                                </media>
                                <file id="file-1"/>
                                <name>/home/davidk/code/python/JC-render/JC-examples/yoga.mp4</name>
                                <rate>
                                    <timebase>24</timebase>
                                    <ntsc>TRUE</ntsc>
                                </rate>
                                <rate>
                                    <timebase>24</timebase>
                                    <ntsc>TRUE</ntsc>
                                </rate>
                                <duration>30</duration>
                                <start>6044</start>
                                <end>6074</end>
                                <in>8185</in>
                                <out>8215</out>
                            </clipitem>
                            <clipitem frameBlend="FALSE" id="clipitem-107">
                                <media>
                                    <video>
                                        <samplecharacteristics>
                                            <height>720</height>
                                            <width>1280</width>
                                        </samplecharacteristics>
                                    </video>
                                </media>
                                <file id="file-1"/>
                                <name>/home/davidk/code/python/JC-render/JC-examples/yoga.mp4</name>
                                <rate>
                                    <timebase>24</timebase>
                                    <ntsc>TRUE</ntsc>
                                </rate>
                                <rate>
                                    <timebase>24</timebase>
                                    <ntsc>TRUE</ntsc>
                                </rate>
                                <duration>12</duration>
                                <start>6074</start>
                                <end>6086</end>
                                <in>8222</in>
                                <out>8234</out>
                            </clipitem>
                            <clipitem frameBlend="FALSE" id="clipitem-108">
                                <media>
                                    <video>
                                        <samplecharacteristics>
                                            <height>720</height>
                                            <width>1280</width>
                                        </samplecharacteristics>
                                    </video>
                                </media>
                                <file id="file-1"/>
                                <name>/home/davidk/code/python/JC-render/JC-examples/yoga.mp4</name>
                                <rate>
                                    <timebase>24</timebase>
                                    <ntsc>TRUE</ntsc>
                                </rate>
                                <rate>
                                    <timebase>24</timebase>
                                    <ntsc>TRUE</ntsc>
                                </rate>
                                <duration>12</duration>
                                <start>6086</start>
                                <end>6098</end>
                                <in>8247</in>
                                <out>8259</out>
                            </clipitem>
                            <clipitem frameBlend="FALSE" id="clipitem-109">
                                <media>
                                    <video>
                                        <samplecharacteristics>
                                            <height>720</height>
                                            <width>1280</width>
                                        </samplecharacteristics>
                                    </video>
                                </media>
                                <file id="file-1"/>
                                <name>/home/davidk/code/python/JC-render/JC-examples/yoga.mp4</name>
                                <rate>
                                    <timebase>24</timebase>
                                    <ntsc>TRUE</ntsc>
                                </rate>
                                <rate>
                                    <timebase>24</timebase>
                                    <ntsc>TRUE</ntsc>
                                </rate>
                                <duration>57</duration>
                                <start>6098</start>
                                <end>6155</end>
                                <in>8261</in>
                                <out>8318</out>
                            </clipitem>
                            <clipitem frameBlend="FALSE" id="clipitem-110">
                                <media>
                                    <video>
                                        <samplecharacteristics>
                                            <height>720</height>
                                            <width>1280</width>
                                        </samplecharacteristics>
                                    </video>
                                </media>
                                <file id="file-1"/>
                                <name>/home/davidk/code/python/JC-render/JC-examples/yoga.mp4</name>
                                <rate>
                                    <timebase>24</timebase>
                                    <ntsc>TRUE</ntsc>
                                </rate>
                                <rate>
                                    <timebase>24</timebase>
                                    <ntsc>TRUE</ntsc>
                                </rate>
                                <duration>37</duration>
                                <start>6155</start>
                                <end>6192</end>
                                <in>8361</in>
                                <out>8398</out>
                            </clipitem>
                            <clipitem frameBlend="FALSE" id="clipitem-111">
                                <media>
                                    <video>
                                        <samplecharacteristics>
                                            <height>720</height>
                                            <width>1280</width>
                                        </samplecharacteristics>
                                    </video>
                                </media>
                                <file id="file-1"/>
                                <name>/home/davidk/code/python/JC-render/JC-examples/yoga.mp4</name>
                                <rate>
                                    <timebase>24</timebase>
                                    <ntsc>TRUE</ntsc>
                                </rate>
                                <rate>
                                    <timebase>24</timebase>
                                    <ntsc>TRUE</ntsc>
                                </rate>
                                <duration>37</duration>
                                <start>6192</start>
                                <end>6229</end>
                                <in>8400</in>
                                <out>8437</out>
                            </clipitem>
                            <clipitem frameBlend="FALSE" id="clipitem-112">
                                <media>
                                    <video>
                                        <samplecharacteristics>
                                            <height>720</height>
                                            <width>1280</width>
                                        </samplecharacteristics>
                                    </video>
                                </media>
                                <file id="file-1"/>
                                <name>/home/davidk/code/python/JC-render/JC-examples/yoga.mp4</name>
                                <rate>
                                    <timebase>24</timebase>
                                    <ntsc>TRUE</ntsc>
                                </rate>
                                <rate>
                                    <timebase>24</timebase>
                                    <ntsc>TRUE</ntsc>
                                </rate>
                                <duration>12</duration>
                                <start>6229</start>
                                <end>6241</end>
                                <in>8442</in>
                                <out>8454</out>
                            </clipitem>
                            <clipitem frameBlend="FALSE" id="clipitem-113">
                                <media>
                                    <video>
                                        <samplecharacteristics>
                                            <height>720</height>
                                            <width>1280</width>
                                        </samplecharacteristics>
                                    </video>
                                </media>
                                <file id="file-1"/>
                                <name>/home/davidk/code/python/JC-render/JC-examples/yoga.mp4</name>
                                <rate>
                                    <timebase>24</timebase>
                                    <ntsc>TRUE</ntsc>
                                </rate>
                                <rate>
                                    <timebase>24</timebase>
                                    <ntsc>TRUE</ntsc>
                                </rate>
                                <duration>15</duration>
                                <start>6241</start>
                                <end>6256</end>
                                <in>8467</in>
                                <out>8482</out>
                            </clipitem>
                            <clipitem frameBlend="FALSE" id="clipitem-114">
                                <media>
                                    <video>
                                        <samplecharacteristics>
                                            <height>720</height>
                                            <width>1280</width>
                                        </samplecharacteristics>
                                    </video>
                                </media>
                                <file id="file-1"/>
                                <name>/home/davidk/code/python/JC-render/JC-examples/yoga.mp4</name>
                                <rate>
                                    <timebase>24</timebase>
                                    <ntsc>TRUE</ntsc>
                                </rate>
                                <rate>
                                    <timebase>24</timebase>
                                    <ntsc>TRUE</ntsc>
                                </rate>
                                <duration>15</duration>
                                <start>6256</start>
                                <end>6271</end>
                                <in>8492</in>
                                <out>8507</out>
                            </clipitem>
                            <clipitem frameBlend="FALSE" id="clipitem-115">
                                <media>
                                    <video>
                                        <samplecharacteristics>
                                            <height>720</height>
                                            <width>1280</width>
                                        </samplecharacteristics>
                                    </video>
                                </media>
                                <file id="file-1"/>
                                <name>/home/davidk/code/python/JC-render/JC-examples/yoga.mp4</name>
                                <rate>
                                    <timebase>24</timebase>
                                    <ntsc>TRUE</ntsc>
                                </rate>
                                <rate>
                                    <timebase>24</timebase>
                                    <ntsc>TRUE</ntsc>
                                </rate>
                                <duration>12</duration>
                                <start>6271</start>
                                <end>6283</end>
                                <in>8517</in>
                                <out>8529</out>
                            </clipitem>
                            <clipitem frameBlend="FALSE" id="clipitem-116">
                                <media>
                                    <video>
                                        <samplecharacteristics>
                                            <height>720</height>
                                            <width>1280</width>
                                        </samplecharacteristics>
                                    </video>
                                </media>
                                <file id="file-1"/>
                                <name>/home/davidk/code/python/JC-render/JC-examples/yoga.mp4</name>
                                <rate>
                                    <timebase>24</timebase>
                                    <ntsc>TRUE</ntsc>
                                </rate>
                                <rate>
                                    <timebase>24</timebase>
                                    <ntsc>TRUE</ntsc>
                                </rate>
                                <duration>85</duration>
                                <start>6283</start>
                                <end>6368</end>
                                <in>8536</in>
                                <out>8621</out>
                            </clipitem>
                            <clipitem frameBlend="FALSE" id="clipitem-117">
                                <media>
                                    <video>
                                        <samplecharacteristics>
                                            <height>720</height>
                                            <width>1280</width>
                                        </samplecharacteristics>
                                    </video>
                                </media>
                                <file id="file-1"/>
                                <name>/home/davidk/code/python/JC-render/JC-examples/yoga.mp4</name>
                                <rate>
                                    <timebase>24</timebase>
                                    <ntsc>TRUE</ntsc>
                                </rate>
                                <rate>
                                    <timebase>24</timebase>
                                    <ntsc>TRUE</ntsc>
                                </rate>
                                <duration>380</duration>
                                <start>6368</start>
                                <end>6748</end>
                                <in>8642</in>
                                <out>9022</out>
                            </clipitem>
                            <clipitem frameBlend="FALSE" id="clipitem-118">
                                <media>
                                    <video>
                                        <samplecharacteristics>
                                            <height>720</height>
                                            <width>1280</width>
                                        </samplecharacteristics>
                                    </video>
                                </media>
                                <file id="file-1"/>
                                <name>/home/davidk/code/python/JC-render/JC-examples/yoga.mp4</name>
                                <rate>
                                    <timebase>24</timebase>
                                    <ntsc>TRUE</ntsc>
                                </rate>
                                <rate>
                                    <timebase>24</timebase>
                                    <ntsc>TRUE</ntsc>
                                </rate>
                                <duration>107</duration>
                                <start>6748</start>
                                <end>6855</end>
                                <in>9032</in>
                                <out>9139</out>
                            </clipitem>
                            <clipitem frameBlend="FALSE" id="clipitem-119">
                                <media>
                                    <video>
                                        <samplecharacteristics>
                                            <height>720</height>
                                            <width>1280</width>
                                        </samplecharacteristics>
                                    </video>
                                </media>
                                <file id="file-1"/>
                                <name>/home/davidk/code/python/JC-render/JC-examples/yoga.mp4</name>
                                <rate>
                                    <timebase>24</timebase>
                                    <ntsc>TRUE</ntsc>
                                </rate>
                                <rate>
                                    <timebase>24</timebase>
                                    <ntsc>TRUE</ntsc>
                                </rate>
                                <duration>119</duration>
                                <start>6855</start>
                                <end>6974</end>
                                <in>9140</in>
                                <out>9259</out>
                            </clipitem>
                            <clipitem frameBlend="FALSE" id="clipitem-120">
                                <media>
                                    <video>
                                        <samplecharacteristics>
                                            <height>720</height>
                                            <width>1280</width>
                                        </samplecharacteristics>
                                    </video>
                                </media>
                                <file id="file-1"/>
                                <name>/home/davidk/code/python/JC-render/JC-examples/yoga.mp4</name>
                                <rate>
                                    <timebase>24</timebase>
                                    <ntsc>TRUE</ntsc>
                                </rate>
                                <rate>
                                    <timebase>24</timebase>
                                    <ntsc>TRUE</ntsc>
                                </rate>
                                <duration>241</duration>
                                <start>6974</start>
                                <end>7215</end>
                                <in>9260</in>
                                <out>9501</out>
                            </clipitem>
                            <clipitem frameBlend="FALSE" id="clipitem-121">
                                <media>
                                    <video>
                                        <samplecharacteristics>
                                            <height>720</height>
                                            <width>1280</width>
                                        </samplecharacteristics>
                                    </video>
                                </media>
                                <file id="file-1"/>
                                <name>/home/davidk/code/python/JC-render/JC-examples/yoga.mp4</name>
                                <rate>
                                    <timebase>24</timebase>
                                    <ntsc>TRUE</ntsc>
                                </rate>
                                <rate>
                                    <timebase>24</timebase>
                                    <ntsc>TRUE</ntsc>
                                </rate>
                                <duration>57</duration>
                                <start>7215</start>
                                <end>7272</end>
                                <in>9502</in>
                                <out>9559</out>
                            </clipitem>
                            <clipitem frameBlend="FALSE" id="clipitem-122">
                                <media>
                                    <video>
                                        <samplecharacteristics>
                                            <height>720</height>
                                            <width>1280</width>
                                        </samplecharacteristics>
                                    </video>
                                </media>
                                <file id="file-1"/>
                                <name>/home/davidk/code/python/JC-render/JC-examples/yoga.mp4</name>
                                <rate>
                                    <timebase>24</timebase>
                                    <ntsc>TRUE</ntsc>
                                </rate>
                                <rate>
                                    <timebase>24</timebase>
                                    <ntsc>TRUE</ntsc>
                                </rate>
                                <duration>18</duration>
                                <start>7272</start>
                                <end>7290</end>
                                <in>9569</in>
                                <out>9587</out>
                            </clipitem>
                            <clipitem frameBlend="FALSE" id="clipitem-123">
                                <media>
                                    <video>
                                        <samplecharacteristics>
                                            <height>720</height>
                                            <width>1280</width>
                                        </samplecharacteristics>
                                    </video>
                                </media>
                                <file id="file-1"/>
                                <name>/home/davidk/code/python/JC-render/JC-examples/yoga.mp4</name>
                                <rate>
                                    <timebase>24</timebase>
                                    <ntsc>TRUE</ntsc>
                                </rate>
                                <rate>
                                    <timebase>24</timebase>
                                    <ntsc>TRUE</ntsc>
                                </rate>
                                <duration>21</duration>
                                <start>7290</start>
                                <end>7311</end>
                                <in>9605</in>
                                <out>9626</out>
                            </clipitem>
                            <clipitem frameBlend="FALSE" id="clipitem-124">
                                <media>
                                    <video>
                                        <samplecharacteristics>
                                            <height>720</height>
                                            <width>1280</width>
                                        </samplecharacteristics>
                                    </video>
                                </media>
                                <file id="file-1"/>
                                <name>/home/davidk/code/python/JC-render/JC-examples/yoga.mp4</name>
                                <rate>
                                    <timebase>24</timebase>
                                    <ntsc>TRUE</ntsc>
                                </rate>
                                <rate>
                                    <timebase>24</timebase>
                                    <ntsc>TRUE</ntsc>
                                </rate>
                                <duration>15</duration>
                                <start>7311</start>
                                <end>7326</end>
                                <in>9653</in>
                                <out>9668</out>
                            </clipitem>
                            <clipitem frameBlend="FALSE" id="clipitem-125">
                                <media>
                                    <video>
                                        <samplecharacteristics>
                                            <height>720</height>
                                            <width>1280</width>
                                        </samplecharacteristics>
                                    </video>
                                </media>
                                <file id="file-1"/>
                                <name>/home/davidk/code/python/JC-render/JC-examples/yoga.mp4</name>
                                <rate>
                                    <timebase>24</timebase>
                                    <ntsc>TRUE</ntsc>
                                </rate>
                                <rate>
                                    <timebase>24</timebase>
                                    <ntsc>TRUE</ntsc>
                                </rate>
                                <duration>32</duration>
                                <start>7326</start>
                                <end>7358</end>
                                <in>9672</in>
                                <out>9704</out>
                            </clipitem>
                            <clipitem frameBlend="FALSE" id="clipitem-126">
                                <media>
                                    <video>
                                        <samplecharacteristics>
                                            <height>720</height>
                                            <width>1280</width>
                                        </samplecharacteristics>
                                    </video>
                                </media>
                                <file id="file-1"/>
                                <name>/home/davidk/code/python/JC-render/JC-examples/yoga.mp4</name>
                                <rate>
                                    <timebase>24</timebase>
                                    <ntsc>TRUE</ntsc>
                                </rate>
                                <rate>
                                    <timebase>24</timebase>
                                    <ntsc>TRUE</ntsc>
                                </rate>
                                <duration>43</duration>
                                <start>7358</start>
                                <end>7401</end>
                                <in>9706</in>
                                <out>9749</out>
                            </clipitem>
                            <clipitem frameBlend="FALSE" id="clipitem-127">
                                <media>
                                    <video>
                                        <samplecharacteristics>
                                            <height>720</height>
                                            <width>1280</width>
                                        </samplecharacteristics>
                                    </video>
                                </media>
                                <file id="file-1"/>
                                <name>/home/davidk/code/python/JC-render/JC-examples/yoga.mp4</name>
                                <rate>
                                    <timebase>24</timebase>
                                    <ntsc>TRUE</ntsc>
                                </rate>
                                <rate>
                                    <timebase>24</timebase>
                                    <ntsc>TRUE</ntsc>
                                </rate>
                                <duration>143</duration>
                                <start>7401</start>
                                <end>7544</end>
                                <in>9750</in>
                                <out>9893</out>
                            </clipitem>
                            <clipitem frameBlend="FALSE" id="clipitem-128">
                                <media>
                                    <video>
                                        <samplecharacteristics>
                                            <height>720</height>
                                            <width>1280</width>
                                        </samplecharacteristics>
                                    </video>
                                </media>
                                <file id="file-1"/>
                                <name>/home/davidk/code/python/JC-render/JC-examples/yoga.mp4</name>
                                <rate>
                                    <timebase>24</timebase>
                                    <ntsc>TRUE</ntsc>
                                </rate>
                                <rate>
                                    <timebase>24</timebase>
                                    <ntsc>TRUE</ntsc>
                                </rate>
                                <duration>68</duration>
                                <start>7544</start>
                                <end>7612</end>
                                <in>9939</in>
                                <out>10007</out>
                            </clipitem>
                            <clipitem frameBlend="FALSE" id="clipitem-129">
                                <media>
                                    <video>
                                        <samplecharacteristics>
                                            <height>720</height>
                                            <width>1280</width>
                                        </samplecharacteristics>
                                    </video>
                                </media>
                                <file id="file-1"/>
                                <name>/home/davidk/code/python/JC-render/JC-examples/yoga.mp4</name>
                                <rate>
                                    <timebase>24</timebase>
                                    <ntsc>TRUE</ntsc>
                                </rate>
                                <rate>
                                    <timebase>24</timebase>
                                    <ntsc>TRUE</ntsc>
                                </rate>
                                <duration>68</duration>
                                <start>7612</start>
                                <end>7680</end>
                                <in>10042</in>
                                <out>10110</out>
                            </clipitem>
                            <clipitem frameBlend="FALSE" id="clipitem-130">
                                <media>
                                    <video>
                                        <samplecharacteristics>
                                            <height>720</height>
                                            <width>1280</width>
                                        </samplecharacteristics>
                                    </video>
                                </media>
                                <file id="file-1"/>
                                <name>/home/davidk/code/python/JC-render/JC-examples/yoga.mp4</name>
                                <rate>
                                    <timebase>24</timebase>
                                    <ntsc>TRUE</ntsc>
                                </rate>
                                <rate>
                                    <timebase>24</timebase>
                                    <ntsc>TRUE</ntsc>
                                </rate>
                                <duration>107</duration>
                                <start>7680</start>
                                <end>7787</end>
                                <in>10115</in>
                                <out>10222</out>
                            </clipitem>
                            <clipitem frameBlend="FALSE" id="clipitem-131">
                                <media>
                                    <video>
                                        <samplecharacteristics>
                                            <height>720</height>
                                            <width>1280</width>
                                        </samplecharacteristics>
                                    </video>
                                </media>
                                <file id="file-1"/>
                                <name>/home/davidk/code/python/JC-render/JC-examples/yoga.mp4</name>
                                <rate>
                                    <timebase>24</timebase>
                                    <ntsc>TRUE</ntsc>
                                </rate>
                                <rate>
                                    <timebase>24</timebase>
                                    <ntsc>TRUE</ntsc>
                                </rate>
                                <duration>88</duration>
                                <start>7787</start>
                                <end>7875</end>
                                <in>10226</in>
                                <out>10314</out>
                            </clipitem>
                            <clipitem frameBlend="FALSE" id="clipitem-132">
                                <media>
                                    <video>
                                        <samplecharacteristics>
                                            <height>720</height>
                                            <width>1280</width>
                                        </samplecharacteristics>
                                    </video>
                                </media>
                                <file id="file-1"/>
                                <name>/home/davidk/code/python/JC-render/JC-examples/yoga.mp4</name>
                                <rate>
                                    <timebase>24</timebase>
                                    <ntsc>TRUE</ntsc>
                                </rate>
                                <rate>
                                    <timebase>24</timebase>
                                    <ntsc>TRUE</ntsc>
                                </rate>
                                <duration>12</duration>
                                <start>7875</start>
                                <end>7887</end>
                                <in>10318</in>
                                <out>10330</out>
                            </clipitem>
                            <clipitem frameBlend="FALSE" id="clipitem-133">
                                <media>
                                    <video>
                                        <samplecharacteristics>
                                            <height>720</height>
                                            <width>1280</width>
                                        </samplecharacteristics>
                                    </video>
                                </media>
                                <file id="file-1"/>
                                <name>/home/davidk/code/python/JC-render/JC-examples/yoga.mp4</name>
                                <rate>
                                    <timebase>24</timebase>
                                    <ntsc>TRUE</ntsc>
                                </rate>
                                <rate>
                                    <timebase>24</timebase>
                                    <ntsc>TRUE</ntsc>
                                </rate>
                                <duration>23</duration>
                                <start>7887</start>
                                <end>7910</end>
                                <in>10332</in>
                                <out>10355</out>
                            </clipitem>
                            <clipitem frameBlend="FALSE" id="clipitem-134">
                                <media>
                                    <video>
                                        <samplecharacteristics>
                                            <height>720</height>
                                            <width>1280</width>
                                        </samplecharacteristics>
                                    </video>
                                </media>
                                <file id="file-1"/>
                                <name>/home/davidk/code/python/JC-render/JC-examples/yoga.mp4</name>
                                <rate>
                                    <timebase>24</timebase>
                                    <ntsc>TRUE</ntsc>
                                </rate>
                                <rate>
                                    <timebase>24</timebase>
                                    <ntsc>TRUE</ntsc>
                                </rate>
                                <duration>12</duration>
                                <start>7910</start>
                                <end>7922</end>
                                <in>10360</in>
                                <out>10372</out>
                            </clipitem>
                            <clipitem frameBlend="FALSE" id="clipitem-135">
                                <media>
                                    <video>
                                        <samplecharacteristics>
                                            <height>720</height>
                                            <width>1280</width>
                                        </samplecharacteristics>
                                    </video>
                                </media>
                                <file id="file-1"/>
                                <name>/home/davidk/code/python/JC-render/JC-examples/yoga.mp4</name>
                                <rate>
                                    <timebase>24</timebase>
                                    <ntsc>TRUE</ntsc>
                                </rate>
                                <rate>
                                    <timebase>24</timebase>
                                    <ntsc>TRUE</ntsc>
                                </rate>
                                <duration>37</duration>
                                <start>7922</start>
                                <end>7959</end>
                                <in>10385</in>
                                <out>10422</out>
                            </clipitem>
                            <clipitem frameBlend="FALSE" id="clipitem-136">
                                <media>
                                    <video>
                                        <samplecharacteristics>
                                            <height>720</height>
                                            <width>1280</width>
                                        </samplecharacteristics>
                                    </video>
                                </media>
                                <file id="file-1"/>
                                <name>/home/davidk/code/python/JC-render/JC-examples/yoga.mp4</name>
                                <rate>
                                    <timebase>24</timebase>
                                    <ntsc>TRUE</ntsc>
                                </rate>
                                <rate>
                                    <timebase>24</timebase>
                                    <ntsc>TRUE</ntsc>
                                </rate>
                                <duration>13</duration>
                                <start>7959</start>
                                <end>7972</end>
                                <in>10429</in>
                                <out>10442</out>
                            </clipitem>
                            <clipitem frameBlend="FALSE" id="clipitem-137">
                                <media>
                                    <video>
                                        <samplecharacteristics>
                                            <height>720</height>
                                            <width>1280</width>
                                        </samplecharacteristics>
                                    </video>
                                </media>
                                <file id="file-1"/>
                                <name>/home/davidk/code/python/JC-render/JC-examples/yoga.mp4</name>
                                <rate>
                                    <timebase>24</timebase>
                                    <ntsc>TRUE</ntsc>
                                </rate>
                                <rate>
                                    <timebase>24</timebase>
                                    <ntsc>TRUE</ntsc>
                                </rate>
                                <duration>24</duration>
                                <start>7972</start>
                                <end>7996</end>
                                <in>10454</in>
                                <out>10478</out>
                            </clipitem>
                            <clipitem frameBlend="FALSE" id="clipitem-138">
                                <media>
                                    <video>
                                        <samplecharacteristics>
                                            <height>720</height>
                                            <width>1280</width>
                                        </samplecharacteristics>
                                    </video>
                                </media>
                                <file id="file-1"/>
                                <name>/home/davidk/code/python/JC-render/JC-examples/yoga.mp4</name>
                                <rate>
                                    <timebase>24</timebase>
                                    <ntsc>TRUE</ntsc>
                                </rate>
                                <rate>
                                    <timebase>24</timebase>
                                    <ntsc>TRUE</ntsc>
                                </rate>
                                <duration>29</duration>
                                <start>7996</start>
                                <end>8025</end>
                                <in>10480</in>
                                <out>10509</out>
                            </clipitem>
                            <clipitem frameBlend="FALSE" id="clipitem-139">
                                <media>
                                    <video>
                                        <samplecharacteristics>
                                            <height>720</height>
                                            <width>1280</width>
                                        </samplecharacteristics>
                                    </video>
                                </media>
                                <file id="file-1"/>
                                <name>/home/davidk/code/python/JC-render/JC-examples/yoga.mp4</name>
                                <rate>
                                    <timebase>24</timebase>
                                    <ntsc>TRUE</ntsc>
                                </rate>
                                <rate>
                                    <timebase>24</timebase>
                                    <ntsc>TRUE</ntsc>
                                </rate>
                                <duration>79</duration>
                                <start>8025</start>
                                <end>8104</end>
                                <in>10527</in>
                                <out>10606</out>
                            </clipitem>
                            <clipitem frameBlend="FALSE" id="clipitem-140">
                                <media>
                                    <video>
                                        <samplecharacteristics>
                                            <height>720</height>
                                            <width>1280</width>
                                        </samplecharacteristics>
                                    </video>
                                </media>
                                <file id="file-1"/>
                                <name>/home/davidk/code/python/JC-render/JC-examples/yoga.mp4</name>
                                <rate>
                                    <timebase>24</timebase>
                                    <ntsc>TRUE</ntsc>
                                </rate>
                                <rate>
                                    <timebase>24</timebase>
                                    <ntsc>TRUE</ntsc>
                                </rate>
                                <duration>121</duration>
                                <start>8104</start>
                                <end>8225</end>
                                <in>10608</in>
                                <out>10729</out>
                            </clipitem>
                            <clipitem frameBlend="FALSE" id="clipitem-141">
                                <media>
                                    <video>
                                        <samplecharacteristics>
                                            <height>720</height>
                                            <width>1280</width>
                                        </samplecharacteristics>
                                    </video>
                                </media>
                                <file id="file-1"/>
                                <name>/home/davidk/code/python/JC-render/JC-examples/yoga.mp4</name>
                                <rate>
                                    <timebase>24</timebase>
                                    <ntsc>TRUE</ntsc>
                                </rate>
                                <rate>
                                    <timebase>24</timebase>
                                    <ntsc>TRUE</ntsc>
                                </rate>
                                <duration>84</duration>
                                <start>8225</start>
                                <end>8309</end>
                                <in>10736</in>
                                <out>10820</out>
                            </clipitem>
                            <clipitem frameBlend="FALSE" id="clipitem-142">
                                <media>
                                    <video>
                                        <samplecharacteristics>
                                            <height>720</height>
                                            <width>1280</width>
                                        </samplecharacteristics>
                                    </video>
                                </media>
                                <file id="file-1"/>
                                <name>/home/davidk/code/python/JC-render/JC-examples/yoga.mp4</name>
                                <rate>
                                    <timebase>24</timebase>
                                    <ntsc>TRUE</ntsc>
                                </rate>
                                <rate>
                                    <timebase>24</timebase>
                                    <ntsc>TRUE</ntsc>
                                </rate>
                                <duration>15</duration>
                                <start>8309</start>
                                <end>8324</end>
                                <in>10858</in>
                                <out>10873</out>
                            </clipitem>
                            <clipitem frameBlend="FALSE" id="clipitem-143">
                                <media>
                                    <video>
                                        <samplecharacteristics>
                                            <height>720</height>
                                            <width>1280</width>
                                        </samplecharacteristics>
                                    </video>
                                </media>
                                <file id="file-1"/>
                                <name>/home/davidk/code/python/JC-render/JC-examples/yoga.mp4</name>
                                <rate>
                                    <timebase>24</timebase>
                                    <ntsc>TRUE</ntsc>
                                </rate>
                                <rate>
                                    <timebase>24</timebase>
                                    <ntsc>TRUE</ntsc>
                                </rate>
                                <duration>15</duration>
                                <start>8324</start>
                                <end>8339</end>
                                <in>10936</in>
                                <out>10951</out>
                            </clipitem>
                            <clipitem frameBlend="FALSE" id="clipitem-144">
                                <media>
                                    <video>
                                        <samplecharacteristics>
                                            <height>720</height>
                                            <width>1280</width>
                                        </samplecharacteristics>
                                    </video>
                                </media>
                                <file id="file-1"/>
                                <name>/home/davidk/code/python/JC-render/JC-examples/yoga.mp4</name>
                                <rate>
                                    <timebase>24</timebase>
                                    <ntsc>TRUE</ntsc>
                                </rate>
                                <rate>
                                    <timebase>24</timebase>
                                    <ntsc>TRUE</ntsc>
                                </rate>
                                <duration>15</duration>
                                <start>8339</start>
                                <end>8354</end>
                                <in>10975</in>
                                <out>10990</out>
                            </clipitem>
                            <clipitem frameBlend="FALSE" id="clipitem-145">
                                <media>
                                    <video>
                                        <samplecharacteristics>
                                            <height>720</height>
                                            <width>1280</width>
                                        </samplecharacteristics>
                                    </video>
                                </media>
                                <file id="file-1"/>
                                <name>/home/davidk/code/python/JC-render/JC-examples/yoga.mp4</name>
                                <rate>
                                    <timebase>24</timebase>
                                    <ntsc>TRUE</ntsc>
                                </rate>
                                <rate>
                                    <timebase>24</timebase>
                                    <ntsc>TRUE</ntsc>
                                </rate>
                                <duration>74</duration>
                                <start>8354</start>
                                <end>8428</end>
                                <in>11022</in>
                                <out>11096</out>
                            </clipitem>
                            <clipitem frameBlend="FALSE" id="clipitem-146">
                                <media>
                                    <video>
                                        <samplecharacteristics>
                                            <height>720</height>
                                            <width>1280</width>
                                        </samplecharacteristics>
                                    </video>
                                </media>
                                <file id="file-1"/>
                                <name>/home/davidk/code/python/JC-render/JC-examples/yoga.mp4</name>
                                <rate>
                                    <timebase>24</timebase>
                                    <ntsc>TRUE</ntsc>
                                </rate>
                                <rate>
                                    <timebase>24</timebase>
                                    <ntsc>TRUE</ntsc>
                                </rate>
                                <duration>74</duration>
                                <start>8428</start>
                                <end>8502</end>
                                <in>11106</in>
                                <out>11180</out>
                            </clipitem>
                            <clipitem frameBlend="FALSE" id="clipitem-147">
                                <media>
                                    <video>
                                        <samplecharacteristics>
                                            <height>720</height>
                                            <width>1280</width>
                                        </samplecharacteristics>
                                    </video>
                                </media>
                                <file id="file-1"/>
                                <name>/home/davidk/code/python/JC-render/JC-examples/yoga.mp4</name>
                                <rate>
                                    <timebase>24</timebase>
                                    <ntsc>TRUE</ntsc>
                                </rate>
                                <rate>
                                    <timebase>24</timebase>
                                    <ntsc>TRUE</ntsc>
                                </rate>
                                <duration>60</duration>
                                <start>8502</start>
                                <end>8562</end>
                                <in>11189</in>
                                <out>11249</out>
                            </clipitem>
                            <clipitem frameBlend="FALSE" id="clipitem-148">
                                <media>
                                    <video>
                                        <samplecharacteristics>
                                            <height>720</height>
                                            <width>1280</width>
                                        </samplecharacteristics>
                                    </video>
                                </media>
                                <file id="file-1"/>
                                <name>/home/davidk/code/python/JC-render/JC-examples/yoga.mp4</name>
                                <rate>
                                    <timebase>24</timebase>
                                    <ntsc>TRUE</ntsc>
                                </rate>
                                <rate>
                                    <timebase>24</timebase>
                                    <ntsc>TRUE</ntsc>
                                </rate>
                                <duration>93</duration>
                                <start>8562</start>
                                <end>8655</end>
                                <in>11270</in>
                                <out>11363</out>
                            </clipitem>
                            <clipitem frameBlend="FALSE" id="clipitem-149">
                                <media>
                                    <video>
                                        <samplecharacteristics>
                                            <height>720</height>
                                            <width>1280</width>
                                        </samplecharacteristics>
                                    </video>
                                </media>
                                <file id="file-1"/>
                                <name>/home/davidk/code/python/JC-render/JC-examples/yoga.mp4</name>
                                <rate>
                                    <timebase>24</timebase>
                                    <ntsc>TRUE</ntsc>
                                </rate>
                                <rate>
                                    <timebase>24</timebase>
                                    <ntsc>TRUE</ntsc>
                                </rate>
                                <duration>26</duration>
                                <start>8655</start>
                                <end>8681</end>
                                <in>11485</in>
                                <out>11511</out>
                            </clipitem>
                            <clipitem frameBlend="FALSE" id="clipitem-150">
                                <media>
                                    <video>
                                        <samplecharacteristics>
                                            <height>720</height>
                                            <width>1280</width>
                                        </samplecharacteristics>
                                    </video>
                                </media>
                                <file id="file-1"/>
                                <name>/home/davidk/code/python/JC-render/JC-examples/yoga.mp4</name>
                                <rate>
                                    <timebase>24</timebase>
                                    <ntsc>TRUE</ntsc>
                                </rate>
                                <rate>
                                    <timebase>24</timebase>
                                    <ntsc>TRUE</ntsc>
                                </rate>
                                <duration>43</duration>
                                <start>8681</start>
                                <end>8724</end>
                                <in>11540</in>
                                <out>11583</out>
                            </clipitem>
                            <clipitem frameBlend="FALSE" id="clipitem-151">
                                <media>
                                    <video>
                                        <samplecharacteristics>
                                            <height>720</height>
                                            <width>1280</width>
                                        </samplecharacteristics>
                                    </video>
                                </media>
                                <file id="file-1"/>
                                <name>/home/davidk/code/python/JC-render/JC-examples/yoga.mp4</name>
                                <rate>
                                    <timebase>24</timebase>
                                    <ntsc>TRUE</ntsc>
                                </rate>
                                <rate>
                                    <timebase>24</timebase>
                                    <ntsc>TRUE</ntsc>
                                </rate>
                                <duration>112</duration>
                                <start>8724</start>
                                <end>8836</end>
                                <in>11627</in>
                                <out>11739</out>
                            </clipitem>
                            <clipitem frameBlend="FALSE" id="clipitem-152">
                                <media>
                                    <video>
                                        <samplecharacteristics>
                                            <height>720</height>
                                            <width>1280</width>
                                        </samplecharacteristics>
                                    </video>
                                </media>
                                <file id="file-1"/>
                                <name>/home/davidk/code/python/JC-render/JC-examples/yoga.mp4</name>
                                <rate>
                                    <timebase>24</timebase>
                                    <ntsc>TRUE</ntsc>
                                </rate>
                                <rate>
                                    <timebase>24</timebase>
                                    <ntsc>TRUE</ntsc>
                                </rate>
                                <duration>143</duration>
                                <start>8836</start>
                                <end>8979</end>
                                <in>11844</in>
                                <out>11987</out>
                            </clipitem>
                            <clipitem frameBlend="FALSE" id="clipitem-153">
                                <media>
                                    <video>
                                        <samplecharacteristics>
                                            <height>720</height>
                                            <width>1280</width>
                                        </samplecharacteristics>
                                    </video>
                                </media>
                                <file id="file-1"/>
                                <name>/home/davidk/code/python/JC-render/JC-examples/yoga.mp4</name>
                                <rate>
                                    <timebase>24</timebase>
                                    <ntsc>TRUE</ntsc>
                                </rate>
                                <rate>
                                    <timebase>24</timebase>
                                    <ntsc>TRUE</ntsc>
                                </rate>
                                <duration>29</duration>
                                <start>8979</start>
                                <end>9008</end>
                                <in>11994</in>
                                <out>12023</out>
                            </clipitem>
                            <clipitem frameBlend="FALSE" id="clipitem-154">
                                <media>
                                    <video>
                                        <samplecharacteristics>
                                            <height>720</height>
                                            <width>1280</width>
                                        </samplecharacteristics>
                                    </video>
                                </media>
                                <file id="file-1"/>
                                <name>/home/davidk/code/python/JC-render/JC-examples/yoga.mp4</name>
                                <rate>
                                    <timebase>24</timebase>
                                    <ntsc>TRUE</ntsc>
                                </rate>
                                <rate>
                                    <timebase>24</timebase>
                                    <ntsc>TRUE</ntsc>
                                </rate>
                                <duration>99</duration>
                                <start>9008</start>
                                <end>9107</end>
                                <in>12047</in>
                                <out>12146</out>
                            </clipitem>
                            <clipitem frameBlend="FALSE" id="clipitem-155">
                                <media>
                                    <video>
                                        <samplecharacteristics>
                                            <height>720</height>
                                            <width>1280</width>
                                        </samplecharacteristics>
                                    </video>
                                </media>
                                <file id="file-1"/>
                                <name>/home/davidk/code/python/JC-render/JC-examples/yoga.mp4</name>
                                <rate>
                                    <timebase>24</timebase>
                                    <ntsc>TRUE</ntsc>
                                </rate>
                                <rate>
                                    <timebase>24</timebase>
                                    <ntsc>TRUE</ntsc>
                                </rate>
                                <duration>20</duration>
                                <start>9107</start>
                                <end>9127</end>
                                <in>12195</in>
                                <out>12215</out>
                            </clipitem>
                            <clipitem frameBlend="FALSE" id="clipitem-156">
                                <media>
                                    <video>
                                        <samplecharacteristics>
                                            <height>720</height>
                                            <width>1280</width>
                                        </samplecharacteristics>
                                    </video>
                                </media>
                                <file id="file-1"/>
                                <name>/home/davidk/code/python/JC-render/JC-examples/yoga.mp4</name>
                                <rate>
                                    <timebase>24</timebase>
                                    <ntsc>TRUE</ntsc>
                                </rate>
                                <rate>
                                    <timebase>24</timebase>
                                    <ntsc>TRUE</ntsc>
                                </rate>
                                <duration>13</duration>
                                <start>9127</start>
                                <end>9140</end>
                                <in>12261</in>
                                <out>12274</out>
                            </clipitem>
                            <clipitem frameBlend="FALSE" id="clipitem-157">
                                <media>
                                    <video>
                                        <samplecharacteristics>
                                            <height>720</height>
                                            <width>1280</width>
                                        </samplecharacteristics>
                                    </video>
                                </media>
                                <file id="file-1"/>
                                <name>/home/davidk/code/python/JC-render/JC-examples/yoga.mp4</name>
                                <rate>
                                    <timebase>24</timebase>
                                    <ntsc>TRUE</ntsc>
                                </rate>
                                <rate>
                                    <timebase>24</timebase>
                                    <ntsc>TRUE</ntsc>
                                </rate>
                                <duration>35</duration>
                                <start>9140</start>
                                <end>9175</end>
                                <in>12275</in>
                                <out>12310</out>
                            </clipitem>
                            <clipitem frameBlend="FALSE" id="clipitem-158">
                                <media>
                                    <video>
                                        <samplecharacteristics>
                                            <height>720</height>
                                            <width>1280</width>
                                        </samplecharacteristics>
                                    </video>
                                </media>
                                <file id="file-1"/>
                                <name>/home/davidk/code/python/JC-render/JC-examples/yoga.mp4</name>
                                <rate>
                                    <timebase>24</timebase>
                                    <ntsc>TRUE</ntsc>
                                </rate>
                                <rate>
                                    <timebase>24</timebase>
                                    <ntsc>TRUE</ntsc>
                                </rate>
                                <duration>13</duration>
                                <start>9175</start>
                                <end>9188</end>
                                <in>12325</in>
                                <out>12338</out>
                            </clipitem>
                            <clipitem frameBlend="FALSE" id="clipitem-159">
                                <media>
                                    <video>
                                        <samplecharacteristics>
                                            <height>720</height>
                                            <width>1280</width>
                                        </samplecharacteristics>
                                    </video>
                                </media>
                                <file id="file-1"/>
                                <name>/home/davidk/code/python/JC-render/JC-examples/yoga.mp4</name>
                                <rate>
                                    <timebase>24</timebase>
                                    <ntsc>TRUE</ntsc>
                                </rate>
                                <rate>
                                    <timebase>24</timebase>
                                    <ntsc>TRUE</ntsc>
                                </rate>
                                <duration>32</duration>
                                <start>9188</start>
                                <end>9220</end>
                                <in>12375</in>
                                <out>12407</out>
                            </clipitem>
                            <clipitem frameBlend="FALSE" id="clipitem-160">
                                <media>
                                    <video>
                                        <samplecharacteristics>
                                            <height>720</height>
                                            <width>1280</width>
                                        </samplecharacteristics>
                                    </video>
                                </media>
                                <file id="file-1"/>
                                <name>/home/davidk/code/python/JC-render/JC-examples/yoga.mp4</name>
                                <rate>
                                    <timebase>24</timebase>
                                    <ntsc>TRUE</ntsc>
                                </rate>
                                <rate>
                                    <timebase>24</timebase>
                                    <ntsc>TRUE</ntsc>
                                </rate>
                                <duration>96</duration>
                                <start>9220</start>
                                <end>9316</end>
                                <in>12448</in>
                                <out>12544</out>
                            </clipitem>
                            <clipitem frameBlend="FALSE" id="clipitem-161">
                                <media>
                                    <video>
                                        <samplecharacteristics>
                                            <height>720</height>
                                            <width>1280</width>
                                        </samplecharacteristics>
                                    </video>
                                </media>
                                <file id="file-1"/>
                                <name>/home/davidk/code/python/JC-render/JC-examples/yoga.mp4</name>
                                <rate>
                                    <timebase>24</timebase>
                                    <ntsc>TRUE</ntsc>
                                </rate>
                                <rate>
                                    <timebase>24</timebase>
                                    <ntsc>TRUE</ntsc>
                                </rate>
                                <duration>141</duration>
                                <start>9316</start>
                                <end>9457</end>
                                <in>12581</in>
                                <out>12722</out>
                            </clipitem>
                            <clipitem frameBlend="FALSE" id="clipitem-162">
                                <media>
                                    <video>
                                        <samplecharacteristics>
                                            <height>720</height>
                                            <width>1280</width>
                                        </samplecharacteristics>
                                    </video>
                                </media>
                                <file id="file-1"/>
                                <name>/home/davidk/code/python/JC-render/JC-examples/yoga.mp4</name>
                                <rate>
                                    <timebase>24</timebase>
                                    <ntsc>TRUE</ntsc>
                                </rate>
                                <rate>
                                    <timebase>24</timebase>
                                    <ntsc>TRUE</ntsc>
                                </rate>
                                <duration>34</duration>
                                <start>9457</start>
                                <end>9491</end>
                                <in>12813</in>
                                <out>12847</out>
                            </clipitem>
                            <clipitem frameBlend="FALSE" id="clipitem-163">
                                <media>
                                    <video>
                                        <samplecharacteristics>
                                            <height>720</height>
                                            <width>1280</width>
                                        </samplecharacteristics>
                                    </video>
                                </media>
                                <file id="file-1"/>
                                <name>/home/davidk/code/python/JC-render/JC-examples/yoga.mp4</name>
                                <rate>
                                    <timebase>24</timebase>
                                    <ntsc>TRUE</ntsc>
                                </rate>
                                <rate>
                                    <timebase>24</timebase>
                                    <ntsc>TRUE</ntsc>
                                </rate>
                                <duration>151</duration>
                                <start>9491</start>
                                <end>9642</end>
                                <in>12849</in>
                                <out>13000</out>
                            </clipitem>
                            <clipitem frameBlend="FALSE" id="clipitem-164">
                                <media>
                                    <video>
                                        <samplecharacteristics>
                                            <height>720</height>
                                            <width>1280</width>
                                        </samplecharacteristics>
                                    </video>
                                </media>
                                <file id="file-1"/>
                                <name>/home/davidk/code/python/JC-render/JC-examples/yoga.mp4</name>
                                <rate>
                                    <timebase>24</timebase>
                                    <ntsc>TRUE</ntsc>
                                </rate>
                                <rate>
                                    <timebase>24</timebase>
                                    <ntsc>TRUE</ntsc>
                                </rate>
                                <duration>23</duration>
                                <start>9642</start>
                                <end>9665</end>
                                <in>13002</in>
                                <out>13025</out>
                            </clipitem>
                            <clipitem frameBlend="FALSE" id="clipitem-165">
                                <media>
                                    <video>
                                        <samplecharacteristics>
                                            <height>720</height>
                                            <width>1280</width>
                                        </samplecharacteristics>
                                    </video>
                                </media>
                                <file id="file-1"/>
                                <name>/home/davidk/code/python/JC-render/JC-examples/yoga.mp4</name>
                                <rate>
                                    <timebase>24</timebase>
                                    <ntsc>TRUE</ntsc>
                                </rate>
                                <rate>
                                    <timebase>24</timebase>
                                    <ntsc>TRUE</ntsc>
                                </rate>
                                <duration>118</duration>
                                <start>9665</start>
                                <end>9783</end>
                                <in>13069</in>
                                <out>13187</out>
                            </clipitem>
                            <clipitem frameBlend="FALSE" id="clipitem-166">
                                <media>
                                    <video>
                                        <samplecharacteristics>
                                            <height>720</height>
                                            <width>1280</width>
                                        </samplecharacteristics>
                                    </video>
                                </media>
                                <file id="file-1"/>
                                <name>/home/davidk/code/python/JC-render/JC-examples/yoga.mp4</name>
                                <rate>
                                    <timebase>24</timebase>
                                    <ntsc>TRUE</ntsc>
                                </rate>
                                <rate>
                                    <timebase>24</timebase>
                                    <ntsc>TRUE</ntsc>
                                </rate>
                                <duration>140</duration>
                                <start>9783</start>
                                <end>9923</end>
                                <in>13197</in>
                                <out>13337</out>
                            </clipitem>
                            <clipitem frameBlend="FALSE" id="clipitem-167">
                                <media>
                                    <video>
                                        <samplecharacteristics>
                                            <height>720</height>
                                            <width>1280</width>
                                        </samplecharacteristics>
                                    </video>
                                </media>
                                <file id="file-1"/>
                                <name>/home/davidk/code/python/JC-render/JC-examples/yoga.mp4</name>
                                <rate>
                                    <timebase>24</timebase>
                                    <ntsc>TRUE</ntsc>
                                </rate>
                                <rate>
                                    <timebase>24</timebase>
                                    <ntsc>TRUE</ntsc>
                                </rate>
                                <duration>46</duration>
                                <start>9923</start>
                                <end>9969</end>
                                <in>13372</in>
                                <out>13418</out>
                            </clipitem>
                            <clipitem frameBlend="FALSE" id="clipitem-168">
                                <media>
                                    <video>
                                        <samplecharacteristics>
                                            <height>720</height>
                                            <width>1280</width>
                                        </samplecharacteristics>
                                    </video>
                                </media>
                                <file id="file-1"/>
                                <name>/home/davidk/code/python/JC-render/JC-examples/yoga.mp4</name>
                                <rate>
                                    <timebase>24</timebase>
                                    <ntsc>TRUE</ntsc>
                                </rate>
                                <rate>
                                    <timebase>24</timebase>
                                    <ntsc>TRUE</ntsc>
                                </rate>
                                <duration>29</duration>
                                <start>9969</start>
                                <end>9998</end>
                                <in>13420</in>
                                <out>13449</out>
                            </clipitem>
                            <clipitem frameBlend="FALSE" id="clipitem-169">
                                <media>
                                    <video>
                                        <samplecharacteristics>
                                            <height>720</height>
                                            <width>1280</width>
                                        </samplecharacteristics>
                                    </video>
                                </media>
                                <file id="file-1"/>
                                <name>/home/davidk/code/python/JC-render/JC-examples/yoga.mp4</name>
                                <rate>
                                    <timebase>24</timebase>
                                    <ntsc>TRUE</ntsc>
                                </rate>
                                <rate>
                                    <timebase>24</timebase>
                                    <ntsc>TRUE</ntsc>
                                </rate>
                                <duration>20</duration>
                                <start>9998</start>
                                <end>10018</end>
                                <in>13523</in>
                                <out>13543</out>
                            </clipitem>
                            <clipitem frameBlend="FALSE" id="clipitem-170">
                                <media>
                                    <video>
                                        <samplecharacteristics>
                                            <height>720</height>
                                            <width>1280</width>
                                        </samplecharacteristics>
                                    </video>
                                </media>
                                <file id="file-1"/>
                                <name>/home/davidk/code/python/JC-render/JC-examples/yoga.mp4</name>
                                <rate>
                                    <timebase>24</timebase>
                                    <ntsc>TRUE</ntsc>
                                </rate>
                                <rate>
                                    <timebase>24</timebase>
                                    <ntsc>TRUE</ntsc>
                                </rate>
                                <duration>29</duration>
                                <start>10018</start>
                                <end>10047</end>
                                <in>13548</in>
                                <out>13577</out>
                            </clipitem>
                            <clipitem frameBlend="FALSE" id="clipitem-171">
                                <media>
                                    <video>
                                        <samplecharacteristics>
                                            <height>720</height>
                                            <width>1280</width>
                                        </samplecharacteristics>
                                    </video>
                                </media>
                                <file id="file-1"/>
                                <name>/home/davidk/code/python/JC-render/JC-examples/yoga.mp4</name>
                                <rate>
                                    <timebase>24</timebase>
                                    <ntsc>TRUE</ntsc>
                                </rate>
                                <rate>
                                    <timebase>24</timebase>
                                    <ntsc>TRUE</ntsc>
                                </rate>
                                <duration>107</duration>
                                <start>10047</start>
                                <end>10154</end>
                                <in>13589</in>
                                <out>13696</out>
                            </clipitem>
                            <clipitem frameBlend="FALSE" id="clipitem-172">
                                <media>
                                    <video>
                                        <samplecharacteristics>
                                            <height>720</height>
                                            <width>1280</width>
                                        </samplecharacteristics>
                                    </video>
                                </media>
                                <file id="file-1"/>
                                <name>/home/davidk/code/python/JC-render/JC-examples/yoga.mp4</name>
                                <rate>
                                    <timebase>24</timebase>
                                    <ntsc>TRUE</ntsc>
                                </rate>
                                <rate>
                                    <timebase>24</timebase>
                                    <ntsc>TRUE</ntsc>
                                </rate>
                                <duration>60</duration>
                                <start>10154</start>
                                <end>10214</end>
                                <in>13698</in>
                                <out>13758</out>
                            </clipitem>
                            <clipitem frameBlend="FALSE" id="clipitem-173">
                                <media>
                                    <video>
                                        <samplecharacteristics>
                                            <height>720</height>
                                            <width>1280</width>
                                        </samplecharacteristics>
                                    </video>
                                </media>
                                <file id="file-1"/>
                                <name>/home/davidk/code/python/JC-render/JC-examples/yoga.mp4</name>
                                <rate>
                                    <timebase>24</timebase>
                                    <ntsc>TRUE</ntsc>
                                </rate>
                                <rate>
                                    <timebase>24</timebase>
                                    <ntsc>TRUE</ntsc>
                                </rate>
                                <duration>23</duration>
                                <start>10214</start>
                                <end>10237</end>
                                <in>13768</in>
                                <out>13791</out>
                            </clipitem>
                            <clipitem frameBlend="FALSE" id="clipitem-174">
                                <media>
                                    <video>
                                        <samplecharacteristics>
                                            <height>720</height>
                                            <width>1280</width>
                                        </samplecharacteristics>
                                    </video>
                                </media>
                                <file id="file-1"/>
                                <name>/home/davidk/code/python/JC-render/JC-examples/yoga.mp4</name>
                                <rate>
                                    <timebase>24</timebase>
                                    <ntsc>TRUE</ntsc>
                                </rate>
                                <rate>
                                    <timebase>24</timebase>
                                    <ntsc>TRUE</ntsc>
                                </rate>
                                <duration>93</duration>
                                <start>10237</start>
                                <end>10330</end>
                                <in>13826</in>
                                <out>13919</out>
                            </clipitem>
                            <clipitem frameBlend="FALSE" id="clipitem-175">
                                <media>
                                    <video>
                                        <samplecharacteristics>
                                            <height>720</height>
                                            <width>1280</width>
                                        </samplecharacteristics>
                                    </video>
                                </media>
                                <file id="file-1"/>
                                <name>/home/davidk/code/python/JC-render/JC-examples/yoga.mp4</name>
                                <rate>
                                    <timebase>24</timebase>
                                    <ntsc>TRUE</ntsc>
                                </rate>
                                <rate>
                                    <timebase>24</timebase>
                                    <ntsc>TRUE</ntsc>
                                </rate>
                                <duration>43</duration>
                                <start>10330</start>
                                <end>10373</end>
                                <in>13923</in>
                                <out>13966</out>
                            </clipitem>
                            <clipitem frameBlend="FALSE" id="clipitem-176">
                                <media>
                                    <video>
                                        <samplecharacteristics>
                                            <height>720</height>
                                            <width>1280</width>
                                        </samplecharacteristics>
                                    </video>
                                </media>
                                <file id="file-1"/>
                                <name>/home/davidk/code/python/JC-render/JC-examples/yoga.mp4</name>
                                <rate>
                                    <timebase>24</timebase>
                                    <ntsc>TRUE</ntsc>
                                </rate>
                                <rate>
                                    <timebase>24</timebase>
                                    <ntsc>TRUE</ntsc>
                                </rate>
                                <duration>96</duration>
                                <start>10373</start>
                                <end>10469</end>
                                <in>13971</in>
                                <out>14067</out>
                            </clipitem>
                            <clipitem frameBlend="FALSE" id="clipitem-177">
                                <media>
                                    <video>
                                        <samplecharacteristics>
                                            <height>720</height>
                                            <width>1280</width>
                                        </samplecharacteristics>
                                    </video>
                                </media>
                                <file id="file-1"/>
                                <name>/home/davidk/code/python/JC-render/JC-examples/yoga.mp4</name>
                                <rate>
                                    <timebase>24</timebase>
                                    <ntsc>TRUE</ntsc>
                                </rate>
                                <rate>
                                    <timebase>24</timebase>
                                    <ntsc>TRUE</ntsc>
                                </rate>
                                <duration>24</duration>
                                <start>10469</start>
                                <end>10493</end>
                                <in>14068</in>
                                <out>14092</out>
                            </clipitem>
                            <clipitem frameBlend="FALSE" id="clipitem-178">
                                <media>
                                    <video>
                                        <samplecharacteristics>
                                            <height>720</height>
                                            <width>1280</width>
                                        </samplecharacteristics>
                                    </video>
                                </media>
                                <file id="file-1"/>
                                <name>/home/davidk/code/python/JC-render/JC-examples/yoga.mp4</name>
                                <rate>
                                    <timebase>24</timebase>
                                    <ntsc>TRUE</ntsc>
                                </rate>
                                <rate>
                                    <timebase>24</timebase>
                                    <ntsc>TRUE</ntsc>
                                </rate>
                                <duration>51</duration>
                                <start>10493</start>
                                <end>10544</end>
                                <in>14099</in>
                                <out>14150</out>
                            </clipitem>
                            <clipitem frameBlend="FALSE" id="clipitem-179">
                                <media>
                                    <video>
                                        <samplecharacteristics>
                                            <height>720</height>
                                            <width>1280</width>
                                        </samplecharacteristics>
                                    </video>
                                </media>
                                <file id="file-1"/>
                                <name>/home/davidk/code/python/JC-render/JC-examples/yoga.mp4</name>
                                <rate>
                                    <timebase>24</timebase>
                                    <ntsc>TRUE</ntsc>
                                </rate>
                                <rate>
                                    <timebase>24</timebase>
                                    <ntsc>TRUE</ntsc>
                                </rate>
                                <duration>56</duration>
                                <start>10544</start>
                                <end>10600</end>
                                <in>14180</in>
                                <out>14236</out>
                            </clipitem>
                            <clipitem frameBlend="FALSE" id="clipitem-180">
                                <media>
                                    <video>
                                        <samplecharacteristics>
                                            <height>720</height>
                                            <width>1280</width>
                                        </samplecharacteristics>
                                    </video>
                                </media>
                                <file id="file-1"/>
                                <name>/home/davidk/code/python/JC-render/JC-examples/yoga.mp4</name>
                                <rate>
                                    <timebase>24</timebase>
                                    <ntsc>TRUE</ntsc>
                                </rate>
                                <rate>
                                    <timebase>24</timebase>
                                    <ntsc>TRUE</ntsc>
                                </rate>
                                <duration>76</duration>
                                <start>10600</start>
                                <end>10676</end>
                                <in>14244</in>
                                <out>14320</out>
                            </clipitem>
                            <clipitem frameBlend="FALSE" id="clipitem-181">
                                <media>
                                    <video>
                                        <samplecharacteristics>
                                            <height>720</height>
                                            <width>1280</width>
                                        </samplecharacteristics>
                                    </video>
                                </media>
                                <file id="file-1"/>
                                <name>/home/davidk/code/python/JC-render/JC-examples/yoga.mp4</name>
                                <rate>
                                    <timebase>24</timebase>
                                    <ntsc>TRUE</ntsc>
                                </rate>
                                <rate>
                                    <timebase>24</timebase>
                                    <ntsc>TRUE</ntsc>
                                </rate>
                                <duration>49</duration>
                                <start>10676</start>
                                <end>10725</end>
                                <in>14335</in>
                                <out>14384</out>
                            </clipitem>
                            <clipitem frameBlend="FALSE" id="clipitem-182">
                                <media>
                                    <video>
                                        <samplecharacteristics>
                                            <height>720</height>
                                            <width>1280</width>
                                        </samplecharacteristics>
                                    </video>
                                </media>
                                <file id="file-1"/>
                                <name>/home/davidk/code/python/JC-render/JC-examples/yoga.mp4</name>
                                <rate>
                                    <timebase>24</timebase>
                                    <ntsc>TRUE</ntsc>
                                </rate>
                                <rate>
                                    <timebase>24</timebase>
                                    <ntsc>TRUE</ntsc>
                                </rate>
                                <duration>12</duration>
                                <start>10725</start>
                                <end>10737</end>
                                <in>14436</in>
                                <out>14448</out>
                            </clipitem>
                            <clipitem frameBlend="FALSE" id="clipitem-183">
                                <media>
                                    <video>
                                        <samplecharacteristics>
                                            <height>720</height>
                                            <width>1280</width>
                                        </samplecharacteristics>
                                    </video>
                                </media>
                                <file id="file-1"/>
                                <name>/home/davidk/code/python/JC-render/JC-examples/yoga.mp4</name>
                                <rate>
                                    <timebase>24</timebase>
                                    <ntsc>TRUE</ntsc>
                                </rate>
                                <rate>
                                    <timebase>24</timebase>
                                    <ntsc>TRUE</ntsc>
                                </rate>
                                <duration>20</duration>
                                <start>10737</start>
                                <end>10757</end>
                                <in>14500</in>
                                <out>14520</out>
                            </clipitem>
                            <clipitem frameBlend="FALSE" id="clipitem-184">
                                <media>
                                    <video>
                                        <samplecharacteristics>
                                            <height>720</height>
                                            <width>1280</width>
                                        </samplecharacteristics>
                                    </video>
                                </media>
                                <file id="file-1"/>
                                <name>/home/davidk/code/python/JC-render/JC-examples/yoga.mp4</name>
                                <rate>
                                    <timebase>24</timebase>
                                    <ntsc>TRUE</ntsc>
                                </rate>
                                <rate>
                                    <timebase>24</timebase>
                                    <ntsc>TRUE</ntsc>
                                </rate>
                                <duration>73</duration>
                                <start>10757</start>
                                <end>10830</end>
                                <in>14528</in>
                                <out>14601</out>
                            </clipitem>
                            <clipitem frameBlend="FALSE" id="clipitem-185">
                                <media>
                                    <video>
                                        <samplecharacteristics>
                                            <height>720</height>
                                            <width>1280</width>
                                        </samplecharacteristics>
                                    </video>
                                </media>
                                <file id="file-1"/>
                                <name>/home/davidk/code/python/JC-render/JC-examples/yoga.mp4</name>
                                <rate>
                                    <timebase>24</timebase>
                                    <ntsc>TRUE</ntsc>
                                </rate>
                                <rate>
                                    <timebase>24</timebase>
                                    <ntsc>TRUE</ntsc>
                                </rate>
                                <duration>12</duration>
                                <start>10830</start>
                                <end>10842</end>
                                <in>14628</in>
                                <out>14640</out>
                            </clipitem>
                            <clipitem frameBlend="FALSE" id="clipitem-186">
                                <media>
                                    <video>
                                        <samplecharacteristics>
                                            <height>720</height>
                                            <width>1280</width>
                                        </samplecharacteristics>
                                    </video>
                                </media>
                                <file id="file-1"/>
                                <name>/home/davidk/code/python/JC-render/JC-examples/yoga.mp4</name>
                                <rate>
                                    <timebase>24</timebase>
                                    <ntsc>TRUE</ntsc>
                                </rate>
                                <rate>
                                    <timebase>24</timebase>
                                    <ntsc>TRUE</ntsc>
                                </rate>
                                <duration>152</duration>
                                <start>10842</start>
                                <end>10994</end>
                                <in>14647</in>
                                <out>14799</out>
                            </clipitem>
                            <clipitem frameBlend="FALSE" id="clipitem-187">
                                <media>
                                    <video>
                                        <samplecharacteristics>
                                            <height>720</height>
                                            <width>1280</width>
                                        </samplecharacteristics>
                                    </video>
                                </media>
                                <file id="file-1"/>
                                <name>/home/davidk/code/python/JC-render/JC-examples/yoga.mp4</name>
                                <rate>
                                    <timebase>24</timebase>
                                    <ntsc>TRUE</ntsc>
                                </rate>
                                <rate>
                                    <timebase>24</timebase>
                                    <ntsc>TRUE</ntsc>
                                </rate>
                                <duration>90</duration>
                                <start>10994</start>
                                <end>11084</end>
                                <in>14862</in>
                                <out>14952</out>
                            </clipitem>
                            <clipitem frameBlend="FALSE" id="clipitem-188">
                                <media>
                                    <video>
                                        <samplecharacteristics>
                                            <height>720</height>
                                            <width>1280</width>
                                        </samplecharacteristics>
                                    </video>
                                </media>
                                <file id="file-1"/>
                                <name>/home/davidk/code/python/JC-render/JC-examples/yoga.mp4</name>
                                <rate>
                                    <timebase>24</timebase>
                                    <ntsc>TRUE</ntsc>
                                </rate>
                                <rate>
                                    <timebase>24</timebase>
                                    <ntsc>TRUE</ntsc>
                                </rate>
                                <duration>34</duration>
                                <start>11084</start>
                                <end>11118</end>
                                <in>14954</in>
                                <out>14988</out>
                            </clipitem>
                            <clipitem frameBlend="FALSE" id="clipitem-189">
                                <media>
                                    <video>
                                        <samplecharacteristics>
                                            <height>720</height>
                                            <width>1280</width>
                                        </samplecharacteristics>
                                    </video>
                                </media>
                                <file id="file-1"/>
                                <name>/home/davidk/code/python/JC-render/JC-examples/yoga.mp4</name>
                                <rate>
                                    <timebase>24</timebase>
                                    <ntsc>TRUE</ntsc>
                                </rate>
                                <rate>
                                    <timebase>24</timebase>
                                    <ntsc>TRUE</ntsc>
                                </rate>
                                <duration>12</duration>
                                <start>11118</start>
                                <end>11130</end>
                                <in>14993</in>
                                <out>15005</out>
                            </clipitem>
                            <clipitem frameBlend="FALSE" id="clipitem-190">
                                <media>
                                    <video>
                                        <samplecharacteristics>
                                            <height>720</height>
                                            <width>1280</width>
                                        </samplecharacteristics>
                                    </video>
                                </media>
                                <file id="file-1"/>
                                <name>/home/davidk/code/python/JC-render/JC-examples/yoga.mp4</name>
                                <rate>
                                    <timebase>24</timebase>
                                    <ntsc>TRUE</ntsc>
                                </rate>
                                <rate>
                                    <timebase>24</timebase>
                                    <ntsc>TRUE</ntsc>
                                </rate>
                                <duration>46</duration>
                                <start>11130</start>
                                <end>11176</end>
                                <in>15045</in>
                                <out>15091</out>
                            </clipitem>
                            <clipitem frameBlend="FALSE" id="clipitem-191">
                                <media>
                                    <video>
                                        <samplecharacteristics>
                                            <height>720</height>
                                            <width>1280</width>
                                        </samplecharacteristics>
                                    </video>
                                </media>
                                <file id="file-1"/>
                                <name>/home/davidk/code/python/JC-render/JC-examples/yoga.mp4</name>
                                <rate>
                                    <timebase>24</timebase>
                                    <ntsc>TRUE</ntsc>
                                </rate>
                                <rate>
                                    <timebase>24</timebase>
                                    <ntsc>TRUE</ntsc>
                                </rate>
                                <duration>56</duration>
                                <start>11176</start>
                                <end>11232</end>
                                <in>15121</in>
                                <out>15177</out>
                            </clipitem>
                            <clipitem frameBlend="FALSE" id="clipitem-192">
                                <media>
                                    <video>
                                        <samplecharacteristics>
                                            <height>720</height>
                                            <width>1280</width>
                                        </samplecharacteristics>
                                    </video>
                                </media>
                                <file id="file-1"/>
                                <name>/home/davidk/code/python/JC-render/JC-examples/yoga.mp4</name>
                                <rate>
                                    <timebase>24</timebase>
                                    <ntsc>TRUE</ntsc>
                                </rate>
                                <rate>
                                    <timebase>24</timebase>
                                    <ntsc>TRUE</ntsc>
                                </rate>
                                <duration>13</duration>
                                <start>11232</start>
                                <end>11245</end>
                                <in>15187</in>
                                <out>15200</out>
                            </clipitem>
                            <clipitem frameBlend="FALSE" id="clipitem-193">
                                <media>
                                    <video>
                                        <samplecharacteristics>
                                            <height>720</height>
                                            <width>1280</width>
                                        </samplecharacteristics>
                                    </video>
                                </media>
                                <file id="file-1"/>
                                <name>/home/davidk/code/python/JC-render/JC-examples/yoga.mp4</name>
                                <rate>
                                    <timebase>24</timebase>
                                    <ntsc>TRUE</ntsc>
                                </rate>
                                <rate>
                                    <timebase>24</timebase>
                                    <ntsc>TRUE</ntsc>
                                </rate>
                                <duration>12</duration>
                                <start>11245</start>
                                <end>11257</end>
                                <in>15235</in>
                                <out>15247</out>
                            </clipitem>
                            <clipitem frameBlend="FALSE" id="clipitem-194">
                                <media>
                                    <video>
                                        <samplecharacteristics>
                                            <height>720</height>
                                            <width>1280</width>
                                        </samplecharacteristics>
                                    </video>
                                </media>
                                <file id="file-1"/>
                                <name>/home/davidk/code/python/JC-render/JC-examples/yoga.mp4</name>
                                <rate>
                                    <timebase>24</timebase>
                                    <ntsc>TRUE</ntsc>
                                </rate>
                                <rate>
                                    <timebase>24</timebase>
                                    <ntsc>TRUE</ntsc>
                                </rate>
                                <duration>13</duration>
                                <start>11257</start>
                                <end>11270</end>
                                <in>15251</in>
                                <out>15264</out>
                            </clipitem>
                            <clipitem frameBlend="FALSE" id="clipitem-195">
                                <media>
                                    <video>
                                        <samplecharacteristics>
                                            <height>720</height>
                                            <width>1280</width>
                                        </samplecharacteristics>
                                    </video>
                                </media>
                                <file id="file-1"/>
                                <name>/home/davidk/code/python/JC-render/JC-examples/yoga.mp4</name>
                                <rate>
                                    <timebase>24</timebase>
                                    <ntsc>TRUE</ntsc>
                                </rate>
                                <rate>
                                    <timebase>24</timebase>
                                    <ntsc>TRUE</ntsc>
                                </rate>
                                <duration>23</duration>
                                <start>11270</start>
                                <end>11293</end>
                                <in>15296</in>
                                <out>15319</out>
                            </clipitem>
                            <clipitem frameBlend="FALSE" id="clipitem-196">
                                <media>
                                    <video>
                                        <samplecharacteristics>
                                            <height>720</height>
                                            <width>1280</width>
                                        </samplecharacteristics>
                                    </video>
                                </media>
                                <file id="file-1"/>
                                <name>/home/davidk/code/python/JC-render/JC-examples/yoga.mp4</name>
                                <rate>
                                    <timebase>24</timebase>
                                    <ntsc>TRUE</ntsc>
                                </rate>
                                <rate>
                                    <timebase>24</timebase>
                                    <ntsc>TRUE</ntsc>
                                </rate>
                                <duration>54</duration>
                                <start>11293</start>
                                <end>11347</end>
                                <in>15321</in>
                                <out>15375</out>
                            </clipitem>
                            <clipitem frameBlend="FALSE" id="clipitem-197">
                                <media>
                                    <video>
                                        <samplecharacteristics>
                                            <height>720</height>
                                            <width>1280</width>
                                        </samplecharacteristics>
                                    </video>
                                </media>
                                <file id="file-1"/>
                                <name>/home/davidk/code/python/JC-render/JC-examples/yoga.mp4</name>
                                <rate>
                                    <timebase>24</timebase>
                                    <ntsc>TRUE</ntsc>
                                </rate>
                                <rate>
                                    <timebase>24</timebase>
                                    <ntsc>TRUE</ntsc>
                                </rate>
                                <duration>13</duration>
                                <start>11347</start>
                                <end>11360</end>
                                <in>15379</in>
                                <out>15392</out>
                            </clipitem>
                            <clipitem frameBlend="FALSE" id="clipitem-198">
                                <media>
                                    <video>
                                        <samplecharacteristics>
                                            <height>720</height>
                                            <width>1280</width>
                                        </samplecharacteristics>
                                    </video>
                                </media>
                                <file id="file-1"/>
                                <name>/home/davidk/code/python/JC-render/JC-examples/yoga.mp4</name>
                                <rate>
                                    <timebase>24</timebase>
                                    <ntsc>TRUE</ntsc>
                                </rate>
                                <rate>
                                    <timebase>24</timebase>
                                    <ntsc>TRUE</ntsc>
                                </rate>
                                <duration>51</duration>
                                <start>11360</start>
                                <end>11411</end>
                                <in>15430</in>
                                <out>15481</out>
                            </clipitem>
                            <clipitem frameBlend="FALSE" id="clipitem-199">
                                <media>
                                    <video>
                                        <samplecharacteristics>
                                            <height>720</height>
                                            <width>1280</width>
                                        </samplecharacteristics>
                                    </video>
                                </media>
                                <file id="file-1"/>
                                <name>/home/davidk/code/python/JC-render/JC-examples/yoga.mp4</name>
                                <rate>
                                    <timebase>24</timebase>
                                    <ntsc>TRUE</ntsc>
                                </rate>
                                <rate>
                                    <timebase>24</timebase>
                                    <ntsc>TRUE</ntsc>
                                </rate>
                                <duration>12</duration>
                                <start>11411</start>
                                <end>11423</end>
                                <in>15494</in>
                                <out>15506</out>
                            </clipitem>
                            <clipitem frameBlend="FALSE" id="clipitem-200">
                                <media>
                                    <video>
                                        <samplecharacteristics>
                                            <height>720</height>
                                            <width>1280</width>
                                        </samplecharacteristics>
                                    </video>
                                </media>
                                <file id="file-1"/>
                                <name>/home/davidk/code/python/JC-render/JC-examples/yoga.mp4</name>
                                <rate>
                                    <timebase>24</timebase>
                                    <ntsc>TRUE</ntsc>
                                </rate>
                                <rate>
                                    <timebase>24</timebase>
                                    <ntsc>TRUE</ntsc>
                                </rate>
                                <duration>13</duration>
                                <start>11423</start>
                                <end>11436</end>
                                <in>15510</in>
                                <out>15523</out>
                            </clipitem>
                            <clipitem frameBlend="FALSE" id="clipitem-201">
                                <media>
                                    <video>
                                        <samplecharacteristics>
                                            <height>720</height>
                                            <width>1280</width>
                                        </samplecharacteristics>
                                    </video>
                                </media>
                                <file id="file-1"/>
                                <name>/home/davidk/code/python/JC-render/JC-examples/yoga.mp4</name>
                                <rate>
                                    <timebase>24</timebase>
                                    <ntsc>TRUE</ntsc>
                                </rate>
                                <rate>
                                    <timebase>24</timebase>
                                    <ntsc>TRUE</ntsc>
                                </rate>
                                <duration>54</duration>
                                <start>11436</start>
                                <end>11490</end>
                                <in>15524</in>
                                <out>15578</out>
                            </clipitem>
                            <clipitem frameBlend="FALSE" id="clipitem-202">
                                <media>
                                    <video>
                                        <samplecharacteristics>
                                            <height>720</height>
                                            <width>1280</width>
                                        </samplecharacteristics>
                                    </video>
                                </media>
                                <file id="file-1"/>
                                <name>/home/davidk/code/python/JC-render/JC-examples/yoga.mp4</name>
                                <rate>
                                    <timebase>24</timebase>
                                    <ntsc>TRUE</ntsc>
                                </rate>
                                <rate>
                                    <timebase>24</timebase>
                                    <ntsc>TRUE</ntsc>
                                </rate>
                                <duration>40</duration>
                                <start>11490</start>
                                <end>11530</end>
                                <in>15630</in>
                                <out>15670</out>
                            </clipitem>
                            <clipitem frameBlend="FALSE" id="clipitem-203">
                                <media>
                                    <video>
                                        <samplecharacteristics>
                                            <height>720</height>
                                            <width>1280</width>
                                        </samplecharacteristics>
                                    </video>
                                </media>
                                <file id="file-1"/>
                                <name>/home/davidk/code/python/JC-render/JC-examples/yoga.mp4</name>
                                <rate>
                                    <timebase>24</timebase>
                                    <ntsc>TRUE</ntsc>
                                </rate>
                                <rate>
                                    <timebase>24</timebase>
                                    <ntsc>TRUE</ntsc>
                                </rate>
                                <duration>34</duration>
                                <start>11530</start>
                                <end>11564</end>
                                <in>15672</in>
                                <out>15706</out>
                            </clipitem>
                            <clipitem frameBlend="FALSE" id="clipitem-204">
                                <media>
                                    <video>
                                        <samplecharacteristics>
                                            <height>720</height>
                                            <width>1280</width>
                                        </samplecharacteristics>
                                    </video>
                                </media>
                                <file id="file-1"/>
                                <name>/home/davidk/code/python/JC-render/JC-examples/yoga.mp4</name>
                                <rate>
                                    <timebase>24</timebase>
                                    <ntsc>TRUE</ntsc>
                                </rate>
                                <rate>
                                    <timebase>24</timebase>
                                    <ntsc>TRUE</ntsc>
                                </rate>
                                <duration>79</duration>
                                <start>11564</start>
                                <end>11643</end>
                                <in>15744</in>
                                <out>15823</out>
                            </clipitem>
                            <clipitem frameBlend="FALSE" id="clipitem-205">
                                <media>
                                    <video>
                                        <samplecharacteristics>
                                            <height>720</height>
                                            <width>1280</width>
                                        </samplecharacteristics>
                                    </video>
                                </media>
                                <file id="file-1"/>
                                <name>/home/davidk/code/python/JC-render/JC-examples/yoga.mp4</name>
                                <rate>
                                    <timebase>24</timebase>
                                    <ntsc>TRUE</ntsc>
                                </rate>
                                <rate>
                                    <timebase>24</timebase>
                                    <ntsc>TRUE</ntsc>
                                </rate>
                                <duration>34</duration>
                                <start>11643</start>
                                <end>11677</end>
                                <in>15867</in>
                                <out>15901</out>
                            </clipitem>
                            <clipitem frameBlend="FALSE" id="clipitem-206">
                                <media>
                                    <video>
                                        <samplecharacteristics>
                                            <height>720</height>
                                            <width>1280</width>
                                        </samplecharacteristics>
                                    </video>
                                </media>
                                <file id="file-1"/>
                                <name>/home/davidk/code/python/JC-render/JC-examples/yoga.mp4</name>
                                <rate>
                                    <timebase>24</timebase>
                                    <ntsc>TRUE</ntsc>
                                </rate>
                                <rate>
                                    <timebase>24</timebase>
                                    <ntsc>TRUE</ntsc>
                                </rate>
                                <duration>121</duration>
                                <start>11677</start>
                                <end>11798</end>
                                <in>15908</in>
                                <out>16029</out>
                            </clipitem>
                            <clipitem frameBlend="FALSE" id="clipitem-207">
                                <media>
                                    <video>
                                        <samplecharacteristics>
                                            <height>720</height>
                                            <width>1280</width>
                                        </samplecharacteristics>
                                    </video>
                                </media>
                                <file id="file-1"/>
                                <name>/home/davidk/code/python/JC-render/JC-examples/yoga.mp4</name>
                                <rate>
                                    <timebase>24</timebase>
                                    <ntsc>TRUE</ntsc>
                                </rate>
                                <rate>
                                    <timebase>24</timebase>
                                    <ntsc>TRUE</ntsc>
                                </rate>
                                <duration>29</duration>
                                <start>11798</start>
                                <end>11827</end>
                                <in>16031</in>
                                <out>16060</out>
                            </clipitem>
                            <clipitem frameBlend="FALSE" id="clipitem-208">
                                <media>
                                    <video>
                                        <samplecharacteristics>
                                            <height>720</height>
                                            <width>1280</width>
                                        </samplecharacteristics>
                                    </video>
                                </media>
                                <file id="file-1"/>
                                <name>/home/davidk/code/python/JC-render/JC-examples/yoga.mp4</name>
                                <rate>
                                    <timebase>24</timebase>
                                    <ntsc>TRUE</ntsc>
                                </rate>
                                <rate>
                                    <timebase>24</timebase>
                                    <ntsc>TRUE</ntsc>
                                </rate>
                                <duration>85</duration>
                                <start>11827</start>
                                <end>11912</end>
                                <in>16078</in>
                                <out>16163</out>
                            </clipitem>
                            <clipitem frameBlend="FALSE" id="clipitem-209">
                                <media>
                                    <video>
                                        <samplecharacteristics>
                                            <height>720</height>
                                            <width>1280</width>
                                        </samplecharacteristics>
                                    </video>
                                </media>
                                <file id="file-1"/>
                                <name>/home/davidk/code/python/JC-render/JC-examples/yoga.mp4</name>
                                <rate>
                                    <timebase>24</timebase>
                                    <ntsc>TRUE</ntsc>
                                </rate>
                                <rate>
                                    <timebase>24</timebase>
                                    <ntsc>TRUE</ntsc>
                                </rate>
                                <duration>21</duration>
                                <start>11912</start>
                                <end>11933</end>
                                <in>16184</in>
                                <out>16205</out>
                            </clipitem>
                            <clipitem frameBlend="FALSE" id="clipitem-210">
                                <media>
                                    <video>
                                        <samplecharacteristics>
                                            <height>720</height>
                                            <width>1280</width>
                                        </samplecharacteristics>
                                    </video>
                                </media>
                                <file id="file-1"/>
                                <name>/home/davidk/code/python/JC-render/JC-examples/yoga.mp4</name>
                                <rate>
                                    <timebase>24</timebase>
                                    <ntsc>TRUE</ntsc>
                                </rate>
                                <rate>
                                    <timebase>24</timebase>
                                    <ntsc>TRUE</ntsc>
                                </rate>
                                <duration>15</duration>
                                <start>11933</start>
                                <end>11948</end>
                                <in>16240</in>
                                <out>16255</out>
                            </clipitem>
                            <clipitem frameBlend="FALSE" id="clipitem-211">
                                <media>
                                    <video>
                                        <samplecharacteristics>
                                            <height>720</height>
                                            <width>1280</width>
                                        </samplecharacteristics>
                                    </video>
                                </media>
                                <file id="file-1"/>
                                <name>/home/davidk/code/python/JC-render/JC-examples/yoga.mp4</name>
                                <rate>
                                    <timebase>24</timebase>
                                    <ntsc>TRUE</ntsc>
                                </rate>
                                <rate>
                                    <timebase>24</timebase>
                                    <ntsc>TRUE</ntsc>
                                </rate>
                                <duration>12</duration>
                                <start>11948</start>
                                <end>11960</end>
                                <in>16276</in>
                                <out>16288</out>
                            </clipitem>
                            <clipitem frameBlend="FALSE" id="clipitem-212">
                                <media>
                                    <video>
                                        <samplecharacteristics>
                                            <height>720</height>
                                            <width>1280</width>
                                        </samplecharacteristics>
                                    </video>
                                </media>
                                <file id="file-1"/>
                                <name>/home/davidk/code/python/JC-render/JC-examples/yoga.mp4</name>
                                <rate>
                                    <timebase>24</timebase>
                                    <ntsc>TRUE</ntsc>
                                </rate>
                                <rate>
                                    <timebase>24</timebase>
                                    <ntsc>TRUE</ntsc>
                                </rate>
                                <duration>16</duration>
                                <start>11960</start>
                                <end>11976</end>
                                <in>16295</in>
                                <out>16311</out>
                            </clipitem>
                            <clipitem frameBlend="FALSE" id="clipitem-213">
                                <media>
                                    <video>
                                        <samplecharacteristics>
                                            <height>720</height>
                                            <width>1280</width>
                                        </samplecharacteristics>
                                    </video>
                                </media>
                                <file id="file-1"/>
                                <name>/home/davidk/code/python/JC-render/JC-examples/yoga.mp4</name>
                                <rate>
                                    <timebase>24</timebase>
                                    <ntsc>TRUE</ntsc>
                                </rate>
                                <rate>
                                    <timebase>24</timebase>
                                    <ntsc>TRUE</ntsc>
                                </rate>
                                <duration>66</duration>
                                <start>11976</start>
                                <end>12042</end>
                                <in>16323</in>
                                <out>16389</out>
                            </clipitem>
                            <clipitem frameBlend="FALSE" id="clipitem-214">
                                <media>
                                    <video>
                                        <samplecharacteristics>
                                            <height>720</height>
                                            <width>1280</width>
                                        </samplecharacteristics>
                                    </video>
                                </media>
                                <file id="file-1"/>
                                <name>/home/davidk/code/python/JC-render/JC-examples/yoga.mp4</name>
                                <rate>
                                    <timebase>24</timebase>
                                    <ntsc>TRUE</ntsc>
                                </rate>
                                <rate>
                                    <timebase>24</timebase>
                                    <ntsc>TRUE</ntsc>
                                </rate>
                                <duration>26</duration>
                                <start>12042</start>
                                <end>12068</end>
                                <in>16390</in>
                                <out>16416</out>
                            </clipitem>
                            <clipitem frameBlend="FALSE" id="clipitem-215">
                                <media>
                                    <video>
                                        <samplecharacteristics>
                                            <height>720</height>
                                            <width>1280</width>
                                        </samplecharacteristics>
                                    </video>
                                </media>
                                <file id="file-1"/>
                                <name>/home/davidk/code/python/JC-render/JC-examples/yoga.mp4</name>
                                <rate>
                                    <timebase>24</timebase>
                                    <ntsc>TRUE</ntsc>
                                </rate>
                                <rate>
                                    <timebase>24</timebase>
                                    <ntsc>TRUE</ntsc>
                                </rate>
                                <duration>90</duration>
                                <start>12068</start>
                                <end>12158</end>
                                <in>16468</in>
                                <out>16558</out>
                            </clipitem>
                            <clipitem frameBlend="FALSE" id="clipitem-216">
                                <media>
                                    <video>
                                        <samplecharacteristics>
                                            <height>720</height>
                                            <width>1280</width>
                                        </samplecharacteristics>
                                    </video>
                                </media>
                                <file id="file-1"/>
                                <name>/home/davidk/code/python/JC-render/JC-examples/yoga.mp4</name>
                                <rate>
                                    <timebase>24</timebase>
                                    <ntsc>TRUE</ntsc>
                                </rate>
                                <rate>
                                    <timebase>24</timebase>
                                    <ntsc>TRUE</ntsc>
                                </rate>
                                <duration>51</duration>
                                <start>12158</start>
                                <end>12209</end>
                                <in>16591</in>
                                <out>16642</out>
                            </clipitem>
                            <clipitem frameBlend="FALSE" id="clipitem-217">
                                <media>
                                    <video>
                                        <samplecharacteristics>
                                            <height>720</height>
                                            <width>1280</width>
                                        </samplecharacteristics>
                                    </video>
                                </media>
                                <file id="file-1"/>
                                <name>/home/davidk/code/python/JC-render/JC-examples/yoga.mp4</name>
                                <rate>
                                    <timebase>24</timebase>
                                    <ntsc>TRUE</ntsc>
                                </rate>
                                <rate>
                                    <timebase>24</timebase>
                                    <ntsc>TRUE</ntsc>
                                </rate>
                                <duration>49</duration>
                                <start>12209</start>
                                <end>12258</end>
                                <in>16649</in>
                                <out>16698</out>
                            </clipitem>
                            <clipitem frameBlend="FALSE" id="clipitem-218">
                                <media>
                                    <video>
                                        <samplecharacteristics>
                                            <height>720</height>
                                            <width>1280</width>
                                        </samplecharacteristics>
                                    </video>
                                </media>
                                <file id="file-1"/>
                                <name>/home/davidk/code/python/JC-render/JC-examples/yoga.mp4</name>
                                <rate>
                                    <timebase>24</timebase>
                                    <ntsc>TRUE</ntsc>
                                </rate>
                                <rate>
                                    <timebase>24</timebase>
                                    <ntsc>TRUE</ntsc>
                                </rate>
                                <duration>94</duration>
                                <start>12258</start>
                                <end>12352</end>
                                <in>16707</in>
                                <out>16801</out>
                            </clipitem>
                            <clipitem frameBlend="FALSE" id="clipitem-219">
                                <media>
                                    <video>
                                        <samplecharacteristics>
                                            <height>720</height>
                                            <width>1280</width>
                                        </samplecharacteristics>
                                    </video>
                                </media>
                                <file id="file-1"/>
                                <name>/home/davidk/code/python/JC-render/JC-examples/yoga.mp4</name>
                                <rate>
                                    <timebase>24</timebase>
                                    <ntsc>TRUE</ntsc>
                                </rate>
                                <rate>
                                    <timebase>24</timebase>
                                    <ntsc>TRUE</ntsc>
                                </rate>
                                <duration>26</duration>
                                <start>12352</start>
                                <end>12378</end>
                                <in>16805</in>
                                <out>16831</out>
                            </clipitem>
                            <clipitem frameBlend="FALSE" id="clipitem-220">
                                <media>
                                    <video>
                                        <samplecharacteristics>
                                            <height>720</height>
                                            <width>1280</width>
                                        </samplecharacteristics>
                                    </video>
                                </media>
                                <file id="file-1"/>
                                <name>/home/davidk/code/python/JC-render/JC-examples/yoga.mp4</name>
                                <rate>
                                    <timebase>24</timebase>
                                    <ntsc>TRUE</ntsc>
                                </rate>
                                <rate>
                                    <timebase>24</timebase>
                                    <ntsc>TRUE</ntsc>
                                </rate>
                                <duration>18</duration>
                                <start>12378</start>
                                <end>12396</end>
                                <in>16852</in>
                                <out>16870</out>
                            </clipitem>
                            <clipitem frameBlend="FALSE" id="clipitem-221">
                                <media>
                                    <video>
                                        <samplecharacteristics>
                                            <height>720</height>
                                            <width>1280</width>
                                        </samplecharacteristics>
                                    </video>
                                </media>
                                <file id="file-1"/>
                                <name>/home/davidk/code/python/JC-render/JC-examples/yoga.mp4</name>
                                <rate>
                                    <timebase>24</timebase>
                                    <ntsc>TRUE</ntsc>
                                </rate>
                                <rate>
                                    <timebase>24</timebase>
                                    <ntsc>TRUE</ntsc>
                                </rate>
                                <duration>101</duration>
                                <start>12396</start>
                                <end>12497</end>
                                <in>16872</in>
                                <out>16973</out>
                            </clipitem>
                            <clipitem frameBlend="FALSE" id="clipitem-222">
                                <media>
                                    <video>
                                        <samplecharacteristics>
                                            <height>720</height>
                                            <width>1280</width>
                                        </samplecharacteristics>
                                    </video>
                                </media>
                                <file id="file-1"/>
                                <name>/home/davidk/code/python/JC-render/JC-examples/yoga.mp4</name>
                                <rate>
                                    <timebase>24</timebase>
                                    <ntsc>TRUE</ntsc>
                                </rate>
                                <rate>
                                    <timebase>24</timebase>
                                    <ntsc>TRUE</ntsc>
                                </rate>
                                <duration>12</duration>
                                <start>12497</start>
                                <end>12509</end>
                                <in>17042</in>
                                <out>17054</out>
                            </clipitem>
                            <clipitem frameBlend="FALSE" id="clipitem-223">
                                <media>
                                    <video>
                                        <samplecharacteristics>
                                            <height>720</height>
                                            <width>1280</width>
                                        </samplecharacteristics>
                                    </video>
                                </media>
                                <file id="file-1"/>
                                <name>/home/davidk/code/python/JC-render/JC-examples/yoga.mp4</name>
                                <rate>
                                    <timebase>24</timebase>
                                    <ntsc>TRUE</ntsc>
                                </rate>
                                <rate>
                                    <timebase>24</timebase>
                                    <ntsc>TRUE</ntsc>
                                </rate>
                                <duration>43</duration>
                                <start>12509</start>
                                <end>12552</end>
                                <in>17061</in>
                                <out>17104</out>
                            </clipitem>
                            <clipitem frameBlend="FALSE" id="clipitem-224">
                                <media>
                                    <video>
                                        <samplecharacteristics>
                                            <height>720</height>
                                            <width>1280</width>
                                        </samplecharacteristics>
                                    </video>
                                </media>
                                <file id="file-1"/>
                                <name>/home/davidk/code/python/JC-render/JC-examples/yoga.mp4</name>
                                <rate>
                                    <timebase>24</timebase>
                                    <ntsc>TRUE</ntsc>
                                </rate>
                                <rate>
                                    <timebase>24</timebase>
                                    <ntsc>TRUE</ntsc>
                                </rate>
                                <duration>107</duration>
                                <start>12552</start>
                                <end>12659</end>
                                <in>17120</in>
                                <out>17227</out>
                            </clipitem>
                            <clipitem frameBlend="FALSE" id="clipitem-225">
                                <media>
                                    <video>
                                        <samplecharacteristics>
                                            <height>720</height>
                                            <width>1280</width>
                                        </samplecharacteristics>
                                    </video>
                                </media>
                                <file id="file-1"/>
                                <name>/home/davidk/code/python/JC-render/JC-examples/yoga.mp4</name>
                                <rate>
                                    <timebase>24</timebase>
                                    <ntsc>TRUE</ntsc>
                                </rate>
                                <rate>
                                    <timebase>24</timebase>
                                    <ntsc>TRUE</ntsc>
                                </rate>
                                <duration>65</duration>
                                <start>12659</start>
                                <end>12724</end>
                                <in>17228</in>
                                <out>17293</out>
                            </clipitem>
                            <clipitem frameBlend="FALSE" id="clipitem-226">
                                <media>
                                    <video>
                                        <samplecharacteristics>
                                            <height>720</height>
                                            <width>1280</width>
                                        </samplecharacteristics>
                                    </video>
                                </media>
                                <file id="file-1"/>
                                <name>/home/davidk/code/python/JC-render/JC-examples/yoga.mp4</name>
                                <rate>
                                    <timebase>24</timebase>
                                    <ntsc>TRUE</ntsc>
                                </rate>
                                <rate>
                                    <timebase>24</timebase>
                                    <ntsc>TRUE</ntsc>
                                </rate>
                                <duration>32</duration>
                                <start>12724</start>
                                <end>12756</end>
                                <in>17320</in>
                                <out>17352</out>
                            </clipitem>
                            <clipitem frameBlend="FALSE" id="clipitem-227">
                                <media>
                                    <video>
                                        <samplecharacteristics>
                                            <height>720</height>
                                            <width>1280</width>
                                        </samplecharacteristics>
                                    </video>
                                </media>
                                <file id="file-1"/>
                                <name>/home/davidk/code/python/JC-render/JC-examples/yoga.mp4</name>
                                <rate>
                                    <timebase>24</timebase>
                                    <ntsc>TRUE</ntsc>
                                </rate>
                                <rate>
                                    <timebase>24</timebase>
                                    <ntsc>TRUE</ntsc>
                                </rate>
                                <duration>18</duration>
                                <start>12756</start>
                                <end>12774</end>
                                <in>17356</in>
                                <out>17374</out>
                            </clipitem>
                            <clipitem frameBlend="FALSE" id="clipitem-228">
                                <media>
                                    <video>
                                        <samplecharacteristics>
                                            <height>720</height>
                                            <width>1280</width>
                                        </samplecharacteristics>
                                    </video>
                                </media>
                                <file id="file-1"/>
                                <name>/home/davidk/code/python/JC-render/JC-examples/yoga.mp4</name>
                                <rate>
                                    <timebase>24</timebase>
                                    <ntsc>TRUE</ntsc>
                                </rate>
                                <rate>
                                    <timebase>24</timebase>
                                    <ntsc>TRUE</ntsc>
                                </rate>
                                <duration>24</duration>
                                <start>12774</start>
                                <end>12798</end>
                                <in>17381</in>
                                <out>17405</out>
                            </clipitem>
                            <clipitem frameBlend="FALSE" id="clipitem-229">
                                <media>
                                    <video>
                                        <samplecharacteristics>
                                            <height>720</height>
                                            <width>1280</width>
                                        </samplecharacteristics>
                                    </video>
                                </media>
                                <file id="file-1"/>
                                <name>/home/davidk/code/python/JC-render/JC-examples/yoga.mp4</name>
                                <rate>
                                    <timebase>24</timebase>
                                    <ntsc>TRUE</ntsc>
                                </rate>
                                <rate>
                                    <timebase>24</timebase>
                                    <ntsc>TRUE</ntsc>
                                </rate>
                                <duration>12</duration>
                                <start>12798</start>
                                <end>12810</end>
                                <in>17423</in>
                                <out>17435</out>
                            </clipitem>
                            <clipitem frameBlend="FALSE" id="clipitem-230">
                                <media>
                                    <video>
                                        <samplecharacteristics>
                                            <height>720</height>
                                            <width>1280</width>
                                        </samplecharacteristics>
                                    </video>
                                </media>
                                <file id="file-1"/>
                                <name>/home/davidk/code/python/JC-render/JC-examples/yoga.mp4</name>
                                <rate>
                                    <timebase>24</timebase>
                                    <ntsc>TRUE</ntsc>
                                </rate>
                                <rate>
                                    <timebase>24</timebase>
                                    <ntsc>TRUE</ntsc>
                                </rate>
                                <duration>13</duration>
                                <start>12810</start>
                                <end>12823</end>
                                <in>17545</in>
                                <out>17558</out>
                            </clipitem>
                            <clipitem frameBlend="FALSE" id="clipitem-231">
                                <media>
                                    <video>
                                        <samplecharacteristics>
                                            <height>720</height>
                                            <width>1280</width>
                                        </samplecharacteristics>
                                    </video>
                                </media>
                                <file id="file-1"/>
                                <name>/home/davidk/code/python/JC-render/JC-examples/yoga.mp4</name>
                                <rate>
                                    <timebase>24</timebase>
                                    <ntsc>TRUE</ntsc>
                                </rate>
                                <rate>
                                    <timebase>24</timebase>
                                    <ntsc>TRUE</ntsc>
                                </rate>
                                <duration>24</duration>
                                <start>12823</start>
                                <end>12847</end>
                                <in>17612</in>
                                <out>17636</out>
                            </clipitem>
                            <clipitem frameBlend="FALSE" id="clipitem-232">
                                <media>
                                    <video>
                                        <samplecharacteristics>
                                            <height>720</height>
                                            <width>1280</width>
                                        </samplecharacteristics>
                                    </video>
                                </media>
                                <file id="file-1"/>
                                <name>/home/davidk/code/python/JC-render/JC-examples/yoga.mp4</name>
                                <rate>
                                    <timebase>24</timebase>
                                    <ntsc>TRUE</ntsc>
                                </rate>
                                <rate>
                                    <timebase>24</timebase>
                                    <ntsc>TRUE</ntsc>
                                </rate>
                                <duration>12</duration>
                                <start>12847</start>
                                <end>12859</end>
                                <in>17699</in>
                                <out>17711</out>
                            </clipitem>
                            <clipitem frameBlend="FALSE" id="clipitem-233">
                                <media>
                                    <video>
                                        <samplecharacteristics>
                                            <height>720</height>
                                            <width>1280</width>
                                        </samplecharacteristics>
                                    </video>
                                </media>
                                <file id="file-1"/>
                                <name>/home/davidk/code/python/JC-render/JC-examples/yoga.mp4</name>
                                <rate>
                                    <timebase>24</timebase>
                                    <ntsc>TRUE</ntsc>
                                </rate>
                                <rate>
                                    <timebase>24</timebase>
                                    <ntsc>TRUE</ntsc>
                                </rate>
                                <duration>13</duration>
                                <start>12859</start>
                                <end>12872</end>
                                <in>17804</in>
                                <out>17817</out>
                            </clipitem>
                            <clipitem frameBlend="FALSE" id="clipitem-234">
                                <media>
                                    <video>
                                        <samplecharacteristics>
                                            <height>720</height>
                                            <width>1280</width>
                                        </samplecharacteristics>
                                    </video>
                                </media>
                                <file id="file-1"/>
                                <name>/home/davidk/code/python/JC-render/JC-examples/yoga.mp4</name>
                                <rate>
                                    <timebase>24</timebase>
                                    <ntsc>TRUE</ntsc>
                                </rate>
                                <rate>
                                    <timebase>24</timebase>
                                    <ntsc>TRUE</ntsc>
                                </rate>
                                <duration>12</duration>
                                <start>12872</start>
                                <end>12884</end>
                                <in>17824</in>
                                <out>17836</out>
                            </clipitem>
                            <clipitem frameBlend="FALSE" id="clipitem-235">
                                <media>
                                    <video>
                                        <samplecharacteristics>
                                            <height>720</height>
                                            <width>1280</width>
                                        </samplecharacteristics>
                                    </video>
                                </media>
                                <file id="file-1"/>
                                <name>/home/davidk/code/python/JC-render/JC-examples/yoga.mp4</name>
                                <rate>
                                    <timebase>24</timebase>
                                    <ntsc>TRUE</ntsc>
                                </rate>
                                <rate>
                                    <timebase>24</timebase>
                                    <ntsc>TRUE</ntsc>
                                </rate>
                                <duration>73</duration>
                                <start>12884</start>
                                <end>12957</end>
                                <in>17877</in>
                                <out>17950</out>
                            </clipitem>
                            <clipitem frameBlend="FALSE" id="clipitem-236">
                                <media>
                                    <video>
                                        <samplecharacteristics>
                                            <height>720</height>
                                            <width>1280</width>
                                        </samplecharacteristics>
                                    </video>
                                </media>
                                <file id="file-1"/>
                                <name>/home/davidk/code/python/JC-render/JC-examples/yoga.mp4</name>
                                <rate>
                                    <timebase>24</timebase>
                                    <ntsc>TRUE</ntsc>
                                </rate>
                                <rate>
                                    <timebase>24</timebase>
                                    <ntsc>TRUE</ntsc>
                                </rate>
                                <duration>26</duration>
                                <start>12957</start>
                                <end>12983</end>
                                <in>17969</in>
                                <out>17995</out>
                            </clipitem>
                            <clipitem frameBlend="FALSE" id="clipitem-237">
                                <media>
                                    <video>
                                        <samplecharacteristics>
                                            <height>720</height>
                                            <width>1280</width>
                                        </samplecharacteristics>
                                    </video>
                                </media>
                                <file id="file-1"/>
                                <name>/home/davidk/code/python/JC-render/JC-examples/yoga.mp4</name>
                                <rate>
                                    <timebase>24</timebase>
                                    <ntsc>TRUE</ntsc>
                                </rate>
                                <rate>
                                    <timebase>24</timebase>
                                    <ntsc>TRUE</ntsc>
                                </rate>
                                <duration>40</duration>
                                <start>12983</start>
                                <end>13023</end>
                                <in>18008</in>
                                <out>18048</out>
                            </clipitem>
                            <clipitem frameBlend="FALSE" id="clipitem-238">
                                <media>
                                    <video>
                                        <samplecharacteristics>
                                            <height>720</height>
                                            <width>1280</width>
                                        </samplecharacteristics>
                                    </video>
                                </media>
                                <file id="file-1"/>
                                <name>/home/davidk/code/python/JC-render/JC-examples/yoga.mp4</name>
                                <rate>
                                    <timebase>24</timebase>
                                    <ntsc>TRUE</ntsc>
                                </rate>
                                <rate>
                                    <timebase>24</timebase>
                                    <ntsc>TRUE</ntsc>
                                </rate>
                                <duration>46</duration>
                                <start>13023</start>
                                <end>13069</end>
                                <in>18074</in>
                                <out>18120</out>
                            </clipitem>
                            <clipitem frameBlend="FALSE" id="clipitem-239">
                                <media>
                                    <video>
                                        <samplecharacteristics>
                                            <height>720</height>
                                            <width>1280</width>
                                        </samplecharacteristics>
                                    </video>
                                </media>
                                <file id="file-1"/>
                                <name>/home/davidk/code/python/JC-render/JC-examples/yoga.mp4</name>
                                <rate>
                                    <timebase>24</timebase>
                                    <ntsc>TRUE</ntsc>
                                </rate>
                                <rate>
                                    <timebase>24</timebase>
                                    <ntsc>TRUE</ntsc>
                                </rate>
                                <duration>102</duration>
                                <start>13069</start>
                                <end>13171</end>
                                <in>18194</in>
                                <out>18296</out>
                            </clipitem>
                            <clipitem frameBlend="FALSE" id="clipitem-240">
                                <media>
                                    <video>
                                        <samplecharacteristics>
                                            <height>720</height>
                                            <width>1280</width>
                                        </samplecharacteristics>
                                    </video>
                                </media>
                                <file id="file-1"/>
                                <name>/home/davidk/code/python/JC-render/JC-examples/yoga.mp4</name>
                                <rate>
                                    <timebase>24</timebase>
                                    <ntsc>TRUE</ntsc>
                                </rate>
                                <rate>
                                    <timebase>24</timebase>
                                    <ntsc>TRUE</ntsc>
                                </rate>
                                <duration>43</duration>
                                <start>13171</start>
                                <end>13214</end>
                                <in>18297</in>
                                <out>18340</out>
                            </clipitem>
                            <clipitem frameBlend="FALSE" id="clipitem-241">
                                <media>
                                    <video>
                                        <samplecharacteristics>
                                            <height>720</height>
                                            <width>1280</width>
                                        </samplecharacteristics>
                                    </video>
                                </media>
                                <file id="file-1"/>
                                <name>/home/davidk/code/python/JC-render/JC-examples/yoga.mp4</name>
                                <rate>
                                    <timebase>24</timebase>
                                    <ntsc>TRUE</ntsc>
                                </rate>
                                <rate>
                                    <timebase>24</timebase>
                                    <ntsc>TRUE</ntsc>
                                </rate>
                                <duration>34</duration>
                                <start>13214</start>
                                <end>13248</end>
                                <in>18356</in>
                                <out>18390</out>
                            </clipitem>
                            <clipitem frameBlend="FALSE" id="clipitem-242">
                                <media>
                                    <video>
                                        <samplecharacteristics>
                                            <height>720</height>
                                            <width>1280</width>
                                        </samplecharacteristics>
                                    </video>
                                </media>
                                <file id="file-1"/>
                                <name>/home/davidk/code/python/JC-render/JC-examples/yoga.mp4</name>
                                <rate>
                                    <timebase>24</timebase>
                                    <ntsc>TRUE</ntsc>
                                </rate>
                                <rate>
                                    <timebase>24</timebase>
                                    <ntsc>TRUE</ntsc>
                                </rate>
                                <duration>51</duration>
                                <start>13248</start>
                                <end>13299</end>
                                <in>18403</in>
                                <out>18454</out>
                            </clipitem>
                            <clipitem frameBlend="FALSE" id="clipitem-243">
                                <media>
                                    <video>
                                        <samplecharacteristics>
                                            <height>720</height>
                                            <width>1280</width>
                                        </samplecharacteristics>
                                    </video>
                                </media>
                                <file id="file-1"/>
                                <name>/home/davidk/code/python/JC-render/JC-examples/yoga.mp4</name>
                                <rate>
                                    <timebase>24</timebase>
                                    <ntsc>TRUE</ntsc>
                                </rate>
                                <rate>
                                    <timebase>24</timebase>
                                    <ntsc>TRUE</ntsc>
                                </rate>
                                <duration>54</duration>
                                <start>13299</start>
                                <end>13353</end>
                                <in>18459</in>
                                <out>18513</out>
                            </clipitem>
                            <clipitem frameBlend="FALSE" id="clipitem-244">
                                <media>
                                    <video>
                                        <samplecharacteristics>
                                            <height>720</height>
                                            <width>1280</width>
                                        </samplecharacteristics>
                                    </video>
                                </media>
                                <file id="file-1"/>
                                <name>/home/davidk/code/python/JC-render/JC-examples/yoga.mp4</name>
                                <rate>
                                    <timebase>24</timebase>
                                    <ntsc>TRUE</ntsc>
                                </rate>
                                <rate>
                                    <timebase>24</timebase>
                                    <ntsc>TRUE</ntsc>
                                </rate>
                                <duration>43</duration>
                                <start>13353</start>
                                <end>13396</end>
                                <in>18520</in>
                                <out>18563</out>
                            </clipitem>
                            <clipitem frameBlend="FALSE" id="clipitem-245">
                                <media>
                                    <video>
                                        <samplecharacteristics>
                                            <height>720</height>
                                            <width>1280</width>
                                        </samplecharacteristics>
                                    </video>
                                </media>
                                <file id="file-1"/>
                                <name>/home/davidk/code/python/JC-render/JC-examples/yoga.mp4</name>
                                <rate>
                                    <timebase>24</timebase>
                                    <ntsc>TRUE</ntsc>
                                </rate>
                                <rate>
                                    <timebase>24</timebase>
                                    <ntsc>TRUE</ntsc>
                                </rate>
                                <duration>57</duration>
                                <start>13396</start>
                                <end>13453</end>
                                <in>18567</in>
                                <out>18624</out>
                            </clipitem>
                            <clipitem frameBlend="FALSE" id="clipitem-246">
                                <media>
                                    <video>
                                        <samplecharacteristics>
                                            <height>720</height>
                                            <width>1280</width>
                                        </samplecharacteristics>
                                    </video>
                                </media>
                                <file id="file-1"/>
                                <name>/home/davidk/code/python/JC-render/JC-examples/yoga.mp4</name>
                                <rate>
                                    <timebase>24</timebase>
                                    <ntsc>TRUE</ntsc>
                                </rate>
                                <rate>
                                    <timebase>24</timebase>
                                    <ntsc>TRUE</ntsc>
                                </rate>
                                <duration>46</duration>
                                <start>13453</start>
                                <end>13499</end>
                                <in>18662</in>
                                <out>18708</out>
                            </clipitem>
                            <clipitem frameBlend="FALSE" id="clipitem-247">
                                <media>
                                    <video>
                                        <samplecharacteristics>
                                            <height>720</height>
                                            <width>1280</width>
                                        </samplecharacteristics>
                                    </video>
                                </media>
                                <file id="file-1"/>
                                <name>/home/davidk/code/python/JC-render/JC-examples/yoga.mp4</name>
                                <rate>
                                    <timebase>24</timebase>
                                    <ntsc>TRUE</ntsc>
                                </rate>
                                <rate>
                                    <timebase>24</timebase>
                                    <ntsc>TRUE</ntsc>
                                </rate>
                                <duration>37</duration>
                                <start>13499</start>
                                <end>13536</end>
                                <in>18712</in>
                                <out>18749</out>
                            </clipitem>
                            <clipitem frameBlend="FALSE" id="clipitem-248">
                                <media>
                                    <video>
                                        <samplecharacteristics>
                                            <height>720</height>
                                            <width>1280</width>
                                        </samplecharacteristics>
                                    </video>
                                </media>
                                <file id="file-1"/>
                                <name>/home/davidk/code/python/JC-render/JC-examples/yoga.mp4</name>
                                <rate>
                                    <timebase>24</timebase>
                                    <ntsc>TRUE</ntsc>
                                </rate>
                                <rate>
                                    <timebase>24</timebase>
                                    <ntsc>TRUE</ntsc>
                                </rate>
                                <duration>26</duration>
                                <start>13536</start>
                                <end>13562</end>
                                <in>18787</in>
                                <out>18813</out>
                            </clipitem>
                            <clipitem frameBlend="FALSE" id="clipitem-249">
                                <media>
                                    <video>
                                        <samplecharacteristics>
                                            <height>720</height>
                                            <width>1280</width>
                                        </samplecharacteristics>
                                    </video>
                                </media>
                                <file id="file-1"/>
                                <name>/home/davidk/code/python/JC-render/JC-examples/yoga.mp4</name>
                                <rate>
                                    <timebase>24</timebase>
                                    <ntsc>TRUE</ntsc>
                                </rate>
                                <rate>
                                    <timebase>24</timebase>
                                    <ntsc>TRUE</ntsc>
                                </rate>
                                <duration>40</duration>
                                <start>13562</start>
                                <end>13602</end>
                                <in>18815</in>
                                <out>18855</out>
                            </clipitem>
                            <clipitem frameBlend="FALSE" id="clipitem-250">
                                <media>
                                    <video>
                                        <samplecharacteristics>
                                            <height>720</height>
                                            <width>1280</width>
                                        </samplecharacteristics>
                                    </video>
                                </media>
                                <file id="file-1"/>
                                <name>/home/davidk/code/python/JC-render/JC-examples/yoga.mp4</name>
                                <rate>
                                    <timebase>24</timebase>
                                    <ntsc>TRUE</ntsc>
                                </rate>
                                <rate>
                                    <timebase>24</timebase>
                                    <ntsc>TRUE</ntsc>
                                </rate>
                                <duration>21</duration>
                                <start>13602</start>
                                <end>13623</end>
                                <in>18876</in>
                                <out>18897</out>
                            </clipitem>
                            <clipitem frameBlend="FALSE" id="clipitem-251">
                                <media>
                                    <video>
                                        <samplecharacteristics>
                                            <height>720</height>
                                            <width>1280</width>
                                        </samplecharacteristics>
                                    </video>
                                </media>
                                <file id="file-1"/>
                                <name>/home/davidk/code/python/JC-render/JC-examples/yoga.mp4</name>
                                <rate>
                                    <timebase>24</timebase>
                                    <ntsc>TRUE</ntsc>
                                </rate>
                                <rate>
                                    <timebase>24</timebase>
                                    <ntsc>TRUE</ntsc>
                                </rate>
                                <duration>17</duration>
                                <start>13623</start>
                                <end>13640</end>
                                <in>18938</in>
                                <out>18955</out>
                            </clipitem>
                            <clipitem frameBlend="FALSE" id="clipitem-252">
                                <media>
                                    <video>
                                        <samplecharacteristics>
                                            <height>720</height>
                                            <width>1280</width>
                                        </samplecharacteristics>
                                    </video>
                                </media>
                                <file id="file-1"/>
                                <name>/home/davidk/code/python/JC-render/JC-examples/yoga.mp4</name>
                                <rate>
                                    <timebase>24</timebase>
                                    <ntsc>TRUE</ntsc>
                                </rate>
                                <rate>
                                    <timebase>24</timebase>
                                    <ntsc>TRUE</ntsc>
                                </rate>
                                <duration>16</duration>
                                <start>13640</start>
                                <end>13656</end>
                                <in>19004</in>
                                <out>19020</out>
                            </clipitem>
                            <clipitem frameBlend="FALSE" id="clipitem-253">
                                <media>
                                    <video>
                                        <samplecharacteristics>
                                            <height>720</height>
                                            <width>1280</width>
                                        </samplecharacteristics>
                                    </video>
                                </media>
                                <file id="file-1"/>
                                <name>/home/davidk/code/python/JC-render/JC-examples/yoga.mp4</name>
                                <rate>
                                    <timebase>24</timebase>
                                    <ntsc>TRUE</ntsc>
                                </rate>
                                <rate>
                                    <timebase>24</timebase>
                                    <ntsc>TRUE</ntsc>
                                </rate>
                                <duration>54</duration>
                                <start>13656</start>
                                <end>13710</end>
                                <in>19021</in>
                                <out>19075</out>
                            </clipitem>
                            <clipitem frameBlend="FALSE" id="clipitem-254">
                                <media>
                                    <video>
                                        <samplecharacteristics>
                                            <height>720</height>
                                            <width>1280</width>
                                        </samplecharacteristics>
                                    </video>
                                </media>
                                <file id="file-1"/>
                                <name>/home/davidk/code/python/JC-render/JC-examples/yoga.mp4</name>
                                <rate>
                                    <timebase>24</timebase>
                                    <ntsc>TRUE</ntsc>
                                </rate>
                                <rate>
                                    <timebase>24</timebase>
                                    <ntsc>TRUE</ntsc>
                                </rate>
                                <duration>37</duration>
                                <start>13710</start>
                                <end>13747</end>
                                <in>19080</in>
                                <out>19117</out>
                            </clipitem>
                            <clipitem frameBlend="FALSE" id="clipitem-255">
                                <media>
                                    <video>
                                        <samplecharacteristics>
                                            <height>720</height>
                                            <width>1280</width>
                                        </samplecharacteristics>
                                    </video>
                                </media>
                                <file id="file-1"/>
                                <name>/home/davidk/code/python/JC-render/JC-examples/yoga.mp4</name>
                                <rate>
                                    <timebase>24</timebase>
                                    <ntsc>TRUE</ntsc>
                                </rate>
                                <rate>
                                    <timebase>24</timebase>
                                    <ntsc>TRUE</ntsc>
                                </rate>
                                <duration>45</duration>
                                <start>13747</start>
                                <end>13792</end>
                                <in>19130</in>
                                <out>19175</out>
                            </clipitem>
                            <clipitem frameBlend="FALSE" id="clipitem-256">
                                <media>
                                    <video>
                                        <samplecharacteristics>
                                            <height>720</height>
                                            <width>1280</width>
                                        </samplecharacteristics>
                                    </video>
                                </media>
                                <file id="file-1"/>
                                <name>/home/davidk/code/python/JC-render/JC-examples/yoga.mp4</name>
                                <rate>
                                    <timebase>24</timebase>
                                    <ntsc>TRUE</ntsc>
                                </rate>
                                <rate>
                                    <timebase>24</timebase>
                                    <ntsc>TRUE</ntsc>
                                </rate>
                                <duration>38</duration>
                                <start>13792</start>
                                <end>13830</end>
                                <in>19185</in>
                                <out>19223</out>
                            </clipitem>
                            <clipitem frameBlend="FALSE" id="clipitem-257">
                                <media>
                                    <video>
                                        <samplecharacteristics>
                                            <height>720</height>
                                            <width>1280</width>
                                        </samplecharacteristics>
                                    </video>
                                </media>
                                <file id="file-1"/>
                                <name>/home/davidk/code/python/JC-render/JC-examples/yoga.mp4</name>
                                <rate>
                                    <timebase>24</timebase>
                                    <ntsc>TRUE</ntsc>
                                </rate>
                                <rate>
                                    <timebase>24</timebase>
                                    <ntsc>TRUE</ntsc>
                                </rate>
                                <duration>21</duration>
                                <start>13830</start>
                                <end>13851</end>
                                <in>19227</in>
                                <out>19248</out>
                            </clipitem>
                            <clipitem frameBlend="FALSE" id="clipitem-258">
                                <media>
                                    <video>
                                        <samplecharacteristics>
                                            <height>720</height>
                                            <width>1280</width>
                                        </samplecharacteristics>
                                    </video>
                                </media>
                                <file id="file-1"/>
                                <name>/home/davidk/code/python/JC-render/JC-examples/yoga.mp4</name>
                                <rate>
                                    <timebase>24</timebase>
                                    <ntsc>TRUE</ntsc>
                                </rate>
                                <rate>
                                    <timebase>24</timebase>
                                    <ntsc>TRUE</ntsc>
                                </rate>
                                <duration>27</duration>
                                <start>13851</start>
                                <end>13878</end>
                                <in>19299</in>
                                <out>19326</out>
                            </clipitem>
                            <clipitem frameBlend="FALSE" id="clipitem-259">
                                <media>
                                    <video>
                                        <samplecharacteristics>
                                            <height>720</height>
                                            <width>1280</width>
                                        </samplecharacteristics>
                                    </video>
                                </media>
                                <file id="file-1"/>
                                <name>/home/davidk/code/python/JC-render/JC-examples/yoga.mp4</name>
                                <rate>
                                    <timebase>24</timebase>
                                    <ntsc>TRUE</ntsc>
                                </rate>
                                <rate>
                                    <timebase>24</timebase>
                                    <ntsc>TRUE</ntsc>
                                </rate>
                                <duration>26</duration>
                                <start>13878</start>
                                <end>13904</end>
                                <in>19330</in>
                                <out>19356</out>
                            </clipitem>
                            <clipitem frameBlend="FALSE" id="clipitem-260">
                                <media>
                                    <video>
                                        <samplecharacteristics>
                                            <height>720</height>
                                            <width>1280</width>
                                        </samplecharacteristics>
                                    </video>
                                </media>
                                <file id="file-1"/>
                                <name>/home/davidk/code/python/JC-render/JC-examples/yoga.mp4</name>
                                <rate>
                                    <timebase>24</timebase>
                                    <ntsc>TRUE</ntsc>
                                </rate>
                                <rate>
                                    <timebase>24</timebase>
                                    <ntsc>TRUE</ntsc>
                                </rate>
                                <duration>24</duration>
                                <start>13904</start>
                                <end>13928</end>
                                <in>19377</in>
                                <out>19401</out>
                            </clipitem>
                            <clipitem frameBlend="FALSE" id="clipitem-261">
                                <media>
                                    <video>
                                        <samplecharacteristics>
                                            <height>720</height>
                                            <width>1280</width>
                                        </samplecharacteristics>
                                    </video>
                                </media>
                                <file id="file-1"/>
                                <name>/home/davidk/code/python/JC-render/JC-examples/yoga.mp4</name>
                                <rate>
                                    <timebase>24</timebase>
                                    <ntsc>TRUE</ntsc>
                                </rate>
                                <rate>
                                    <timebase>24</timebase>
                                    <ntsc>TRUE</ntsc>
                                </rate>
                                <duration>26</duration>
                                <start>13928</start>
                                <end>13954</end>
                                <in>19425</in>
                                <out>19451</out>
                            </clipitem>
                            <clipitem frameBlend="FALSE" id="clipitem-262">
                                <media>
                                    <video>
                                        <samplecharacteristics>
                                            <height>720</height>
                                            <width>1280</width>
                                        </samplecharacteristics>
                                    </video>
                                </media>
                                <file id="file-1"/>
                                <name>/home/davidk/code/python/JC-render/JC-examples/yoga.mp4</name>
                                <rate>
                                    <timebase>24</timebase>
                                    <ntsc>TRUE</ntsc>
                                </rate>
                                <rate>
                                    <timebase>24</timebase>
                                    <ntsc>TRUE</ntsc>
                                </rate>
                                <duration>35</duration>
                                <start>13954</start>
                                <end>13989</end>
                                <in>19494</in>
                                <out>19529</out>
                            </clipitem>
                            <clipitem frameBlend="FALSE" id="clipitem-263">
                                <media>
                                    <video>
                                        <samplecharacteristics>
                                            <height>720</height>
                                            <width>1280</width>
                                        </samplecharacteristics>
                                    </video>
                                </media>
                                <file id="file-1"/>
                                <name>/home/davidk/code/python/JC-render/JC-examples/yoga.mp4</name>
                                <rate>
                                    <timebase>24</timebase>
                                    <ntsc>TRUE</ntsc>
                                </rate>
                                <rate>
                                    <timebase>24</timebase>
                                    <ntsc>TRUE</ntsc>
                                </rate>
                                <duration>15</duration>
                                <start>13989</start>
                                <end>14004</end>
                                <in>19531</in>
                                <out>19546</out>
                            </clipitem>
                            <clipitem frameBlend="FALSE" id="clipitem-264">
                                <media>
                                    <video>
                                        <samplecharacteristics>
                                            <height>720</height>
                                            <width>1280</width>
                                        </samplecharacteristics>
                                    </video>
                                </media>
                                <file id="file-1"/>
                                <name>/home/davidk/code/python/JC-render/JC-examples/yoga.mp4</name>
                                <rate>
                                    <timebase>24</timebase>
                                    <ntsc>TRUE</ntsc>
                                </rate>
                                <rate>
                                    <timebase>24</timebase>
                                    <ntsc>TRUE</ntsc>
                                </rate>
                                <duration>57</duration>
                                <start>14004</start>
                                <end>14061</end>
                                <in>19603</in>
                                <out>19660</out>
                            </clipitem>
                            <clipitem frameBlend="FALSE" id="clipitem-265">
                                <media>
                                    <video>
                                        <samplecharacteristics>
                                            <height>720</height>
                                            <width>1280</width>
                                        </samplecharacteristics>
                                    </video>
                                </media>
                                <file id="file-1"/>
                                <name>/home/davidk/code/python/JC-render/JC-examples/yoga.mp4</name>
                                <rate>
                                    <timebase>24</timebase>
                                    <ntsc>TRUE</ntsc>
                                </rate>
                                <rate>
                                    <timebase>24</timebase>
                                    <ntsc>TRUE</ntsc>
                                </rate>
                                <duration>43</duration>
                                <start>14061</start>
                                <end>14104</end>
                                <in>19664</in>
                                <out>19707</out>
                            </clipitem>
                            <clipitem frameBlend="FALSE" id="clipitem-266">
                                <media>
                                    <video>
                                        <samplecharacteristics>
                                            <height>720</height>
                                            <width>1280</width>
                                        </samplecharacteristics>
                                    </video>
                                </media>
                                <file id="file-1"/>
                                <name>/home/davidk/code/python/JC-render/JC-examples/yoga.mp4</name>
                                <rate>
                                    <timebase>24</timebase>
                                    <ntsc>TRUE</ntsc>
                                </rate>
                                <rate>
                                    <timebase>24</timebase>
                                    <ntsc>TRUE</ntsc>
                                </rate>
                                <duration>51</duration>
                                <start>14104</start>
                                <end>14155</end>
                                <in>19798</in>
                                <out>19849</out>
                            </clipitem>
                            <clipitem frameBlend="FALSE" id="clipitem-267">
                                <media>
                                    <video>
                                        <samplecharacteristics>
                                            <height>720</height>
                                            <width>1280</width>
                                        </samplecharacteristics>
                                    </video>
                                </media>
                                <file id="file-1"/>
                                <name>/home/davidk/code/python/JC-render/JC-examples/yoga.mp4</name>
                                <rate>
                                    <timebase>24</timebase>
                                    <ntsc>TRUE</ntsc>
                                </rate>
                                <rate>
                                    <timebase>24</timebase>
                                    <ntsc>TRUE</ntsc>
                                </rate>
                                <duration>23</duration>
                                <start>14155</start>
                                <end>14178</end>
                                <in>19862</in>
                                <out>19885</out>
                            </clipitem>
                            <clipitem frameBlend="FALSE" id="clipitem-268">
                                <media>
                                    <video>
                                        <samplecharacteristics>
                                            <height>720</height>
                                            <width>1280</width>
                                        </samplecharacteristics>
                                    </video>
                                </media>
                                <file id="file-1"/>
                                <name>/home/davidk/code/python/JC-render/JC-examples/yoga.mp4</name>
                                <rate>
                                    <timebase>24</timebase>
                                    <ntsc>TRUE</ntsc>
                                </rate>
                                <rate>
                                    <timebase>24</timebase>
                                    <ntsc>TRUE</ntsc>
                                </rate>
                                <duration>32</duration>
                                <start>14178</start>
                                <end>14210</end>
                                <in>19898</in>
                                <out>19930</out>
                            </clipitem>
                            <clipitem frameBlend="FALSE" id="clipitem-269">
                                <media>
                                    <video>
                                        <samplecharacteristics>
                                            <height>720</height>
                                            <width>1280</width>
                                        </samplecharacteristics>
                                    </video>
                                </media>
                                <file id="file-1"/>
                                <name>/home/davidk/code/python/JC-render/JC-examples/yoga.mp4</name>
                                <rate>
                                    <timebase>24</timebase>
                                    <ntsc>TRUE</ntsc>
                                </rate>
                                <rate>
                                    <timebase>24</timebase>
                                    <ntsc>TRUE</ntsc>
                                </rate>
                                <duration>29</duration>
                                <start>14210</start>
                                <end>14239</end>
                                <in>20196</in>
                                <out>20225</out>
                            </clipitem>
                            <clipitem frameBlend="FALSE" id="clipitem-270">
                                <media>
                                    <video>
                                        <samplecharacteristics>
                                            <height>720</height>
                                            <width>1280</width>
                                        </samplecharacteristics>
                                    </video>
                                </media>
                                <file id="file-1"/>
                                <name>/home/davidk/code/python/JC-render/JC-examples/yoga.mp4</name>
                                <rate>
                                    <timebase>24</timebase>
                                    <ntsc>TRUE</ntsc>
                                </rate>
                                <rate>
                                    <timebase>24</timebase>
                                    <ntsc>TRUE</ntsc>
                                </rate>
                                <duration>48</duration>
                                <start>14239</start>
                                <end>14287</end>
                                <in>20305</in>
                                <out>20353</out>
                            </clipitem>
                            <clipitem frameBlend="FALSE" id="clipitem-271">
                                <media>
                                    <video>
                                        <samplecharacteristics>
                                            <height>720</height>
                                            <width>1280</width>
                                        </samplecharacteristics>
                                    </video>
                                </media>
                                <file id="file-1"/>
                                <name>/home/davidk/code/python/JC-render/JC-examples/yoga.mp4</name>
                                <rate>
                                    <timebase>24</timebase>
                                    <ntsc>TRUE</ntsc>
                                </rate>
                                <rate>
                                    <timebase>24</timebase>
                                    <ntsc>TRUE</ntsc>
                                </rate>
                                <duration>27</duration>
                                <start>14287</start>
                                <end>14314</end>
                                <in>20421</in>
                                <out>20448</out>
                            </clipitem>
                            <clipitem frameBlend="FALSE" id="clipitem-272">
                                <media>
                                    <video>
                                        <samplecharacteristics>
                                            <height>720</height>
                                            <width>1280</width>
                                        </samplecharacteristics>
                                    </video>
                                </media>
                                <file id="file-1"/>
                                <name>/home/davidk/code/python/JC-render/JC-examples/yoga.mp4</name>
                                <rate>
                                    <timebase>24</timebase>
                                    <ntsc>TRUE</ntsc>
                                </rate>
                                <rate>
                                    <timebase>24</timebase>
                                    <ntsc>TRUE</ntsc>
                                </rate>
                                <duration>15</duration>
                                <start>14314</start>
                                <end>14329</end>
                                <in>20466</in>
                                <out>20481</out>
                            </clipitem>
                            <clipitem frameBlend="FALSE" id="clipitem-273">
                                <media>
                                    <video>
                                        <samplecharacteristics>
                                            <height>720</height>
                                            <width>1280</width>
                                        </samplecharacteristics>
                                    </video>
                                </media>
                                <file id="file-1"/>
                                <name>/home/davidk/code/python/JC-render/JC-examples/yoga.mp4</name>
                                <rate>
                                    <timebase>24</timebase>
                                    <ntsc>TRUE</ntsc>
                                </rate>
                                <rate>
                                    <timebase>24</timebase>
                                    <ntsc>TRUE</ntsc>
                                </rate>
                                <duration>16</duration>
                                <start>14329</start>
                                <end>14345</end>
                                <in>20524</in>
                                <out>20540</out>
                            </clipitem>
                            <clipitem frameBlend="FALSE" id="clipitem-274">
                                <media>
                                    <video>
                                        <samplecharacteristics>
                                            <height>720</height>
                                            <width>1280</width>
                                        </samplecharacteristics>
                                    </video>
                                </media>
                                <file id="file-1"/>
                                <name>/home/davidk/code/python/JC-render/JC-examples/yoga.mp4</name>
                                <rate>
                                    <timebase>24</timebase>
                                    <ntsc>TRUE</ntsc>
                                </rate>
                                <rate>
                                    <timebase>24</timebase>
                                    <ntsc>TRUE</ntsc>
                                </rate>
                                <duration>15</duration>
                                <start>14345</start>
                                <end>14360</end>
                                <in>20594</in>
                                <out>20609</out>
                            </clipitem>
                            <clipitem frameBlend="FALSE" id="clipitem-275">
                                <media>
                                    <video>
                                        <samplecharacteristics>
                                            <height>720</height>
                                            <width>1280</width>
                                        </samplecharacteristics>
                                    </video>
                                </media>
                                <file id="file-1"/>
                                <name>/home/davidk/code/python/JC-render/JC-examples/yoga.mp4</name>
                                <rate>
                                    <timebase>24</timebase>
                                    <ntsc>TRUE</ntsc>
                                </rate>
                                <rate>
                                    <timebase>24</timebase>
                                    <ntsc>TRUE</ntsc>
                                </rate>
                                <duration>26</duration>
                                <start>14360</start>
                                <end>14386</end>
                                <in>20625</in>
                                <out>20651</out>
                            </clipitem>
                            <clipitem frameBlend="FALSE" id="clipitem-276">
                                <media>
                                    <video>
                                        <samplecharacteristics>
                                            <height>720</height>
                                            <width>1280</width>
                                        </samplecharacteristics>
                                    </video>
                                </media>
                                <file id="file-1"/>
                                <name>/home/davidk/code/python/JC-render/JC-examples/yoga.mp4</name>
                                <rate>
                                    <timebase>24</timebase>
                                    <ntsc>TRUE</ntsc>
                                </rate>
                                <rate>
                                    <timebase>24</timebase>
                                    <ntsc>TRUE</ntsc>
                                </rate>
                                <duration>57</duration>
                                <start>14386</start>
                                <end>14443</end>
                                <in>20655</in>
                                <out>20712</out>
                            </clipitem>
                            <clipitem frameBlend="FALSE" id="clipitem-277">
                                <media>
                                    <video>
                                        <samplecharacteristics>
                                            <height>720</height>
                                            <width>1280</width>
                                        </samplecharacteristics>
                                    </video>
                                </media>
                                <file id="file-1"/>
                                <name>/home/davidk/code/python/JC-render/JC-examples/yoga.mp4</name>
                                <rate>
                                    <timebase>24</timebase>
                                    <ntsc>TRUE</ntsc>
                                </rate>
                                <rate>
                                    <timebase>24</timebase>
                                    <ntsc>TRUE</ntsc>
                                </rate>
                                <duration>35</duration>
                                <start>14443</start>
                                <end>14478</end>
                                <in>20772</in>
                                <out>20807</out>
                            </clipitem>
                            <clipitem frameBlend="FALSE" id="clipitem-278">
                                <media>
                                    <video>
                                        <samplecharacteristics>
                                            <height>720</height>
                                            <width>1280</width>
                                        </samplecharacteristics>
                                    </video>
                                </media>
                                <file id="file-1"/>
                                <name>/home/davidk/code/python/JC-render/JC-examples/yoga.mp4</name>
                                <rate>
                                    <timebase>24</timebase>
                                    <ntsc>TRUE</ntsc>
                                </rate>
                                <rate>
                                    <timebase>24</timebase>
                                    <ntsc>TRUE</ntsc>
                                </rate>
                                <duration>49</duration>
                                <start>14478</start>
                                <end>14527</end>
                                <in>20814</in>
                                <out>20863</out>
                            </clipitem>
                            <clipitem frameBlend="FALSE" id="clipitem-279">
                                <media>
                                    <video>
                                        <samplecharacteristics>
                                            <height>720</height>
                                            <width>1280</width>
                                        </samplecharacteristics>
                                    </video>
                                </media>
                                <file id="file-1"/>
                                <name>/home/davidk/code/python/JC-render/JC-examples/yoga.mp4</name>
                                <rate>
                                    <timebase>24</timebase>
                                    <ntsc>TRUE</ntsc>
                                </rate>
                                <rate>
                                    <timebase>24</timebase>
                                    <ntsc>TRUE</ntsc>
                                </rate>
                                <duration>51</duration>
                                <start>14527</start>
                                <end>14578</end>
                                <in>20867</in>
                                <out>20918</out>
                            </clipitem>
                            <clipitem frameBlend="FALSE" id="clipitem-280">
                                <media>
                                    <video>
                                        <samplecharacteristics>
                                            <height>720</height>
                                            <width>1280</width>
                                        </samplecharacteristics>
                                    </video>
                                </media>
                                <file id="file-1"/>
                                <name>/home/davidk/code/python/JC-render/JC-examples/yoga.mp4</name>
                                <rate>
                                    <timebase>24</timebase>
                                    <ntsc>TRUE</ntsc>
                                </rate>
                                <rate>
                                    <timebase>24</timebase>
                                    <ntsc>TRUE</ntsc>
                                </rate>
                                <duration>146</duration>
                                <start>14578</start>
                                <end>14724</end>
                                <in>20923</in>
                                <out>21069</out>
                            </clipitem>
                            <clipitem frameBlend="FALSE" id="clipitem-281">
                                <media>
                                    <video>
                                        <samplecharacteristics>
                                            <height>720</height>
                                            <width>1280</width>
                                        </samplecharacteristics>
                                    </video>
                                </media>
                                <file id="file-1"/>
                                <name>/home/davidk/code/python/JC-render/JC-examples/yoga.mp4</name>
                                <rate>
                                    <timebase>24</timebase>
                                    <ntsc>TRUE</ntsc>
                                </rate>
                                <rate>
                                    <timebase>24</timebase>
                                    <ntsc>TRUE</ntsc>
                                </rate>
                                <duration>82</duration>
                                <start>14724</start>
                                <end>14806</end>
                                <in>21084</in>
                                <out>21166</out>
                            </clipitem>
                            <clipitem frameBlend="FALSE" id="clipitem-282">
                                <media>
                                    <video>
                                        <samplecharacteristics>
                                            <height>720</height>
                                            <width>1280</width>
                                        </samplecharacteristics>
                                    </video>
                                </media>
                                <file id="file-1"/>
                                <name>/home/davidk/code/python/JC-render/JC-examples/yoga.mp4</name>
                                <rate>
                                    <timebase>24</timebase>
                                    <ntsc>TRUE</ntsc>
                                </rate>
                                <rate>
                                    <timebase>24</timebase>
                                    <ntsc>TRUE</ntsc>
                                </rate>
                                <duration>23</duration>
                                <start>14806</start>
                                <end>14829</end>
                                <in>21168</in>
                                <out>21191</out>
                            </clipitem>
                            <clipitem frameBlend="FALSE" id="clipitem-283">
                                <media>
                                    <video>
                                        <samplecharacteristics>
                                            <height>720</height>
                                            <width>1280</width>
                                        </samplecharacteristics>
                                    </video>
                                </media>
                                <file id="file-1"/>
                                <name>/home/davidk/code/python/JC-render/JC-examples/yoga.mp4</name>
                                <rate>
                                    <timebase>24</timebase>
                                    <ntsc>TRUE</ntsc>
                                </rate>
                                <rate>
                                    <timebase>24</timebase>
                                    <ntsc>TRUE</ntsc>
                                </rate>
                                <duration>80</duration>
                                <start>14829</start>
                                <end>14909</end>
                                <in>21220</in>
                                <out>21300</out>
                            </clipitem>
                            <clipitem frameBlend="FALSE" id="clipitem-284">
                                <media>
                                    <video>
                                        <samplecharacteristics>
                                            <height>720</height>
                                            <width>1280</width>
                                        </samplecharacteristics>
                                    </video>
                                </media>
                                <file id="file-1"/>
                                <name>/home/davidk/code/python/JC-render/JC-examples/yoga.mp4</name>
                                <rate>
                                    <timebase>24</timebase>
                                    <ntsc>TRUE</ntsc>
                                </rate>
                                <rate>
                                    <timebase>24</timebase>
                                    <ntsc>TRUE</ntsc>
                                </rate>
                                <duration>32</duration>
                                <start>14909</start>
                                <end>14941</end>
                                <in>21307</in>
                                <out>21339</out>
                            </clipitem>
                            <clipitem frameBlend="FALSE" id="clipitem-285">
                                <media>
                                    <video>
                                        <samplecharacteristics>
                                            <height>720</height>
                                            <width>1280</width>
                                        </samplecharacteristics>
                                    </video>
                                </media>
                                <file id="file-1"/>
                                <name>/home/davidk/code/python/JC-render/JC-examples/yoga.mp4</name>
                                <rate>
                                    <timebase>24</timebase>
                                    <ntsc>TRUE</ntsc>
                                </rate>
                                <rate>
                                    <timebase>24</timebase>
                                    <ntsc>TRUE</ntsc>
                                </rate>
                                <duration>38</duration>
                                <start>14941</start>
                                <end>14979</end>
                                <in>21340</in>
                                <out>21378</out>
                            </clipitem>
                            <clipitem frameBlend="FALSE" id="clipitem-286">
                                <media>
                                    <video>
                                        <samplecharacteristics>
                                            <height>720</height>
                                            <width>1280</width>
                                        </samplecharacteristics>
                                    </video>
                                </media>
                                <file id="file-1"/>
                                <name>/home/davidk/code/python/JC-render/JC-examples/yoga.mp4</name>
                                <rate>
                                    <timebase>24</timebase>
                                    <ntsc>TRUE</ntsc>
                                </rate>
                                <rate>
                                    <timebase>24</timebase>
                                    <ntsc>TRUE</ntsc>
                                </rate>
                                <duration>38</duration>
                                <start>14979</start>
                                <end>15017</end>
                                <in>21390</in>
                                <out>21428</out>
                            </clipitem>
                            <clipitem frameBlend="FALSE" id="clipitem-287">
                                <media>
                                    <video>
                                        <samplecharacteristics>
                                            <height>720</height>
                                            <width>1280</width>
                                        </samplecharacteristics>
                                    </video>
                                </media>
                                <file id="file-1"/>
                                <name>/home/davidk/code/python/JC-render/JC-examples/yoga.mp4</name>
                                <rate>
                                    <timebase>24</timebase>
                                    <ntsc>TRUE</ntsc>
                                </rate>
                                <rate>
                                    <timebase>24</timebase>
                                    <ntsc>TRUE</ntsc>
                                </rate>
                                <duration>29</duration>
                                <start>15017</start>
                                <end>15046</end>
                                <in>21691</in>
                                <out>21720</out>
                            </clipitem>
                            <clipitem frameBlend="FALSE" id="clipitem-288">
                                <media>
                                    <video>
                                        <samplecharacteristics>
                                            <height>720</height>
                                            <width>1280</width>
                                        </samplecharacteristics>
                                    </video>
                                </media>
                                <file id="file-1"/>
                                <name>/home/davidk/code/python/JC-render/JC-examples/yoga.mp4</name>
                                <rate>
                                    <timebase>24</timebase>
                                    <ntsc>TRUE</ntsc>
                                </rate>
                                <rate>
                                    <timebase>24</timebase>
                                    <ntsc>TRUE</ntsc>
                                </rate>
                                <duration>51</duration>
                                <start>15046</start>
                                <end>15097</end>
                                <in>21747</in>
                                <out>21798</out>
                            </clipitem>
                            <clipitem frameBlend="FALSE" id="clipitem-289">
                                <media>
                                    <video>
                                        <samplecharacteristics>
                                            <height>720</height>
                                            <width>1280</width>
                                        </samplecharacteristics>
                                    </video>
                                </media>
                                <file id="file-1"/>
                                <name>/home/davidk/code/python/JC-render/JC-examples/yoga.mp4</name>
                                <rate>
                                    <timebase>24</timebase>
                                    <ntsc>TRUE</ntsc>
                                </rate>
                                <rate>
                                    <timebase>24</timebase>
                                    <ntsc>TRUE</ntsc>
                                </rate>
                                <duration>26</duration>
                                <start>15097</start>
                                <end>15123</end>
                                <in>21800</in>
                                <out>21826</out>
                            </clipitem>
                            <clipitem frameBlend="FALSE" id="clipitem-290">
                                <media>
                                    <video>
                                        <samplecharacteristics>
                                            <height>720</height>
                                            <width>1280</width>
                                        </samplecharacteristics>
                                    </video>
                                </media>
                                <file id="file-1"/>
                                <name>/home/davidk/code/python/JC-render/JC-examples/yoga.mp4</name>
                                <rate>
                                    <timebase>24</timebase>
                                    <ntsc>TRUE</ntsc>
                                </rate>
                                <rate>
                                    <timebase>24</timebase>
                                    <ntsc>TRUE</ntsc>
                                </rate>
                                <duration>46</duration>
                                <start>15123</start>
                                <end>15169</end>
                                <in>21836</in>
                                <out>21882</out>
                            </clipitem>
                            <clipitem frameBlend="FALSE" id="clipitem-291">
                                <media>
                                    <video>
                                        <samplecharacteristics>
                                            <height>720</height>
                                            <width>1280</width>
                                        </samplecharacteristics>
                                    </video>
                                </media>
                                <file id="file-1"/>
                                <name>/home/davidk/code/python/JC-render/JC-examples/yoga.mp4</name>
                                <rate>
                                    <timebase>24</timebase>
                                    <ntsc>TRUE</ntsc>
                                </rate>
                                <rate>
                                    <timebase>24</timebase>
                                    <ntsc>TRUE</ntsc>
                                </rate>
                                <duration>43</duration>
                                <start>15169</start>
                                <end>15212</end>
                                <in>21981</in>
                                <out>22024</out>
                            </clipitem>
                            <clipitem frameBlend="FALSE" id="clipitem-292">
                                <media>
                                    <video>
                                        <samplecharacteristics>
                                            <height>720</height>
                                            <width>1280</width>
                                        </samplecharacteristics>
                                    </video>
                                </media>
                                <file id="file-1"/>
                                <name>/home/davidk/code/python/JC-render/JC-examples/yoga.mp4</name>
                                <rate>
                                    <timebase>24</timebase>
                                    <ntsc>TRUE</ntsc>
                                </rate>
                                <rate>
                                    <timebase>24</timebase>
                                    <ntsc>TRUE</ntsc>
                                </rate>
                                <duration>57</duration>
                                <start>15212</start>
                                <end>15269</end>
                                <in>22053</in>
                                <out>22110</out>
                            </clipitem>
                            <clipitem frameBlend="FALSE" id="clipitem-293">
                                <media>
                                    <video>
                                        <samplecharacteristics>
                                            <height>720</height>
                                            <width>1280</width>
                                        </samplecharacteristics>
                                    </video>
                                </media>
                                <file id="file-1"/>
                                <name>/home/davidk/code/python/JC-render/JC-examples/yoga.mp4</name>
                                <rate>
                                    <timebase>24</timebase>
                                    <ntsc>TRUE</ntsc>
                                </rate>
                                <rate>
                                    <timebase>24</timebase>
                                    <ntsc>TRUE</ntsc>
                                </rate>
                                <duration>23</duration>
                                <start>15269</start>
                                <end>15292</end>
                                <in>22131</in>
                                <out>22154</out>
                            </clipitem>
                            <clipitem frameBlend="FALSE" id="clipitem-294">
                                <media>
                                    <video>
                                        <samplecharacteristics>
                                            <height>720</height>
                                            <width>1280</width>
                                        </samplecharacteristics>
                                    </video>
                                </media>
                                <file id="file-1"/>
                                <name>/home/davidk/code/python/JC-render/JC-examples/yoga.mp4</name>
                                <rate>
                                    <timebase>24</timebase>
                                    <ntsc>TRUE</ntsc>
                                </rate>
                                <rate>
                                    <timebase>24</timebase>
                                    <ntsc>TRUE</ntsc>
                                </rate>
                                <duration>26</duration>
                                <start>15292</start>
                                <end>15318</end>
                                <in>22173</in>
                                <out>22199</out>
                            </clipitem>
                            <clipitem frameBlend="FALSE" id="clipitem-295">
                                <media>
                                    <video>
                                        <samplecharacteristics>
                                            <height>720</height>
                                            <width>1280</width>
                                        </samplecharacteristics>
                                    </video>
                                </media>
                                <file id="file-1"/>
                                <name>/home/davidk/code/python/JC-render/JC-examples/yoga.mp4</name>
                                <rate>
                                    <timebase>24</timebase>
                                    <ntsc>TRUE</ntsc>
                                </rate>
                                <rate>
                                    <timebase>24</timebase>
                                    <ntsc>TRUE</ntsc>
                                </rate>
                                <duration>49</duration>
                                <start>15318</start>
                                <end>15367</end>
                                <in>22214</in>
                                <out>22263</out>
                            </clipitem>
                            <clipitem frameBlend="FALSE" id="clipitem-296">
                                <media>
                                    <video>
                                        <samplecharacteristics>
                                            <height>720</height>
                                            <width>1280</width>
                                        </samplecharacteristics>
                                    </video>
                                </media>
                                <file id="file-1"/>
                                <name>/home/davidk/code/python/JC-render/JC-examples/yoga.mp4</name>
                                <rate>
                                    <timebase>24</timebase>
                                    <ntsc>TRUE</ntsc>
                                </rate>
                                <rate>
                                    <timebase>24</timebase>
                                    <ntsc>TRUE</ntsc>
                                </rate>
                                <duration>24</duration>
                                <start>15367</start>
                                <end>15391</end>
                                <in>22306</in>
                                <out>22330</out>
                            </clipitem>
                            <clipitem frameBlend="FALSE" id="clipitem-297">
                                <media>
                                    <video>
                                        <samplecharacteristics>
                                            <height>720</height>
                                            <width>1280</width>
                                        </samplecharacteristics>
                                    </video>
                                </media>
                                <file id="file-1"/>
                                <name>/home/davidk/code/python/JC-render/JC-examples/yoga.mp4</name>
                                <rate>
                                    <timebase>24</timebase>
                                    <ntsc>TRUE</ntsc>
                                </rate>
                                <rate>
                                    <timebase>24</timebase>
                                    <ntsc>TRUE</ntsc>
                                </rate>
                                <duration>18</duration>
                                <start>15391</start>
                                <end>15409</end>
                                <in>22373</in>
                                <out>22391</out>
                            </clipitem>
                            <clipitem frameBlend="FALSE" id="clipitem-298">
                                <media>
                                    <video>
                                        <samplecharacteristics>
                                            <height>720</height>
                                            <width>1280</width>
                                        </samplecharacteristics>
                                    </video>
                                </media>
                                <file id="file-1"/>
                                <name>/home/davidk/code/python/JC-render/JC-examples/yoga.mp4</name>
                                <rate>
                                    <timebase>24</timebase>
                                    <ntsc>TRUE</ntsc>
                                </rate>
                                <rate>
                                    <timebase>24</timebase>
                                    <ntsc>TRUE</ntsc>
                                </rate>
                                <duration>13</duration>
                                <start>15409</start>
                                <end>15422</end>
                                <in>22398</in>
                                <out>22411</out>
                            </clipitem>
                            <clipitem frameBlend="FALSE" id="clipitem-299">
                                <media>
                                    <video>
                                        <samplecharacteristics>
                                            <height>720</height>
                                            <width>1280</width>
                                        </samplecharacteristics>
                                    </video>
                                </media>
                                <file id="file-1"/>
                                <name>/home/davidk/code/python/JC-render/JC-examples/yoga.mp4</name>
                                <rate>
                                    <timebase>24</timebase>
                                    <ntsc>TRUE</ntsc>
                                </rate>
                                <rate>
                                    <timebase>24</timebase>
                                    <ntsc>TRUE</ntsc>
                                </rate>
                                <duration>26</duration>
                                <start>15422</start>
                                <end>15448</end>
                                <in>22415</in>
                                <out>22441</out>
                            </clipitem>
                            <clipitem frameBlend="FALSE" id="clipitem-300">
                                <media>
                                    <video>
                                        <samplecharacteristics>
                                            <height>720</height>
                                            <width>1280</width>
                                        </samplecharacteristics>
                                    </video>
                                </media>
                                <file id="file-1"/>
                                <name>/home/davidk/code/python/JC-render/JC-examples/yoga.mp4</name>
                                <rate>
                                    <timebase>24</timebase>
                                    <ntsc>TRUE</ntsc>
                                </rate>
                                <rate>
                                    <timebase>24</timebase>
                                    <ntsc>TRUE</ntsc>
                                </rate>
                                <duration>12</duration>
                                <start>15448</start>
                                <end>15460</end>
                                <in>22493</in>
                                <out>22505</out>
                            </clipitem>
                            <clipitem frameBlend="FALSE" id="clipitem-301">
                                <media>
                                    <video>
                                        <samplecharacteristics>
                                            <height>720</height>
                                            <width>1280</width>
                                        </samplecharacteristics>
                                    </video>
                                </media>
                                <file id="file-1"/>
                                <name>/home/davidk/code/python/JC-render/JC-examples/yoga.mp4</name>
                                <rate>
                                    <timebase>24</timebase>
                                    <ntsc>TRUE</ntsc>
                                </rate>
                                <rate>
                                    <timebase>24</timebase>
                                    <ntsc>TRUE</ntsc>
                                </rate>
                                <duration>49</duration>
                                <start>15460</start>
                                <end>15509</end>
                                <in>22509</in>
                                <out>22558</out>
                            </clipitem>
                            <clipitem frameBlend="FALSE" id="clipitem-302">
                                <media>
                                    <video>
                                        <samplecharacteristics>
                                            <height>720</height>
                                            <width>1280</width>
                                        </samplecharacteristics>
                                    </video>
                                </media>
                                <file id="file-1"/>
                                <name>/home/davidk/code/python/JC-render/JC-examples/yoga.mp4</name>
                                <rate>
                                    <timebase>24</timebase>
                                    <ntsc>TRUE</ntsc>
                                </rate>
                                <rate>
                                    <timebase>24</timebase>
                                    <ntsc>TRUE</ntsc>
                                </rate>
                                <duration>40</duration>
                                <start>15509</start>
                                <end>15549</end>
                                <in>22599</in>
                                <out>22639</out>
                            </clipitem>
                            <clipitem frameBlend="FALSE" id="clipitem-303">
                                <media>
                                    <video>
                                        <samplecharacteristics>
                                            <height>720</height>
                                            <width>1280</width>
                                        </samplecharacteristics>
                                    </video>
                                </media>
                                <file id="file-1"/>
                                <name>/home/davidk/code/python/JC-render/JC-examples/yoga.mp4</name>
                                <rate>
                                    <timebase>24</timebase>
                                    <ntsc>TRUE</ntsc>
                                </rate>
                                <rate>
                                    <timebase>24</timebase>
                                    <ntsc>TRUE</ntsc>
                                </rate>
                                <duration>21</duration>
                                <start>15549</start>
                                <end>15570</end>
                                <in>22729</in>
                                <out>22750</out>
                            </clipitem>
                            <clipitem frameBlend="FALSE" id="clipitem-304">
                                <media>
                                    <video>
                                        <samplecharacteristics>
                                            <height>720</height>
                                            <width>1280</width>
                                        </samplecharacteristics>
                                    </video>
                                </media>
                                <file id="file-1"/>
                                <name>/home/davidk/code/python/JC-render/JC-examples/yoga.mp4</name>
                                <rate>
                                    <timebase>24</timebase>
                                    <ntsc>TRUE</ntsc>
                                </rate>
                                <rate>
                                    <timebase>24</timebase>
                                    <ntsc>TRUE</ntsc>
                                </rate>
                                <duration>12</duration>
                                <start>15570</start>
                                <end>15582</end>
                                <in>22816</in>
                                <out>22828</out>
                            </clipitem>
                            <clipitem frameBlend="FALSE" id="clipitem-305">
                                <media>
                                    <video>
                                        <samplecharacteristics>
                                            <height>720</height>
                                            <width>1280</width>
                                        </samplecharacteristics>
                                    </video>
                                </media>
                                <file id="file-1"/>
                                <name>/home/davidk/code/python/JC-render/JC-examples/yoga.mp4</name>
                                <rate>
                                    <timebase>24</timebase>
                                    <ntsc>TRUE</ntsc>
                                </rate>
                                <rate>
                                    <timebase>24</timebase>
                                    <ntsc>TRUE</ntsc>
                                </rate>
                                <duration>12</duration>
                                <start>15582</start>
                                <end>15594</end>
                                <in>22863</in>
                                <out>22875</out>
                            </clipitem>
                            <clipitem frameBlend="FALSE" id="clipitem-306">
                                <media>
                                    <video>
                                        <samplecharacteristics>
                                            <height>720</height>
                                            <width>1280</width>
                                        </samplecharacteristics>
                                    </video>
                                </media>
                                <file id="file-1"/>
                                <name>/home/davidk/code/python/JC-render/JC-examples/yoga.mp4</name>
                                <rate>
                                    <timebase>24</timebase>
                                    <ntsc>TRUE</ntsc>
                                </rate>
                                <rate>
                                    <timebase>24</timebase>
                                    <ntsc>TRUE</ntsc>
                                </rate>
                                <duration>12</duration>
                                <start>15594</start>
                                <end>15606</end>
                                <in>22902</in>
                                <out>22914</out>
                            </clipitem>
                            <clipitem frameBlend="FALSE" id="clipitem-307">
                                <media>
                                    <video>
                                        <samplecharacteristics>
                                            <height>720</height>
                                            <width>1280</width>
                                        </samplecharacteristics>
                                    </video>
                                </media>
                                <file id="file-1"/>
                                <name>/home/davidk/code/python/JC-render/JC-examples/yoga.mp4</name>
                                <rate>
                                    <timebase>24</timebase>
                                    <ntsc>TRUE</ntsc>
                                </rate>
                                <rate>
                                    <timebase>24</timebase>
                                    <ntsc>TRUE</ntsc>
                                </rate>
                                <duration>38</duration>
                                <start>15606</start>
                                <end>15644</end>
                                <in>23364</in>
                                <out>23402</out>
                            </clipitem>
                            <clipitem frameBlend="FALSE" id="clipitem-308">
                                <media>
                                    <video>
                                        <samplecharacteristics>
                                            <height>720</height>
                                            <width>1280</width>
                                        </samplecharacteristics>
                                    </video>
                                </media>
                                <file id="file-1"/>
                                <name>/home/davidk/code/python/JC-render/JC-examples/yoga.mp4</name>
                                <rate>
                                    <timebase>24</timebase>
                                    <ntsc>TRUE</ntsc>
                                </rate>
                                <rate>
                                    <timebase>24</timebase>
                                    <ntsc>TRUE</ntsc>
                                </rate>
                                <duration>20</duration>
                                <start>15644</start>
                                <end>15664</end>
                                <in>23476</in>
                                <out>23496</out>
                            </clipitem>
                            <clipitem frameBlend="FALSE" id="clipitem-309">
                                <media>
                                    <video>
                                        <samplecharacteristics>
                                            <height>720</height>
                                            <width>1280</width>
                                        </samplecharacteristics>
                                    </video>
                                </media>
                                <file id="file-1"/>
                                <name>/home/davidk/code/python/JC-render/JC-examples/yoga.mp4</name>
                                <rate>
                                    <timebase>24</timebase>
                                    <ntsc>TRUE</ntsc>
                                </rate>
                                <rate>
                                    <timebase>24</timebase>
                                    <ntsc>TRUE</ntsc>
                                </rate>
                                <duration>49</duration>
                                <start>15664</start>
                                <end>15713</end>
                                <in>23634</in>
                                <out>23683</out>
                            </clipitem>
                            <clipitem frameBlend="FALSE" id="clipitem-310">
                                <media>
                                    <video>
                                        <samplecharacteristics>
                                            <height>720</height>
                                            <width>1280</width>
                                        </samplecharacteristics>
                                    </video>
                                </media>
                                <file id="file-1"/>
                                <name>/home/davidk/code/python/JC-render/JC-examples/yoga.mp4</name>
                                <rate>
                                    <timebase>24</timebase>
                                    <ntsc>TRUE</ntsc>
                                </rate>
                                <rate>
                                    <timebase>24</timebase>
                                    <ntsc>TRUE</ntsc>
                                </rate>
                                <duration>62</duration>
                                <start>15713</start>
                                <end>15775</end>
                                <in>23721</in>
                                <out>23783</out>
                            </clipitem>
                            <clipitem frameBlend="FALSE" id="clipitem-311">
                                <media>
                                    <video>
                                        <samplecharacteristics>
                                            <height>720</height>
                                            <width>1280</width>
                                        </samplecharacteristics>
                                    </video>
                                </media>
                                <file id="file-1"/>
                                <name>/home/davidk/code/python/JC-render/JC-examples/yoga.mp4</name>
                                <rate>
                                    <timebase>24</timebase>
                                    <ntsc>TRUE</ntsc>
                                </rate>
                                <rate>
                                    <timebase>24</timebase>
                                    <ntsc>TRUE</ntsc>
                                </rate>
                                <duration>140</duration>
                                <start>15775</start>
                                <end>15915</end>
                                <in>23793</in>
                                <out>23933</out>
                            </clipitem>
                            <clipitem frameBlend="FALSE" id="clipitem-312">
                                <media>
                                    <video>
                                        <samplecharacteristics>
                                            <height>720</height>
                                            <width>1280</width>
                                        </samplecharacteristics>
                                    </video>
                                </media>
                                <file id="file-1"/>
                                <name>/home/davidk/code/python/JC-render/JC-examples/yoga.mp4</name>
                                <rate>
                                    <timebase>24</timebase>
                                    <ntsc>TRUE</ntsc>
                                </rate>
                                <rate>
                                    <timebase>24</timebase>
                                    <ntsc>TRUE</ntsc>
                                </rate>
                                <duration>113</duration>
                                <start>15915</start>
                                <end>16028</end>
                                <in>23935</in>
                                <out>24048</out>
                            </clipitem>
                            <clipitem frameBlend="FALSE" id="clipitem-313">
                                <media>
                                    <video>
                                        <samplecharacteristics>
                                            <height>720</height>
                                            <width>1280</width>
                                        </samplecharacteristics>
                                    </video>
                                </media>
                                <file id="file-1"/>
                                <name>/home/davidk/code/python/JC-render/JC-examples/yoga.mp4</name>
                                <rate>
                                    <timebase>24</timebase>
                                    <ntsc>TRUE</ntsc>
                                </rate>
                                <rate>
                                    <timebase>24</timebase>
                                    <ntsc>TRUE</ntsc>
                                </rate>
                                <duration>26</duration>
                                <start>16028</start>
                                <end>16054</end>
                                <in>24052</in>
                                <out>24078</out>
                            </clipitem>
                            <clipitem frameBlend="FALSE" id="clipitem-314">
                                <media>
                                    <video>
                                        <samplecharacteristics>
                                            <height>720</height>
                                            <width>1280</width>
                                        </samplecharacteristics>
                                    </video>
                                </media>
                                <file id="file-1"/>
                                <name>/home/davidk/code/python/JC-render/JC-examples/yoga.mp4</name>
                                <rate>
                                    <timebase>24</timebase>
                                    <ntsc>TRUE</ntsc>
                                </rate>
                                <rate>
                                    <timebase>24</timebase>
                                    <ntsc>TRUE</ntsc>
                                </rate>
                                <duration>63</duration>
                                <start>16054</start>
                                <end>16117</end>
                                <in>24330</in>
                                <out>24393</out>
                            </clipitem>
                            <clipitem frameBlend="FALSE" id="clipitem-315">
                                <media>
                                    <video>
                                        <samplecharacteristics>
                                            <height>720</height>
                                            <width>1280</width>
                                        </samplecharacteristics>
                                    </video>
                                </media>
                                <file id="file-1"/>
                                <name>/home/davidk/code/python/JC-render/JC-examples/yoga.mp4</name>
                                <rate>
                                    <timebase>24</timebase>
                                    <ntsc>TRUE</ntsc>
                                </rate>
                                <rate>
                                    <timebase>24</timebase>
                                    <ntsc>TRUE</ntsc>
                                </rate>
                                <duration>18</duration>
                                <start>16117</start>
                                <end>16135</end>
                                <in>24469</in>
                                <out>24487</out>
                            </clipitem>
                            <clipitem frameBlend="FALSE" id="clipitem-316">
                                <media>
                                    <video>
                                        <samplecharacteristics>
                                            <height>720</height>
                                            <width>1280</width>
                                        </samplecharacteristics>
                                    </video>
                                </media>
                                <file id="file-1"/>
                                <name>/home/davidk/code/python/JC-render/JC-examples/yoga.mp4</name>
                                <rate>
                                    <timebase>24</timebase>
                                    <ntsc>TRUE</ntsc>
                                </rate>
                                <rate>
                                    <timebase>24</timebase>
                                    <ntsc>TRUE</ntsc>
                                </rate>
                                <duration>49</duration>
                                <start>16135</start>
                                <end>16184</end>
                                <in>24500</in>
                                <out>24549</out>
                            </clipitem>
                            <clipitem frameBlend="FALSE" id="clipitem-317">
                                <media>
                                    <video>
                                        <samplecharacteristics>
                                            <height>720</height>
                                            <width>1280</width>
                                        </samplecharacteristics>
                                    </video>
                                </media>
                                <file id="file-1"/>
                                <name>/home/davidk/code/python/JC-render/JC-examples/yoga.mp4</name>
                                <rate>
                                    <timebase>24</timebase>
                                    <ntsc>TRUE</ntsc>
                                </rate>
                                <rate>
                                    <timebase>24</timebase>
                                    <ntsc>TRUE</ntsc>
                                </rate>
                                <duration>57</duration>
                                <start>16184</start>
                                <end>16241</end>
                                <in>24578</in>
                                <out>24635</out>
                            </clipitem>
                            <clipitem frameBlend="FALSE" id="clipitem-318">
                                <media>
                                    <video>
                                        <samplecharacteristics>
                                            <height>720</height>
                                            <width>1280</width>
                                        </samplecharacteristics>
                                    </video>
                                </media>
                                <file id="file-1"/>
                                <name>/home/davidk/code/python/JC-render/JC-examples/yoga.mp4</name>
                                <rate>
                                    <timebase>24</timebase>
                                    <ntsc>TRUE</ntsc>
                                </rate>
                                <rate>
                                    <timebase>24</timebase>
                                    <ntsc>TRUE</ntsc>
                                </rate>
                                <duration>82</duration>
                                <start>16241</start>
                                <end>16323</end>
                                <in>24639</in>
                                <out>24721</out>
                            </clipitem>
                            <clipitem frameBlend="FALSE" id="clipitem-319">
                                <media>
                                    <video>
                                        <samplecharacteristics>
                                            <height>720</height>
                                            <width>1280</width>
                                        </samplecharacteristics>
                                    </video>
                                </media>
                                <file id="file-1"/>
                                <name>/home/davidk/code/python/JC-render/JC-examples/yoga.mp4</name>
                                <rate>
                                    <timebase>24</timebase>
                                    <ntsc>TRUE</ntsc>
                                </rate>
                                <rate>
                                    <timebase>24</timebase>
                                    <ntsc>TRUE</ntsc>
                                </rate>
                                <duration>107</duration>
                                <start>16323</start>
                                <end>16430</end>
                                <in>24762</in>
                                <out>24869</out>
                            </clipitem>
                            <clipitem frameBlend="FALSE" id="clipitem-320">
                                <media>
                                    <video>
                                        <samplecharacteristics>
                                            <height>720</height>
                                            <width>1280</width>
                                        </samplecharacteristics>
                                    </video>
                                </media>
                                <file id="file-1"/>
                                <name>/home/davidk/code/python/JC-render/JC-examples/yoga.mp4</name>
                                <rate>
                                    <timebase>24</timebase>
                                    <ntsc>TRUE</ntsc>
                                </rate>
                                <rate>
                                    <timebase>24</timebase>
                                    <ntsc>TRUE</ntsc>
                                </rate>
                                <duration>60</duration>
                                <start>16430</start>
                                <end>16490</end>
                                <in>24884</in>
                                <out>24944</out>
                            </clipitem>
                            <clipitem frameBlend="FALSE" id="clipitem-321">
                                <media>
                                    <video>
                                        <samplecharacteristics>
                                            <height>720</height>
                                            <width>1280</width>
                                        </samplecharacteristics>
                                    </video>
                                </media>
                                <file id="file-1"/>
                                <name>/home/davidk/code/python/JC-render/JC-examples/yoga.mp4</name>
                                <rate>
                                    <timebase>24</timebase>
                                    <ntsc>TRUE</ntsc>
                                </rate>
                                <rate>
                                    <timebase>24</timebase>
                                    <ntsc>TRUE</ntsc>
                                </rate>
                                <duration>57</duration>
                                <start>16490</start>
                                <end>16547</end>
                                <in>24957</in>
                                <out>25014</out>
                            </clipitem>
                            <clipitem frameBlend="FALSE" id="clipitem-322">
                                <media>
                                    <video>
                                        <samplecharacteristics>
                                            <height>720</height>
                                            <width>1280</width>
                                        </samplecharacteristics>
                                    </video>
                                </media>
                                <file id="file-1"/>
                                <name>/home/davidk/code/python/JC-render/JC-examples/yoga.mp4</name>
                                <rate>
                                    <timebase>24</timebase>
                                    <ntsc>TRUE</ntsc>
                                </rate>
                                <rate>
                                    <timebase>24</timebase>
                                    <ntsc>TRUE</ntsc>
                                </rate>
                                <duration>40</duration>
                                <start>16547</start>
                                <end>16587</end>
                                <in>25024</in>
                                <out>25064</out>
                            </clipitem>
                            <clipitem frameBlend="FALSE" id="clipitem-323">
                                <media>
                                    <video>
                                        <samplecharacteristics>
                                            <height>720</height>
                                            <width>1280</width>
                                        </samplecharacteristics>
                                    </video>
                                </media>
                                <file id="file-1"/>
                                <name>/home/davidk/code/python/JC-render/JC-examples/yoga.mp4</name>
                                <rate>
                                    <timebase>24</timebase>
                                    <ntsc>TRUE</ntsc>
                                </rate>
                                <rate>
                                    <timebase>24</timebase>
                                    <ntsc>TRUE</ntsc>
                                </rate>
                                <duration>21</duration>
                                <start>16587</start>
                                <end>16608</end>
                                <in>25121</in>
                                <out>25142</out>
                            </clipitem>
                            <clipitem frameBlend="FALSE" id="clipitem-324">
                                <media>
                                    <video>
                                        <samplecharacteristics>
                                            <height>720</height>
                                            <width>1280</width>
                                        </samplecharacteristics>
                                    </video>
                                </media>
                                <file id="file-1"/>
                                <name>/home/davidk/code/python/JC-render/JC-examples/yoga.mp4</name>
                                <rate>
                                    <timebase>24</timebase>
                                    <ntsc>TRUE</ntsc>
                                </rate>
                                <rate>
                                    <timebase>24</timebase>
                                    <ntsc>TRUE</ntsc>
                                </rate>
                                <duration>112</duration>
                                <start>16608</start>
                                <end>16720</end>
                                <in>25213</in>
                                <out>25325</out>
                            </clipitem>
                            <clipitem frameBlend="FALSE" id="clipitem-325">
                                <media>
                                    <video>
                                        <samplecharacteristics>
                                            <height>720</height>
                                            <width>1280</width>
                                        </samplecharacteristics>
                                    </video>
                                </media>
                                <file id="file-1"/>
                                <name>/home/davidk/code/python/JC-render/JC-examples/yoga.mp4</name>
                                <rate>
                                    <timebase>24</timebase>
                                    <ntsc>TRUE</ntsc>
                                </rate>
                                <rate>
                                    <timebase>24</timebase>
                                    <ntsc>TRUE</ntsc>
                                </rate>
                                <duration>43</duration>
                                <start>16720</start>
                                <end>16763</end>
                                <in>25330</in>
                                <out>25373</out>
                            </clipitem>
                            <clipitem frameBlend="FALSE" id="clipitem-326">
                                <media>
                                    <video>
                                        <samplecharacteristics>
                                            <height>720</height>
                                            <width>1280</width>
                                        </samplecharacteristics>
                                    </video>
                                </media>
                                <file id="file-1"/>
                                <name>/home/davidk/code/python/JC-render/JC-examples/yoga.mp4</name>
                                <rate>
                                    <timebase>24</timebase>
                                    <ntsc>TRUE</ntsc>
                                </rate>
                                <rate>
                                    <timebase>24</timebase>
                                    <ntsc>TRUE</ntsc>
                                </rate>
                                <duration>29</duration>
                                <start>16763</start>
                                <end>16792</end>
                                <in>25388</in>
                                <out>25417</out>
                            </clipitem>
                            <clipitem frameBlend="FALSE" id="clipitem-327">
                                <media>
                                    <video>
                                        <samplecharacteristics>
                                            <height>720</height>
                                            <width>1280</width>
                                        </samplecharacteristics>
                                    </video>
                                </media>
                                <file id="file-1"/>
                                <name>/home/davidk/code/python/JC-render/JC-examples/yoga.mp4</name>
                                <rate>
                                    <timebase>24</timebase>
                                    <ntsc>TRUE</ntsc>
                                </rate>
                                <rate>
                                    <timebase>24</timebase>
                                    <ntsc>TRUE</ntsc>
                                </rate>
                                <duration>37</duration>
                                <start>16792</start>
                                <end>16829</end>
                                <in>25419</in>
                                <out>25456</out>
                            </clipitem>
                            <clipitem frameBlend="FALSE" id="clipitem-328">
                                <media>
                                    <video>
                                        <samplecharacteristics>
                                            <height>720</height>
                                            <width>1280</width>
                                        </samplecharacteristics>
                                    </video>
                                </media>
                                <file id="file-1"/>
                                <name>/home/davidk/code/python/JC-render/JC-examples/yoga.mp4</name>
                                <rate>
                                    <timebase>24</timebase>
                                    <ntsc>TRUE</ntsc>
                                </rate>
                                <rate>
                                    <timebase>24</timebase>
                                    <ntsc>TRUE</ntsc>
                                </rate>
                                <duration>26</duration>
                                <start>16829</start>
                                <end>16855</end>
                                <in>25469</in>
                                <out>25495</out>
                            </clipitem>
                            <clipitem frameBlend="FALSE" id="clipitem-329">
                                <media>
                                    <video>
                                        <samplecharacteristics>
                                            <height>720</height>
                                            <width>1280</width>
                                        </samplecharacteristics>
                                    </video>
                                </media>
                                <file id="file-1"/>
                                <name>/home/davidk/code/python/JC-render/JC-examples/yoga.mp4</name>
                                <rate>
                                    <timebase>24</timebase>
                                    <ntsc>TRUE</ntsc>
                                </rate>
                                <rate>
                                    <timebase>24</timebase>
                                    <ntsc>TRUE</ntsc>
                                </rate>
                                <duration>26</duration>
                                <start>16855</start>
                                <end>16881</end>
                                <in>25514</in>
                                <out>25540</out>
                            </clipitem>
                            <clipitem frameBlend="FALSE" id="clipitem-330">
                                <media>
                                    <video>
                                        <samplecharacteristics>
                                            <height>720</height>
                                            <width>1280</width>
                                        </samplecharacteristics>
                                    </video>
                                </media>
                                <file id="file-1"/>
                                <name>/home/davidk/code/python/JC-render/JC-examples/yoga.mp4</name>
                                <rate>
                                    <timebase>24</timebase>
                                    <ntsc>TRUE</ntsc>
                                </rate>
                                <rate>
                                    <timebase>24</timebase>
                                    <ntsc>TRUE</ntsc>
                                </rate>
                                <duration>74</duration>
                                <start>16881</start>
                                <end>16955</end>
                                <in>25547</in>
                                <out>25621</out>
                            </clipitem>
                            <clipitem frameBlend="FALSE" id="clipitem-331">
                                <media>
                                    <video>
                                        <samplecharacteristics>
                                            <height>720</height>
                                            <width>1280</width>
                                        </samplecharacteristics>
                                    </video>
                                </media>
                                <file id="file-1"/>
                                <name>/home/davidk/code/python/JC-render/JC-examples/yoga.mp4</name>
                                <rate>
                                    <timebase>24</timebase>
                                    <ntsc>TRUE</ntsc>
                                </rate>
                                <rate>
                                    <timebase>24</timebase>
                                    <ntsc>TRUE</ntsc>
                                </rate>
                                <duration>26</duration>
                                <start>16955</start>
                                <end>16981</end>
                                <in>25642</in>
                                <out>25668</out>
                            </clipitem>
                            <clipitem frameBlend="FALSE" id="clipitem-332">
                                <media>
                                    <video>
                                        <samplecharacteristics>
                                            <height>720</height>
                                            <width>1280</width>
                                        </samplecharacteristics>
                                    </video>
                                </media>
                                <file id="file-1"/>
                                <name>/home/davidk/code/python/JC-render/JC-examples/yoga.mp4</name>
                                <rate>
                                    <timebase>24</timebase>
                                    <ntsc>TRUE</ntsc>
                                </rate>
                                <rate>
                                    <timebase>24</timebase>
                                    <ntsc>TRUE</ntsc>
                                </rate>
                                <duration>82</duration>
                                <start>16981</start>
                                <end>17063</end>
                                <in>25706</in>
                                <out>25788</out>
                            </clipitem>
                            <clipitem frameBlend="FALSE" id="clipitem-333">
                                <media>
                                    <video>
                                        <samplecharacteristics>
                                            <height>720</height>
                                            <width>1280</width>
                                        </samplecharacteristics>
                                    </video>
                                </media>
                                <file id="file-1"/>
                                <name>/home/davidk/code/python/JC-render/JC-examples/yoga.mp4</name>
                                <rate>
                                    <timebase>24</timebase>
                                    <ntsc>TRUE</ntsc>
                                </rate>
                                <rate>
                                    <timebase>24</timebase>
                                    <ntsc>TRUE</ntsc>
                                </rate>
                                <duration>18</duration>
                                <start>17063</start>
                                <end>17081</end>
                                <in>25795</in>
                                <out>25813</out>
                            </clipitem>
                            <clipitem frameBlend="FALSE" id="clipitem-334">
                                <media>
                                    <video>
                                        <samplecharacteristics>
                                            <height>720</height>
                                            <width>1280</width>
                                        </samplecharacteristics>
                                    </video>
                                </media>
                                <file id="file-1"/>
                                <name>/home/davidk/code/python/JC-render/JC-examples/yoga.mp4</name>
                                <rate>
                                    <timebase>24</timebase>
                                    <ntsc>TRUE</ntsc>
                                </rate>
                                <rate>
                                    <timebase>24</timebase>
                                    <ntsc>TRUE</ntsc>
                                </rate>
                                <duration>12</duration>
                                <start>17081</start>
                                <end>17093</end>
                                <in>25859</in>
                                <out>25871</out>
                            </clipitem>
                            <clipitem frameBlend="FALSE" id="clipitem-335">
                                <media>
                                    <video>
                                        <samplecharacteristics>
                                            <height>720</height>
                                            <width>1280</width>
                                        </samplecharacteristics>
                                    </video>
                                </media>
                                <file id="file-1"/>
                                <name>/home/davidk/code/python/JC-render/JC-examples/yoga.mp4</name>
                                <rate>
                                    <timebase>24</timebase>
                                    <ntsc>TRUE</ntsc>
                                </rate>
                                <rate>
                                    <timebase>24</timebase>
                                    <ntsc>TRUE</ntsc>
                                </rate>
                                <duration>12</duration>
                                <start>17093</start>
                                <end>17105</end>
                                <in>25873</in>
                                <out>25885</out>
                            </clipitem>
                            <clipitem frameBlend="FALSE" id="clipitem-336">
                                <media>
                                    <video>
                                        <samplecharacteristics>
                                            <height>720</height>
                                            <width>1280</width>
                                        </samplecharacteristics>
                                    </video>
                                </media>
                                <file id="file-1"/>
                                <name>/home/davidk/code/python/JC-render/JC-examples/yoga.mp4</name>
                                <rate>
                                    <timebase>24</timebase>
                                    <ntsc>TRUE</ntsc>
                                </rate>
                                <rate>
                                    <timebase>24</timebase>
                                    <ntsc>TRUE</ntsc>
                                </rate>
                                <duration>18</duration>
                                <start>17105</start>
                                <end>17123</end>
                                <in>25951</in>
                                <out>25969</out>
                            </clipitem>
                            <clipitem frameBlend="FALSE" id="clipitem-337">
                                <media>
                                    <video>
                                        <samplecharacteristics>
                                            <height>720</height>
                                            <width>1280</width>
                                        </samplecharacteristics>
                                    </video>
                                </media>
                                <file id="file-1"/>
                                <name>/home/davidk/code/python/JC-render/JC-examples/yoga.mp4</name>
                                <rate>
                                    <timebase>24</timebase>
                                    <ntsc>TRUE</ntsc>
                                </rate>
                                <rate>
                                    <timebase>24</timebase>
                                    <ntsc>TRUE</ntsc>
                                </rate>
                                <duration>32</duration>
                                <start>17123</start>
                                <end>17155</end>
                                <in>25978</in>
                                <out>26010</out>
                            </clipitem>
                            <clipitem frameBlend="FALSE" id="clipitem-338">
                                <media>
                                    <video>
                                        <samplecharacteristics>
                                            <height>720</height>
                                            <width>1280</width>
                                        </samplecharacteristics>
                                    </video>
                                </media>
                                <file id="file-1"/>
                                <name>/home/davidk/code/python/JC-render/JC-examples/yoga.mp4</name>
                                <rate>
                                    <timebase>24</timebase>
                                    <ntsc>TRUE</ntsc>
                                </rate>
                                <rate>
                                    <timebase>24</timebase>
                                    <ntsc>TRUE</ntsc>
                                </rate>
                                <duration>13</duration>
                                <start>17155</start>
                                <end>17168</end>
                                <in>26042</in>
                                <out>26055</out>
                            </clipitem>
                            <clipitem frameBlend="FALSE" id="clipitem-339">
                                <media>
                                    <video>
                                        <samplecharacteristics>
                                            <height>720</height>
                                            <width>1280</width>
                                        </samplecharacteristics>
                                    </video>
                                </media>
                                <file id="file-1"/>
                                <name>/home/davidk/code/python/JC-render/JC-examples/yoga.mp4</name>
                                <rate>
                                    <timebase>24</timebase>
                                    <ntsc>TRUE</ntsc>
                                </rate>
                                <rate>
                                    <timebase>24</timebase>
                                    <ntsc>TRUE</ntsc>
                                </rate>
                                <duration>38</duration>
                                <start>17168</start>
                                <end>17206</end>
                                <in>26059</in>
                                <out>26097</out>
                            </clipitem>
                            <clipitem frameBlend="FALSE" id="clipitem-340">
                                <media>
                                    <video>
                                        <samplecharacteristics>
                                            <height>720</height>
                                            <width>1280</width>
                                        </samplecharacteristics>
                                    </video>
                                </media>
                                <file id="file-1"/>
                                <name>/home/davidk/code/python/JC-render/JC-examples/yoga.mp4</name>
                                <rate>
                                    <timebase>24</timebase>
                                    <ntsc>TRUE</ntsc>
                                </rate>
                                <rate>
                                    <timebase>24</timebase>
                                    <ntsc>TRUE</ntsc>
                                </rate>
                                <duration>51</duration>
                                <start>17206</start>
                                <end>17257</end>
                                <in>26132</in>
                                <out>26183</out>
                            </clipitem>
                            <clipitem frameBlend="FALSE" id="clipitem-341">
                                <media>
                                    <video>
                                        <samplecharacteristics>
                                            <height>720</height>
                                            <width>1280</width>
                                        </samplecharacteristics>
                                    </video>
                                </media>
                                <file id="file-1"/>
                                <name>/home/davidk/code/python/JC-render/JC-examples/yoga.mp4</name>
                                <rate>
                                    <timebase>24</timebase>
                                    <ntsc>TRUE</ntsc>
                                </rate>
                                <rate>
                                    <timebase>24</timebase>
                                    <ntsc>TRUE</ntsc>
                                </rate>
                                <duration>82</duration>
                                <start>17257</start>
                                <end>17339</end>
                                <in>26235</in>
                                <out>26317</out>
                            </clipitem>
                            <clipitem frameBlend="FALSE" id="clipitem-342">
                                <media>
                                    <video>
                                        <samplecharacteristics>
                                            <height>720</height>
                                            <width>1280</width>
                                        </samplecharacteristics>
                                    </video>
                                </media>
                                <file id="file-1"/>
                                <name>/home/davidk/code/python/JC-render/JC-examples/yoga.mp4</name>
                                <rate>
                                    <timebase>24</timebase>
                                    <ntsc>TRUE</ntsc>
                                </rate>
                                <rate>
                                    <timebase>24</timebase>
                                    <ntsc>TRUE</ntsc>
                                </rate>
                                <duration>21</duration>
                                <start>17339</start>
                                <end>17360</end>
                                <in>26371</in>
                                <out>26392</out>
                            </clipitem>
                            <clipitem frameBlend="FALSE" id="clipitem-343">
                                <media>
                                    <video>
                                        <samplecharacteristics>
                                            <height>720</height>
                                            <width>1280</width>
                                        </samplecharacteristics>
                                    </video>
                                </media>
                                <file id="file-1"/>
                                <name>/home/davidk/code/python/JC-render/JC-examples/yoga.mp4</name>
                                <rate>
                                    <timebase>24</timebase>
                                    <ntsc>TRUE</ntsc>
                                </rate>
                                <rate>
                                    <timebase>24</timebase>
                                    <ntsc>TRUE</ntsc>
                                </rate>
                                <duration>13</duration>
                                <start>17360</start>
                                <end>17373</end>
                                <in>26457</in>
                                <out>26470</out>
                            </clipitem>
                            <clipitem frameBlend="FALSE" id="clipitem-344">
                                <media>
                                    <video>
                                        <samplecharacteristics>
                                            <height>720</height>
                                            <width>1280</width>
                                        </samplecharacteristics>
                                    </video>
                                </media>
                                <file id="file-1"/>
                                <name>/home/davidk/code/python/JC-render/JC-examples/yoga.mp4</name>
                                <rate>
                                    <timebase>24</timebase>
                                    <ntsc>TRUE</ntsc>
                                </rate>
                                <rate>
                                    <timebase>24</timebase>
                                    <ntsc>TRUE</ntsc>
                                </rate>
                                <duration>12</duration>
                                <start>17373</start>
                                <end>17385</end>
                                <in>26505</in>
                                <out>26517</out>
                            </clipitem>
                            <clipitem frameBlend="FALSE" id="clipitem-345">
                                <media>
                                    <video>
                                        <samplecharacteristics>
                                            <height>720</height>
                                            <width>1280</width>
                                        </samplecharacteristics>
                                    </video>
                                </media>
                                <file id="file-1"/>
                                <name>/home/davidk/code/python/JC-render/JC-examples/yoga.mp4</name>
                                <rate>
                                    <timebase>24</timebase>
                                    <ntsc>TRUE</ntsc>
                                </rate>
                                <rate>
                                    <timebase>24</timebase>
                                    <ntsc>TRUE</ntsc>
                                </rate>
                                <duration>12</duration>
                                <start>17385</start>
                                <end>17397</end>
                                <in>26544</in>
                                <out>26556</out>
                            </clipitem>
                            <clipitem frameBlend="FALSE" id="clipitem-346">
                                <media>
                                    <video>
                                        <samplecharacteristics>
                                            <height>720</height>
                                            <width>1280</width>
                                        </samplecharacteristics>
                                    </video>
                                </media>
                                <file id="file-1"/>
                                <name>/home/davidk/code/python/JC-render/JC-examples/yoga.mp4</name>
                                <rate>
                                    <timebase>24</timebase>
                                    <ntsc>TRUE</ntsc>
                                </rate>
                                <rate>
                                    <timebase>24</timebase>
                                    <ntsc>TRUE</ntsc>
                                </rate>
                                <duration>43</duration>
                                <start>17397</start>
                                <end>17440</end>
                                <in>26622</in>
                                <out>26665</out>
                            </clipitem>
                            <clipitem frameBlend="FALSE" id="clipitem-347">
                                <media>
                                    <video>
                                        <samplecharacteristics>
                                            <height>720</height>
                                            <width>1280</width>
                                        </samplecharacteristics>
                                    </video>
                                </media>
                                <file id="file-1"/>
                                <name>/home/davidk/code/python/JC-render/JC-examples/yoga.mp4</name>
                                <rate>
                                    <timebase>24</timebase>
                                    <ntsc>TRUE</ntsc>
                                </rate>
                                <rate>
                                    <timebase>24</timebase>
                                    <ntsc>TRUE</ntsc>
                                </rate>
                                <duration>23</duration>
                                <start>17440</start>
                                <end>17463</end>
                                <in>26669</in>
                                <out>26692</out>
                            </clipitem>
                            <clipitem frameBlend="FALSE" id="clipitem-348">
                                <media>
                                    <video>
                                        <samplecharacteristics>
                                            <height>720</height>
                                            <width>1280</width>
                                        </samplecharacteristics>
                                    </video>
                                </media>
                                <file id="file-1"/>
                                <name>/home/davidk/code/python/JC-render/JC-examples/yoga.mp4</name>
                                <rate>
                                    <timebase>24</timebase>
                                    <ntsc>TRUE</ntsc>
                                </rate>
                                <rate>
                                    <timebase>24</timebase>
                                    <ntsc>TRUE</ntsc>
                                </rate>
                                <duration>13</duration>
                                <start>17463</start>
                                <end>17476</end>
                                <in>26727</in>
                                <out>26740</out>
                            </clipitem>
                            <clipitem frameBlend="FALSE" id="clipitem-349">
                                <media>
                                    <video>
                                        <samplecharacteristics>
                                            <height>720</height>
                                            <width>1280</width>
                                        </samplecharacteristics>
                                    </video>
                                </media>
                                <file id="file-1"/>
                                <name>/home/davidk/code/python/JC-render/JC-examples/yoga.mp4</name>
                                <rate>
                                    <timebase>24</timebase>
                                    <ntsc>TRUE</ntsc>
                                </rate>
                                <rate>
                                    <timebase>24</timebase>
                                    <ntsc>TRUE</ntsc>
                                </rate>
                                <duration>13</duration>
                                <start>17476</start>
                                <end>17489</end>
                                <in>26883</in>
                                <out>26896</out>
                            </clipitem>
                            <clipitem frameBlend="FALSE" id="clipitem-350">
                                <media>
                                    <video>
                                        <samplecharacteristics>
                                            <height>720</height>
                                            <width>1280</width>
                                        </samplecharacteristics>
                                    </video>
                                </media>
                                <file id="file-1"/>
                                <name>/home/davidk/code/python/JC-render/JC-examples/yoga.mp4</name>
                                <rate>
                                    <timebase>24</timebase>
                                    <ntsc>TRUE</ntsc>
                                </rate>
                                <rate>
                                    <timebase>24</timebase>
                                    <ntsc>TRUE</ntsc>
                                </rate>
                                <duration>46</duration>
                                <start>17489</start>
                                <end>17535</end>
                                <in>27061</in>
                                <out>27107</out>
                            </clipitem>
                            <clipitem frameBlend="FALSE" id="clipitem-351">
                                <media>
                                    <video>
                                        <samplecharacteristics>
                                            <height>720</height>
                                            <width>1280</width>
                                        </samplecharacteristics>
                                    </video>
                                </media>
                                <file id="file-1"/>
                                <name>/home/davidk/code/python/JC-render/JC-examples/yoga.mp4</name>
                                <rate>
                                    <timebase>24</timebase>
                                    <ntsc>TRUE</ntsc>
                                </rate>
                                <rate>
                                    <timebase>24</timebase>
                                    <ntsc>TRUE</ntsc>
                                </rate>
                                <duration>12</duration>
                                <start>17535</start>
                                <end>17547</end>
                                <in>27120</in>
                                <out>27132</out>
                            </clipitem>
                            <clipitem frameBlend="FALSE" id="clipitem-352">
                                <media>
                                    <video>
                                        <samplecharacteristics>
                                            <height>720</height>
                                            <width>1280</width>
                                        </samplecharacteristics>
                                    </video>
                                </media>
                                <file id="file-1"/>
                                <name>/home/davidk/code/python/JC-render/JC-examples/yoga.mp4</name>
                                <rate>
                                    <timebase>24</timebase>
                                    <ntsc>TRUE</ntsc>
                                </rate>
                                <rate>
                                    <timebase>24</timebase>
                                    <ntsc>TRUE</ntsc>
                                </rate>
                                <duration>29</duration>
                                <start>17547</start>
                                <end>17576</end>
                                <in>27176</in>
                                <out>27205</out>
                            </clipitem>
                            <clipitem frameBlend="FALSE" id="clipitem-353">
                                <media>
                                    <video>
                                        <samplecharacteristics>
                                            <height>720</height>
                                            <width>1280</width>
                                        </samplecharacteristics>
                                    </video>
                                </media>
                                <file id="file-1"/>
                                <name>/home/davidk/code/python/JC-render/JC-examples/yoga.mp4</name>
                                <rate>
                                    <timebase>24</timebase>
                                    <ntsc>TRUE</ntsc>
                                </rate>
                                <rate>
                                    <timebase>24</timebase>
                                    <ntsc>TRUE</ntsc>
                                </rate>
                                <duration>13</duration>
                                <start>17576</start>
                                <end>17589</end>
                                <in>27206</in>
                                <out>27219</out>
                            </clipitem>
                            <clipitem frameBlend="FALSE" id="clipitem-354">
                                <media>
                                    <video>
                                        <samplecharacteristics>
                                            <height>720</height>
                                            <width>1280</width>
                                        </samplecharacteristics>
                                    </video>
                                </media>
                                <file id="file-1"/>
                                <name>/home/davidk/code/python/JC-render/JC-examples/yoga.mp4</name>
                                <rate>
                                    <timebase>24</timebase>
                                    <ntsc>TRUE</ntsc>
                                </rate>
                                <rate>
                                    <timebase>24</timebase>
                                    <ntsc>TRUE</ntsc>
                                </rate>
                                <duration>54</duration>
                                <start>17589</start>
                                <end>17643</end>
                                <in>27265</in>
                                <out>27319</out>
                            </clipitem>
                            <clipitem frameBlend="FALSE" id="clipitem-355">
                                <media>
                                    <video>
                                        <samplecharacteristics>
                                            <height>720</height>
                                            <width>1280</width>
                                        </samplecharacteristics>
                                    </video>
                                </media>
                                <file id="file-1"/>
                                <name>/home/davidk/code/python/JC-render/JC-examples/yoga.mp4</name>
                                <rate>
                                    <timebase>24</timebase>
                                    <ntsc>TRUE</ntsc>
                                </rate>
                                <rate>
                                    <timebase>24</timebase>
                                    <ntsc>TRUE</ntsc>
                                </rate>
                                <duration>90</duration>
                                <start>17643</start>
                                <end>17733</end>
                                <in>27340</in>
                                <out>27430</out>
                            </clipitem>
                            <clipitem frameBlend="FALSE" id="clipitem-356">
                                <media>
                                    <video>
                                        <samplecharacteristics>
                                            <height>720</height>
                                            <width>1280</width>
                                        </samplecharacteristics>
                                    </video>
                                </media>
                                <file id="file-1"/>
                                <name>/home/davidk/code/python/JC-render/JC-examples/yoga.mp4</name>
                                <rate>
                                    <timebase>24</timebase>
                                    <ntsc>TRUE</ntsc>
                                </rate>
                                <rate>
                                    <timebase>24</timebase>
                                    <ntsc>TRUE</ntsc>
                                </rate>
                                <duration>26</duration>
                                <start>17733</start>
                                <end>17759</end>
                                <in>27443</in>
                                <out>27469</out>
                            </clipitem>
                            <clipitem frameBlend="FALSE" id="clipitem-357">
                                <media>
                                    <video>
                                        <samplecharacteristics>
                                            <height>720</height>
                                            <width>1280</width>
                                        </samplecharacteristics>
                                    </video>
                                </media>
                                <file id="file-1"/>
                                <name>/home/davidk/code/python/JC-render/JC-examples/yoga.mp4</name>
                                <rate>
                                    <timebase>24</timebase>
                                    <ntsc>TRUE</ntsc>
                                </rate>
                                <rate>
                                    <timebase>24</timebase>
                                    <ntsc>TRUE</ntsc>
                                </rate>
                                <duration>68</duration>
                                <start>17759</start>
                                <end>17827</end>
                                <in>27476</in>
                                <out>27544</out>
                            </clipitem>
                            <clipitem frameBlend="FALSE" id="clipitem-358">
                                <media>
                                    <video>
                                        <samplecharacteristics>
                                            <height>720</height>
                                            <width>1280</width>
                                        </samplecharacteristics>
                                    </video>
                                </media>
                                <file id="file-1"/>
                                <name>/home/davidk/code/python/JC-render/JC-examples/yoga.mp4</name>
                                <rate>
                                    <timebase>24</timebase>
                                    <ntsc>TRUE</ntsc>
                                </rate>
                                <rate>
                                    <timebase>24</timebase>
                                    <ntsc>TRUE</ntsc>
                                </rate>
                                <duration>104</duration>
                                <start>17827</start>
                                <end>17931</end>
                                <in>27549</in>
                                <out>27653</out>
                            </clipitem>
                            <clipitem frameBlend="FALSE" id="clipitem-359">
                                <media>
                                    <video>
                                        <samplecharacteristics>
                                            <height>720</height>
                                            <width>1280</width>
                                        </samplecharacteristics>
                                    </video>
                                </media>
                                <file id="file-1"/>
                                <name>/home/davidk/code/python/JC-render/JC-examples/yoga.mp4</name>
                                <rate>
                                    <timebase>24</timebase>
                                    <ntsc>TRUE</ntsc>
                                </rate>
                                <rate>
                                    <timebase>24</timebase>
                                    <ntsc>TRUE</ntsc>
                                </rate>
                                <duration>12</duration>
                                <start>17931</start>
                                <end>17943</end>
                                <in>27716</in>
                                <out>27728</out>
                            </clipitem>
                            <clipitem frameBlend="FALSE" id="clipitem-360">
                                <media>
                                    <video>
                                        <samplecharacteristics>
                                            <height>720</height>
                                            <width>1280</width>
                                        </samplecharacteristics>
                                    </video>
                                </media>
                                <file id="file-1"/>
                                <name>/home/davidk/code/python/JC-render/JC-examples/yoga.mp4</name>
                                <rate>
                                    <timebase>24</timebase>
                                    <ntsc>TRUE</ntsc>
                                </rate>
                                <rate>
                                    <timebase>24</timebase>
                                    <ntsc>TRUE</ntsc>
                                </rate>
                                <duration>79</duration>
                                <start>17943</start>
                                <end>18022</end>
                                <in>27847</in>
                                <out>27926</out>
                            </clipitem>
                            <clipitem frameBlend="FALSE" id="clipitem-361">
                                <media>
                                    <video>
                                        <samplecharacteristics>
                                            <height>720</height>
                                            <width>1280</width>
                                        </samplecharacteristics>
                                    </video>
                                </media>
                                <file id="file-1"/>
                                <name>/home/davidk/code/python/JC-render/JC-examples/yoga.mp4</name>
                                <rate>
                                    <timebase>24</timebase>
                                    <ntsc>TRUE</ntsc>
                                </rate>
                                <rate>
                                    <timebase>24</timebase>
                                    <ntsc>TRUE</ntsc>
                                </rate>
                                <duration>21</duration>
                                <start>18022</start>
                                <end>18043</end>
                                <in>27952</in>
                                <out>27973</out>
                            </clipitem>
                            <clipitem frameBlend="FALSE" id="clipitem-362">
                                <media>
                                    <video>
                                        <samplecharacteristics>
                                            <height>720</height>
                                            <width>1280</width>
                                        </samplecharacteristics>
                                    </video>
                                </media>
                                <file id="file-1"/>
                                <name>/home/davidk/code/python/JC-render/JC-examples/yoga.mp4</name>
                                <rate>
                                    <timebase>24</timebase>
                                    <ntsc>TRUE</ntsc>
                                </rate>
                                <rate>
                                    <timebase>24</timebase>
                                    <ntsc>TRUE</ntsc>
                                </rate>
                                <duration>90</duration>
                                <start>18043</start>
                                <end>18133</end>
                                <in>28014</in>
                                <out>28104</out>
                            </clipitem>
                            <clipitem frameBlend="FALSE" id="clipitem-363">
                                <media>
                                    <video>
                                        <samplecharacteristics>
                                            <height>720</height>
                                            <width>1280</width>
                                        </samplecharacteristics>
                                    </video>
                                </media>
                                <file id="file-1"/>
                                <name>/home/davidk/code/python/JC-render/JC-examples/yoga.mp4</name>
                                <rate>
                                    <timebase>24</timebase>
                                    <ntsc>TRUE</ntsc>
                                </rate>
                                <rate>
                                    <timebase>24</timebase>
                                    <ntsc>TRUE</ntsc>
                                </rate>
                                <duration>35</duration>
                                <start>18133</start>
                                <end>18168</end>
                                <in>28136</in>
                                <out>28171</out>
                            </clipitem>
                            <clipitem frameBlend="FALSE" id="clipitem-364">
                                <media>
                                    <video>
                                        <samplecharacteristics>
                                            <height>720</height>
                                            <width>1280</width>
                                        </samplecharacteristics>
                                    </video>
                                </media>
                                <file id="file-1"/>
                                <name>/home/davidk/code/python/JC-render/JC-examples/yoga.mp4</name>
                                <rate>
                                    <timebase>24</timebase>
                                    <ntsc>TRUE</ntsc>
                                </rate>
                                <rate>
                                    <timebase>24</timebase>
                                    <ntsc>TRUE</ntsc>
                                </rate>
                                <duration>62</duration>
                                <start>18168</start>
                                <end>18230</end>
                                <in>28178</in>
                                <out>28240</out>
                            </clipitem>
                            <clipitem frameBlend="FALSE" id="clipitem-365">
                                <media>
                                    <video>
                                        <samplecharacteristics>
                                            <height>720</height>
                                            <width>1280</width>
                                        </samplecharacteristics>
                                    </video>
                                </media>
                                <file id="file-1"/>
                                <name>/home/davidk/code/python/JC-render/JC-examples/yoga.mp4</name>
                                <rate>
                                    <timebase>24</timebase>
                                    <ntsc>TRUE</ntsc>
                                </rate>
                                <rate>
                                    <timebase>24</timebase>
                                    <ntsc>TRUE</ntsc>
                                </rate>
                                <duration>40</duration>
                                <start>18230</start>
                                <end>18270</end>
                                <in>28295</in>
                                <out>28335</out>
                            </clipitem>
                            <clipitem frameBlend="FALSE" id="clipitem-366">
                                <media>
                                    <video>
                                        <samplecharacteristics>
                                            <height>720</height>
                                            <width>1280</width>
                                        </samplecharacteristics>
                                    </video>
                                </media>
                                <file id="file-1"/>
                                <name>/home/davidk/code/python/JC-render/JC-examples/yoga.mp4</name>
                                <rate>
                                    <timebase>24</timebase>
                                    <ntsc>TRUE</ntsc>
                                </rate>
                                <rate>
                                    <timebase>24</timebase>
                                    <ntsc>TRUE</ntsc>
                                </rate>
                                <duration>138</duration>
                                <start>18270</start>
                                <end>18408</end>
                                <in>28350</in>
                                <out>28488</out>
                            </clipitem>
                            <clipitem frameBlend="FALSE" id="clipitem-367">
                                <media>
                                    <video>
                                        <samplecharacteristics>
                                            <height>720</height>
                                            <width>1280</width>
                                        </samplecharacteristics>
                                    </video>
                                </media>
                                <file id="file-1"/>
                                <name>/home/davidk/code/python/JC-render/JC-examples/yoga.mp4</name>
                                <rate>
                                    <timebase>24</timebase>
                                    <ntsc>TRUE</ntsc>
                                </rate>
                                <rate>
                                    <timebase>24</timebase>
                                    <ntsc>TRUE</ntsc>
                                </rate>
                                <duration>12</duration>
                                <start>18408</start>
                                <end>18420</end>
                                <in>28490</in>
                                <out>28502</out>
                            </clipitem>
                            <clipitem frameBlend="FALSE" id="clipitem-368">
                                <media>
                                    <video>
                                        <samplecharacteristics>
                                            <height>720</height>
                                            <width>1280</width>
                                        </samplecharacteristics>
                                    </video>
                                </media>
                                <file id="file-1"/>
                                <name>/home/davidk/code/python/JC-render/JC-examples/yoga.mp4</name>
                                <rate>
                                    <timebase>24</timebase>
                                    <ntsc>TRUE</ntsc>
                                </rate>
                                <rate>
                                    <timebase>24</timebase>
                                    <ntsc>TRUE</ntsc>
                                </rate>
                                <duration>118</duration>
                                <start>18420</start>
                                <end>18538</end>
                                <in>28526</in>
                                <out>28644</out>
                            </clipitem>
                            <clipitem frameBlend="FALSE" id="clipitem-369">
                                <media>
                                    <video>
                                        <samplecharacteristics>
                                            <height>720</height>
                                            <width>1280</width>
                                        </samplecharacteristics>
                                    </video>
                                </media>
                                <file id="file-1"/>
                                <name>/home/davidk/code/python/JC-render/JC-examples/yoga.mp4</name>
                                <rate>
                                    <timebase>24</timebase>
                                    <ntsc>TRUE</ntsc>
                                </rate>
                                <rate>
                                    <timebase>24</timebase>
                                    <ntsc>TRUE</ntsc>
                                </rate>
                                <duration>68</duration>
                                <start>18538</start>
                                <end>18606</end>
                                <in>28671</in>
                                <out>28739</out>
                            </clipitem>
                            <clipitem frameBlend="FALSE" id="clipitem-370">
                                <media>
                                    <video>
                                        <samplecharacteristics>
                                            <height>720</height>
                                            <width>1280</width>
                                        </samplecharacteristics>
                                    </video>
                                </media>
                                <file id="file-1"/>
                                <name>/home/davidk/code/python/JC-render/JC-examples/yoga.mp4</name>
                                <rate>
                                    <timebase>24</timebase>
                                    <ntsc>TRUE</ntsc>
                                </rate>
                                <rate>
                                    <timebase>24</timebase>
                                    <ntsc>TRUE</ntsc>
                                </rate>
                                <duration>43</duration>
                                <start>18606</start>
                                <end>18649</end>
                                <in>28740</in>
                                <out>28783</out>
                            </clipitem>
                            <clipitem frameBlend="FALSE" id="clipitem-371">
                                <media>
                                    <video>
                                        <samplecharacteristics>
                                            <height>720</height>
                                            <width>1280</width>
                                        </samplecharacteristics>
                                    </video>
                                </media>
                                <file id="file-1"/>
                                <name>/home/davidk/code/python/JC-render/JC-examples/yoga.mp4</name>
                                <rate>
                                    <timebase>24</timebase>
                                    <ntsc>TRUE</ntsc>
                                </rate>
                                <rate>
                                    <timebase>24</timebase>
                                    <ntsc>TRUE</ntsc>
                                </rate>
                                <duration>43</duration>
                                <start>18649</start>
                                <end>18692</end>
                                <in>28852</in>
                                <out>28895</out>
                            </clipitem>
                            <clipitem frameBlend="FALSE" id="clipitem-372">
                                <media>
                                    <video>
                                        <samplecharacteristics>
                                            <height>720</height>
                                            <width>1280</width>
                                        </samplecharacteristics>
                                    </video>
                                </media>
                                <file id="file-1"/>
                                <name>/home/davidk/code/python/JC-render/JC-examples/yoga.mp4</name>
                                <rate>
                                    <timebase>24</timebase>
                                    <ntsc>TRUE</ntsc>
                                </rate>
                                <rate>
                                    <timebase>24</timebase>
                                    <ntsc>TRUE</ntsc>
                                </rate>
                                <duration>29</duration>
                                <start>18692</start>
                                <end>18721</end>
                                <in>28896</in>
                                <out>28925</out>
                            </clipitem>
                            <clipitem frameBlend="FALSE" id="clipitem-373">
                                <media>
                                    <video>
                                        <samplecharacteristics>
                                            <height>720</height>
                                            <width>1280</width>
                                        </samplecharacteristics>
                                    </video>
                                </media>
                                <file id="file-1"/>
                                <name>/home/davidk/code/python/JC-render/JC-examples/yoga.mp4</name>
                                <rate>
                                    <timebase>24</timebase>
                                    <ntsc>TRUE</ntsc>
                                </rate>
                                <rate>
                                    <timebase>24</timebase>
                                    <ntsc>TRUE</ntsc>
                                </rate>
                                <duration>60</duration>
                                <start>18721</start>
                                <end>18781</end>
                                <in>28938</in>
                                <out>28998</out>
                            </clipitem>
                            <clipitem frameBlend="FALSE" id="clipitem-374">
                                <media>
                                    <video>
                                        <samplecharacteristics>
                                            <height>720</height>
                                            <width>1280</width>
                                        </samplecharacteristics>
                                    </video>
                                </media>
                                <file id="file-1"/>
                                <name>/home/davidk/code/python/JC-render/JC-examples/yoga.mp4</name>
                                <rate>
                                    <timebase>24</timebase>
                                    <ntsc>TRUE</ntsc>
                                </rate>
                                <rate>
                                    <timebase>24</timebase>
                                    <ntsc>TRUE</ntsc>
                                </rate>
                                <duration>49</duration>
                                <start>18781</start>
                                <end>18830</end>
                                <in>29002</in>
                                <out>29051</out>
                            </clipitem>
                            <clipitem frameBlend="FALSE" id="clipitem-375">
                                <media>
                                    <video>
                                        <samplecharacteristics>
                                            <height>720</height>
                                            <width>1280</width>
                                        </samplecharacteristics>
                                    </video>
                                </media>
                                <file id="file-1"/>
                                <name>/home/davidk/code/python/JC-render/JC-examples/yoga.mp4</name>
                                <rate>
                                    <timebase>24</timebase>
                                    <ntsc>TRUE</ntsc>
                                </rate>
                                <rate>
                                    <timebase>24</timebase>
                                    <ntsc>TRUE</ntsc>
                                </rate>
                                <duration>79</duration>
                                <start>18830</start>
                                <end>18909</end>
                                <in>29055</in>
                                <out>29134</out>
                            </clipitem>
                            <clipitem frameBlend="FALSE" id="clipitem-376">
                                <media>
                                    <video>
                                        <samplecharacteristics>
                                            <height>720</height>
                                            <width>1280</width>
                                        </samplecharacteristics>
                                    </video>
                                </media>
                                <file id="file-1"/>
                                <name>/home/davidk/code/python/JC-render/JC-examples/yoga.mp4</name>
                                <rate>
                                    <timebase>24</timebase>
                                    <ntsc>TRUE</ntsc>
                                </rate>
                                <rate>
                                    <timebase>24</timebase>
                                    <ntsc>TRUE</ntsc>
                                </rate>
                                <duration>60</duration>
                                <start>18909</start>
                                <end>18969</end>
                                <in>29144</in>
                                <out>29204</out>
                            </clipitem>
                            <clipitem frameBlend="FALSE" id="clipitem-377">
                                <media>
                                    <video>
                                        <samplecharacteristics>
                                            <height>720</height>
                                            <width>1280</width>
                                        </samplecharacteristics>
                                    </video>
                                </media>
                                <file id="file-1"/>
                                <name>/home/davidk/code/python/JC-render/JC-examples/yoga.mp4</name>
                                <rate>
                                    <timebase>24</timebase>
                                    <ntsc>TRUE</ntsc>
                                </rate>
                                <rate>
                                    <timebase>24</timebase>
                                    <ntsc>TRUE</ntsc>
                                </rate>
                                <duration>71</duration>
                                <start>18969</start>
                                <end>19040</end>
                                <in>29230</in>
                                <out>29301</out>
                            </clipitem>
                            <clipitem frameBlend="FALSE" id="clipitem-378">
                                <media>
                                    <video>
                                        <samplecharacteristics>
                                            <height>720</height>
                                            <width>1280</width>
                                        </samplecharacteristics>
                                    </video>
                                </media>
                                <file id="file-1"/>
                                <name>/home/davidk/code/python/JC-render/JC-examples/yoga.mp4</name>
                                <rate>
                                    <timebase>24</timebase>
                                    <ntsc>TRUE</ntsc>
                                </rate>
                                <rate>
                                    <timebase>24</timebase>
                                    <ntsc>TRUE</ntsc>
                                </rate>
                                <duration>38</duration>
                                <start>19040</start>
                                <end>19078</end>
                                <in>29305</in>
                                <out>29343</out>
                            </clipitem>
                            <clipitem frameBlend="FALSE" id="clipitem-379">
                                <media>
                                    <video>
                                        <samplecharacteristics>
                                            <height>720</height>
                                            <width>1280</width>
                                        </samplecharacteristics>
                                    </video>
                                </media>
                                <file id="file-1"/>
                                <name>/home/davidk/code/python/JC-render/JC-examples/yoga.mp4</name>
                                <rate>
                                    <timebase>24</timebase>
                                    <ntsc>TRUE</ntsc>
                                </rate>
                                <rate>
                                    <timebase>24</timebase>
                                    <ntsc>TRUE</ntsc>
                                </rate>
                                <duration>12</duration>
                                <start>19078</start>
                                <end>19090</end>
                                <in>29350</in>
                                <out>29362</out>
                            </clipitem>
                            <clipitem frameBlend="FALSE" id="clipitem-380">
                                <media>
                                    <video>
                                        <samplecharacteristics>
                                            <height>720</height>
                                            <width>1280</width>
                                        </samplecharacteristics>
                                    </video>
                                </media>
                                <file id="file-1"/>
                                <name>/home/davidk/code/python/JC-render/JC-examples/yoga.mp4</name>
                                <rate>
                                    <timebase>24</timebase>
                                    <ntsc>TRUE</ntsc>
                                </rate>
                                <rate>
                                    <timebase>24</timebase>
                                    <ntsc>TRUE</ntsc>
                                </rate>
                                <duration>38</duration>
                                <start>19090</start>
                                <end>19128</end>
                                <in>29369</in>
                                <out>29407</out>
                            </clipitem>
                            <clipitem frameBlend="FALSE" id="clipitem-381">
                                <media>
                                    <video>
                                        <samplecharacteristics>
                                            <height>720</height>
                                            <width>1280</width>
                                        </samplecharacteristics>
                                    </video>
                                </media>
                                <file id="file-1"/>
                                <name>/home/davidk/code/python/JC-render/JC-examples/yoga.mp4</name>
                                <rate>
                                    <timebase>24</timebase>
                                    <ntsc>TRUE</ntsc>
                                </rate>
                                <rate>
                                    <timebase>24</timebase>
                                    <ntsc>TRUE</ntsc>
                                </rate>
                                <duration>15</duration>
                                <start>19128</start>
                                <end>19143</end>
                                <in>29414</in>
                                <out>29429</out>
                            </clipitem>
                            <clipitem frameBlend="FALSE" id="clipitem-382">
                                <media>
                                    <video>
                                        <samplecharacteristics>
                                            <height>720</height>
                                            <width>1280</width>
                                        </samplecharacteristics>
                                    </video>
                                </media>
                                <file id="file-1"/>
                                <name>/home/davidk/code/python/JC-render/JC-examples/yoga.mp4</name>
                                <rate>
                                    <timebase>24</timebase>
                                    <ntsc>TRUE</ntsc>
                                </rate>
                                <rate>
                                    <timebase>24</timebase>
                                    <ntsc>TRUE</ntsc>
                                </rate>
                                <duration>15</duration>
                                <start>19143</start>
                                <end>19158</end>
                                <in>29442</in>
                                <out>29457</out>
                            </clipitem>
                            <clipitem frameBlend="FALSE" id="clipitem-383">
                                <media>
                                    <video>
                                        <samplecharacteristics>
                                            <height>720</height>
                                            <width>1280</width>
                                        </samplecharacteristics>
                                    </video>
                                </media>
                                <file id="file-1"/>
                                <name>/home/davidk/code/python/JC-render/JC-examples/yoga.mp4</name>
                                <rate>
                                    <timebase>24</timebase>
                                    <ntsc>TRUE</ntsc>
                                </rate>
                                <rate>
                                    <timebase>24</timebase>
                                    <ntsc>TRUE</ntsc>
                                </rate>
                                <duration>12</duration>
                                <start>19158</start>
                                <end>19170</end>
                                <in>29481</in>
                                <out>29493</out>
                            </clipitem>
                            <clipitem frameBlend="FALSE" id="clipitem-384">
                                <media>
                                    <video>
                                        <samplecharacteristics>
                                            <height>720</height>
                                            <width>1280</width>
                                        </samplecharacteristics>
                                    </video>
                                </media>
                                <file id="file-1"/>
                                <name>/home/davidk/code/python/JC-render/JC-examples/yoga.mp4</name>
                                <rate>
                                    <timebase>24</timebase>
                                    <ntsc>TRUE</ntsc>
                                </rate>
                                <rate>
                                    <timebase>24</timebase>
                                    <ntsc>TRUE</ntsc>
                                </rate>
                                <duration>13</duration>
                                <start>19170</start>
                                <end>19183</end>
                                <in>29500</in>
                                <out>29513</out>
                            </clipitem>
                            <clipitem frameBlend="FALSE" id="clipitem-385">
                                <media>
                                    <video>
                                        <samplecharacteristics>
                                            <height>720</height>
                                            <width>1280</width>
                                        </samplecharacteristics>
                                    </video>
                                </media>
                                <file id="file-1"/>
                                <name>/home/davidk/code/python/JC-render/JC-examples/yoga.mp4</name>
                                <rate>
                                    <timebase>24</timebase>
                                    <ntsc>TRUE</ntsc>
                                </rate>
                                <rate>
                                    <timebase>24</timebase>
                                    <ntsc>TRUE</ntsc>
                                </rate>
                                <duration>13</duration>
                                <start>19183</start>
                                <end>19196</end>
                                <in>29567</in>
                                <out>29580</out>
                            </clipitem>
                            <clipitem frameBlend="FALSE" id="clipitem-386">
                                <media>
                                    <video>
                                        <samplecharacteristics>
                                            <height>720</height>
                                            <width>1280</width>
                                        </samplecharacteristics>
                                    </video>
                                </media>
                                <file id="file-1"/>
                                <name>/home/davidk/code/python/JC-render/JC-examples/yoga.mp4</name>
                                <rate>
                                    <timebase>24</timebase>
                                    <ntsc>TRUE</ntsc>
                                </rate>
                                <rate>
                                    <timebase>24</timebase>
                                    <ntsc>TRUE</ntsc>
                                </rate>
                                <duration>74</duration>
                                <start>19196</start>
                                <end>19270</end>
                                <in>29795</in>
                                <out>29869</out>
                            </clipitem>
                            <clipitem frameBlend="FALSE" id="clipitem-387">
                                <media>
                                    <video>
                                        <samplecharacteristics>
                                            <height>720</height>
                                            <width>1280</width>
                                        </samplecharacteristics>
                                    </video>
                                </media>
                                <file id="file-1"/>
                                <name>/home/davidk/code/python/JC-render/JC-examples/yoga.mp4</name>
                                <rate>
                                    <timebase>24</timebase>
                                    <ntsc>TRUE</ntsc>
                                </rate>
                                <rate>
                                    <timebase>24</timebase>
                                    <ntsc>TRUE</ntsc>
                                </rate>
                                <duration>54</duration>
                                <start>19270</start>
                                <end>19324</end>
                                <in>29876</in>
                                <out>29930</out>
                            </clipitem>
                            <clipitem frameBlend="FALSE" id="clipitem-388">
                                <media>
                                    <video>
                                        <samplecharacteristics>
                                            <height>720</height>
                                            <width>1280</width>
                                        </samplecharacteristics>
                                    </video>
                                </media>
                                <file id="file-1"/>
                                <name>/home/davidk/code/python/JC-render/JC-examples/yoga.mp4</name>
                                <rate>
                                    <timebase>24</timebase>
                                    <ntsc>TRUE</ntsc>
                                </rate>
                                <rate>
                                    <timebase>24</timebase>
                                    <ntsc>TRUE</ntsc>
                                </rate>
                                <duration>13</duration>
                                <start>19324</start>
                                <end>19337</end>
                                <in>29940</in>
                                <out>29953</out>
                            </clipitem>
                            <clipitem frameBlend="FALSE" id="clipitem-389">
                                <media>
                                    <video>
                                        <samplecharacteristics>
                                            <height>720</height>
                                            <width>1280</width>
                                        </samplecharacteristics>
                                    </video>
                                </media>
                                <file id="file-1"/>
                                <name>/home/davidk/code/python/JC-render/JC-examples/yoga.mp4</name>
                                <rate>
                                    <timebase>24</timebase>
                                    <ntsc>TRUE</ntsc>
                                </rate>
                                <rate>
                                    <timebase>24</timebase>
                                    <ntsc>TRUE</ntsc>
                                </rate>
                                <duration>43</duration>
                                <start>19337</start>
                                <end>19380</end>
                                <in>29979</in>
                                <out>30022</out>
                            </clipitem>
                            <clipitem frameBlend="FALSE" id="clipitem-390">
                                <media>
                                    <video>
                                        <samplecharacteristics>
                                            <height>720</height>
                                            <width>1280</width>
                                        </samplecharacteristics>
                                    </video>
                                </media>
                                <file id="file-1"/>
                                <name>/home/davidk/code/python/JC-render/JC-examples/yoga.mp4</name>
                                <rate>
                                    <timebase>24</timebase>
                                    <ntsc>TRUE</ntsc>
                                </rate>
                                <rate>
                                    <timebase>24</timebase>
                                    <ntsc>TRUE</ntsc>
                                </rate>
                                <duration>52</duration>
                                <start>19380</start>
                                <end>19432</end>
                                <in>30026</in>
                                <out>30078</out>
                            </clipitem>
                            <clipitem frameBlend="FALSE" id="clipitem-391">
                                <media>
                                    <video>
                                        <samplecharacteristics>
                                            <height>720</height>
                                            <width>1280</width>
                                        </samplecharacteristics>
                                    </video>
                                </media>
                                <file id="file-1"/>
                                <name>/home/davidk/code/python/JC-render/JC-examples/yoga.mp4</name>
                                <rate>
                                    <timebase>24</timebase>
                                    <ntsc>TRUE</ntsc>
                                </rate>
                                <rate>
                                    <timebase>24</timebase>
                                    <ntsc>TRUE</ntsc>
                                </rate>
                                <duration>12</duration>
                                <start>19432</start>
                                <end>19444</end>
                                <in>30116</in>
                                <out>30128</out>
                            </clipitem>
                            <clipitem frameBlend="FALSE" id="clipitem-392">
                                <media>
                                    <video>
                                        <samplecharacteristics>
                                            <height>720</height>
                                            <width>1280</width>
                                        </samplecharacteristics>
                                    </video>
                                </media>
                                <file id="file-1"/>
                                <name>/home/davidk/code/python/JC-render/JC-examples/yoga.mp4</name>
                                <rate>
                                    <timebase>24</timebase>
                                    <ntsc>TRUE</ntsc>
                                </rate>
                                <rate>
                                    <timebase>24</timebase>
                                    <ntsc>TRUE</ntsc>
                                </rate>
                                <duration>13</duration>
                                <start>19444</start>
                                <end>19457</end>
                                <in>30132</in>
                                <out>30145</out>
                            </clipitem>
                            <clipitem frameBlend="FALSE" id="clipitem-393">
                                <media>
                                    <video>
                                        <samplecharacteristics>
                                            <height>720</height>
                                            <width>1280</width>
                                        </samplecharacteristics>
                                    </video>
                                </media>
                                <file id="file-1"/>
                                <name>/home/davidk/code/python/JC-render/JC-examples/yoga.mp4</name>
                                <rate>
                                    <timebase>24</timebase>
                                    <ntsc>TRUE</ntsc>
                                </rate>
                                <rate>
                                    <timebase>24</timebase>
                                    <ntsc>TRUE</ntsc>
                                </rate>
                                <duration>12</duration>
                                <start>19457</start>
                                <end>19469</end>
                                <in>30219</in>
                                <out>30231</out>
                            </clipitem>
                            <clipitem frameBlend="FALSE" id="clipitem-394">
                                <media>
                                    <video>
                                        <samplecharacteristics>
                                            <height>720</height>
                                            <width>1280</width>
                                        </samplecharacteristics>
                                    </video>
                                </media>
                                <file id="file-1"/>
                                <name>/home/davidk/code/python/JC-render/JC-examples/yoga.mp4</name>
                                <rate>
                                    <timebase>24</timebase>
                                    <ntsc>TRUE</ntsc>
                                </rate>
                                <rate>
                                    <timebase>24</timebase>
                                    <ntsc>TRUE</ntsc>
                                </rate>
                                <duration>41</duration>
                                <start>19469</start>
                                <end>19510</end>
                                <in>30235</in>
                                <out>30276</out>
                            </clipitem>
                            <clipitem frameBlend="FALSE" id="clipitem-395">
                                <media>
                                    <video>
                                        <samplecharacteristics>
                                            <height>720</height>
                                            <width>1280</width>
                                        </samplecharacteristics>
                                    </video>
                                </media>
                                <file id="file-1"/>
                                <name>/home/davidk/code/python/JC-render/JC-examples/yoga.mp4</name>
                                <rate>
                                    <timebase>24</timebase>
                                    <ntsc>TRUE</ntsc>
                                </rate>
                                <rate>
                                    <timebase>24</timebase>
                                    <ntsc>TRUE</ntsc>
                                </rate>
                                <duration>115</duration>
                                <start>19510</start>
                                <end>19625</end>
                                <in>30297</in>
                                <out>30412</out>
                            </clipitem>
                            <clipitem frameBlend="FALSE" id="clipitem-396">
                                <media>
                                    <video>
                                        <samplecharacteristics>
                                            <height>720</height>
                                            <width>1280</width>
                                        </samplecharacteristics>
                                    </video>
                                </media>
                                <file id="file-1"/>
                                <name>/home/davidk/code/python/JC-render/JC-examples/yoga.mp4</name>
                                <rate>
                                    <timebase>24</timebase>
                                    <ntsc>TRUE</ntsc>
                                </rate>
                                <rate>
                                    <timebase>24</timebase>
                                    <ntsc>TRUE</ntsc>
                                </rate>
                                <duration>109</duration>
                                <start>19625</start>
                                <end>19734</end>
                                <in>30425</in>
                                <out>30534</out>
                            </clipitem>
                            <clipitem frameBlend="FALSE" id="clipitem-397">
                                <media>
                                    <video>
                                        <samplecharacteristics>
                                            <height>720</height>
                                            <width>1280</width>
                                        </samplecharacteristics>
                                    </video>
                                </media>
                                <file id="file-1"/>
                                <name>/home/davidk/code/python/JC-render/JC-examples/yoga.mp4</name>
                                <rate>
                                    <timebase>24</timebase>
                                    <ntsc>TRUE</ntsc>
                                </rate>
                                <rate>
                                    <timebase>24</timebase>
                                    <ntsc>TRUE</ntsc>
                                </rate>
                                <duration>13</duration>
                                <start>19734</start>
                                <end>19747</end>
                                <in>30608</in>
                                <out>30621</out>
                            </clipitem>
                            <clipitem frameBlend="FALSE" id="clipitem-398">
                                <media>
                                    <video>
                                        <samplecharacteristics>
                                            <height>720</height>
                                            <width>1280</width>
                                        </samplecharacteristics>
                                    </video>
                                </media>
                                <file id="file-1"/>
                                <name>/home/davidk/code/python/JC-render/JC-examples/yoga.mp4</name>
                                <rate>
                                    <timebase>24</timebase>
                                    <ntsc>TRUE</ntsc>
                                </rate>
                                <rate>
                                    <timebase>24</timebase>
                                    <ntsc>TRUE</ntsc>
                                </rate>
                                <duration>135</duration>
                                <start>19747</start>
                                <end>19882</end>
                                <in>30706</in>
                                <out>30841</out>
                            </clipitem>
                            <clipitem frameBlend="FALSE" id="clipitem-399">
                                <media>
                                    <video>
                                        <samplecharacteristics>
                                            <height>720</height>
                                            <width>1280</width>
                                        </samplecharacteristics>
                                    </video>
                                </media>
                                <file id="file-1"/>
                                <name>/home/davidk/code/python/JC-render/JC-examples/yoga.mp4</name>
                                <rate>
                                    <timebase>24</timebase>
                                    <ntsc>TRUE</ntsc>
                                </rate>
                                <rate>
                                    <timebase>24</timebase>
                                    <ntsc>TRUE</ntsc>
                                </rate>
                                <duration>247</duration>
                                <start>19882</start>
                                <end>20129</end>
                                <in>30892</in>
                                <out>31139</out>
                            </clipitem>
                            <clipitem frameBlend="FALSE" id="clipitem-400">
                                <media>
                                    <video>
                                        <samplecharacteristics>
                                            <height>720</height>
                                            <width>1280</width>
                                        </samplecharacteristics>
                                    </video>
                                </media>
                                <file id="file-1"/>
                                <name>/home/davidk/code/python/JC-render/JC-examples/yoga.mp4</name>
                                <rate>
                                    <timebase>24</timebase>
                                    <ntsc>TRUE</ntsc>
                                </rate>
                                <rate>
                                    <timebase>24</timebase>
                                    <ntsc>TRUE</ntsc>
                                </rate>
                                <duration>188</duration>
                                <start>20129</start>
                                <end>20317</end>
                                <in>31140</in>
                                <out>31328</out>
                            </clipitem>
                            <clipitem frameBlend="FALSE" id="clipitem-401">
                                <media>
                                    <video>
                                        <samplecharacteristics>
                                            <height>720</height>
                                            <width>1280</width>
                                        </samplecharacteristics>
                                    </video>
                                </media>
                                <file id="file-1"/>
                                <name>/home/davidk/code/python/JC-render/JC-examples/yoga.mp4</name>
                                <rate>
                                    <timebase>24</timebase>
                                    <ntsc>TRUE</ntsc>
                                </rate>
                                <rate>
                                    <timebase>24</timebase>
                                    <ntsc>TRUE</ntsc>
                                </rate>
                                <duration>146</duration>
                                <start>20317</start>
                                <end>20463</end>
                                <in>31329</in>
                                <out>31475</out>
                            </clipitem>
                            <clipitem frameBlend="FALSE" id="clipitem-402">
                                <media>
                                    <video>
                                        <samplecharacteristics>
                                            <height>720</height>
                                            <width>1280</width>
                                        </samplecharacteristics>
                                    </video>
                                </media>
                                <file id="file-1"/>
                                <name>/home/davidk/code/python/JC-render/JC-examples/yoga.mp4</name>
                                <rate>
                                    <timebase>24</timebase>
                                    <ntsc>TRUE</ntsc>
                                </rate>
                                <rate>
                                    <timebase>24</timebase>
                                    <ntsc>TRUE</ntsc>
                                </rate>
                                <duration>121</duration>
                                <start>20463</start>
                                <end>20584</end>
                                <in>31477</in>
                                <out>31598</out>
                            </clipitem>
                            <clipitem frameBlend="FALSE" id="clipitem-403">
                                <media>
                                    <video>
                                        <samplecharacteristics>
                                            <height>720</height>
                                            <width>1280</width>
                                        </samplecharacteristics>
                                    </video>
                                </media>
                                <file id="file-1"/>
                                <name>/home/davidk/code/python/JC-render/JC-examples/yoga.mp4</name>
                                <rate>
                                    <timebase>24</timebase>
                                    <ntsc>TRUE</ntsc>
                                </rate>
                                <rate>
                                    <timebase>24</timebase>
                                    <ntsc>TRUE</ntsc>
                                </rate>
                                <duration>13</duration>
                                <start>20584</start>
                                <end>20597</end>
                                <in>31730</in>
                                <out>31743</out>
                            </clipitem>
                            <clipitem frameBlend="FALSE" id="clipitem-404">
                                <media>
                                    <video>
                                        <samplecharacteristics>
                                            <height>720</height>
                                            <width>1280</width>
                                        </samplecharacteristics>
                                    </video>
                                </media>
                                <file id="file-1"/>
                                <name>/home/davidk/code/python/JC-render/JC-examples/yoga.mp4</name>
                                <rate>
                                    <timebase>24</timebase>
                                    <ntsc>TRUE</ntsc>
                                </rate>
                                <rate>
                                    <timebase>24</timebase>
                                    <ntsc>TRUE</ntsc>
                                </rate>
                                <duration>85</duration>
                                <start>20597</start>
                                <end>20682</end>
                                <in>31744</in>
                                <out>31829</out>
                            </clipitem>
                            <clipitem frameBlend="FALSE" id="clipitem-405">
                                <media>
                                    <video>
                                        <samplecharacteristics>
                                            <height>720</height>
                                            <width>1280</width>
                                        </samplecharacteristics>
                                    </video>
                                </media>
                                <file id="file-1"/>
                                <name>/home/davidk/code/python/JC-render/JC-examples/yoga.mp4</name>
                                <rate>
                                    <timebase>24</timebase>
                                    <ntsc>TRUE</ntsc>
                                </rate>
                                <rate>
                                    <timebase>24</timebase>
                                    <ntsc>TRUE</ntsc>
                                </rate>
                                <duration>77</duration>
                                <start>20682</start>
                                <end>20759</end>
                                <in>31911</in>
                                <out>31988</out>
                            </clipitem>
                            <clipitem frameBlend="FALSE" id="clipitem-406">
                                <media>
                                    <video>
                                        <samplecharacteristics>
                                            <height>720</height>
                                            <width>1280</width>
                                        </samplecharacteristics>
                                    </video>
                                </media>
                                <file id="file-1"/>
                                <name>/home/davidk/code/python/JC-render/JC-examples/yoga.mp4</name>
                                <rate>
                                    <timebase>24</timebase>
                                    <ntsc>TRUE</ntsc>
                                </rate>
                                <rate>
                                    <timebase>24</timebase>
                                    <ntsc>TRUE</ntsc>
                                </rate>
                                <duration>138</duration>
                                <start>20759</start>
                                <end>20897</end>
                                <in>31992</in>
                                <out>32130</out>
                            </clipitem>
                            <clipitem frameBlend="FALSE" id="clipitem-407">
                                <media>
                                    <video>
                                        <samplecharacteristics>
                                            <height>720</height>
                                            <width>1280</width>
                                        </samplecharacteristics>
                                    </video>
                                </media>
                                <file id="file-1"/>
                                <name>/home/davidk/code/python/JC-render/JC-examples/yoga.mp4</name>
                                <rate>
                                    <timebase>24</timebase>
                                    <ntsc>TRUE</ntsc>
                                </rate>
                                <rate>
                                    <timebase>24</timebase>
                                    <ntsc>TRUE</ntsc>
                                </rate>
                                <duration>151</duration>
                                <start>20897</start>
                                <end>21048</end>
                                <in>32137</in>
                                <out>32288</out>
                            </clipitem>
                            <clipitem frameBlend="FALSE" id="clipitem-408">
                                <media>
                                    <video>
                                        <samplecharacteristics>
                                            <height>720</height>
                                            <width>1280</width>
                                        </samplecharacteristics>
                                    </video>
                                </media>
                                <file id="file-1"/>
                                <name>/home/davidk/code/python/JC-render/JC-examples/yoga.mp4</name>
                                <rate>
                                    <timebase>24</timebase>
                                    <ntsc>TRUE</ntsc>
                                </rate>
                                <rate>
                                    <timebase>24</timebase>
                                    <ntsc>TRUE</ntsc>
                                </rate>
                                <duration>12</duration>
                                <start>21048</start>
                                <end>21060</end>
                                <in>32290</in>
                                <out>32302</out>
                            </clipitem>
                            <clipitem frameBlend="FALSE" id="clipitem-409">
                                <media>
                                    <video>
                                        <samplecharacteristics>
                                            <height>720</height>
                                            <width>1280</width>
                                        </samplecharacteristics>
                                    </video>
                                </media>
                                <file id="file-1"/>
                                <name>/home/davidk/code/python/JC-render/JC-examples/yoga.mp4</name>
                                <rate>
                                    <timebase>24</timebase>
                                    <ntsc>TRUE</ntsc>
                                </rate>
                                <rate>
                                    <timebase>24</timebase>
                                    <ntsc>TRUE</ntsc>
                                </rate>
                                <duration>13</duration>
                                <start>21060</start>
                                <end>21073</end>
                                <in>32334</in>
                                <out>32347</out>
                            </clipitem>
                            <clipitem frameBlend="FALSE" id="clipitem-410">
                                <media>
                                    <video>
                                        <samplecharacteristics>
                                            <height>720</height>
                                            <width>1280</width>
                                        </samplecharacteristics>
                                    </video>
                                </media>
                                <file id="file-1"/>
                                <name>/home/davidk/code/python/JC-render/JC-examples/yoga.mp4</name>
                                <rate>
                                    <timebase>24</timebase>
                                    <ntsc>TRUE</ntsc>
                                </rate>
                                <rate>
                                    <timebase>24</timebase>
                                    <ntsc>TRUE</ntsc>
                                </rate>
                                <duration>13</duration>
                                <start>21073</start>
                                <end>21086</end>
                                <in>32376</in>
                                <out>32389</out>
                            </clipitem>
                            <clipitem frameBlend="FALSE" id="clipitem-411">
                                <media>
                                    <video>
                                        <samplecharacteristics>
                                            <height>720</height>
                                            <width>1280</width>
                                        </samplecharacteristics>
                                    </video>
                                </media>
                                <file id="file-1"/>
                                <name>/home/davidk/code/python/JC-render/JC-examples/yoga.mp4</name>
                                <rate>
                                    <timebase>24</timebase>
                                    <ntsc>TRUE</ntsc>
                                </rate>
                                <rate>
                                    <timebase>24</timebase>
                                    <ntsc>TRUE</ntsc>
                                </rate>
                                <duration>13</duration>
                                <start>21086</start>
                                <end>21099</end>
                                <in>32440</in>
                                <out>32453</out>
                            </clipitem>
                            <clipitem frameBlend="FALSE" id="clipitem-412">
                                <media>
                                    <video>
                                        <samplecharacteristics>
                                            <height>720</height>
                                            <width>1280</width>
                                        </samplecharacteristics>
                                    </video>
                                </media>
                                <file id="file-1"/>
                                <name>/home/davidk/code/python/JC-render/JC-examples/yoga.mp4</name>
                                <rate>
                                    <timebase>24</timebase>
                                    <ntsc>TRUE</ntsc>
                                </rate>
                                <rate>
                                    <timebase>24</timebase>
                                    <ntsc>TRUE</ntsc>
                                </rate>
                                <duration>37</duration>
                                <start>21099</start>
                                <end>21136</end>
                                <in>32499</in>
                                <out>32536</out>
                            </clipitem>
                            <clipitem frameBlend="FALSE" id="clipitem-413">
                                <media>
                                    <video>
                                        <samplecharacteristics>
                                            <height>720</height>
                                            <width>1280</width>
                                        </samplecharacteristics>
                                    </video>
                                </media>
                                <file id="file-1"/>
                                <name>/home/davidk/code/python/JC-render/JC-examples/yoga.mp4</name>
                                <rate>
                                    <timebase>24</timebase>
                                    <ntsc>TRUE</ntsc>
                                </rate>
                                <rate>
                                    <timebase>24</timebase>
                                    <ntsc>TRUE</ntsc>
                                </rate>
                                <duration>57</duration>
                                <start>21136</start>
                                <end>21193</end>
                                <in>32552</in>
                                <out>32609</out>
                            </clipitem>
                            <clipitem frameBlend="FALSE" id="clipitem-414">
                                <media>
                                    <video>
                                        <samplecharacteristics>
                                            <height>720</height>
                                            <width>1280</width>
                                        </samplecharacteristics>
                                    </video>
                                </media>
                                <file id="file-1"/>
                                <name>/home/davidk/code/python/JC-render/JC-examples/yoga.mp4</name>
                                <rate>
                                    <timebase>24</timebase>
                                    <ntsc>TRUE</ntsc>
                                </rate>
                                <rate>
                                    <timebase>24</timebase>
                                    <ntsc>TRUE</ntsc>
                                </rate>
                                <duration>107</duration>
                                <start>21193</start>
                                <end>21300</end>
                                <in>32680</in>
                                <out>32787</out>
                            </clipitem>
                            <clipitem frameBlend="FALSE" id="clipitem-415">
                                <media>
                                    <video>
                                        <samplecharacteristics>
                                            <height>720</height>
                                            <width>1280</width>
                                        </samplecharacteristics>
                                    </video>
                                </media>
                                <file id="file-1"/>
                                <name>/home/davidk/code/python/JC-render/JC-examples/yoga.mp4</name>
                                <rate>
                                    <timebase>24</timebase>
                                    <ntsc>TRUE</ntsc>
                                </rate>
                                <rate>
                                    <timebase>24</timebase>
                                    <ntsc>TRUE</ntsc>
                                </rate>
                                <duration>54</duration>
                                <start>21300</start>
                                <end>21354</end>
                                <in>32794</in>
                                <out>32848</out>
                            </clipitem>
                            <clipitem frameBlend="FALSE" id="clipitem-416">
                                <media>
                                    <video>
                                        <samplecharacteristics>
                                            <height>720</height>
                                            <width>1280</width>
                                        </samplecharacteristics>
                                    </video>
                                </media>
                                <file id="file-1"/>
                                <name>/home/davidk/code/python/JC-render/JC-examples/yoga.mp4</name>
                                <rate>
                                    <timebase>24</timebase>
                                    <ntsc>TRUE</ntsc>
                                </rate>
                                <rate>
                                    <timebase>24</timebase>
                                    <ntsc>TRUE</ntsc>
                                </rate>
                                <duration>52</duration>
                                <start>21354</start>
                                <end>21406</end>
                                <in>32877</in>
                                <out>32929</out>
                            </clipitem>
                            <clipitem frameBlend="FALSE" id="clipitem-417">
                                <media>
                                    <video>
                                        <samplecharacteristics>
                                            <height>720</height>
                                            <width>1280</width>
                                        </samplecharacteristics>
                                    </video>
                                </media>
                                <file id="file-1"/>
                                <name>/home/davidk/code/python/JC-render/JC-examples/yoga.mp4</name>
                                <rate>
                                    <timebase>24</timebase>
                                    <ntsc>TRUE</ntsc>
                                </rate>
                                <rate>
                                    <timebase>24</timebase>
                                    <ntsc>TRUE</ntsc>
                                </rate>
                                <duration>94</duration>
                                <start>21406</start>
                                <end>21500</end>
                                <in>32941</in>
                                <out>33035</out>
                            </clipitem>
                            <clipitem frameBlend="FALSE" id="clipitem-418">
                                <media>
                                    <video>
                                        <samplecharacteristics>
                                            <height>720</height>
                                            <width>1280</width>
                                        </samplecharacteristics>
                                    </video>
                                </media>
                                <file id="file-1"/>
                                <name>/home/davidk/code/python/JC-render/JC-examples/yoga.mp4</name>
                                <rate>
                                    <timebase>24</timebase>
                                    <ntsc>TRUE</ntsc>
                                </rate>
                                <rate>
                                    <timebase>24</timebase>
                                    <ntsc>TRUE</ntsc>
                                </rate>
                                <duration>32</duration>
                                <start>21500</start>
                                <end>21532</end>
                                <in>33050</in>
                                <out>33082</out>
                            </clipitem>
                            <clipitem frameBlend="FALSE" id="clipitem-419">
                                <media>
                                    <video>
                                        <samplecharacteristics>
                                            <height>720</height>
                                            <width>1280</width>
                                        </samplecharacteristics>
                                    </video>
                                </media>
                                <file id="file-1"/>
                                <name>/home/davidk/code/python/JC-render/JC-examples/yoga.mp4</name>
                                <rate>
                                    <timebase>24</timebase>
                                    <ntsc>TRUE</ntsc>
                                </rate>
                                <rate>
                                    <timebase>24</timebase>
                                    <ntsc>TRUE</ntsc>
                                </rate>
                                <duration>18</duration>
                                <start>21532</start>
                                <end>21550</end>
                                <in>33097</in>
                                <out>33115</out>
                            </clipitem>
                            <clipitem frameBlend="FALSE" id="clipitem-420">
                                <media>
                                    <video>
                                        <samplecharacteristics>
                                            <height>720</height>
                                            <width>1280</width>
                                        </samplecharacteristics>
                                    </video>
                                </media>
                                <file id="file-1"/>
                                <name>/home/davidk/code/python/JC-render/JC-examples/yoga.mp4</name>
                                <rate>
                                    <timebase>24</timebase>
                                    <ntsc>TRUE</ntsc>
                                </rate>
                                <rate>
                                    <timebase>24</timebase>
                                    <ntsc>TRUE</ntsc>
                                </rate>
                                <duration>15</duration>
                                <start>21550</start>
                                <end>21565</end>
                                <in>33117</in>
                                <out>33132</out>
                            </clipitem>
                            <clipitem frameBlend="FALSE" id="clipitem-421">
                                <media>
                                    <video>
                                        <samplecharacteristics>
                                            <height>720</height>
                                            <width>1280</width>
                                        </samplecharacteristics>
                                    </video>
                                </media>
                                <file id="file-1"/>
                                <name>/home/davidk/code/python/JC-render/JC-examples/yoga.mp4</name>
                                <rate>
                                    <timebase>24</timebase>
                                    <ntsc>TRUE</ntsc>
                                </rate>
                                <rate>
                                    <timebase>24</timebase>
                                    <ntsc>TRUE</ntsc>
                                </rate>
                                <duration>35</duration>
                                <start>21565</start>
                                <end>21600</end>
                                <in>33551</in>
                                <out>33586</out>
                            </clipitem>
                            <clipitem frameBlend="FALSE" id="clipitem-422">
                                <media>
                                    <video>
                                        <samplecharacteristics>
                                            <height>720</height>
                                            <width>1280</width>
                                        </samplecharacteristics>
                                    </video>
                                </media>
                                <file id="file-1"/>
                                <name>/home/davidk/code/python/JC-render/JC-examples/yoga.mp4</name>
                                <rate>
                                    <timebase>24</timebase>
                                    <ntsc>TRUE</ntsc>
                                </rate>
                                <rate>
                                    <timebase>24</timebase>
                                    <ntsc>TRUE</ntsc>
                                </rate>
                                <duration>66</duration>
                                <start>21600</start>
                                <end>21666</end>
                                <in>33598</in>
                                <out>33664</out>
                            </clipitem>
                            <clipitem frameBlend="FALSE" id="clipitem-423">
                                <media>
                                    <video>
                                        <samplecharacteristics>
                                            <height>720</height>
                                            <width>1280</width>
                                        </samplecharacteristics>
                                    </video>
                                </media>
                                <file id="file-1"/>
                                <name>/home/davidk/code/python/JC-render/JC-examples/yoga.mp4</name>
                                <rate>
                                    <timebase>24</timebase>
                                    <ntsc>TRUE</ntsc>
                                </rate>
                                <rate>
                                    <timebase>24</timebase>
                                    <ntsc>TRUE</ntsc>
                                </rate>
                                <duration>12</duration>
                                <start>21666</start>
                                <end>21678</end>
                                <in>33668</in>
                                <out>33680</out>
                            </clipitem>
                            <clipitem frameBlend="FALSE" id="clipitem-424">
                                <media>
                                    <video>
                                        <samplecharacteristics>
                                            <height>720</height>
                                            <width>1280</width>
                                        </samplecharacteristics>
                                    </video>
                                </media>
                                <file id="file-1"/>
                                <name>/home/davidk/code/python/JC-render/JC-examples/yoga.mp4</name>
                                <rate>
                                    <timebase>24</timebase>
                                    <ntsc>TRUE</ntsc>
                                </rate>
                                <rate>
                                    <timebase>24</timebase>
                                    <ntsc>TRUE</ntsc>
                                </rate>
                                <duration>46</duration>
                                <start>21678</start>
                                <end>21724</end>
                                <in>33693</in>
                                <out>33739</out>
                            </clipitem>
                            <clipitem frameBlend="FALSE" id="clipitem-425">
                                <media>
                                    <video>
                                        <samplecharacteristics>
                                            <height>720</height>
                                            <width>1280</width>
                                        </samplecharacteristics>
                                    </video>
                                </media>
                                <file id="file-1"/>
                                <name>/home/davidk/code/python/JC-render/JC-examples/yoga.mp4</name>
                                <rate>
                                    <timebase>24</timebase>
                                    <ntsc>TRUE</ntsc>
                                </rate>
                                <rate>
                                    <timebase>24</timebase>
                                    <ntsc>TRUE</ntsc>
                                </rate>
                                <duration>43</duration>
                                <start>21724</start>
                                <end>21767</end>
                                <in>33746</in>
                                <out>33789</out>
                            </clipitem>
                            <clipitem frameBlend="FALSE" id="clipitem-426">
                                <media>
                                    <video>
                                        <samplecharacteristics>
                                            <height>720</height>
                                            <width>1280</width>
                                        </samplecharacteristics>
                                    </video>
                                </media>
                                <file id="file-1"/>
                                <name>/home/davidk/code/python/JC-render/JC-examples/yoga.mp4</name>
                                <rate>
                                    <timebase>24</timebase>
                                    <ntsc>TRUE</ntsc>
                                </rate>
                                <rate>
                                    <timebase>24</timebase>
                                    <ntsc>TRUE</ntsc>
                                </rate>
                                <duration>24</duration>
                                <start>21767</start>
                                <end>21791</end>
                                <in>33849</in>
                                <out>33873</out>
                            </clipitem>
                            <clipitem frameBlend="FALSE" id="clipitem-427">
                                <media>
                                    <video>
                                        <samplecharacteristics>
                                            <height>720</height>
                                            <width>1280</width>
                                        </samplecharacteristics>
                                    </video>
                                </media>
                                <file id="file-1"/>
                                <name>/home/davidk/code/python/JC-render/JC-examples/yoga.mp4</name>
                                <rate>
                                    <timebase>24</timebase>
                                    <ntsc>TRUE</ntsc>
                                </rate>
                                <rate>
                                    <timebase>24</timebase>
                                    <ntsc>TRUE</ntsc>
                                </rate>
                                <duration>38</duration>
                                <start>21791</start>
                                <end>21829</end>
                                <in>33899</in>
                                <out>33937</out>
                            </clipitem>
                            <clipitem frameBlend="FALSE" id="clipitem-428">
                                <media>
                                    <video>
                                        <samplecharacteristics>
                                            <height>720</height>
                                            <width>1280</width>
                                        </samplecharacteristics>
                                    </video>
                                </media>
                                <file id="file-1"/>
                                <name>/home/davidk/code/python/JC-render/JC-examples/yoga.mp4</name>
                                <rate>
                                    <timebase>24</timebase>
                                    <ntsc>TRUE</ntsc>
                                </rate>
                                <rate>
                                    <timebase>24</timebase>
                                    <ntsc>TRUE</ntsc>
                                </rate>
                                <duration>31</duration>
                                <start>21829</start>
                                <end>21860</end>
                                <in>34462</in>
                                <out>34493</out>
                            </clipitem>
                            <clipitem frameBlend="FALSE" id="clipitem-429">
                                <media>
                                    <video>
                                        <samplecharacteristics>
                                            <height>720</height>
                                            <width>1280</width>
                                        </samplecharacteristics>
                                    </video>
                                </media>
                                <file id="file-1"/>
                                <name>/home/davidk/code/python/JC-render/JC-examples/yoga.mp4</name>
                                <rate>
                                    <timebase>24</timebase>
                                    <ntsc>TRUE</ntsc>
                                </rate>
                                <rate>
                                    <timebase>24</timebase>
                                    <ntsc>TRUE</ntsc>
                                </rate>
                                <duration>26</duration>
                                <start>21860</start>
                                <end>21886</end>
                                <in>34506</in>
                                <out>34532</out>
                            </clipitem>
                            <clipitem frameBlend="FALSE" id="clipitem-430">
                                <media>
                                    <video>
                                        <samplecharacteristics>
                                            <height>720</height>
                                            <width>1280</width>
                                        </samplecharacteristics>
                                    </video>
                                </media>
                                <file id="file-1"/>
                                <name>/home/davidk/code/python/JC-render/JC-examples/yoga.mp4</name>
                                <rate>
                                    <timebase>24</timebase>
                                    <ntsc>TRUE</ntsc>
                                </rate>
                                <rate>
                                    <timebase>24</timebase>
                                    <ntsc>TRUE</ntsc>
                                </rate>
                                <duration>87</duration>
                                <start>21886</start>
                                <end>21973</end>
                                <in>34551</in>
                                <out>34638</out>
                            </clipitem>
                            <clipitem frameBlend="FALSE" id="clipitem-431">
                                <media>
                                    <video>
                                        <samplecharacteristics>
                                            <height>720</height>
                                            <width>1280</width>
                                        </samplecharacteristics>
                                    </video>
                                </media>
                                <file id="file-1"/>
                                <name>/home/davidk/code/python/JC-render/JC-examples/yoga.mp4</name>
                                <rate>
                                    <timebase>24</timebase>
                                    <ntsc>TRUE</ntsc>
                                </rate>
                                <rate>
                                    <timebase>24</timebase>
                                    <ntsc>TRUE</ntsc>
                                </rate>
                                <duration>74</duration>
                                <start>21973</start>
                                <end>22047</end>
                                <in>34659</in>
                                <out>34733</out>
                            </clipitem>
                            <clipitem frameBlend="FALSE" id="clipitem-432">
                                <media>
                                    <video>
                                        <samplecharacteristics>
                                            <height>720</height>
                                            <width>1280</width>
                                        </samplecharacteristics>
                                    </video>
                                </media>
                                <file id="file-1"/>
                                <name>/home/davidk/code/python/JC-render/JC-examples/yoga.mp4</name>
                                <rate>
                                    <timebase>24</timebase>
                                    <ntsc>TRUE</ntsc>
                                </rate>
                                <rate>
                                    <timebase>24</timebase>
                                    <ntsc>TRUE</ntsc>
                                </rate>
                                <duration>32</duration>
                                <start>22047</start>
                                <end>22079</end>
                                <in>34745</in>
                                <out>34777</out>
                            </clipitem>
                            <clipitem frameBlend="FALSE" id="clipitem-433">
                                <media>
                                    <video>
                                        <samplecharacteristics>
                                            <height>720</height>
                                            <width>1280</width>
                                        </samplecharacteristics>
                                    </video>
                                </media>
                                <file id="file-1"/>
                                <name>/home/davidk/code/python/JC-render/JC-examples/yoga.mp4</name>
                                <rate>
                                    <timebase>24</timebase>
                                    <ntsc>TRUE</ntsc>
                                </rate>
                                <rate>
                                    <timebase>24</timebase>
                                    <ntsc>TRUE</ntsc>
                                </rate>
                                <duration>40</duration>
                                <start>22079</start>
                                <end>22119</end>
                                <in>34818</in>
                                <out>34858</out>
                            </clipitem>
                            <clipitem frameBlend="FALSE" id="clipitem-434">
                                <media>
                                    <video>
                                        <samplecharacteristics>
                                            <height>720</height>
                                            <width>1280</width>
                                        </samplecharacteristics>
                                    </video>
                                </media>
                                <file id="file-1"/>
                                <name>/home/davidk/code/python/JC-render/JC-examples/yoga.mp4</name>
                                <rate>
                                    <timebase>24</timebase>
                                    <ntsc>TRUE</ntsc>
                                </rate>
                                <rate>
                                    <timebase>24</timebase>
                                    <ntsc>TRUE</ntsc>
                                </rate>
                                <duration>46</duration>
                                <start>22119</start>
                                <end>22165</end>
                                <in>34876</in>
                                <out>34922</out>
                            </clipitem>
                            <clipitem frameBlend="FALSE" id="clipitem-435">
                                <media>
                                    <video>
                                        <samplecharacteristics>
                                            <height>720</height>
                                            <width>1280</width>
                                        </samplecharacteristics>
                                    </video>
                                </media>
                                <file id="file-1"/>
                                <name>/home/davidk/code/python/JC-render/JC-examples/yoga.mp4</name>
                                <rate>
                                    <timebase>24</timebase>
                                    <ntsc>TRUE</ntsc>
                                </rate>
                                <rate>
                                    <timebase>24</timebase>
                                    <ntsc>TRUE</ntsc>
                                </rate>
                                <duration>45</duration>
                                <start>22165</start>
                                <end>22210</end>
                                <in>34924</in>
                                <out>34969</out>
                            </clipitem>
                            <clipitem frameBlend="FALSE" id="clipitem-436">
                                <media>
                                    <video>
                                        <samplecharacteristics>
                                            <height>720</height>
                                            <width>1280</width>
                                        </samplecharacteristics>
                                    </video>
                                </media>
                                <file id="file-1"/>
                                <name>/home/davidk/code/python/JC-render/JC-examples/yoga.mp4</name>
                                <rate>
                                    <timebase>24</timebase>
                                    <ntsc>TRUE</ntsc>
                                </rate>
                                <rate>
                                    <timebase>24</timebase>
                                    <ntsc>TRUE</ntsc>
                                </rate>
                                <duration>31</duration>
                                <start>22210</start>
                                <end>22241</end>
                                <in>34977</in>
                                <out>35008</out>
                            </clipitem>
                            <clipitem frameBlend="FALSE" id="clipitem-437">
                                <media>
                                    <video>
                                        <samplecharacteristics>
                                            <height>720</height>
                                            <width>1280</width>
                                        </samplecharacteristics>
                                    </video>
                                </media>
                                <file id="file-1"/>
                                <name>/home/davidk/code/python/JC-render/JC-examples/yoga.mp4</name>
                                <rate>
                                    <timebase>24</timebase>
                                    <ntsc>TRUE</ntsc>
                                </rate>
                                <rate>
                                    <timebase>24</timebase>
                                    <ntsc>TRUE</ntsc>
                                </rate>
                                <duration>32</duration>
                                <start>22241</start>
                                <end>22273</end>
                                <in>35013</in>
                                <out>35045</out>
                            </clipitem>
                            <clipitem frameBlend="FALSE" id="clipitem-438">
                                <media>
                                    <video>
                                        <samplecharacteristics>
                                            <height>720</height>
                                            <width>1280</width>
                                        </samplecharacteristics>
                                    </video>
                                </media>
                                <file id="file-1"/>
                                <name>/home/davidk/code/python/JC-render/JC-examples/yoga.mp4</name>
                                <rate>
                                    <timebase>24</timebase>
                                    <ntsc>TRUE</ntsc>
                                </rate>
                                <rate>
                                    <timebase>24</timebase>
                                    <ntsc>TRUE</ntsc>
                                </rate>
                                <duration>52</duration>
                                <start>22273</start>
                                <end>22325</end>
                                <in>35444</in>
                                <out>35496</out>
                            </clipitem>
                            <clipitem frameBlend="FALSE" id="clipitem-439">
                                <media>
                                    <video>
                                        <samplecharacteristics>
                                            <height>720</height>
                                            <width>1280</width>
                                        </samplecharacteristics>
                                    </video>
                                </media>
                                <file id="file-1"/>
                                <name>/home/davidk/code/python/JC-render/JC-examples/yoga.mp4</name>
                                <rate>
                                    <timebase>24</timebase>
                                    <ntsc>TRUE</ntsc>
                                </rate>
                                <rate>
                                    <timebase>24</timebase>
                                    <ntsc>TRUE</ntsc>
                                </rate>
                                <duration>27</duration>
                                <start>22325</start>
                                <end>22352</end>
                                <in>35508</in>
                                <out>35535</out>
                            </clipitem>
                            <clipitem frameBlend="FALSE" id="clipitem-440">
                                <media>
                                    <video>
                                        <samplecharacteristics>
                                            <height>720</height>
                                            <width>1280</width>
                                        </samplecharacteristics>
                                    </video>
                                </media>
                                <file id="file-1"/>
                                <name>/home/davidk/code/python/JC-render/JC-examples/yoga.mp4</name>
                                <rate>
                                    <timebase>24</timebase>
                                    <ntsc>TRUE</ntsc>
                                </rate>
                                <rate>
                                    <timebase>24</timebase>
                                    <ntsc>TRUE</ntsc>
                                </rate>
                                <duration>40</duration>
                                <start>22352</start>
                                <end>22392</end>
                                <in>35536</in>
                                <out>35576</out>
                            </clipitem>
                            <clipitem frameBlend="FALSE" id="clipitem-441">
                                <media>
                                    <video>
                                        <samplecharacteristics>
                                            <height>720</height>
                                            <width>1280</width>
                                        </samplecharacteristics>
                                    </video>
                                </media>
                                <file id="file-1"/>
                                <name>/home/davidk/code/python/JC-render/JC-examples/yoga.mp4</name>
                                <rate>
                                    <timebase>24</timebase>
                                    <ntsc>TRUE</ntsc>
                                </rate>
                                <rate>
                                    <timebase>24</timebase>
                                    <ntsc>TRUE</ntsc>
                                </rate>
                                <duration>32</duration>
                                <start>22392</start>
                                <end>22424</end>
                                <in>35597</in>
                                <out>35629</out>
                            </clipitem>
                            <clipitem frameBlend="FALSE" id="clipitem-442">
                                <media>
                                    <video>
                                        <samplecharacteristics>
                                            <height>720</height>
                                            <width>1280</width>
                                        </samplecharacteristics>
                                    </video>
                                </media>
                                <file id="file-1"/>
                                <name>/home/davidk/code/python/JC-render/JC-examples/yoga.mp4</name>
                                <rate>
                                    <timebase>24</timebase>
                                    <ntsc>TRUE</ntsc>
                                </rate>
                                <rate>
                                    <timebase>24</timebase>
                                    <ntsc>TRUE</ntsc>
                                </rate>
                                <duration>23</duration>
                                <start>22424</start>
                                <end>22447</end>
                                <in>35673</in>
                                <out>35696</out>
                            </clipitem>
                            <clipitem frameBlend="FALSE" id="clipitem-443">
                                <media>
                                    <video>
                                        <samplecharacteristics>
                                            <height>720</height>
                                            <width>1280</width>
                                        </samplecharacteristics>
                                    </video>
                                </media>
                                <file id="file-1"/>
                                <name>/home/davidk/code/python/JC-render/JC-examples/yoga.mp4</name>
                                <rate>
                                    <timebase>24</timebase>
                                    <ntsc>TRUE</ntsc>
                                </rate>
                                <rate>
                                    <timebase>24</timebase>
                                    <ntsc>TRUE</ntsc>
                                </rate>
                                <duration>24</duration>
                                <start>22447</start>
                                <end>22471</end>
                                <in>35731</in>
                                <out>35755</out>
                            </clipitem>
                            <clipitem frameBlend="FALSE" id="clipitem-444">
                                <media>
                                    <video>
                                        <samplecharacteristics>
                                            <height>720</height>
                                            <width>1280</width>
                                        </samplecharacteristics>
                                    </video>
                                </media>
                                <file id="file-1"/>
                                <name>/home/davidk/code/python/JC-render/JC-examples/yoga.mp4</name>
                                <rate>
                                    <timebase>24</timebase>
                                    <ntsc>TRUE</ntsc>
                                </rate>
                                <rate>
                                    <timebase>24</timebase>
                                    <ntsc>TRUE</ntsc>
                                </rate>
                                <duration>40</duration>
                                <start>22471</start>
                                <end>22511</end>
                                <in>35787</in>
                                <out>35827</out>
                            </clipitem>
                            <clipitem frameBlend="FALSE" id="clipitem-445">
                                <media>
                                    <video>
                                        <samplecharacteristics>
                                            <height>720</height>
                                            <width>1280</width>
                                        </samplecharacteristics>
                                    </video>
                                </media>
                                <file id="file-1"/>
                                <name>/home/davidk/code/python/JC-render/JC-examples/yoga.mp4</name>
                                <rate>
                                    <timebase>24</timebase>
                                    <ntsc>TRUE</ntsc>
                                </rate>
                                <rate>
                                    <timebase>24</timebase>
                                    <ntsc>TRUE</ntsc>
                                </rate>
                                <duration>40</duration>
                                <start>22511</start>
                                <end>22551</end>
                                <in>35901</in>
                                <out>35941</out>
                            </clipitem>
                            <clipitem frameBlend="FALSE" id="clipitem-446">
                                <media>
                                    <video>
                                        <samplecharacteristics>
                                            <height>720</height>
                                            <width>1280</width>
                                        </samplecharacteristics>
                                    </video>
                                </media>
                                <file id="file-1"/>
                                <name>/home/davidk/code/python/JC-render/JC-examples/yoga.mp4</name>
                                <rate>
                                    <timebase>24</timebase>
                                    <ntsc>TRUE</ntsc>
                                </rate>
                                <rate>
                                    <timebase>24</timebase>
                                    <ntsc>TRUE</ntsc>
                                </rate>
                                <duration>40</duration>
                                <start>22551</start>
                                <end>22591</end>
                                <in>35954</in>
                                <out>35994</out>
                            </clipitem>
                            <clipitem frameBlend="FALSE" id="clipitem-447">
                                <media>
                                    <video>
                                        <samplecharacteristics>
                                            <height>720</height>
                                            <width>1280</width>
                                        </samplecharacteristics>
                                    </video>
                                </media>
                                <file id="file-1"/>
                                <name>/home/davidk/code/python/JC-render/JC-examples/yoga.mp4</name>
                                <rate>
                                    <timebase>24</timebase>
                                    <ntsc>TRUE</ntsc>
                                </rate>
                                <rate>
                                    <timebase>24</timebase>
                                    <ntsc>TRUE</ntsc>
                                </rate>
                                <duration>46</duration>
                                <start>22591</start>
                                <end>22637</end>
                                <in>36012</in>
                                <out>36058</out>
                            </clipitem>
                            <clipitem frameBlend="FALSE" id="clipitem-448">
                                <media>
                                    <video>
                                        <samplecharacteristics>
                                            <height>720</height>
                                            <width>1280</width>
                                        </samplecharacteristics>
                                    </video>
                                </media>
                                <file id="file-1"/>
                                <name>/home/davidk/code/python/JC-render/JC-examples/yoga.mp4</name>
                                <rate>
                                    <timebase>24</timebase>
                                    <ntsc>TRUE</ntsc>
                                </rate>
                                <rate>
                                    <timebase>24</timebase>
                                    <ntsc>TRUE</ntsc>
                                </rate>
                                <duration>26</duration>
                                <start>22637</start>
                                <end>22663</end>
                                <in>36079</in>
                                <out>36105</out>
                            </clipitem>
                            <clipitem frameBlend="FALSE" id="clipitem-449">
                                <media>
                                    <video>
                                        <samplecharacteristics>
                                            <height>720</height>
                                            <width>1280</width>
                                        </samplecharacteristics>
                                    </video>
                                </media>
                                <file id="file-1"/>
                                <name>/home/davidk/code/python/JC-render/JC-examples/yoga.mp4</name>
                                <rate>
                                    <timebase>24</timebase>
                                    <ntsc>TRUE</ntsc>
                                </rate>
                                <rate>
                                    <timebase>24</timebase>
                                    <ntsc>TRUE</ntsc>
                                </rate>
                                <duration>52</duration>
                                <start>22663</start>
                                <end>22715</end>
                                <in>36112</in>
                                <out>36164</out>
                            </clipitem>
                            <clipitem frameBlend="FALSE" id="clipitem-450">
                                <media>
                                    <video>
                                        <samplecharacteristics>
                                            <height>720</height>
                                            <width>1280</width>
                                        </samplecharacteristics>
                                    </video>
                                </media>
                                <file id="file-1"/>
                                <name>/home/davidk/code/python/JC-render/JC-examples/yoga.mp4</name>
                                <rate>
                                    <timebase>24</timebase>
                                    <ntsc>TRUE</ntsc>
                                </rate>
                                <rate>
                                    <timebase>24</timebase>
                                    <ntsc>TRUE</ntsc>
                                </rate>
                                <duration>73</duration>
                                <start>22715</start>
                                <end>22788</end>
                                <in>36188</in>
                                <out>36261</out>
                            </clipitem>
                            <clipitem frameBlend="FALSE" id="clipitem-451">
                                <media>
                                    <video>
                                        <samplecharacteristics>
                                            <height>720</height>
                                            <width>1280</width>
                                        </samplecharacteristics>
                                    </video>
                                </media>
                                <file id="file-1"/>
                                <name>/home/davidk/code/python/JC-render/JC-examples/yoga.mp4</name>
                                <rate>
                                    <timebase>24</timebase>
                                    <ntsc>TRUE</ntsc>
                                </rate>
                                <rate>
                                    <timebase>24</timebase>
                                    <ntsc>TRUE</ntsc>
                                </rate>
                                <duration>18</duration>
                                <start>22788</start>
                                <end>22806</end>
                                <in>36266</in>
                                <out>36284</out>
                            </clipitem>
                            <clipitem frameBlend="FALSE" id="clipitem-452">
                                <media>
                                    <video>
                                        <samplecharacteristics>
                                            <height>720</height>
                                            <width>1280</width>
                                        </samplecharacteristics>
                                    </video>
                                </media>
                                <file id="file-1"/>
                                <name>/home/davidk/code/python/JC-render/JC-examples/yoga.mp4</name>
                                <rate>
                                    <timebase>24</timebase>
                                    <ntsc>TRUE</ntsc>
                                </rate>
                                <rate>
                                    <timebase>24</timebase>
                                    <ntsc>TRUE</ntsc>
                                </rate>
                                <duration>29</duration>
                                <start>22806</start>
                                <end>22835</end>
                                <in>36296</in>
                                <out>36325</out>
                            </clipitem>
                            <clipitem frameBlend="FALSE" id="clipitem-453">
                                <media>
                                    <video>
                                        <samplecharacteristics>
                                            <height>720</height>
                                            <width>1280</width>
                                        </samplecharacteristics>
                                    </video>
                                </media>
                                <file id="file-1"/>
                                <name>/home/davidk/code/python/JC-render/JC-examples/yoga.mp4</name>
                                <rate>
                                    <timebase>24</timebase>
                                    <ntsc>TRUE</ntsc>
                                </rate>
                                <rate>
                                    <timebase>24</timebase>
                                    <ntsc>TRUE</ntsc>
                                </rate>
                                <duration>35</duration>
                                <start>22835</start>
                                <end>22870</end>
                                <in>36396</in>
                                <out>36431</out>
                            </clipitem>
                            <clipitem frameBlend="FALSE" id="clipitem-454">
                                <media>
                                    <video>
                                        <samplecharacteristics>
                                            <height>720</height>
                                            <width>1280</width>
                                        </samplecharacteristics>
                                    </video>
                                </media>
                                <file id="file-1"/>
                                <name>/home/davidk/code/python/JC-render/JC-examples/yoga.mp4</name>
                                <rate>
                                    <timebase>24</timebase>
                                    <ntsc>TRUE</ntsc>
                                </rate>
                                <rate>
                                    <timebase>24</timebase>
                                    <ntsc>TRUE</ntsc>
                                </rate>
                                <duration>40</duration>
                                <start>22870</start>
                                <end>22910</end>
                                <in>36519</in>
                                <out>36559</out>
                            </clipitem>
                            <clipitem frameBlend="FALSE" id="clipitem-455">
                                <media>
                                    <video>
                                        <samplecharacteristics>
                                            <height>720</height>
                                            <width>1280</width>
                                        </samplecharacteristics>
                                    </video>
                                </media>
                                <file id="file-1"/>
                                <name>/home/davidk/code/python/JC-render/JC-examples/yoga.mp4</name>
                                <rate>
                                    <timebase>24</timebase>
                                    <ntsc>TRUE</ntsc>
                                </rate>
                                <rate>
                                    <timebase>24</timebase>
                                    <ntsc>TRUE</ntsc>
                                </rate>
                                <duration>60</duration>
                                <start>22910</start>
                                <end>22970</end>
                                <in>36761</in>
                                <out>36821</out>
                            </clipitem>
                            <clipitem frameBlend="FALSE" id="clipitem-456">
                                <media>
                                    <video>
                                        <samplecharacteristics>
                                            <height>720</height>
                                            <width>1280</width>
                                        </samplecharacteristics>
                                    </video>
                                </media>
                                <file id="file-1"/>
                                <name>/home/davidk/code/python/JC-render/JC-examples/yoga.mp4</name>
                                <rate>
                                    <timebase>24</timebase>
                                    <ntsc>TRUE</ntsc>
                                </rate>
                                <rate>
                                    <timebase>24</timebase>
                                    <ntsc>TRUE</ntsc>
                                </rate>
                                <duration>21</duration>
                                <start>22970</start>
                                <end>22991</end>
                                <in>36839</in>
                                <out>36860</out>
                            </clipitem>
                            <clipitem frameBlend="FALSE" id="clipitem-457">
                                <media>
                                    <video>
                                        <samplecharacteristics>
                                            <height>720</height>
                                            <width>1280</width>
                                        </samplecharacteristics>
                                    </video>
                                </media>
                                <file id="file-1"/>
                                <name>/home/davidk/code/python/JC-render/JC-examples/yoga.mp4</name>
                                <rate>
                                    <timebase>24</timebase>
                                    <ntsc>TRUE</ntsc>
                                </rate>
                                <rate>
                                    <timebase>24</timebase>
                                    <ntsc>TRUE</ntsc>
                                </rate>
                                <duration>37</duration>
                                <start>22991</start>
                                <end>23028</end>
                                <in>37112</in>
                                <out>37149</out>
                            </clipitem>
                            <clipitem frameBlend="FALSE" id="clipitem-458">
                                <media>
                                    <video>
                                        <samplecharacteristics>
                                            <height>720</height>
                                            <width>1280</width>
                                        </samplecharacteristics>
                                    </video>
                                </media>
                                <file id="file-1"/>
                                <name>/home/davidk/code/python/JC-render/JC-examples/yoga.mp4</name>
                                <rate>
                                    <timebase>24</timebase>
                                    <ntsc>TRUE</ntsc>
                                </rate>
                                <rate>
                                    <timebase>24</timebase>
                                    <ntsc>TRUE</ntsc>
                                </rate>
                                <duration>54</duration>
                                <start>23028</start>
                                <end>23082</end>
                                <in>37307</in>
                                <out>37361</out>
                            </clipitem>
                            <clipitem frameBlend="FALSE" id="clipitem-459">
                                <media>
                                    <video>
                                        <samplecharacteristics>
                                            <height>720</height>
                                            <width>1280</width>
                                        </samplecharacteristics>
                                    </video>
                                </media>
                                <file id="file-1"/>
                                <name>/home/davidk/code/python/JC-render/JC-examples/yoga.mp4</name>
                                <rate>
                                    <timebase>24</timebase>
                                    <ntsc>TRUE</ntsc>
                                </rate>
                                <rate>
                                    <timebase>24</timebase>
                                    <ntsc>TRUE</ntsc>
                                </rate>
                                <duration>51</duration>
                                <start>23082</start>
                                <end>23133</end>
                                <in>37477</in>
                                <out>37528</out>
                            </clipitem>
                            <clipitem frameBlend="FALSE" id="clipitem-460">
                                <media>
                                    <video>
                                        <samplecharacteristics>
                                            <height>720</height>
                                            <width>1280</width>
                                        </samplecharacteristics>
                                    </video>
                                </media>
                                <file id="file-1"/>
                                <name>/home/davidk/code/python/JC-render/JC-examples/yoga.mp4</name>
                                <rate>
                                    <timebase>24</timebase>
                                    <ntsc>TRUE</ntsc>
                                </rate>
                                <rate>
                                    <timebase>24</timebase>
                                    <ntsc>TRUE</ntsc>
                                </rate>
                                <duration>27</duration>
                                <start>23133</start>
                                <end>23160</end>
                                <in>37532</in>
                                <out>37559</out>
                            </clipitem>
                            <clipitem frameBlend="FALSE" id="clipitem-461">
                                <media>
                                    <video>
                                        <samplecharacteristics>
                                            <height>720</height>
                                            <width>1280</width>
                                        </samplecharacteristics>
                                    </video>
                                </media>
                                <file id="file-1"/>
                                <name>/home/davidk/code/python/JC-render/JC-examples/yoga.mp4</name>
                                <rate>
                                    <timebase>24</timebase>
                                    <ntsc>TRUE</ntsc>
                                </rate>
                                <rate>
                                    <timebase>24</timebase>
                                    <ntsc>TRUE</ntsc>
                                </rate>
                                <duration>24</duration>
                                <start>23160</start>
                                <end>23184</end>
                                <in>37582</in>
                                <out>37606</out>
                            </clipitem>
                            <clipitem frameBlend="FALSE" id="clipitem-462">
                                <media>
                                    <video>
                                        <samplecharacteristics>
                                            <height>720</height>
                                            <width>1280</width>
                                        </samplecharacteristics>
                                    </video>
                                </media>
                                <file id="file-1"/>
                                <name>/home/davidk/code/python/JC-render/JC-examples/yoga.mp4</name>
                                <rate>
                                    <timebase>24</timebase>
                                    <ntsc>TRUE</ntsc>
                                </rate>
                                <rate>
                                    <timebase>24</timebase>
                                    <ntsc>TRUE</ntsc>
                                </rate>
                                <duration>18</duration>
                                <start>23184</start>
                                <end>23202</end>
                                <in>37674</in>
                                <out>37692</out>
                            </clipitem>
                            <clipitem frameBlend="FALSE" id="clipitem-463">
                                <media>
                                    <video>
                                        <samplecharacteristics>
                                            <height>720</height>
                                            <width>1280</width>
                                        </samplecharacteristics>
                                    </video>
                                </media>
                                <file id="file-1"/>
                                <name>/home/davidk/code/python/JC-render/JC-examples/yoga.mp4</name>
                                <rate>
                                    <timebase>24</timebase>
                                    <ntsc>TRUE</ntsc>
                                </rate>
                                <rate>
                                    <timebase>24</timebase>
                                    <ntsc>TRUE</ntsc>
                                </rate>
                                <duration>21</duration>
                                <start>23202</start>
                                <end>23223</end>
                                <in>37699</in>
                                <out>37720</out>
                            </clipitem>
                            <clipitem frameBlend="FALSE" id="clipitem-464">
                                <media>
                                    <video>
                                        <samplecharacteristics>
                                            <height>720</height>
                                            <width>1280</width>
                                        </samplecharacteristics>
                                    </video>
                                </media>
                                <file id="file-1"/>
                                <name>/home/davidk/code/python/JC-render/JC-examples/yoga.mp4</name>
                                <rate>
                                    <timebase>24</timebase>
                                    <ntsc>TRUE</ntsc>
                                </rate>
                                <rate>
                                    <timebase>24</timebase>
                                    <ntsc>TRUE</ntsc>
                                </rate>
                                <duration>18</duration>
                                <start>23223</start>
                                <end>23241</end>
                                <in>37752</in>
                                <out>37770</out>
                            </clipitem>
                            <clipitem frameBlend="FALSE" id="clipitem-465">
                                <media>
                                    <video>
                                        <samplecharacteristics>
                                            <height>720</height>
                                            <width>1280</width>
                                        </samplecharacteristics>
                                    </video>
                                </media>
                                <file id="file-1"/>
                                <name>/home/davidk/code/python/JC-render/JC-examples/yoga.mp4</name>
                                <rate>
                                    <timebase>24</timebase>
                                    <ntsc>TRUE</ntsc>
                                </rate>
                                <rate>
                                    <timebase>24</timebase>
                                    <ntsc>TRUE</ntsc>
                                </rate>
                                <duration>23</duration>
                                <start>23241</start>
                                <end>23264</end>
                                <in>37847</in>
                                <out>37870</out>
                            </clipitem>
                            <clipitem frameBlend="FALSE" id="clipitem-466">
                                <media>
                                    <video>
                                        <samplecharacteristics>
                                            <height>720</height>
                                            <width>1280</width>
                                        </samplecharacteristics>
                                    </video>
                                </media>
                                <file id="file-1"/>
                                <name>/home/davidk/code/python/JC-render/JC-examples/yoga.mp4</name>
                                <rate>
                                    <timebase>24</timebase>
                                    <ntsc>TRUE</ntsc>
                                </rate>
                                <rate>
                                    <timebase>24</timebase>
                                    <ntsc>TRUE</ntsc>
                                </rate>
                                <duration>26</duration>
                                <start>23264</start>
                                <end>23290</end>
                                <in>37872</in>
                                <out>37898</out>
                            </clipitem>
                            <clipitem frameBlend="FALSE" id="clipitem-467">
                                <media>
                                    <video>
                                        <samplecharacteristics>
                                            <height>720</height>
                                            <width>1280</width>
                                        </samplecharacteristics>
                                    </video>
                                </media>
                                <file id="file-1"/>
                                <name>/home/davidk/code/python/JC-render/JC-examples/yoga.mp4</name>
                                <rate>
                                    <timebase>24</timebase>
                                    <ntsc>TRUE</ntsc>
                                </rate>
                                <rate>
                                    <timebase>24</timebase>
                                    <ntsc>TRUE</ntsc>
                                </rate>
                                <duration>15</duration>
                                <start>23290</start>
                                <end>23305</end>
                                <in>37914</in>
                                <out>37929</out>
                            </clipitem>
                            <clipitem frameBlend="FALSE" id="clipitem-468">
                                <media>
                                    <video>
                                        <samplecharacteristics>
                                            <height>720</height>
                                            <width>1280</width>
                                        </samplecharacteristics>
                                    </video>
                                </media>
                                <file id="file-1"/>
                                <name>/home/davidk/code/python/JC-render/JC-examples/yoga.mp4</name>
                                <rate>
                                    <timebase>24</timebase>
                                    <ntsc>TRUE</ntsc>
                                </rate>
                                <rate>
                                    <timebase>24</timebase>
                                    <ntsc>TRUE</ntsc>
                                </rate>
                                <duration>21</duration>
                                <start>23305</start>
                                <end>23326</end>
                                <in>37947</in>
                                <out>37968</out>
                            </clipitem>
                            <clipitem frameBlend="FALSE" id="clipitem-469">
                                <media>
                                    <video>
                                        <samplecharacteristics>
                                            <height>720</height>
                                            <width>1280</width>
                                        </samplecharacteristics>
                                    </video>
                                </media>
                                <file id="file-1"/>
                                <name>/home/davidk/code/python/JC-render/JC-examples/yoga.mp4</name>
                                <rate>
                                    <timebase>24</timebase>
                                    <ntsc>TRUE</ntsc>
                                </rate>
                                <rate>
                                    <timebase>24</timebase>
                                    <ntsc>TRUE</ntsc>
                                </rate>
                                <duration>43</duration>
                                <start>23326</start>
                                <end>23369</end>
                                <in>37992</in>
                                <out>38035</out>
                            </clipitem>
                            <clipitem frameBlend="FALSE" id="clipitem-470">
                                <media>
                                    <video>
                                        <samplecharacteristics>
                                            <height>720</height>
                                            <width>1280</width>
                                        </samplecharacteristics>
                                    </video>
                                </media>
                                <file id="file-1"/>
                                <name>/home/davidk/code/python/JC-render/JC-examples/yoga.mp4</name>
                                <rate>
                                    <timebase>24</timebase>
                                    <ntsc>TRUE</ntsc>
                                </rate>
                                <rate>
                                    <timebase>24</timebase>
                                    <ntsc>TRUE</ntsc>
                                </rate>
                                <duration>23</duration>
                                <start>23369</start>
                                <end>23392</end>
                                <in>38095</in>
                                <out>38118</out>
                            </clipitem>
                            <clipitem frameBlend="FALSE" id="clipitem-471">
                                <media>
                                    <video>
                                        <samplecharacteristics>
                                            <height>720</height>
                                            <width>1280</width>
                                        </samplecharacteristics>
                                    </video>
                                </media>
                                <file id="file-1"/>
                                <name>/home/davidk/code/python/JC-render/JC-examples/yoga.mp4</name>
                                <rate>
                                    <timebase>24</timebase>
                                    <ntsc>TRUE</ntsc>
                                </rate>
                                <rate>
                                    <timebase>24</timebase>
                                    <ntsc>TRUE</ntsc>
                                </rate>
                                <duration>27</duration>
                                <start>23392</start>
                                <end>23419</end>
                                <in>38164</in>
                                <out>38191</out>
                            </clipitem>
                            <clipitem frameBlend="FALSE" id="clipitem-472">
                                <media>
                                    <video>
                                        <samplecharacteristics>
                                            <height>720</height>
                                            <width>1280</width>
                                        </samplecharacteristics>
                                    </video>
                                </media>
                                <file id="file-1"/>
                                <name>/home/davidk/code/python/JC-render/JC-examples/yoga.mp4</name>
                                <rate>
                                    <timebase>24</timebase>
                                    <ntsc>TRUE</ntsc>
                                </rate>
                                <rate>
                                    <timebase>24</timebase>
                                    <ntsc>TRUE</ntsc>
                                </rate>
                                <duration>52</duration>
                                <start>23419</start>
                                <end>23471</end>
                                <in>38214</in>
                                <out>38266</out>
                            </clipitem>
                            <clipitem frameBlend="FALSE" id="clipitem-473">
                                <media>
                                    <video>
                                        <samplecharacteristics>
                                            <height>720</height>
                                            <width>1280</width>
                                        </samplecharacteristics>
                                    </video>
                                </media>
                                <file id="file-1"/>
                                <name>/home/davidk/code/python/JC-render/JC-examples/yoga.mp4</name>
                                <rate>
                                    <timebase>24</timebase>
                                    <ntsc>TRUE</ntsc>
                                </rate>
                                <rate>
                                    <timebase>24</timebase>
                                    <ntsc>TRUE</ntsc>
                                </rate>
                                <duration>18</duration>
                                <start>23471</start>
                                <end>23489</end>
                                <in>38287</in>
                                <out>38305</out>
                            </clipitem>
                            <clipitem frameBlend="FALSE" id="clipitem-474">
                                <media>
                                    <video>
                                        <samplecharacteristics>
                                            <height>720</height>
                                            <width>1280</width>
                                        </samplecharacteristics>
                                    </video>
                                </media>
                                <file id="file-1"/>
                                <name>/home/davidk/code/python/JC-render/JC-examples/yoga.mp4</name>
                                <rate>
                                    <timebase>24</timebase>
                                    <ntsc>TRUE</ntsc>
                                </rate>
                                <rate>
                                    <timebase>24</timebase>
                                    <ntsc>TRUE</ntsc>
                                </rate>
                                <duration>12</duration>
                                <start>23489</start>
                                <end>23501</end>
                                <in>38309</in>
                                <out>38321</out>
                            </clipitem>
                            <clipitem frameBlend="FALSE" id="clipitem-475">
                                <media>
                                    <video>
                                        <samplecharacteristics>
                                            <height>720</height>
                                            <width>1280</width>
                                        </samplecharacteristics>
                                    </video>
                                </media>
                                <file id="file-1"/>
                                <name>/home/davidk/code/python/JC-render/JC-examples/yoga.mp4</name>
                                <rate>
                                    <timebase>24</timebase>
                                    <ntsc>TRUE</ntsc>
                                </rate>
                                <rate>
                                    <timebase>24</timebase>
                                    <ntsc>TRUE</ntsc>
                                </rate>
                                <duration>40</duration>
                                <start>23501</start>
                                <end>23541</end>
                                <in>39985</in>
                                <out>40025</out>
                            </clipitem>
                            <clipitem frameBlend="FALSE" id="clipitem-476">
                                <media>
                                    <video>
                                        <samplecharacteristics>
                                            <height>720</height>
                                            <width>1280</width>
                                        </samplecharacteristics>
                                    </video>
                                </media>
                                <file id="file-1"/>
                                <name>/home/davidk/code/python/JC-render/JC-examples/yoga.mp4</name>
                                <rate>
                                    <timebase>24</timebase>
                                    <ntsc>TRUE</ntsc>
                                </rate>
                                <rate>
                                    <timebase>24</timebase>
                                    <ntsc>TRUE</ntsc>
                                </rate>
                                <duration>62</duration>
                                <start>23541</start>
                                <end>23603</end>
                                <in>40044</in>
                                <out>40106</out>
                            </clipitem>
                            <clipitem frameBlend="FALSE" id="clipitem-477">
                                <media>
                                    <video>
                                        <samplecharacteristics>
                                            <height>720</height>
                                            <width>1280</width>
                                        </samplecharacteristics>
                                    </video>
                                </media>
                                <file id="file-1"/>
                                <name>/home/davidk/code/python/JC-render/JC-examples/yoga.mp4</name>
                                <rate>
                                    <timebase>24</timebase>
                                    <ntsc>TRUE</ntsc>
                                </rate>
                                <rate>
                                    <timebase>24</timebase>
                                    <ntsc>TRUE</ntsc>
                                </rate>
                                <duration>18</duration>
                                <start>23603</start>
                                <end>23621</end>
                                <in>40110</in>
                                <out>40128</out>
                            </clipitem>
                            <clipitem frameBlend="FALSE" id="clipitem-478">
                                <media>
                                    <video>
                                        <samplecharacteristics>
                                            <height>720</height>
                                            <width>1280</width>
                                        </samplecharacteristics>
                                    </video>
                                </media>
                                <file id="file-1"/>
                                <name>/home/davidk/code/python/JC-render/JC-examples/yoga.mp4</name>
                                <rate>
                                    <timebase>24</timebase>
                                    <ntsc>TRUE</ntsc>
                                </rate>
                                <rate>
                                    <timebase>24</timebase>
                                    <ntsc>TRUE</ntsc>
                                </rate>
                                <duration>40</duration>
                                <start>23621</start>
                                <end>23661</end>
                                <in>40233</in>
                                <out>40273</out>
                            </clipitem>
                            <clipitem frameBlend="FALSE" id="clipitem-479">
                                <media>
                                    <video>
                                        <samplecharacteristics>
                                            <height>720</height>
                                            <width>1280</width>
                                        </samplecharacteristics>
                                    </video>
                                </media>
                                <file id="file-1"/>
                                <name>/home/davidk/code/python/JC-render/JC-examples/yoga.mp4</name>
                                <rate>
                                    <timebase>24</timebase>
                                    <ntsc>TRUE</ntsc>
                                </rate>
                                <rate>
                                    <timebase>24</timebase>
                                    <ntsc>TRUE</ntsc>
                                </rate>
                                <duration>23</duration>
                                <start>23661</start>
                                <end>23684</end>
                                <in>40303</in>
                                <out>40326</out>
                            </clipitem>
                            <clipitem frameBlend="FALSE" id="clipitem-480">
                                <media>
                                    <video>
                                        <samplecharacteristics>
                                            <height>720</height>
                                            <width>1280</width>
                                        </samplecharacteristics>
                                    </video>
                                </media>
                                <file id="file-1"/>
                                <name>/home/davidk/code/python/JC-render/JC-examples/yoga.mp4</name>
                                <rate>
                                    <timebase>24</timebase>
                                    <ntsc>TRUE</ntsc>
                                </rate>
                                <rate>
                                    <timebase>24</timebase>
                                    <ntsc>TRUE</ntsc>
                                </rate>
                                <duration>66</duration>
                                <start>23684</start>
                                <end>23750</end>
                                <in>40444</in>
                                <out>40510</out>
                            </clipitem>
                            <clipitem frameBlend="FALSE" id="clipitem-481">
                                <media>
                                    <video>
                                        <samplecharacteristics>
                                            <height>720</height>
                                            <width>1280</width>
                                        </samplecharacteristics>
                                    </video>
                                </media>
                                <file id="file-1"/>
                                <name>/home/davidk/code/python/JC-render/JC-examples/yoga.mp4</name>
                                <rate>
                                    <timebase>24</timebase>
                                    <ntsc>TRUE</ntsc>
                                </rate>
                                <rate>
                                    <timebase>24</timebase>
                                    <ntsc>TRUE</ntsc>
                                </rate>
                                <duration>29</duration>
                                <start>23750</start>
                                <end>23779</end>
                                <in>40514</in>
                                <out>40543</out>
                            </clipitem>
                            <clipitem frameBlend="FALSE" id="clipitem-482">
                                <media>
                                    <video>
                                        <samplecharacteristics>
                                            <height>720</height>
                                            <width>1280</width>
                                        </samplecharacteristics>
                                    </video>
                                </media>
                                <file id="file-1"/>
                                <name>/home/davidk/code/python/JC-render/JC-examples/yoga.mp4</name>
                                <rate>
                                    <timebase>24</timebase>
                                    <ntsc>TRUE</ntsc>
                                </rate>
                                <rate>
                                    <timebase>24</timebase>
                                    <ntsc>TRUE</ntsc>
                                </rate>
                                <duration>91</duration>
                                <start>23779</start>
                                <end>23870</end>
                                <in>40603</in>
                                <out>40694</out>
                            </clipitem>
                            <clipitem frameBlend="FALSE" id="clipitem-483">
                                <media>
                                    <video>
                                        <samplecharacteristics>
                                            <height>720</height>
                                            <width>1280</width>
                                        </samplecharacteristics>
                                    </video>
                                </media>
                                <file id="file-1"/>
                                <name>/home/davidk/code/python/JC-render/JC-examples/yoga.mp4</name>
                                <rate>
                                    <timebase>24</timebase>
                                    <ntsc>TRUE</ntsc>
                                </rate>
                                <rate>
                                    <timebase>24</timebase>
                                    <ntsc>TRUE</ntsc>
                                </rate>
                                <duration>18</duration>
                                <start>23870</start>
                                <end>23888</end>
                                <in>40698</in>
                                <out>40716</out>
                            </clipitem>
                            <clipitem frameBlend="FALSE" id="clipitem-484">
                                <media>
                                    <video>
                                        <samplecharacteristics>
                                            <height>720</height>
                                            <width>1280</width>
                                        </samplecharacteristics>
                                    </video>
                                </media>
                                <file id="file-1"/>
                                <name>/home/davidk/code/python/JC-render/JC-examples/yoga.mp4</name>
                                <rate>
                                    <timebase>24</timebase>
                                    <ntsc>TRUE</ntsc>
                                </rate>
                                <rate>
                                    <timebase>24</timebase>
                                    <ntsc>TRUE</ntsc>
                                </rate>
                                <duration>55</duration>
                                <start>23888</start>
                                <end>23943</end>
                                <in>40806</in>
                                <out>40861</out>
                            </clipitem>
                            <clipitem frameBlend="FALSE" id="clipitem-485">
                                <media>
                                    <video>
                                        <samplecharacteristics>
                                            <height>720</height>
                                            <width>1280</width>
                                        </samplecharacteristics>
                                    </video>
                                </media>
                                <file id="file-1"/>
                                <name>/home/davidk/code/python/JC-render/JC-examples/yoga.mp4</name>
                                <rate>
                                    <timebase>24</timebase>
                                    <ntsc>TRUE</ntsc>
                                </rate>
                                <rate>
                                    <timebase>24</timebase>
                                    <ntsc>TRUE</ntsc>
                                </rate>
                                <duration>35</duration>
                                <start>23943</start>
                                <end>23978</end>
                                <in>40887</in>
                                <out>40922</out>
                            </clipitem>
                            <clipitem frameBlend="FALSE" id="clipitem-486">
                                <media>
                                    <video>
                                        <samplecharacteristics>
                                            <height>720</height>
                                            <width>1280</width>
                                        </samplecharacteristics>
                                    </video>
                                </media>
                                <file id="file-1"/>
                                <name>/home/davidk/code/python/JC-render/JC-examples/yoga.mp4</name>
                                <rate>
                                    <timebase>24</timebase>
                                    <ntsc>TRUE</ntsc>
                                </rate>
                                <rate>
                                    <timebase>24</timebase>
                                    <ntsc>TRUE</ntsc>
                                </rate>
                                <duration>23</duration>
                                <start>23978</start>
                                <end>24001</end>
                                <in>41046</in>
                                <out>41069</out>
                            </clipitem>
                            <clipitem frameBlend="FALSE" id="clipitem-487">
                                <media>
                                    <video>
                                        <samplecharacteristics>
                                            <height>720</height>
                                            <width>1280</width>
                                        </samplecharacteristics>
                                    </video>
                                </media>
                                <file id="file-1"/>
                                <name>/home/davidk/code/python/JC-render/JC-examples/yoga.mp4</name>
                                <rate>
                                    <timebase>24</timebase>
                                    <ntsc>TRUE</ntsc>
                                </rate>
                                <rate>
                                    <timebase>24</timebase>
                                    <ntsc>TRUE</ntsc>
                                </rate>
                                <duration>35</duration>
                                <start>24001</start>
                                <end>24036</end>
                                <in>41093</in>
                                <out>41128</out>
                            </clipitem>
                            <clipitem frameBlend="FALSE" id="clipitem-488">
                                <media>
                                    <video>
                                        <samplecharacteristics>
                                            <height>720</height>
                                            <width>1280</width>
                                        </samplecharacteristics>
                                    </video>
                                </media>
                                <file id="file-1"/>
                                <name>/home/davidk/code/python/JC-render/JC-examples/yoga.mp4</name>
                                <rate>
                                    <timebase>24</timebase>
                                    <ntsc>TRUE</ntsc>
                                </rate>
                                <rate>
                                    <timebase>24</timebase>
                                    <ntsc>TRUE</ntsc>
                                </rate>
                                <duration>43</duration>
                                <start>24036</start>
                                <end>24079</end>
                                <in>41143</in>
                                <out>41186</out>
                            </clipitem>
                            <clipitem frameBlend="FALSE" id="clipitem-489">
                                <media>
                                    <video>
                                        <samplecharacteristics>
                                            <height>720</height>
                                            <width>1280</width>
                                        </samplecharacteristics>
                                    </video>
                                </media>
                                <file id="file-1"/>
                                <name>/home/davidk/code/python/JC-render/JC-examples/yoga.mp4</name>
                                <rate>
                                    <timebase>24</timebase>
                                    <ntsc>TRUE</ntsc>
                                </rate>
                                <rate>
                                    <timebase>24</timebase>
                                    <ntsc>TRUE</ntsc>
                                </rate>
                                <duration>21</duration>
                                <start>24079</start>
                                <end>24100</end>
                                <in>41299</in>
                                <out>41320</out>
                            </clipitem>
                            <clipitem frameBlend="FALSE" id="clipitem-490">
                                <media>
                                    <video>
                                        <samplecharacteristics>
                                            <height>720</height>
                                            <width>1280</width>
                                        </samplecharacteristics>
                                    </video>
                                </media>
                                <file id="file-1"/>
                                <name>/home/davidk/code/python/JC-render/JC-examples/yoga.mp4</name>
                                <rate>
                                    <timebase>24</timebase>
                                    <ntsc>TRUE</ntsc>
                                </rate>
                                <rate>
                                    <timebase>24</timebase>
                                    <ntsc>TRUE</ntsc>
                                </rate>
                                <duration>17</duration>
                                <start>24100</start>
                                <end>24117</end>
                                <in>41347</in>
                                <out>41364</out>
                            </clipitem>
                            <clipitem frameBlend="FALSE" id="clipitem-491">
                                <media>
                                    <video>
                                        <samplecharacteristics>
                                            <height>720</height>
                                            <width>1280</width>
                                        </samplecharacteristics>
                                    </video>
                                </media>
                                <file id="file-1"/>
                                <name>/home/davidk/code/python/JC-render/JC-examples/yoga.mp4</name>
                                <rate>
                                    <timebase>24</timebase>
                                    <ntsc>TRUE</ntsc>
                                </rate>
                                <rate>
                                    <timebase>24</timebase>
                                    <ntsc>TRUE</ntsc>
                                </rate>
                                <duration>12</duration>
                                <start>24117</start>
                                <end>24129</end>
                                <in>41366</in>
                                <out>41378</out>
                            </clipitem>
                            <clipitem frameBlend="FALSE" id="clipitem-492">
                                <media>
                                    <video>
                                        <samplecharacteristics>
                                            <height>720</height>
                                            <width>1280</width>
                                        </samplecharacteristics>
                                    </video>
                                </media>
                                <file id="file-1"/>
                                <name>/home/davidk/code/python/JC-render/JC-examples/yoga.mp4</name>
                                <rate>
                                    <timebase>24</timebase>
                                    <ntsc>TRUE</ntsc>
                                </rate>
                                <rate>
                                    <timebase>24</timebase>
                                    <ntsc>TRUE</ntsc>
                                </rate>
                                <duration>15</duration>
                                <start>24129</start>
                                <end>24144</end>
                                <in>41380</in>
                                <out>41395</out>
                            </clipitem>
                            <clipitem frameBlend="FALSE" id="clipitem-493">
                                <media>
                                    <video>
                                        <samplecharacteristics>
                                            <height>720</height>
                                            <width>1280</width>
                                        </samplecharacteristics>
                                    </video>
                                </media>
                                <file id="file-1"/>
                                <name>/home/davidk/code/python/JC-render/JC-examples/yoga.mp4</name>
                                <rate>
                                    <timebase>24</timebase>
                                    <ntsc>TRUE</ntsc>
                                </rate>
                                <rate>
                                    <timebase>24</timebase>
                                    <ntsc>TRUE</ntsc>
                                </rate>
                                <duration>30</duration>
                                <start>24144</start>
                                <end>24174</end>
                                <in>41424</in>
                                <out>41454</out>
                            </clipitem>
                            <clipitem frameBlend="FALSE" id="clipitem-494">
                                <media>
                                    <video>
                                        <samplecharacteristics>
                                            <height>720</height>
                                            <width>1280</width>
                                        </samplecharacteristics>
                                    </video>
                                </media>
                                <file id="file-1"/>
                                <name>/home/davidk/code/python/JC-render/JC-examples/yoga.mp4</name>
                                <rate>
                                    <timebase>24</timebase>
                                    <ntsc>TRUE</ntsc>
                                </rate>
                                <rate>
                                    <timebase>24</timebase>
                                    <ntsc>TRUE</ntsc>
                                </rate>
                                <duration>12</duration>
                                <start>24174</start>
                                <end>24186</end>
                                <in>41469</in>
                                <out>41481</out>
                            </clipitem>
                            <clipitem frameBlend="FALSE" id="clipitem-495">
                                <media>
                                    <video>
                                        <samplecharacteristics>
                                            <height>720</height>
                                            <width>1280</width>
                                        </samplecharacteristics>
                                    </video>
                                </media>
                                <file id="file-1"/>
                                <name>/home/davidk/code/python/JC-render/JC-examples/yoga.mp4</name>
                                <rate>
                                    <timebase>24</timebase>
                                    <ntsc>TRUE</ntsc>
                                </rate>
                                <rate>
                                    <timebase>24</timebase>
                                    <ntsc>TRUE</ntsc>
                                </rate>
                                <duration>20</duration>
                                <start>24186</start>
                                <end>24206</end>
                                <in>41539</in>
                                <out>41559</out>
                            </clipitem>
                            <clipitem frameBlend="FALSE" id="clipitem-496">
                                <media>
                                    <video>
                                        <samplecharacteristics>
                                            <height>720</height>
                                            <width>1280</width>
                                        </samplecharacteristics>
                                    </video>
                                </media>
                                <file id="file-1"/>
                                <name>/home/davidk/code/python/JC-render/JC-examples/yoga.mp4</name>
                                <rate>
                                    <timebase>24</timebase>
                                    <ntsc>TRUE</ntsc>
                                </rate>
                                <rate>
                                    <timebase>24</timebase>
                                    <ntsc>TRUE</ntsc>
                                </rate>
                                <duration>21</duration>
                                <start>24206</start>
                                <end>24227</end>
                                <in>41756</in>
                                <out>41777</out>
                            </clipitem>
                            <clipitem frameBlend="FALSE" id="clipitem-497">
                                <media>
                                    <video>
                                        <samplecharacteristics>
                                            <height>720</height>
                                            <width>1280</width>
                                        </samplecharacteristics>
                                    </video>
                                </media>
                                <file id="file-1"/>
                                <name>/home/davidk/code/python/JC-render/JC-examples/yoga.mp4</name>
                                <rate>
                                    <timebase>24</timebase>
                                    <ntsc>TRUE</ntsc>
                                </rate>
                                <rate>
                                    <timebase>24</timebase>
                                    <ntsc>TRUE</ntsc>
                                </rate>
                                <duration>26</duration>
                                <start>24227</start>
                                <end>24253</end>
                                <in>41781</in>
                                <out>41807</out>
                            </clipitem>
                            <clipitem frameBlend="FALSE" id="clipitem-498">
                                <media>
                                    <video>
                                        <samplecharacteristics>
                                            <height>720</height>
                                            <width>1280</width>
                                        </samplecharacteristics>
                                    </video>
                                </media>
                                <file id="file-1"/>
                                <name>/home/davidk/code/python/JC-render/JC-examples/yoga.mp4</name>
                                <rate>
                                    <timebase>24</timebase>
                                    <ntsc>TRUE</ntsc>
                                </rate>
                                <rate>
                                    <timebase>24</timebase>
                                    <ntsc>TRUE</ntsc>
                                </rate>
                                <duration>74</duration>
                                <start>24253</start>
                                <end>24327</end>
                                <in>41817</in>
                                <out>41891</out>
                            </clipitem>
                            <clipitem frameBlend="FALSE" id="clipitem-499">
                                <media>
                                    <video>
                                        <samplecharacteristics>
                                            <height>720</height>
                                            <width>1280</width>
                                        </samplecharacteristics>
                                    </video>
                                </media>
                                <file id="file-1"/>
                                <name>/home/davidk/code/python/JC-render/JC-examples/yoga.mp4</name>
                                <rate>
                                    <timebase>24</timebase>
                                    <ntsc>TRUE</ntsc>
                                </rate>
                                <rate>
                                    <timebase>24</timebase>
                                    <ntsc>TRUE</ntsc>
                                </rate>
                                <duration>110</duration>
                                <start>24327</start>
                                <end>24437</end>
                                <in>41895</in>
                                <out>42005</out>
                            </clipitem>
                            <clipitem frameBlend="FALSE" id="clipitem-500">
                                <media>
                                    <video>
                                        <samplecharacteristics>
                                            <height>720</height>
                                            <width>1280</width>
                                        </samplecharacteristics>
                                    </video>
                                </media>
                                <file id="file-1"/>
                                <name>/home/davidk/code/python/JC-render/JC-examples/yoga.mp4</name>
                                <rate>
                                    <timebase>24</timebase>
                                    <ntsc>TRUE</ntsc>
                                </rate>
                                <rate>
                                    <timebase>24</timebase>
                                    <ntsc>TRUE</ntsc>
                                </rate>
                                <duration>15</duration>
                                <start>24437</start>
                                <end>24452</end>
                                <in>42023</in>
                                <out>42038</out>
                            </clipitem>
                            <clipitem frameBlend="FALSE" id="clipitem-501">
                                <media>
                                    <video>
                                        <samplecharacteristics>
                                            <height>720</height>
                                            <width>1280</width>
                                        </samplecharacteristics>
                                    </video>
                                </media>
                                <file id="file-1"/>
                                <name>/home/davidk/code/python/JC-render/JC-examples/yoga.mp4</name>
                                <rate>
                                    <timebase>24</timebase>
                                    <ntsc>TRUE</ntsc>
                                </rate>
                                <rate>
                                    <timebase>24</timebase>
                                    <ntsc>TRUE</ntsc>
                                </rate>
                                <duration>96</duration>
                                <start>24452</start>
                                <end>24548</end>
                                <in>42051</in>
                                <out>42147</out>
                            </clipitem>
                            <clipitem frameBlend="FALSE" id="clipitem-502">
                                <media>
                                    <video>
                                        <samplecharacteristics>
                                            <height>720</height>
                                            <width>1280</width>
                                        </samplecharacteristics>
                                    </video>
                                </media>
                                <file id="file-1"/>
                                <name>/home/davidk/code/python/JC-render/JC-examples/yoga.mp4</name>
                                <rate>
                                    <timebase>24</timebase>
                                    <ntsc>TRUE</ntsc>
                                </rate>
                                <rate>
                                    <timebase>24</timebase>
                                    <ntsc>TRUE</ntsc>
                                </rate>
                                <duration>119</duration>
                                <start>24548</start>
                                <end>24667</end>
                                <in>42148</in>
                                <out>42267</out>
                            </clipitem>
                            <clipitem frameBlend="FALSE" id="clipitem-503">
                                <media>
                                    <video>
                                        <samplecharacteristics>
                                            <height>720</height>
                                            <width>1280</width>
                                        </samplecharacteristics>
                                    </video>
                                </media>
                                <file id="file-1"/>
                                <name>/home/davidk/code/python/JC-render/JC-examples/yoga.mp4</name>
                                <rate>
                                    <timebase>24</timebase>
                                    <ntsc>TRUE</ntsc>
                                </rate>
                                <rate>
                                    <timebase>24</timebase>
                                    <ntsc>TRUE</ntsc>
                                </rate>
                                <duration>269</duration>
                                <start>24667</start>
                                <end>24936</end>
                                <in>42268</in>
                                <out>42537</out>
                            </clipitem>
                            <clipitem frameBlend="FALSE" id="clipitem-504">
                                <media>
                                    <video>
                                        <samplecharacteristics>
                                            <height>720</height>
                                            <width>1280</width>
                                        </samplecharacteristics>
                                    </video>
                                </media>
                                <file id="file-1"/>
                                <name>/home/davidk/code/python/JC-render/JC-examples/yoga.mp4</name>
                                <rate>
                                    <timebase>24</timebase>
                                    <ntsc>TRUE</ntsc>
                                </rate>
                                <rate>
                                    <timebase>24</timebase>
                                    <ntsc>TRUE</ntsc>
                                </rate>
                                <duration>140</duration>
                                <start>24936</start>
                                <end>25076</end>
                                <in>42555</in>
                                <out>42695</out>
                            </clipitem>
                            <clipitem frameBlend="FALSE" id="clipitem-505">
                                <media>
                                    <video>
                                        <samplecharacteristics>
                                            <height>720</height>
                                            <width>1280</width>
                                        </samplecharacteristics>
                                    </video>
                                </media>
                                <file id="file-1"/>
                                <name>/home/davidk/code/python/JC-render/JC-examples/yoga.mp4</name>
                                <rate>
                                    <timebase>24</timebase>
                                    <ntsc>TRUE</ntsc>
                                </rate>
                                <rate>
                                    <timebase>24</timebase>
                                    <ntsc>TRUE</ntsc>
                                </rate>
                                <duration>123</duration>
                                <start>25076</start>
                                <end>25199</end>
                                <in>42700</in>
                                <out>42823</out>
                            </clipitem>
                            <clipitem frameBlend="FALSE" id="clipitem-506">
                                <media>
                                    <video>
                                        <samplecharacteristics>
                                            <height>720</height>
                                            <width>1280</width>
                                        </samplecharacteristics>
                                    </video>
                                </media>
                                <file id="file-1"/>
                                <name>/home/davidk/code/python/JC-render/JC-examples/yoga.mp4</name>
                                <rate>
                                    <timebase>24</timebase>
                                    <ntsc>TRUE</ntsc>
                                </rate>
                                <rate>
                                    <timebase>24</timebase>
                                    <ntsc>TRUE</ntsc>
                                </rate>
                                <duration>268</duration>
                                <start>25199</start>
                                <end>25467</end>
                                <in>42850</in>
                                <out>43118</out>
                            </clipitem>
                            <clipitem frameBlend="FALSE" id="clipitem-507">
                                <media>
                                    <video>
                                        <samplecharacteristics>
                                            <height>720</height>
                                            <width>1280</width>
                                        </samplecharacteristics>
                                    </video>
                                </media>
                                <file id="file-1"/>
                                <name>/home/davidk/code/python/JC-render/JC-examples/yoga.mp4</name>
                                <rate>
                                    <timebase>24</timebase>
                                    <ntsc>TRUE</ntsc>
                                </rate>
                                <rate>
                                    <timebase>24</timebase>
                                    <ntsc>TRUE</ntsc>
                                </rate>
                                <duration>352</duration>
                                <start>25467</start>
                                <end>25819</end>
                                <in>43120</in>
                                <out>43472</out>
                            </clipitem>
                            <clipitem frameBlend="FALSE" id="clipitem-508">
                                <media>
                                    <video>
                                        <samplecharacteristics>
                                            <height>720</height>
                                            <width>1280</width>
                                        </samplecharacteristics>
                                    </video>
                                </media>
                                <file id="file-1"/>
                                <name>/home/davidk/code/python/JC-render/JC-examples/yoga.mp4</name>
                                <rate>
                                    <timebase>24</timebase>
                                    <ntsc>TRUE</ntsc>
                                </rate>
                                <rate>
                                    <timebase>24</timebase>
                                    <ntsc>TRUE</ntsc>
                                </rate>
                                <duration>15</duration>
                                <start>25819</start>
                                <end>25834</end>
                                <in>43474</in>
                                <out>43489</out>
                            </clipitem>
                            <clipitem frameBlend="FALSE" id="clipitem-509">
                                <media>
                                    <video>
                                        <samplecharacteristics>
                                            <height>720</height>
                                            <width>1280</width>
                                        </samplecharacteristics>
                                    </video>
                                </media>
                                <file id="file-1"/>
                                <name>/home/davidk/code/python/JC-render/JC-examples/yoga.mp4</name>
                                <rate>
                                    <timebase>24</timebase>
                                    <ntsc>TRUE</ntsc>
                                </rate>
                                <rate>
                                    <timebase>24</timebase>
                                    <ntsc>TRUE</ntsc>
                                </rate>
                                <duration>21</duration>
                                <start>25834</start>
                                <end>25855</end>
                                <in>43493</in>
                                <out>43514</out>
                            </clipitem>
                            <clipitem frameBlend="FALSE" id="clipitem-510">
                                <media>
                                    <video>
                                        <samplecharacteristics>
                                            <height>720</height>
                                            <width>1280</width>
                                        </samplecharacteristics>
                                    </video>
                                </media>
                                <file id="file-1"/>
                                <name>/home/davidk/code/python/JC-render/JC-examples/yoga.mp4</name>
                                <rate>
                                    <timebase>24</timebase>
                                    <ntsc>TRUE</ntsc>
                                </rate>
                                <rate>
                                    <timebase>24</timebase>
                                    <ntsc>TRUE</ntsc>
                                </rate>
                                <duration>93</duration>
                                <start>25855</start>
                                <end>25948</end>
                                <in>43518</in>
                                <out>43611</out>
                            </clipitem>
                            <clipitem frameBlend="FALSE" id="clipitem-511">
                                <media>
                                    <video>
                                        <samplecharacteristics>
                                            <height>720</height>
                                            <width>1280</width>
                                        </samplecharacteristics>
                                    </video>
                                </media>
                                <file id="file-1"/>
                                <name>/home/davidk/code/python/JC-render/JC-examples/yoga.mp4</name>
                                <rate>
                                    <timebase>24</timebase>
                                    <ntsc>TRUE</ntsc>
                                </rate>
                                <rate>
                                    <timebase>24</timebase>
                                    <ntsc>TRUE</ntsc>
                                </rate>
                                <duration>13</duration>
                                <start>25948</start>
                                <end>25961</end>
                                <in>43632</in>
                                <out>43645</out>
                            </clipitem>
                            <clipitem frameBlend="FALSE" id="clipitem-512">
                                <media>
                                    <video>
                                        <samplecharacteristics>
                                            <height>720</height>
                                            <width>1280</width>
                                        </samplecharacteristics>
                                    </video>
                                </media>
                                <file id="file-1"/>
                                <name>/home/davidk/code/python/JC-render/JC-examples/yoga.mp4</name>
                                <rate>
                                    <timebase>24</timebase>
                                    <ntsc>TRUE</ntsc>
                                </rate>
                                <rate>
                                    <timebase>24</timebase>
                                    <ntsc>TRUE</ntsc>
                                </rate>
                                <duration>18</duration>
                                <start>25961</start>
                                <end>25979</end>
                                <in>43649</in>
                                <out>43667</out>
                            </clipitem>
                            <clipitem frameBlend="FALSE" id="clipitem-513">
                                <media>
                                    <video>
                                        <samplecharacteristics>
                                            <height>720</height>
                                            <width>1280</width>
                                        </samplecharacteristics>
                                    </video>
                                </media>
                                <file id="file-1"/>
                                <name>/home/davidk/code/python/JC-render/JC-examples/yoga.mp4</name>
                                <rate>
                                    <timebase>24</timebase>
                                    <ntsc>TRUE</ntsc>
                                </rate>
                                <rate>
                                    <timebase>24</timebase>
                                    <ntsc>TRUE</ntsc>
                                </rate>
                                <duration>13</duration>
                                <start>25979</start>
                                <end>25992</end>
                                <in>43760</in>
                                <out>43773</out>
                            </clipitem>
                            <clipitem frameBlend="FALSE" id="clipitem-514">
                                <media>
                                    <video>
                                        <samplecharacteristics>
                                            <height>720</height>
                                            <width>1280</width>
                                        </samplecharacteristics>
                                    </video>
                                </media>
                                <file id="file-1"/>
                                <name>/home/davidk/code/python/JC-render/JC-examples/yoga.mp4</name>
                                <rate>
                                    <timebase>24</timebase>
                                    <ntsc>TRUE</ntsc>
                                </rate>
                                <rate>
                                    <timebase>24</timebase>
                                    <ntsc>TRUE</ntsc>
                                </rate>
                                <duration>12</duration>
                                <start>25992</start>
                                <end>26004</end>
                                <in>43777</in>
                                <out>43789</out>
                            </clipitem>
                            <clipitem frameBlend="FALSE" id="clipitem-515">
                                <media>
                                    <video>
                                        <samplecharacteristics>
                                            <height>720</height>
                                            <width>1280</width>
                                        </samplecharacteristics>
                                    </video>
                                </media>
                                <file id="file-1"/>
                                <name>/home/davidk/code/python/JC-render/JC-examples/yoga.mp4</name>
                                <rate>
                                    <timebase>24</timebase>
                                    <ntsc>TRUE</ntsc>
                                </rate>
                                <rate>
                                    <timebase>24</timebase>
                                    <ntsc>TRUE</ntsc>
                                </rate>
                                <duration>13</duration>
                                <start>26004</start>
                                <end>26017</end>
                                <in>43888</in>
                                <out>43901</out>
                            </clipitem>
                        </track>
                        <format>
                            <samplecharacteristics>
                                <height>720</height>
                                <width>1280</width>
                                <pixelaspectratio>1.0</pixelaspectratio>
                            </samplecharacteristics>
                        </format>
                    </video>
                    <audio>
                        <track>
                            <clipitem id="clipitem-1"/>
                            <clipitem id="clipitem-2"/>
                            <clipitem id="clipitem-3"/>
                            <clipitem id="clipitem-4"/>
                            <clipitem id="clipitem-5"/>
                            <clipitem id="clipitem-6"/>
                            <clipitem id="clipitem-7"/>
                            <clipitem id="clipitem-8"/>
                            <clipitem id="clipitem-9"/>
                            <clipitem id="clipitem-10"/>
                            <clipitem id="clipitem-11"/>
                            <clipitem id="clipitem-12"/>
                            <clipitem id="clipitem-13"/>
                            <clipitem id="clipitem-14"/>
                            <clipitem id="clipitem-15"/>
                            <clipitem id="clipitem-16"/>
                            <clipitem id="clipitem-17"/>
                            <clipitem id="clipitem-18"/>
                            <clipitem id="clipitem-19"/>
                            <clipitem id="clipitem-20"/>
                            <clipitem id="clipitem-21"/>
                            <clipitem id="clipitem-22"/>
                            <clipitem id="clipitem-23"/>
                            <clipitem id="clipitem-24"/>
                            <clipitem id="clipitem-25"/>
                            <clipitem id="clipitem-26"/>
                            <clipitem id="clipitem-27"/>
                            <clipitem id="clipitem-28"/>
                            <clipitem id="clipitem-29"/>
                            <clipitem id="clipitem-30"/>
                            <clipitem id="clipitem-31"/>
                            <clipitem id="clipitem-32"/>
                            <clipitem id="clipitem-33"/>
                            <clipitem id="clipitem-34"/>
                            <clipitem id="clipitem-35"/>
                            <clipitem id="clipitem-36"/>
                            <clipitem id="clipitem-37"/>
                            <clipitem id="clipitem-38"/>
                            <clipitem id="clipitem-39"/>
                            <clipitem id="clipitem-40"/>
                            <clipitem id="clipitem-41"/>
                            <clipitem id="clipitem-42"/>
                            <clipitem id="clipitem-43"/>
                            <clipitem id="clipitem-44"/>
                            <clipitem id="clipitem-45"/>
                            <clipitem id="clipitem-46"/>
                            <clipitem id="clipitem-47"/>
                            <clipitem id="clipitem-48"/>
                            <clipitem id="clipitem-49"/>
                            <clipitem id="clipitem-50"/>
                            <clipitem id="clipitem-51"/>
                            <clipitem id="clipitem-52"/>
                            <clipitem id="clipitem-53"/>
                            <clipitem id="clipitem-54"/>
                            <clipitem id="clipitem-55"/>
                            <clipitem id="clipitem-56"/>
                            <clipitem id="clipitem-57"/>
                            <clipitem id="clipitem-58"/>
                            <clipitem id="clipitem-59"/>
                            <clipitem id="clipitem-60"/>
                            <clipitem id="clipitem-61"/>
                            <clipitem id="clipitem-62"/>
                            <clipitem id="clipitem-63"/>
                            <clipitem id="clipitem-64"/>
                            <clipitem id="clipitem-65"/>
                            <clipitem id="clipitem-66"/>
                            <clipitem id="clipitem-67"/>
                            <clipitem id="clipitem-68"/>
                            <clipitem id="clipitem-69"/>
                            <clipitem id="clipitem-70"/>
                            <clipitem id="clipitem-71"/>
                            <clipitem id="clipitem-72"/>
                            <clipitem id="clipitem-73"/>
                            <clipitem id="clipitem-74"/>
                            <clipitem id="clipitem-75"/>
                            <clipitem id="clipitem-76"/>
                            <clipitem id="clipitem-77"/>
                            <clipitem id="clipitem-78"/>
                            <clipitem id="clipitem-79"/>
                            <clipitem id="clipitem-80"/>
                            <clipitem id="clipitem-81"/>
                            <clipitem id="clipitem-82"/>
                            <clipitem id="clipitem-83"/>
                            <clipitem id="clipitem-84"/>
                            <clipitem id="clipitem-85"/>
                            <clipitem id="clipitem-86"/>
                            <clipitem id="clipitem-87"/>
                            <clipitem id="clipitem-88"/>
                            <clipitem id="clipitem-89"/>
                            <clipitem id="clipitem-90"/>
                            <clipitem id="clipitem-91"/>
                            <clipitem id="clipitem-92"/>
                            <clipitem id="clipitem-93"/>
                            <clipitem id="clipitem-94"/>
                            <clipitem id="clipitem-95"/>
                            <clipitem id="clipitem-96"/>
                            <clipitem id="clipitem-97"/>
                            <clipitem id="clipitem-98"/>
                            <clipitem id="clipitem-99"/>
                            <clipitem id="clipitem-100"/>
                            <clipitem id="clipitem-101"/>
                            <clipitem id="clipitem-102"/>
                            <clipitem id="clipitem-103"/>
                            <clipitem id="clipitem-104"/>
                            <clipitem id="clipitem-105"/>
                            <clipitem id="clipitem-106"/>
                            <clipitem id="clipitem-107"/>
                            <clipitem id="clipitem-108"/>
                            <clipitem id="clipitem-109"/>
                            <clipitem id="clipitem-110"/>
                            <clipitem id="clipitem-111"/>
                            <clipitem id="clipitem-112"/>
                            <clipitem id="clipitem-113"/>
                            <clipitem id="clipitem-114"/>
                            <clipitem id="clipitem-115"/>
                            <clipitem id="clipitem-116"/>
                            <clipitem id="clipitem-117"/>
                            <clipitem id="clipitem-118"/>
                            <clipitem id="clipitem-119"/>
                            <clipitem id="clipitem-120"/>
                            <clipitem id="clipitem-121"/>
                            <clipitem id="clipitem-122"/>
                            <clipitem id="clipitem-123"/>
                            <clipitem id="clipitem-124"/>
                            <clipitem id="clipitem-125"/>
                            <clipitem id="clipitem-126"/>
                            <clipitem id="clipitem-127"/>
                            <clipitem id="clipitem-128"/>
                            <clipitem id="clipitem-129"/>
                            <clipitem id="clipitem-130"/>
                            <clipitem id="clipitem-131"/>
                            <clipitem id="clipitem-132"/>
                            <clipitem id="clipitem-133"/>
                            <clipitem id="clipitem-134"/>
                            <clipitem id="clipitem-135"/>
                            <clipitem id="clipitem-136"/>
                            <clipitem id="clipitem-137"/>
                            <clipitem id="clipitem-138"/>
                            <clipitem id="clipitem-139"/>
                            <clipitem id="clipitem-140"/>
                            <clipitem id="clipitem-141"/>
                            <clipitem id="clipitem-142"/>
                            <clipitem id="clipitem-143"/>
                            <clipitem id="clipitem-144"/>
                            <clipitem id="clipitem-145"/>
                            <clipitem id="clipitem-146"/>
                            <clipitem id="clipitem-147"/>
                            <clipitem id="clipitem-148"/>
                            <clipitem id="clipitem-149"/>
                            <clipitem id="clipitem-150"/>
                            <clipitem id="clipitem-151"/>
                            <clipitem id="clipitem-152"/>
                            <clipitem id="clipitem-153"/>
                            <clipitem id="clipitem-154"/>
                            <clipitem id="clipitem-155"/>
                            <clipitem id="clipitem-156"/>
                            <clipitem id="clipitem-157"/>
                            <clipitem id="clipitem-158"/>
                            <clipitem id="clipitem-159"/>
                            <clipitem id="clipitem-160"/>
                            <clipitem id="clipitem-161"/>
                            <clipitem id="clipitem-162"/>
                            <clipitem id="clipitem-163"/>
                            <clipitem id="clipitem-164"/>
                            <clipitem id="clipitem-165"/>
                            <clipitem id="clipitem-166"/>
                            <clipitem id="clipitem-167"/>
                            <clipitem id="clipitem-168"/>
                            <clipitem id="clipitem-169"/>
                            <clipitem id="clipitem-170"/>
                            <clipitem id="clipitem-171"/>
                            <clipitem id="clipitem-172"/>
                            <clipitem id="clipitem-173"/>
                            <clipitem id="clipitem-174"/>
                            <clipitem id="clipitem-175"/>
                            <clipitem id="clipitem-176"/>
                            <clipitem id="clipitem-177"/>
                            <clipitem id="clipitem-178"/>
                            <clipitem id="clipitem-179"/>
                            <clipitem id="clipitem-180"/>
                            <clipitem id="clipitem-181"/>
                            <clipitem id="clipitem-182"/>
                            <clipitem id="clipitem-183"/>
                            <clipitem id="clipitem-184"/>
                            <clipitem id="clipitem-185"/>
                            <clipitem id="clipitem-186"/>
                            <clipitem id="clipitem-187"/>
                            <clipitem id="clipitem-188"/>
                            <clipitem id="clipitem-189"/>
                            <clipitem id="clipitem-190"/>
                            <clipitem id="clipitem-191"/>
                            <clipitem id="clipitem-192"/>
                            <clipitem id="clipitem-193"/>
                            <clipitem id="clipitem-194"/>
                            <clipitem id="clipitem-195"/>
                            <clipitem id="clipitem-196"/>
                            <clipitem id="clipitem-197"/>
                            <clipitem id="clipitem-198"/>
                            <clipitem id="clipitem-199"/>
                            <clipitem id="clipitem-200"/>
                            <clipitem id="clipitem-201"/>
                            <clipitem id="clipitem-202"/>
                            <clipitem id="clipitem-203"/>
                            <clipitem id="clipitem-204"/>
                            <clipitem id="clipitem-205"/>
                            <clipitem id="clipitem-206"/>
                            <clipitem id="clipitem-207"/>
                            <clipitem id="clipitem-208"/>
                            <clipitem id="clipitem-209"/>
                            <clipitem id="clipitem-210"/>
                            <clipitem id="clipitem-211"/>
                            <clipitem id="clipitem-212"/>
                            <clipitem id="clipitem-213"/>
                            <clipitem id="clipitem-214"/>
                            <clipitem id="clipitem-215"/>
                            <clipitem id="clipitem-216"/>
                            <clipitem id="clipitem-217"/>
                            <clipitem id="clipitem-218"/>
                            <clipitem id="clipitem-219"/>
                            <clipitem id="clipitem-220"/>
                            <clipitem id="clipitem-221"/>
                            <clipitem id="clipitem-222"/>
                            <clipitem id="clipitem-223"/>
                            <clipitem id="clipitem-224"/>
                            <clipitem id="clipitem-225"/>
                            <clipitem id="clipitem-226"/>
                            <clipitem id="clipitem-227"/>
                            <clipitem id="clipitem-228"/>
                            <clipitem id="clipitem-229"/>
                            <clipitem id="clipitem-230"/>
                            <clipitem id="clipitem-231"/>
                            <clipitem id="clipitem-232"/>
                            <clipitem id="clipitem-233"/>
                            <clipitem id="clipitem-234"/>
                            <clipitem id="clipitem-235"/>
                            <clipitem id="clipitem-236"/>
                            <clipitem id="clipitem-237"/>
                            <clipitem id="clipitem-238"/>
                            <clipitem id="clipitem-239"/>
                            <clipitem id="clipitem-240"/>
                            <clipitem id="clipitem-241"/>
                            <clipitem id="clipitem-242"/>
                            <clipitem id="clipitem-243"/>
                            <clipitem id="clipitem-244"/>
                            <clipitem id="clipitem-245"/>
                            <clipitem id="clipitem-246"/>
                            <clipitem id="clipitem-247"/>
                            <clipitem id="clipitem-248"/>
                            <clipitem id="clipitem-249"/>
                            <clipitem id="clipitem-250"/>
                            <clipitem id="clipitem-251"/>
                            <clipitem id="clipitem-252"/>
                            <clipitem id="clipitem-253"/>
                            <clipitem id="clipitem-254"/>
                            <clipitem id="clipitem-255"/>
                            <clipitem id="clipitem-256"/>
                            <clipitem id="clipitem-257"/>
                            <clipitem id="clipitem-258"/>
                            <clipitem id="clipitem-259"/>
                            <clipitem id="clipitem-260"/>
                            <clipitem id="clipitem-261"/>
                            <clipitem id="clipitem-262"/>
                            <clipitem id="clipitem-263"/>
                            <clipitem id="clipitem-264"/>
                            <clipitem id="clipitem-265"/>
                            <clipitem id="clipitem-266"/>
                            <clipitem id="clipitem-267"/>
                            <clipitem id="clipitem-268"/>
                            <clipitem id="clipitem-269"/>
                            <clipitem id="clipitem-270"/>
                            <clipitem id="clipitem-271"/>
                            <clipitem id="clipitem-272"/>
                            <clipitem id="clipitem-273"/>
                            <clipitem id="clipitem-274"/>
                            <clipitem id="clipitem-275"/>
                            <clipitem id="clipitem-276"/>
                            <clipitem id="clipitem-277"/>
                            <clipitem id="clipitem-278"/>
                            <clipitem id="clipitem-279"/>
                            <clipitem id="clipitem-280"/>
                            <clipitem id="clipitem-281"/>
                            <clipitem id="clipitem-282"/>
                            <clipitem id="clipitem-283"/>
                            <clipitem id="clipitem-284"/>
                            <clipitem id="clipitem-285"/>
                            <clipitem id="clipitem-286"/>
                            <clipitem id="clipitem-287"/>
                            <clipitem id="clipitem-288"/>
                            <clipitem id="clipitem-289"/>
                            <clipitem id="clipitem-290"/>
                            <clipitem id="clipitem-291"/>
                            <clipitem id="clipitem-292"/>
                            <clipitem id="clipitem-293"/>
                            <clipitem id="clipitem-294"/>
                            <clipitem id="clipitem-295"/>
                            <clipitem id="clipitem-296"/>
                            <clipitem id="clipitem-297"/>
                            <clipitem id="clipitem-298"/>
                            <clipitem id="clipitem-299"/>
                            <clipitem id="clipitem-300"/>
                            <clipitem id="clipitem-301"/>
                            <clipitem id="clipitem-302"/>
                            <clipitem id="clipitem-303"/>
                            <clipitem id="clipitem-304"/>
                            <clipitem id="clipitem-305"/>
                            <clipitem id="clipitem-306"/>
                            <clipitem id="clipitem-307"/>
                            <clipitem id="clipitem-308"/>
                            <clipitem id="clipitem-309"/>
                            <clipitem id="clipitem-310"/>
                            <clipitem id="clipitem-311"/>
                            <clipitem id="clipitem-312"/>
                            <clipitem id="clipitem-313"/>
                            <clipitem id="clipitem-314"/>
                            <clipitem id="clipitem-315"/>
                            <clipitem id="clipitem-316"/>
                            <clipitem id="clipitem-317"/>
                            <clipitem id="clipitem-318"/>
                            <clipitem id="clipitem-319"/>
                            <clipitem id="clipitem-320"/>
                            <clipitem id="clipitem-321"/>
                            <clipitem id="clipitem-322"/>
                            <clipitem id="clipitem-323"/>
                            <clipitem id="clipitem-324"/>
                            <clipitem id="clipitem-325"/>
                            <clipitem id="clipitem-326"/>
                            <clipitem id="clipitem-327"/>
                            <clipitem id="clipitem-328"/>
                            <clipitem id="clipitem-329"/>
                            <clipitem id="clipitem-330"/>
                            <clipitem id="clipitem-331"/>
                            <clipitem id="clipitem-332"/>
                            <clipitem id="clipitem-333"/>
                            <clipitem id="clipitem-334"/>
                            <clipitem id="clipitem-335"/>
                            <clipitem id="clipitem-336"/>
                            <clipitem id="clipitem-337"/>
                            <clipitem id="clipitem-338"/>
                            <clipitem id="clipitem-339"/>
                            <clipitem id="clipitem-340"/>
                            <clipitem id="clipitem-341"/>
                            <clipitem id="clipitem-342"/>
                            <clipitem id="clipitem-343"/>
                            <clipitem id="clipitem-344"/>
                            <clipitem id="clipitem-345"/>
                            <clipitem id="clipitem-346"/>
                            <clipitem id="clipitem-347"/>
                            <clipitem id="clipitem-348"/>
                            <clipitem id="clipitem-349"/>
                            <clipitem id="clipitem-350"/>
                            <clipitem id="clipitem-351"/>
                            <clipitem id="clipitem-352"/>
                            <clipitem id="clipitem-353"/>
                            <clipitem id="clipitem-354"/>
                            <clipitem id="clipitem-355"/>
                            <clipitem id="clipitem-356"/>
                            <clipitem id="clipitem-357"/>
                            <clipitem id="clipitem-358"/>
                            <clipitem id="clipitem-359"/>
                            <clipitem id="clipitem-360"/>
                            <clipitem id="clipitem-361"/>
                            <clipitem id="clipitem-362"/>
                            <clipitem id="clipitem-363"/>
                            <clipitem id="clipitem-364"/>
                            <clipitem id="clipitem-365"/>
                            <clipitem id="clipitem-366"/>
                            <clipitem id="clipitem-367"/>
                            <clipitem id="clipitem-368"/>
                            <clipitem id="clipitem-369"/>
                            <clipitem id="clipitem-370"/>
                            <clipitem id="clipitem-371"/>
                            <clipitem id="clipitem-372"/>
                            <clipitem id="clipitem-373"/>
                            <clipitem id="clipitem-374"/>
                            <clipitem id="clipitem-375"/>
                            <clipitem id="clipitem-376"/>
                            <clipitem id="clipitem-377"/>
                            <clipitem id="clipitem-378"/>
                            <clipitem id="clipitem-379"/>
                            <clipitem id="clipitem-380"/>
                            <clipitem id="clipitem-381"/>
                            <clipitem id="clipitem-382"/>
                            <clipitem id="clipitem-383"/>
                            <clipitem id="clipitem-384"/>
                            <clipitem id="clipitem-385"/>
                            <clipitem id="clipitem-386"/>
                            <clipitem id="clipitem-387"/>
                            <clipitem id="clipitem-388"/>
                            <clipitem id="clipitem-389"/>
                            <clipitem id="clipitem-390"/>
                            <clipitem id="clipitem-391"/>
                            <clipitem id="clipitem-392"/>
                            <clipitem id="clipitem-393"/>
                            <clipitem id="clipitem-394"/>
                            <clipitem id="clipitem-395"/>
                            <clipitem id="clipitem-396"/>
                            <clipitem id="clipitem-397"/>
                            <clipitem id="clipitem-398"/>
                            <clipitem id="clipitem-399"/>
                            <clipitem id="clipitem-400"/>
                            <clipitem id="clipitem-401"/>
                            <clipitem id="clipitem-402"/>
                            <clipitem id="clipitem-403"/>
                            <clipitem id="clipitem-404"/>
                            <clipitem id="clipitem-405"/>
                            <clipitem id="clipitem-406"/>
                            <clipitem id="clipitem-407"/>
                            <clipitem id="clipitem-408"/>
                            <clipitem id="clipitem-409"/>
                            <clipitem id="clipitem-410"/>
                            <clipitem id="clipitem-411"/>
                            <clipitem id="clipitem-412"/>
                            <clipitem id="clipitem-413"/>
                            <clipitem id="clipitem-414"/>
                            <clipitem id="clipitem-415"/>
                            <clipitem id="clipitem-416"/>
                            <clipitem id="clipitem-417"/>
                            <clipitem id="clipitem-418"/>
                            <clipitem id="clipitem-419"/>
                            <clipitem id="clipitem-420"/>
                            <clipitem id="clipitem-421"/>
                            <clipitem id="clipitem-422"/>
                            <clipitem id="clipitem-423"/>
                            <clipitem id="clipitem-424"/>
                            <clipitem id="clipitem-425"/>
                            <clipitem id="clipitem-426"/>
                            <clipitem id="clipitem-427"/>
                            <clipitem id="clipitem-428"/>
                            <clipitem id="clipitem-429"/>
                            <clipitem id="clipitem-430"/>
                            <clipitem id="clipitem-431"/>
                            <clipitem id="clipitem-432"/>
                            <clipitem id="clipitem-433"/>
                            <clipitem id="clipitem-434"/>
                            <clipitem id="clipitem-435"/>
                            <clipitem id="clipitem-436"/>
                            <clipitem id="clipitem-437"/>
                            <clipitem id="clipitem-438"/>
                            <clipitem id="clipitem-439"/>
                            <clipitem id="clipitem-440"/>
                            <clipitem id="clipitem-441"/>
                            <clipitem id="clipitem-442"/>
                            <clipitem id="clipitem-443"/>
                            <clipitem id="clipitem-444"/>
                            <clipitem id="clipitem-445"/>
                            <clipitem id="clipitem-446"/>
                            <clipitem id="clipitem-447"/>
                            <clipitem id="clipitem-448"/>
                            <clipitem id="clipitem-449"/>
                            <clipitem id="clipitem-450"/>
                            <clipitem id="clipitem-451"/>
                            <clipitem id="clipitem-452"/>
                            <clipitem id="clipitem-453"/>
                            <clipitem id="clipitem-454"/>
                            <clipitem id="clipitem-455"/>
                            <clipitem id="clipitem-456"/>
                            <clipitem id="clipitem-457"/>
                            <clipitem id="clipitem-458"/>
                            <clipitem id="clipitem-459"/>
                            <clipitem id="clipitem-460"/>
                            <clipitem id="clipitem-461"/>
                            <clipitem id="clipitem-462"/>
                            <clipitem id="clipitem-463"/>
                            <clipitem id="clipitem-464"/>
                            <clipitem id="clipitem-465"/>
                            <clipitem id="clipitem-466"/>
                            <clipitem id="clipitem-467"/>
                            <clipitem id="clipitem-468"/>
                            <clipitem id="clipitem-469"/>
                            <clipitem id="clipitem-470"/>
                            <clipitem id="clipitem-471"/>
                            <clipitem id="clipitem-472"/>
                            <clipitem id="clipitem-473"/>
                            <clipitem id="clipitem-474"/>
                            <clipitem id="clipitem-475"/>
                            <clipitem id="clipitem-476"/>
                            <clipitem id="clipitem-477"/>
                            <clipitem id="clipitem-478"/>
                            <clipitem id="clipitem-479"/>
                            <clipitem id="clipitem-480"/>
                            <clipitem id="clipitem-481"/>
                            <clipitem id="clipitem-482"/>
                            <clipitem id="clipitem-483"/>
                            <clipitem id="clipitem-484"/>
                            <clipitem id="clipitem-485"/>
                            <clipitem id="clipitem-486"/>
                            <clipitem id="clipitem-487"/>
                            <clipitem id="clipitem-488"/>
                            <clipitem id="clipitem-489"/>
                            <clipitem id="clipitem-490"/>
                            <clipitem id="clipitem-491"/>
                            <clipitem id="clipitem-492"/>
                            <clipitem id="clipitem-493"/>
                            <clipitem id="clipitem-494"/>
                            <clipitem id="clipitem-495"/>
                            <clipitem id="clipitem-496"/>
                            <clipitem id="clipitem-497"/>
                            <clipitem id="clipitem-498"/>
                            <clipitem id="clipitem-499"/>
                            <clipitem id="clipitem-500"/>
                            <clipitem id="clipitem-501"/>
                            <clipitem id="clipitem-502"/>
                            <clipitem id="clipitem-503"/>
                            <clipitem id="clipitem-504"/>
                            <clipitem id="clipitem-505"/>
                            <clipitem id="clipitem-506"/>
                            <clipitem id="clipitem-507"/>
                            <clipitem id="clipitem-508"/>
                            <clipitem id="clipitem-509"/>
                            <clipitem id="clipitem-510"/>
                            <clipitem id="clipitem-511"/>
                            <clipitem id="clipitem-512"/>
                            <clipitem id="clipitem-513"/>
                            <clipitem id="clipitem-514"/>
                            <clipitem id="clipitem-515"/>
                        </track>
                    </audio>
                </media>
                <timecode>
                    <rate>
                        <timebase>24</timebase>
                        <ntsc>TRUE</ntsc>
                    </rate>
                    <string>00:00:00:00</string>
                    <frame>0</frame>
                    <displayformat>NDF</displayformat>
                </timecode>
            </sequence>
        </children>
    </project>
</xmeml>
